<svg width="62" height="63" viewBox="0 0 62 63" fill="none" xmlns="http://www.w3.org/2000/svg">
<circle cx="31.1269" cy="31.5971" r="30.7836" fill="white"/>
<g clip-path="url(#clip0_1_222)">
<path d="M13.7131 35.9507C13.7131 35.9507 13.169 32.1414 16.9782 28.3321C20.7875 24.5228 24.5968 25.067 24.5968 25.067L39.8339 40.3041C39.8339 40.3041 37.113 40.8483 33.3037 44.6576C29.4944 48.4668 28.9502 51.1877 28.9502 51.1877L13.7131 35.9507ZM24.5968 25.067C24.5968 25.067 24.0526 21.2577 27.8619 17.4485C31.6711 13.6392 35.4804 14.1834 35.4804 14.1834L50.7175 29.4205C50.7175 29.4205 47.9966 29.9647 44.1873 33.7739C40.3781 37.5832 39.8339 40.3041 39.8339 40.3041L24.5968 25.067Z" stroke="#4FBB8A" strokeWidth="2.5" strokeLinecap="round" strokeLinejoin="round"/>
</g>
<defs>
<clipPath id="clip0_1_222">
<rect width="36.9403" height="36.9403" fill="white" transform="translate(5.00623 31.5972) rotate(-45)"/>
</clipPath>
</defs>
</svg>
