<svg width="63" height="62" viewBox="0 0 63 62" fill="none" xmlns="http://www.w3.org/2000/svg">
<circle cx="31.5297" cy="31.112" r="30.7836" fill="white"/>
<path d="M21.0653 15.4198L21.1661 15.3192H20.9244H20.9232H20.6818L20.7824 15.4197L19.2284 16.9715L19.1575 17.0422L19.2283 17.113L21.6468 19.5303L21.7175 19.6009L21.7882 19.5302L23.4112 17.9072L23.4819 17.8365L23.4112 17.7658L21.0653 15.4198ZM42.2771 15.4198L42.3777 15.3192H42.1362H42.1351H41.8936L41.9942 15.4197L39.6471 17.7657L39.5763 17.8365L39.6471 17.9072L41.2713 19.5303L41.342 19.6009L41.4127 19.5303L43.83 17.1141L43.9007 17.0434L43.83 16.9727L42.2771 15.4198ZM31.5288 16.0395L31.5285 16.0395C31.1472 16.0442 30.7606 16.066 30.3712 16.1132L30.363 16.1127C30.3554 16.1123 30.3421 16.1119 30.3264 16.1144C25.5984 16.6578 21.839 20.477 21.1855 25.1808L21.1855 25.1809C20.6633 28.9693 22.2257 32.4041 24.8271 34.6153C25.8618 35.4984 26.5624 36.7093 26.8122 38.0463V44.9633V45.0633H26.9122H29.4875C29.9118 45.7538 30.6616 46.2177 31.5297 46.2177C32.3978 46.2177 33.1477 45.7538 33.5719 45.0633H36.1473H36.2473V44.9633V40.4458H36.2558H36.3558V40.3458V38.9744C36.3558 37.3166 37.2183 35.6354 38.6326 34.3228L38.6326 34.3229L38.6353 34.3202C40.5617 32.3914 42.0192 29.6486 42.0192 26.4944C42.0192 20.7368 37.2809 15.9859 31.5288 16.0395ZM36.7989 32.5895L36.8333 32.6239C35.3401 34.0329 34.3672 35.9059 34.0736 37.9382H29.1989C28.9289 35.9711 28.0727 34.0675 26.4705 32.6948L26.4701 32.6945C24.4535 30.9826 23.2543 28.4064 23.6554 25.498C24.1538 21.9059 27.0691 19.0181 30.638 18.6227L30.638 18.6228L30.6408 18.6224C30.9356 18.5813 31.2324 18.5569 31.5299 18.5494L31.5522 18.5489L31.5539 18.548C35.9481 18.4992 39.5104 22.1005 39.5104 26.4944C39.5104 28.8797 38.4054 30.9842 36.8696 32.5188L36.7989 32.5895ZM15.3683 26.3944H15.2683V26.4944V28.8031V28.9031H15.3683H18.8315H18.9315V28.8031V26.4944V26.3944H18.8315H15.3683ZM44.228 26.3944H44.128V26.4944V28.8031V28.9031H44.228H47.6911H47.7911V28.8031V26.4944V26.3944H47.6911H44.228ZM21.7882 35.7673L21.7175 35.6965L21.6468 35.7672L19.2295 38.1833L19.1587 38.254L19.2295 38.3248L20.8537 39.949L20.9244 40.0197L20.9951 39.949L23.4101 37.5317L23.4807 37.461L23.4101 37.3903L21.7882 35.7673ZM41.4127 35.7672L41.342 35.6965L41.2713 35.7672L39.6482 37.3903L39.5775 37.461L39.6482 37.5317L42.0643 39.949L42.135 40.0197L42.2058 39.949L43.83 38.3248L43.9007 38.254L43.83 38.1833L41.4127 35.7672ZM33.7385 40.447V42.5557H29.321V40.447H33.7385Z" fill="#FFB357" stroke="#FFB357" strokeWidth="0.2"/>
</svg>
