<svg width="160" height="54" viewBox="0 0 160 54" fill="none" xmlns="http://www.w3.org/2000/svg">
<rect width="160" height="54" rx="8" fill="#1A6241"/>
<path d="M32.1925 26.5201L35.8888 22.8239L23.95 16.1139C23.1588 15.6864 22.4175 15.6264 21.7675 16.0939L32.1925 26.5201ZM36.5188 30.8476L40.3612 28.6864C41.1112 28.2664 41.5225 27.6714 41.5225 27.0114C41.5225 26.3526 41.1112 25.7564 40.3625 25.3364L36.8838 23.3826L32.9675 27.2976L36.5188 30.8476ZM21.125 17.0026C21.045 17.2489 21 17.5239 21 17.8251V36.2064C21 36.6826 21.105 37.0926 21.295 37.4189L31.4163 27.2964L21.125 17.0026ZM32.1925 28.0714L22.1275 38.1376C22.32 38.2114 22.5275 38.2501 22.7462 38.2501C23.1362 38.2501 23.5425 38.1351 23.9562 37.9051L35.525 31.4089L32.1925 28.0714Z" fill="white"/>
<path d="M54.464 38.176C57.888 38.176 59.84 36.144 59.84 33.088V31.872H54.704V33.76H57.28C57.232 35.072 56.448 36.176 54.528 36.176C52.288 36.176 51.344 34.592 51.344 32.384V32.256C51.344 29.92 52.512 28.432 54.496 28.432C55.872 28.432 56.752 29.04 56.976 30.384H59.552C59.28 27.552 57.008 26.384 54.464 26.384C51.088 26.384 48.64 28.784 48.64 32.224V32.352C48.64 35.744 50.72 38.176 54.464 38.176ZM65.4124 36.416C64.1004 36.416 63.3644 35.456 63.3644 33.856V33.728C63.3644 32.128 64.1324 31.2 65.4124 31.2C66.7084 31.2 67.4604 32.16 67.4604 33.76V33.872C67.4604 35.456 66.7084 36.416 65.4124 36.416ZM65.3964 38.176C67.9084 38.176 69.8124 36.496 69.8124 33.856V33.728C69.8124 31.12 67.9244 29.44 65.4124 29.44C62.9004 29.44 60.9964 31.152 60.9964 33.776V33.904C60.9964 36.512 62.9004 38.176 65.3964 38.176ZM75.2718 36.416C73.9598 36.416 73.2238 35.456 73.2238 33.856V33.728C73.2238 32.128 73.9918 31.2 75.2718 31.2C76.5678 31.2 77.3198 32.16 77.3198 33.76V33.872C77.3198 35.456 76.5678 36.416 75.2718 36.416ZM75.2558 38.176C77.7678 38.176 79.6718 36.496 79.6718 33.856V33.728C79.6718 31.12 77.7838 29.44 75.2718 29.44C72.7598 29.44 70.8558 31.152 70.8558 33.776V33.904C70.8558 36.512 72.7598 38.176 75.2558 38.176ZM84.9391 41.088C87.6911 41.088 89.3391 39.824 89.3551 37.344V29.632H87.0511V30.88C86.5711 30.032 85.7551 29.44 84.3951 29.44C82.3151 29.44 80.7151 31.12 80.7151 33.52V33.632C80.7151 36.112 82.3311 37.632 84.3631 37.632C85.5951 37.632 86.5871 36.896 87.0511 36.08V37.344C87.0511 38.656 86.3471 39.392 84.9391 39.392C83.7551 39.392 83.2271 38.912 83.0831 38.176H80.7791C81.0031 39.904 82.2351 41.088 84.9391 41.088ZM85.0511 35.888C83.8991 35.888 83.0831 35.024 83.0831 33.632V33.504C83.0831 32.128 83.8031 31.2 85.0991 31.2C86.3631 31.2 87.1151 32.064 87.1151 33.488V33.6C87.1151 35.024 86.2671 35.888 85.0511 35.888ZM91.463 38H93.767V25.84H91.463V38ZM99.7394 38.176C102.027 38.176 103.467 37.168 103.739 35.36H101.547C101.403 36.064 100.875 36.528 99.8034 36.528C98.5394 36.528 97.7874 35.728 97.7234 34.336H103.755V33.696C103.755 30.704 101.835 29.44 99.6754 29.44C97.2434 29.44 95.3714 31.152 95.3714 33.792V33.92C95.3714 36.592 97.2114 38.176 99.7394 38.176ZM97.7554 32.912C97.9314 31.728 98.6354 31.04 99.6754 31.04C100.779 31.04 101.419 31.648 101.499 32.912H97.7554ZM109.029 38H111.605V33.84H113.061C115.669 33.84 117.349 32.688 117.349 30.272V30.208C117.349 27.792 115.765 26.56 112.981 26.56H109.029V38ZM111.605 32.032V28.528H112.917C114.149 28.528 114.853 29.008 114.853 30.224V30.288C114.853 31.424 114.181 32.032 112.917 32.032H111.605ZM118.901 38H121.205V25.84H118.901V38ZM125.577 38.176C126.889 38.176 127.625 37.664 128.105 36.992V38H130.361V32.544C130.361 30.272 128.905 29.44 126.857 29.44C124.809 29.44 123.241 30.32 123.097 32.304H125.289C125.385 31.584 125.801 31.12 126.713 31.12C127.769 31.12 128.073 31.664 128.073 32.656V32.992H127.129C124.569 32.992 122.777 33.728 122.777 35.68C122.777 37.44 124.057 38.176 125.577 38.176ZM126.265 36.56C125.417 36.56 125.049 36.16 125.049 35.552C125.049 34.656 125.833 34.368 127.177 34.368H128.073V35.072C128.073 36 127.289 36.56 126.265 36.56ZM133.174 40.848H135.414L139.942 29.632H137.718L135.846 34.656L133.814 29.632H131.318L134.646 37.152L133.174 40.848Z" fill="white"/>
<path d="M52.01 19.09C53.84 19.09 55.11 17.99 55.11 15.92V15.39H52.17V16.11H54.26C54.23 17.38 53.56 18.39 52.01 18.39C50.33 18.39 49.45 17.23 49.45 15.46V15.38C49.45 13.63 50.39 12.43 52.03 12.43C53.07 12.43 53.85 12.87 54.05 14.01H54.92C54.7 12.4 53.43 11.74 52.01 11.74C49.96 11.74 48.55 13.3 48.55 15.39V15.47C48.55 17.56 49.81 19.09 52.01 19.09ZM56.566 19H60.916V18.29H57.436V15.7H60.096V14.99H57.436V12.56H60.736V11.85H56.566V19ZM63.7001 19H64.5701V12.56H66.6501V11.85H61.6201V12.56H63.7001V19ZM70.532 19H71.402V11.85H70.532V19ZM74.7255 19H75.5955V12.56H77.6755V11.85H72.6455V12.56H74.7255V19ZM84.6974 18.37C83.2074 18.37 82.0574 17.19 82.0574 15.46V15.38C82.0574 13.68 83.0174 12.46 84.6774 12.46C86.3274 12.46 87.2674 13.76 87.2674 15.36V15.44C87.2674 17.17 86.2874 18.37 84.6974 18.37ZM84.6974 19.09C86.7774 19.09 88.1674 17.47 88.1674 15.45V15.37C88.1674 13.36 86.7774 11.76 84.6774 11.76C82.5774 11.76 81.1574 13.36 81.1574 15.39V15.47C81.1574 17.47 82.5874 19.09 84.6974 19.09ZM89.6129 19H90.4429V12.87L94.0529 19H95.0529V11.85H94.2229V17.76L90.7429 11.85H89.6129V19Z" fill="white"/>
</svg>
