<svg width="62" height="63" viewBox="0 0 62 63" fill="none" xmlns="http://www.w3.org/2000/svg">
<circle cx="30.8729" cy="31.2836" r="30.7836" fill="white"/>
<path d="M44.5756 23.414V25.3952H17.1703V23.414L17.7968 23.0929L17.7977 23.0924L30.3889 16.7487L30.3899 16.7482L30.8729 16.5002L31.3546 16.7481L31.3558 16.7487L43.9481 23.0924L43.9491 23.0929L44.5756 23.414ZM30.9403 19.1071L30.8729 19.0733L30.8056 19.1071L23.407 22.8249L23.4744 23.1089H38.2715L38.3388 22.8249L30.9403 19.1071ZM19.539 39.9199H19.689V39.7699V26.9884H21.9076V39.7699V39.9199H22.0576H24.5763H24.7263V39.7699V26.9884H26.945V39.7699V39.9199H27.095H29.6136H29.7636V39.7699V26.9884H31.9823V39.7699V39.9199H32.1323H34.6509H34.8009V39.7699V26.9884H37.0196V39.7699V39.9199H37.1696H39.6882H39.8382V39.7699V26.9884H42.0569V39.7699V39.9199H42.2069H43.3162V42.2061H18.4297V39.9199H19.539ZM45.8349 46.0856H15.911V43.7993H45.8349V46.0856Z" fill="#FFB357" stroke="#FFB357" strokeWidth="0.3"/>
</svg>
