<svg width="62" height="63" viewBox="0 0 62 63" fill="none" xmlns="http://www.w3.org/2000/svg">
<circle cx="30.8729" cy="31.3805" r="30.7836" fill="white"/>
<g clip-path="url(#clip0_1_226)">
<path d="M12.7382 26.3061L12.5614 26.4829L12.7382 26.6597L35.5938 49.5153L35.7706 49.6921L35.9474 49.5153L49.824 35.6387C50.5204 34.9423 50.9116 33.9979 50.9116 33.0131C50.9116 32.0283 50.5204 31.0838 49.824 30.3875L31.866 12.4295C31.1697 11.7331 30.2252 11.3419 29.2404 11.3419C28.2557 11.3419 27.3112 11.7331 26.6148 12.4295L12.7382 26.3061ZM36.7637 51.9641L36.9405 51.7874L36.7637 51.6106L10.8197 25.6666L10.6429 25.4899L10.4662 25.6666L10.2894 25.4899C9.59304 26.1862 9.20183 27.1307 9.20183 28.1155C9.20183 29.1002 9.59304 30.0447 10.2894 30.741L31.5125 51.9641C32.2088 52.6605 33.1533 53.0517 34.1381 53.0517C35.1229 53.0517 36.0673 52.6605 36.7637 51.9641ZM47.8379 32.3736C48.0075 32.5432 48.1028 32.7732 48.1028 33.0131C48.1028 33.2529 48.0075 33.483 47.8379 33.6526L35.7706 45.7199L16.5336 26.4829L28.6009 14.4156C28.7705 14.246 29.0006 14.1507 29.2404 14.1507C29.4803 14.1507 29.7103 14.246 29.8799 14.4156L47.8379 32.3736Z" fill="#4FBB8A" stroke="#4FBB8A" strokeWidth="0.5"/>
</g>
<defs>
<clipPath id="clip0_1_226">
<rect width="36.9403" height="36.9403" fill="white" transform="translate(30.873 5.25977) rotate(45)"/>
</clipPath>
</defs>
</svg>
