<svg width="240" height="134" viewBox="0 0 240 134" fill="none" xmlns="http://www.w3.org/2000/svg">
<g filter="url(#filter0_d_633_680)">
<rect x="40.5" y="16.5" width="159" height="53" rx="7.5" stroke="white" shape-rendering="crispEdges"/>
</g>
<path d="M88.336 54H90.768L91.552 51.456H95.696L96.48 54H99.184L95.472 42.56H92.096L88.336 54ZM93.632 44.672L95.136 49.616H92.112L93.632 44.672ZM100.54 56.848H102.86V52.72C103.292 53.536 104.236 54.176 105.532 54.176C107.612 54.176 109.18 52.624 109.18 49.856V49.728C109.18 46.96 107.58 45.44 105.532 45.44C104.3 45.44 103.324 46.144 102.86 46.944V45.632H100.54V56.848ZM104.844 52.368C103.58 52.368 102.78 51.552 102.78 49.872V49.744C102.78 48.064 103.612 47.216 104.828 47.216C105.996 47.216 106.828 48.048 106.828 49.744V49.872C106.828 51.504 106.124 52.368 104.844 52.368ZM110.727 56.848H113.047V52.72C113.479 53.536 114.423 54.176 115.719 54.176C117.799 54.176 119.367 52.624 119.367 49.856V49.728C119.367 46.96 117.767 45.44 115.719 45.44C114.487 45.44 113.511 46.144 113.047 46.944V45.632H110.727V56.848ZM115.031 52.368C113.767 52.368 112.967 51.552 112.967 49.872V49.744C112.967 48.064 113.799 47.216 115.015 47.216C116.183 47.216 117.015 48.048 117.015 49.744V49.872C117.015 51.504 116.311 52.368 115.031 52.368ZM120.979 54H123.283V41.84H120.979V54ZM129.255 54.176C131.543 54.176 132.983 53.168 133.255 51.36H131.063C130.919 52.064 130.391 52.528 129.319 52.528C128.055 52.528 127.303 51.728 127.239 50.336H133.271V49.696C133.271 46.704 131.351 45.44 129.191 45.44C126.759 45.44 124.887 47.152 124.887 49.792V49.92C124.887 52.592 126.727 54.176 129.255 54.176ZM127.271 48.912C127.447 47.728 128.151 47.04 129.191 47.04C130.295 47.04 130.935 47.648 131.015 48.912H127.271ZM142.545 54.176C145.249 54.176 146.913 52.56 146.913 50.528C146.913 48.16 145.489 47.408 142.721 47.056C140.961 46.8 140.593 46.416 140.593 45.6C140.593 44.832 141.169 44.304 142.305 44.304C143.441 44.304 144.049 44.784 144.209 45.824H146.593C146.385 43.552 144.881 42.4 142.305 42.4C139.777 42.4 138.145 43.856 138.145 45.808C138.145 48.016 139.345 48.896 142.273 49.28C143.953 49.536 144.433 49.856 144.433 50.768C144.433 51.664 143.681 52.288 142.545 52.288C140.849 52.288 140.417 51.44 140.305 50.416H137.825C137.969 52.704 139.409 54.176 142.545 54.176ZM151.627 54.16C152.251 54.16 152.715 54.048 153.035 53.936V52.144C152.763 52.256 152.507 52.304 152.155 52.304C151.563 52.304 151.227 51.984 151.227 51.312V47.28H152.987V45.632H151.227V43.824H148.923V45.632H147.851V47.28H148.923V51.52C148.923 53.264 149.867 54.16 151.627 54.16ZM158.506 52.416C157.194 52.416 156.458 51.456 156.458 49.856V49.728C156.458 48.128 157.226 47.2 158.506 47.2C159.802 47.2 160.554 48.16 160.554 49.76V49.872C160.554 51.456 159.802 52.416 158.506 52.416ZM158.49 54.176C161.002 54.176 162.906 52.496 162.906 49.856V49.728C162.906 47.12 161.018 45.44 158.506 45.44C155.994 45.44 154.09 47.152 154.09 49.776V49.904C154.09 52.512 155.994 54.176 158.49 54.176ZM164.462 54H166.782V49.808C166.782 48.208 167.774 47.648 169.486 47.664V45.504C168.126 45.52 167.31 46.112 166.782 47.232V45.632H164.462V54ZM174.708 54.176C176.996 54.176 178.436 53.168 178.708 51.36H176.516C176.372 52.064 175.844 52.528 174.772 52.528C173.508 52.528 172.756 51.728 172.692 50.336H178.724V49.696C178.724 46.704 176.804 45.44 174.644 45.44C172.212 45.44 170.34 47.152 170.34 49.792V49.92C170.34 52.592 172.18 54.176 174.708 54.176ZM172.724 48.912C172.9 47.728 173.604 47.04 174.644 47.04C175.748 47.04 176.388 47.648 176.468 48.912H172.724Z" fill="white"/>
<g clip-path="url(#clip0_633_680)">
<path d="M73.3751 32.011C73.3284 31.9588 71.644 32.0316 70.1783 33.6225C68.7125 35.212 68.938 37.0353 68.971 37.082C69.004 37.1288 71.061 37.2016 72.3741 35.3523C73.6873 33.5029 73.4219 32.0646 73.3751 32.011ZM77.9319 48.1439C77.8659 48.0119 74.735 46.4471 75.0265 43.4386C75.318 40.4288 77.3296 39.6038 77.3613 39.5144C77.3929 39.425 76.5404 38.4281 75.637 37.9235C74.9737 37.5677 74.2397 37.3639 73.4879 37.3268C73.3394 37.3226 72.8238 37.1961 71.7636 37.4863C71.0651 37.6774 69.4908 38.2961 69.0576 38.3209C68.6231 38.3456 67.3306 37.6031 65.9405 37.4065C65.0509 37.2346 64.1076 37.5866 63.4325 37.8575C62.7588 38.127 61.4773 38.8943 60.5808 40.9334C59.6843 42.9711 60.1531 46.1996 60.4886 47.2034C60.8241 48.2058 61.348 49.8489 62.239 51.0479C63.031 52.4009 64.0815 53.34 64.5201 53.659C64.9588 53.978 66.1963 54.1898 67.0543 53.7511C67.7445 53.3276 68.9903 53.0843 69.4825 53.1021C69.9734 53.12 70.9414 53.3139 71.9328 53.8433C72.7179 54.1141 73.4604 54.0014 74.2043 53.6989C74.9481 53.395 76.0248 52.2428 77.2815 49.9066C77.7586 48.8204 77.9759 48.2333 77.9319 48.1439Z" fill="white"/>
<path d="M73.3751 32.011C73.3284 31.9588 71.644 32.0316 70.1783 33.6225C68.7125 35.212 68.938 37.0353 68.971 37.082C69.004 37.1288 71.061 37.2016 72.3741 35.3523C73.6873 33.5029 73.4219 32.0646 73.3751 32.011ZM77.9319 48.1439C77.8659 48.0119 74.735 46.4471 75.0265 43.4386C75.318 40.4288 77.3296 39.6038 77.3613 39.5144C77.3929 39.425 76.5404 38.4281 75.637 37.9235C74.9737 37.5677 74.2397 37.3639 73.4879 37.3268C73.3394 37.3226 72.8238 37.1961 71.7636 37.4863C71.0651 37.6774 69.4908 38.2961 69.0576 38.3209C68.6231 38.3456 67.3306 37.6031 65.9405 37.4065C65.0509 37.2346 64.1076 37.5866 63.4325 37.8575C62.7588 38.127 61.4773 38.8943 60.5808 40.9334C59.6843 42.9711 60.1531 46.1996 60.4886 47.2034C60.8241 48.2058 61.348 49.8489 62.239 51.0479C63.031 52.4009 64.0815 53.34 64.5201 53.659C64.9588 53.978 66.1963 54.1898 67.0543 53.7511C67.7445 53.3276 68.9903 53.0843 69.4825 53.1021C69.9734 53.12 70.9414 53.3139 71.9328 53.8433C72.7179 54.1141 73.4604 54.0014 74.2043 53.6989C74.9481 53.395 76.0248 52.2428 77.2815 49.9066C77.7586 48.8204 77.9759 48.2333 77.9319 48.1439Z" fill="white"/>
</g>
<path d="M92.01 35.09C93.84 35.09 95.11 33.99 95.11 31.92V31.39H92.17V32.11H94.26C94.23 33.38 93.56 34.39 92.01 34.39C90.33 34.39 89.45 33.23 89.45 31.46V31.38C89.45 29.63 90.39 28.43 92.03 28.43C93.07 28.43 93.85 28.87 94.05 30.01H94.92C94.7 28.4 93.43 27.74 92.01 27.74C89.96 27.74 88.55 29.3 88.55 31.39V31.47C88.55 33.56 89.81 35.09 92.01 35.09ZM96.566 35H100.916V34.29H97.436V31.7H100.096V30.99H97.436V28.56H100.736V27.85H96.566V35ZM103.7 35H104.57V28.56H106.65V27.85H101.62V28.56H103.7V35ZM110.532 35H111.402V27.85H110.532V35ZM114.725 35H115.595V28.56H117.675V27.85H112.645V28.56H114.725V35ZM124.697 34.37C123.207 34.37 122.057 33.19 122.057 31.46V31.38C122.057 29.68 123.017 28.46 124.677 28.46C126.327 28.46 127.267 29.76 127.267 31.36V31.44C127.267 33.17 126.287 34.37 124.697 34.37ZM124.697 35.09C126.777 35.09 128.167 33.47 128.167 31.45V31.37C128.167 29.36 126.777 27.76 124.677 27.76C122.577 27.76 121.157 29.36 121.157 31.39V31.47C121.157 33.47 122.587 35.09 124.697 35.09ZM129.613 35H130.443V28.87L134.053 35H135.053V27.85H134.223V33.76L130.743 27.85H129.613V35Z" fill="white"/>
<defs>
<filter id="filter0_d_633_680" x="0" y="0" width="240" height="134" filterUnits="userSpaceOnUse" color-interpolation-filters="sRGB">
<feFlood flood-opacity="0" result="BackgroundImageFix"/>
<feColorMatrix in="SourceAlpha" type="matrix" values="0 0 0 0 0 0 0 0 0 0 0 0 0 0 0 0 0 0 127 0" result="hardAlpha"/>
<feOffset dy="24"/>
<feGaussianBlur stdDeviation="20"/>
<feComposite in2="hardAlpha" operator="out"/>
<feColorMatrix type="matrix" values="0 0 0 0 0.106458 0 0 0 0 0.111563 0 0 0 0 0.116667 0 0 0 1 0"/>
<feBlend mode="normal" in2="BackgroundImageFix" result="effect1_dropShadow_633_680"/>
<feBlend mode="normal" in="SourceGraphic" in2="effect1_dropShadow_633_680" result="shape"/>
</filter>
<clipPath id="clip0_633_680">
<rect width="22" height="22" fill="white" transform="translate(58 32)"/>
</clipPath>
</defs>
</svg>
