<svg width="602" height="488" viewBox="0 0 602 488" fill="none" xmlns="http://www.w3.org/2000/svg">
<g clip-path="url(#clip0_482_818)">
<path d="M379.479 290.326L376.236 309.778L354.236 428.456H350.692L366.686 309.778L369.053 290.326H379.479Z" fill="#DBDBDB"/>
<path d="M369.053 290.326H379.479L376.236 309.778H366.686L369.053 290.326Z" fill="#A6A6A6"/>
<path d="M448.545 428.456H445.001L423.014 309.778L419.758 290.326H430.197L432.551 309.778L448.545 428.456Z" fill="#DBDBDB"/>
<path d="M430.197 290.326L432.551 309.778H423.014L419.758 290.326H430.197Z" fill="#A6A6A6"/>
<path d="M514.518 428.456H510.975L488.988 309.778L485.732 290.326H496.171L498.524 309.778L514.518 428.456Z" fill="#DBDBDB"/>
<path d="M498.524 309.778H488.988L485.732 290.326H496.171L498.524 309.778Z" fill="#A6A6A6"/>
<path d="M508.895 299.457H347.723V282.493H408.06L428.336 164.621H502.752L508.895 299.457Z" fill="#DBDBDB"/>
<path d="M508.895 299.457H500.111L494.392 164.621H502.752L508.895 299.457Z" fill="#A6A6A6"/>
<path d="M233.535 233.762L203.859 428.36H198.003L216.323 233.762H233.535Z" fill="#EBEBEB"/>
<path d="M233.521 233.762L230.689 252.352H214.572L216.323 233.762H233.521Z" fill="#A6A6A6"/>
<path d="M505.283 233.762L534.959 428.36H540.815L522.495 233.762H505.283Z" fill="#EBEBEB"/>
<path d="M505.297 233.762L508.129 252.352H524.246L522.495 233.762H505.297Z" fill="#A6A6A6"/>
<path d="M551.856 213.189H186.976V229.716H551.856V213.189Z" fill="#EBEBEB"/>
<path d="M546.301 229.715H192.503V233.761H546.301V229.715Z" fill="#8C8C8C"/>
<path d="M-0.396851 428.51L74.9489 428.182L150.295 428.059L301 427.826L451.705 428.059L527.051 428.168L602.397 428.51L527.051 428.838L451.705 428.961L301 429.193L150.295 428.961L74.9489 428.838L-0.396851 428.51Z" fill="#181818"/>
<path d="M104.146 284.148C104.146 283.218 104.05 282.289 104.05 281.414H105.076C105.076 282.303 105.076 283.205 105.172 284.148H104.146Z" fill="#181818"/>
<path d="M210.152 363.608H209.975V362.582H210.166C211.89 362.582 213.669 362.582 215.434 362.446V363.471C213.696 363.526 211.904 363.608 210.152 363.608ZM203.093 363.375C201.273 363.266 199.426 363.102 197.62 362.911L197.729 361.885C199.522 362.09 201.355 362.241 203.202 362.364L203.093 363.375ZM222.343 362.952L222.233 361.926C224.026 361.735 225.846 361.489 227.638 361.215L227.788 362.227C225.982 362.473 224.149 362.705 222.343 362.911V362.952ZM190.875 361.94C189.082 361.626 187.276 361.27 185.402 360.86L185.635 359.862C187.413 360.259 189.206 360.614 190.984 360.928L190.875 361.94ZM234.657 360.969L234.438 359.972C236.203 359.589 237.995 359.151 239.746 358.7L240.006 359.685C238.145 360.108 236.339 360.546 234.561 360.874L234.657 360.969ZM178.835 359.165C177.084 358.659 175.319 358.113 173.581 357.525L173.909 356.554C175.633 357.142 177.385 357.689 179.122 358.181L178.835 359.165ZM246.601 357.798L246.286 356.828C247.983 356.267 249.72 355.666 251.444 355.023L251.8 355.98C249.967 356.541 248.215 357.142 246.505 357.702L246.601 357.798ZM167.137 355.174C165.44 354.49 163.744 353.807 162.088 353L162.512 352.057C164.154 352.822 165.851 353.547 167.52 354.23L167.137 355.174ZM258.176 353.41L257.765 352.467C259.434 351.756 261.09 350.977 262.691 350.157L263.156 351.073C261.432 351.797 259.763 352.59 258.08 353.315L258.176 353.41ZM155.918 349.938C154.29 349.063 152.675 348.161 151.129 347.204L151.649 346.329C153.195 347.245 154.796 348.147 156.41 349.063L155.918 349.938ZM269.162 347.751L268.629 346.876C270.175 345.947 271.721 344.949 273.226 343.924L273.8 344.771C272.186 345.714 270.626 346.712 269.066 347.655L269.162 347.751ZM145.314 343.555C143.782 342.529 142.277 341.463 140.813 340.383L141.429 339.563C142.797 340.629 144.37 341.695 145.889 342.707L145.314 343.555ZM279.396 340.698L278.767 339.905C280.135 338.784 281.585 337.608 282.94 336.405L283.624 337.185C282.091 338.292 280.669 339.481 279.232 340.602L279.396 340.698ZM135.491 336.118C134.123 334.929 132.754 333.713 131.386 332.482L132.084 331.73C133.452 332.947 134.82 334.164 136.189 335.326L135.491 336.118ZM288.645 332.496L287.92 331.771C289.179 330.514 290.451 329.202 291.696 327.848L292.449 328.532C291.026 329.803 289.753 331.143 288.481 332.4L288.645 332.496ZM126.283 327.548C125.024 326.181 123.779 324.814 122.589 323.447L123.369 322.777C124.545 324.144 125.777 325.511 127.022 326.878L126.283 327.548ZM296.813 323.269L296.033 322.613C297.182 321.246 298.332 319.811 299.44 318.362L300.247 318.99C299.125 320.439 297.976 321.888 296.813 323.269ZM118.279 318.102C117.185 316.626 116.117 315.108 115.119 313.591L115.981 313.031C116.966 314.521 118.019 316.024 119.114 317.487L118.279 318.102ZM304.352 313.482L303.504 312.88C304.557 311.404 305.597 309.914 306.609 308.397L307.471 308.957C306.472 310.488 305.405 311.992 304.352 313.482ZM111.589 307.686C110.686 306.046 109.865 304.378 109.126 302.751L110.056 302.327C110.795 303.94 111.602 305.581 112.478 307.194L111.589 307.686ZM311.206 303.202L310.331 302.656C311.302 301.125 312.246 299.566 313.19 297.994L314.066 298.527C313.122 300.099 312.178 301.658 311.206 303.202ZM106.622 296.368C106.034 294.577 105.541 292.786 105.158 291.05L106.157 290.831C106.54 292.54 107.019 294.29 107.525 296.053L106.622 296.368ZM317.541 292.663L316.638 292.157C317.541 290.572 318.43 288.986 319.374 287.387L320.277 287.879C319.333 289.437 318.43 291.023 317.541 292.608V292.663ZM323.479 281.851L322.576 281.358C323.433 279.755 324.282 278.142 325.121 276.52L326.037 276.998C325.189 278.57 324.341 280.224 323.479 281.796V281.851ZM329.171 270.915L328.268 270.45C329.088 268.824 329.909 267.197 330.744 265.57L331.661 266.021L329.171 270.915ZM334.725 259.897L333.809 259.446L336.258 254.539L337.174 255.004L334.725 259.897ZM340.198 248.88L339.281 248.415L341.758 243.521L342.675 243.986L340.198 248.88ZM345.78 237.944L344.877 237.479L347.395 232.613L348.311 233.092L345.78 237.944ZM351.513 227.009L350.61 226.517C351.472 224.917 352.348 223.318 353.223 221.719L354.126 222.211C353.278 223.728 352.416 225.327 351.622 226.913L351.513 227.009ZM357.465 216.264L356.562 215.759C357.465 214.173 358.381 212.601 359.298 211.029L360.187 211.549C359.312 213.038 358.463 214.61 357.506 216.182L357.465 216.264ZM363.717 205.712L362.842 205.165C363.799 203.62 364.757 202.076 365.742 200.545L366.618 201.091C365.674 202.54 364.702 204.085 363.758 205.63L363.717 205.712ZM370.353 195.391L369.491 194.817C370.517 193.3 371.557 191.796 372.61 190.292L373.445 190.894C372.433 192.302 371.406 193.806 370.394 195.309L370.353 195.391ZM377.454 185.344L376.619 184.743C377.714 183.28 378.822 181.817 379.957 180.382L380.765 181.011C379.684 182.364 378.576 183.813 377.495 185.262L377.454 185.344ZM385.047 175.693L384.254 175.037C385.43 173.67 386.621 172.235 387.825 170.868L388.591 171.538C387.428 172.823 386.251 174.217 385.088 175.611L385.047 175.693ZM393.256 166.494L392.504 165.783C393.762 164.416 395.021 163.145 396.321 161.846L397.046 162.571C395.733 163.774 394.474 165.086 393.229 166.412L393.256 166.494ZM401.958 157.814L401.246 157.062C402.615 155.818 403.983 154.588 405.351 153.385L406.021 154.15C404.598 155.271 403.244 156.502 401.93 157.732L401.958 157.814ZM411.207 149.749L410.564 148.956C411.932 147.794 413.437 146.66 414.874 145.566L415.503 146.372C414.039 147.384 412.602 148.519 411.179 149.667L411.207 149.749ZM421.003 142.354L420.415 141.52C421.906 140.481 423.438 139.442 424.971 138.444L425.532 139.305C423.986 140.208 422.467 141.246 420.976 142.272L421.003 142.354ZM431.319 135.683L430.785 134.808C432.359 133.865 433.96 132.935 435.547 132.074L436.039 132.963C434.439 133.756 432.851 134.671 431.292 135.601L431.319 135.683Z" fill="#181818"/>
<path d="M442.319 129.533L441.854 128.617L444.317 127.4L444.768 128.316L442.319 129.533Z" fill="#181818"/>
<path d="M429.527 120.074L422.029 140.633L437.777 128.357L497.95 106.555L429.527 120.074Z" fill="#FFB357"/>
<path opacity="0.1" d="M429.527 120.074L422.029 140.633L437.777 128.357L497.95 106.555L429.527 120.074Z" fill="#181818"/>
<path d="M439.788 133.155L422.029 140.633L437.777 128.357L439.788 133.155Z" fill="#181818"/>
<path d="M437.777 128.357L497.95 106.555L448.586 154.671L437.777 128.357Z" fill="#FFB357"/>
<path d="M429.527 120.073L404.53 103.93L497.95 106.554L429.527 120.073Z" fill="#FFB357"/>
<path d="M186.907 486.811C189.904 487.781 275.607 486.661 278.836 484.555C280.081 483.776 280.642 471.282 280.901 456.178V455.713C280.901 452.596 280.997 449.384 280.997 446.144C280.997 445.693 280.997 445.242 280.997 444.777L276.893 400.352L219.566 400.926L225.216 444.928V446.677L225.559 455.781V456.711C225.559 456.711 192.941 471.747 189.63 474.481C186.319 477.215 183.897 485.854 186.907 486.811Z" fill="#B98561"/>
<path d="M186.907 486.811C189.904 487.781 275.607 486.661 278.836 484.556C280.081 483.776 280.642 471.282 280.901 456.178V455.713C280.901 452.596 280.997 449.384 280.997 446.144C280.997 445.693 280.997 445.242 280.997 444.777L225.162 444.928V446.677L225.504 455.781V456.711C225.504 456.711 192.886 471.747 189.575 474.481C186.264 477.215 183.897 485.854 186.907 486.811Z" fill="#EBEBEB"/>
<path d="M186.894 486.797C188.44 487.303 211.726 487.248 234.479 486.797C239.063 486.715 243.605 486.606 247.942 486.483C264.169 486.045 277.591 485.376 278.836 484.569C280.081 483.763 280.628 471.651 280.874 456.82C280.874 456.615 280.874 456.41 280.874 456.191C280.874 455.973 280.874 455.863 280.874 455.713H280.806L225.586 455.809V456.752C225.586 456.752 192.982 471.788 189.671 474.522C186.36 477.256 183.897 485.84 186.894 486.797Z" fill="#FFB357"/>
<path d="M187.838 483.477C202.272 482.93 260.57 482.11 274.882 482.67C275.005 482.67 275.005 482.752 274.882 482.766C260.584 483.613 202.286 483.969 187.838 483.709C187.523 483.709 187.523 483.49 187.838 483.477Z" fill="#181818"/>
<path d="M219.456 456.041C225.121 454.907 232.085 455.699 236.49 459.677C236.655 459.841 236.49 460.074 236.244 460.019C230.791 458.334 225.172 457.243 219.484 456.766C219.399 456.753 219.321 456.711 219.264 456.646C219.207 456.582 219.174 456.5 219.17 456.415C219.167 456.329 219.194 456.245 219.246 456.176C219.298 456.108 219.373 456.06 219.456 456.041Z" fill="#181818"/>
<path d="M215.379 458.571C221.057 457.436 228.021 458.215 232.413 462.207C232.577 462.357 232.413 462.603 232.181 462.548C226.725 460.872 221.107 459.782 215.42 459.295C215.324 459.301 215.23 459.268 215.158 459.203C215.086 459.139 215.043 459.049 215.037 458.953C215.032 458.857 215.065 458.763 215.129 458.691C215.193 458.619 215.283 458.576 215.379 458.571Z" fill="#181818"/>
<path d="M211.316 461.098C216.98 459.963 223.944 460.743 228.336 464.734C228.514 464.884 228.336 465.117 228.103 465.062C222.647 463.39 217.029 462.299 211.343 461.809C211.249 461.812 211.157 461.778 211.088 461.714C211.018 461.65 210.977 461.561 210.974 461.467C210.97 461.373 211.004 461.281 211.068 461.212C211.132 461.143 211.221 461.102 211.316 461.098Z" fill="#181818"/>
<path d="M234.479 486.784C239.062 486.702 243.605 486.592 247.942 486.469C264.169 486.032 277.59 485.362 278.836 484.555C280.081 483.749 280.628 471.638 280.874 456.806C280.874 456.601 280.874 456.396 280.874 456.178C280.874 455.959 280.874 455.85 280.874 455.699H280.806C273.267 461.003 246.601 478.732 234.479 486.784Z" fill="#181818"/>
<path d="M221.851 456H283.556C283.556 456 271.133 311.978 271.625 309.463C272.241 306.251 275.88 291.693 280.724 272.624C282.256 266.664 283.884 260.321 285.594 253.65C290.191 235.73 295.267 216.155 299.687 199.109C306.322 173.588 311.494 153.754 311.494 153.754H259.188C259.188 153.754 253.114 173.055 245.411 198.207C232.892 239.038 216.173 295.26 214.517 308.93C211.849 330.91 221.851 456 221.851 456Z" fill="#4A4A4A"/>
<path d="M224.573 445.475C234 445.284 231.291 445.202 240.718 445.12C245.342 445.12 275.648 444.806 279.957 445.516C279.983 445.516 280.007 445.527 280.025 445.544C280.043 445.562 280.053 445.587 280.053 445.612C280.053 445.638 280.043 445.662 280.025 445.68C280.007 445.698 279.983 445.708 279.957 445.708C275.648 446.419 245.342 446.159 240.718 446.118C231.291 446.022 234 445.954 224.573 445.749C224.537 445.749 224.502 445.734 224.477 445.709C224.451 445.683 224.437 445.648 224.437 445.612C224.437 445.576 224.451 445.541 224.477 445.515C224.502 445.49 224.537 445.475 224.573 445.475Z" fill="#181818"/>
<path d="M259.955 300.729C261.98 291.817 265.003 283.082 267.63 274.333C272.975 256.563 278.357 238.793 283.775 221.022C286.511 212.137 289.247 203.261 291.984 194.394C293.361 189.911 294.729 185.432 296.088 180.957C297.456 176.583 299.03 172.25 300.261 167.834C300.767 166.03 301.041 167.014 300.398 169.297C299.03 173.904 297.812 178.497 296.471 183.09C293.817 192.203 291.145 201.284 288.454 210.333C283.136 228.358 277.741 246.393 272.268 264.437C269.532 273.477 266.796 282.521 264.059 291.57C262.68 295.873 261.566 300.255 260.721 304.693C259.999 309.336 259.815 314.047 260.174 318.732C260.776 328.164 261.87 337.582 262.732 347L265.359 375.296C267.101 394.06 268.825 412.832 270.531 431.614C270.75 433.993 270.955 436.371 271.133 438.75C271.201 439.542 269.983 439.488 269.901 438.75C267.876 420.187 266.317 401.569 264.565 382.978C262.814 364.388 261.104 345.989 259.366 327.48C258.928 322.846 258.436 318.185 258.436 313.524C258.465 309.216 258.974 304.924 259.955 300.729Z" fill="#181818"/>
<path d="M265.126 153.754C268.766 181.817 275.689 234.404 280.724 272.678C292.531 226.421 311.494 153.754 311.494 153.754H265.126Z" fill="#181818"/>
<path d="M252.279 487.631C255.289 488.616 340.978 487.809 344.221 485.718C345.466 484.938 346.082 472.458 346.383 457.353C346.383 457.189 346.383 457.039 346.383 456.875C346.451 453.758 346.506 450.56 346.519 447.306C346.519 446.869 346.519 446.418 346.519 445.939C346.725 424.15 345.151 401.527 345.151 401.527L289.138 401.896L290.698 445.898V447.634L291.012 456.752V457.682C291.012 457.682 258.354 472.718 255.029 475.329C251.704 477.94 249.283 486.633 252.279 487.631Z" fill="#B98561"/>
<path d="M252.279 487.631C255.289 488.616 340.978 487.809 344.221 485.718C345.466 484.938 346.082 472.458 346.383 457.353C346.383 457.189 346.383 457.039 346.383 456.875C346.451 453.758 346.506 450.56 346.519 447.306C346.519 446.869 346.519 446.418 346.519 445.939H290.698V447.675L291.012 456.793V457.723C291.012 457.723 258.354 472.759 255.029 475.37C251.704 477.981 249.283 486.633 252.279 487.631Z" fill="#EBEBEB"/>
<path d="M252.279 487.631C255.289 488.615 340.978 487.809 344.221 485.718C345.466 484.938 346.082 472.458 346.383 457.353C346.383 457.189 346.383 457.039 346.383 456.875L291.081 456.779V457.709C291.081 457.709 258.422 472.745 255.098 475.356C251.773 477.967 249.283 486.633 252.279 487.631Z" fill="#FFB357"/>
<path d="M253.223 484.309C267.671 483.817 325.969 483.201 340.281 483.817C340.39 483.817 340.39 483.899 340.281 483.912C325.969 484.705 267.671 484.842 253.223 484.541C252.922 484.527 252.922 484.309 253.223 484.309Z" fill="#181818"/>
<path d="M284.951 456.984C290.616 455.877 297.58 456.684 301.958 460.689C302.136 460.839 301.958 461.085 301.725 461.031C296.279 459.325 290.664 458.211 284.979 457.709C284.894 457.696 284.816 457.654 284.759 457.59C284.701 457.526 284.668 457.444 284.665 457.358C284.662 457.272 284.689 457.188 284.741 457.12C284.793 457.052 284.868 457.004 284.951 456.984Z" fill="#181818"/>
<path d="M280.86 459.5C286.538 458.379 293.502 459.186 297.881 463.205C298.058 463.355 297.881 463.587 297.648 463.533C292.2 461.833 286.586 460.72 280.901 460.211C280.807 460.217 280.715 460.184 280.644 460.121C280.573 460.059 280.531 459.97 280.525 459.876C280.52 459.782 280.552 459.689 280.615 459.619C280.678 459.548 280.766 459.506 280.86 459.5Z" fill="#181818"/>
<path d="M276.783 462.029C282.461 460.922 289.425 461.729 293.803 465.734C293.968 465.884 293.803 466.13 293.557 466.075C288.111 464.368 282.496 463.254 276.811 462.754C276.726 462.741 276.648 462.699 276.591 462.635C276.533 462.571 276.5 462.489 276.497 462.403C276.494 462.317 276.521 462.233 276.573 462.165C276.625 462.096 276.7 462.049 276.783 462.029Z" fill="#181818"/>
<path d="M260.885 153.754C260.885 153.754 262.089 178.755 267.822 198.562C268.273 200.203 268.779 201.816 269.313 203.36C274.554 205.477 279.592 208.067 284.363 211.097C284.363 211.097 284.965 231.219 285.567 253.65C286.237 278.734 286.935 306.702 286.785 312.634C286.265 334.833 289.521 456.902 289.521 456.902L351.226 457.148C351.226 457.148 340.075 320.836 340.144 312.702C340.267 299.634 337.161 241.854 334.767 199.724C333.289 173.752 332.03 153.754 332.03 153.754H260.885Z" fill="#4A4A4A"/>
<path d="M291.71 445.939C301.137 445.775 298.428 445.693 307.855 445.639C312.465 445.639 342.784 445.475 347.094 446.213C347.176 446.213 347.176 446.39 347.094 446.404C342.771 447.101 312.465 446.705 307.855 446.636C298.428 446.513 301.123 446.445 291.71 446.213C291.674 446.213 291.639 446.198 291.613 446.173C291.588 446.147 291.573 446.112 291.573 446.076C291.573 446.04 291.588 446.005 291.613 445.979C291.639 445.954 291.674 445.939 291.71 445.939Z" fill="#181818"/>
<path d="M326.996 162.666C328.131 197.059 329.335 231.451 330.881 265.83C332.427 300.208 334.507 334.819 337.394 369.225C339.008 388.458 340.527 415.497 342.607 434.675C342.599 434.696 342.585 434.714 342.566 434.727C342.548 434.739 342.526 434.746 342.504 434.746C342.482 434.746 342.46 434.739 342.441 434.727C342.423 434.714 342.409 434.696 342.401 434.675C337.914 400.501 335.41 358.372 333.193 324.048C330.977 289.724 329.486 255.331 328.323 220.953C327.652 201.501 327.146 182.049 326.571 162.598C326.53 162.393 326.996 162.42 326.996 162.666Z" fill="#181818"/>
<path d="M266.796 201.87C272.936 204.428 278.841 207.515 284.445 211.097C284.483 211.127 284.509 211.169 284.518 211.216C284.528 211.263 284.521 211.313 284.498 211.355C284.475 211.397 284.438 211.43 284.394 211.448C284.349 211.466 284.299 211.468 284.254 211.453C278.302 208.568 272.227 205.793 266.467 202.581C266.389 202.529 266.332 202.45 266.306 202.359C266.281 202.268 266.288 202.171 266.328 202.086C266.368 202 266.436 201.931 266.522 201.892C266.608 201.852 266.705 201.845 266.796 201.87Z" fill="#181818"/>
<path d="M266.399 180.655C266.809 182.843 267.343 185.016 267.767 187.189C268.191 189.363 268.547 191.29 269.135 193.341C269.584 195.296 270.58 197.084 272.008 198.494C272.816 199.232 273.691 199.861 274.553 200.586C275.005 200.955 275.511 201.296 275.99 201.679C275.921 201.378 275.88 201.091 275.826 200.791C275.675 199.957 275.538 199.137 275.401 198.303C275.087 196.457 274.786 194.598 274.512 192.753C273.951 189.117 273.445 185.44 272.679 181.817C272.687 181.793 272.703 181.772 272.724 181.758C272.745 181.743 272.769 181.735 272.795 181.735C272.821 181.735 272.846 181.743 272.866 181.758C272.887 181.772 272.903 181.793 272.911 181.817C273.814 185.385 274.813 188.912 275.648 192.507C276.031 194.27 277.413 202.978 277.481 203.607C277.549 204.235 277.59 204.878 277.618 205.52C277.693 206.17 277.693 206.826 277.618 207.475C277.618 207.625 277.385 207.598 277.317 207.475C277.054 206.872 276.87 206.238 276.77 205.589C276.605 204.96 276.469 204.331 276.359 203.702C276.359 203.47 276.277 203.237 276.25 203.005C275.388 202.486 274.594 201.788 273.787 201.214C272.98 200.64 272.049 199.97 271.228 199.287C269.712 198.01 268.62 196.304 268.095 194.393C267.569 192.346 267.225 190.255 267.069 188.146C266.796 185.659 266.59 183.171 266.248 180.71C266.152 180.56 266.371 180.505 266.399 180.655Z" fill="#181818"/>
<path d="M285.156 85.1341C282.831 94.7027 257.588 146.182 257.793 149.381C257.793 150.146 273.062 160.316 273.431 161.56C274.95 166.467 249.898 187.204 244.412 188.434C228.295 192.07 214.216 191.318 214.504 178.1C214.955 157.364 251.445 106.007 270.134 87.8816C282.42 75.9208 287.455 75.7568 285.156 85.1341Z" fill="#B98561"/>
<path d="M238.269 190.908L267.917 153.754C267.917 153.754 259.065 150.555 258.874 148.491C258.682 146.427 280.122 102.357 284.76 89.3981C289.398 76.4395 285.8 73.7603 271.899 84.8735C257.998 95.9868 206.418 167.998 214.066 184.032C219.333 195.09 238.269 190.908 238.269 190.908Z" fill="#FFB357"/>
<path d="M258.86 148.738C257.545 149.065 256.266 149.523 255.043 150.105C253.802 150.652 252.571 151.212 251.349 151.786C248.927 152.907 246.519 154.069 244.179 155.354C241.84 156.639 239.569 158.006 237.339 159.455L235.751 160.439L235.122 160.658C234.233 160.972 233.343 161.314 232.495 161.71C230.838 162.484 229.234 163.365 227.693 164.349C227.583 164.417 227.693 164.581 227.802 164.526C229.407 163.622 231.076 162.836 232.796 162.175L233.48 161.929C232.577 162.531 231.702 163.159 230.853 163.829C228.579 165.582 226.418 167.477 224.382 169.502C224.286 169.598 224.382 169.734 224.532 169.639C228.199 166.085 232.837 163.515 237.256 161.013C241.676 158.512 246.314 155.627 250.938 153.071C252.306 152.333 253.579 151.636 254.933 150.966C256.313 150.368 257.661 149.697 258.969 148.957C258.995 148.94 259.013 148.915 259.021 148.886C259.029 148.857 259.026 148.826 259.013 148.798C258.999 148.771 258.976 148.75 258.948 148.739C258.92 148.728 258.888 148.728 258.86 148.738Z" fill="#181818"/>
<path d="M338.584 190.909C338.365 191.128 247.956 184.949 247.189 183.951C246.136 182.584 273.541 86.187 283.693 74.7593C285.854 72.3125 298.578 69.7153 305.378 76.1263C319.799 89.7957 329.91 133.675 332.03 146.852C335.547 168.6 339.391 190.102 338.584 190.909Z" fill="#FFB357"/>
<path d="M273.636 95.2633C273.636 95.1129 273.431 95.0036 273.376 95.1539C271.885 98.872 270.503 102.631 269.149 106.39C269.217 105.857 269.272 105.31 269.313 104.777C269.422 103.342 269.409 101.907 269.532 100.485C269.532 100.348 269.327 100.348 269.327 100.485C269.245 101.961 268.971 103.41 268.752 104.873C268.533 106.336 268.383 107.497 268.164 108.81L268.041 109.507C265.851 115.781 263.799 122.11 261.788 128.439C258.231 139.716 254.947 151.103 251.869 162.517C250.117 168.955 248.585 175.435 247.148 181.941C247.156 181.962 247.17 181.98 247.189 181.993C247.207 182.006 247.229 182.013 247.251 182.013C247.273 182.013 247.295 182.006 247.314 181.993C247.332 181.98 247.346 181.962 247.354 181.941C250.706 170.65 253.948 159.318 257.287 148.027C260.351 137.625 263.58 127.277 266.864 116.929C266.88 116.938 266.897 116.944 266.916 116.945C266.934 116.947 266.952 116.944 266.969 116.937C266.986 116.931 267.001 116.921 267.014 116.907C267.027 116.894 267.036 116.878 267.042 116.861L267.74 114.127C269.737 107.908 271.762 101.606 273.636 95.2633Z" fill="#181818"/>
<path d="M281.367 78.7633C280.833 82.8642 279.862 92.3234 286.333 92.1868C288.955 91.9074 291.439 90.8774 293.489 89.2205C295.623 87.7259 297.582 85.9973 299.331 84.0671C301.372 81.9748 303.234 79.7161 304.899 77.3144C304.899 77.2187 305.132 77.3144 305.05 77.4374C303.353 79.8432 301.903 82.3584 299.974 84.5865C298.139 86.7701 296.017 88.6966 293.667 90.314C291.477 92.0092 288.825 93.0007 286.06 93.1573C284.861 93.1324 283.707 92.6943 282.795 91.917C281.882 91.1398 281.266 90.0712 281.052 88.8924C280.405 85.5344 280.513 82.0748 281.367 78.7633Z" fill="#181818"/>
<path d="M311.316 96.1375C333.317 112.541 358.874 121.385 369.437 117.257C377.646 114.031 404.229 89.7128 408.58 70.0561C409.538 65.7229 376.195 61.8544 374.882 64.766C371.037 73.1317 356.001 87.6624 354.469 87.4437C352.471 87.1703 329.718 82.304 311.754 78.0801C290.055 72.9814 299.29 87.1976 311.316 96.1375Z" fill="#B98561"/>
<path d="M414.559 63.0299C412.822 70.0696 403.614 83.0967 400.18 85.3795C396.745 87.6623 374.088 72.7625 373.76 68.5523C373.432 64.3421 381.148 41.063 387.031 36.5658C392.915 32.0685 416.42 55.7304 414.559 63.0299Z" fill="#B98561"/>
<path d="M374.43 64.3554C373.614 58.5505 371.955 52.8956 369.505 47.5693C366.358 41.3223 360.981 32.3962 364.278 30.5781C371.051 26.8463 384.459 49.1002 384.459 49.1002C384.459 49.1002 388.796 59.8718 382.407 64.1367C381.227 64.9046 379.857 65.3314 378.449 65.37C377.042 65.4086 375.651 65.0575 374.43 64.3554Z" fill="#B98561"/>
<path d="M379.424 45.3147C382.161 47.9529 384.24 45.5334 384.24 45.5334C384.24 45.5334 380.136 51.7667 382.79 55.102C385.444 58.4374 389.631 53.9811 389.959 53.7351C389.74 54.0631 386.128 59.8863 389.125 62.9619C392.121 66.0376 395.815 61.0756 396.048 60.7475C395.938 61.1302 394.679 66.1333 397.416 67.9376C402.246 71.0679 405.885 58.369 410.044 56.2639C410.044 56.2639 414.395 62.9209 414.559 63.0987C414.723 63.2764 418.267 51.0832 415.134 45.6291C414.689 44.8289 413.984 44.2044 413.136 43.8589C412.287 43.5134 411.346 43.4675 410.468 43.729C410.468 43.729 412.096 39.9836 409.812 37.4821C408.621 36.2108 405.529 36.9626 405.529 36.9626C405.852 36.0948 405.93 35.1549 405.754 34.2459C405.577 33.3369 405.154 32.4939 404.53 31.8092C402.807 30.1416 399.974 31.1531 399.974 31.1531C399.974 31.1531 411.358 16.1167 407.951 13.3828C402.068 8.58481 382.133 40.7217 378.795 40.9951C377.208 41.0771 378.207 44.1528 379.424 45.3147Z" fill="#B98561"/>
<path d="M405.639 36.7844C405.639 36.7844 405.639 36.634 405.557 36.6751C398.396 40.2592 392.756 46.2867 389.658 53.6662C389.562 53.9259 389.727 54.2677 389.864 53.9806C392.203 49.0596 400.18 40.6255 405.639 36.7844Z" fill="#181818"/>
<path d="M396.02 61.2949C399.126 54.1047 404.229 48.637 410.249 43.7706C410.332 43.7706 410.249 43.6066 410.154 43.6339C406.542 45.2196 403.025 48.719 400.576 51.6716C398.184 54.3902 396.552 57.6905 395.842 61.2402C395.747 61.3222 395.952 61.5136 396.02 61.2949Z" fill="#181818"/>
<path d="M384.117 45.5469C383.98 45.7929 384.829 45.6426 384.705 45.8886C383.406 48.6225 381.326 53.5709 383.337 55.1292C384.924 56.3594 387.688 55.1292 388.564 54.1996L390.753 51.9305L389.48 54.8284C388.897 56.1269 388.532 57.5124 388.4 58.9293C388.302 59.5714 388.341 60.2268 388.513 60.8531C388.685 61.4793 388.987 62.0626 389.398 62.5654C389.788 63.0294 390.326 63.3451 390.922 63.4597C391.517 63.5742 392.134 63.4804 392.668 63.1942C393.849 62.5455 394.844 61.604 395.555 60.4603L397.635 57.3573L396.691 60.9524C396.421 61.9552 396.288 62.9896 396.294 64.028C396.266 64.9902 396.518 65.9398 397.019 66.7619C397.265 67.1269 397.607 67.4162 398.009 67.5973C398.41 67.7784 398.854 67.8442 399.29 67.7871C400.254 67.5191 401.119 66.9778 401.78 66.2288C403.244 64.6369 404.58 62.932 405.775 61.1301C406.418 60.2416 407.062 59.353 407.732 58.4919C408.371 57.5863 409.191 56.8229 410.14 56.2501C409.274 56.9142 408.541 57.7349 407.978 58.6696C407.376 59.5717 406.815 60.5013 406.241 61.4035C405.144 63.3391 403.871 65.1694 402.437 66.8712C401.673 67.797 400.655 68.4809 399.509 68.8396C398.868 68.9704 398.202 68.9106 397.594 68.6677C396.986 68.4248 396.463 68.0094 396.089 67.4727C395.416 66.4512 395.068 65.2505 395.09 64.028C395.078 62.8768 395.212 61.7286 395.487 60.6106L396.622 61.1027C395.798 62.4729 394.634 63.6076 393.243 64.3971C392.453 64.8111 391.543 64.9368 390.671 64.7525C389.818 64.5326 389.053 64.0553 388.482 63.3855C387.952 62.7533 387.563 62.0153 387.341 61.2209C387.119 60.4265 387.069 59.594 387.196 58.7789C387.371 57.244 387.796 55.748 388.454 54.35L389.371 54.9788C388.222 56.086 385.266 57.8357 382.598 56.2091C379.37 53.5709 383.31 46.7498 384.117 45.5469Z" fill="#181818"/>
<path d="M370.121 68.8672L403.025 89.221C403.025 89.221 378.986 120.087 363.239 120.442C347.491 120.797 311.248 103.711 299.728 91.0254C289.767 80.0898 300.932 74.294 311.248 77.3559C321.564 80.4179 353.867 86.7605 354.77 86.2958C355.673 85.831 370.121 68.8672 370.121 68.8672Z" fill="#FFB357"/>
<path d="M396.978 95.3033C395.858 94.4079 394.683 93.5817 393.462 92.8292L389.659 90.2183C387.223 88.5643 384.692 87.047 382.175 85.516C377.058 82.3993 371.954 79.187 366.605 76.4805C366.509 76.4805 366.386 76.5762 366.482 76.6445C371.229 80.1712 376.291 83.2742 381.299 86.4045C383.789 87.9765 386.279 89.5621 388.824 91.0248L392.682 93.1709C394.027 94.0132 395.426 94.7666 396.869 95.4264C396.951 95.481 397.06 95.3717 396.978 95.3033Z" fill="#181818"/>
<path d="M321.988 106.486C318.211 104.311 314.013 102.964 309.674 102.535C309.653 102.543 309.635 102.557 309.623 102.575C309.61 102.594 309.603 102.615 309.603 102.638C309.603 102.66 309.61 102.682 309.623 102.7C309.635 102.718 309.653 102.732 309.674 102.74C311.289 103.205 312.835 103.861 314.449 104.381L315.421 104.681H314.572L311.836 104.545C311.74 104.545 311.727 104.681 311.836 104.695C312.727 104.959 313.645 105.12 314.572 105.173C315.267 105.2 315.962 105.173 316.652 105.091H316.83C317.541 105.283 321.263 106.622 321.988 106.677C322.015 106.704 322.043 106.622 321.988 106.486Z" fill="#181818"/>
<path d="M286.36 87.8128C290.958 88.5783 299.221 80.5133 301.93 74.7174C302.108 74.321 301.26 70.3022 300.453 65.3812C299.96 62.4012 299.509 59.0522 299.303 55.9766C299.303 55.3478 297.183 56.6464 297.183 56.6464L293.27 57.8766L280.286 61.9775C281.643 65.7556 282.534 69.685 282.94 73.6785C282.975 74.1016 282.975 74.5268 282.94 74.9498C282.94 74.9498 282.94 75.0728 282.94 75.1548C282.639 77.5333 281.914 87.061 286.36 87.8128Z" fill="#B98561"/>
<path d="M282.885 74.909C282.885 74.909 282.885 75.032 282.885 75.1141C283.55 75.1681 284.218 75.1681 284.883 75.1141C297.867 73.9658 298.401 57.3438 298.401 57.3438L293.284 57.9042L280.299 62.005C281.657 65.7832 282.548 69.7125 282.954 73.7061C282.962 74.1082 282.939 74.5104 282.885 74.909Z" fill="#181818"/>
<path d="M278.097 26.6016C278.097 26.6016 271.803 29.0347 270.503 35.3227C269.204 41.6106 270.503 48.2813 271.037 48.6094C271.571 48.9375 278.097 26.6016 278.097 26.6016Z" fill="#181818"/>
<path d="M303.299 36.0198C305.118 42.9502 300.726 62.6069 295.678 66.8308C288.358 72.9547 276.756 73.1187 271.639 64.4113C266.686 55.9636 272.87 30.4563 278.48 26.6562C286.73 21.0654 300.603 25.7677 303.299 36.0198Z" fill="#B98561"/>
<path d="M285.457 48.1172C285.457 48.1172 285.553 48.1992 285.54 48.2539C285.225 49.6208 285.088 51.1381 286.196 51.8353C284.746 51.3979 284.951 49.3201 285.457 48.1172Z" fill="#181818"/>
<path d="M286.935 46.969C289.111 47.2424 288.399 51.5756 286.388 51.3159C284.377 51.0562 285.116 46.7503 286.935 46.969Z" fill="#181818"/>
<path d="M277.741 46.6406C277.741 46.6406 277.632 46.6406 277.618 46.7363C277.44 48.1033 277.016 49.5932 275.73 49.8393V49.9213C277.18 49.9623 277.741 47.9392 277.741 46.6406Z" fill="#181818"/>
<path d="M276.728 45.1097C274.594 44.6039 273.719 48.8962 275.689 49.3746C277.659 49.853 278.507 45.4788 276.728 45.1097Z" fill="#181818"/>
<path d="M288.96 45.2744C288.421 45.0143 287.896 44.7269 287.387 44.4132C286.785 44.0715 286.265 43.8665 285.95 43.224C285.874 43.0335 285.865 42.8227 285.924 42.6264C285.984 42.4301 286.109 42.26 286.278 42.1441C286.644 41.9605 287.051 41.8765 287.46 41.9005C287.868 41.9245 288.263 42.0557 288.604 42.2808C289.363 42.642 289.962 43.2698 290.287 44.0442C290.352 44.2255 290.362 44.4218 290.316 44.6088C290.27 44.7958 290.171 44.9652 290.029 45.0962C289.888 45.2271 289.712 45.3138 289.521 45.3454C289.331 45.3771 289.136 45.3524 288.96 45.2744Z" fill="#181818"/>
<path d="M275.401 42.594C276.001 42.5738 276.6 42.5191 277.194 42.4299C277.835 42.4608 278.468 42.2833 279 41.9242C279.141 41.7745 279.23 41.5825 279.253 41.3776C279.275 41.1727 279.229 40.9662 279.123 40.7896C278.863 40.4735 278.522 40.2332 278.137 40.0937C277.752 39.9542 277.336 39.9207 276.934 39.9968C276.094 40.0205 275.294 40.3569 274.69 40.94C274.56 41.0797 274.474 41.2541 274.441 41.442C274.408 41.6299 274.431 41.8232 274.507 41.9984C274.582 42.1736 274.707 42.3232 274.866 42.4289C275.024 42.5347 275.211 42.592 275.401 42.594Z" fill="#181818"/>
<path d="M284.582 60.2966C284.199 60.5564 283.816 60.9391 283.323 60.8981C282.832 60.803 282.367 60.6076 281.955 60.324C281.955 60.324 281.859 60.324 281.887 60.324C282.033 60.6191 282.256 60.8691 282.533 61.0473C282.81 61.2254 283.131 61.3251 283.46 61.3355C283.748 61.3194 284.023 61.2129 284.247 61.0313C284.47 60.8496 284.631 60.6021 284.705 60.324C284.787 60.2966 284.691 60.2556 284.582 60.2966Z" fill="#181818"/>
<path d="M283.884 56.0461C283.458 56.5201 282.937 56.8998 282.355 57.1611C281.773 57.4224 281.143 57.5594 280.505 57.5634C279.946 57.5878 279.387 57.5232 278.849 57.372C278.745 57.3611 278.643 57.3334 278.548 57.29L278.261 57.1943C278.19 57.1724 278.129 57.126 278.089 57.0635C278.049 57.0009 278.032 56.9262 278.042 56.8526C278.037 56.8072 278.037 56.7613 278.042 56.7159V56.5929C278.179 55.554 278.535 54.0094 278.535 54.0094C278.138 54.1324 276.072 54.6792 276.181 54.1461C277.071 49.5205 278.423 44.996 280.217 40.6406C280.235 40.6177 280.259 40.6007 280.286 40.5922C280.313 40.5836 280.343 40.5839 280.37 40.5929C280.397 40.602 280.421 40.6194 280.438 40.6427C280.455 40.666 280.464 40.6939 280.464 40.7226C279.67 45.0012 278.124 49.1157 277.262 53.3942C278.003 53.1939 278.766 53.0928 279.533 53.0935C279.67 53.0935 278.781 56.0871 278.753 56.5519C279.586 56.7748 280.454 56.8279 281.308 56.7082C282.161 56.5884 282.981 56.2981 283.72 55.8547C283.884 55.8547 283.98 55.9641 283.884 56.0461Z" fill="#181818"/>
<path d="M279.547 56.9608C279.991 57.7907 280.641 58.4922 281.435 58.9975C281.875 59.2637 282.387 59.3834 282.899 59.3393C284.021 59.2299 284.199 58.2457 284.144 57.3845C284.112 56.9191 284.02 56.4597 283.871 56.0176C282.568 56.7877 281.052 57.1184 279.547 56.9608Z" fill="#181818"/>
<path d="M300.138 51.9444C296.034 51.9444 296.553 34.0784 296.553 34.0784C294.171 35.1849 291.633 35.9224 289.028 36.2655C286.381 36.4278 283.723 36.2902 281.107 35.8554C280.546 35.6914 287.578 32.9575 287.578 32.9575C287.578 32.9575 269.942 36.2518 269.012 32.9575C268.697 31.8229 276.742 19.7391 288.919 20.655C297.922 21.2838 302.929 30.5517 302.929 30.5517C302.929 30.5517 307.253 35.3906 307.034 38.2202C306.787 41.8973 304.434 51.9444 300.138 51.9444Z" fill="#181818"/>
<path d="M298.428 51.9451C298.428 51.9451 303.285 45.8212 306.103 47.5845C308.922 49.3479 304.995 58.4244 301.506 59.4907C301.068 59.6587 300.6 59.7362 300.131 59.7185C299.661 59.7009 299.2 59.5883 298.776 59.3878C298.351 59.1872 297.972 58.9027 297.661 58.5515C297.349 58.2004 297.112 57.7898 296.964 57.3445L298.428 51.9451Z" fill="#B98561"/>
<path d="M304.913 50.1953C304.913 50.1953 304.913 50.1953 304.913 50.291C303.783 50.7705 302.767 51.4819 301.93 52.3792C301.094 53.2764 300.455 54.3393 300.056 55.4991C300.207 55.2672 300.407 55.0711 300.642 54.9245C300.877 54.778 301.142 54.6845 301.417 54.6507C301.692 54.6168 301.971 54.6434 302.234 54.7286C302.498 54.8137 302.74 54.9554 302.943 55.1437C302.943 55.1437 302.943 55.2804 302.874 55.2667C302.462 55.1108 302.011 55.0848 301.583 55.1923C301.155 55.2998 300.77 55.5357 300.48 55.8681C300.009 56.4357 299.596 57.0494 299.249 57.6998C299.126 57.9186 298.743 57.7682 298.838 57.5358C299.003 54.4328 301.616 50.3047 304.913 50.1953Z" fill="#181818"/>
<path d="M282.803 74.7866L287.51 86.1322L301.534 71.5469L305.638 76.1262C305.638 76.1262 291.956 99.2002 291.956 98.175L287.14 88.4013L280.436 95.3181L280.792 78.1356L282.803 74.7866Z" fill="#EBEBEB"/>
<path d="M280.053 86.8161C280.217 83.9866 280.286 81.1296 280.573 78.3001C280.573 78.2044 280.737 78.1497 280.765 78.3001C281.367 81.034 280.765 91.8602 280.765 94.4574C281.038 94.1567 286.99 88.3608 287.045 88.4565C288.084 90.0011 291.614 97.1229 291.861 97.7654C294.009 94.102 302.272 80.7742 304.831 77.2612C304.836 77.2487 304.844 77.2375 304.854 77.2283C304.864 77.2192 304.876 77.2122 304.889 77.208C304.902 77.2037 304.916 77.2022 304.929 77.2036C304.943 77.2051 304.956 77.2093 304.967 77.2162C304.979 77.223 304.989 77.2322 304.997 77.2433C305.005 77.2543 305.01 77.2669 305.013 77.2802C305.016 77.2935 305.015 77.3073 305.012 77.3205C305.009 77.3337 305.003 77.3461 304.995 77.3569C303.107 81.2253 292.189 99.228 292.011 99.1187C290.156 95.7629 288.475 92.3136 286.976 88.7845C285.977 90.0421 279.985 96.5761 279.957 96.1524C279.825 93.0408 279.857 89.9244 280.053 86.8161Z" fill="#181818"/>
<path d="M324.861 171.676H261.569V175.367H324.861V171.676Z" fill="#181818"/>
<path d="M300.042 171.676H261.569V175.367H300.042V171.676Z" fill="#181818"/>
<path d="M293.393 175.42L213.286 175.434L201.821 120.797H281.941L293.393 175.42Z" fill="#181818"/>
<path d="M252.484 148.109C252.57 148.727 252.52 149.355 252.338 149.951C252.157 150.548 251.848 151.097 251.433 151.563C251.018 152.028 250.507 152.398 249.935 152.646C249.363 152.895 248.743 153.017 248.12 153.003C246.783 152.97 245.502 152.457 244.513 151.559C243.523 150.66 242.89 149.436 242.729 148.109C242.646 147.492 242.698 146.865 242.88 146.269C243.063 145.674 243.372 145.125 243.786 144.661C244.201 144.196 244.711 143.826 245.282 143.577C245.853 143.327 246.471 143.204 247.094 143.216C248.432 143.246 249.713 143.757 250.704 144.656C251.694 145.556 252.326 146.782 252.484 148.109Z" fill="#4A4A4A"/>
<path d="M229.362 178.674C234.301 181.408 240.308 187.737 244.412 188.448C245.42 188.665 246.47 188.551 247.407 188.122C248.344 187.694 249.118 186.974 249.611 186.07C249.611 186.07 251.458 190.307 255.303 190.334C257.287 190.334 259.052 187.218 259.052 187.218C259.52 188.154 260.238 188.943 261.126 189.498C262.015 190.052 263.039 190.351 264.087 190.362C266.823 190.225 268.191 187.095 268.191 187.095C268.191 187.095 271.242 189.569 273.978 188.462C279.451 186.357 280.737 162.982 272.309 158.922C268.383 157.022 268.396 162.749 268.396 162.749C268.396 162.749 266.399 154.548 261.555 154.151C256.712 153.755 257.218 161.301 257.218 161.301C257.218 161.301 255.207 153.345 250.172 153.454C244.932 153.577 246.67 160.931 246.67 160.931C246.67 160.931 243.427 155.546 239.582 156.516C233.261 158.116 240.444 170.322 238.953 175.394H230.58L229.362 178.674Z" fill="#B98561"/>
<path d="M236.477 183.239C231.578 181.12 229.225 184.606 224.163 183.95C218.471 183.212 220.318 176.541 230.32 175.352H238.98L236.477 183.239Z" fill="#B98561"/>
<path d="M259.079 187.272C259.079 187.368 259.216 187.382 259.243 187.272C261.8 178.561 261.155 169.223 257.423 160.945C257.287 160.658 256.876 160.535 256.999 160.945C259.27 166.686 260.119 179.836 259.079 187.272Z" fill="#181818"/>
<path d="M246.163 160.398C249.734 168.517 250.336 176.979 249.707 185.741C249.707 185.766 249.717 185.791 249.735 185.809C249.753 185.827 249.777 185.837 249.803 185.837C249.828 185.837 249.852 185.827 249.87 185.809C249.888 185.791 249.898 185.766 249.898 185.741C251.376 181.531 251.198 175.899 250.678 171.525C250.275 167.458 248.818 163.567 246.451 160.234C246.355 160.138 246.081 160.22 246.163 160.398Z" fill="#181818"/>
<circle cx="110" cy="181" r="15" fill="white"/>
<path d="M116.6 177.213V178.054H103.4V177.213L103.663 177.078L103.664 177.078L109.799 173.987L109.799 173.987L109.8 173.986L110 173.883L110.2 173.986L110.2 173.986L110.201 173.987L116.336 177.078L116.337 177.078L116.6 177.213ZM110.068 174.999L110 174.965L109.933 174.999L106.328 176.81L106.395 177.094H113.605L113.673 176.81L110.068 174.999ZM104.477 185.286H104.627V185.136V178.985H105.555V185.136V185.286H105.705H106.932H107.082V185.136V178.985H108.009V185.136V185.286H108.159H109.387H109.537V185.136V178.985H110.464V185.136V185.286H110.614H111.841H111.991V185.136V178.985H112.918V185.136V185.286H113.068H114.296H114.446V185.136V178.985H115.373V185.136V185.286H115.523H115.987V186.246H104.014V185.286H104.477ZM117.214 188.136H102.787V187.176H117.214V188.136Z" fill="#FFB357" stroke="#FFB357" strokeWidth="0.3"/>
<circle cx="88" cy="120" r="15" fill="white"/>
<g clip-path="url(#clip1_482_818)">
<path d="M79.1789 117.543L79.1082 117.614L79.1789 117.684L90.3158 128.821L90.3865 128.892L90.4572 128.821L97.219 122.06C97.5542 121.724 97.7425 121.27 97.7425 120.796C97.7425 120.322 97.5542 119.867 97.219 119.532L88.4685 110.781C88.1333 110.446 87.6786 110.258 87.2046 110.258C86.7305 110.258 86.2758 110.446 85.9406 110.781L79.1789 117.543ZM90.855 130.015L90.9257 129.944L90.855 129.873L78.1978 117.216L78.1271 117.145L78.0564 117.216L77.9856 117.145C77.6504 117.48 77.4621 117.935 77.4621 118.409C77.4621 118.883 77.6504 119.338 77.9856 119.673L88.3271 130.015C88.6623 130.35 89.117 130.538 89.591 130.538C90.0651 130.538 90.5198 130.35 90.855 130.015ZM96.282 120.469C96.3688 120.555 96.4175 120.673 96.4175 120.796C96.4175 120.918 96.3688 121.036 96.282 121.123L90.3865 127.018L80.982 117.614L86.8775 111.718C86.9643 111.631 87.0819 111.583 87.2046 111.583C87.3272 111.583 87.4449 111.631 87.5316 111.718L96.282 120.469Z" fill="#4FBB8A" stroke="#4FBB8A" strokeWidth="0.2"/>
</g>
<circle cx="114" cy="69" r="15" fill="white"/>
<path d="M108.974 61.3538L109.074 61.2535H108.832H108.832H108.59L108.691 61.3537L107.97 62.0736L107.899 62.1444L107.97 62.2151L109.148 63.393L109.219 63.4637L109.289 63.393L110.08 62.6021L110.151 62.5314L110.08 62.4607L108.974 61.3538ZM119.309 61.3538L119.41 61.2535H119.168H119.168H118.926L119.027 61.3538L117.919 62.4607L117.848 62.5314L117.919 62.6021L118.711 63.393L118.781 63.4636L118.852 63.393L120.03 62.2157L120.101 62.145L120.03 62.0742L119.309 61.3538ZM113.999 61.6045L113.999 61.6045C113.813 61.6068 113.624 61.6174 113.434 61.6402C113.429 61.64 113.419 61.6396 113.407 61.6414C111.079 61.9095 109.23 63.7891 108.909 66.103L108.909 66.1031C108.652 67.968 109.421 69.6586 110.701 70.7464C111.195 71.168 111.53 71.7458 111.65 72.3838V75.7496V75.8496H111.75H112.977C113.195 76.1867 113.568 76.4121 114 76.4121C114.432 76.4121 114.805 76.1867 115.023 75.8496H116.25H116.35V75.7496V73.5996H116.403V73.4996V72.8313C116.403 72.0412 116.814 71.2348 117.496 70.6023L117.496 70.6024L117.499 70.5997C118.445 69.6523 119.162 68.3033 119.162 66.7501C119.162 63.9165 116.831 61.5781 113.999 61.6045ZM116.495 69.7201L116.511 69.7361C115.807 70.416 115.345 71.3078 115.195 72.2751H112.909C112.769 71.3225 112.348 70.4008 111.568 69.7325L111.568 69.7322C110.597 68.9081 110.021 67.6696 110.214 66.2717C110.454 64.544 111.856 63.1555 113.571 62.9655L113.571 62.9655L113.574 62.9651C113.716 62.9454 113.858 62.9337 114.001 62.93L114.024 62.9295L114.024 62.9293C116.131 62.9123 117.837 64.6409 117.837 66.7501C117.837 67.8961 117.307 68.9091 116.566 69.6494L116.495 69.7201ZM106.125 66.6501H106.025V66.7501V67.8751V67.9751H106.125H107.812H107.912V67.8751V66.7501V66.6501H107.812H106.125ZM120.187 66.6501H120.087V66.7501V67.8751V67.9751H120.187H121.875H121.975V67.8751V66.7501V66.6501H121.875H120.187ZM109.289 71.2323L109.219 71.1616L109.148 71.2323L107.97 72.4096L107.899 72.4803L107.97 72.551L108.762 73.3425L108.832 73.4132L108.903 73.3424L110.08 72.1646L110.15 72.0939L110.08 72.0232L109.289 71.2323ZM118.852 71.2323L118.781 71.1616L118.711 71.2323L117.92 72.0232L117.849 72.0939L117.92 72.1646L119.097 73.3425L119.168 73.4132L119.238 73.3425L120.03 72.551L120.101 72.4803L120.03 72.4096L118.852 71.2323ZM115.025 73.6001V74.5251H112.975V73.6001H115.025Z" fill="#FFB357" stroke="#FFB357" strokeWidth="0.2"/>
<circle cx="172" cy="62" r="15" fill="white"/>
<g clip-path="url(#clip2_482_818)">
<path d="M163.515 64.1212C163.515 64.1212 163.25 62.2651 165.106 60.4089C166.962 58.5527 168.818 58.8179 168.818 58.8179L176.243 66.2425C176.243 66.2425 174.917 66.5077 173.061 68.3638C171.205 70.22 170.94 71.5458 170.94 71.5458L163.515 64.1212ZM168.818 58.8179C168.818 58.8179 168.553 56.9618 170.409 55.1056C172.265 53.2494 174.121 53.5146 174.121 53.5146L181.546 60.9392C181.546 60.9392 180.22 61.2044 178.364 63.0605C176.508 64.9167 176.243 66.2425 176.243 66.2425L168.818 58.8179Z" stroke="#4FBB8A" strokeWidth="1.5" strokeLinecap="round" strokeLinejoin="round"/>
</g>
</g>
<defs>
<clipPath id="clip0_482_818">
<rect width="602" height="488" fill="white"/>
</clipPath>
<clipPath id="clip1_482_818">
<rect width="18" height="18" fill="white" transform="translate(88.0001 107.271) rotate(45)"/>
</clipPath>
<clipPath id="clip2_482_818">
<rect width="18" height="18" fill="white" transform="translate(159.272 62) rotate(-45)"/>
</clipPath>
</defs>
</svg>
