<svg width="602" height="488" viewBox="0 0 602 488" fill="none" xmlns="http://www.w3.org/2000/svg">
<g clip-path="url(#clip0_535_3431)">
<path d="M379.479 290.326L376.236 309.777L354.236 428.456H350.692L366.686 309.777L369.053 290.326H379.479Z" fill="#DBDBDB"/>
<path d="M369.053 290.326H379.479L376.236 309.777H366.686L369.053 290.326Z" fill="#A6A6A6"/>
<path d="M448.545 428.456H445.001L423.014 309.777L419.758 290.326H430.197L432.551 309.777L448.545 428.456Z" fill="#DBDBDB"/>
<path d="M430.197 290.326L432.551 309.777H423.014L419.758 290.326H430.197Z" fill="#A6A6A6"/>
<path d="M514.518 428.456H510.975L488.988 309.777L485.732 290.326H496.171L498.524 309.777L514.518 428.456Z" fill="#DBDBDB"/>
<path d="M498.524 309.777H488.988L485.732 290.326H496.171L498.524 309.777Z" fill="#A6A6A6"/>
<path d="M508.895 299.457H347.723V282.493H408.06L428.336 164.622H502.752L508.895 299.457Z" fill="#DBDBDB"/>
<path d="M508.895 299.457H500.111L494.392 164.621H502.752L508.895 299.457Z" fill="#A6A6A6"/>
<path d="M233.535 233.762L203.859 428.36H198.003L216.323 233.762H233.535Z" fill="#EBEBEB"/>
<path d="M233.521 233.762L230.689 252.352H214.572L216.323 233.762H233.521Z" fill="#A6A6A6"/>
<path d="M505.283 233.762L534.959 428.36H540.815L522.495 233.762H505.283Z" fill="#EBEBEB"/>
<path d="M505.297 233.762L508.129 252.352H524.246L522.495 233.762H505.297Z" fill="#A6A6A6"/>
<path d="M551.856 213.189H186.976V229.715H551.856V213.189Z" fill="#EBEBEB"/>
<path d="M546.301 229.715H192.503V233.761H546.301V229.715Z" fill="#8C8C8C"/>
<path d="M-0.396729 428.511L74.949 428.183L150.295 428.06L301 427.827L451.705 428.06L527.051 428.169L602.397 428.511L527.051 428.839L451.705 428.962L301 429.194L150.295 428.962L74.949 428.839L-0.396729 428.511Z" fill="#181818"/>
<path d="M104.146 284.147C104.146 283.218 104.05 282.288 104.05 281.414H105.076C105.076 282.302 105.076 283.204 105.172 284.147H104.146Z" fill="#181818"/>
<path d="M210.152 363.608H209.975V362.583H210.166C211.89 362.583 213.669 362.583 215.434 362.446V363.471C213.696 363.526 211.904 363.608 210.152 363.608ZM203.093 363.376C201.273 363.266 199.426 363.102 197.62 362.911L197.729 361.886C199.522 362.091 201.355 362.241 203.202 362.364L203.093 363.376ZM222.343 362.952L222.234 361.927C224.026 361.735 225.846 361.489 227.638 361.216L227.788 362.228C225.982 362.474 224.149 362.706 222.343 362.911V362.952ZM190.875 361.94C189.082 361.626 187.276 361.271 185.402 360.861L185.635 359.863C187.413 360.259 189.206 360.615 190.984 360.929L190.875 361.94ZM234.657 360.97L234.438 359.972C236.203 359.589 237.995 359.152 239.746 358.701L240.006 359.685C238.145 360.109 236.339 360.546 234.561 360.874L234.657 360.97ZM178.835 359.166C177.084 358.66 175.319 358.113 173.581 357.525L173.909 356.555C175.633 357.142 177.385 357.689 179.122 358.181L178.835 359.166ZM246.601 357.799L246.286 356.828C247.983 356.268 249.72 355.666 251.444 355.024L251.8 355.981C249.967 356.541 248.215 357.142 246.505 357.703L246.601 357.799ZM167.137 355.174C165.44 354.491 163.744 353.807 162.088 353.001L162.512 352.057C164.154 352.823 165.851 353.547 167.52 354.231L167.137 355.174ZM258.176 353.411L257.765 352.468C259.434 351.757 261.09 350.978 262.691 350.157L263.156 351.073C261.432 351.798 259.763 352.591 258.08 353.315L258.176 353.411ZM155.918 349.939C154.29 349.064 152.675 348.162 151.129 347.205L151.649 346.33C153.195 347.246 154.796 348.148 156.41 349.064L155.918 349.939ZM269.162 347.752L268.629 346.877C270.175 345.947 271.721 344.949 273.226 343.924L273.8 344.772C272.186 345.715 270.626 346.713 269.066 347.656L269.162 347.752ZM145.314 343.555C143.782 342.53 142.277 341.464 140.813 340.384L141.429 339.564C142.797 340.63 144.37 341.696 145.889 342.708L145.314 343.555ZM279.396 340.698L278.767 339.905C280.135 338.784 281.585 337.609 282.94 336.406L283.624 337.185C282.091 338.292 280.669 339.482 279.232 340.602L279.396 340.698ZM135.491 336.119C134.123 334.93 132.754 333.713 131.386 332.483L132.084 331.731C133.452 332.948 134.82 334.164 136.189 335.326L135.491 336.119ZM288.645 332.496L287.92 331.772C289.179 330.514 290.451 329.202 291.696 327.849L292.449 328.532C291.026 329.804 289.753 331.143 288.481 332.401L288.645 332.496ZM126.283 327.548C125.024 326.181 123.779 324.814 122.589 323.447L123.369 322.777C124.545 324.144 125.777 325.511 127.022 326.878L126.283 327.548ZM296.813 323.27L296.033 322.613C297.182 321.246 298.332 319.811 299.44 318.362L300.247 318.991C299.125 320.44 297.976 321.889 296.813 323.27ZM118.279 318.102C117.185 316.626 116.117 315.109 115.119 313.592L115.981 313.031C116.966 314.521 118.019 316.025 119.114 317.487L118.279 318.102ZM304.352 313.482L303.504 312.881C304.557 311.404 305.597 309.914 306.609 308.397L307.471 308.958C306.472 310.489 305.405 311.992 304.352 313.482V313.482ZM111.589 307.686C110.686 306.046 109.865 304.378 109.126 302.752L110.056 302.328C110.795 303.941 111.602 305.581 112.478 307.194L111.589 307.686ZM311.206 303.203L310.331 302.656C311.302 301.125 312.246 299.567 313.19 297.995L314.066 298.528C313.122 300.1 312.178 301.658 311.206 303.203V303.203ZM106.622 296.368C106.034 294.577 105.541 292.787 105.158 291.051L106.157 290.832C106.54 292.541 107.019 294.29 107.525 296.054L106.622 296.368ZM317.541 292.664L316.638 292.158C317.541 290.572 318.43 288.987 319.374 287.387L320.277 287.879C319.333 289.438 318.43 291.023 317.541 292.609V292.664ZM323.479 281.851L322.576 281.359C323.433 279.755 324.282 278.142 325.121 276.52L326.037 276.998C325.189 278.57 324.341 280.224 323.479 281.796V281.851ZM329.171 270.915L328.268 270.451C329.088 268.824 329.909 267.197 330.744 265.571L331.661 266.022L329.171 270.915ZM334.725 259.898L333.809 259.447L336.258 254.539L337.174 255.004L334.725 259.898ZM340.198 248.88L339.281 248.416L341.758 243.522L342.675 243.987L340.198 248.88ZM345.78 237.945L344.877 237.48L347.395 232.614L348.311 233.092L345.78 237.945ZM351.513 227.009L350.61 226.517C351.472 224.918 352.348 223.318 353.223 221.719L354.126 222.211C353.278 223.728 352.416 225.328 351.622 226.913L351.513 227.009ZM357.465 216.265L356.562 215.759C357.465 214.174 358.381 212.602 359.298 211.03L360.187 211.549C359.312 213.039 358.463 214.611 357.506 216.183L357.465 216.265ZM363.717 205.712L362.842 205.165C363.799 203.621 364.757 202.076 365.742 200.545L366.618 201.092C365.674 202.541 364.702 204.085 363.758 205.63L363.717 205.712ZM370.353 195.392L369.491 194.818C370.517 193.3 371.557 191.797 372.61 190.293L373.445 190.894C372.433 192.302 371.406 193.806 370.394 195.31L370.353 195.392ZM377.454 185.345L376.619 184.743C377.714 183.281 378.822 181.818 379.957 180.383L380.765 181.011C379.684 182.365 378.576 183.814 377.495 185.263L377.454 185.345ZM385.047 175.694L384.254 175.038C385.43 173.671 386.621 172.236 387.825 170.869L388.591 171.538C387.428 172.823 386.251 174.218 385.088 175.612L385.047 175.694ZM393.256 166.494L392.504 165.784C393.762 164.417 395.021 163.145 396.321 161.847L397.046 162.571C395.733 163.774 394.474 165.086 393.229 166.412L393.256 166.494ZM401.958 157.814L401.246 157.062C402.615 155.819 403.983 154.588 405.351 153.385L406.021 154.151C404.598 155.272 403.244 156.502 401.93 157.732L401.958 157.814ZM411.207 149.749L410.564 148.957C411.932 147.795 413.437 146.66 414.874 145.566L415.503 146.373C414.039 147.385 412.602 148.519 411.179 149.667L411.207 149.749ZM421.003 142.354L420.415 141.52C421.906 140.481 423.438 139.443 424.971 138.445L425.532 139.306C423.986 140.208 422.467 141.247 420.976 142.272L421.003 142.354ZM431.319 135.683L430.785 134.809C432.359 133.865 433.96 132.936 435.547 132.075L436.039 132.963C434.439 133.756 432.851 134.672 431.292 135.601L431.319 135.683Z" fill="#181818"/>
<path d="M442.319 129.532L441.854 128.616L444.317 127.4L444.768 128.316L442.319 129.532Z" fill="#181818"/>
<path d="M429.527 120.073L422.029 140.632L437.777 128.357L497.95 106.554L429.527 120.073Z" fill="#C1DB9B"/>
<path opacity="0.1" d="M429.527 120.073L422.029 140.632L437.777 128.357L497.95 106.554L429.527 120.073Z" fill="#181818"/>
<path d="M439.788 133.154L422.029 140.632L437.777 128.356L439.788 133.154Z" fill="#181818"/>
<path d="M437.777 128.357L497.95 106.554L448.585 154.67L437.777 128.357Z" fill="#C1DB9B"/>
<path d="M429.527 120.073L404.53 103.929L497.95 106.554L429.527 120.073Z" fill="#C1DB9B"/>
<path d="M186.907 486.81C189.904 487.781 275.607 486.66 278.836 484.555C280.081 483.776 280.642 471.282 280.902 456.177V455.712C280.902 452.596 280.997 449.383 280.997 446.144C280.997 445.693 280.997 445.242 280.997 444.777L276.893 400.351L219.566 400.925L225.217 444.927V446.677L225.559 455.781V456.71C225.559 456.71 192.941 471.747 189.63 474.481C186.319 477.214 183.897 485.854 186.907 486.81Z" fill="#B98561"/>
<path d="M186.907 486.81C189.904 487.781 275.607 486.66 278.835 484.555C280.081 483.776 280.641 471.282 280.901 456.177V455.712C280.901 452.596 280.997 449.383 280.997 446.144C280.997 445.693 280.997 445.242 280.997 444.777L225.162 444.927V446.677L225.504 455.781V456.71C225.504 456.71 192.886 471.747 189.575 474.481C186.264 477.214 183.897 485.854 186.907 486.81Z" fill="#EBEBEB"/>
<path d="M186.894 486.797C188.44 487.303 211.726 487.248 234.479 486.797C239.062 486.715 243.605 486.606 247.942 486.483C264.169 486.045 277.59 485.376 278.835 484.569C280.08 483.763 280.628 471.651 280.874 456.82C280.874 456.615 280.874 456.41 280.874 456.191C280.874 455.973 280.874 455.863 280.874 455.713H280.806L225.586 455.809V456.752C225.586 456.752 192.982 471.788 189.671 474.522C186.36 477.256 183.897 485.84 186.894 486.797Z" fill="#C1DB9B"/>
<path d="M187.838 483.476C202.272 482.929 260.57 482.109 274.882 482.669C275.005 482.669 275.005 482.751 274.882 482.765C260.584 483.613 202.286 483.968 187.838 483.708C187.523 483.708 187.523 483.489 187.838 483.476Z" fill="#181818"/>
<path d="M219.456 456.041C225.121 454.906 232.085 455.699 236.49 459.677C236.654 459.841 236.49 460.073 236.244 460.018C230.791 458.333 225.171 457.242 219.484 456.765C219.399 456.752 219.321 456.71 219.264 456.646C219.207 456.582 219.173 456.5 219.17 456.414C219.167 456.328 219.194 456.244 219.246 456.176C219.298 456.108 219.373 456.06 219.456 456.041Z" fill="#181818"/>
<path d="M215.379 458.57C221.057 457.435 228.021 458.214 232.413 462.206C232.577 462.356 232.413 462.602 232.181 462.547C226.725 460.872 221.107 459.781 215.42 459.294C215.324 459.3 215.23 459.267 215.158 459.203C215.086 459.138 215.043 459.048 215.037 458.952C215.032 458.856 215.065 458.762 215.129 458.69C215.193 458.618 215.283 458.575 215.379 458.57V458.57Z" fill="#181818"/>
<path d="M211.316 461.098C216.98 459.964 223.944 460.743 228.336 464.735C228.514 464.885 228.336 465.117 228.103 465.063C222.647 463.39 217.029 462.3 211.343 461.809C211.249 461.813 211.157 461.779 211.088 461.715C211.018 461.651 210.977 461.562 210.974 461.468C210.97 461.373 211.004 461.281 211.068 461.212C211.132 461.143 211.221 461.102 211.316 461.098V461.098Z" fill="#181818"/>
<path d="M234.479 486.783C239.062 486.701 243.605 486.592 247.942 486.469C264.169 486.031 277.59 485.361 278.835 484.555C280.08 483.748 280.628 471.637 280.874 456.806C280.874 456.601 280.874 456.396 280.874 456.177C280.874 455.958 280.874 455.849 280.874 455.699H280.806C273.267 461.002 246.601 478.732 234.479 486.783Z" fill="#181818"/>
<path d="M221.851 456H283.556C283.556 456 271.133 311.978 271.625 309.463C272.241 306.251 275.88 291.693 280.723 272.624C282.256 266.664 283.884 260.321 285.594 253.65C290.191 235.73 295.267 216.155 299.686 199.109C306.322 173.588 311.494 153.754 311.494 153.754H259.188C259.188 153.754 253.114 173.055 245.411 198.207C232.892 239.038 216.173 295.26 214.517 308.93C211.849 330.91 221.851 456 221.851 456Z" fill="#4A4A4A"/>
<path d="M224.573 445.474C234 445.283 231.291 445.201 240.718 445.119C245.342 445.119 275.648 444.805 279.957 445.515C279.983 445.515 280.007 445.526 280.025 445.543C280.043 445.561 280.053 445.586 280.053 445.611C280.053 445.637 280.043 445.661 280.025 445.679C280.007 445.697 279.983 445.707 279.957 445.707C275.648 446.418 245.342 446.158 240.718 446.117C231.291 446.021 234 445.953 224.573 445.748C224.537 445.748 224.502 445.733 224.477 445.708C224.451 445.682 224.437 445.647 224.437 445.611C224.437 445.575 224.451 445.54 224.477 445.514C224.502 445.489 224.537 445.474 224.573 445.474Z" fill="#181818"/>
<path d="M259.954 300.728C261.979 291.816 265.003 283.081 267.63 274.332C272.975 256.562 278.357 238.792 283.775 221.021C286.511 212.136 289.247 203.26 291.984 194.393C293.361 189.91 294.729 185.431 296.088 180.956C297.456 176.582 299.03 172.249 300.261 167.833C300.767 166.029 301.041 167.013 300.398 169.296C299.03 173.903 297.812 178.496 296.471 183.089C293.817 192.202 291.144 201.283 288.454 210.332C283.136 228.357 277.741 246.392 272.268 264.436C269.532 273.476 266.795 282.52 264.059 291.569C262.68 295.872 261.565 300.254 260.721 304.692C259.998 309.335 259.815 314.046 260.173 318.731C260.775 328.163 261.87 337.581 262.732 346.999L265.359 375.295C267.101 394.059 268.825 412.831 270.531 431.613C270.749 433.992 270.955 436.37 271.133 438.749C271.201 439.542 269.983 439.487 269.901 438.749C267.876 420.186 266.317 401.568 264.565 382.977C262.814 364.387 261.104 345.988 259.366 327.479C258.928 322.845 258.436 318.184 258.436 313.523C258.465 309.215 258.974 304.923 259.954 300.728Z" fill="#181818"/>
<path d="M265.126 153.754C268.766 181.817 275.689 234.404 280.723 272.678C292.531 226.421 311.494 153.754 311.494 153.754H265.126Z" fill="#181818"/>
<path d="M252.279 487.631C255.289 488.615 340.978 487.809 344.221 485.717C345.466 484.938 346.082 472.458 346.383 457.353C346.383 457.189 346.383 457.039 346.383 456.875C346.451 453.758 346.506 450.559 346.519 447.306C346.519 446.869 346.519 446.417 346.519 445.939C346.725 424.15 345.151 401.527 345.151 401.527L289.138 401.896L290.698 445.898V447.634L291.012 456.752V457.681C291.012 457.681 258.354 472.717 255.029 475.328C251.704 477.939 249.283 486.633 252.279 487.631Z" fill="#B98561"/>
<path d="M252.279 487.631C255.289 488.615 340.978 487.809 344.221 485.717C345.466 484.938 346.082 472.458 346.383 457.353C346.383 457.189 346.383 457.039 346.383 456.875C346.451 453.758 346.506 450.559 346.519 447.306C346.519 446.868 346.519 446.417 346.519 445.939H290.698V447.675L291.012 456.793V457.722C291.012 457.722 258.354 472.758 255.029 475.369C251.704 477.98 249.283 486.633 252.279 487.631Z" fill="#EBEBEB"/>
<path d="M252.279 487.631C255.289 488.615 340.978 487.808 344.221 485.717C345.466 484.938 346.082 472.458 346.383 457.353C346.383 457.189 346.383 457.039 346.383 456.875L291.081 456.779V457.708C291.081 457.708 258.422 472.745 255.098 475.356C251.773 477.966 249.283 486.633 252.279 487.631Z" fill="#C1DB9B"/>
<path d="M253.223 484.309C267.671 483.817 325.969 483.202 340.28 483.817C340.39 483.817 340.39 483.899 340.28 483.913C325.969 484.706 267.671 484.842 253.223 484.542C252.922 484.528 252.922 484.309 253.223 484.309Z" fill="#181818"/>
<path d="M284.951 456.984C290.615 455.877 297.579 456.683 301.958 460.688C302.136 460.839 301.958 461.085 301.725 461.03C296.279 459.324 290.664 458.211 284.979 457.708C284.894 457.695 284.816 457.653 284.759 457.589C284.701 457.525 284.668 457.443 284.665 457.357C284.662 457.272 284.689 457.187 284.741 457.119C284.793 457.051 284.867 457.003 284.951 456.984Z" fill="#181818"/>
<path d="M280.86 459.499C286.538 458.378 293.502 459.185 297.881 463.204C298.058 463.354 297.881 463.586 297.648 463.532C292.2 461.832 286.586 460.719 280.901 460.21C280.807 460.216 280.715 460.183 280.644 460.12C280.573 460.058 280.531 459.969 280.525 459.875C280.52 459.781 280.552 459.688 280.615 459.618C280.678 459.547 280.766 459.505 280.86 459.499Z" fill="#181818"/>
<path d="M276.783 462.028C282.461 460.921 289.425 461.727 293.803 465.732C293.968 465.883 293.803 466.129 293.557 466.074C288.111 464.367 282.496 463.253 276.811 462.752C276.726 462.739 276.648 462.697 276.591 462.633C276.533 462.569 276.5 462.487 276.497 462.401C276.494 462.316 276.521 462.231 276.573 462.163C276.625 462.095 276.699 462.047 276.783 462.028V462.028Z" fill="#181818"/>
<path d="M260.885 153.754C260.885 153.754 262.089 178.755 267.822 198.562C268.273 200.203 268.779 201.816 269.313 203.36C274.555 205.477 279.592 208.067 284.363 211.097C284.363 211.097 284.965 231.219 285.567 253.65C286.237 278.734 286.935 306.702 286.785 312.634C286.265 334.833 289.521 456.902 289.521 456.902L351.226 457.148C351.226 457.148 340.075 320.836 340.144 312.703C340.267 299.634 337.161 241.854 334.767 199.724C333.289 173.752 332.03 153.754 332.03 153.754H260.885Z" fill="#4A4A4A"/>
<path d="M291.71 445.939C301.137 445.775 298.428 445.693 307.855 445.638C312.465 445.638 342.784 445.474 347.094 446.212C347.176 446.212 347.176 446.39 347.094 446.404C342.771 447.101 312.465 446.704 307.855 446.636C298.428 446.513 301.123 446.445 291.71 446.212C291.674 446.212 291.639 446.198 291.613 446.172C291.588 446.147 291.573 446.112 291.573 446.075C291.573 446.039 291.588 446.004 291.613 445.979C291.639 445.953 291.674 445.939 291.71 445.939Z" fill="#181818"/>
<path d="M326.996 162.667C328.131 197.059 329.335 231.451 330.881 265.83C332.427 300.209 334.507 334.82 337.394 369.226C339.008 388.459 340.527 415.497 342.607 434.675C342.599 434.696 342.585 434.714 342.566 434.727C342.548 434.74 342.526 434.747 342.504 434.747C342.482 434.747 342.46 434.74 342.441 434.727C342.423 434.714 342.409 434.696 342.401 434.675C337.914 400.502 335.41 358.372 333.193 324.048C330.977 289.724 329.486 255.332 328.323 220.953C327.652 201.502 327.146 182.05 326.571 162.598C326.53 162.393 326.996 162.421 326.996 162.667Z" fill="#181818"/>
<path d="M266.796 201.871C272.936 204.429 278.841 207.516 284.445 211.098C284.483 211.128 284.509 211.17 284.518 211.217C284.528 211.264 284.521 211.313 284.498 211.355C284.475 211.398 284.438 211.431 284.394 211.449C284.349 211.466 284.299 211.468 284.254 211.453C278.302 208.569 272.227 205.794 266.467 202.582C266.389 202.529 266.332 202.45 266.306 202.36C266.281 202.269 266.288 202.172 266.328 202.086C266.368 202.001 266.436 201.932 266.522 201.892C266.608 201.853 266.705 201.845 266.796 201.871V201.871Z" fill="#181818"/>
<path d="M266.399 180.655C266.809 182.843 267.343 185.016 267.767 187.189C268.191 189.363 268.547 191.29 269.135 193.341C269.584 195.296 270.58 197.084 272.008 198.494C272.815 199.232 273.691 199.861 274.553 200.586C275.005 200.955 275.511 201.296 275.99 201.679C275.921 201.378 275.88 201.091 275.825 200.791C275.675 199.957 275.538 199.137 275.401 198.303C275.087 196.457 274.786 194.598 274.512 192.753C273.951 189.117 273.445 185.44 272.679 181.817C272.687 181.793 272.703 181.772 272.724 181.758C272.744 181.743 272.769 181.735 272.795 181.735C272.821 181.735 272.845 181.743 272.866 181.758C272.887 181.772 272.903 181.793 272.911 181.817C273.814 185.385 274.813 188.912 275.648 192.507C276.031 194.27 277.413 202.978 277.481 203.607C277.549 204.235 277.59 204.878 277.618 205.52C277.693 206.17 277.693 206.826 277.618 207.475C277.618 207.625 277.385 207.598 277.317 207.475C277.054 206.872 276.87 206.238 276.77 205.589C276.605 204.96 276.469 204.331 276.359 203.702C276.359 203.47 276.277 203.237 276.25 203.005C275.388 202.486 274.594 201.788 273.787 201.214C272.98 200.64 272.049 199.97 271.228 199.287C269.712 198.01 268.62 196.304 268.095 194.393C267.569 192.346 267.225 190.255 267.069 188.146C266.795 185.659 266.59 183.171 266.248 180.71C266.152 180.56 266.371 180.505 266.399 180.655Z" fill="#181818"/>
<path d="M285.156 85.1331C282.831 94.7017 257.588 146.181 257.793 149.38C257.793 150.145 273.062 160.315 273.431 161.559C274.95 166.466 249.898 187.203 244.412 188.433C228.295 192.069 214.216 191.318 214.504 178.099C214.955 157.363 251.445 106.006 270.134 87.8807C282.42 75.9199 287.455 75.7558 285.156 85.1331Z" fill="#B98561"/>
<path d="M238.269 190.908L267.917 153.754C267.917 153.754 259.065 150.555 258.874 148.491C258.682 146.427 280.122 102.357 284.76 89.3981C289.398 76.4395 285.799 73.7603 271.899 84.8735C257.998 95.9868 206.418 167.998 214.066 184.032C219.333 195.09 238.269 190.908 238.269 190.908Z" fill="#C1DB9B"/>
<path d="M258.86 148.738C257.545 149.065 256.266 149.523 255.043 150.104C253.802 150.651 252.571 151.212 251.349 151.786C248.927 152.907 246.519 154.069 244.18 155.354C241.84 156.638 239.569 158.005 237.339 159.454L235.751 160.439L235.122 160.657C234.233 160.972 233.343 161.313 232.495 161.71C230.839 162.484 229.234 163.365 227.693 164.348C227.583 164.416 227.693 164.58 227.802 164.526C229.407 163.621 231.076 162.836 232.796 162.175L233.48 161.929C232.577 162.53 231.702 163.159 230.853 163.829C228.579 165.582 226.418 167.477 224.382 169.501C224.286 169.597 224.382 169.734 224.532 169.638C228.199 166.084 232.837 163.514 237.257 161.013C241.676 158.511 246.314 155.627 250.938 153.071C252.307 152.333 253.579 151.635 254.933 150.966C256.313 150.367 257.661 149.697 258.97 148.956C258.995 148.94 259.013 148.915 259.021 148.885C259.029 148.856 259.026 148.825 259.013 148.798C258.999 148.771 258.976 148.75 258.948 148.739C258.92 148.727 258.889 148.727 258.86 148.738V148.738Z" fill="#181818"/>
<path d="M338.584 190.908C338.365 191.127 247.956 184.948 247.189 183.95C246.136 182.583 273.541 86.186 283.693 74.7584C285.854 72.3115 298.578 69.7143 305.378 76.1253C319.799 89.7948 329.91 133.674 332.03 146.851C335.547 168.599 339.391 190.101 338.584 190.908Z" fill="#C1DB9B"/>
<path d="M273.636 95.2623C273.636 95.1119 273.431 95.0026 273.376 95.153C271.885 98.871 270.503 102.63 269.149 106.389C269.217 105.856 269.272 105.309 269.313 104.776C269.422 103.341 269.409 101.906 269.532 100.484C269.532 100.347 269.327 100.347 269.327 100.484C269.245 101.96 268.971 103.409 268.752 104.872C268.533 106.335 268.383 107.496 268.164 108.809L268.041 109.506C265.851 115.78 263.799 122.109 261.788 128.438C258.231 139.715 254.947 151.102 251.869 162.516C250.117 168.954 248.585 175.434 247.148 181.94C247.156 181.961 247.17 181.979 247.189 181.992C247.207 182.005 247.229 182.012 247.251 182.012C247.273 182.012 247.295 182.005 247.314 181.992C247.332 181.979 247.346 181.961 247.354 181.94C250.706 170.649 253.948 159.317 257.287 148.026C260.351 137.624 263.58 127.276 266.864 116.928C266.88 116.937 266.897 116.943 266.916 116.944C266.934 116.946 266.952 116.943 266.969 116.936C266.986 116.93 267.001 116.92 267.014 116.906C267.027 116.893 267.036 116.877 267.042 116.86L267.74 114.126C269.737 107.907 271.762 101.605 273.636 95.2623Z" fill="#181818"/>
<path d="M281.366 78.7633C280.833 82.8642 279.862 92.3234 286.333 92.1868C288.954 91.9074 291.439 90.8774 293.489 89.2205C295.622 87.7259 297.582 85.9973 299.331 84.0671C301.372 81.9748 303.234 79.7161 304.899 77.3144C304.899 77.2187 305.132 77.3144 305.05 77.4374C303.353 79.8432 301.903 82.3584 299.974 84.5865C298.138 86.7701 296.017 88.6966 293.666 90.314C291.477 92.0092 288.825 93.0007 286.059 93.1573C284.86 93.1324 283.707 92.6943 282.794 91.917C281.882 91.1398 281.266 90.0712 281.052 88.8924C280.405 85.5344 280.513 82.0748 281.366 78.7633V78.7633Z" fill="#181818"/>
<path d="M311.316 96.1375C333.316 112.541 358.874 121.385 369.436 117.257C377.646 114.031 404.229 89.7128 408.58 70.0561C409.538 65.7229 376.195 61.8544 374.882 64.766C371.037 73.1317 356.001 87.6624 354.469 87.4437C352.471 87.1703 329.718 82.304 311.754 78.0801C290.055 72.9814 299.29 87.1976 311.316 96.1375Z" fill="#B98561"/>
<path d="M414.559 63.0299C412.821 70.0696 403.614 83.0967 400.179 85.3795C396.745 87.6623 374.088 72.7625 373.76 68.5523C373.432 64.3421 381.148 41.063 387.031 36.5658C392.914 32.0685 416.42 55.7304 414.559 63.0299Z" fill="#B98561"/>
<path d="M374.43 64.3559C373.614 58.551 371.955 52.8961 369.505 47.5698C366.358 41.3228 360.981 32.3966 364.278 30.5786C371.051 26.8468 384.459 49.1007 384.459 49.1007C384.459 49.1007 388.796 59.8723 382.407 64.1371C381.227 64.9051 379.857 65.3319 378.449 65.3705C377.042 65.4091 375.651 65.058 374.43 64.3559V64.3559Z" fill="#B98561"/>
<path d="M379.424 45.3142C382.161 47.9524 384.24 45.5329 384.24 45.5329C384.24 45.5329 380.136 51.7662 382.79 55.1015C385.444 58.4369 389.631 53.9806 389.959 53.7346C389.74 54.0626 386.128 59.8858 389.125 62.9615C392.121 66.0371 395.815 61.0751 396.048 60.747C395.938 61.1298 394.679 66.1328 397.416 67.9371C402.246 71.0675 405.885 58.3685 410.044 56.2634C410.044 56.2634 414.395 62.9205 414.559 63.0982C414.723 63.2759 418.267 51.0827 415.134 45.6286C414.689 44.8284 413.984 44.2039 413.136 43.8584C412.287 43.5129 411.346 43.4671 410.468 43.7285C410.468 43.7285 412.096 39.9831 409.812 37.4816C408.621 36.2103 405.529 36.9621 405.529 36.9621C405.852 36.0943 405.93 35.1544 405.754 34.2454C405.577 33.3364 405.154 32.4934 404.53 31.8087C402.807 30.1411 399.974 31.1526 399.974 31.1526C399.974 31.1526 411.358 16.1162 407.951 13.3823C402.068 8.58432 382.133 40.7212 378.795 40.9946C377.208 41.0766 378.207 44.1523 379.424 45.3142Z" fill="#B98561"/>
<path d="M405.639 36.7844C405.639 36.7844 405.639 36.634 405.557 36.6751C398.396 40.2592 392.756 46.2867 389.658 53.6662C389.562 53.9259 389.727 54.2677 389.864 53.9806C392.203 49.0596 400.18 40.6255 405.639 36.7844Z" fill="#181818"/>
<path d="M396.02 61.2939C399.126 54.1038 404.229 48.636 410.249 43.7696C410.331 43.7696 410.249 43.6056 410.154 43.633C406.542 45.2186 403.025 48.718 400.576 51.6706C398.184 54.3892 396.552 57.6896 395.842 61.2392C395.747 61.3213 395.952 61.5126 396.02 61.2939Z" fill="#181818"/>
<path d="M384.117 45.5464C383.98 45.7924 384.829 45.6421 384.705 45.8881C383.406 48.622 381.326 53.5704 383.337 55.1287C384.924 56.3589 387.688 55.1287 388.564 54.1992L390.753 51.93L389.48 54.828C388.897 56.1264 388.532 57.5119 388.4 58.9288C388.303 59.571 388.341 60.2263 388.513 60.8526C388.685 61.4789 388.987 62.0621 389.398 62.5649C389.788 63.0289 390.326 63.3447 390.922 63.4592C391.517 63.5737 392.134 63.4799 392.668 63.1937C393.849 62.545 394.844 61.6035 395.555 60.4598L397.635 57.3568L396.691 60.9519C396.421 61.9547 396.288 62.9892 396.294 64.0275C396.266 64.9897 396.518 65.9394 397.019 66.7614C397.265 67.1264 397.608 67.4157 398.009 67.5968C398.41 67.7779 398.854 67.8437 399.29 67.7866C400.254 67.5186 401.119 66.9773 401.78 66.2283C403.244 64.6364 404.58 62.9315 405.775 61.1296C406.419 60.2411 407.062 59.3526 407.732 58.4914C408.371 57.5858 409.191 56.8224 410.14 56.2496C409.274 56.9137 408.541 57.7344 407.978 58.6691C407.376 59.5713 406.815 60.5008 406.241 61.403C405.144 63.3386 403.871 65.1689 402.437 66.8708C401.673 67.7965 400.655 68.4804 399.509 68.8392C398.868 68.9699 398.202 68.9101 397.594 68.6672C396.986 68.4243 396.463 68.0089 396.089 67.4722C395.416 66.4507 395.068 65.25 395.09 64.0275C395.078 62.8763 395.212 61.7281 395.487 60.6101L396.622 61.1022C395.798 62.4724 394.634 63.6071 393.243 64.3966C392.453 64.8106 391.543 64.9363 390.671 64.752C389.818 64.5322 389.053 64.0548 388.482 63.385C387.952 62.7528 387.563 62.0149 387.341 61.2204C387.119 60.426 387.07 59.5935 387.196 58.7784C387.371 57.2435 387.796 55.7475 388.454 54.3495L389.371 54.9783C388.222 56.0855 385.266 57.8352 382.599 56.2086C379.37 53.5704 383.31 46.7493 384.117 45.5464Z" fill="#181818"/>
<path d="M370.12 68.8667L403.025 89.2205C403.025 89.2205 378.986 120.086 363.239 120.442C347.491 120.797 311.248 103.71 299.728 91.0249C289.767 80.0893 300.932 74.2935 311.248 77.3554C321.564 80.4174 353.866 86.76 354.769 86.2953C355.672 85.8305 370.12 68.8667 370.12 68.8667Z" fill="#C1DB9B"/>
<path d="M396.978 95.3033C395.858 94.4079 394.683 93.5817 393.462 92.8292L389.658 90.2183C387.223 88.5643 384.692 87.047 382.174 85.516C377.057 82.3993 371.954 79.187 366.605 76.4805C366.509 76.4805 366.386 76.5762 366.481 76.6445C371.229 80.1712 376.291 83.2742 381.299 86.4045C383.789 87.9765 386.279 89.5621 388.824 91.0248L392.682 93.1709C394.027 94.0132 395.425 94.7666 396.869 95.4264C396.951 95.481 397.06 95.3717 396.978 95.3033Z" fill="#181818"/>
<path d="M321.988 106.485C318.211 104.31 314.013 102.963 309.674 102.535C309.653 102.542 309.635 102.556 309.623 102.575C309.61 102.593 309.603 102.615 309.603 102.637C309.603 102.66 309.61 102.681 309.623 102.7C309.635 102.718 309.653 102.732 309.674 102.74C311.289 103.204 312.835 103.861 314.449 104.38L315.421 104.681H314.572L311.836 104.544C311.74 104.544 311.727 104.681 311.836 104.694C312.727 104.959 313.645 105.119 314.572 105.173C315.267 105.2 315.962 105.173 316.652 105.091H316.83C317.541 105.282 321.263 106.622 321.988 106.677C322.015 106.704 322.043 106.622 321.988 106.485Z" fill="#181818"/>
<path d="M286.36 87.8128C290.957 88.5783 299.221 80.5133 301.93 74.7174C302.108 74.321 301.26 70.3022 300.453 65.3812C299.96 62.4012 299.509 59.0522 299.303 55.9766C299.303 55.3478 297.183 56.6464 297.183 56.6464L293.27 57.8766L280.286 61.9775C281.643 65.7556 282.534 69.685 282.94 73.6785C282.975 74.1016 282.975 74.5268 282.94 74.9498C282.94 74.9498 282.94 75.0728 282.94 75.1548C282.639 77.5333 281.914 87.061 286.36 87.8128Z" fill="#B98561"/>
<path d="M282.885 74.9085C282.885 74.9085 282.885 75.0316 282.885 75.1136C283.55 75.1676 284.218 75.1676 284.883 75.1136C297.867 73.9653 298.4 57.3433 298.4 57.3433L293.283 57.9037L280.299 62.0046C281.656 65.7827 282.548 69.712 282.954 73.7056C282.962 74.1078 282.939 74.5099 282.885 74.9085V74.9085Z" fill="#181818"/>
<path d="M278.097 26.6006C278.097 26.6006 271.803 29.0337 270.503 35.3217C269.204 41.6097 270.503 48.2804 271.037 48.6084C271.57 48.9365 278.097 26.6006 278.097 26.6006Z" fill="#181818"/>
<path d="M303.299 36.0188C305.118 42.9492 300.726 62.6059 295.678 66.8298C288.358 72.9537 276.756 73.1178 271.639 64.4103C266.686 55.9626 272.87 30.4553 278.48 26.6552C286.73 21.0644 300.603 25.7667 303.299 36.0188Z" fill="#B98561"/>
<path d="M285.457 48.1162C285.457 48.1162 285.553 48.1982 285.54 48.2529C285.225 49.6199 285.088 51.1372 286.196 51.8343C284.746 51.3969 284.951 49.3191 285.457 48.1162Z" fill="#181818"/>
<path d="M286.935 46.9685C289.111 47.2419 288.399 51.5751 286.388 51.3154C284.377 51.0557 285.116 46.7498 286.935 46.9685Z" fill="#181818"/>
<path d="M277.741 46.6401C277.741 46.6401 277.632 46.6401 277.618 46.7358C277.44 48.1028 277.016 49.5927 275.73 49.8388V49.9208C277.18 49.9618 277.741 47.9387 277.741 46.6401Z" fill="#181818"/>
<path d="M276.728 45.1092C274.594 44.6034 273.718 48.8957 275.689 49.3741C277.659 49.8525 278.507 45.4783 276.728 45.1092Z" fill="#181818"/>
<path d="M288.96 45.2729C288.421 45.0129 287.896 44.7254 287.387 44.4118C286.785 44.07 286.265 43.865 285.95 43.2225C285.874 43.0321 285.865 42.8213 285.924 42.6249C285.984 42.4286 286.109 42.2585 286.278 42.1426C286.644 41.9591 287.051 41.875 287.46 41.899C287.868 41.923 288.263 42.0542 288.604 42.2793C289.363 42.6406 289.962 43.2683 290.287 44.0427C290.352 44.224 290.362 44.4203 290.316 44.6073C290.27 44.7943 290.17 44.9637 290.029 45.0947C289.888 45.2256 289.711 45.3123 289.521 45.344C289.331 45.3757 289.136 45.351 288.96 45.2729V45.2729Z" fill="#181818"/>
<path d="M275.401 42.594C276.001 42.5738 276.6 42.5191 277.194 42.4299C277.835 42.4608 278.468 42.2833 279 41.9242C279.141 41.7745 279.23 41.5825 279.252 41.3776C279.275 41.1727 279.229 40.9662 279.123 40.7896C278.863 40.4735 278.522 40.2332 278.137 40.0937C277.752 39.9542 277.336 39.9207 276.934 39.9968C276.094 40.0205 275.294 40.3569 274.69 40.94C274.56 41.0797 274.473 41.2541 274.441 41.442C274.408 41.6299 274.431 41.8232 274.507 41.9984C274.582 42.1736 274.707 42.3232 274.865 42.4289C275.024 42.5347 275.21 42.592 275.401 42.594Z" fill="#181818"/>
<path d="M284.582 60.2957C284.199 60.5554 283.816 60.9381 283.323 60.8971C282.832 60.802 282.366 60.6066 281.955 60.323C281.955 60.323 281.859 60.323 281.887 60.323C282.033 60.6181 282.256 60.8681 282.533 61.0463C282.81 61.2244 283.131 61.3241 283.46 61.3346C283.748 61.3184 284.023 61.2119 284.246 61.0303C284.47 60.8487 284.63 60.6011 284.705 60.323C284.787 60.2957 284.691 60.2547 284.582 60.2957Z" fill="#181818"/>
<path d="M283.884 56.0446C283.457 56.5186 282.937 56.8984 282.355 57.1597C281.773 57.4209 281.143 57.558 280.505 57.562C279.946 57.5863 279.387 57.5217 278.849 57.3706C278.745 57.3596 278.643 57.3319 278.548 57.2886L278.261 57.1929C278.19 57.1709 278.129 57.1246 278.089 57.062C278.049 56.9995 278.032 56.9248 278.042 56.8511V56.8511C278.037 56.8057 278.037 56.7599 278.042 56.7144V56.7144V56.5914C278.179 55.5525 278.534 54.0079 278.534 54.0079C278.138 54.1309 276.072 54.6777 276.181 54.1446C277.07 49.5191 278.423 44.9945 280.217 40.6392C280.235 40.6162 280.259 40.5992 280.286 40.5907C280.313 40.5821 280.343 40.5824 280.37 40.5915C280.397 40.6006 280.421 40.618 280.438 40.6412C280.455 40.6645 280.464 40.6925 280.464 40.7212C279.67 44.9997 278.124 49.1142 277.262 53.3928C278.002 53.1925 278.766 53.0913 279.533 53.092C279.67 53.092 278.781 56.0857 278.753 56.5504C279.586 56.7733 280.454 56.8265 281.308 56.7067C282.161 56.5869 282.981 56.2967 283.72 55.8533C283.884 55.8533 283.98 55.9626 283.884 56.0446Z" fill="#181818"/>
<path d="M279.547 56.9603C279.991 57.7902 280.641 58.4917 281.435 58.997C281.875 59.2632 282.387 59.3829 282.899 59.3388C284.021 59.2294 284.199 58.2452 284.144 57.384C284.112 56.9186 284.02 56.4592 283.871 56.0171C282.568 56.7872 281.053 57.1179 279.547 56.9603V56.9603Z" fill="#181818"/>
<path d="M300.138 51.9439C296.033 51.9439 296.553 34.0779 296.553 34.0779C294.171 35.1845 291.633 35.922 289.028 36.265C286.381 36.4273 283.723 36.2897 281.107 35.8549C280.546 35.6909 287.578 32.957 287.578 32.957C287.578 32.957 269.942 36.2513 269.012 32.957C268.697 31.8224 276.742 19.7386 288.919 20.6545C297.922 21.2833 302.929 30.5512 302.929 30.5512C302.929 30.5512 307.253 35.3902 307.034 38.2197C306.787 41.8968 304.434 51.9439 300.138 51.9439Z" fill="#181818"/>
<path d="M298.428 51.9436C298.428 51.9436 303.285 45.8197 306.103 47.5831C308.922 49.3464 304.995 58.423 301.506 59.4892C301.068 59.6572 300.6 59.7348 300.131 59.7171C299.661 59.6994 299.2 59.5869 298.776 59.3863C298.351 59.1857 297.972 58.9012 297.66 58.5501C297.349 58.1989 297.112 57.7883 296.964 57.3431L298.428 51.9436Z" fill="#B98561"/>
<path d="M304.913 50.1943C304.913 50.1943 304.913 50.1943 304.913 50.29C303.783 50.7695 302.767 51.481 301.93 52.3782C301.093 53.2754 300.455 54.3384 300.056 55.4981C300.207 55.2662 300.407 55.0701 300.642 54.9236C300.877 54.777 301.142 54.6836 301.417 54.6497C301.692 54.6158 301.971 54.6424 302.234 54.7276C302.498 54.8127 302.74 54.9544 302.943 55.1427C302.943 55.1427 302.943 55.2794 302.874 55.2657C302.462 55.1098 302.011 55.0838 301.583 55.1913C301.155 55.2989 300.77 55.5347 300.48 55.8672C300.009 56.4347 299.596 57.0484 299.249 57.6989C299.126 57.9176 298.742 57.7672 298.838 57.5348C299.002 54.4319 301.616 50.3037 304.913 50.1943Z" fill="#181818"/>
<path d="M282.803 74.7856L287.51 86.1312L301.534 71.5459L305.638 76.1252C305.638 76.1252 291.956 99.1992 291.956 98.174L287.14 88.4004L280.436 95.3171L280.792 78.1346L282.803 74.7856Z" fill="#EBEBEB"/>
<path d="M280.053 86.8147C280.217 83.9851 280.286 81.1282 280.573 78.2986C280.573 78.2029 280.737 78.1482 280.764 78.2986C281.366 81.0325 280.764 91.8587 280.764 94.4559C281.038 94.1552 286.99 88.3593 287.044 88.455C288.084 89.9997 291.614 97.1215 291.86 97.7639C294.008 94.1005 302.272 80.7728 304.831 77.2597C304.836 77.2473 304.844 77.2361 304.854 77.2269C304.864 77.2177 304.876 77.2108 304.889 77.2065C304.902 77.2022 304.915 77.2008 304.929 77.2022C304.942 77.2036 304.955 77.2079 304.967 77.2147C304.979 77.2215 304.989 77.2308 304.997 77.2418C305.005 77.2529 305.01 77.2655 305.013 77.2788C305.015 77.2921 305.015 77.3058 305.012 77.319C305.009 77.3322 305.003 77.3446 304.995 77.3554C303.107 81.2239 292.189 99.2265 292.011 99.1172C290.156 95.7615 288.475 92.3122 286.976 88.7831C285.977 90.0407 279.985 96.5747 279.957 96.1509C279.824 93.0393 279.856 89.9229 280.053 86.8147V86.8147Z" fill="#181818"/>
<path d="M324.861 171.675H261.569V175.366H324.861V171.675Z" fill="#1E1436"/>
<path d="M300.042 171.675H261.569V175.366H300.042V171.675Z" fill="#181818"/>
<path d="M293.393 175.42L213.286 175.434L201.821 120.797H281.941L293.393 175.42Z" fill="#1E1436"/>
<path opacity="0.5" d="M252.484 148.109C252.57 148.726 252.52 149.355 252.338 149.951C252.157 150.547 251.848 151.097 251.433 151.562C251.018 152.027 250.507 152.397 249.935 152.646C249.363 152.895 248.743 153.016 248.12 153.002C246.783 152.969 245.502 152.457 244.513 151.558C243.523 150.66 242.89 149.435 242.729 148.109C242.646 147.492 242.698 146.864 242.88 146.269C243.063 145.674 243.372 145.125 243.786 144.66C244.201 144.195 244.711 143.826 245.282 143.576C245.853 143.327 246.471 143.204 247.094 143.215C248.431 143.245 249.713 143.757 250.704 144.656C251.694 145.555 252.326 146.781 252.484 148.109V148.109Z" fill="#6E4D87"/>
<path d="M229.362 178.673C234.301 181.407 240.308 187.736 244.412 188.447C245.42 188.664 246.47 188.55 247.407 188.121C248.344 187.693 249.118 186.973 249.611 186.069C249.611 186.069 251.458 190.306 255.303 190.334C257.287 190.334 259.052 187.217 259.052 187.217C259.52 188.153 260.238 188.942 261.126 189.497C262.015 190.051 263.039 190.35 264.087 190.361C266.823 190.224 268.191 187.094 268.191 187.094C268.191 187.094 271.242 189.568 273.978 188.461C279.451 186.356 280.737 162.981 272.309 158.921C268.383 157.021 268.396 162.749 268.396 162.749C268.396 162.749 266.399 154.547 261.555 154.15C256.712 153.754 257.218 161.3 257.218 161.3C257.218 161.3 255.207 153.344 250.172 153.453C244.932 153.576 246.67 160.93 246.67 160.93C246.67 160.93 243.427 155.545 239.582 156.515C233.261 158.115 240.444 170.321 238.953 175.393H230.58L229.362 178.673Z" fill="#B98561"/>
<path d="M236.477 183.239C231.578 181.121 229.225 184.606 224.163 183.95C218.471 183.212 220.318 176.541 230.32 175.352H238.98L236.477 183.239Z" fill="#B98561"/>
<path d="M259.079 187.271C259.079 187.367 259.216 187.381 259.243 187.271C261.8 178.56 261.155 169.222 257.423 160.944C257.287 160.657 256.876 160.534 256.999 160.944C259.27 166.685 260.119 179.835 259.079 187.271Z" fill="#181818"/>
<path d="M246.163 160.397C249.734 168.517 250.336 176.978 249.707 185.741C249.707 185.766 249.717 185.79 249.735 185.808C249.753 185.826 249.777 185.836 249.803 185.836C249.828 185.836 249.852 185.826 249.87 185.808C249.888 185.79 249.898 185.766 249.898 185.741C251.376 181.53 251.198 175.898 250.678 171.524C250.275 167.458 248.818 163.566 246.451 160.233C246.355 160.138 246.081 160.22 246.163 160.397Z" fill="#181818"/>
<circle cx="110" cy="181" r="15" fill="white"/>
<path d="M116.6 177.212V178.054H103.4V177.212L103.663 177.078L103.664 177.077L109.799 173.986L109.799 173.986L109.8 173.986L110 173.883L110.2 173.986L110.2 173.986L110.201 173.986L116.336 177.077L116.337 177.078L116.6 177.212ZM110.068 174.998L110 174.964L109.933 174.998L106.328 176.81L106.395 177.094H113.605L113.673 176.81L110.068 174.998ZM104.478 185.285H104.628V185.135V178.984H105.555V185.135V185.285H105.705H106.932H107.082V185.135V178.984H108.009V185.135V185.285H108.159H109.387H109.537V185.135V178.984H110.464V185.135V185.285H110.614H111.841H111.991V185.135V178.984H112.919V185.135V185.285H113.069H114.296H114.446V185.135V178.984H115.373V185.135V185.285H115.523H115.987V186.245H104.014V185.285H104.478ZM117.214 188.136H102.787V187.176H117.214V188.136Z" fill="#FFB357" stroke="#FFB357" strokeWidth="0.3"/>
<circle cx="88" cy="120" r="15" fill="white"/>
<g clip-path="url(#clip1_535_3431)">
<path d="M79.1788 117.543L79.1081 117.613L79.1788 117.684L90.3157 128.821L90.3864 128.892L90.4571 128.821L97.2188 122.059C97.5541 121.724 97.7424 121.269 97.7424 120.795C97.7424 120.321 97.5541 119.866 97.2188 119.531L88.4684 110.781C88.1332 110.446 87.6785 110.257 87.2044 110.257C86.7304 110.257 86.2757 110.446 85.9405 110.781L79.1788 117.543ZM90.8549 130.014L90.9256 129.943L90.8549 129.873L78.1977 117.215L78.1269 117.145L78.0562 117.215L77.9855 117.145C77.6503 117.48 77.462 117.935 77.462 118.409C77.462 118.883 77.6503 119.337 77.9855 119.673L88.327 130.014C88.6622 130.349 89.1168 130.538 89.5909 130.538C90.065 130.538 90.5196 130.349 90.8549 130.014ZM96.2819 120.468C96.3686 120.555 96.4174 120.673 96.4174 120.795C96.4174 120.918 96.3686 121.036 96.2819 121.122L90.3864 127.018L80.9819 117.613L86.8774 111.718C86.9641 111.631 87.0818 111.582 87.2044 111.582C87.3271 111.582 87.4447 111.631 87.5315 111.718L96.2819 120.468Z" fill="#1A6241" stroke="#1A6241" strokeWidth="0.2"/>
</g>
<circle cx="114" cy="69" r="15" fill="white"/>
<path d="M108.974 61.3538L109.074 61.2535H108.832H108.832H108.59L108.691 61.3537L107.97 62.0736L107.899 62.1444L107.97 62.2151L109.148 63.393L109.219 63.4637L109.289 63.393L110.08 62.6021L110.151 62.5314L110.08 62.4607L108.974 61.3538ZM119.309 61.3538L119.41 61.2535H119.168H119.168H118.926L119.027 61.3538L117.919 62.4607L117.848 62.5314L117.919 62.6021L118.711 63.393L118.781 63.4636L118.852 63.393L120.03 62.2157L120.101 62.145L120.03 62.0742L119.309 61.3538ZM108.909 66.103L108.909 66.1031C108.652 67.968 109.421 69.6586 110.701 70.7464C111.195 71.168 111.53 71.7458 111.65 72.3838V75.7496V75.8496H111.75H112.977C113.195 76.1867 113.568 76.4121 114 76.4121C114.432 76.4121 114.805 76.1867 115.023 75.8496H116.25H116.35V75.7496V73.5996H116.403V73.4996V72.8313C116.403 72.0412 116.814 71.2348 117.496 70.6023L117.496 70.6024L117.499 70.5997C118.445 69.6523 119.162 68.3033 119.162 66.7501C119.162 63.9165 116.831 61.5781 113.999 61.6045L114 61.7045L113.999 61.6045C113.813 61.6068 113.624 61.6174 113.434 61.6402C113.429 61.64 113.419 61.6396 113.407 61.6414C111.079 61.9095 109.23 63.7891 108.909 66.103ZM116.495 69.7201L116.511 69.7361C115.807 70.416 115.345 71.3078 115.195 72.2751H112.909C112.769 71.3225 112.348 70.4008 111.568 69.7325L111.568 69.7322C110.597 68.9081 110.021 67.6696 110.214 66.2717C110.454 64.544 111.856 63.1555 113.571 62.9655L113.571 62.9655L113.574 62.9651C113.716 62.9454 113.858 62.9337 114.001 62.93L114.024 62.9295L114.024 62.9293C116.131 62.9123 117.837 64.6409 117.837 66.7501C117.837 67.8961 117.307 68.9091 116.566 69.6494L116.495 69.7201ZM106.125 66.6501H106.025V66.7501V67.8751V67.9751H106.125H107.812H107.912V67.8751V66.7501V66.6501H107.812H106.125ZM120.187 66.6501H120.087V66.7501V67.8751V67.9751H120.187H121.875H121.975V67.8751V66.7501V66.6501H121.875H120.187ZM109.289 71.2323L109.219 71.1616L109.148 71.2323L107.97 72.4096L107.899 72.4803L107.97 72.551L108.762 73.3425L108.832 73.4132L108.903 73.3424L110.08 72.1646L110.15 72.0939L110.08 72.0232L109.289 71.2323ZM118.852 71.2323L118.781 71.1616L118.711 71.2323L117.92 72.0232L117.849 72.0939L117.92 72.1646L119.097 73.3425L119.168 73.4132L119.238 73.3425L120.03 72.551L120.101 72.4803L120.03 72.4096L118.852 71.2323ZM115.025 73.6001V74.5251H112.975V73.6001H115.025Z" fill="#FFB357" stroke="#FFB357" strokeWidth="0.2"/>
<circle cx="172" cy="62" r="15" fill="white"/>
<g clip-path="url(#clip2_535_3431)">
<path d="M163.515 64.1212C163.515 64.1212 163.25 62.2651 165.106 60.4089C166.962 58.5527 168.818 58.8179 168.818 58.8179L176.243 66.2425C176.243 66.2425 174.917 66.5077 173.061 68.3638C171.205 70.22 170.939 71.5458 170.939 71.5458L163.515 64.1212ZM168.818 58.8179C168.818 58.8179 168.553 56.9618 170.409 55.1056C172.265 53.2494 174.121 53.5146 174.121 53.5146L181.546 60.9392C181.546 60.9392 180.22 61.2044 178.364 63.0605C176.508 64.9167 176.243 66.2425 176.243 66.2425L168.818 58.8179Z" stroke="#1A6241" strokeWidth="1.5" strokeLinecap="round" strokeLinejoin="round"/>
</g>
</g>
<defs>
<clipPath id="clip0_535_3431">
<rect width="602" height="488" fill="white"/>
</clipPath>
<clipPath id="clip1_535_3431">
<rect width="18" height="18" fill="white" transform="translate(88 107.272) rotate(45)"/>
</clipPath>
<clipPath id="clip2_535_3431">
<rect width="18" height="18" fill="white" transform="translate(159.272 62) rotate(-45)"/>
</clipPath>
</defs>
</svg>
