<svg width="69" height="32" viewBox="0 0 69 32" fill="none" xmlns="http://www.w3.org/2000/svg">
<g clip-path="url(#clip0_529_982)">
<path d="M1.63443 14.0773C1.6368 13.7415 1.59992 13.4067 1.52453 13.0796C1.46442 12.793 1.30524 12.537 1.0752 12.3571L2.88366 12.0776V17.4436C2.88199 17.4553 2.88308 17.4672 2.88684 17.4784C2.89061 17.4896 2.89694 17.4998 2.90534 17.5081C2.91373 17.5164 2.92395 17.5226 2.93516 17.5262C2.94638 17.5298 2.95829 17.5307 2.96991 17.5288C3.0033 17.5288 3.08399 17.4575 3.2078 17.3136C3.35745 17.1462 3.51927 16.9902 3.69191 16.8469C3.91265 16.6657 4.15242 16.5092 4.40695 16.3802C4.69937 16.2327 5.02296 16.1583 5.35014 16.1636C5.80889 16.1481 6.26092 16.2776 6.64249 16.5339C6.99325 16.7787 7.28199 17.1027 7.48552 17.4799C7.70062 17.8795 7.85534 18.309 7.94459 18.7543C8.03741 19.2044 8.08403 19.6628 8.0837 20.1223C8.08637 20.6744 8.01525 21.2243 7.87225 21.7573C7.74315 22.2473 7.52425 22.7089 7.22677 23.1183C6.93391 23.5115 6.55254 23.8295 6.11386 24.0462C5.61449 24.2857 5.0659 24.4035 4.51268 24.3899C4.263 24.3916 4.01347 24.3771 3.76564 24.3466C3.53889 24.3187 3.3163 24.2865 3.09511 24.253C2.87392 24.2195 2.643 24.1859 2.39955 24.158C2.12613 24.1272 1.85113 24.1128 1.576 24.1147C1.59362 23.3918 1.608 22.6721 1.61913 21.9557C1.63026 21.2393 1.63489 20.5201 1.63304 19.7982L1.63443 14.0773ZM6.61467 19.3161C6.54881 18.9553 6.43462 18.6051 6.27524 18.275C6.13251 17.9782 5.92294 17.7189 5.66314 17.5176C5.40158 17.3204 5.0817 17.2171 4.75473 17.2242C4.48088 17.2112 4.20841 17.2704 3.96438 17.396C3.72035 17.5215 3.51324 17.7089 3.3636 17.9396C3.04086 18.4166 2.87903 19.0687 2.8781 19.896V21.2221C2.8779 21.5488 2.89508 21.8754 2.92957 22.2003C2.95496 22.4816 3.03283 22.7556 3.15911 23.0079C3.27654 23.2368 3.45593 23.4276 3.67661 23.5585C3.9639 23.711 4.28696 23.7825 4.61145 23.7653C4.99058 23.7816 5.36423 23.6699 5.67288 23.4481C5.95112 23.235 6.1732 22.9568 6.31975 22.6376C6.47621 22.2963 6.58213 21.9338 6.63415 21.5617C6.68831 21.1915 6.7162 20.8179 6.71761 20.4437C6.71893 20.0654 6.68447 19.6878 6.61467 19.3161Z" fill="#181818"/>
<path d="M10.1774 15.4143C10.1774 15.0259 10.163 14.6285 10.1342 14.2224C10.1163 13.8481 10.0028 13.4848 9.80454 13.1673H12.086C11.8878 13.4842 11.7742 13.8471 11.7563 14.221C11.7266 14.6262 11.7122 15.0231 11.7132 15.4115V18.0819C11.9445 18.0347 12.162 17.9348 12.3489 17.7899C12.5887 17.6131 12.8151 17.4188 13.0264 17.2086C13.2587 16.9794 13.4869 16.7321 13.7136 16.4638C13.9404 16.1955 14.1602 15.9356 14.3744 15.684C14.8381 15.1363 15.2054 14.6854 15.4762 14.3314C15.747 13.9774 15.8828 13.6979 15.8838 13.4929V13.3043C15.8851 13.257 15.879 13.2099 15.8657 13.1646H17.9677C17.5726 13.5195 17.2026 13.8437 16.8548 14.1427C16.4746 14.4733 16.1155 14.8276 15.7794 15.2033L13.1502 18.0805L15.9645 22.1539C16.1908 22.4865 16.4393 22.8214 16.7101 23.1586C16.9809 23.4958 17.2466 23.814 17.5072 24.113H15.728C15.5915 24.1209 15.4575 24.0741 15.3551 23.9831C15.252 23.8823 15.161 23.7697 15.0839 23.6477L12.0331 18.979C11.9943 18.9163 11.9515 18.8561 11.9051 18.7988C11.8537 18.7359 11.8119 18.7038 11.7786 18.7038C11.7712 18.7032 11.7639 18.7041 11.7569 18.7064C11.7499 18.7087 11.7435 18.7123 11.7379 18.7171C11.7324 18.7219 11.7278 18.7278 11.7245 18.7344C11.7212 18.7409 11.7193 18.7481 11.7187 18.7555C11.7131 18.7896 11.7103 18.8242 11.7104 18.8589V21.8618C11.7104 22.2522 11.7248 22.6504 11.7535 23.0566C11.7719 23.4303 11.8854 23.7931 12.0832 24.1102H9.80176C10.0004 23.7925 10.114 23.4286 10.1315 23.0538C10.1611 22.6486 10.1755 22.2517 10.1746 21.8632L10.1774 15.4143Z" fill="#181818"/>
<path d="M22.6561 24.2236C22.5911 23.9697 22.5446 23.7115 22.517 23.4508C22.4989 23.2566 22.4572 23.1602 22.3904 23.1602C22.3664 23.1576 22.3423 23.1635 22.3222 23.1769L22.2889 23.2105C22.1748 23.3712 22.0635 23.5235 21.9564 23.666C21.8473 23.8098 21.718 23.9369 21.5724 24.0433C21.4128 24.1589 21.2344 24.2459 21.0452 24.3004C20.8007 24.3688 20.5477 24.4008 20.294 24.3955C19.7546 24.4116 19.2259 24.242 18.7957 23.9148C18.3867 23.5934 18.1822 23.1178 18.1822 22.488C18.1724 22.1378 18.2829 21.7948 18.4953 21.5168C18.7152 21.2379 18.9793 20.9971 19.2771 20.8042C19.5952 20.5947 19.9308 20.4133 20.2801 20.262C20.6376 20.1083 20.9576 19.9616 21.2413 19.8246C21.4792 19.7086 21.6768 19.6122 21.8354 19.5312C21.9769 19.4631 22.104 19.3682 22.2096 19.2517C22.3053 19.1381 22.3696 19.0013 22.396 18.8548C22.4352 18.6382 22.4524 18.4182 22.4475 18.1981C22.46 17.8182 22.3597 17.4432 22.1595 17.1207C21.9675 16.8254 21.623 16.6782 21.1259 16.6791C20.7183 16.6791 20.4303 16.7658 20.2787 16.9362C20.1242 17.1018 20.0008 17.294 19.9142 17.5036C19.8346 17.6985 19.7417 17.8876 19.636 18.0695C19.533 18.2414 19.348 18.3266 19.0795 18.3266C18.9147 18.3378 18.7514 18.2882 18.6205 18.1869C18.5606 18.1282 18.5144 18.0569 18.4853 17.9781C18.4562 17.8994 18.4448 17.8151 18.4521 17.7313C18.4493 17.5966 18.4734 17.4627 18.5228 17.3374C18.5723 17.2122 18.6462 17.0981 18.7401 17.0019C18.9476 16.791 19.1956 16.6246 19.469 16.5128C19.7808 16.3822 20.1081 16.2929 20.4428 16.2473C20.7823 16.197 21.1249 16.1713 21.4681 16.1705C21.7571 16.1691 22.0459 16.1892 22.332 16.2306C22.5789 16.2635 22.819 16.3361 23.0429 16.4458C23.2388 16.5432 23.4051 16.6919 23.5242 16.8762C23.6491 17.0835 23.711 17.3229 23.7022 17.5651V21.3506C23.7022 21.8657 23.7162 22.3674 23.744 22.8555C23.7607 23.3107 23.9113 23.7508 24.1766 24.1202L22.6561 24.2236ZM19.9671 23.1238C20.2369 23.3325 20.5714 23.4389 20.9116 23.4243C21.1438 23.4295 21.3731 23.3731 21.5766 23.2608C21.7662 23.1548 21.9313 23.0095 22.0607 22.8346C22.1945 22.6514 22.2931 22.4448 22.3515 22.2253C22.413 21.9976 22.4444 21.7626 22.4447 21.5266V19.7953L21.5251 20.2578C21.2066 20.4171 20.9283 20.5638 20.6905 20.6938C20.4758 20.8098 20.2735 20.9474 20.0867 21.1046C19.9306 21.2355 19.8056 21.3997 19.7208 21.5853C19.6366 21.7819 19.5958 21.9946 19.6012 22.2086C19.6012 22.6194 19.7222 22.9254 19.9671 23.1238Z" fill="#181818"/>
<path d="M26.9408 18.5935C27.1246 18.8306 27.3449 19.0367 27.5932 19.2042C27.8651 19.3891 28.1486 19.5562 28.4418 19.7045C28.7402 19.8549 29.0238 20.0332 29.289 20.2369C29.5435 20.4318 29.764 20.6679 29.9414 20.9355C30.1264 21.2342 30.218 21.5818 30.2044 21.9333C30.2138 22.3091 30.1231 22.6806 29.9414 23.0093C29.7672 23.3123 29.53 23.574 29.2459 23.7764C28.9523 23.9854 28.6253 24.1423 28.279 24.2403C27.9287 24.3428 27.5658 24.395 27.2009 24.3955C26.8786 24.3971 26.5569 24.3652 26.241 24.3004C25.9249 24.2339 25.6149 24.1404 25.3145 24.021C25.2373 23.9943 25.1657 23.9535 25.1031 23.9008C25.0737 23.8651 25.0518 23.8238 25.0387 23.7793C25.0255 23.7349 25.0214 23.6883 25.0266 23.6423C25.0266 23.4355 25.0377 23.2288 25.06 23.0232C25.0822 22.8164 25.1003 22.604 25.1114 22.386C25.2506 22.6026 25.3771 22.7955 25.5023 22.9673C25.6212 23.1332 25.7643 23.2802 25.9266 23.4033C26.0882 23.5244 26.2694 23.6166 26.4622 23.6758C26.6971 23.7446 26.9411 23.7766 27.1856 23.7708C27.6962 23.7708 28.0898 23.6521 28.3681 23.4103C28.6463 23.1686 28.7854 22.8024 28.7854 22.3092C28.7956 22.0014 28.71 21.6981 28.5406 21.4414C28.3715 21.201 28.162 20.992 27.9215 20.8238C27.6619 20.6386 27.39 20.4715 27.1077 20.3235C26.8197 20.1734 26.5471 19.995 26.2939 19.7911C26.0454 19.5906 25.836 19.3457 25.6762 19.0687C25.5015 18.7445 25.4164 18.3792 25.43 18.0108C25.43 17.3583 25.6582 16.8929 26.1158 16.6023C26.5735 16.3116 27.2037 16.1719 28.005 16.1719C28.2635 16.1715 28.5217 16.1916 28.7771 16.232C29.0316 16.2725 29.2876 16.3214 29.5477 16.3787C29.5888 16.3963 29.6311 16.4108 29.6743 16.422C29.7009 16.4258 29.7251 16.4393 29.7423 16.4599C29.7595 16.4806 29.7685 16.5069 29.7676 16.5338C29.7676 16.6945 29.7676 16.8845 29.7592 17.1025C29.7509 17.3205 29.7453 17.5217 29.7342 17.7034C29.5644 17.4966 29.4147 17.327 29.2848 17.1948C29.1673 17.0726 29.0328 16.9681 28.8856 16.8845C28.7555 16.811 28.6146 16.7586 28.4682 16.7294C28.3002 16.6992 28.1298 16.6847 27.9591 16.6861C27.6471 16.6816 27.3406 16.7685 27.0771 16.9362C26.9469 17.0223 26.842 17.1418 26.7732 17.2824C26.7045 17.4229 26.6744 17.5794 26.6862 17.7355C26.674 18.042 26.7636 18.3438 26.9408 18.5935Z" fill="#181818"/>
<path d="M37.5713 22.2534C37.5713 22.5748 37.5824 22.9031 37.6061 23.2427C37.6193 23.5461 37.7001 23.8426 37.8426 24.1105H36.3207V19.3901C36.3202 19.1143 36.3058 18.8386 36.2776 18.5643C36.2545 18.3064 36.1848 18.0549 36.0717 17.8223C35.9658 17.608 35.8073 17.4243 35.6112 17.2885C35.3676 17.1394 35.085 17.0673 34.8002 17.0817C34.5315 17.061 34.2628 17.1224 34.0295 17.2578C33.7961 17.3932 33.6089 17.5963 33.4925 17.8404C33.3683 18.0829 33.2873 18.3454 33.2532 18.616C33.2132 18.9011 33.1932 19.1888 33.1934 19.4768V22.2492C33.1934 22.5706 33.205 22.9008 33.2282 23.2399C33.2413 23.55 33.3374 23.8507 33.5064 24.1105H31.6354C31.7997 23.85 31.8932 23.5508 31.9066 23.2427C31.9289 22.9045 31.94 22.5752 31.94 22.2548V14.0759C31.9412 13.7431 31.9244 13.4105 31.8899 13.0796C31.8794 12.9382 31.8392 12.8007 31.7718 12.6761C31.7044 12.5516 31.6114 12.4428 31.499 12.3571L33.192 12.0776V16.9363C33.192 17.0048 33.192 17.0677 33.199 17.125C33.2059 17.1823 33.2199 17.2102 33.2491 17.2102C33.2783 17.2102 33.3478 17.1557 33.4452 17.0467C33.5718 16.9131 33.7116 16.7927 33.8626 16.6876C34.0718 16.54 34.2984 16.4189 34.5372 16.3271C34.8401 16.2119 35.1622 16.1564 35.486 16.1636C36.1352 16.1636 36.6453 16.3355 37.0162 16.6792C37.3872 17.023 37.5727 17.5959 37.5727 18.398L37.5713 22.2534Z" fill="#181818"/>
<path d="M35.9453 1.34131L50.3365 3.22637L46.9241 15.2257L35.9453 1.34131Z" fill="#D63063"/>
<path d="M50.8499 3.28955L61.5435 17.5736L49.2 23.5166L47.6698 17.2284C47.6698 17.2284 47.2719 14.9437 47.8966 13.176L50.8499 3.28955Z" fill="#D63063"/>
<path d="M61.9404 17.4548L57.959 11.8541L64.6712 10.7124L61.9404 17.4548Z" fill="#AE0F0A"/>
<path d="M65.1829 10.7124L67.6855 13.3968H64.0449L65.1829 10.7124Z" fill="#AE0F0A"/>
<path d="M51.3604 23.11L61.542 18.0249L61.2012 19.2253L51.3604 23.11Z" fill="#D4311F"/>
<path d="M46.9238 16.4819L42.6572 30.8805L49.1413 25.7382L46.9238 16.4819Z" fill="#9C1006"/>
<path d="M41.5194 9.05496L37.3668 3.74072L35.7754 3.79802L41.5194 9.05496Z" fill="#AE0F0A"/>
<path d="M47.5742 16.4316C47.6104 16.9123 47.6646 17.2254 47.6646 17.2254L49.1949 23.5136L61.5384 17.5705L61.4243 17.4196L47.5742 16.4316Z" fill="#C00D0D"/>
<path d="M75.7857 -10.2705H-7.02539V42.4932H75.7857V-10.2705Z" stroke="#181818"/>
</g>
<defs>
<clipPath id="clip0_529_982">
<rect width="69" height="32" fill="white"/>
</clipPath>
</defs>
</svg>
