<svg width="184" height="184" viewBox="0 0 184 184" fill="none" xmlns="http://www.w3.org/2000/svg">
<path d="M1 25.6C1 21.1031 1.00078 17.7905 1.21467 15.1727C1.4276 12.5665 1.84676 10.737 2.6349 9.19014C4.073 6.36771 6.36771 4.073 9.19014 2.6349C10.737 1.84676 12.5665 1.4276 15.1727 1.21467C17.7905 1.00078 21.1031 1 25.6 1H158.4C162.897 1 166.209 1.00078 168.827 1.21467C171.434 1.4276 173.263 1.84676 174.81 2.6349C177.632 4.073 179.927 6.36771 181.365 9.19014C182.153 10.737 182.572 12.5665 182.785 15.1727C182.999 17.7905 183 21.1031 183 25.6V158.4C183 162.897 182.999 166.209 182.785 168.827C182.572 171.434 182.153 173.263 181.365 174.81C179.927 177.632 177.632 179.927 174.81 181.365C173.263 182.153 171.434 182.572 168.827 182.785C166.209 182.999 162.897 183 158.4 183H25.6C21.1031 183 17.7905 182.999 15.1727 182.785C12.5665 182.572 10.737 182.153 9.19014 181.365C6.36771 179.927 4.073 177.632 2.6349 174.81C1.84676 173.263 1.4276 171.434 1.21467 168.827C1.00078 166.209 1 162.897 1 158.4V25.6Z" stroke="#4FBB8A" strokeWidth="2"/>
</svg>
