<svg width="377" height="312" viewBox="0 0 377 312" fill="none" xmlns="http://www.w3.org/2000/svg">
<path d="M0.5 25.6C0.5 21.1113 0.500389 17.7749 0.716326 15.1319C0.931787 12.4948 1.35935 10.5922 2.1894 8.96315C3.67544 6.04664 6.04664 3.67544 8.96315 2.1894C10.5922 1.35935 12.4948 0.931787 15.1319 0.716326C17.7749 0.500389 21.1113 0.5 25.6 0.5H351.4C355.889 0.5 359.225 0.500389 361.868 0.716326C364.505 0.931787 366.408 1.35935 368.037 2.1894C370.953 3.67544 373.325 6.04664 374.811 8.96315C375.641 10.5922 376.068 12.4948 376.284 15.1319C376.5 17.7749 376.5 21.1113 376.5 25.6V286.4C376.5 290.889 376.5 294.225 376.284 296.868C376.068 299.505 375.641 301.408 374.811 303.037C373.325 305.953 370.953 308.325 368.037 309.811C366.408 310.641 364.505 311.068 361.868 311.284C359.225 311.5 355.889 311.5 351.4 311.5H25.6C21.1113 311.5 17.7749 311.5 15.1319 311.284C12.4948 311.068 10.5922 310.641 8.96315 309.811C6.04664 308.325 3.67544 305.953 2.1894 303.037C1.35935 301.408 0.931787 299.505 0.716326 296.868C0.500389 294.225 0.5 290.889 0.5 286.4V25.6Z" fill="#4FBB8A" stroke="#4FBB8A"/>
</svg>
