<svg width="434" height="522" viewBox="0 0 434 522" fill="none" xmlns="http://www.w3.org/2000/svg">
<path d="M220 238.6C220 234.103 220.001 230.791 220.215 228.173C220.428 225.566 220.847 223.737 221.635 222.19C223.073 219.368 225.368 217.073 228.19 215.635C229.737 214.847 231.566 214.428 234.173 214.215C236.791 214.001 240.103 214 244.6 214H408.4C412.897 214 416.209 214.001 418.827 214.215C421.434 214.428 423.263 214.847 424.81 215.635C427.632 217.073 429.927 219.368 431.365 222.19C432.153 223.737 432.572 225.566 432.785 228.173C432.999 230.791 433 234.103 433 238.6V402.4C433 406.897 432.999 410.209 432.785 412.827C432.572 415.434 432.153 417.263 431.365 418.81C429.927 421.632 427.632 423.927 424.81 425.365C423.263 426.153 421.434 426.572 418.827 426.785C416.209 426.999 412.897 427 408.4 427H244.6C240.103 427 236.791 426.999 234.173 426.785C231.566 426.572 229.737 426.153 228.19 425.365C225.368 423.927 223.073 421.632 221.635 418.81C220.847 417.263 220.428 415.434 220.215 412.827C220.001 410.209 220 406.897 220 402.4V238.6Z" stroke="#1A6241" strokeWidth="2"/>
<path d="M35 94.6C35 90.1031 35.0008 86.7905 35.2147 84.1727C35.4276 81.5665 35.8468 79.737 36.6349 78.1901C38.073 75.3677 40.3677 73.073 43.1901 71.6349C44.737 70.8468 46.5665 70.4276 49.1727 70.2147C51.7905 70.0008 55.1031 70 59.6 70H222.4C226.897 70 230.209 70.0008 232.827 70.2147C235.434 70.4276 237.263 70.8468 238.81 71.6349C241.632 73.073 243.927 75.3677 245.365 78.1901C246.153 79.737 246.572 81.5665 246.785 84.1727C246.999 86.7905 247 90.1031 247 94.6V257.4C247 261.897 246.999 265.209 246.785 267.827C246.572 270.434 246.153 272.263 245.365 273.81C243.927 276.632 241.632 278.927 238.81 280.365C237.263 281.153 235.434 281.572 232.827 281.785C230.209 281.999 226.897 282 222.4 282H59.6C55.1031 282 51.7905 281.999 49.1727 281.785C46.5665 281.572 44.737 281.153 43.1901 280.365C40.3677 278.927 38.073 276.632 36.6349 273.81C35.8468 272.263 35.4276 270.434 35.2147 267.827C35.0008 265.209 35 261.897 35 257.4V94.6Z" stroke="#1A6241" strokeWidth="2"/>
<path d="M116.869 138.948L112.495 134.313C112.495 134.313 100.29 123.899 92.5403 120.268C89.306 118.743 84.5664 119.566 88.2279 124.16C89.471 125.767 90.4399 127.563 91.096 129.477C87.4222 128.053 83.9274 126.215 80.6811 124C78.0164 121.993 74.3955 114.429 71.8935 115.974C67.9472 118.281 71.8935 125.685 71.8935 125.685C71.8935 125.685 70.4696 116.516 66.503 119.826C62.5364 123.137 71.6494 141.536 76.267 146.07C80.8845 150.605 106.21 157.126 106.21 157.126L116.869 138.948Z" fill="#B98561"/>
<path opacity="0.5" d="M85.9901 133.029C86.1281 133.03 86.2619 132.982 86.3666 132.894C86.4714 132.805 86.54 132.682 86.5597 132.547C86.5742 132.475 86.5735 132.4 86.5575 132.327C86.5415 132.255 86.5107 132.187 86.4668 132.126C86.423 132.066 86.3671 132.016 86.3026 131.978C86.2381 131.94 86.1663 131.915 86.0918 131.905C80.5386 131.023 75.5142 125.886 75.4735 125.746C75.363 125.66 75.225 125.615 75.0843 125.621C74.9436 125.626 74.8096 125.681 74.7064 125.776C74.6033 125.87 74.5378 125.998 74.5217 126.136C74.5057 126.274 74.5403 126.413 74.6191 126.528C74.8429 126.749 79.969 132.086 85.9087 133.029H85.9901Z" fill="#181818"/>
<path opacity="0.5" d="M79.0935 136.741C79.1807 136.76 79.2708 136.76 79.358 136.741L91.0341 130.722C91.1009 130.686 91.1599 130.638 91.2078 130.58C91.2557 130.522 91.2915 130.455 91.3132 130.383C91.335 130.312 91.3421 130.236 91.3344 130.162C91.3266 130.087 91.3041 130.015 91.268 129.949C91.2319 129.883 91.1831 129.825 91.1242 129.778C91.0653 129.731 90.9976 129.695 90.9249 129.674C90.8522 129.653 90.7759 129.645 90.7004 129.653C90.6249 129.661 90.5516 129.683 90.4848 129.719L79.1546 135.597L74.3336 131.585C74.2239 131.482 74.0782 131.424 73.9267 131.424C73.7753 131.424 73.6296 131.482 73.5199 131.585C73.4154 131.693 73.3572 131.836 73.3572 131.986C73.3572 132.135 73.4154 132.279 73.5199 132.387L78.6257 136.681C78.6948 136.723 78.7723 136.751 78.853 136.761C78.9337 136.771 79.0157 136.765 79.0935 136.741Z" fill="#181818"/>
<path opacity="0.5" d="M100.738 137.805C100.859 137.807 100.977 137.771 101.075 137.702C101.174 137.634 101.248 137.536 101.287 137.423C101.335 137.285 101.328 137.133 101.268 136.999C101.207 136.865 101.098 136.759 100.962 136.701C97.1776 135.205 93.8295 132.806 91.2179 129.719C91.1782 129.643 91.122 129.576 91.0534 129.524C90.9847 129.472 90.9052 129.435 90.8205 129.417C90.7359 129.399 90.6482 129.399 90.5637 129.418C90.4791 129.436 90.3998 129.473 90.3314 129.526C90.263 129.578 90.2072 129.645 90.1678 129.721C90.1285 129.797 90.1067 129.881 90.104 129.967C90.1012 130.052 90.1176 130.137 90.1519 130.216C90.1862 130.294 90.2377 130.364 90.3026 130.421C93.022 133.664 96.5175 136.188 100.473 137.764L100.738 137.805Z" fill="#181818"/>
<path d="M161.926 461.622V482.448L127.203 480.984V461.622H161.926Z" fill="#B98561"/>
<path d="M247.807 459.414V478.917L213.369 477.532V459.414H247.807Z" fill="#B98561"/>
<path d="M173.012 244.667C173.012 244.667 146.181 287.083 130.294 355.02C121.649 391.459 116.171 428.558 113.919 465.915L175.412 468.163C175.412 468.163 182.389 417.681 184.261 397.697C186.081 381.989 188.763 366.389 192.296 350.967C192.296 350.967 199.374 466.216 201.429 468.163C203.483 470.109 262.454 467.761 263.166 465.113C264.468 459.956 250.839 276.91 247.828 264.47C236.498 218.202 173.012 244.667 173.012 244.667Z" fill="#C1DB9B"/>
<path d="M204.826 511.12C204.826 514.571 205.985 518.504 208.386 519.487C210.786 520.47 230.212 522.537 247.198 521.092C263.471 519.687 263.247 520.269 264.447 518.805C265.017 518.062 267.478 512.785 266.156 509.535C266.156 509.374 266.034 509.174 265.932 509.013C265.281 507.328 264.569 505.703 264.081 504.559C263.567 503.447 262.947 502.385 262.23 501.389C259.85 498.304 257.805 494.982 256.128 491.477C254.968 488.066 253.178 480.703 252.059 477.231C251.144 474.643 240.485 470.59 235.359 468.764C233.576 468.122 231.651 467.963 229.785 468.303C224.598 469.246 213.898 471.333 212.088 472.817C209.708 474.824 208.508 491.016 208.508 493.463V495.911C207.957 499.492 207.086 503.017 205.904 506.445C205.619 507.388 205.395 508.271 205.233 509.053C205.021 509.726 204.885 510.419 204.826 511.12Z" fill="#1A6241"/>
<path opacity="0.5" d="M192.275 350.225C192.356 350.225 192.436 350.209 192.51 350.177C192.585 350.146 192.652 350.099 192.707 350.041C192.762 349.982 192.805 349.913 192.832 349.838C192.859 349.763 192.87 349.683 192.865 349.603C192.865 349.362 190.83 324.824 190.322 313.949C189.813 303.074 189.732 297.898 189.732 297.898C189.73 297.787 189.697 297.68 189.636 297.587C189.575 297.495 189.488 297.422 189.386 297.376L169.045 288.447C168.904 288.385 168.744 288.38 168.6 288.433C168.456 288.485 168.338 288.591 168.272 288.728C168.209 288.872 168.206 289.034 168.263 289.18C168.32 289.327 168.433 289.445 168.577 289.511L188.552 298.319C188.552 299.703 188.674 304.86 189.142 314.109C189.712 325.004 191.664 349.543 191.685 349.804C191.721 349.929 191.799 350.039 191.906 350.115C192.013 350.191 192.143 350.23 192.275 350.225Z" fill="#181818"/>
<path opacity="0.5" d="M243.434 283.973C243.561 283.976 243.687 283.938 243.79 283.866C243.894 283.793 243.972 283.689 244.011 283.569C244.05 283.449 244.048 283.32 244.007 283.201C243.965 283.082 243.885 282.98 243.78 282.909C237.488 278.589 232.829 272.329 230.537 265.112C230.499 264.964 230.403 264.836 230.269 264.757C230.136 264.678 229.976 264.655 229.825 264.691C229.749 264.707 229.678 264.739 229.614 264.783C229.551 264.828 229.498 264.885 229.458 264.951C229.418 265.017 229.392 265.09 229.382 265.166C229.371 265.242 229.377 265.319 229.398 265.393C231.712 272.908 236.546 279.424 243.108 283.872C243.205 283.936 243.318 283.971 243.434 283.973Z" fill="#181818"/>
<path d="M72.3814 518.083C71.9769 518.019 71.6147 517.799 71.3744 517.471C71.1341 517.144 71.0354 516.736 71.0999 516.337C71.7305 512.324 73.968 500.908 80.3756 495.992C88.2479 489.973 104.908 487.284 110.888 483.231C116.869 479.178 123.52 469.567 127.161 471.193C130.803 472.818 137.8 481.064 147.666 479.7C157.532 478.335 162.027 475.888 164.732 478.215C167.438 480.542 169.574 513.528 168.475 515.514C167.377 517.501 153.423 515.936 152.202 516.277C150.982 516.618 147.442 508.813 145.184 510.037C142.926 511.261 140.2 514.993 136.885 516.758C133.569 518.524 82.3691 519.206 72.3814 518.083Z" fill="#1A6241"/>
<path d="M207.308 148.017C245.448 147.475 247.991 165.392 247.991 165.392V197.776L252.364 208.671L250.818 255.14L162.169 253.133L165.953 208.029C165.953 208.029 165.017 148.599 207.308 148.017Z" fill="#4D876E"/>
<path d="M199.903 157.628C198.996 159.674 198.419 161.847 198.194 164.069C198.82 165.717 199.743 167.24 200.92 168.563C200.92 168.563 196.16 179.358 195.306 185.256C194.451 191.155 195 212.885 196.913 213.126C197.706 213.226 206.29 188.527 206.555 186.199C206.982 182.648 204.52 168.362 204.52 168.362C205.735 167.402 206.865 166.342 207.897 165.192C208.528 164.249 208.039 157.588 208.039 157.588C208.039 157.588 203.686 154.679 199.903 157.628Z" fill="#FFB357"/>
<path d="M118.638 134.073L90.16 156.926C90.16 156.926 100.066 180.902 118.069 194.285C136.946 208.33 164.061 205.521 164.061 205.521L161.315 266.216L168.821 253.375C168.821 253.375 181.352 203.916 188.227 182.187C192.086 170.644 195.278 158.894 197.788 146.994C188.907 146.896 180.061 148.114 171.547 150.605C163.085 152.833 140.953 158.631 118.638 134.073Z" fill="#1A6241"/>
<path d="M218.353 147.836C218.353 147.836 205.456 266.556 206.433 267.62C207.409 268.683 229.155 270.007 238.451 268.904C243.701 268.378 248.831 267.023 253.646 264.891C254.175 264.61 254.195 210.718 254.195 210.718L237.515 153.233C226.083 147.836 218.353 147.836 218.353 147.836Z" fill="#1A6241"/>
<path d="M147.361 165.574C147.679 165.575 147.994 165.509 148.285 165.381C148.576 165.253 148.837 165.066 149.049 164.832C151.47 162.263 149.822 153.214 149.639 152.191C149.615 152.069 149.553 151.957 149.462 151.871C149.371 151.784 149.255 151.728 149.13 151.71C149.007 151.693 148.882 151.715 148.773 151.773C148.663 151.83 148.575 151.92 148.52 152.031C148.012 152.994 143.699 161.441 145.347 164.43C145.505 164.75 145.747 165.023 146.047 165.22C146.347 165.418 146.695 165.533 147.056 165.554L147.361 165.574ZM148.744 154.258C149.191 157.508 149.558 162.544 148.174 164.029C148.054 164.162 147.901 164.263 147.73 164.323C147.56 164.382 147.377 164.399 147.198 164.37C147.032 164.365 146.871 164.316 146.731 164.228C146.591 164.139 146.478 164.015 146.405 163.868C145.611 162.303 147.157 157.689 148.744 154.258Z" fill="#181818"/>
<path d="M218.415 140.674L218.313 152.472C214.847 154.629 210.889 155.897 206.799 156.163C199.009 156.163 196.629 151.448 196.629 151.448L197.849 136.4L218.415 140.674Z" fill="#B98561"/>
<path d="M196.832 148.418C197.251 150.394 198.408 152.141 200.074 153.313C201.741 154.484 203.793 154.993 205.823 154.738C210.546 154.427 215.006 152.48 218.415 149.241C218.415 149.241 218.252 164.991 216.38 165.393C214.346 165.874 203.362 157.588 203.362 157.588L193.089 161.821C192.965 161.872 192.829 161.886 192.697 161.862C192.565 161.837 192.443 161.776 192.346 161.684C192.249 161.593 192.181 161.476 192.151 161.347C192.12 161.218 192.128 161.083 192.174 160.958L196.832 148.418Z" fill="white"/>
<path opacity="0.5" d="M218.415 140.352C218.415 140.352 212.841 151.709 204.013 150.244C196.893 149.08 197.91 137.383 197.91 137.383L218.415 140.352Z" fill="#181818"/>
<path d="M194.248 109.534C194.248 109.534 189.976 129.599 196.445 139.39C202.914 149.181 211.6 146.453 215.526 143.583C218.681 141.272 220.953 137.977 221.974 134.233C221.974 134.233 229.134 135.758 231.616 130.04C234.24 124.021 229.846 119.045 226.266 118.704C222.686 118.363 222.198 118.985 222.198 118.985L223.357 112.524C223.357 112.524 201.998 88.2461 194.248 109.534Z" fill="#B98561"/>
<path d="M197.543 119.045C197.543 119.045 186.742 114.29 185.765 122.576C184.626 132.187 196.282 132.468 196.282 132.468L197.543 119.045Z" fill="#B98561"/>
<path opacity="0.5" d="M191.99 127.552C192.083 127.581 192.182 127.581 192.275 127.552C192.342 127.519 192.402 127.472 192.45 127.415C192.499 127.357 192.534 127.291 192.555 127.219C192.576 127.148 192.582 127.073 192.572 126.999C192.563 126.925 192.538 126.854 192.499 126.79L188.98 120.59C188.944 120.523 188.894 120.464 188.834 120.416C188.774 120.368 188.705 120.333 188.631 120.312C188.557 120.291 188.479 120.286 188.403 120.296C188.326 120.306 188.253 120.331 188.186 120.369C188.056 120.448 187.962 120.573 187.92 120.718C187.879 120.862 187.894 121.017 187.962 121.152L191.502 127.332C191.556 127.408 191.63 127.469 191.715 127.508C191.801 127.546 191.896 127.562 191.99 127.552Z" fill="#181818"/>
<path opacity="0.5" d="M223.276 128.274C223.409 128.277 223.538 128.235 223.642 128.154L229.277 123.559C229.373 123.455 229.428 123.32 229.431 123.179C229.433 123.038 229.384 122.901 229.292 122.793C229.2 122.685 229.072 122.614 228.93 122.592C228.789 122.571 228.645 122.601 228.524 122.676L222.91 127.271C222.856 127.323 222.813 127.386 222.783 127.455C222.754 127.524 222.739 127.598 222.739 127.672C222.739 127.747 222.754 127.821 222.783 127.89C222.813 127.959 222.856 128.021 222.91 128.074C222.953 128.131 223.008 128.178 223.071 128.213C223.134 128.247 223.204 128.268 223.276 128.274Z" fill="#181818"/>
<path opacity="0.5" d="M228.382 129.218C228.467 129.221 228.552 129.204 228.629 129.17C228.707 129.135 228.775 129.082 228.829 129.017C228.883 128.965 228.926 128.902 228.956 128.833C228.985 128.765 229 128.691 229 128.616C229 128.541 228.985 128.467 228.956 128.398C228.926 128.329 228.883 128.267 228.829 128.214L225.615 125.727C225.493 125.664 225.352 125.646 225.218 125.676C225.083 125.705 224.964 125.779 224.879 125.887C224.795 125.994 224.751 126.127 224.755 126.262C224.76 126.398 224.812 126.528 224.903 126.629L228.137 129.097C228.204 129.162 228.289 129.204 228.382 129.218Z" fill="#181818"/>
<path opacity="0.5" d="M187.8 125.646H190.912C191.047 125.621 191.169 125.55 191.257 125.445C191.345 125.341 191.393 125.209 191.393 125.074C191.393 124.938 191.345 124.807 191.257 124.702C191.169 124.598 191.047 124.527 190.912 124.502H187.8C187.665 124.527 187.543 124.598 187.455 124.702C187.367 124.807 187.319 124.938 187.319 125.074C187.319 125.209 187.367 125.341 187.455 125.445C187.543 125.55 187.665 125.621 187.8 125.646Z" fill="#181818"/>
<path d="M211.579 123.057C211.721 123.063 211.86 123.014 211.967 122.92C212.073 122.826 212.138 122.696 212.149 122.556L212.535 119.105C212.547 118.954 212.502 118.805 212.408 118.686C212.314 118.567 212.178 118.487 212.027 118.463C211.873 118.451 211.722 118.5 211.604 118.597C211.486 118.694 211.411 118.833 211.396 118.984L211.01 122.435C211.002 122.582 211.05 122.727 211.144 122.841C211.238 122.956 211.371 123.033 211.518 123.057H211.579Z" fill="#181818"/>
<path d="M198.499 122.255C198.644 122.255 198.783 122.201 198.888 122.105C198.994 122.008 199.059 121.875 199.069 121.733L199.455 118.282C199.467 118.134 199.421 117.987 199.327 117.871C199.232 117.756 199.096 117.68 198.947 117.66C198.872 117.649 198.795 117.653 198.721 117.673C198.648 117.692 198.579 117.727 198.52 117.774C198.46 117.821 198.412 117.88 198.377 117.947C198.342 118.013 198.321 118.087 198.316 118.162L197.93 121.613C197.921 121.686 197.928 121.761 197.949 121.833C197.97 121.904 198.005 121.97 198.052 122.028C198.1 122.086 198.158 122.134 198.224 122.17C198.291 122.205 198.363 122.227 198.438 122.235L198.499 122.255Z" fill="#181818"/>
<path d="M203.89 131.043C204.022 131.04 204.149 130.998 204.256 130.922C204.359 130.817 204.417 130.677 204.417 130.531C204.417 130.385 204.359 130.245 204.256 130.14C201.205 126.247 205.375 121.191 205.416 121.151C205.52 121.043 205.578 120.899 205.578 120.75C205.578 120.6 205.52 120.457 205.416 120.348C205.364 120.296 205.303 120.254 205.235 120.225C205.166 120.196 205.093 120.181 205.019 120.181C204.945 120.181 204.871 120.196 204.803 120.225C204.735 120.254 204.674 120.296 204.622 120.348C204.622 120.348 199.801 126.147 203.422 130.742C203.467 130.827 203.534 130.9 203.616 130.953C203.698 131.005 203.792 131.036 203.89 131.043Z" fill="#181818"/>
<path d="M197.523 115.413C197.61 115.433 197.7 115.433 197.787 115.413C198.899 114.996 200.113 114.925 201.266 115.212C201.339 115.233 201.417 115.238 201.492 115.228C201.568 115.218 201.641 115.192 201.706 115.152C201.771 115.113 201.827 115.06 201.871 114.998C201.914 114.935 201.943 114.865 201.957 114.791C201.995 114.647 201.973 114.495 201.896 114.367C201.82 114.239 201.696 114.146 201.551 114.108C200.125 113.755 198.624 113.854 197.258 114.389C197.149 114.452 197.063 114.549 197.013 114.664C196.964 114.779 196.953 114.906 196.982 115.028C197.012 115.15 197.081 115.259 197.178 115.339C197.275 115.419 197.396 115.466 197.523 115.473V115.413Z" fill="#181818"/>
<path d="M214.447 117.038C214.598 117.033 214.741 116.976 214.854 116.878C214.908 116.826 214.951 116.763 214.981 116.694C215.01 116.625 215.025 116.551 215.025 116.477C215.025 116.402 215.01 116.328 214.981 116.259C214.951 116.19 214.908 116.128 214.854 116.075C213.71 115.123 212.281 114.566 210.786 114.49C210.635 114.49 210.49 114.549 210.383 114.655C210.276 114.76 210.216 114.903 210.216 115.052C210.216 115.201 210.276 115.344 210.383 115.449C210.49 115.555 210.635 115.614 210.786 115.614C211.976 115.697 213.112 116.138 214.041 116.878C214.151 116.979 214.296 117.036 214.447 117.038Z" fill="#181818"/>
<path d="M198.174 97.5356C195.262 100.277 193.154 103.743 192.072 107.568C191.379 110.917 191.379 114.371 192.072 117.72H193.211C193.211 117.72 195.896 104.378 200.27 103.154C204.643 101.93 198.174 97.5356 198.174 97.5356Z" fill="#181818"/>
<path d="M223.275 494.186H241.095C241.231 494.185 241.363 494.139 241.47 494.055C241.577 493.972 241.653 493.855 241.685 493.724C241.706 493.59 241.681 493.452 241.615 493.332C241.549 493.213 241.445 493.118 241.318 493.062L225.249 486.541L229.073 485.337C234.158 483.712 242.152 487.103 242.234 487.123C242.304 487.156 242.381 487.174 242.459 487.177C242.536 487.179 242.614 487.166 242.686 487.138C242.759 487.11 242.825 487.067 242.88 487.013C242.935 486.958 242.978 486.894 243.007 486.822C243.068 486.681 243.071 486.522 243.013 486.379C242.956 486.236 242.844 486.121 242.702 486.06C242.356 485.919 234.219 482.468 228.727 484.234L223.357 485.919C223.245 485.963 223.147 486.038 223.076 486.133C223.004 486.229 222.96 486.342 222.95 486.461C222.951 486.579 222.985 486.695 223.05 486.794C223.115 486.894 223.207 486.973 223.316 487.023L238.125 493.042H223.275C223.119 493.042 222.969 493.103 222.858 493.213C222.748 493.322 222.686 493.47 222.686 493.624C222.686 493.778 222.748 493.926 222.858 494.035C222.969 494.145 223.119 494.206 223.275 494.206V494.186Z" fill="#FFB357"/>
<path d="M112.617 492.28C112.735 492.284 112.851 492.251 112.95 492.186C113.048 492.121 113.124 492.028 113.166 491.919C113.215 491.796 113.221 491.661 113.185 491.534C113.148 491.407 113.07 491.296 112.963 491.217L107.023 487.043L123.642 489.531C123.782 489.556 123.926 489.529 124.046 489.455C124.167 489.381 124.255 489.265 124.293 489.13C124.337 488.996 124.33 488.852 124.274 488.723C124.218 488.593 124.116 488.489 123.988 488.428L111.152 482.709C111.017 482.672 110.873 482.683 110.746 482.741C110.618 482.799 110.516 482.9 110.457 483.026C110.398 483.151 110.387 483.294 110.425 483.427C110.463 483.56 110.548 483.676 110.664 483.753L119.594 487.766L104.765 485.538C104.636 485.522 104.505 485.549 104.392 485.614C104.28 485.679 104.193 485.779 104.144 485.898C104.095 486.017 104.088 486.149 104.123 486.272C104.158 486.396 104.233 486.505 104.338 486.582L110.155 490.695L97.2996 488.408C97.2234 488.393 97.1451 488.394 97.0692 488.409C96.9932 488.424 96.9211 488.454 96.8569 488.497C96.7926 488.54 96.7376 488.595 96.6949 488.659C96.6522 488.723 96.6226 488.794 96.608 488.869C96.5933 488.944 96.5937 489.021 96.6093 489.096C96.6248 489.171 96.6552 489.242 96.6986 489.306C96.7421 489.369 96.7978 489.423 96.8625 489.466C96.9272 489.508 96.9997 489.537 97.0758 489.551L112.515 492.3L112.617 492.28Z" fill="#FFB357"/>
<path d="M227.628 119.045C227.628 119.045 233.181 106.284 228.91 100.786C223.926 94.4061 199.129 88.7479 196.587 91.898C193.149 96.2319 195.997 107.608 195.997 107.608C195.997 107.608 197.482 105.381 206.432 106.665C215.382 107.949 216.277 112.685 216.277 112.685C215.983 114.819 216.292 116.993 217.172 118.965C217.871 120.216 219.028 121.156 220.407 121.593V124.964L223.275 118.563L227.628 119.045Z" fill="#181818"/>
<path d="M207.775 137.804C209.809 137.804 211.193 134.694 211.355 134.313C211.407 134.217 211.428 134.107 211.415 133.999C211.402 133.89 211.357 133.788 211.284 133.706C211.212 133.623 211.115 133.564 211.008 133.537C210.901 133.509 210.788 133.514 210.684 133.551L204.927 135.116C204.845 135.136 204.768 135.176 204.704 135.232C204.641 135.288 204.592 135.358 204.561 135.437C204.52 135.511 204.499 135.593 204.499 135.678C204.499 135.762 204.52 135.845 204.561 135.918C204.87 136.409 205.283 136.827 205.771 137.146C206.259 137.464 206.811 137.675 207.389 137.764L207.775 137.804ZM209.809 134.995C209.24 135.898 208.426 136.801 207.775 136.661C207.222 136.565 206.704 136.33 206.27 135.979L209.809 134.995Z" fill="#181818"/>
<path d="M144.553 218.122L113.898 240.193L143.129 287.263L178.219 268.463L144.553 218.122Z" fill="#1A6241"/>
<path d="M139.406 222.014L106.29 241.697L139.284 292.159L173.56 272.336L139.406 222.014Z" fill="#4D876E"/>
<path d="M181.678 233.572C181.678 233.572 154.4 234.956 148.562 239.17C142.723 243.383 153.444 263.247 156.393 266.618C159.343 269.988 184.587 257.428 184.587 257.428L189.509 244.547L181.678 233.572Z" fill="#B98561"/>
<path d="M148.56 239.169C148.56 239.169 135.562 253.695 136.661 260.417C137.759 267.139 153.544 248.519 153.544 248.519L148.56 239.169Z" fill="#B98561"/>
<path d="M165.77 263.226C165.77 263.226 179.847 262.845 176.551 267.5C173.256 272.154 158.528 269.626 156.393 266.617C154.257 263.607 162.841 256.966 162.841 256.966L165.77 263.226Z" fill="#B98561"/>
<path opacity="0.5" d="M167.438 264.932H167.58L171.648 263.869C171.747 263.845 171.838 263.796 171.909 263.725C171.981 263.654 172.032 263.565 172.055 263.467C172.081 263.368 172.079 263.263 172.051 263.165C172.022 263.066 171.967 262.977 171.892 262.905L168.984 260.237C168.929 260.186 168.864 260.145 168.794 260.119C168.723 260.092 168.648 260.079 168.573 260.081C168.497 260.083 168.423 260.099 168.354 260.129C168.284 260.16 168.222 260.203 168.17 260.257C168.118 260.311 168.077 260.375 168.05 260.444C168.023 260.514 168.01 260.588 168.012 260.662C168.014 260.737 168.03 260.81 168.061 260.879C168.092 260.947 168.136 261.008 168.19 261.06L170.347 263.066L167.194 263.869C167.061 263.904 166.947 263.986 166.87 264.099C166.794 264.211 166.762 264.347 166.779 264.481C166.797 264.616 166.862 264.739 166.965 264.829C167.067 264.919 167.199 264.97 167.336 264.972L167.438 264.932Z" fill="#181818"/>
<path opacity="0.5" d="M148.662 253.114C148.766 253.112 148.868 253.084 148.957 253.031C149.047 252.978 149.12 252.903 149.171 252.813C150.329 250.414 151.799 248.175 153.544 246.152C153.669 246.063 153.755 245.931 153.785 245.782C153.815 245.633 153.787 245.478 153.707 245.349C153.664 245.288 153.61 245.237 153.547 245.197C153.484 245.157 153.413 245.13 153.34 245.117C153.266 245.103 153.19 245.105 153.117 245.121C153.044 245.136 152.975 245.166 152.913 245.208C151.408 246.192 148.479 251.689 148.133 252.311C148.072 252.446 148.063 252.598 148.108 252.738C148.153 252.879 148.249 252.998 148.377 253.074C148.468 253.106 148.565 253.12 148.662 253.114Z" fill="#181818"/>
<path opacity="0.5" d="M152.12 260.197C152.217 260.193 152.311 260.168 152.395 260.122C152.48 260.077 152.553 260.013 152.609 259.936L158.487 251.108C158.529 251.046 158.557 250.976 158.572 250.904C158.586 250.831 158.585 250.756 158.57 250.683C158.555 250.611 158.526 250.542 158.484 250.48C158.441 250.419 158.387 250.366 158.325 250.325C158.262 250.284 158.192 250.256 158.118 250.242C158.044 250.228 157.968 250.229 157.894 250.243C157.821 250.258 157.751 250.287 157.688 250.329C157.626 250.371 157.573 250.424 157.531 250.486L151.653 259.314C151.611 259.376 151.582 259.445 151.567 259.518C151.553 259.591 151.553 259.666 151.568 259.739C151.584 259.812 151.613 259.881 151.656 259.942C151.698 260.003 151.752 260.056 151.815 260.097C151.905 260.159 152.011 260.194 152.12 260.197Z" fill="#181818"/>
<path d="M237.515 153.154C237.515 153.154 275.696 164.19 272.848 217.139C270.041 268.905 184.098 267.079 184.098 267.079L172.361 230.963L220.875 207.027L237.515 153.154Z" fill="#1A6241"/>
<path d="M213.369 210.718H213.532C214 210.597 224.801 207.568 226.632 203.675C226.813 203.31 226.908 202.908 226.908 202.502C226.908 202.095 226.813 201.693 226.632 201.328C226.505 200.973 226.279 200.661 225.98 200.427C225.682 200.193 225.323 200.046 224.944 200.004C221.262 199.542 213.715 208.651 212.881 209.695C212.806 209.797 212.766 209.92 212.766 210.046C212.766 210.172 212.806 210.294 212.881 210.397C212.93 210.485 213 210.561 213.085 210.617C213.17 210.673 213.268 210.707 213.369 210.718ZM224.659 201.227H224.822C224.988 201.252 225.144 201.321 225.273 201.427C225.403 201.533 225.5 201.672 225.554 201.829C225.659 202.035 225.714 202.261 225.714 202.491C225.714 202.722 225.659 202.948 225.554 203.154C224.455 205.501 218.76 207.788 215.159 208.972C218.19 205.461 222.584 201.227 224.659 201.227Z" fill="#181818"/>
<path opacity="0.5" d="M7 520L53.8729 519.04L100.746 518.68L194.5 518L288.254 518.68L335.127 519L382 520L335.127 520.96L288.254 521.32L194.5 522L100.746 521.32L53.8729 520.96L7 520Z" fill="#8C8C8C"/>
<path d="M38.85 100.91C60.3063 100.91 77.7 83.5162 77.7 62.06C77.7 40.6037 60.3063 23.21 38.85 23.21C17.3937 23.21 0 40.6037 0 62.06C0 83.5162 17.3937 100.91 38.85 100.91Z" fill="#FFB357"/>
<path d="M38.8499 91.7099C55.2252 91.7099 68.5 78.4352 68.5 62.0599C68.5 45.6847 55.2252 32.4099 38.8499 32.4099C22.4747 32.4099 9.19995 45.6847 9.19995 62.0599C9.19995 78.4352 22.4747 91.7099 38.8499 91.7099Z" fill="white"/>
<path d="M59.4787 66.9877C62.1928 55.6038 55.1646 44.1752 43.7808 41.4611C32.3969 38.7469 20.9683 45.7751 18.2542 57.159C15.5401 68.5428 22.5683 79.9715 33.9521 82.6856C45.3359 85.3997 56.7646 78.3715 59.4787 66.9877Z" fill="#FFB357"/>
<path d="M50.2786 64.6849C51.7258 58.3759 47.7847 52.0883 41.4758 50.6411C35.1669 49.1938 28.8793 53.135 27.432 59.4439C25.9848 65.7528 29.9259 72.0404 36.2348 73.4877C42.5437 74.9349 48.8313 70.9938 50.2786 64.6849Z" fill="white"/>
<path d="M44.15 62.06C44.15 63.1083 43.8392 64.133 43.2568 65.0045C42.6745 65.8761 41.8467 66.5554 40.8783 66.9566C39.9098 67.3577 38.8442 67.4627 37.8161 67.2582C36.788 67.0537 35.8436 66.5489 35.1024 65.8077C34.3612 65.0665 33.8564 64.1221 33.6519 63.094C33.4474 62.0659 33.5523 61.0002 33.9535 60.0318C34.3546 59.0633 35.0339 58.2356 35.9055 57.6532C36.7771 57.0709 37.8018 56.76 38.85 56.76C39.5464 56.7587 40.2362 56.8949 40.8798 57.1608C41.5234 57.4267 42.1082 57.817 42.6007 58.3094C43.0931 58.8018 43.4834 59.3866 43.7493 60.0302C44.0152 60.6739 44.1514 61.3636 44.15 62.06Z" fill="#FFB357"/>
<path d="M91.9116 7.79859L41.707 58.0032L42.9091 59.2053L93.1137 9.00067L91.9116 7.79859Z" fill="#181818"/>
<path d="M45.4101 60.3L38.8501 62.06L40.6101 55.49L45.4101 60.3Z" fill="#181818"/>
<path d="M100.91 5.13L91.5001 14.54L84.1101 16.79L86.3701 9.41L95.7801 0L93.5301 7.38L100.91 5.13Z" fill="#181818"/>
</svg>
