<svg width="434" height="522" viewBox="0 0 434 522" fill="none" xmlns="http://www.w3.org/2000/svg">
<path d="M220 238.6C220 234.103 220.001 230.791 220.215 228.173C220.428 225.566 220.847 223.737 221.635 222.19C223.073 219.368 225.368 217.073 228.19 215.635C229.737 214.847 231.566 214.428 234.173 214.215C236.791 214.001 240.103 214 244.6 214H408.4C412.897 214 416.209 214.001 418.827 214.215C421.434 214.428 423.263 214.847 424.81 215.635C427.632 217.073 429.927 219.368 431.365 222.19C432.153 223.737 432.572 225.566 432.785 228.173C432.999 230.791 433 234.103 433 238.6V402.4C433 406.897 432.999 410.209 432.785 412.827C432.572 415.434 432.153 417.263 431.365 418.81C429.927 421.632 427.632 423.927 424.81 425.365C423.263 426.153 421.434 426.572 418.827 426.785C416.209 426.999 412.897 427 408.4 427H244.6C240.103 427 236.791 426.999 234.173 426.785C231.566 426.572 229.737 426.153 228.19 425.365C225.368 423.927 223.073 421.632 221.635 418.81C220.847 417.263 220.428 415.434 220.215 412.827C220.001 410.209 220 406.897 220 402.4V238.6Z" stroke="#4FBB8A" strokeWidth="2"/>
<path d="M35 94.6C35 90.1031 35.0008 86.7905 35.2147 84.1727C35.4276 81.5665 35.8468 79.737 36.6349 78.1901C38.073 75.3677 40.3677 73.073 43.1901 71.6349C44.737 70.8468 46.5665 70.4276 49.1727 70.2147C51.7905 70.0008 55.1031 70 59.6 70H222.4C226.897 70 230.209 70.0008 232.827 70.2147C235.434 70.4276 237.263 70.8468 238.81 71.6349C241.632 73.073 243.927 75.3677 245.365 78.1901C246.153 79.737 246.572 81.5665 246.785 84.1727C246.999 86.7905 247 90.1031 247 94.6V257.4C247 261.897 246.999 265.209 246.785 267.827C246.572 270.434 246.153 272.263 245.365 273.81C243.927 276.632 241.632 278.927 238.81 280.365C237.263 281.153 235.434 281.572 232.827 281.785C230.209 281.999 226.897 282 222.4 282H59.6C55.1031 282 51.7905 281.999 49.1727 281.785C46.5665 281.572 44.737 281.153 43.1901 280.365C40.3677 278.927 38.073 276.632 36.6349 273.81C35.8468 272.263 35.4276 270.434 35.2147 267.827C35.0008 265.209 35 261.897 35 257.4V94.6Z" stroke="#4FBB8A" strokeWidth="2"/>
<path d="M116.869 138.948L112.496 134.313C112.496 134.313 100.291 123.899 92.5404 120.268C89.306 118.743 84.5664 119.566 88.2279 124.16C89.4711 125.767 90.4399 127.563 91.0961 129.477C87.4222 128.053 83.9274 126.215 80.6812 124C78.0164 121.993 74.3956 114.429 71.8936 115.974C67.9473 118.281 71.8936 125.685 71.8936 125.685C71.8936 125.685 70.4697 116.516 66.5031 119.826C62.5364 123.137 71.6495 141.536 76.2671 146.07C80.8846 150.605 106.21 157.126 106.21 157.126L116.869 138.948Z" fill="#B98561"/>
<path opacity="0.5" d="M85.9901 133.03C86.1281 133.031 86.2619 132.983 86.3666 132.894C86.4714 132.806 86.54 132.683 86.5597 132.548C86.5742 132.475 86.5735 132.401 86.5575 132.328C86.5415 132.256 86.5107 132.187 86.4668 132.127C86.423 132.067 86.3671 132.016 86.3026 131.978C86.2381 131.94 86.1663 131.916 86.0918 131.906C80.5386 131.023 75.5142 125.887 75.4735 125.746C75.363 125.66 75.225 125.616 75.0843 125.622C74.9436 125.627 74.8096 125.682 74.7064 125.777C74.6033 125.871 74.5378 125.999 74.5217 126.137C74.5057 126.275 74.5403 126.414 74.6191 126.529C74.8429 126.75 79.969 132.087 85.9087 133.03H85.9901Z" fill="#161616"/>
<path opacity="0.5" d="M79.0935 136.741C79.1807 136.76 79.2708 136.76 79.358 136.741L91.0341 130.722C91.1009 130.687 91.1599 130.638 91.2078 130.58C91.2557 130.522 91.2915 130.455 91.3132 130.384C91.335 130.312 91.3421 130.237 91.3344 130.162C91.3266 130.088 91.3041 130.015 91.268 129.95C91.2319 129.884 91.1831 129.826 91.1242 129.778C91.0653 129.731 90.9976 129.696 90.9249 129.674C90.8522 129.653 90.7759 129.646 90.7004 129.653C90.6249 129.661 90.5516 129.683 90.4848 129.719L79.1546 135.598L74.3336 131.585C74.2239 131.482 74.0782 131.424 73.9267 131.424C73.7753 131.424 73.6296 131.482 73.5199 131.585C73.4154 131.693 73.3572 131.837 73.3572 131.986C73.3572 132.136 73.4154 132.279 73.5199 132.387L78.6257 136.681C78.6948 136.724 78.7723 136.751 78.853 136.761C78.9337 136.772 79.0157 136.765 79.0935 136.741Z" fill="#161616"/>
<path opacity="0.5" d="M100.738 137.804C100.859 137.806 100.977 137.77 101.076 137.701C101.174 137.633 101.248 137.535 101.287 137.422C101.335 137.284 101.328 137.132 101.268 136.998C101.207 136.864 101.098 136.758 100.962 136.7C97.1777 135.204 93.8295 132.805 91.218 129.718C91.1783 129.642 91.1221 129.575 91.0534 129.523C90.9847 129.471 90.9052 129.434 90.8206 129.416C90.736 129.398 90.6483 129.398 90.5637 129.417C90.4792 129.435 90.3999 129.472 90.3315 129.525C90.2631 129.577 90.2072 129.644 90.1679 129.72C90.1286 129.796 90.1068 129.88 90.104 129.966C90.1013 130.051 90.1176 130.136 90.152 130.215C90.1863 130.293 90.2377 130.363 90.3026 130.42C93.0221 133.663 96.5175 136.187 100.473 137.763L100.738 137.804Z" fill="#161616"/>
<path d="M161.926 461.621V482.448L127.202 480.983V461.621H161.926Z" fill="#B98561"/>
<path d="M247.807 459.414V478.917L213.369 477.532V459.414H247.807Z" fill="#B98561"/>
<path d="M173.012 244.666C173.012 244.666 146.181 287.082 130.294 355.02C121.649 391.458 116.171 428.558 113.919 465.915L175.412 468.162C175.412 468.162 182.389 417.681 184.26 397.697C186.081 381.988 188.763 366.389 192.295 350.967C192.295 350.967 199.374 466.216 201.429 468.162C203.483 470.108 262.454 467.761 263.166 465.112C264.468 459.956 250.839 276.91 247.828 264.47C236.498 218.202 173.012 244.666 173.012 244.666Z" fill="#FFB357"/>
<path d="M204.826 511.12C204.826 514.572 205.985 518.504 208.386 519.487C210.786 520.47 230.212 522.537 247.197 521.092C263.471 519.688 263.247 520.27 264.447 518.805C265.017 518.063 267.478 512.786 266.156 509.535C266.156 509.375 266.034 509.174 265.932 509.014C265.281 507.328 264.569 505.703 264.081 504.559C263.567 503.447 262.947 502.386 262.23 501.389C259.85 498.305 257.805 494.983 256.127 491.478C254.968 488.067 253.178 480.703 252.059 477.232C251.144 474.644 240.485 470.591 235.359 468.765C233.576 468.122 231.651 467.963 229.785 468.303C224.598 469.246 213.898 471.333 212.088 472.818C209.708 474.824 208.508 491.016 208.508 493.464V495.912C207.957 499.492 207.086 503.017 205.904 506.446C205.619 507.389 205.395 508.271 205.233 509.054C205.021 509.726 204.885 510.419 204.826 511.12Z" fill="#4FBB8A"/>
<path opacity="0.5" d="M192.275 350.225C192.356 350.225 192.436 350.209 192.51 350.177C192.585 350.145 192.652 350.099 192.707 350.041C192.762 349.982 192.805 349.913 192.832 349.838C192.859 349.763 192.87 349.683 192.865 349.603C192.865 349.362 190.83 324.824 190.322 313.949C189.813 303.074 189.732 297.897 189.732 297.897C189.73 297.787 189.697 297.679 189.636 297.587C189.575 297.495 189.488 297.421 189.386 297.376L169.045 288.447C168.904 288.385 168.745 288.38 168.6 288.432C168.456 288.485 168.338 288.591 168.272 288.728C168.209 288.872 168.206 289.034 168.263 289.18C168.32 289.326 168.433 289.445 168.577 289.51L188.552 298.319C188.552 299.703 188.674 304.86 189.142 314.109C189.712 325.004 191.664 349.543 191.685 349.804C191.721 349.929 191.799 350.038 191.906 350.115C192.013 350.191 192.143 350.23 192.275 350.225Z" fill="#161616"/>
<path opacity="0.5" d="M243.434 283.972C243.561 283.975 243.687 283.938 243.79 283.865C243.894 283.792 243.972 283.688 244.011 283.568C244.05 283.449 244.048 283.32 244.007 283.201C243.965 283.082 243.885 282.979 243.78 282.909C237.488 278.588 232.829 272.328 230.537 265.112C230.499 264.963 230.403 264.836 230.269 264.757C230.136 264.678 229.976 264.654 229.825 264.691C229.749 264.707 229.678 264.738 229.614 264.783C229.551 264.828 229.498 264.885 229.458 264.95C229.418 265.016 229.392 265.09 229.382 265.166C229.371 265.242 229.377 265.319 229.398 265.393C231.712 272.908 236.546 279.424 243.108 283.872C243.205 283.935 243.318 283.97 243.434 283.972Z" fill="#161616"/>
<path d="M72.3814 518.082C71.9769 518.018 71.6147 517.798 71.3744 517.471C71.1341 517.144 71.0354 516.736 71.0999 516.337C71.7305 512.324 73.968 500.907 80.3756 495.991C88.2479 489.972 104.908 487.284 110.888 483.231C116.869 479.178 123.52 469.567 127.161 471.192C130.803 472.817 137.8 481.064 147.666 479.699C157.532 478.335 162.027 475.887 164.732 478.215C167.438 480.542 169.574 513.528 168.475 515.514C167.377 517.5 153.423 515.935 152.202 516.276C150.982 516.618 147.442 508.812 145.184 510.036C142.926 511.26 140.2 514.992 136.885 516.758C133.569 518.524 82.3691 519.206 72.3814 518.082Z" fill="#4FBB8A"/>
<path d="M207.307 148.016C245.448 147.474 247.991 165.392 247.991 165.392V197.775L252.364 208.67L250.818 255.139L162.169 253.133L165.953 208.028C165.953 208.028 165.017 148.598 207.307 148.016Z" fill="#17807B"/>
<path d="M199.903 157.628C198.996 159.674 198.419 161.847 198.194 164.069C198.82 165.717 199.743 167.24 200.92 168.563C200.92 168.563 196.16 179.358 195.306 185.256C194.451 191.155 195 212.885 196.913 213.126C197.706 213.226 206.29 188.527 206.555 186.199C206.982 182.648 204.52 168.362 204.52 168.362C205.735 167.402 206.865 166.342 207.897 165.192C208.528 164.249 208.039 157.588 208.039 157.588C208.039 157.588 203.686 154.679 199.903 157.628Z" fill="#FFB357"/>
<path d="M118.638 134.072L90.16 156.925C90.16 156.925 100.066 180.902 118.069 194.285C136.946 208.33 164.061 205.521 164.061 205.521L161.315 266.215L168.821 253.374C168.821 253.374 181.352 203.916 188.227 182.186C192.086 170.643 195.278 158.893 197.788 146.994C188.907 146.896 180.061 148.113 171.547 150.605C163.085 152.832 140.953 158.631 118.638 134.072Z" fill="#4FBB8A"/>
<path d="M218.353 147.836C218.353 147.836 205.456 266.556 206.433 267.62C207.409 268.683 229.155 270.007 238.451 268.904C243.701 268.377 248.831 267.023 253.646 264.891C254.175 264.61 254.195 210.717 254.195 210.717L237.515 153.233C226.083 147.836 218.353 147.836 218.353 147.836Z" fill="#4FBB8A"/>
<path d="M147.361 165.575C147.679 165.576 147.994 165.51 148.285 165.382C148.576 165.254 148.837 165.067 149.049 164.833C151.47 162.264 149.822 153.215 149.639 152.192C149.615 152.07 149.553 151.958 149.462 151.872C149.371 151.785 149.255 151.729 149.13 151.71C149.007 151.694 148.882 151.716 148.773 151.774C148.663 151.831 148.575 151.921 148.52 152.032C148.012 152.995 143.699 161.442 145.347 164.431C145.505 164.751 145.747 165.024 146.047 165.221C146.347 165.419 146.695 165.534 147.056 165.555L147.361 165.575ZM148.744 154.259C149.191 157.509 149.558 162.545 148.174 164.03C148.054 164.163 147.901 164.264 147.73 164.324C147.56 164.383 147.377 164.4 147.198 164.371C147.032 164.366 146.871 164.317 146.731 164.229C146.591 164.14 146.478 164.016 146.405 163.869C145.611 162.304 147.157 157.69 148.744 154.259Z" fill="white"/>
<path d="M218.415 140.674L218.313 152.472C214.847 154.629 210.889 155.898 206.8 156.164C199.009 156.164 196.629 151.449 196.629 151.449L197.849 136.4L218.415 140.674Z" fill="#B98561"/>
<path d="M196.832 148.418C197.251 150.394 198.408 152.141 200.075 153.312C201.741 154.484 203.793 154.993 205.823 154.738C210.546 154.427 215.006 152.48 218.415 149.241C218.415 149.241 218.252 164.991 216.381 165.392C214.346 165.874 203.362 157.587 203.362 157.587L193.089 161.821C192.965 161.872 192.829 161.886 192.697 161.862C192.565 161.837 192.443 161.776 192.346 161.684C192.249 161.593 192.181 161.475 192.151 161.346C192.12 161.217 192.128 161.083 192.174 160.958L196.832 148.418Z" fill="white"/>
<path opacity="0.5" d="M218.415 140.352C218.415 140.352 212.841 151.709 204.013 150.244C196.893 149.08 197.91 137.383 197.91 137.383L218.415 140.352Z" fill="#161616"/>
<path d="M194.248 109.535C194.248 109.535 189.977 129.599 196.445 139.391C202.914 149.182 211.6 146.453 215.526 143.584C218.681 141.273 220.953 137.978 221.974 134.234C221.974 134.234 229.134 135.759 231.616 130.041C234.24 124.021 229.846 119.045 226.266 118.704C222.686 118.363 222.198 118.985 222.198 118.985L223.357 112.525C223.357 112.525 201.998 88.2469 194.248 109.535Z" fill="#B98561"/>
<path d="M197.543 119.045C197.543 119.045 186.742 114.29 185.765 122.577C184.626 132.188 196.282 132.468 196.282 132.468L197.543 119.045Z" fill="#B98561"/>
<path opacity="0.5" d="M191.99 127.552C192.083 127.581 192.182 127.581 192.275 127.552C192.342 127.519 192.402 127.472 192.45 127.415C192.498 127.357 192.534 127.291 192.555 127.219C192.576 127.148 192.582 127.073 192.572 126.999C192.563 126.925 192.537 126.854 192.499 126.79L188.98 120.59C188.943 120.523 188.894 120.464 188.834 120.416C188.774 120.368 188.705 120.333 188.631 120.312C188.557 120.291 188.479 120.286 188.402 120.296C188.326 120.306 188.252 120.331 188.186 120.369C188.056 120.448 187.962 120.573 187.92 120.718C187.879 120.862 187.894 121.017 187.962 121.152L191.502 127.332C191.556 127.408 191.63 127.469 191.715 127.508C191.801 127.546 191.896 127.562 191.99 127.552Z" fill="#161616"/>
<path opacity="0.5" d="M223.276 128.275C223.409 128.278 223.538 128.235 223.642 128.154L229.277 123.56C229.373 123.455 229.428 123.32 229.431 123.179C229.433 123.038 229.384 122.901 229.292 122.793C229.2 122.685 229.072 122.614 228.93 122.593C228.789 122.571 228.645 122.601 228.524 122.677L222.91 127.272C222.856 127.324 222.813 127.386 222.783 127.455C222.754 127.524 222.739 127.598 222.739 127.673C222.739 127.748 222.754 127.822 222.783 127.89C222.813 127.959 222.856 128.022 222.91 128.074C222.953 128.131 223.008 128.179 223.071 128.213C223.134 128.248 223.204 128.269 223.276 128.275Z" fill="#161616"/>
<path opacity="0.5" d="M228.382 129.218C228.467 129.221 228.552 129.205 228.629 129.17C228.707 129.135 228.776 129.083 228.829 129.017C228.883 128.965 228.926 128.903 228.956 128.834C228.985 128.765 229 128.691 229 128.616C229 128.541 228.985 128.467 228.956 128.398C228.926 128.329 228.883 128.267 228.829 128.215L225.615 125.727C225.493 125.665 225.352 125.647 225.218 125.676C225.084 125.705 224.964 125.78 224.879 125.887C224.795 125.994 224.751 126.127 224.755 126.262C224.76 126.398 224.812 126.528 224.903 126.63L228.138 129.098C228.204 129.162 228.29 129.204 228.382 129.218Z" fill="#161616"/>
<path opacity="0.5" d="M187.8 125.646H190.912C191.047 125.621 191.169 125.55 191.257 125.445C191.345 125.341 191.393 125.209 191.393 125.074C191.393 124.938 191.345 124.807 191.257 124.702C191.169 124.598 191.047 124.527 190.912 124.502H187.8C187.665 124.527 187.543 124.598 187.455 124.702C187.367 124.807 187.319 124.938 187.319 125.074C187.319 125.209 187.367 125.341 187.455 125.445C187.543 125.55 187.665 125.621 187.8 125.646Z" fill="#161616"/>
<path d="M211.579 123.057C211.721 123.063 211.86 123.014 211.967 122.92C212.073 122.826 212.138 122.696 212.149 122.556L212.535 119.105C212.547 118.954 212.502 118.805 212.408 118.686C212.314 118.567 212.178 118.487 212.027 118.463C211.873 118.451 211.722 118.5 211.604 118.597C211.486 118.694 211.411 118.833 211.396 118.984L211.01 122.435C211.002 122.582 211.05 122.727 211.144 122.841C211.238 122.956 211.371 123.033 211.518 123.057H211.579Z" fill="#161616"/>
<path d="M198.499 122.255C198.644 122.256 198.783 122.202 198.888 122.105C198.994 122.008 199.059 121.875 199.069 121.733L199.455 118.282C199.467 118.134 199.421 117.987 199.327 117.872C199.232 117.756 199.096 117.68 198.947 117.66C198.872 117.649 198.795 117.653 198.721 117.673C198.648 117.693 198.579 117.727 198.52 117.774C198.46 117.822 198.412 117.88 198.377 117.947C198.342 118.014 198.321 118.087 198.316 118.162L197.93 121.613C197.921 121.687 197.928 121.762 197.949 121.833C197.97 121.904 198.005 121.971 198.052 122.029C198.1 122.087 198.158 122.135 198.224 122.17C198.291 122.205 198.363 122.228 198.438 122.235L198.499 122.255Z" fill="#161616"/>
<path d="M203.89 131.043C204.022 131.04 204.149 130.998 204.256 130.923C204.359 130.818 204.417 130.677 204.417 130.531C204.417 130.385 204.359 130.245 204.256 130.14C201.205 126.248 205.375 121.191 205.416 121.151C205.52 121.043 205.578 120.899 205.578 120.75C205.578 120.601 205.52 120.457 205.416 120.349C205.364 120.296 205.303 120.254 205.235 120.225C205.166 120.196 205.093 120.182 205.019 120.182C204.945 120.182 204.871 120.196 204.803 120.225C204.735 120.254 204.674 120.296 204.622 120.349C204.622 120.349 199.801 126.147 203.422 130.742C203.467 130.828 203.534 130.9 203.616 130.953C203.698 131.006 203.792 131.037 203.89 131.043Z" fill="#161616"/>
<path d="M197.523 115.413C197.61 115.433 197.701 115.433 197.787 115.413C198.899 114.996 200.113 114.925 201.266 115.212C201.339 115.233 201.417 115.238 201.492 115.228C201.568 115.218 201.641 115.192 201.706 115.152C201.771 115.113 201.827 115.06 201.871 114.998C201.914 114.935 201.943 114.865 201.957 114.791C201.995 114.647 201.973 114.495 201.897 114.367C201.82 114.239 201.696 114.146 201.551 114.108C200.126 113.755 198.624 113.854 197.259 114.389C197.149 114.452 197.063 114.549 197.013 114.664C196.964 114.779 196.953 114.906 196.982 115.028C197.012 115.15 197.081 115.259 197.178 115.339C197.275 115.419 197.396 115.466 197.523 115.473V115.413Z" fill="#161616"/>
<path d="M214.447 117.038C214.598 117.033 214.741 116.976 214.854 116.878C214.908 116.826 214.951 116.763 214.981 116.694C215.01 116.625 215.025 116.551 215.025 116.477C215.025 116.402 215.01 116.328 214.981 116.259C214.951 116.19 214.908 116.128 214.854 116.075C213.71 115.123 212.281 114.566 210.786 114.49C210.635 114.49 210.49 114.549 210.383 114.655C210.276 114.76 210.216 114.903 210.216 115.052C210.216 115.201 210.276 115.344 210.383 115.449C210.49 115.555 210.635 115.614 210.786 115.614C211.976 115.697 213.112 116.138 214.04 116.878C214.151 116.979 214.296 117.036 214.447 117.038Z" fill="#161616"/>
<path d="M198.174 97.5352C195.262 100.277 193.154 103.743 192.072 107.567C191.379 110.917 191.379 114.37 192.072 117.72H193.211C193.211 117.72 195.896 104.377 200.269 103.153C204.643 101.929 198.174 97.5352 198.174 97.5352Z" fill="#161616"/>
<path d="M223.276 494.186H241.095C241.231 494.185 241.364 494.139 241.47 494.056C241.577 493.972 241.653 493.855 241.685 493.725C241.706 493.59 241.681 493.452 241.615 493.332C241.549 493.213 241.445 493.118 241.319 493.062L225.249 486.541L229.073 485.338C234.158 483.712 242.153 487.103 242.234 487.123C242.304 487.156 242.381 487.174 242.459 487.177C242.537 487.179 242.614 487.166 242.686 487.138C242.759 487.11 242.825 487.067 242.88 487.013C242.935 486.959 242.978 486.894 243.007 486.822C243.068 486.681 243.071 486.522 243.014 486.379C242.956 486.236 242.844 486.122 242.702 486.06C242.356 485.92 234.219 482.468 228.727 484.234L223.357 485.92C223.245 485.964 223.147 486.038 223.076 486.133C223.004 486.229 222.96 486.343 222.95 486.461C222.951 486.58 222.985 486.695 223.05 486.795C223.115 486.894 223.207 486.973 223.316 487.023L238.125 493.042H223.276C223.119 493.042 222.969 493.104 222.858 493.213C222.748 493.322 222.686 493.47 222.686 493.624C222.686 493.778 222.748 493.927 222.858 494.036C222.969 494.145 223.119 494.206 223.276 494.206V494.186Z" fill="#FFB357"/>
<path d="M112.617 492.28C112.735 492.283 112.851 492.25 112.95 492.186C113.048 492.121 113.124 492.028 113.166 491.919C113.215 491.796 113.221 491.661 113.185 491.534C113.148 491.407 113.07 491.295 112.963 491.216L107.023 487.043L123.642 489.531C123.782 489.556 123.926 489.529 124.046 489.455C124.167 489.381 124.255 489.265 124.293 489.13C124.337 488.996 124.33 488.851 124.274 488.722C124.218 488.593 124.116 488.489 123.988 488.427L111.152 482.709C111.017 482.672 110.873 482.683 110.746 482.741C110.618 482.799 110.516 482.9 110.457 483.026C110.398 483.151 110.387 483.293 110.425 483.427C110.463 483.56 110.548 483.675 110.664 483.753L119.594 487.765L104.765 485.538C104.636 485.522 104.505 485.549 104.392 485.614C104.28 485.679 104.193 485.778 104.144 485.898C104.095 486.017 104.088 486.148 104.123 486.272C104.158 486.396 104.233 486.505 104.338 486.582L110.155 490.695L97.2996 488.407C97.2234 488.393 97.1451 488.393 97.0692 488.409C96.9932 488.424 96.9211 488.454 96.8569 488.497C96.7926 488.54 96.7376 488.595 96.6949 488.658C96.6522 488.722 96.6226 488.794 96.608 488.869C96.5933 488.944 96.5937 489.021 96.6093 489.096C96.6248 489.171 96.6552 489.242 96.6986 489.306C96.7421 489.369 96.7978 489.423 96.8625 489.465C96.9272 489.507 96.9997 489.537 97.0758 489.551L112.515 492.3L112.617 492.28Z" fill="#FFB357"/>
<path d="M227.628 119.045C227.628 119.045 233.181 106.284 228.91 100.786C223.926 94.4061 199.129 88.7479 196.587 91.898C193.149 96.2319 195.997 107.608 195.997 107.608C195.997 107.608 197.482 105.381 206.432 106.665C215.382 107.949 216.277 112.685 216.277 112.685C215.983 114.819 216.293 116.993 217.173 118.965C217.871 120.216 219.028 121.156 220.407 121.593V124.964L223.275 118.563L227.628 119.045Z" fill="#161616"/>
<path d="M207.775 137.805C209.809 137.805 211.193 134.695 211.355 134.314C211.407 134.217 211.428 134.107 211.415 133.999C211.402 133.891 211.357 133.788 211.284 133.706C211.212 133.624 211.115 133.565 211.008 133.537C210.901 133.51 210.788 133.514 210.684 133.551L204.927 135.116C204.845 135.137 204.768 135.177 204.704 135.232C204.641 135.288 204.591 135.359 204.561 135.437C204.52 135.511 204.499 135.594 204.499 135.678C204.499 135.762 204.52 135.845 204.561 135.919C204.87 136.409 205.283 136.828 205.771 137.146C206.259 137.465 206.811 137.676 207.389 137.765L207.775 137.805ZM209.809 134.996C209.24 135.899 208.426 136.802 207.775 136.661C207.222 136.566 206.704 136.331 206.27 135.979L209.809 134.996Z" fill="#161616"/>
<path d="M144.553 218.122L113.898 240.193L143.129 287.264L178.219 268.463L144.553 218.122Z" fill="#4FBB8A"/>
<path d="M139.406 222.015L106.29 241.698L139.284 292.159L173.56 272.336L139.406 222.015Z" fill="#17807B"/>
<path d="M181.678 233.572C181.678 233.572 154.399 234.957 148.561 239.17C142.723 243.384 153.443 263.247 156.393 266.618C159.342 269.989 184.586 257.429 184.586 257.429L189.509 244.547L181.678 233.572Z" fill="#B98561"/>
<path d="M148.56 239.169C148.56 239.169 135.562 253.695 136.661 260.417C137.759 267.139 153.544 248.519 153.544 248.519L148.56 239.169Z" fill="#B98561"/>
<path d="M165.77 263.226C165.77 263.226 179.846 262.845 176.551 267.5C173.256 272.154 158.528 269.626 156.393 266.617C154.257 263.607 162.841 256.966 162.841 256.966L165.77 263.226Z" fill="#B98561"/>
<path opacity="0.5" d="M167.438 264.931H167.58L171.648 263.868C171.747 263.845 171.838 263.795 171.909 263.724C171.981 263.653 172.032 263.564 172.055 263.467C172.081 263.367 172.079 263.263 172.051 263.164C172.022 263.066 171.967 262.976 171.892 262.905L168.984 260.236C168.929 260.185 168.864 260.145 168.794 260.118C168.723 260.091 168.648 260.078 168.573 260.08C168.497 260.082 168.423 260.099 168.354 260.129C168.284 260.159 168.222 260.202 168.17 260.257C168.118 260.311 168.077 260.374 168.05 260.444C168.023 260.513 168.01 260.587 168.012 260.662C168.014 260.736 168.03 260.81 168.061 260.878C168.092 260.946 168.136 261.008 168.19 261.059L170.347 263.065L167.194 263.868C167.061 263.904 166.947 263.986 166.87 264.098C166.794 264.211 166.762 264.347 166.779 264.481C166.797 264.615 166.862 264.739 166.965 264.829C167.067 264.919 167.199 264.97 167.336 264.972L167.438 264.931Z" fill="#161616"/>
<path opacity="0.5" d="M148.662 253.114C148.766 253.112 148.868 253.084 148.957 253.031C149.047 252.978 149.12 252.903 149.171 252.813C150.329 250.414 151.799 248.175 153.544 246.151C153.669 246.062 153.755 245.93 153.785 245.781C153.815 245.633 153.787 245.478 153.707 245.349C153.664 245.288 153.61 245.236 153.547 245.196C153.484 245.157 153.413 245.129 153.34 245.116C153.266 245.103 153.19 245.105 153.117 245.12C153.044 245.136 152.975 245.166 152.913 245.208C151.408 246.191 148.479 251.689 148.133 252.311C148.072 252.446 148.063 252.597 148.108 252.738C148.153 252.878 148.249 252.998 148.377 253.073C148.468 253.106 148.565 253.119 148.662 253.114Z" fill="#161616"/>
<path opacity="0.5" d="M152.121 260.196C152.217 260.193 152.311 260.167 152.395 260.122C152.48 260.077 152.553 260.013 152.609 259.936L158.488 251.107C158.529 251.045 158.558 250.976 158.572 250.903C158.586 250.83 158.586 250.755 158.57 250.683C158.555 250.61 158.526 250.541 158.484 250.48C158.442 250.418 158.388 250.366 158.325 250.325C158.262 250.284 158.192 250.256 158.118 250.242C158.044 250.228 157.968 250.228 157.894 250.243C157.821 250.258 157.751 250.287 157.689 250.329C157.626 250.37 157.573 250.423 157.531 250.485L151.653 259.314C151.611 259.375 151.582 259.445 151.568 259.518C151.553 259.591 151.553 259.666 151.569 259.738C151.584 259.811 151.613 259.88 151.656 259.942C151.698 260.003 151.752 260.055 151.815 260.096C151.905 260.159 152.011 260.194 152.121 260.196Z" fill="#161616"/>
<path d="M237.515 153.154C237.515 153.154 275.696 164.19 272.848 217.139C270.041 268.905 184.098 267.079 184.098 267.079L172.361 230.963L220.875 207.027L237.515 153.154Z" fill="#4FBB8A"/>
<path d="M213.369 210.718H213.532C214 210.597 224.801 207.568 226.632 203.675C226.813 203.31 226.908 202.908 226.908 202.501C226.908 202.094 226.813 201.693 226.632 201.328C226.505 200.973 226.279 200.661 225.98 200.426C225.682 200.192 225.323 200.046 224.944 200.003C221.262 199.542 213.715 208.651 212.881 209.694C212.806 209.797 212.766 209.919 212.766 210.045C212.766 210.171 212.806 210.294 212.881 210.397C212.93 210.485 213 210.561 213.085 210.616C213.17 210.672 213.268 210.707 213.369 210.718ZM224.659 201.227H224.822C224.988 201.252 225.144 201.321 225.273 201.427C225.403 201.533 225.5 201.672 225.554 201.829C225.659 202.034 225.714 202.261 225.714 202.491C225.714 202.721 225.659 202.948 225.554 203.153C224.455 205.501 218.76 207.788 215.159 208.972C218.19 205.461 222.584 201.227 224.659 201.227Z" fill="white"/>
<path opacity="0.5" d="M7 520L53.8729 519.04L100.746 518.68L194.5 518L288.254 518.68L335.127 519L382 520L335.127 520.96L288.254 521.32L194.5 522L100.746 521.32L53.8729 520.96L7 520Z" fill="#8C8C8C"/>
<path d="M38.85 100.911C60.3063 100.911 77.7 83.5172 77.7 62.0609C77.7 40.6047 60.3063 23.2109 38.85 23.2109C17.3937 23.2109 0 40.6047 0 62.0609C0 83.5172 17.3937 100.911 38.85 100.911Z" fill="#FFB357"/>
<path d="M38.85 91.7102C55.2253 91.7102 68.5 78.4354 68.5 62.0602C68.5 45.6849 55.2253 32.4102 38.85 32.4102C22.4748 32.4102 9.20001 45.6849 9.20001 62.0602C9.20001 78.4354 22.4748 91.7102 38.85 91.7102Z" fill="white"/>
<path d="M59.4787 66.9879C62.1928 55.6041 55.1646 44.1754 43.7808 41.4613C32.3969 38.7472 20.9683 45.7754 18.2542 57.1592C15.5401 68.5431 22.5683 79.9717 33.9521 82.6858C45.3359 85.3999 56.7646 78.3717 59.4787 66.9879Z" fill="#FFB357"/>
<path d="M50.2785 64.6849C51.7257 58.3759 47.7845 52.0883 41.4756 50.6411C35.1667 49.1938 28.8791 53.135 27.4319 59.4439C25.9846 65.7528 29.9258 72.0404 36.2347 73.4877C42.5436 74.9349 48.8312 70.9938 50.2785 64.6849Z" fill="white"/>
<path d="M44.15 62.0598C44.15 63.108 43.8392 64.1327 43.2568 65.0043C42.6744 65.8759 41.8467 66.5552 40.8782 66.9563C39.9098 67.3575 38.8441 67.4624 37.816 67.2579C36.7879 67.0534 35.8435 66.5487 35.1023 65.8074C34.3611 65.0662 33.8563 64.1219 33.6518 63.0938C33.4473 62.0657 33.5523 61 33.9534 60.0315C34.3546 59.0631 35.0339 58.2354 35.9055 57.653C36.777 57.0706 37.8017 56.7598 38.85 56.7598C39.5464 56.7585 40.2361 56.8946 40.8798 57.1605C41.5234 57.4264 42.1082 57.8168 42.6006 58.3092C43.093 58.8016 43.4833 59.3864 43.7492 60.03C44.0151 60.6736 44.1513 61.3634 44.15 62.0598Z" fill="#FFB357"/>
<path d="M91.9117 7.79933L41.7072 58.0039L42.9092 59.206L93.1138 9.0014L91.9117 7.79933Z" fill="#161616"/>
<path d="M45.41 60.3002L38.85 62.0602L40.61 55.4902L45.41 60.3002Z" fill="#161616"/>
<path d="M100.91 5.13L91.5 14.54L84.11 16.79L86.37 9.41L95.78 0L93.53 7.38L100.91 5.13Z" fill="#161616"/>
</svg>
