<svg width="77" height="91" viewBox="0 0 77 91" fill="none" xmlns="http://www.w3.org/2000/svg">
<g opacity="0.4">
<path d="M47.219 84.9538C46.8039 84.8403 46.4325 84.6048 46.1529 84.2777C45.8733 83.9507 45.6985 83.5472 45.6511 83.1196C45.6036 82.6921 45.6858 82.2601 45.8869 81.8798C46.088 81.4995 46.3988 81.1883 46.7789 80.9866C52.1189 78.147 60.2816 69.2556 63.2406 63.9474C65.2439 60.0458 66.4738 48.3542 66.4492 43.5138V43.4678C66.4722 42.0956 66.528 40.6774 66.5821 39.3233C66.817 33.4389 67.06 27.3527 64.6987 21.8573C62.3144 16.0665 56.7347 17.355 48.4916 19.9779C47.5392 20.2799 46.641 20.5655 45.7477 20.8314C45.4756 20.9167 45.1892 20.9471 44.9053 20.9206C44.6213 20.8942 44.3455 20.8116 44.0938 20.6775C43.8421 20.5435 43.6196 20.3607 43.4393 20.1398C43.259 19.919 43.1244 19.6645 43.0435 19.3912C42.9625 19.1178 42.9368 18.8311 42.9678 18.5477C42.9988 18.2644 43.0859 17.99 43.2241 17.7406C43.3622 17.4912 43.5486 17.2718 43.7724 17.0951C43.9962 16.9184 44.253 16.7881 44.5277 16.7115C45.3783 16.4588 46.2568 16.1797 47.1878 15.8909C50.848 14.7255 54.9941 13.4058 58.743 13.4632C63.5148 13.5371 66.8515 15.8039 68.6594 20.1929C71.3934 26.5517 71.1307 33.132 70.8778 39.494C70.822 40.8859 70.7694 42.2007 70.7464 43.5154C70.7661 47.8569 69.6955 60.8419 67.0436 65.9515L67.014 66.0057C63.702 71.9688 55.027 81.4692 48.797 84.7799C48.313 85.0385 47.7478 85.1008 47.219 84.9538Z" fill="#32DB8E"/>
<path d="M47.132 85.2738C46.6529 85.1427 46.2242 84.8709 45.9014 84.4934C45.5787 84.116 45.3768 83.6503 45.3219 83.1568C45.2671 82.6633 45.3618 82.1647 45.5938 81.7256C45.8258 81.2866 46.1843 80.9273 46.623 80.6943C51.9072 77.8826 60.0173 69.0405 62.9516 63.788C64.9221 59.9423 66.1422 48.3114 66.1175 43.5169C66.1405 42.0873 66.1963 40.6773 66.2505 39.3133C66.4837 33.4634 66.7267 27.4165 64.3917 21.9901C63.5806 20.0122 62.3441 18.8239 60.615 18.3479C57.6839 17.5436 53.4376 18.7549 48.5951 20.2945C47.6411 20.5982 46.7413 20.8855 45.8447 21.1514C45.2132 21.3381 44.5334 21.2665 43.9547 20.9522C43.3761 20.6379 42.9461 20.1067 42.7593 19.4755C42.5724 18.8443 42.6441 18.1647 42.9585 17.5863C43.2729 17.0079 43.8043 16.5781 44.4358 16.3913C45.2864 16.1402 46.1616 15.8612 47.091 15.5706C50.7758 14.3987 54.9499 13.0708 58.7496 13.1283C63.6397 13.2038 67.1126 15.5641 68.9665 20.0697C71.7284 26.4924 71.4641 33.1105 71.2096 39.5086C71.1537 40.9169 71.0995 42.2202 71.0798 43.5235C71.0979 47.86 70.0108 60.9583 67.3376 66.1089C67.3376 66.1089 67.3064 66.1664 67.3031 66.1697C63.9697 72.1722 55.229 81.7382 48.9531 85.0752C48.3942 85.3729 47.742 85.444 47.132 85.2738ZM60.7874 17.7077C62.73 18.2395 64.1109 19.5559 65.0059 21.7308C67.3951 27.2918 67.1504 33.4142 66.9139 39.3363C66.8597 40.697 66.8039 42.1037 66.7825 43.4726C66.8072 48.3623 65.5609 60.1556 63.5362 64.0982C60.5559 69.4475 52.3127 78.4193 46.9334 81.2786C46.7222 81.3909 46.5353 81.5437 46.3833 81.7282C46.2313 81.9128 46.1172 82.1255 46.0475 82.3542C45.9778 82.5828 45.9539 82.823 45.9771 83.0609C46.0004 83.2988 46.0703 83.5298 46.1829 83.7407C46.4175 84.1591 46.8047 84.4707 47.2637 84.6105C47.7227 84.7503 48.2179 84.7074 48.646 84.4908C54.8251 81.208 63.4393 71.7717 66.73 65.848C69.3737 60.7597 70.4378 47.8173 70.4197 43.5251C70.4427 42.212 70.4953 40.8989 70.5494 39.5152C70.8023 33.163 71.0634 26.6237 68.3606 20.3323C66.6069 16.0647 63.3589 13.8702 58.743 13.7996C55.05 13.7405 50.9318 15.052 47.2962 16.2091C46.3619 16.5062 45.4801 16.7869 44.6263 17.0397C44.1642 17.1764 43.7754 17.4909 43.5453 17.9142C43.3153 18.3374 43.2629 18.8347 43.3996 19.2966C43.5364 19.7585 43.8511 20.1471 44.2745 20.3771C44.6979 20.607 45.1954 20.6594 45.6575 20.5227C46.5491 20.2584 47.4457 19.9728 48.3964 19.6708C53.3357 18.0869 57.6889 16.8558 60.7874 17.7077Z" fill="#1A6241"/>
<path d="M77 25.0953C76.179 23.9069 75.1428 22.8893 73.8127 22.277C68.903 20.0152 63.5318 22.1687 59.9899 25.8684L59.6303 26.2771C57.1524 29.1052 61.2379 33.3088 63.7272 30.4675C64.9194 29.1068 66.2724 27.994 68.0114 27.4178C68.7852 27.1574 69.6132 27.1008 70.4153 27.2537C70.729 27.3144 71.8587 27.948 71.4203 27.5951C72.3366 28.3321 72.2676 28.4158 72.8062 29.5073C73.0459 29.9997 73.463 31.4638 73.6797 32.4618C74.9129 38.2313 74.22 44.6294 73.5155 50.4547C72.865 56.0175 71.7919 61.5228 70.3053 66.9227C68.1181 74.7735 61.9128 79.0493 54.6286 81.8791C53.1507 82.4552 52.1047 83.7962 52.553 85.4655C52.9323 86.8804 54.6483 88.1196 56.1409 87.5402C65.1591 84.0375 72.9425 78.7161 75.8046 69.0089C76.2446 67.5169 76.6338 66.0085 76.9918 64.4902L77 25.0953Z" fill="#32DB8E"/>
<path d="M77.0002 62.9753C76.5454 65.055 76.0478 67.0263 75.4944 68.9056C73.051 77.193 66.8654 83.0216 56.0295 87.2202C55.6373 87.3697 55.2068 87.3858 54.8045 87.2662C54.3533 87.1315 53.9421 86.8882 53.6068 86.5577C53.2716 86.2272 53.0226 85.8195 52.8816 85.3704C52.4399 83.729 53.6156 82.6211 54.7569 82.1779C63.6699 78.7162 68.7144 73.8938 70.6339 67.0016C72.1237 61.5852 73.2001 56.0636 73.854 50.4844C74.4632 45.3961 75.2958 38.4267 74.0051 32.3831C73.7916 31.3835 73.3597 29.8751 73.1052 29.3548C73.0215 29.1907 72.9509 29.0364 72.8901 28.9083C72.542 28.1714 72.4287 27.9727 71.6274 27.3293C71.5953 27.3047 71.5592 27.2858 71.5206 27.2735C71.4671 27.2571 71.4099 27.2571 71.3564 27.2735L71.2185 27.2095C70.9853 27.0947 70.7438 26.9976 70.496 26.919H70.4779C69.62 26.7554 68.7343 26.8182 67.9081 27.1012C66.2989 27.633 64.8917 28.6326 63.4746 30.2461C62.8522 30.9535 62.0657 31.2309 61.2594 31.0011C60.3744 30.7582 59.5895 29.9588 59.3037 29.0101C59.1702 28.5771 59.1527 28.1167 59.253 27.6749C59.3533 27.233 59.5678 26.8252 59.8752 26.4922L60.2233 26.0934C63.6601 22.5053 68.2349 20.946 72.1627 22.0244C72.6788 22.1662 73.1824 22.3501 73.6685 22.5742C75.1315 23.2488 76.2038 24.4323 76.9953 25.7044V24.5324C76.212 23.4918 75.2202 22.5627 73.9476 21.9718C73.4282 21.7323 72.89 21.5358 72.3384 21.3842C68.1758 20.2352 63.3514 21.8766 59.7339 25.6518L59.3776 26.0622C58.9938 26.4781 58.7262 26.9877 58.6017 27.5397C58.4771 28.0917 58.5001 28.6667 58.6682 29.2071C59.0229 30.3839 59.9688 31.3409 61.0837 31.6478C62.1478 31.94 63.1741 31.5986 63.9721 30.6892C65.3055 29.1693 66.6191 28.2272 68.1117 27.7348C68.8352 27.4858 69.611 27.4292 70.363 27.5706C70.5581 27.6411 70.7493 27.7216 70.9361 27.8119C71.0891 27.8917 71.2491 27.9577 71.4139 28.0088C71.9328 28.4405 72.0017 28.5866 72.2858 29.1857C72.3482 29.3154 72.4188 29.4648 72.5042 29.6404C72.7161 30.0704 73.1266 31.4673 73.3499 32.5145C74.524 38.0033 73.9723 43.8614 73.1857 50.4056C72.5359 55.9501 71.4655 61.4371 69.9837 66.8195C68.1265 73.4933 63.2069 78.1762 54.5057 81.5542C52.6994 82.2583 51.7815 83.8521 52.2314 85.5378C52.4015 86.0991 52.7089 86.6091 53.1258 87.0218C53.5426 87.4344 54.0558 87.7368 54.6189 87.9014C55.1592 88.0572 55.7354 88.0336 56.261 87.8341C67.3055 83.5452 73.6159 77.5886 76.1299 69.0878C76.437 68.0456 76.7227 66.9672 76.9986 65.8691L77.0002 62.9753Z" fill="#1A6241"/>
<path d="M47.24 0.783251C39.3401 -1.24879 39.3368 4.11692 39.3368 4.11692L38.9805 8.23844L41.5716 9.00333L41.946 5.92409C41.946 5.92409 42.1513 1.9191 46.9691 3.13373C51.3287 4.23838 51.2499 6.08822 50.5717 8.55031C50.0085 10.6004 49.6259 11.1946 49.5126 11.3407L51.9757 12.0678C51.9757 12.0678 52.6227 11.6197 53.5193 8.35661C54.4158 5.09354 54.3895 2.62325 47.24 0.783251Z" fill="#32DB8E"/>
<path d="M51.8861 12.3945L49.423 11.6673C49.3706 11.6524 49.3227 11.6246 49.2837 11.5864C49.2447 11.5483 49.2159 11.5011 49.1997 11.449C49.1835 11.3972 49.1801 11.3422 49.1899 11.2887C49.1996 11.2353 49.2221 11.1849 49.2555 11.1421C49.3245 11.0567 49.6907 10.5266 50.2555 8.47322C50.8861 6.17527 51.0142 4.58969 47.1882 3.5392L46.8909 3.46206C45.3917 3.0829 44.2226 3.19123 43.4197 3.79034C42.3622 4.56999 42.2817 5.93563 42.2817 5.94876L41.9155 8.9607C41.9234 9.00778 41.9206 9.05602 41.9073 9.10186C41.8821 9.18666 41.8247 9.2582 41.7473 9.30116C41.67 9.34412 41.5789 9.35507 41.4935 9.33166L38.8991 8.56677C38.8254 8.54566 38.7615 8.49949 38.7183 8.43625C38.6751 8.373 38.6554 8.29667 38.6626 8.22044L39.0173 4.09892C39.0452 3.50083 39.2007 2.91561 39.4734 2.38253C39.7462 1.84946 40.1298 1.38086 40.5986 1.00817C42.0584 -0.121101 44.3244 -0.304938 47.331 0.473079C54.8533 2.44274 54.7318 5.23311 53.8434 8.46007C52.9551 11.687 52.2933 12.2697 52.1701 12.3567C52.1284 12.3833 52.0814 12.4005 52.0323 12.407C51.9833 12.4135 51.9333 12.4092 51.8861 12.3945ZM50.0174 11.1503L51.8697 11.6969C52.0717 11.4244 52.5626 10.584 53.1964 8.2746C54.0421 5.19699 54.0963 2.88922 47.1586 1.10667C44.3573 0.384462 42.2833 0.525608 40.9927 1.52357C39.702 2.52153 39.6675 4.1022 39.6675 4.11697L39.3391 7.99557L41.2948 8.57334L41.6232 5.88475C41.6232 5.83879 41.7217 4.21216 43.0288 3.24867C44.0009 2.53138 45.3573 2.38694 47.0568 2.81698L47.3671 2.89905C51.7629 4.10383 51.5675 6.21465 50.8992 8.64391C50.5248 9.98656 50.2276 10.7334 50.0174 11.1503Z" fill="#1A6241"/>
<path d="M45.8959 2.94331L45.7186 2.89734C40.9008 1.67779 40.6955 5.6877 40.6955 5.6877L40.3359 8.6422L41.5724 9.00822L41.9468 5.929C41.9468 5.929 42.1225 2.54117 45.8959 2.94331Z" fill="#32DB8E"/>
<path d="M41.4835 9.32167L40.2454 8.95564C40.1699 8.93392 40.1047 8.88588 40.0616 8.82023C40.0185 8.75459 40.0004 8.67567 40.0106 8.59781L40.3685 5.64331C40.3685 5.59735 40.4687 3.97238 41.7741 3.01709C42.7462 2.29981 44.1026 2.15374 45.8037 2.58379L45.9827 2.63302C46.0698 2.64934 46.1469 2.69958 46.1969 2.77269C46.2469 2.8458 46.2659 2.93578 46.2495 3.02285C46.2332 3.10991 46.183 3.18693 46.1098 3.23695C46.0367 3.28698 45.9467 3.3059 45.8596 3.28957C44.7709 3.17303 43.9039 3.38149 43.2848 3.90673C42.3603 4.68968 42.2782 5.94698 42.2782 5.95847L41.9006 9.05905C41.8953 9.10652 41.8797 9.15227 41.8548 9.19309C41.83 9.23391 41.7966 9.26881 41.7569 9.29538C41.7171 9.32195 41.6721 9.33954 41.6249 9.34691C41.5777 9.35429 41.5294 9.35127 41.4835 9.33808V9.32167ZM40.7002 8.39921L41.2897 8.5732L41.6181 5.88461C41.6181 5.84358 41.7084 4.36139 42.8496 3.38969C42.9959 3.26697 43.1525 3.15713 43.3176 3.06142C42.903 3.13178 42.5099 3.29571 42.1682 3.54071C41.1156 4.31216 41.0188 5.68927 41.0188 5.70404L40.7002 8.39921Z" fill="#1A6241"/>
<path d="M47.2416 0.783355C46.7034 0.646502 46.1586 0.536936 45.6094 0.455078C45.7375 0.486264 45.8606 0.512535 45.992 0.545362C53.1399 2.38536 53.1628 4.86058 52.2663 8.12365C51.5733 10.6497 51.0314 11.4852 50.8213 11.7347L51.9707 12.0761C51.9707 12.0761 52.6177 11.628 53.5143 8.36493C54.4108 5.10185 54.3911 2.62335 47.2416 0.783355Z" fill="#32DB8E"/>
<path d="M51.886 12.3945L50.7365 12.0531C50.6827 12.0388 50.6334 12.0111 50.5933 11.9725C50.5532 11.9339 50.5235 11.8858 50.5071 11.8326C50.4907 11.7795 50.4881 11.723 50.4995 11.6685C50.5109 11.6141 50.5359 11.5634 50.5723 11.5213C50.7201 11.3456 51.2538 10.5758 51.9533 8.03496C52.799 4.95736 52.8614 2.66105 45.9138 0.865377L45.5378 0.776756C45.4958 0.768422 45.4559 0.751695 45.4205 0.727606C45.3851 0.703518 45.3549 0.672546 45.3318 0.63654C45.3086 0.600535 45.293 0.56025 45.2858 0.518065C45.2786 0.475879 45.2799 0.432659 45.2898 0.391014C45.3051 0.306575 45.3528 0.231472 45.4228 0.181773C45.4928 0.132074 45.5794 0.11173 45.6642 0.12511C46.2255 0.208356 46.7818 0.321787 47.3309 0.464888C47.4951 0.509205 47.6692 0.553514 47.8334 0.599473C54.8564 2.52646 54.7103 5.2955 53.8433 8.45188C52.9599 11.669 52.2932 12.2615 52.17 12.3485C52.1289 12.3765 52.0822 12.3951 52.0331 12.403C51.984 12.411 51.9338 12.4081 51.886 12.3945ZM51.349 11.5426L51.8696 11.6969C52.0715 11.4244 52.5625 10.584 53.1963 8.2746C53.7595 6.22779 53.9779 4.52403 52.0157 3.08618C53.3622 4.59297 53.1011 6.33284 52.5871 8.20894C52.0814 10.044 51.6495 11.0239 51.349 11.541V11.5426Z" fill="#1A6241"/>
<path d="M29.7534 11.8477C29.7534 11.8477 22.7763 13.6532 11.7712 36.0057C0.766119 58.3581 4.97305 71.3349 6.49524 75.1281C8.01743 78.9213 22.2212 84.507 42.5236 89.2687C42.5236 89.2687 55.2644 93.034 57.8654 81.5984C57.8654 81.5984 64.8688 50.8274 67.166 39.8678C70.6439 23.2718 63.8819 22.2246 58.89 21.5647C58.89 21.5647 56.9196 16.6406 54.3169 15.3488C46.4761 11.4423 34.1771 9.0114 29.7534 11.8477Z" fill="#32DB8E"/>
<path d="M32.8248 87.1513C17.4436 82.9297 7.48618 78.4815 6.18731 75.2513C3.82111 69.362 1.35965 56.4115 11.4731 35.858C22.0348 14.3936 28.8789 11.7641 29.6129 11.5392C33.0103 9.4054 40.2863 10.3098 45.9826 11.8675C48.9042 12.6542 51.7442 13.7177 54.4638 15.0436C56.8875 16.2516 58.7331 20.3305 59.1207 21.2529C60.1279 21.3685 61.126 21.5539 62.1076 21.8077C66.1487 22.9157 70.4131 25.9768 67.4902 39.9286C65.2176 50.7618 58.2586 81.3556 58.188 81.6625C57.4638 84.8501 55.8891 87.1858 53.5278 88.604C49.0499 91.2827 43.1582 89.7792 42.5014 89.5987L42.4275 89.5773C39.1056 88.8075 35.8691 87.9868 32.8248 87.1513ZM45.8068 12.5158C38.6885 10.5609 32.6047 10.4132 29.9298 12.1268C29.9006 12.1459 29.8685 12.1597 29.8346 12.1679C29.7673 12.1875 22.8263 14.2918 12.0675 36.1534C2.069 56.4738 4.47793 69.2176 6.80308 75.0051C8.00507 77.9973 18.0446 82.4061 33.0004 86.5112C36.0366 87.345 39.2666 88.1624 42.5983 88.9454L42.6771 88.9667C43.306 89.1309 48.9449 90.5802 53.1863 88.0426C55.3949 86.7295 56.8596 84.5284 57.5427 81.5247C57.6116 81.2161 64.5723 50.6305 66.8416 39.8006C69.6512 26.3905 65.6922 23.4869 61.9335 22.4544C60.9188 22.1961 59.8873 22.0091 58.8465 21.8947C58.7884 21.8858 58.7335 21.862 58.6872 21.8258C58.6409 21.7896 58.6047 21.7421 58.5821 21.6879C58.5624 21.6403 56.6248 16.8688 54.1699 15.646C51.488 14.3394 48.6877 13.2913 45.8068 12.5158Z" fill="#1A6241"/>
<path d="M64.6231 33.7343C66.0665 31.108 66.8859 28.0616 64.3095 25.8556C62.6001 24.3915 60.1337 24.1699 57.6788 23.7661C56.5868 28.8954 56.3356 33.0121 55.3028 38.1562C54.4423 42.4385 53.4473 46.7012 52.5244 50.977C54.2059 48.3508 55.8348 45.6852 57.5934 43.0984C58.7281 41.4439 63.6953 35.4232 64.6231 33.7343Z" fill="#32DB8E"/>
<path d="M52.4351 51.2954L52.3957 51.2823C52.3234 51.253 52.2638 51.199 52.2277 51.1298C52.1916 51.0606 52.1813 50.9808 52.1987 50.9048C52.5205 49.4188 52.8489 47.9333 53.1839 46.4484C53.7898 43.7106 54.4187 40.8792 54.9787 38.0888C55.4713 35.6432 55.7882 33.3978 56.0969 31.2262C56.4352 28.8478 56.7833 26.389 57.3564 23.6955C57.3731 23.6113 57.4222 23.537 57.4931 23.4885C57.564 23.44 57.6511 23.4212 57.7357 23.4362C58.0264 23.4854 58.317 23.5297 58.6077 23.5757C59.6154 23.7127 60.6148 23.9056 61.6011 24.1535C62.8425 24.4949 63.7735 24.9561 64.5289 25.6028C66.7588 27.515 66.8885 30.3037 64.9164 33.8935C64.3417 34.9423 62.299 37.5521 60.496 39.8533C59.3728 41.2912 58.3121 42.6437 57.8687 43.3002C56.6273 45.1205 55.4286 47.018 54.2693 48.853C53.7767 49.6245 53.2956 50.3943 52.8046 51.1625C52.7656 51.2215 52.7085 51.2663 52.6419 51.2902C52.5753 51.3142 52.5028 51.316 52.4351 51.2954ZM57.9377 24.142C57.4073 26.6943 57.074 29.0448 56.7505 31.3181C56.4418 33.5012 56.1216 35.7499 55.6273 38.2119C55.0657 41.0023 54.4368 43.8452 53.821 46.583C53.6273 47.4584 53.4335 48.3338 53.2397 49.2092L53.6995 48.4805C54.8605 46.6421 56.0641 44.7381 57.312 42.9096C57.7653 42.253 58.7899 40.9399 59.9656 39.4348C61.7506 37.1516 63.7752 34.5648 64.3253 33.5635C66.1496 30.2414 66.0724 27.799 64.0872 26.0969C63.409 25.5158 62.5584 25.0973 61.4155 24.7838C60.4536 24.542 59.4789 24.354 58.496 24.2208L57.9377 24.142Z" fill="#1A6241"/>
<path d="M59.3824 19.1488C59.2412 18.1935 58.8618 17.3696 58.0539 16.9822C50.1803 13.1972 38.3492 10.5726 33.9929 13.1266C33.9929 13.1266 21.4295 18.5432 10.9105 39.1409C0.391463 59.7387 4.82171 71.88 6.41122 75.4385C8.00074 78.9971 22.2325 84.4662 42.5185 89.282C42.5185 89.282 46.9159 90.4228 50.3149 89.4822C50.4792 78.3208 55.8618 66.8574 58.0868 51.2823C60.2871 35.8992 60.4087 23.1637 59.3824 19.1488Z" fill="#32DB8E"/>
<path d="M32.8255 87.1513C17.4492 82.9313 7.46221 78.603 6.10916 75.573C3.64607 70.0431 0.941632 57.933 10.615 38.9897C21.0683 18.5265 33.7351 12.8769 33.8632 12.8211C36.5102 11.2634 42.2656 11.462 49.2214 13.3693C52.306 14.2071 55.3106 15.3155 58.2002 16.6816C59.0212 17.0788 59.5352 17.893 59.7109 19.0994C60.7388 23.111 60.6403 35.7923 58.4186 51.3297C57.4071 58.4041 55.7141 64.7562 54.2215 70.3599C52.3544 77.3703 50.7403 83.4237 50.6467 89.487C50.6464 89.5587 50.6227 89.6283 50.5791 89.6852C50.5355 89.7421 50.4745 89.7832 50.4053 89.8021C46.957 90.7558 42.6204 89.6511 42.4381 89.6035C39.1047 88.8124 35.8682 87.9868 32.8255 87.1513ZM49.0441 14.0111C42.2575 12.1481 36.6941 11.9249 34.1605 13.412C33.9962 13.4842 21.5396 19.06 11.2061 39.2917C1.6559 57.9888 4.29307 69.879 6.71346 75.3038C7.96636 78.1105 18.0436 82.4061 32.9995 86.5112C36.0357 87.345 39.264 88.1673 42.5941 88.9585C42.6417 88.9716 46.7468 90.0155 49.9833 89.2244C50.118 83.1644 51.7223 77.1454 53.5745 70.1843C55.0639 64.6036 56.7502 58.2662 57.7568 51.2312C59.9654 35.7775 60.0754 23.2078 59.0574 19.2242C58.9063 18.2131 58.522 17.5696 57.9079 17.2742C55.0552 15.9277 52.0891 14.8358 49.0441 14.0111Z" fill="#1A6241"/>
<path d="M52.9966 56.2985C52.9966 56.2985 61.5271 57.8791 63.6191 55.9702L57.7422 82.1684C57.7422 82.1684 54.5976 89.0622 45.7666 86.3063C45.7666 86.3096 46.5236 73.9631 52.9966 56.2985Z" fill="#32DB8E"/>
<path d="M46.2351 86.7936C46.0479 86.7427 45.8591 86.6869 45.667 86.6294C45.5957 86.6077 45.534 86.5623 45.4919 86.5009C45.4499 86.4395 45.43 86.3655 45.4355 86.2913C45.4437 86.1682 46.2713 73.6936 52.6851 56.185C52.7116 56.1109 52.7638 56.0488 52.8322 56.0099C52.9006 55.9711 52.9807 55.958 53.0579 55.9732C55.3847 56.4049 61.7805 57.2026 63.4028 55.7303C63.4543 55.6803 63.5207 55.6484 63.5919 55.6397C63.6631 55.6309 63.7353 55.6457 63.7973 55.6818C63.8593 55.718 63.9078 55.7734 63.9353 55.8396C63.9628 55.9059 63.9679 55.9793 63.9497 56.0487L58.0711 82.2453C58.0657 82.2677 58.0586 82.2896 58.0497 82.3109C58.0185 82.3782 54.8149 89.1489 46.2351 86.7936ZM46.1169 86.0697C54.163 88.4136 57.1696 82.5965 57.4257 82.0631L63.1254 56.679C60.5145 57.828 54.5866 56.917 53.2139 56.679C47.424 72.566 46.2713 84.2084 46.1169 86.0697Z" fill="#1A6241"/>
<path d="M63.6186 55.973C63.6186 55.973 55.7745 54.4777 52.9961 56.3013C52.9961 56.298 60.809 58.4433 63.6186 55.973Z" fill="#32DB8E"/>
<path d="M52.9071 56.6183C52.8444 56.6026 52.7878 56.5689 52.7443 56.5213C52.7007 56.4737 52.6721 56.4143 52.6622 56.3505C52.6522 56.2868 52.6612 56.2215 52.6881 56.1629C52.715 56.1042 52.7586 56.0548 52.8135 56.0208C55.6723 54.1496 63.3555 55.5858 63.6823 55.6482C63.7434 55.6594 63.8 55.6878 63.8456 55.7299C63.8913 55.772 63.924 55.8262 63.9401 55.8862C63.9553 55.9448 63.954 56.0065 63.9363 56.0645C63.9186 56.1224 63.8853 56.1743 63.8399 56.2145C60.9318 58.7816 53.2338 56.7085 52.9071 56.6183ZM62.7512 56.1636C60.922 55.8829 56.4326 55.3249 53.976 56.1932C55.8825 56.6133 60.3719 57.4078 62.7512 56.1636Z" fill="#1A6241"/>
<path d="M54.7103 19.812C54.7103 19.812 58.3508 25.3665 52.817 39.9814C52.817 39.9814 46.7595 47.9044 48.1322 59.6222C49.505 71.3401 43.1945 84.1199 34.8496 86.9595" fill="#32DB8E"/>
<path d="M54.9182 20.7229C54.8694 20.7102 54.8241 20.6864 54.786 20.6534C54.7478 20.6204 54.7178 20.579 54.6982 20.5325C54.6247 20.3457 54.5363 20.1651 54.4338 19.9925C54.3857 19.9187 54.3689 19.8288 54.387 19.7426C54.4052 19.6564 54.4569 19.581 54.5307 19.5329C54.6045 19.4848 54.6944 19.468 54.7807 19.4861C54.8669 19.5043 54.9424 19.556 54.9905 19.6297C55.1176 19.8354 55.2274 20.0511 55.3189 20.2748C55.3363 20.315 55.3455 20.3584 55.3459 20.4022C55.3463 20.446 55.3379 20.4895 55.3212 20.53C55.3045 20.5706 55.2799 20.6074 55.2487 20.6382C55.2176 20.6691 55.1806 20.6934 55.1399 20.7098C55.0698 20.7397 54.9914 20.7444 54.9182 20.7229Z" fill="#1A6241"/>
<path d="M37.6875 85.8349C37.6248 85.8195 37.568 85.7859 37.5243 85.7384C37.4805 85.6909 37.4518 85.6316 37.4416 85.5678C37.4314 85.504 37.4403 85.4387 37.4671 85.3799C37.4939 85.3211 37.5375 85.2716 37.5923 85.2375C37.9421 85.0093 38.2869 84.7615 38.6219 84.5005C38.6913 84.4463 38.7795 84.4219 38.867 84.4327C38.9544 84.4434 39.034 84.4885 39.0882 84.5579C39.1424 84.6274 39.1669 84.7155 39.1561 84.8029C39.1453 84.8903 39.1002 84.9699 39.0308 85.0241C38.681 85.2965 38.3198 85.5542 37.9569 85.7923C37.9177 85.8182 37.8733 85.8355 37.8269 85.8428C37.7804 85.8502 37.7329 85.8475 37.6875 85.8349ZM40.658 83.3466C40.6046 83.3316 40.5556 83.3041 40.5152 83.2662C40.4839 83.2356 40.459 83.1991 40.4421 83.1588C40.4251 83.1185 40.4164 83.0752 40.4164 83.0314C40.4164 82.9877 40.4251 82.9444 40.4421 82.9041C40.459 82.8638 40.4839 82.8273 40.5152 82.7967C40.8058 82.4947 41.0916 82.1812 41.3691 81.8529C41.4261 81.7859 41.5074 81.7443 41.5952 81.7372C41.683 81.7301 41.77 81.7581 41.837 81.8152C41.9041 81.8722 41.9458 81.9535 41.9528 82.0412C41.9599 82.129 41.9318 82.2159 41.8748 82.283C41.5891 82.6211 41.2935 82.9395 40.993 83.258C40.951 83.3025 40.8974 83.3344 40.8382 83.35C40.779 83.3657 40.7166 83.3645 40.658 83.3466ZM43.0916 80.3281C43.0568 80.3181 43.0236 80.3032 42.993 80.2838C42.9563 80.2596 42.9248 80.2284 42.9003 80.1918C42.8759 80.1553 42.859 80.1143 42.8507 80.0711C42.8425 80.0279 42.843 79.9835 42.8522 79.9405C42.8614 79.8976 42.8791 79.8569 42.9044 79.8209C43.1408 79.4729 43.3723 79.1134 43.5957 78.7474C43.6183 78.7102 43.6481 78.6779 43.6832 78.6522C43.7184 78.6265 43.7582 78.608 43.8006 78.5977C43.8429 78.5874 43.8868 78.5855 43.9298 78.5922C43.9728 78.5989 44.0142 78.614 44.0514 78.6366C44.0886 78.6593 44.1209 78.689 44.1466 78.7241C44.1723 78.7593 44.1908 78.7991 44.2011 78.8414C44.2114 78.8837 44.2133 78.9276 44.2066 78.9706C44.1999 79.0137 44.1848 79.0549 44.1622 79.0921C43.9334 79.4674 43.6975 79.8351 43.4545 80.1951C43.4158 80.2528 43.3598 80.2967 43.2946 80.3206C43.2294 80.3445 43.1584 80.3471 43.0916 80.3281ZM45.0341 76.9698C45.0137 76.9647 44.994 76.9575 44.975 76.9485C44.9354 76.9297 44.8999 76.9032 44.8707 76.8706C44.8414 76.8379 44.819 76.7997 44.8048 76.7583C44.7906 76.7168 44.7848 76.6729 44.7878 76.6292C44.7908 76.5854 44.8025 76.5428 44.8223 76.5036C45.0078 76.1228 45.1885 75.7355 45.3609 75.3415C45.3785 75.3017 45.4037 75.2656 45.4352 75.2355C45.4667 75.2054 45.5039 75.1818 45.5445 75.166C45.5851 75.1502 45.6285 75.1426 45.6721 75.1436C45.7156 75.1445 45.7586 75.1541 45.7985 75.1717C45.8384 75.1892 45.8744 75.2145 45.9046 75.246C45.9347 75.2775 45.9583 75.3146 45.9741 75.3552C45.9899 75.3958 45.9975 75.4391 45.9965 75.4827C45.9956 75.5263 45.986 75.5692 45.9685 75.6091C45.7933 76.0118 45.6099 76.4074 45.4184 76.7958C45.385 76.8653 45.3281 76.9208 45.2579 76.9526C45.1876 76.9844 45.1084 76.9905 45.0341 76.9698ZM46.512 73.3834H46.4906C46.4494 73.3695 46.4113 73.3476 46.3785 73.3189C46.3458 73.2902 46.3191 73.2553 46.3 73.2162C46.281 73.1771 46.2698 73.1346 46.2673 73.0912C46.2648 73.0477 46.2709 73.0042 46.2854 72.9632C46.4233 72.5605 46.553 72.154 46.6745 71.7436C46.6866 71.7015 46.7069 71.6622 46.7343 71.6281C46.7618 71.5939 46.7958 71.5656 46.8344 71.5448C46.8729 71.524 46.9153 71.5112 46.9589 71.507C47.0025 71.5028 47.0465 71.5073 47.0883 71.5204C47.1303 71.5324 47.1694 71.5527 47.2034 71.58C47.2374 71.6074 47.2657 71.6412 47.2865 71.6796C47.3073 71.7179 47.3202 71.76 47.3245 71.8034C47.3289 71.8468 47.3245 71.8907 47.3117 71.9324C47.1869 72.3515 47.0539 72.7668 46.9127 73.1782C46.8847 73.2545 46.8294 73.3177 46.7575 73.3556C46.6856 73.3935 46.6022 73.4034 46.5235 73.3834H46.512ZM47.5448 69.6426C47.4624 69.6213 47.3916 69.5688 47.3472 69.4962C47.3028 69.4236 47.2883 69.3367 47.3067 69.2536C47.3954 68.8384 47.4709 68.4182 47.5481 67.9963C47.5551 67.9533 47.5705 67.912 47.5936 67.875C47.6167 67.8379 47.6469 67.8059 47.6825 67.7807C47.7182 67.7554 47.7585 67.7376 47.8011 67.7281C47.8437 67.7186 47.8878 67.7178 47.9307 67.7255C47.974 67.7323 48.0154 67.7476 48.0526 67.7706C48.0899 67.7935 48.1221 67.8237 48.1475 67.8594C48.1729 67.895 48.1909 67.9353 48.2005 67.978C48.2101 68.0207 48.211 68.0649 48.2033 68.108C48.1294 68.5396 48.0473 68.9664 47.957 69.3915C47.9484 69.4344 47.9314 69.4752 47.9068 69.5115C47.8822 69.5477 47.8506 69.5787 47.8139 69.6025C47.7772 69.6264 47.7361 69.6427 47.693 69.6504C47.6498 69.6581 47.6056 69.6572 47.5629 69.6476C47.5579 69.6477 47.5529 69.6471 47.5481 69.6459L47.5448 69.6426ZM48.1163 65.8067C48.0411 65.7865 47.9756 65.7402 47.9314 65.6762C47.8872 65.6122 47.8671 65.5345 47.8749 65.4571C47.911 65.0325 47.9384 64.6074 47.957 64.1817C47.9607 64.0936 47.9993 64.0105 48.0643 63.9508C48.1292 63.8911 48.2153 63.8596 48.3035 63.8633C48.3917 63.867 48.4748 63.9056 48.5345 63.9705C48.5942 64.0355 48.6257 64.1215 48.622 64.2097C48.6023 64.6446 48.5728 65.0812 48.5366 65.5228C48.5331 65.5662 48.521 65.6086 48.501 65.6473C48.4809 65.686 48.4533 65.7204 48.4199 65.7484C48.3864 65.7763 48.3477 65.7973 48.306 65.8102C48.2643 65.823 48.2204 65.8274 48.177 65.8231C48.1575 65.8193 48.1382 65.8138 48.1195 65.8067H48.1163ZM48.2033 61.9265C48.1351 61.909 48.0743 61.87 48.03 61.8153C47.9856 61.7606 47.96 61.6931 47.957 61.6228C47.9389 61.1961 47.911 60.7709 47.8699 60.3475C47.8619 60.2604 47.8888 60.1737 47.9447 60.1064C48.0006 60.0392 48.0809 59.9969 48.168 59.9888C48.2551 59.9808 48.3418 60.0076 48.4091 60.0635C48.4764 60.1194 48.5187 60.1997 48.5268 60.2867C48.564 60.7244 48.5936 61.1621 48.6154 61.5998C48.6179 61.6435 48.6115 61.6872 48.5968 61.7284C48.5822 61.7696 48.5594 61.8074 48.5299 61.8397C48.5003 61.8719 48.4647 61.8979 48.4249 61.9162C48.3852 61.9345 48.3423 61.9447 48.2985 61.9462C48.2673 61.9468 48.2361 61.9418 48.2066 61.9314L48.2033 61.9265ZM47.8749 58.0594C47.8075 58.0413 47.7477 58.0023 47.704 57.948C47.6603 57.8937 47.6351 57.827 47.6319 57.7574C47.6072 57.3142 47.5941 56.8792 47.5908 56.4442C47.5908 56.3572 47.6254 56.2737 47.687 56.2121C47.7486 56.1506 47.8321 56.116 47.9192 56.116C48.0063 56.116 48.0899 56.1506 48.1515 56.2121C48.213 56.2737 48.2476 56.3572 48.2476 56.4442C48.2476 56.8644 48.2641 57.2896 48.2887 57.7229C48.2916 57.7665 48.2857 57.8103 48.2714 57.8517C48.2571 57.893 48.2347 57.9311 48.2055 57.9637C48.1763 57.9963 48.1408 58.0227 48.1013 58.0414C48.0617 58.06 48.0188 58.0706 47.9751 58.0725C47.9445 58.0724 47.9141 58.0679 47.8847 58.0594H47.8749ZM47.9225 54.1808C47.848 54.1606 47.7829 54.1149 47.7387 54.0515C47.6946 53.9882 47.6742 53.9113 47.6811 53.8345C47.7156 53.3929 47.7583 52.9579 47.8109 52.5328C47.8217 52.4458 47.8668 52.3666 47.9361 52.3127C48.0053 52.2589 48.0932 52.2347 48.1803 52.2456C48.2674 52.2565 48.3466 52.3015 48.4005 52.3708C48.4544 52.44 48.4786 52.5278 48.4677 52.6149C48.4168 53.0302 48.3724 53.4553 48.3396 53.887C48.3367 53.9307 48.3251 53.9735 48.3054 54.0126C48.2857 54.0518 48.2584 54.0867 48.2251 54.1151C48.1917 54.1436 48.1529 54.1651 48.1111 54.1783C48.0693 54.1916 48.0253 54.1963 47.9816 54.1923C47.9649 54.1899 47.9484 54.1861 47.9324 54.1808H47.9225ZM48.4808 50.3416C48.3991 50.3199 48.3289 50.2675 48.2848 50.1953C48.2408 50.1232 48.2263 50.0368 48.2443 49.9542C48.3363 49.5176 48.4381 49.0925 48.5465 48.6805C48.557 48.6381 48.5758 48.5983 48.6019 48.5633C48.628 48.5283 48.6609 48.4989 48.6985 48.4767C48.7361 48.4546 48.7777 48.4401 48.821 48.4342C48.8642 48.4284 48.9083 48.4312 48.9504 48.4425C48.9938 48.4513 49.0348 48.4691 49.0708 48.4947C49.1068 48.5203 49.137 48.5533 49.1595 48.5914C49.182 48.6294 49.1962 48.6718 49.2012 48.7157C49.2062 48.7596 49.2018 48.8041 49.1885 48.8463C49.0791 49.2501 48.9811 49.6653 48.8946 50.0921C48.8858 50.1349 48.8687 50.1755 48.844 50.2115C48.8193 50.2476 48.7877 50.2784 48.751 50.302C48.7143 50.3257 48.6733 50.3419 48.6302 50.3495C48.5872 50.3571 48.5431 50.3561 48.5005 50.3465L48.4808 50.3416ZM49.535 46.6074H49.5136C49.4714 46.593 49.4325 46.5702 49.3994 46.5403C49.3663 46.5104 49.3397 46.474 49.3211 46.4335C49.3025 46.3929 49.2923 46.349 49.2913 46.3044C49.2902 46.2598 49.2983 46.2155 49.315 46.1741C49.466 45.7473 49.622 45.3386 49.7797 44.9513C49.8136 44.8705 49.8776 44.806 49.9582 44.7717C50.0389 44.7374 50.1298 44.7358 50.2115 44.7674C50.2521 44.7835 50.2891 44.8074 50.3203 44.8379C50.3515 44.8684 50.3763 44.9048 50.3933 44.945C50.4103 44.9852 50.4191 45.0284 50.4191 45.072C50.4192 45.1157 50.4106 45.1589 50.3938 45.1991C50.2411 45.5783 50.0884 45.9788 49.9406 46.3957C49.9138 46.4746 49.8581 46.5404 49.7846 46.5797C49.7111 46.619 49.6254 46.6289 49.5448 46.6074H49.535ZM51.0687 43.044C51.0465 43.0374 51.0251 43.0286 51.0047 43.0177C50.9655 42.9982 50.9306 42.9711 50.9021 42.938C50.8736 42.9049 50.8519 42.8664 50.8385 42.8249C50.825 42.7833 50.82 42.7394 50.8237 42.6959C50.8274 42.6523 50.8398 42.61 50.8601 42.5713C51.0818 42.1412 51.2936 41.7506 51.4874 41.4223C51.509 41.3846 51.5378 41.3515 51.5721 41.3249C51.6065 41.2983 51.6458 41.2787 51.6877 41.2672C51.7296 41.2558 51.7734 41.2528 51.8165 41.2582C51.8596 41.2637 51.9012 41.2776 51.939 41.2992C51.9767 41.3207 52.0098 41.3495 52.0364 41.3839C52.063 41.4182 52.0826 41.4575 52.0941 41.4994C52.1055 41.5413 52.1086 41.585 52.1031 41.6281C52.0976 41.6712 52.0837 41.7128 52.0621 41.7506C51.8733 42.0788 51.6664 42.4531 51.4513 42.8733C51.4177 42.9398 51.3626 42.9929 51.2948 43.0239C51.2271 43.0549 51.1508 43.062 51.0785 43.044H51.0687ZM52.9587 39.6644L52.9308 39.6545C52.8897 39.6399 52.8519 39.6172 52.8197 39.5878C52.7874 39.5584 52.7613 39.5229 52.743 39.4833C52.7247 39.4437 52.7144 39.4009 52.7128 39.3573C52.7112 39.3137 52.7183 39.2702 52.7337 39.2294C52.8865 38.819 53.0293 38.4087 53.1656 38.0164C53.1794 37.975 53.2014 37.9367 53.2302 37.9039C53.2591 37.871 53.2941 37.8443 53.3334 37.8252C53.3727 37.8061 53.4155 37.795 53.4591 37.7926C53.5028 37.7902 53.5464 37.7965 53.5876 37.8112C53.6292 37.8249 53.6677 37.8467 53.7007 37.8755C53.7337 37.9042 53.7607 37.9393 53.78 37.9786C53.7992 38.0179 53.8104 38.0606 53.8129 38.1044C53.8154 38.1481 53.8092 38.1918 53.7945 38.2331C53.6566 38.6336 53.511 39.0417 53.3577 39.4575C53.3301 39.5341 53.2749 39.5977 53.203 39.6359C53.1311 39.6741 53.0475 39.6843 52.9685 39.6644H52.9587ZM54.1788 35.9794C54.1362 35.968 54.0963 35.948 54.0616 35.9208C54.0269 35.8936 53.9981 35.8597 53.9768 35.8211C53.9555 35.7825 53.9422 35.74 53.9377 35.6961C53.9332 35.6523 53.9375 35.6079 53.9505 35.5658C54.0359 35.2769 54.1147 34.993 54.1935 34.7123L54.2986 34.3282C54.3095 34.286 54.3286 34.2463 54.355 34.2115C54.3814 34.1768 54.4144 34.1476 54.4521 34.1258C54.4899 34.1039 54.5316 34.0898 54.5749 34.0843C54.6182 34.0787 54.6622 34.0819 54.7042 34.0935C54.7463 34.1045 54.7858 34.1238 54.8204 34.1502C54.855 34.1767 54.884 34.2097 54.9057 34.2474C54.9274 34.2852 54.9413 34.3268 54.9468 34.37C54.9522 34.4132 54.949 34.457 54.9374 34.4989L54.8323 34.8879C54.7546 35.1724 54.673 35.4608 54.5876 35.7529C54.5639 35.8353 54.5088 35.9051 54.4343 35.9474C54.3597 35.9897 54.2715 36.0012 54.1886 35.9794H54.1788ZM55.1197 32.2157C55.0383 32.194 54.9684 32.1419 54.9243 32.0701C54.8803 31.9983 54.8656 31.9124 54.8832 31.83C54.9718 31.3923 55.0501 30.9716 55.118 30.5678C55.125 30.5247 55.1404 30.4834 55.1635 30.4464C55.1866 30.4094 55.2168 30.3773 55.2524 30.3521C55.2881 30.3269 55.3284 30.309 55.371 30.2995C55.4136 30.2901 55.4576 30.2892 55.5006 30.297C55.5438 30.3037 55.5853 30.319 55.6225 30.342C55.6598 30.365 55.692 30.3952 55.7174 30.4308C55.7428 30.4665 55.7609 30.5068 55.7704 30.5495C55.78 30.5922 55.7809 30.6363 55.7732 30.6794C55.7026 31.093 55.6238 31.5214 55.5335 31.963C55.5251 32.0059 55.5082 32.0467 55.4838 32.083C55.4594 32.1193 55.428 32.1503 55.3915 32.1743C55.3549 32.1983 55.3139 32.2148 55.2709 32.2228C55.2279 32.2307 55.1837 32.23 55.141 32.2207L55.1197 32.2157ZM55.6878 28.3782C55.6126 28.3579 55.5471 28.3117 55.5029 28.2477C55.4587 28.1836 55.4387 28.106 55.4464 28.0286C55.4842 27.5837 55.5105 27.1603 55.5252 26.7548C55.5285 26.6678 55.5662 26.5856 55.6301 26.5263C55.694 26.4671 55.7789 26.4356 55.866 26.4389C55.9531 26.4421 56.0353 26.4799 56.0946 26.5437C56.1539 26.6076 56.1853 26.6924 56.1821 26.7795C56.1678 27.1942 56.1399 27.6319 56.0983 28.0926C56.095 28.1362 56.083 28.1787 56.0631 28.2176C56.0431 28.2566 56.0156 28.2911 55.9821 28.3192C55.9486 28.3474 55.9098 28.3685 55.868 28.3815C55.8262 28.3944 55.7823 28.3989 55.7387 28.3946L55.6878 28.3782ZM55.7256 24.5012C55.6594 24.484 55.6003 24.4466 55.5565 24.3942C55.5126 24.3419 55.4862 24.2772 55.4809 24.2091C55.4464 23.7741 55.3971 23.349 55.3331 22.9485C55.3194 22.8614 55.3408 22.7725 55.3927 22.7012C55.4446 22.6299 55.5227 22.5822 55.6098 22.5685C55.6969 22.5548 55.7859 22.5762 55.8572 22.6281C55.9285 22.68 55.9762 22.758 55.9899 22.8451C56.0572 23.2636 56.1098 23.7035 56.1541 24.1582C56.1582 24.2017 56.1535 24.2456 56.1403 24.2873C56.1272 24.329 56.1058 24.3676 56.0776 24.401C56.0493 24.4343 56.0146 24.4616 55.9756 24.4814C55.9366 24.5011 55.894 24.5129 55.8504 24.516C55.8119 24.5201 55.773 24.5173 55.7354 24.5078L55.7256 24.5012Z" fill="#1A6241"/>
<path d="M34.7636 87.2794C34.7111 87.2654 34.663 87.2385 34.6234 87.2013C34.5839 87.164 34.5542 87.1176 34.537 87.0661C34.5226 87.0249 34.5165 86.9813 34.5191 86.9378C34.5218 86.8943 34.5331 86.8517 34.5523 86.8126C34.5716 86.7735 34.5985 86.7386 34.6314 86.7099C34.6643 86.6813 34.7025 86.6595 34.7439 86.6458C34.9475 86.5769 35.1479 86.5014 35.3482 86.421C35.4299 86.3881 35.5213 86.389 35.6022 86.4235C35.6832 86.458 35.7472 86.5232 35.7801 86.6048C35.813 86.6864 35.812 86.7778 35.7776 86.8587C35.7431 86.9397 35.6778 87.0036 35.5961 87.0365C35.386 87.1219 35.1709 87.2007 34.9574 87.2745C34.8947 87.2949 34.8273 87.2966 34.7636 87.2794Z" fill="#1A6241"/>
<path d="M33.7464 7.83292C28.9844 8.06272 18.8809 11.5966 16.426 28.26C16.426 28.26 14.4785 38.2527 28.3177 41.8096C40.2079 44.8659 47.341 39.8744 50.855 25.9784C54.369 12.0825 59.0932 18.607 59.0932 18.607C59.0932 18.607 52.2951 6.94493 33.7464 7.83292Z" fill="#32DB8E"/>
<path d="M27.7655 42.0052C14.3006 38.3088 16.0806 28.298 16.1068 28.1962C18.9082 9.17586 31.2844 7.61983 33.7376 7.50165C37.7541 7.30797 41.539 7.68877 44.9906 8.63585C55.2092 11.441 59.3455 18.3693 59.3866 18.4399C59.4104 18.4763 59.4268 18.517 59.4349 18.5598C59.443 18.6026 59.4425 18.6465 59.4336 18.6891C59.4247 18.7317 59.4074 18.7721 59.3829 18.8081C59.3583 18.844 59.3269 18.8748 59.2905 18.8986C59.254 18.9224 59.2133 18.9389 59.1705 18.9469C59.1277 18.955 59.0837 18.9545 59.0411 18.9456C58.9985 18.9367 58.9581 18.9195 58.9221 18.8949C58.8861 18.8704 58.8554 18.839 58.8315 18.8026C58.8233 18.7911 58.0745 17.7784 57.0121 17.4895C56.7314 17.4121 56.4377 17.3936 56.1494 17.4351C55.8612 17.4766 55.5847 17.5773 55.3372 17.7308C54.2403 18.3693 52.6312 20.3324 51.1812 26.0641C49.26 33.6703 46.2796 38.5813 42.071 41.0779C38.4224 43.2428 33.8985 43.5892 28.2416 42.1349C28.0758 42.0906 27.9198 42.0479 27.7655 42.0052ZM44.8067 9.27598C41.4241 8.3486 37.7081 7.97438 33.7606 8.16478C31.401 8.27803 19.4845 9.78646 16.7538 28.3095C16.6766 28.7149 15.0625 38.0544 28.3993 41.4882C33.8788 42.8965 38.2369 42.5748 41.7246 40.5034C45.7739 38.102 48.6541 33.3239 50.5326 25.895C51.7411 21.1153 53.242 18.1805 54.9957 17.153C55.3514 16.9366 55.751 16.8025 56.1652 16.7604C56.5795 16.7184 56.9979 16.7695 57.3898 16.9101C55.4604 14.7057 51.4604 11.1028 44.8067 9.27598Z" fill="#1A6241"/>
<path d="M32.2655 6.6005C27.5035 6.83029 17.4016 10.3658 14.9467 27.0292C14.9467 27.0292 12.9976 37.0203 26.8368 40.5772C38.7286 43.6335 45.8601 38.6436 49.3741 24.746C52.8881 10.8484 58.0885 17.299 58.0885 17.299C58.0885 17.299 50.8141 5.70594 32.2655 6.6005Z" fill="#32DB8E"/>
<path d="M26.2869 40.7743C12.8221 37.0779 14.6021 27.067 14.6283 26.9669C17.4297 7.94325 29.8042 6.38722 32.2575 6.26904C36.3331 6.07207 40.1935 6.466 43.7305 7.43606C53.9605 10.2445 58.335 17.0546 58.3777 17.1202C58.4029 17.1557 58.4209 17.1958 58.4306 17.2382C58.4404 17.2806 58.4416 17.3245 58.4344 17.3674C58.4272 17.4103 58.4115 17.4514 58.3884 17.4883C58.3653 17.5251 58.3352 17.5571 58.2997 17.5823C58.2642 17.6075 58.2241 17.6255 58.1817 17.6352C58.1392 17.645 58.0954 17.6462 58.0524 17.639C58.0095 17.6318 57.9684 17.6162 57.9315 17.593C57.8946 17.5699 57.8627 17.5398 57.8374 17.5043C57.8292 17.5043 57.0394 16.5343 55.9212 16.2273C55.5918 16.1338 55.2465 16.1097 54.9073 16.1566C54.5681 16.2035 54.2423 16.3204 53.9507 16.4998C52.2774 17.4846 50.8439 20.275 49.6945 24.8249C47.7716 32.4311 44.7913 37.3421 40.5827 39.8403C36.9357 42.0053 32.4102 42.35 26.7533 40.8957C26.5957 40.858 26.4413 40.8186 26.2869 40.7743ZM43.5482 8.07621C40.0786 7.1242 36.2887 6.73848 32.2821 6.92723C29.9208 7.04049 18.0044 8.54892 15.2753 27.072C15.1981 27.479 13.5741 36.8382 26.9208 40.2523C32.3987 41.659 36.7567 41.3389 40.2444 39.2675C44.2937 36.8645 47.1739 32.0864 49.0524 24.6591C50.2478 19.9319 51.7848 16.9922 53.619 15.9237C53.9854 15.6994 54.3942 15.5534 54.8199 15.4949C55.2455 15.4364 55.6786 15.4667 56.0919 15.5839C56.1839 15.6085 56.2725 15.6381 56.3612 15.6693C54.371 13.5108 50.2544 9.9162 43.5482 8.07621Z" fill="#1A6241"/>
<path d="M27.0997 39.0245H27.0767C26.6465 38.8746 26.2254 38.6998 25.8156 38.501C25.776 38.4824 25.7405 38.456 25.7113 38.4236C25.682 38.3911 25.6595 38.3531 25.6452 38.3118C25.6308 38.2705 25.6248 38.2268 25.6276 38.1832C25.6303 38.1395 25.6417 38.0969 25.6612 38.0578C25.7005 37.979 25.769 37.9187 25.8522 37.8899C25.9354 37.861 26.0266 37.8659 26.1062 37.9035C26.4921 38.0917 26.8891 38.2561 27.295 38.3959C27.3791 38.4218 27.4494 38.48 27.4905 38.5578C27.5316 38.6355 27.5402 38.7263 27.5143 38.8104C27.4884 38.8944 27.4301 38.9647 27.3524 39.0057C27.2746 39.0468 27.1837 39.0554 27.0997 39.0295V39.0245ZM29.6842 39.5958C29.6082 39.5754 29.5419 39.5284 29.4976 39.4633C29.4533 39.3982 29.4339 39.3194 29.4429 39.2412C29.447 39.1979 29.4596 39.1558 29.4802 39.1174C29.5007 39.079 29.5286 39.045 29.5624 39.0175C29.5962 38.99 29.6351 38.9695 29.6769 38.9572C29.7186 38.9449 29.7625 38.941 29.8058 38.9458C30.2341 38.9886 30.6644 39.0084 31.0948 39.0048C31.1819 39.0048 31.2654 39.0394 31.327 39.101C31.3886 39.1626 31.4232 39.2461 31.4232 39.3331C31.4232 39.4202 31.3886 39.5037 31.327 39.5653C31.2654 39.6268 31.1819 39.6614 31.0948 39.6614C30.6397 39.6655 30.1847 39.6447 29.7319 39.599L29.6842 39.5958ZM23.6366 37.0943C23.5938 37.0823 23.5536 37.0622 23.5183 37.0352C23.1669 36.7611 22.8204 36.4624 22.4904 36.1489C22.4266 36.0883 22.3895 36.005 22.3872 35.9171C22.3848 35.8292 22.4175 35.744 22.4781 35.6802C22.5386 35.6164 22.622 35.5793 22.71 35.577C22.7979 35.5747 22.8831 35.6074 22.9469 35.6679C23.2622 35.9666 23.5922 36.2506 23.9321 36.5132C23.9974 36.5582 24.0442 36.6253 24.0639 36.7021C24.0836 36.7789 24.0749 36.8602 24.0392 36.931C24.0036 37.0019 23.9435 37.0574 23.8701 37.0874C23.7967 37.1174 23.7149 37.1199 23.6398 37.0943H23.6366ZM33.6531 39.3627C33.5792 39.3457 33.5134 39.3036 33.467 39.2436C33.4206 39.1836 33.3964 39.1094 33.3986 39.0336C33.4007 38.9578 33.429 38.885 33.4787 38.8277C33.5284 38.7704 33.5964 38.7321 33.6712 38.7192C34.0883 38.629 34.5103 38.5174 34.9224 38.391C35.0063 38.3642 35.0973 38.3718 35.1755 38.4121C35.2537 38.4525 35.3127 38.5222 35.3395 38.606C35.3663 38.6898 35.3587 38.7808 35.3183 38.859C35.278 38.9372 35.2082 38.9961 35.1244 39.0229C34.6909 39.1608 34.2492 39.279 33.8108 39.3725C33.7556 39.384 33.6983 39.3806 33.6449 39.3627H33.6531ZM20.8976 34.2317C20.8238 34.2116 20.7593 34.1663 20.7153 34.1037C20.4517 33.7335 20.2072 33.35 19.983 32.9547C19.9394 32.8781 19.9281 32.7873 19.9515 32.7024C19.9749 32.6174 20.0311 32.5452 20.1078 32.5017C20.1844 32.4581 20.2752 32.4468 20.3602 32.4702C20.4452 32.4936 20.5174 32.5498 20.561 32.6264C20.7738 33.0013 21.0057 33.365 21.2556 33.7163C21.2975 33.7716 21.3208 33.8388 21.3221 33.9082C21.3235 33.9776 21.3028 34.0457 21.263 34.1026C21.2232 34.1595 21.1665 34.2023 21.1008 34.2249C21.0352 34.2475 20.964 34.2487 20.8976 34.2284V34.2317ZM37.3773 37.9856C37.3339 37.9736 37.2935 37.9529 37.2584 37.9246C37.2234 37.8964 37.1946 37.8613 37.1737 37.8214C37.1525 37.7832 37.1391 37.7411 37.1344 37.6976C37.1298 37.6541 37.1338 37.6101 37.1464 37.5682C37.1589 37.5263 37.1797 37.4874 37.2075 37.4536C37.2353 37.4199 37.2696 37.392 37.3083 37.3717C37.6876 37.1681 38.0604 36.9433 38.42 36.7053C38.4934 36.6565 38.5831 36.6389 38.6695 36.6563C38.7559 36.6737 38.8318 36.7247 38.8806 36.798C38.9294 36.8714 38.947 36.9611 38.9296 37.0474C38.9122 37.1338 38.8612 37.2097 38.7878 37.2584C38.4118 37.5079 38.021 37.7508 37.622 37.956C37.5839 37.9775 37.5419 37.9912 37.4985 37.9963C37.4551 38.0013 37.4111 37.9977 37.3691 37.9856H37.3773ZM19.1505 30.6781C19.0959 30.6633 19.046 30.6347 19.0057 30.595C18.9655 30.5553 18.9361 30.5059 18.9206 30.4516C18.7913 30.0131 18.6904 29.5669 18.6184 29.1155C18.6116 29.0724 18.6134 29.0284 18.6236 28.9859C18.6339 28.9435 18.6524 28.9035 18.6781 28.8682C18.7037 28.8329 18.7361 28.8031 18.7734 28.7803C18.8106 28.7575 18.852 28.7423 18.8951 28.7355C18.9383 28.7287 18.9823 28.7305 19.0247 28.7407C19.0672 28.751 19.1072 28.7694 19.1425 28.7951C19.1778 28.8208 19.2077 28.8532 19.2304 28.8904C19.2532 28.9276 19.2685 28.969 19.2753 29.0121C19.344 29.4349 19.4383 29.8531 19.5577 30.2645C19.5705 30.3063 19.5748 30.3502 19.5704 30.3937C19.5659 30.4372 19.5529 30.4794 19.5319 30.5178C19.511 30.5561 19.4825 30.59 19.4483 30.6172C19.4141 30.6445 19.3748 30.6646 19.3327 30.6765C19.2695 30.695 19.2024 30.6955 19.139 30.6781H19.1505ZM40.5744 35.6285C40.5188 35.6128 40.468 35.5835 40.4266 35.5432C40.3953 35.5126 40.3705 35.4761 40.3535 35.4358C40.3365 35.3955 40.3278 35.3522 40.3278 35.3085C40.3278 35.2647 40.3365 35.2214 40.3535 35.1811C40.3705 35.1408 40.3953 35.1043 40.4266 35.0737C40.7319 34.7704 41.0208 34.451 41.2919 34.1168C41.3475 34.0483 41.428 34.0045 41.5158 33.9953C41.6035 33.9861 41.6914 34.0121 41.76 34.0676C41.8285 34.1231 41.8723 34.2035 41.8815 34.2913C41.8907 34.379 41.8647 34.4668 41.8092 34.5354C41.522 34.8874 41.2167 35.2243 40.8946 35.5448C40.8523 35.5879 40.799 35.6185 40.7405 35.6333C40.682 35.648 40.6205 35.6464 40.5629 35.6285H40.5744ZM18.7941 26.7388C18.7193 26.7189 18.6538 26.6733 18.6094 26.61C18.5649 26.5466 18.5442 26.4695 18.5511 26.3924C18.5872 25.9416 18.637 25.4951 18.7005 25.0531C18.7063 25.0096 18.7208 24.9677 18.743 24.93C18.7653 24.8922 18.7949 24.8592 18.8301 24.8331C18.8653 24.8069 18.9054 24.7881 18.948 24.7776C18.9906 24.7672 19.0349 24.7654 19.0782 24.7724C19.1214 24.7784 19.1629 24.7929 19.2004 24.8152C19.2379 24.8374 19.2706 24.8669 19.2966 24.9018C19.3226 24.9368 19.3413 24.9767 19.3518 25.019C19.3622 25.0613 19.3641 25.1052 19.3574 25.1483C19.295 25.5761 19.2468 26.0084 19.2128 26.445C19.21 26.4887 19.1984 26.5314 19.1787 26.5706C19.159 26.6098 19.1317 26.6447 19.0983 26.6731C19.0649 26.7016 19.0262 26.7231 18.9844 26.7363C18.9426 26.7496 18.8986 26.7543 18.8549 26.7503C18.8305 26.7489 18.8063 26.745 18.7826 26.7388H18.7941ZM42.8831 32.4098C42.8643 32.4048 42.8461 32.3976 42.8289 32.3884C42.7889 32.3707 42.7529 32.3452 42.7229 32.3134C42.6929 32.2815 42.6695 32.244 42.6542 32.203C42.6389 32.1621 42.632 32.1184 42.6338 32.0747C42.6356 32.031 42.6461 31.9881 42.6647 31.9485C42.8486 31.5621 43.0056 31.1634 43.1344 30.7553C43.1472 30.7135 43.1683 30.6747 43.1964 30.6412C43.2244 30.6077 43.2589 30.5801 43.2977 30.5601C43.3365 30.5401 43.379 30.528 43.4226 30.5246C43.4661 30.5212 43.5099 30.5265 43.5514 30.5402C43.593 30.5531 43.6316 30.5741 43.665 30.602C43.6984 30.6299 43.7259 30.6642 43.7459 30.7029C43.766 30.7415 43.7781 30.7837 43.7816 30.8271C43.7852 30.8705 43.78 30.9141 43.7665 30.9555C43.6295 31.392 43.4616 31.8182 43.2641 32.2309C43.2313 32.303 43.1735 32.3609 43.1013 32.3937C43.0292 32.4266 42.9476 32.4323 42.8716 32.4098H42.8831ZM19.4904 22.8257C19.4481 22.8145 19.4084 22.795 19.3737 22.7683C19.3391 22.7416 19.3101 22.7082 19.2885 22.6701C19.2669 22.632 19.2532 22.59 19.2481 22.5465C19.243 22.5031 19.2466 22.459 19.2588 22.417C19.3787 21.982 19.515 21.5536 19.6595 21.1302C19.6882 21.0468 19.7489 20.9782 19.8282 20.9396C19.9075 20.901 19.9989 20.8954 20.0823 20.9242C20.1657 20.9529 20.2343 21.0136 20.2729 21.0928C20.3116 21.1721 20.3171 21.2635 20.2884 21.3468C20.1455 21.7588 20.0158 22.1675 19.8976 22.5943C19.8865 22.6377 19.8667 22.6784 19.8393 22.7138C19.8119 22.7493 19.7775 22.7788 19.7383 22.8005C19.6991 22.8221 19.6558 22.8356 19.6112 22.8399C19.5666 22.8443 19.5215 22.8394 19.4789 22.8257H19.4904ZM44.026 28.6116C43.9428 28.5896 43.8716 28.5358 43.8277 28.4618C43.7838 28.3878 43.7707 28.2996 43.7912 28.216L44.0867 26.9259C44.1061 26.8401 44.1588 26.7656 44.2332 26.7186C44.3075 26.6717 44.3975 26.6562 44.4833 26.6756C44.5691 26.6949 44.6437 26.7476 44.6906 26.8219C44.7376 26.8963 44.7531 26.9862 44.7337 27.072L44.4365 28.367C44.427 28.4096 44.4092 28.4498 44.384 28.4854C44.3588 28.5209 44.3268 28.5511 44.2898 28.5742C44.2528 28.5973 44.2116 28.6128 44.1686 28.6197C44.1255 28.6267 44.0815 28.6251 44.0391 28.6149L44.026 28.6116ZM20.8812 19.1112C20.8628 19.1051 20.8447 19.098 20.827 19.0899C20.7866 19.0722 20.7501 19.0466 20.7198 19.0145C20.6896 18.9824 20.6661 18.9446 20.6507 18.9032C20.6354 18.8618 20.6286 18.8178 20.6306 18.7737C20.6327 18.7297 20.6436 18.6865 20.6628 18.6467C20.8549 18.243 21.0602 17.8441 21.2736 17.4502C21.2943 17.4119 21.3224 17.3781 21.3561 17.3507C21.3899 17.3232 21.4288 17.3027 21.4705 17.2903C21.5122 17.2779 21.5559 17.2738 21.5992 17.2783C21.6425 17.2827 21.6845 17.2957 21.7228 17.3164C21.761 17.3371 21.7949 17.3651 21.8223 17.3989C21.8497 17.4326 21.8702 17.4715 21.8827 17.5131C21.8951 17.5548 21.8992 17.5985 21.8947 17.6418C21.8902 17.6851 21.8773 17.7271 21.8566 17.7653C21.648 18.1494 21.451 18.54 21.2621 18.9323C21.2288 19.0011 21.1726 19.0561 21.103 19.0879C21.0335 19.1197 20.955 19.1262 20.8812 19.1063V19.1112ZM44.9373 24.7363C44.8954 24.7252 44.8561 24.706 44.8216 24.6797C44.7872 24.6534 44.7583 24.6205 44.7366 24.5829C44.7149 24.5454 44.7009 24.5039 44.6953 24.461C44.6898 24.418 44.6927 24.3743 44.7041 24.3325C44.7518 24.1503 44.8011 23.9681 44.8503 23.7859C44.9193 23.5364 44.9899 23.2935 45.0638 23.044C45.0758 23.0019 45.0962 22.9626 45.1236 22.9285C45.1511 22.8943 45.185 22.866 45.2236 22.8452C45.2621 22.8244 45.3045 22.8115 45.3481 22.8073C45.3917 22.8031 45.4357 22.8077 45.4776 22.8208C45.5195 22.833 45.5587 22.8534 45.5926 22.8809C45.6266 22.9085 45.6548 22.9425 45.6754 22.981C45.6961 23.0195 45.7088 23.0618 45.7129 23.1053C45.717 23.1488 45.7124 23.1927 45.6992 23.2344C45.627 23.4741 45.558 23.7153 45.4907 23.9599C45.4414 24.1388 45.3938 24.3194 45.3462 24.4999C45.3357 24.5423 45.3168 24.5821 45.2907 24.6171C45.2646 24.6521 45.2318 24.6815 45.1942 24.7037C45.1566 24.7258 45.115 24.7403 45.0717 24.7462C45.0284 24.752 44.9844 24.7492 44.9423 24.7379L44.9373 24.7363ZM22.855 15.6446C22.8203 15.6357 22.7875 15.6207 22.7581 15.6003C22.7215 15.5765 22.6901 15.5456 22.6656 15.5094C22.6411 15.4733 22.6241 15.4326 22.6155 15.3898C22.607 15.347 22.6071 15.303 22.6157 15.2602C22.6244 15.2174 22.6415 15.1768 22.6661 15.1407C22.9124 14.7698 23.1686 14.4021 23.4313 14.0394C23.4829 13.968 23.5608 13.92 23.6478 13.906C23.7348 13.892 23.8238 13.9131 23.8952 13.9647C23.9666 14.0163 24.0146 14.0941 24.0286 14.1811C24.0426 14.268 24.0215 14.357 23.9699 14.4284C23.7121 14.7845 23.4609 15.144 23.2195 15.5084C23.1812 15.567 23.1252 15.6118 23.0596 15.6363C22.994 15.6608 22.9223 15.6637 22.855 15.6446ZM46.2034 20.9562C46.1865 20.9516 46.17 20.9456 46.1541 20.9381C46.1143 20.9204 46.0784 20.8949 46.0485 20.8632C46.0187 20.8315 45.9954 20.7942 45.9802 20.7534C45.9649 20.7126 45.9579 20.6692 45.9595 20.6256C45.9612 20.5821 45.9715 20.5394 45.9899 20.4999C46.1229 20.2044 46.2641 19.9139 46.4152 19.6332C46.4743 19.5216 46.5383 19.4051 46.6106 19.2852C46.6325 19.2474 46.6617 19.2143 46.6965 19.1878C46.7313 19.1614 46.7711 19.1422 46.8135 19.1313C46.8559 19.1205 46.9 19.1182 46.9433 19.1246C46.9865 19.131 47.0281 19.146 47.0654 19.1687C47.1032 19.1907 47.1361 19.22 47.1624 19.2549C47.1887 19.2898 47.2078 19.3295 47.2185 19.3719C47.2292 19.4142 47.2313 19.4583 47.2248 19.5015C47.2182 19.5446 47.2031 19.5861 47.1804 19.6234C47.1163 19.7333 47.0556 19.8417 46.9997 19.9516C46.8552 20.2208 46.7222 20.4949 46.5958 20.7723C46.5647 20.8463 46.5077 20.9063 46.4354 20.9411C46.3631 20.9759 46.2806 20.983 46.2034 20.9611V20.9562ZM25.2458 12.462C25.2002 12.4493 25.1578 12.4276 25.121 12.398C25.0871 12.3702 25.0591 12.3361 25.0387 12.2974C25.0183 12.2587 25.0058 12.2163 25.0019 12.1727C24.9981 12.1291 25.0031 12.0852 25.0165 12.0436C25.0298 12.0019 25.0514 11.9634 25.0799 11.9302C25.3656 11.5888 25.6574 11.2512 25.9551 10.9174C25.9841 10.8851 26.0192 10.8588 26.0584 10.84C26.0976 10.8213 26.1401 10.8104 26.1835 10.808C26.2268 10.8057 26.2703 10.8119 26.3113 10.8263C26.3522 10.8407 26.39 10.863 26.4223 10.892C26.4546 10.921 26.481 10.9561 26.4998 10.9952C26.5185 11.0344 26.5294 11.0769 26.5318 11.1202C26.5342 11.1636 26.528 11.207 26.5135 11.248C26.4991 11.2889 26.4768 11.3266 26.4478 11.359C26.1538 11.6873 25.8665 12.0155 25.5857 12.3553C25.5459 12.4048 25.4926 12.4416 25.4323 12.4614C25.3719 12.4812 25.3071 12.4832 25.2458 12.4669V12.462ZM48.3709 17.6307C48.3228 17.6173 48.2785 17.5932 48.2411 17.5601C48.2079 17.5316 48.1806 17.4967 48.1611 17.4574C48.1415 17.4182 48.1301 17.3754 48.1273 17.3316C48.1245 17.2879 48.1306 17.244 48.1451 17.2027C48.1595 17.1613 48.1822 17.1232 48.2116 17.0907C48.5124 16.7503 48.8302 16.4255 49.164 16.1174C49.2293 16.0579 49.3156 16.0269 49.4038 16.031C49.492 16.0352 49.575 16.0742 49.6345 16.1395C49.6939 16.2048 49.725 16.291 49.7208 16.3792C49.7166 16.4674 49.6776 16.5504 49.6123 16.6098C49.2958 16.9023 48.9943 17.2107 48.7092 17.5339C48.6683 17.5813 48.6148 17.6161 48.5548 17.6341C48.4949 17.6521 48.4311 17.6527 48.3709 17.6356V17.6307ZM27.9322 9.5239C27.8774 9.50844 27.8276 9.47903 27.7877 9.43854C27.7566 9.408 27.732 9.37161 27.7152 9.33145C27.6984 9.29129 27.6897 9.24819 27.6897 9.20466C27.6897 9.16113 27.6984 9.11802 27.7152 9.07787C27.732 9.03771 27.7566 9.0013 27.7877 8.97075C28.1007 8.65451 28.4171 8.34156 28.7368 8.03189C28.7674 8.00062 28.8039 7.97577 28.8442 7.95881C28.8845 7.94185 28.9279 7.93311 28.9716 7.93311C29.0154 7.93311 29.0587 7.94185 29.099 7.95881C29.1393 7.97577 29.1758 8.00062 29.2064 8.03189C29.2369 8.06297 29.2609 8.09981 29.2771 8.14026C29.2932 8.18071 29.3011 8.22396 29.3003 8.26749C29.2996 8.31103 29.2901 8.35398 29.2726 8.39384C29.2551 8.4337 29.2298 8.46968 29.1982 8.49968C28.8813 8.80662 28.5693 9.1152 28.2606 9.42871C28.2204 9.47406 28.1685 9.50741 28.1105 9.52508C28.0525 9.54275 27.9908 9.54405 27.9322 9.52883V9.5239ZM51.4842 15.19C51.437 15.1765 51.3934 15.1529 51.3562 15.1209C51.3191 15.0889 51.2894 15.0492 51.2691 15.0045C51.2507 14.965 51.2404 14.9222 51.2387 14.8787C51.2371 14.8352 51.2441 14.7918 51.2594 14.751C51.2747 14.7102 51.2979 14.6729 51.3278 14.6412C51.3576 14.6094 51.3935 14.584 51.4333 14.5663C51.865 14.3692 52.323 14.2354 52.7929 14.169C52.8361 14.1633 52.8799 14.1661 52.9219 14.1774C52.964 14.1886 53.0034 14.208 53.0379 14.2344C53.0725 14.2609 53.1014 14.2938 53.1232 14.3315C53.145 14.3691 53.1592 14.4107 53.1649 14.4538C53.1706 14.4969 53.1678 14.5407 53.1565 14.5827C53.1453 14.6248 53.1259 14.6642 53.0995 14.6987C53.073 14.7332 53.04 14.7622 53.0023 14.784C52.9647 14.8057 52.9231 14.8199 52.88 14.8256C52.4723 14.8846 52.0753 15.0018 51.701 15.1736C51.6333 15.2051 51.5568 15.2126 51.4842 15.1949V15.19Z" fill="#1A6241"/>
<path d="M26.5584 46.0102L22.3301 44.8497C22.3559 41.8812 23.155 38.9706 24.6487 36.4048L28.877 37.5653C27.3833 40.1311 26.5842 43.0417 26.5584 46.0102Z" fill="#32DB8E"/>
<path d="M26.4895 46.3285H26.4764L22.2481 45.168C22.1764 45.1488 22.1134 45.1059 22.0693 45.0463C22.0252 44.9866 22.0025 44.9139 22.0051 44.8397C22.0345 41.8146 22.8487 38.8488 24.368 36.2323C24.4043 36.1681 24.461 36.118 24.5293 36.09C24.5975 36.062 24.6732 36.0578 24.7441 36.078L28.9724 37.2385C29.0217 37.2517 29.0673 37.2762 29.1055 37.3101C29.1437 37.344 29.1734 37.3864 29.1924 37.4338C29.2117 37.4808 29.2198 37.5317 29.2161 37.5824C29.2124 37.6331 29.197 37.6823 29.171 37.726C27.724 40.2176 26.9415 43.039 26.8984 45.9198C26.9144 45.9772 26.9144 46.0379 26.8984 46.0954C26.8874 46.1379 26.868 46.1777 26.8413 46.2125C26.8147 46.2473 26.7813 46.2765 26.7432 46.2982C26.7051 46.3199 26.663 46.3338 26.6194 46.339C26.5759 46.3442 26.5317 46.3406 26.4895 46.3285ZM22.6718 44.5935L26.2432 45.5784C26.3367 42.845 27.0706 40.1717 28.3861 37.7736L24.8163 36.7887C23.4743 39.1765 22.7358 41.8557 22.6652 44.5935H22.6718Z" fill="#1A6241"/>
<path d="M32.8627 86.8201L29.2797 88.0643C29.2797 88.0643 15.9446 86.7003 3.5503 80.1856C3.5503 80.1856 -0.860265 77.5594 0.640576 72.0969C2.14142 66.6343 7.03475 45.5392 23.4652 49.4703C42.605 54.0531 36.1911 84.2907 32.8627 86.8201Z" fill="#32DB8E"/>
<path d="M17.9874 86.1258C12.6342 84.6485 7.72615 82.7609 3.39769 80.4876C3.33529 80.4515 -1.22803 77.6562 0.320434 72.0164L0.528979 71.2466C2.24986 64.8337 7.48969 45.3127 23.5457 49.1552C23.7477 49.2044 23.948 49.2553 24.1467 49.3095C30.623 51.0871 34.8447 56.1426 36.3505 63.931C38.2208 73.6036 35.293 85.3904 33.0664 87.0843C33.0386 87.1056 33.0075 87.1222 32.9744 87.1336L29.3914 88.3778C29.3455 88.3931 29.2968 88.3987 29.2486 88.3942C29.1977 88.3892 24.3996 87.8853 17.9874 86.1258ZM23.971 49.9496C23.7789 49.8971 23.5868 49.8478 23.3897 49.8002C7.96261 46.1104 2.84923 65.1587 1.16941 71.419L0.960861 72.192C-0.456235 77.3509 3.68012 79.8836 3.72117 79.9066C7.99052 82.1487 12.8576 84.0281 18.1631 85.4873C21.797 86.501 25.4997 87.2498 29.242 87.7278L32.7019 86.5263C34.5213 85.0178 37.5804 73.7858 35.6986 64.059C34.6838 58.8131 31.8266 52.1048 23.971 49.9496Z" fill="#1A6241"/>
<path d="M23.4668 49.4783C21.6331 49.0148 19.7308 48.8847 17.851 49.0942C20.5817 54.0627 23.3026 59.3512 23.8576 65.0386C24.3141 69.6969 23.365 76.5447 17.4437 76.7565C12.5176 76.9321 6.95265 74.5685 3.22846 71.4696C2.54979 70.9021 1.9101 70.2896 1.3138 69.6361C1.03465 70.621 0.821202 71.4712 0.640576 72.0982C-0.860266 77.5591 3.5503 80.187 3.5503 80.187C15.9446 86.6934 29.2797 88.0656 29.2797 88.0656L32.8627 86.8215C36.1911 84.2904 42.605 54.0528 23.4668 49.4783Z" fill="#32DB8E"/>
<path d="M17.9893 86.1257C12.6362 84.6484 7.72807 82.7592 3.39961 80.4875C3.33721 80.4514 -1.22607 77.6561 0.32239 72.0163L0.530934 71.2465C0.663941 70.7541 0.818307 70.1763 0.995649 69.546C1.0112 69.489 1.04185 69.4373 1.08433 69.3963C1.12681 69.3553 1.17954 69.3265 1.23703 69.3129C1.29558 69.2986 1.35692 69.3002 1.41466 69.3175C1.4724 69.3348 1.52444 69.3672 1.56544 69.4114C2.15114 70.0557 2.78043 70.6589 3.44887 71.2169C6.02248 73.3164 9.00209 74.8621 12.2011 75.757C13.9032 76.2438 15.6693 76.4701 17.4392 76.4283C19.0993 76.3692 20.454 75.7521 21.4672 74.5949C23.9697 71.7356 23.6823 66.5849 23.5362 65.0749C22.991 59.4942 20.3998 54.4059 17.5673 49.2585C17.5414 49.2106 17.5279 49.157 17.5279 49.1025C17.5279 49.0481 17.5414 48.9945 17.5673 48.9466C17.5918 48.8984 17.6279 48.8569 17.6723 48.826C17.7167 48.7951 17.7681 48.7756 17.8218 48.7693C19.7416 48.5563 21.6841 48.688 23.5575 49.1583C23.7611 49.2076 23.9598 49.2585 24.1585 49.3126C30.6348 51.0902 34.8549 56.1457 36.3607 63.9341C38.2326 73.6068 35.3048 85.3936 33.0766 87.0875C33.0487 87.1087 33.0177 87.1253 32.9846 87.1368L29.4016 88.3809C29.3556 88.3962 29.307 88.4018 29.2588 88.3973C29.198 88.3891 24.4015 87.8852 17.9893 86.1257ZM1.47512 70.2912C1.36346 70.6999 1.26167 71.0774 1.16972 71.4188L0.961173 72.1919C-0.455923 77.3508 3.68043 79.8835 3.72148 79.9064C7.99083 82.1486 12.8562 84.028 18.1634 85.4872C21.7967 86.5008 25.4989 87.2496 29.2407 87.7276L32.7005 86.5261C34.5199 85.0177 37.5774 73.7873 35.6956 64.0588C34.6562 58.6849 31.6611 51.7763 23.3802 49.8018C21.7442 49.3935 20.0533 49.25 18.3719 49.3766C21.0435 54.2598 23.6396 59.4794 24.1782 65.0092C24.3326 66.5866 24.6282 71.972 21.9516 75.0217C20.812 76.3233 19.2964 77.016 17.4458 77.0816C15.6088 77.1265 13.7756 76.8924 12.0089 76.3873C8.71871 75.4669 5.6541 73.8771 3.00717 71.7176C2.47146 71.2697 1.96003 70.7936 1.47512 70.2912Z" fill="#1A6241"/>
<path d="M27.6268 85.7202C27.6268 85.7202 2.65445 80.0147 2.07973 76.2117C1.50501 72.4086 5.95006 50.0693 20.2179 53.7132C34.021 57.2389 31.1753 78.4587 27.6268 85.7202Z" fill="#32DB8E"/>
<path d="M19.2032 83.9259L18.5365 83.742C18.4939 83.7312 18.4539 83.7119 18.4188 83.6854C18.3838 83.6588 18.3545 83.6255 18.3326 83.5873C18.3107 83.5492 18.2967 83.5071 18.2913 83.4635C18.286 83.4198 18.2895 83.3756 18.3017 83.3333C18.3127 83.2912 18.332 83.2517 18.3585 83.2172C18.3849 83.1826 18.4179 83.1536 18.4557 83.1319C18.4934 83.1102 18.5351 83.0963 18.5783 83.0908C18.6215 83.0854 18.6653 83.0886 18.7073 83.1002L19.3789 83.2874L19.9864 83.4515C20.0713 83.4746 20.1436 83.5304 20.1873 83.6068C20.2311 83.6831 20.2427 83.7737 20.2196 83.8586C20.1965 83.9434 20.1406 84.0157 20.0643 84.0594C19.9879 84.1031 19.8973 84.1147 19.8124 84.0916L19.2032 83.9259ZM22.3789 84.7728C22.2938 84.75 22.2212 84.6942 22.1772 84.6179C22.1331 84.5416 22.1212 84.4509 22.1441 84.3658C22.167 84.2807 22.2227 84.2081 22.2991 84.1641C22.3754 84.1201 22.4662 84.1082 22.5513 84.131C22.9996 84.2476 23.4298 84.3575 23.8354 84.4593C23.8781 84.4694 23.9183 84.488 23.9536 84.514C23.989 84.5399 24.0188 84.5726 24.0413 84.6103C24.0638 84.6479 24.0786 84.6897 24.0847 84.7331C24.0907 84.7765 24.0881 84.8207 24.0768 84.8631C24.0665 84.9056 24.0477 84.9456 24.0217 84.9808C23.9957 85.0159 23.9629 85.0456 23.9253 85.0679C23.8876 85.0902 23.8459 85.1048 23.8026 85.1108C23.7592 85.1168 23.7151 85.114 23.6729 85.1027C23.2656 85.001 22.8354 84.8894 22.3838 84.7745L22.3789 84.7728ZM15.9749 83.01C15.5479 82.8852 15.1226 82.7572 14.6973 82.6292C14.6554 82.617 14.6162 82.5965 14.5822 82.569C14.5483 82.5415 14.5202 82.5075 14.4995 82.4689C14.4789 82.4304 14.4661 82.3882 14.462 82.3446C14.4579 82.3011 14.4626 82.2572 14.4757 82.2155C14.5055 82.1343 14.5641 82.0669 14.6404 82.026C14.7167 81.9852 14.8053 81.9738 14.8895 81.9939C15.3131 82.122 15.7368 82.2478 16.1604 82.3715C16.2451 82.3956 16.3168 82.4524 16.3596 82.5294C16.4024 82.6063 16.4128 82.6971 16.3887 82.7818C16.3645 82.8665 16.3077 82.9381 16.2307 82.9809C16.1537 83.0237 16.0629 83.0341 15.9782 83.01H15.9749ZM26.246 85.738C26.2037 85.7272 26.164 85.7082 26.129 85.6821C26.0941 85.6559 26.0647 85.6232 26.0424 85.5857C26.0202 85.5482 26.0055 85.5067 25.9993 85.4635C25.9931 85.4204 25.9954 85.3764 26.0062 85.3342C26.017 85.2919 26.036 85.2522 26.0621 85.2173C26.0883 85.1824 26.121 85.153 26.1585 85.1307C26.196 85.1085 26.2376 85.0938 26.2807 85.0876C26.3239 85.0814 26.3679 85.0837 26.4102 85.0945C27.2312 85.2915 27.6992 85.3998 27.6992 85.3998C27.742 85.4089 27.7826 85.4265 27.8186 85.4515C27.8545 85.4765 27.8851 85.5085 27.9085 85.5455C27.9319 85.5825 27.9477 85.6238 27.9549 85.667C27.9621 85.7102 27.9605 85.7544 27.9504 85.797C27.9411 85.8397 27.9234 85.8801 27.8983 85.9159C27.8732 85.9516 27.8412 85.982 27.8042 86.0053C27.7672 86.0285 27.7259 86.0441 27.6828 86.0512C27.6396 86.0583 27.5955 86.0567 27.553 86.0465C27.553 86.0465 27.0768 85.9382 26.2542 85.7412L26.246 85.738ZM12.1669 81.8331H12.1522C11.7252 81.6952 11.3032 81.554 10.8878 81.4129C10.8464 81.3992 10.8081 81.3774 10.7752 81.3488C10.7423 81.3202 10.7155 81.2853 10.6962 81.2462C10.6769 81.207 10.6657 81.1645 10.663 81.121C10.6604 81.0775 10.6665 81.0338 10.6809 80.9927C10.6932 80.9503 10.7141 80.911 10.7424 80.8772C10.7707 80.8434 10.8057 80.8158 10.8452 80.7962C10.8848 80.7766 10.9279 80.7654 10.972 80.7633C11.0161 80.7613 11.0601 80.7684 11.1013 80.7842C11.5151 80.9254 11.9338 81.0655 12.3574 81.2044C12.399 81.2169 12.4378 81.2375 12.4715 81.265C12.5051 81.2924 12.533 81.3263 12.5536 81.3645C12.5742 81.4028 12.587 81.4447 12.5914 81.4879C12.5958 81.5312 12.5916 81.5748 12.5791 81.6164C12.5666 81.658 12.546 81.6968 12.5185 81.7304C12.491 81.7641 12.4572 81.792 12.4189 81.8125C12.3807 81.8331 12.3387 81.846 12.2955 81.8503C12.2522 81.8547 12.2086 81.8505 12.1669 81.838V81.8331ZM8.40665 80.52L8.37542 80.5101C7.94684 80.346 7.53143 80.1818 7.13241 80.0177C7.09163 80.0017 7.05443 79.9776 7.02309 79.947C6.99174 79.9164 6.96687 79.8798 6.94988 79.8395C6.9329 79.7991 6.92414 79.7557 6.92419 79.7119C6.92423 79.6681 6.93306 79.6247 6.95012 79.5844C6.96648 79.5439 6.99076 79.5071 7.02152 79.4761C7.05229 79.4451 7.08892 79.4206 7.12928 79.4039C7.16965 79.3873 7.21294 79.3788 7.25661 79.3791C7.30028 79.3794 7.34345 79.3883 7.38361 79.4055C7.77935 79.5696 8.18826 79.7338 8.61191 79.8897C8.65331 79.9032 8.69162 79.9246 8.72472 79.9529C8.75781 79.9812 8.78503 80.0157 8.80478 80.0545C8.82452 80.0933 8.83642 80.1356 8.83981 80.179C8.84321 80.2224 8.83802 80.266 8.82454 80.3074C8.81106 80.3488 8.78957 80.3871 8.76128 80.4202C8.73298 80.4533 8.69842 80.4805 8.65961 80.5002C8.62081 80.52 8.5785 80.5319 8.5351 80.5352C8.49169 80.5386 8.44805 80.5334 8.40665 80.52ZM27.8683 85.3342L27.8256 85.3177C27.7851 85.3009 27.7485 85.2762 27.7177 85.245C27.687 85.2138 27.6627 85.1768 27.6465 85.1361C27.6303 85.0954 27.6224 85.0519 27.6233 85.0081C27.6241 84.9643 27.6337 84.9212 27.6516 84.8811C27.8158 84.5036 27.98 84.0966 28.1294 83.6649C28.1443 83.6239 28.1671 83.5863 28.1965 83.5542C28.2259 83.522 28.2614 83.496 28.3009 83.4775C28.3404 83.4591 28.3831 83.4486 28.4266 83.4467C28.4702 83.4447 28.5137 83.4514 28.5547 83.4663C28.5957 83.4811 28.6333 83.5039 28.6655 83.5333C28.6976 83.5628 28.7237 83.5982 28.7421 83.6377C28.7606 83.6772 28.771 83.7199 28.773 83.7634C28.7749 83.8069 28.7683 83.8504 28.7534 83.8914C28.5892 84.3362 28.425 84.7548 28.2608 85.1438C28.2285 85.2165 28.171 85.2751 28.0988 85.3086C28.0266 85.3421 27.9447 85.3483 27.8683 85.326V85.3342ZM4.75307 78.9327C4.73106 78.9257 4.70963 78.9169 4.68901 78.9065C4.24565 78.6783 3.84828 78.4518 3.50838 78.2335C3.47161 78.21 3.43982 78.1795 3.41485 78.1438C3.38988 78.108 3.37219 78.0677 3.36281 78.0251C3.35344 77.9825 3.35256 77.9384 3.36021 77.8955C3.36785 77.8525 3.38389 77.8115 3.40739 77.7748C3.4309 77.738 3.46141 77.7062 3.49719 77.6813C3.53298 77.6563 3.57332 77.6387 3.61594 77.6293C3.65855 77.6199 3.70262 77.619 3.74559 77.6267C3.78855 77.6343 3.82957 77.6503 3.86633 77.6738C4.19475 77.8806 4.56751 78.0973 4.9928 78.3172C5.07446 78.349 5.14011 78.4119 5.17537 78.4921C5.21063 78.5723 5.21261 78.6632 5.18082 78.7448C5.14903 78.8265 5.08609 78.8921 5.00587 78.9273C4.92565 78.9626 4.83473 78.9645 4.75307 78.9327ZM1.96157 76.3164C1.896 76.299 1.83743 76.2617 1.79392 76.2097C1.7504 76.1577 1.72404 76.0934 1.71851 76.0259C1.68628 75.5679 1.68628 75.1083 1.71851 74.6504C1.7208 74.6068 1.73176 74.5641 1.75074 74.5248C1.76973 74.4855 1.79636 74.4504 1.82908 74.4215C1.86179 74.3927 1.89997 74.3706 1.94133 74.3566C1.98268 74.3426 2.02639 74.337 2.06993 74.3402C2.11367 74.3422 2.15656 74.353 2.19605 74.3719C2.23555 74.3908 2.27086 74.4174 2.29993 74.4501C2.32899 74.4828 2.35123 74.521 2.36531 74.5625C2.37939 74.6039 2.38502 74.6478 2.38191 74.6914C2.35142 75.1165 2.35142 75.5433 2.38191 75.9684C2.38619 76.0119 2.38175 76.0559 2.3688 76.0977C2.35585 76.1395 2.33469 76.1782 2.30654 76.2117C2.27839 76.2452 2.24381 76.2727 2.20487 76.2927C2.16594 76.3126 2.12343 76.3246 2.07979 76.3279C2.04036 76.3277 2.0013 76.3199 1.96482 76.3049L1.96157 76.3164ZM29.1343 81.5688C29.0924 81.5576 29.0531 81.5382 29.0186 81.5117C28.9842 81.4852 28.9554 81.4521 28.9339 81.4144C28.9124 81.3767 28.8985 81.3351 28.8932 81.292C28.8879 81.2489 28.8911 81.2052 28.9028 81.1634C29.0128 80.7481 29.1179 80.323 29.2164 79.8848C29.2262 79.8423 29.2441 79.8022 29.2693 79.7666C29.2945 79.7311 29.3265 79.7009 29.3634 79.6777C29.4003 79.6546 29.4414 79.6389 29.4844 79.6316C29.5274 79.6243 29.5713 79.6256 29.6138 79.6353C29.6563 79.645 29.6965 79.6629 29.732 79.6881C29.7675 79.7134 29.7977 79.7453 29.8209 79.7822C29.8441 79.8191 29.8598 79.8602 29.8671 79.9031C29.8743 79.9461 29.8731 79.99 29.8634 80.0325C29.7632 80.4773 29.6565 80.9123 29.5432 81.3325C29.5325 81.3748 29.5135 81.4147 29.4872 81.4496C29.4609 81.4846 29.4279 81.5139 29.3902 81.5359C29.3524 81.5579 29.3106 81.5722 29.2672 81.5778C29.2238 81.5835 29.1798 81.5804 29.1376 81.5688H29.1343ZM2.28998 72.359C2.21 72.3377 2.14102 72.2869 2.09687 72.2169C2.05272 72.1469 2.03663 72.0628 2.05185 71.9815C2.1241 71.5613 2.21606 71.1214 2.30474 70.6684C2.3133 70.6254 2.3304 70.5847 2.35497 70.5484C2.37954 70.5122 2.41109 70.4812 2.44781 70.4574C2.48454 70.4335 2.52566 70.4172 2.56876 70.4095C2.61187 70.4018 2.65612 70.4027 2.69885 70.4123C2.7418 70.4209 2.78259 70.438 2.81884 70.4625C2.85509 70.4871 2.88606 70.5186 2.90992 70.5553C2.93379 70.592 2.95009 70.6332 2.95783 70.6762C2.96557 70.7193 2.96459 70.7635 2.95498 70.8062C2.85975 71.2511 2.776 71.6828 2.70374 72.0964C2.69661 72.1393 2.68101 72.1804 2.65784 72.2172C2.63468 72.2541 2.60441 72.286 2.5688 72.311C2.5332 72.3361 2.49298 72.3538 2.45046 72.3632C2.40794 72.3725 2.36401 72.3733 2.32117 72.3656L2.28998 72.359ZM29.9537 77.6705C29.8744 77.6496 29.8059 77.5997 29.7615 77.5308C29.7171 77.4618 29.7002 77.3787 29.714 77.2979C29.7829 76.8695 29.8453 76.4329 29.8995 75.9848C29.9104 75.8978 29.9554 75.8186 30.0247 75.7647C30.094 75.7109 30.1819 75.6867 30.269 75.6976C30.3561 75.7085 30.4353 75.7535 30.4892 75.8228C30.5431 75.892 30.5672 75.9798 30.5564 76.0669C30.5005 76.515 30.4365 76.9582 30.3692 77.3931C30.3628 77.4363 30.3478 77.4778 30.3252 77.5152C30.3026 77.5525 30.2728 77.585 30.2374 77.6106C30.2021 77.6363 30.162 77.6547 30.1195 77.6647C30.077 77.6747 30.0329 77.6761 29.9899 77.6689L29.9537 77.6705ZM3.18818 68.4788C3.14597 68.4672 3.10648 68.4474 3.07205 68.4204C3.03761 68.3934 3.00892 68.3598 2.98766 68.3216C2.96639 68.2834 2.95297 68.2413 2.94821 68.1978C2.94345 68.1543 2.94743 68.1103 2.95992 68.0684C3.07979 67.6466 3.21117 67.2182 3.35239 66.7865C3.36558 66.7448 3.38694 66.7062 3.41525 66.673C3.44356 66.6397 3.47824 66.6124 3.51724 66.5927C3.55623 66.5729 3.59876 66.5612 3.64236 66.5581C3.68595 66.5551 3.7297 66.5607 3.77108 66.5748C3.81256 66.588 3.85101 66.6093 3.88417 66.6375C3.91734 66.6656 3.94456 66.7001 3.96427 66.7389C3.98398 66.7777 3.99579 66.82 3.99899 66.8634C4.00219 66.9068 3.99672 66.9504 3.98291 66.9917C3.84498 67.4162 3.71693 67.8364 3.5987 68.2523C3.57261 68.3347 3.51502 68.4035 3.43846 68.4438C3.36191 68.484 3.27257 68.4925 3.18983 68.4673L3.18818 68.4788ZM30.3889 73.7066C30.3152 73.6869 30.2507 73.6423 30.2063 73.5803C30.162 73.5183 30.1406 73.4428 30.1458 73.3668C30.1738 72.9319 30.1918 72.492 30.2033 72.0537C30.2033 72.0098 30.2121 71.9662 30.2292 71.9258C30.2463 71.8853 30.2714 71.8486 30.3029 71.818C30.3345 71.7874 30.3719 71.7634 30.4129 71.7475C30.4539 71.7316 30.4976 71.7241 30.5416 71.7254C30.5857 71.7254 30.6294 71.7342 30.67 71.7515C30.7106 71.7687 30.7473 71.7939 30.778 71.8256C30.8086 71.8573 30.8326 71.8949 30.8484 71.936C30.8642 71.9772 30.8715 72.0211 30.87 72.0652C30.859 72.5138 30.8399 72.9598 30.8125 73.4029C30.8104 73.4466 30.7996 73.4895 30.7807 73.529C30.7618 73.5685 30.7353 73.6038 30.7025 73.6328C30.6698 73.6619 30.6316 73.6841 30.5901 73.6982C30.5487 73.7123 30.5048 73.7179 30.4611 73.7148C30.4369 73.7109 30.4132 73.7043 30.3905 73.6951L30.3889 73.7066ZM4.48704 64.7019L4.44927 64.6888C4.40869 64.6728 4.37172 64.6488 4.34051 64.6183C4.3093 64.5878 4.28448 64.5514 4.26751 64.5112C4.25054 64.471 4.24174 64.4278 4.24165 64.3842C4.24156 64.3406 4.25018 64.2974 4.26699 64.2571C4.43119 63.8451 4.61346 63.4364 4.79901 63.0261C4.81673 62.9861 4.84229 62.95 4.87414 62.92C4.90599 62.89 4.94351 62.8667 4.98451 62.8514C5.0255 62.8361 5.06915 62.8292 5.11287 62.831C5.15659 62.8328 5.19952 62.8433 5.23911 62.8619C5.27912 62.8797 5.31519 62.9052 5.34519 62.937C5.37519 62.9688 5.39852 63.0064 5.41382 63.0473C5.42912 63.0883 5.43607 63.1319 5.43427 63.1756C5.43246 63.2193 5.42194 63.2622 5.40332 63.3018C5.21941 63.699 5.04696 64.1028 4.88112 64.5066C4.85123 64.5821 4.79443 64.6439 4.72164 64.68C4.64885 64.716 4.56526 64.7239 4.48704 64.7019ZM30.4118 69.7131C30.3442 69.695 30.2842 69.6557 30.2405 69.6011C30.1968 69.5465 30.1717 69.4793 30.1688 69.4094C30.1458 68.9717 30.1141 68.534 30.0736 68.0963C30.0695 68.0532 30.0739 68.0097 30.0866 67.9683C30.0993 67.9269 30.1201 67.8884 30.1477 67.8551C30.1753 67.8217 30.2092 67.7941 30.2475 67.7738C30.2858 67.7535 30.3277 67.7409 30.3708 67.7369C30.4139 67.7328 30.4575 67.7372 30.4989 67.7499C30.5403 67.7626 30.5788 67.7834 30.6122 67.8109C30.6455 67.8385 30.6732 67.8724 30.6935 67.9107C30.7137 67.949 30.7263 67.9908 30.7304 68.034C30.7731 68.4771 30.8043 68.9236 30.8273 69.37C30.8302 69.4137 30.8243 69.4575 30.81 69.4988C30.7957 69.5402 30.7733 69.5783 30.7441 69.6108C30.7149 69.6434 30.6794 69.6698 30.6399 69.6885C30.6003 69.7072 30.5574 69.7178 30.5137 69.7196C30.4807 69.7219 30.4475 69.7197 30.4151 69.7131H30.4118ZM6.22928 61.1221C6.20156 61.115 6.17498 61.1039 6.15042 61.0892C6.11235 61.0678 6.07895 61.039 6.05216 61.0045C6.02538 60.97 6.00575 60.9304 5.99444 60.8883C5.98312 60.8461 5.98034 60.802 5.98626 60.7588C5.99218 60.7155 6.00668 60.6738 6.02891 60.6362C6.25552 60.2456 6.49198 59.8615 6.73665 59.4872C6.76058 59.4508 6.79147 59.4195 6.82753 59.395C6.86359 59.3705 6.90414 59.3533 6.94684 59.3445C6.98953 59.3356 7.03354 59.3353 7.07637 59.3434C7.11919 59.3516 7.15999 59.3681 7.19643 59.392C7.23288 59.416 7.26425 59.4468 7.28876 59.4829C7.31327 59.5189 7.33043 59.5595 7.33927 59.6021C7.34811 59.6448 7.34848 59.6888 7.34031 59.7316C7.33215 59.7744 7.31562 59.8152 7.29169 59.8516C7.05413 60.216 6.82476 60.5875 6.60363 60.9661C6.56785 61.0296 6.51198 61.0794 6.4448 61.1076C6.37761 61.1358 6.30292 61.1409 6.23253 61.1221H6.22928ZM29.9439 65.7639C29.884 65.7473 29.8299 65.7144 29.7876 65.6689C29.7453 65.6234 29.7164 65.5671 29.7041 65.5062C29.622 65.0762 29.5268 64.6494 29.4201 64.2292C29.4093 64.187 29.4069 64.143 29.4131 64.0999C29.4193 64.0567 29.434 64.0152 29.4563 63.9777C29.4785 63.9402 29.5079 63.9074 29.5429 63.8813C29.5778 63.8552 29.6175 63.8362 29.6598 63.8254C29.7021 63.8147 29.746 63.8123 29.7892 63.8185C29.8324 63.8247 29.8739 63.8394 29.9114 63.8616C29.9489 63.8839 29.9817 63.9133 30.0078 63.9482C30.0339 63.9831 30.053 64.0228 30.0637 64.0651C30.1721 64.4984 30.2706 64.9366 30.356 65.3782C30.3679 65.4337 30.3652 65.4913 30.3481 65.5454C30.3311 65.5995 30.3003 65.6483 30.2588 65.687C30.2173 65.7256 30.1665 65.7529 30.1113 65.7661C30.0561 65.7793 29.9984 65.778 29.9439 65.7623V65.7639ZM8.52487 57.8738C8.47729 57.8601 8.4331 57.8366 8.39514 57.8048C8.36175 57.7764 8.33439 57.7415 8.31468 57.7024C8.29498 57.6632 8.28332 57.6204 8.28041 57.5767C8.2775 57.5329 8.28338 57.489 8.29773 57.4476C8.31207 57.4061 8.33461 57.368 8.36395 57.3354C8.66609 56.9891 8.97971 56.6591 9.29663 56.3506C9.3279 56.3203 9.36483 56.2964 9.40531 56.2804C9.4458 56.2644 9.48902 56.2565 9.53256 56.2572C9.57609 56.2579 9.61908 56.2671 9.65904 56.2844C9.699 56.3017 9.73514 56.3267 9.76544 56.3579C9.79573 56.3892 9.81957 56.4261 9.83559 56.4666C9.85162 56.507 9.85953 56.5503 9.85884 56.5938C9.85816 56.6373 9.84888 56.6802 9.83158 56.7202C9.81429 56.7601 9.78933 56.7963 9.75806 56.8266C9.45592 57.1187 9.15375 57.4372 8.86311 57.7687C8.82293 57.8161 8.77014 57.8511 8.71085 57.8697C8.65155 57.8883 8.58822 57.8897 8.52816 57.8738H8.52487ZM28.8371 61.9444C28.7876 61.931 28.7419 61.9062 28.7037 61.872C28.6655 61.8378 28.6358 61.7952 28.6171 61.7474C28.4529 61.342 28.2755 60.9432 28.085 60.5607C28.0459 60.4819 28.0396 60.3908 28.0676 60.3074C28.0956 60.224 28.1557 60.1551 28.2345 60.1159C28.3133 60.0767 28.4045 60.0704 28.4879 60.0985C28.5714 60.1265 28.6403 60.1865 28.6795 60.2653C28.8782 60.6625 29.0637 61.086 29.2328 61.4996C29.2499 61.54 29.2586 61.5835 29.2585 61.6274C29.2585 61.6713 29.2496 61.7147 29.2324 61.7551C29.2153 61.7955 29.1902 61.832 29.1587 61.8626C29.1272 61.8931 29.0899 61.917 29.049 61.9329C28.9823 61.958 28.9095 61.962 28.8404 61.9444H28.8371ZM11.5151 55.2656C11.4513 55.2504 11.3936 55.2165 11.3492 55.1683C11.3049 55.1201 11.276 55.0597 11.2663 54.9949C11.2566 54.9301 11.2665 54.8639 11.2947 54.8048C11.323 54.7457 11.3682 54.6964 11.4247 54.6632C11.8105 54.4219 12.2096 54.2027 12.6202 54.0066C12.6996 53.9688 12.7909 53.964 12.8739 53.9934C12.9569 54.0228 13.0248 54.084 13.0627 54.1634C13.1006 54.2429 13.1053 54.3341 13.0759 54.4171C13.0465 54.5 12.9854 54.5679 12.9059 54.6058C12.5186 54.791 12.1424 54.9987 11.7794 55.2279C11.7409 55.2518 11.6978 55.2676 11.6528 55.2741C11.6079 55.2806 11.5621 55.2777 11.5183 55.2656H11.5151ZM26.9028 58.4794C26.833 58.4591 26.7715 58.4171 26.7271 58.3596C26.4671 58.0174 26.1898 57.6886 25.8962 57.3748C25.8663 57.343 25.843 57.3056 25.8276 57.2648C25.8122 57.224 25.805 57.1806 25.8063 57.137C25.8077 57.0934 25.8176 57.0505 25.8356 57.0108C25.8536 56.971 25.8792 56.9352 25.911 56.9053C25.9428 56.8755 25.9802 56.8522 26.021 56.8368C26.0618 56.8214 26.1052 56.8141 26.1489 56.8155C26.1925 56.8169 26.2354 56.8268 26.2751 56.8448C26.3149 56.8627 26.3507 56.8883 26.3806 56.9201C26.6899 57.2507 26.982 57.5969 27.2558 57.9575C27.3011 58.0121 27.3274 58.08 27.3308 58.1509C27.3342 58.2217 27.3146 58.2918 27.2748 58.3506C27.2351 58.4094 27.1774 58.4537 27.1103 58.4769C27.0432 58.5002 26.9704 58.501 26.9028 58.4794ZM15.1883 53.8048C15.1135 53.7876 15.0471 53.7448 15.0005 53.6837C14.954 53.6227 14.9304 53.5473 14.9337 53.4706C14.937 53.3939 14.9671 53.3209 15.0187 53.2641C15.0703 53.2073 15.1402 53.1704 15.2163 53.1597C15.6643 53.0754 16.1174 53.0206 16.5726 52.9956C16.6597 52.991 16.745 53.0212 16.8098 53.0795C16.8747 53.1379 16.9137 53.2195 16.9183 53.3066C16.9228 53.3937 16.8926 53.479 16.8342 53.5438C16.7759 53.6086 16.6942 53.6476 16.6071 53.6521C16.1806 53.6745 15.756 53.7249 15.3361 53.8031C15.2887 53.8147 15.2393 53.8153 15.1916 53.8048H15.1883ZM24.0357 55.7531C24.0004 55.7445 23.967 55.7295 23.9372 55.7088C23.5814 55.4695 23.2124 55.2503 22.8321 55.0522C22.7931 55.0326 22.7584 55.0054 22.73 54.9722C22.7017 54.939 22.6802 54.9006 22.6669 54.859C22.6536 54.8174 22.6487 54.7736 22.6525 54.7301C22.6564 54.6866 22.6689 54.6444 22.6893 54.6058C22.7089 54.5666 22.7361 54.5317 22.7694 54.5032C22.8028 54.4747 22.8415 54.4531 22.8833 54.4398C22.925 54.4265 22.9691 54.4217 23.0127 54.4257C23.0564 54.4297 23.0989 54.4423 23.1375 54.463C23.5403 54.6727 23.9311 54.9045 24.3083 55.1573C24.345 55.1813 24.3765 55.2123 24.4009 55.2487C24.4254 55.285 24.4423 55.3259 24.4507 55.3688C24.4591 55.4118 24.4589 55.4561 24.4499 55.4989C24.441 55.5418 24.4235 55.5825 24.3986 55.6185C24.3604 55.6758 24.3051 55.7197 24.2406 55.7438C24.176 55.768 24.1055 55.7712 24.039 55.7531H24.0357ZM19.1391 53.8195C19.0533 53.7999 18.9788 53.7471 18.932 53.6726C18.8852 53.5981 18.8699 53.5081 18.8895 53.4223C18.9091 53.3366 18.962 53.2621 19.0365 53.2153C19.1111 53.1685 19.2011 53.1532 19.2869 53.1728C19.6153 53.2319 19.9552 53.3041 20.2968 53.3911L20.548 53.4584C20.6359 53.4821 20.7117 53.5379 20.7604 53.6148C20.8091 53.6918 20.827 53.7842 20.8107 53.8737C20.8032 53.9149 20.7874 53.9542 20.7641 53.989C20.7407 54.0238 20.7105 54.0535 20.6752 54.0761C20.6399 54.0987 20.6004 54.1138 20.559 54.1205C20.5176 54.1272 20.4753 54.1253 20.4347 54.115L20.1326 54.0346C19.8042 53.9525 19.4856 53.8819 19.1703 53.8261L19.1391 53.8195Z" fill="#1A6241"/>
<path d="M23.4672 49.4781C18.9138 48.3882 15.247 49.2237 12.293 51.1195C14.2634 50.7239 16.4375 50.8224 18.9072 51.3378C39.2211 55.5627 32.2538 82.923 28.8695 88.0228C29.1339 88.0556 29.2801 88.0704 29.2801 88.0704L32.863 86.8262C36.1915 84.2903 42.6054 54.0527 23.4672 49.4781Z" fill="#32DB8E"/>
<path d="M28.7888 88.3368C28.7375 88.3238 28.6901 88.2987 28.6506 88.2634C28.6111 88.2282 28.5807 88.184 28.562 88.1345C28.5433 88.085 28.5368 88.0317 28.5431 87.9792C28.5495 87.9267 28.5684 87.8765 28.5983 87.8329C30.9235 84.3301 34.5459 71.2548 31.0007 61.7939C29.1024 56.7286 25.4538 53.4228 20.1631 51.9718C19.7411 51.8553 19.3026 51.7502 18.8494 51.6567C16.3502 51.1364 14.2287 51.0658 12.3666 51.4384C12.2887 51.46 12.2055 51.4522 12.1331 51.4164C12.0606 51.3806 12.0039 51.3193 11.9738 51.2443C11.9437 51.1693 11.9423 51.0858 11.97 51.0099C11.9976 50.9339 12.0523 50.8709 12.1236 50.8327C15.4553 48.6989 19.301 48.1376 23.5556 49.1552C23.7592 49.2045 23.9579 49.2553 24.1566 49.3095C30.6329 51.0871 34.853 56.1426 36.3587 63.931C38.2307 73.6037 35.3029 85.3905 33.0746 87.0844C33.0468 87.1056 33.0157 87.1222 32.9826 87.1336L29.3997 88.3778C29.3537 88.393 29.3051 88.3986 29.2568 88.3942C29.2568 88.3942 29.1074 88.3794 28.8397 88.345L28.7888 88.3368ZM20.3306 51.3317C25.8462 52.8451 29.6443 56.287 31.623 61.5608C35.0713 70.7788 31.8595 83.3913 29.4883 87.6424L32.7068 86.5247C34.5262 85.0162 37.5837 73.7859 35.7019 64.0573C34.6625 58.6834 31.6674 51.7749 23.3865 49.8003C19.9381 48.9796 16.7755 49.234 13.9577 50.5652C15.641 50.4898 17.3268 50.6383 18.9709 51.0067C19.4373 51.0986 19.8888 51.2119 20.324 51.3317H20.3306Z" fill="#1A6241"/>
<path d="M10.7986 63.146C10.7986 63.146 16.9284 66.6503 25.2011 67.5039L23.0041 77.2291C23.0041 77.2291 22.5114 80.4708 19.2273 80.1737C15.9432 79.8767 8.80847 77.0436 8.80847 77.0436C8.80847 77.0436 6.54406 75.9504 7.56542 72.7202C8.58678 69.4899 10.7986 63.146 10.7986 63.146Z" fill="#32DB8E"/>
<path d="M16.0192 79.8537C12.6694 78.9329 8.72191 77.3687 8.6825 77.3539C8.64309 77.3391 6.15045 76.0835 7.2457 72.6202C8.25885 69.4244 10.4641 63.1001 10.4871 63.0361C10.5031 62.9902 10.5291 62.9485 10.5631 62.9138C10.5972 62.8792 10.6385 62.8526 10.6842 62.8358C10.7296 62.8184 10.7784 62.8112 10.827 62.8149C10.8755 62.8186 10.9227 62.833 10.9649 62.8572C10.9961 62.8752 14.167 64.6627 18.9322 65.9758C20.9973 66.5458 23.1057 66.9454 25.2361 67.1708C25.283 67.1752 25.3284 67.1896 25.3692 67.2132C25.4099 67.2367 25.4452 67.2687 25.4725 67.307C25.5002 67.3451 25.5194 67.3887 25.5288 67.4349C25.5381 67.481 25.5374 67.5287 25.5267 67.5745L23.328 77.2997C23.328 77.3112 22.7599 80.8222 19.1933 80.5005C18.1191 80.3736 17.0574 80.1573 16.0192 79.8537ZM10.9847 63.6237C10.492 65.0238 8.74652 70.0777 7.87787 72.8155C6.95996 75.7158 8.86311 76.7023 8.95178 76.7417C8.96656 76.7417 12.8812 78.2977 16.1949 79.2038C17.1953 79.499 18.2185 79.7103 19.254 79.8357C22.2098 80.0999 22.658 77.2915 22.6761 77.1717L24.796 67.7846C22.7556 67.5493 20.7365 67.1569 18.7565 66.611C16.0701 65.8849 13.4657 64.8838 10.9847 63.6237Z" fill="#1A6241"/>
<path d="M57.2807 54.253L53.5352 53.8098L57.3004 53.5899C57.3435 53.5874 57.3867 53.5934 57.4275 53.6077C57.4683 53.6219 57.5059 53.644 57.5382 53.6727C57.5704 53.7014 57.5967 53.7362 57.6155 53.7751C57.6343 53.814 57.6452 53.8562 57.6477 53.8993C57.6502 53.9424 57.6441 53.9856 57.6299 54.0264C57.6157 54.0671 57.5936 54.1047 57.5649 54.137C57.5361 54.1692 57.5013 54.1954 57.4624 54.2142C57.4235 54.233 57.3813 54.244 57.3382 54.2465C57.3194 54.2511 57.3001 54.2533 57.2807 54.253Z" fill="#1A6241"/>
<path d="M57.7339 81.9892L52.6436 84.3002L57.4203 81.4032C57.4957 81.3575 57.5861 81.3436 57.6717 81.3645C57.7573 81.3854 57.831 81.4395 57.8768 81.5148C57.9225 81.5901 57.9364 81.6805 57.9155 81.7661C57.8946 81.8516 57.8405 81.9254 57.7651 81.9711C57.7552 81.9779 57.7448 81.9839 57.7339 81.9892Z" fill="#1A6241"/>
<path d="M58.233 79.5468L53.1426 81.8563L57.9193 78.9592C57.9949 78.9135 58.0855 78.8997 58.1713 78.9208C58.257 78.9419 58.3309 78.9961 58.3766 79.0717C58.4224 79.1472 58.4362 79.2378 58.4151 79.3235C58.394 79.4092 58.3397 79.4831 58.2641 79.5288L58.233 79.5468Z" fill="#1A6241"/>
<path d="M58.9 76.8056L53.8096 79.1151L58.5863 76.218C58.6619 76.1723 58.7525 76.1585 58.8383 76.1796C58.924 76.2006 58.9979 76.2549 59.0436 76.3304C59.0894 76.406 59.1032 76.4966 59.0821 76.5823C59.061 76.668 59.0067 76.7419 58.9311 76.7876L58.9 76.8056Z" fill="#1A6241"/>
<path d="M59.4644 74.122L54.374 76.4314L59.1507 73.536C59.2261 73.4903 59.3165 73.4764 59.4021 73.4973C59.4878 73.5182 59.5615 73.5723 59.6072 73.6476C59.653 73.7229 59.6669 73.8133 59.646 73.8989C59.625 73.9845 59.5709 74.0582 59.4956 74.1039L59.4644 74.122Z" fill="#1A6241"/>
<path d="M60.1519 71.3007L55.0615 73.6101L59.8366 70.7147C59.912 70.669 60.0024 70.6551 60.088 70.676C60.1736 70.697 60.2474 70.751 60.2931 70.8263C60.3389 70.9016 60.3528 70.992 60.3318 71.0776C60.3109 71.1632 60.2568 71.2369 60.1814 71.2826L60.1519 71.3007Z" fill="#1A6241"/>
<path d="M60.5708 68.8354L55.4805 71.1448L60.2588 68.2494C60.3342 68.2037 60.4246 68.1898 60.5102 68.2107C60.5958 68.2316 60.6696 68.2857 60.7153 68.361C60.7611 68.4363 60.775 68.5267 60.7541 68.6123C60.7331 68.6978 60.679 68.7716 60.6037 68.8173L60.5708 68.8354Z" fill="#1A6241"/>
<path d="M61.4283 65.7169L56.3379 68.0263L61.113 65.1293C61.1503 65.1066 61.1917 65.0916 61.2348 65.0849C61.278 65.0783 61.322 65.0802 61.3644 65.0906C61.4068 65.1009 61.4467 65.1195 61.4819 65.1453C61.5171 65.1711 61.5468 65.2036 61.5695 65.2409C61.5921 65.2782 61.6072 65.3196 61.6138 65.3627C61.6205 65.4058 61.6186 65.4498 61.6082 65.4921C61.5978 65.5345 61.5792 65.5744 61.5534 65.6096C61.5276 65.6448 61.4951 65.6745 61.4578 65.6972L61.4283 65.7169Z" fill="#1A6241"/>
<path d="M62.2867 62.5961L57.1963 64.9055L61.9731 62.0101C62.0104 61.9875 62.0518 61.9724 62.0949 61.9658C62.138 61.9591 62.182 61.9611 62.2244 61.9714C62.2668 61.9818 62.3067 62.0004 62.3419 62.0262C62.3771 62.052 62.4069 62.0845 62.4295 62.1217C62.4522 62.159 62.4672 62.2004 62.4739 62.2435C62.4805 62.2866 62.4786 62.3306 62.4682 62.373C62.4579 62.4154 62.4393 62.4553 62.4135 62.4905C62.3877 62.5257 62.3552 62.5554 62.3179 62.578L62.2867 62.5961Z" fill="#1A6241"/>
<path d="M62.9605 59.5138L57.8701 61.8232L62.6468 58.9261C62.7222 58.8804 62.8126 58.8665 62.8982 58.8874C62.9838 58.9084 63.0576 58.9624 63.1033 59.0378C63.1491 59.1131 63.163 59.2035 63.1421 59.289C63.1211 59.3746 63.067 59.4484 62.9917 59.4941L62.9605 59.5138Z" fill="#1A6241"/>
<path d="M57.8286 52.2475L54.083 51.8027L57.8532 51.5909C57.9403 51.5857 58.0259 51.6153 58.0912 51.6732C58.1565 51.731 58.1961 51.8124 58.2013 51.8995C58.2065 51.9866 58.1769 52.0721 58.119 52.1374C58.0611 52.2027 57.9797 52.2423 57.8926 52.2475C57.8713 52.2494 57.8499 52.2494 57.8286 52.2475Z" fill="#1A6241"/>
<path d="M58.2416 50.13L54.4961 49.6851L58.2613 49.4669C58.3044 49.4644 58.3477 49.4704 58.3884 49.4846C58.4292 49.4988 58.4668 49.5209 58.4991 49.5496C58.5313 49.5784 58.5576 49.6132 58.5764 49.652C58.5952 49.6909 58.6061 49.7331 58.6086 49.7762C58.6111 49.8193 58.6051 49.8625 58.5909 49.9033C58.5766 49.9441 58.5545 49.9817 58.5258 50.0139C58.497 50.0461 58.4622 50.0724 58.4233 50.0912C58.3844 50.11 58.3422 50.1209 58.2991 50.1234C58.2803 50.1281 58.261 50.1303 58.2416 50.13Z" fill="#1A6241"/>
<path d="M58.5493 48.0651L54.8037 47.6203L58.569 47.402C58.6121 47.3994 58.6553 47.4053 58.6961 47.4194C58.737 47.4335 58.7746 47.4555 58.8069 47.4842C58.8393 47.5128 58.8656 47.5476 58.8845 47.5864C58.9034 47.6253 58.9145 47.6674 58.9171 47.7105C58.9197 47.7536 58.9137 47.7969 58.8996 47.8377C58.8855 47.8785 58.8635 47.9161 58.8348 47.9484C58.8061 47.9807 58.7714 48.0071 58.7325 48.026C58.6937 48.0449 58.6515 48.0559 58.6084 48.0585C58.5889 48.0624 58.5691 48.0646 58.5493 48.0651Z" fill="#1A6241"/>
<path d="M58.5825 45.7523L54.8369 45.3074L58.6022 45.0875C58.6906 45.0823 58.7774 45.1124 58.8436 45.1712C58.9098 45.23 58.95 45.3126 58.9552 45.401C58.9604 45.4894 58.9303 45.5762 58.8715 45.6424C58.8127 45.7086 58.73 45.7487 58.6416 45.7539C58.6219 45.755 58.6021 45.7545 58.5825 45.7523Z" fill="#1A6241"/>
<path d="M59.0593 43.3841L55.3154 42.9392L59.0807 42.7193C59.1691 42.7143 59.2559 42.7446 59.3219 42.8035C59.388 42.8625 59.4279 42.9452 59.4329 43.0336C59.4379 43.122 59.4076 43.2087 59.3486 43.2748C59.2896 43.3408 59.2068 43.3807 59.1184 43.3857C59.0987 43.3868 59.079 43.3862 59.0593 43.3841Z" fill="#1A6241"/>
<path d="M59.2527 41.1188L55.5088 40.674L59.2724 40.4557C59.3155 40.4531 59.3587 40.459 59.3996 40.4731C59.4404 40.4872 59.4781 40.5092 59.5104 40.5379C59.5427 40.5665 59.5691 40.6013 59.588 40.6401C59.6069 40.679 59.6179 40.7211 59.6205 40.7642C59.6231 40.8074 59.6171 40.8505 59.603 40.8914C59.5889 40.9322 59.5669 40.9698 59.5382 41.0021C59.5096 41.0345 59.4748 41.0608 59.436 41.0797C59.3971 41.0986 59.3549 41.1096 59.3118 41.1122C59.2923 41.1161 59.2725 41.1183 59.2527 41.1188Z" fill="#1A6241"/>
<path d="M59.3442 38.9078L55.5986 38.4629L59.3639 38.2446C59.407 38.2459 59.4494 38.2557 59.4888 38.2734C59.5281 38.2911 59.5636 38.3164 59.5932 38.3478C59.6228 38.3792 59.6459 38.4161 59.6612 38.4564C59.6765 38.4967 59.6837 38.5397 59.6824 38.5828C59.6811 38.6259 59.6714 38.6683 59.6537 38.7076C59.636 38.747 59.6107 38.7824 59.5793 38.812C59.5478 38.8416 59.5109 38.8647 59.4706 38.88C59.4302 38.8953 59.3873 38.9025 59.3442 38.9012V38.9078Z" fill="#1A6241"/>
<path d="M59.5678 36.2159L55.8223 35.7711L59.5859 35.5528C59.673 35.5476 59.7586 35.5772 59.8239 35.635C59.8891 35.6929 59.9288 35.7744 59.934 35.8614C59.9392 35.9485 59.9096 36.0341 59.8517 36.0993C59.7938 36.1646 59.7124 36.2042 59.6253 36.2094C59.6064 36.2133 59.5871 36.2154 59.5678 36.2159Z" fill="#1A6241"/>
<path d="M59.768 33.6062L56.0225 33.1598L59.7877 32.9415C59.8308 32.939 59.874 32.945 59.9148 32.9592C59.9556 32.9734 59.9932 32.9955 60.0254 33.0243C60.0577 33.053 60.084 33.0878 60.1028 33.1267C60.1215 33.1656 60.1325 33.2078 60.135 33.2509C60.1375 33.294 60.1314 33.3371 60.1172 33.3779C60.103 33.4187 60.0809 33.4563 60.0522 33.4885C60.0234 33.5208 59.9886 33.547 59.9497 33.5658C59.9108 33.5846 59.8686 33.5955 59.8255 33.598L59.768 33.6062Z" fill="#1A6241"/>
<path d="M59.8012 31.292L56.0557 30.8472L59.8209 30.6289C59.908 30.6315 59.9905 30.6686 60.0502 30.732C60.11 30.7954 60.1421 30.88 60.1394 30.967C60.1368 31.0541 60.0997 31.1365 60.0363 31.1963C59.9729 31.256 59.8883 31.2881 59.8012 31.2855V31.292Z" fill="#1A6241"/>
<path d="M59.9359 28.9199L56.1904 28.4767L59.9557 28.2584C60.0438 28.2532 60.1305 28.2832 60.1966 28.3418C60.2626 28.4005 60.3027 28.4829 60.3079 28.5711C60.3131 28.6592 60.2831 28.7459 60.2244 28.8119C60.1658 28.8779 60.0833 28.9179 59.9951 28.9232C59.9753 28.9238 59.9555 28.9227 59.9359 28.9199Z" fill="#1A6241"/>
<path d="M59.9887 26.5286L56.2432 26.0821L60.0084 25.8638C60.0516 25.8613 60.0947 25.8674 60.1355 25.8816C60.1763 25.8958 60.2139 25.9179 60.2462 25.9466C60.2784 25.9754 60.3047 26.0102 60.3235 26.049C60.3423 26.0879 60.3532 26.1301 60.3557 26.1732C60.3582 26.2163 60.3521 26.2595 60.3379 26.3003C60.3237 26.3411 60.3016 26.3786 60.2729 26.4109C60.2441 26.4431 60.2093 26.4694 60.1704 26.4882C60.1315 26.5069 60.0893 26.5179 60.0462 26.5204L59.9887 26.5286Z" fill="#1A6241"/>
<path d="M60.0453 24.1334L56.2998 23.6903L60.065 23.4703C60.1082 23.4677 60.1514 23.4737 60.1922 23.4878C60.233 23.5019 60.2707 23.5239 60.303 23.5525C60.3354 23.5812 60.3617 23.6159 60.3806 23.6548C60.3995 23.6936 60.4106 23.7358 60.4132 23.7789C60.4158 23.822 60.4098 23.8652 60.3957 23.906C60.3816 23.9468 60.3596 23.9845 60.3309 24.0168C60.3022 24.0491 60.2675 24.0754 60.2286 24.0943C60.1898 24.1132 60.1476 24.1243 60.1044 24.1269C60.0851 24.1316 60.0653 24.1337 60.0453 24.1334Z" fill="#1A6241"/>
<path d="M59.6775 21.7174L55.9336 21.2726L59.6988 21.0543C59.7859 21.0492 59.8715 21.079 59.9366 21.1371C60.0017 21.1951 60.0411 21.2766 60.0461 21.3637C60.0511 21.4507 60.0213 21.5362 59.9633 21.6013C59.9052 21.6664 59.8237 21.7058 59.7366 21.7108C59.7171 21.7146 59.6973 21.7168 59.6775 21.7174Z" fill="#1A6241"/>
</g>
</svg>
