<svg width="57" height="76" viewBox="0 0 57 76" fill="none" xmlns="http://www.w3.org/2000/svg">
<g opacity="0.4">
<path d="M18.7066 5.73212C18.2934 5.06324 18.0836 4.6759 17.4393 4.31135C16.9384 4.0284 16.4039 3.80969 15.8483 3.66036C15.1651 3.47646 14.4444 3.53832 13.7628 3.3479C13.0526 3.16832 12.4016 2.8065 11.8741 2.29819C11.3275 1.73509 10.898 1.07107 10.4099 0.45752C9.61231 1.58347 9.29401 2.98008 9.52495 4.34063C9.04505 4.07536 8.7994 3.55296 8.39433 3.22095C8.13729 4.65638 8.27069 5.35292 8.78476 6.66629C9.20122 7.72414 9.51194 7.78601 10.0618 8.52325C9.67004 8.43828 9.2855 8.32291 8.91165 8.17821C9.13778 8.48743 9.5217 9.48017 10.7011 10.1572C12.5947 11.2378 15.0414 11.7619 17.0099 10.5934C18.0315 9.98634 18.6009 9.07171 19.1963 8.0757" fill="#32DB8E"/>
<path d="M18.6608 5.76121C18.5404 5.58382 18.4298 5.39669 18.3029 5.22744L18.1142 4.97517C18.0442 4.89705 17.9661 4.83031 17.8929 4.75708C17.822 4.68127 17.7397 4.61703 17.6489 4.56668L17.3935 4.40393L16.8079 4.137C16.6163 4.04917 16.4177 3.97788 16.2141 3.92383L15.9147 3.83106L15.8415 3.80825C15.8334 3.80825 15.809 3.79686 15.8123 3.80825H15.7732L15.6105 3.7806L15.2933 3.72851L14.9826 3.70411L14.3416 3.65202C14.1204 3.62924 13.9073 3.5853 13.6714 3.53811C13.4648 3.46812 13.2631 3.42744 13.0532 3.33467C12.84 3.25269 12.6343 3.15249 12.4383 3.0352L12.1471 2.85946L11.8803 2.64137L11.7469 2.52908C11.7206 2.50904 11.6961 2.48673 11.6737 2.46237L11.62 2.40051L11.4085 2.15965L10.9839 1.67141C10.844 1.50866 10.7155 1.33287 10.5821 1.16362L10.1819 0.650982L10.6699 0.611924L10.53 0.84464C10.4894 0.914622 10.4438 0.984609 10.408 1.05459C10.3381 1.19943 10.2535 1.33776 10.1982 1.48911C10.1327 1.63452 10.0783 1.78468 10.0355 1.93829C9.98404 2.08833 9.94274 2.24167 9.91184 2.39725L9.83213 2.86761C9.82237 3.03036 9.82074 3.18495 9.81586 3.34445C9.81586 3.42256 9.8061 3.50718 9.81586 3.58042L9.84515 3.81802L9.89883 4.29001V4.33233C9.90936 4.42638 9.88225 4.52074 9.82341 4.59485C9.76458 4.66895 9.67881 4.71677 9.58486 4.72779C9.50419 4.7369 9.42282 4.71854 9.35385 4.6757L9.14074 4.54061L8.95366 4.38927C8.84613 4.28616 8.74404 4.17751 8.64782 4.06377L8.39078 3.76756C8.31539 3.68555 8.2344 3.60889 8.14839 3.53811L8.79098 3.3005C8.76332 3.52835 8.72103 3.76107 8.71126 3.98566C8.69992 4.09758 8.69503 4.21007 8.69662 4.32256C8.69662 4.4316 8.69662 4.54226 8.69662 4.64805C8.69662 4.75383 8.71452 4.8645 8.73241 4.97354L8.79423 5.29904C8.85442 5.51223 8.91462 5.72542 8.99758 5.94188C9.03337 6.04929 9.07892 6.15833 9.12284 6.26737L9.18792 6.43012L9.20256 6.4708L9.21232 6.49194V6.50172C9.21232 6.48707 9.22533 6.5359 9.19768 6.4708L9.23835 6.55218L9.40103 6.87767C9.44266 6.98079 9.49734 7.07815 9.56371 7.16736C9.62227 7.2406 9.67758 7.31544 9.72639 7.38868C9.77519 7.46191 9.88094 7.55143 9.95739 7.64094C10.1201 7.80369 10.2941 8.02503 10.4617 8.21544C10.5313 8.29562 10.5739 8.39566 10.5835 8.5014C10.5932 8.60714 10.5693 8.71325 10.5153 8.80468C10.4614 8.89611 10.38 8.96823 10.2828 9.01086C10.1856 9.05349 10.0774 9.06446 9.97366 9.04221L9.92811 9.03243L9.32294 8.89086L8.68686 8.68091L9.33758 7.86718L9.47586 8.07872L9.57835 8.25124C9.64505 8.35377 9.70687 8.46446 9.77682 8.55723C9.84178 8.65418 9.91183 8.74761 9.98668 8.83714C10.0574 8.92683 10.1334 9.01216 10.2144 9.09267C10.2896 9.17713 10.3724 9.25448 10.4617 9.32376C10.5452 9.4013 10.6356 9.47104 10.7318 9.53208C10.8277 9.58904 10.9172 9.66388 11.0164 9.71596C11.1157 9.76804 11.2507 9.85107 11.3581 9.9064C11.5679 10.0171 11.7941 10.1196 12.0218 10.2221C12.2496 10.3247 12.4822 10.4076 12.7181 10.4857C12.954 10.5639 13.1931 10.6257 13.4339 10.6778C13.6742 10.7279 13.9169 10.7659 14.161 10.7917C14.6466 10.842 15.1369 10.8228 15.617 10.7348C15.8573 10.6928 16.0931 10.6285 16.3214 10.5427C16.4381 10.5047 16.5518 10.4578 16.6614 10.4027L16.8241 10.3279L16.9868 10.2367C17.0996 10.1767 17.2083 10.1093 17.3122 10.0349C17.4131 9.96659 17.5098 9.89215 17.6017 9.812C17.7991 9.65159 17.9845 9.477 18.1565 9.28959C18.3305 9.1008 18.4948 8.89734 18.6559 8.68902L19.1342 8.05595C19.1432 8.04469 19.1562 8.03739 19.1704 8.03557C19.1847 8.03375 19.1991 8.03754 19.2106 8.04618C19.2209 8.05315 19.2282 8.06366 19.2312 8.07566C19.2342 8.08766 19.2326 8.10034 19.2269 8.1113C19.0085 8.60291 18.7523 9.07684 18.4607 9.52882C18.31 9.75879 18.1414 9.97647 17.9564 10.1798C17.7658 10.3873 17.5561 10.5764 17.3301 10.7445L17.1576 10.8731L16.977 10.9838C16.8568 11.0605 16.7312 11.1284 16.6013 11.1872C16.3456 11.3146 16.0788 11.4181 15.8041 11.4964C15.2534 11.6543 14.6816 11.7257 14.109 11.708C13.8252 11.7029 13.5421 11.679 13.2614 11.6364C12.9816 11.5924 12.7051 11.5322 12.4318 11.4622C12.1585 11.3922 11.8917 11.2995 11.6297 11.2084C11.3678 11.1172 11.1092 10.9952 10.8473 10.8698C10.7187 10.808 10.6097 10.7478 10.491 10.6843C10.3579 10.6124 10.2287 10.5336 10.1038 10.4483C9.97595 10.3669 9.85514 10.2749 9.74266 10.1733C9.62551 10.0804 9.51664 9.97748 9.4173 9.86572C9.30955 9.76113 9.21053 9.64791 9.12122 9.52719C9.02903 9.41096 8.94323 9.28981 8.86418 9.16427C8.77959 9.04221 8.71452 8.91852 8.64131 8.79809L8.54533 8.6272L8.4705 8.50188L8.46074 8.48559C8.40227 8.38791 8.37544 8.27455 8.38393 8.16101C8.39243 8.04747 8.43582 7.93934 8.50817 7.85145C8.58052 7.76356 8.67828 7.70022 8.78804 7.67011C8.89779 7.64 9.01417 7.64458 9.12122 7.68326L9.62227 7.86392L10.1803 8.02667L9.6418 8.8404C9.49864 8.66138 9.38313 8.50026 9.2172 8.30496C9.13586 8.20731 9.05452 8.11779 8.97318 8.01038L8.72591 7.63931C8.65542 7.53052 8.59602 7.41496 8.54858 7.29431L8.40217 6.96882L8.36475 6.88581L8.34686 6.8435V6.8321V6.81096L8.33059 6.76701L8.26877 6.59123C8.2281 6.47243 8.18418 6.35851 8.14839 6.2332C8.06868 5.99559 8.00686 5.74495 7.94829 5.48781L7.8881 5.09397C7.87184 4.96215 7.86858 4.8287 7.86045 4.69525C7.85231 4.5618 7.86045 4.4332 7.86045 4.30138C7.86469 4.17179 7.87555 4.04253 7.89298 3.91406C7.91413 3.65692 7.96782 3.41441 8.00848 3.16541C8.01937 3.09663 8.04852 3.03205 8.09288 2.97839C8.13724 2.92472 8.19519 2.88395 8.26068 2.86034C8.32617 2.83673 8.39679 2.83111 8.46518 2.84413C8.53356 2.85714 8.5972 2.8883 8.64945 2.93432C8.76579 3.03463 8.87454 3.14342 8.97481 3.25981L9.23184 3.57716C9.30993 3.67481 9.39452 3.76271 9.4661 3.84246L9.58486 3.9466L9.70687 4.03123L9.16677 4.41692L9.12284 3.87337L9.1017 3.59997C9.1017 3.51046 9.11146 3.41929 9.11471 3.32816C9.12773 3.14588 9.13586 2.96526 9.15538 2.78461L9.26438 2.24916C9.30819 2.07355 9.36252 1.9007 9.42706 1.7316C9.48495 1.55996 9.55452 1.3925 9.63529 1.23037C9.71125 1.06727 9.79541 0.908127 9.88744 0.753533C9.93137 0.675414 9.9818 0.602158 10.029 0.528922L10.1607 0.328746L10.1803 0.299463C10.2058 0.261196 10.2401 0.229635 10.2803 0.207441C10.3206 0.185248 10.3656 0.173077 10.4116 0.17196C10.4575 0.170842 10.5031 0.180794 10.5444 0.201005C10.5856 0.221215 10.6215 0.251077 10.6488 0.28806L11.0213 0.807212C11.1482 0.978096 11.2653 1.15389 11.4004 1.31989L11.8022 1.82438L12.0023 2.07664L12.0511 2.1401C12.065 2.15493 12.0797 2.16905 12.095 2.18241L12.2056 2.28171L12.4253 2.48351L12.679 2.64626C12.846 2.75795 13.0223 2.85488 13.2061 2.93595C13.3994 3.02221 13.597 3.09825 13.7983 3.16378C13.9821 3.20609 14.1887 3.26306 14.3904 3.29399L15.0298 3.37536L15.3551 3.4193L15.6691 3.48602L15.8318 3.52023H15.8724C15.9034 3.52836 15.9017 3.53159 15.9196 3.53485L15.9977 3.56413L16.3084 3.67808C16.5168 3.74452 16.7192 3.82833 16.9136 3.92868L17.4846 4.22326L17.7612 4.42018C17.8556 4.4792 17.9407 4.55219 18.0133 4.63665C18.0881 4.71802 18.1679 4.79939 18.2378 4.88239L18.4216 5.15254C18.5437 5.33482 18.6429 5.522 18.7551 5.70753C18.762 5.71974 18.7639 5.73407 18.7606 5.74766C18.7573 5.76125 18.7489 5.77307 18.7372 5.78076C18.731 5.7848 18.724 5.7875 18.7167 5.7887C18.7094 5.78991 18.7019 5.78959 18.6947 5.78775C18.6876 5.78592 18.6808 5.78262 18.675 5.77806C18.6691 5.77349 18.6643 5.76774 18.6608 5.76121Z" fill="#1A6241"/>
<path d="M17.0113 10.5914C18.033 9.98439 18.6023 9.06976 19.1978 8.07375L19.1587 7.88331C17.6067 8.81747 15.6871 9.69795 13.9529 9.56938C12.5474 9.46359 11.4168 8.45943 10.4586 7.51875C9.91848 6.98983 8.90335 5.61462 10.2292 5.36562C10.7351 5.27123 10.1706 4.01318 10.1235 3.68606C10.0676 3.31507 10.0507 2.93927 10.073 2.56476C10.0987 1.90102 10.2651 1.25031 10.5611 0.655742C10.5106 0.587388 10.4586 0.520665 10.4065 0.455566C9.6089 1.58152 9.2906 2.97812 9.52154 4.33868C9.04164 4.0734 8.79599 3.551 8.39091 3.219C8.13388 4.65443 8.26727 5.35097 8.78134 6.66433C9.19781 7.72219 9.50853 7.78406 10.0584 8.5213C9.66663 8.43633 9.28209 8.32095 8.90823 8.17626C9.13436 8.48548 9.51828 9.47822 10.6977 10.1552C12.5962 11.2359 15.0429 11.76 17.0113 10.5914Z" fill="#32DB8E"/>
<path d="M16.9822 10.5455L17.3336 10.3144L17.659 10.054L17.9599 9.76431L18.2333 9.44696C18.3959 9.22563 18.5586 8.99779 18.7213 8.7618C18.884 8.52582 19.0125 8.28493 19.1508 8.03918V8.08475L19.0873 7.89435L19.1914 7.93992C18.8791 8.12871 18.5716 8.32236 18.2495 8.49488C17.9274 8.66739 17.5988 8.83015 17.2734 8.99615C16.9397 9.15111 16.5982 9.28855 16.2502 9.4079C16.0774 9.47438 15.9002 9.52876 15.7198 9.57065C15.5414 9.62368 15.36 9.66607 15.1765 9.6976L14.6201 9.77897L14.0524 9.79033C13.9982 9.79508 13.9438 9.79508 13.8897 9.79033L13.7547 9.77245L13.4846 9.73828C13.2916 9.69978 13.101 9.65031 12.9136 9.59016C12.7282 9.52669 12.559 9.44208 12.38 9.36722C12.2011 9.29235 12.0547 9.18006 11.8838 9.0873L11.4202 8.7618L10.9842 8.41187C10.7012 8.16613 10.4344 7.92366 10.1708 7.66163C9.89062 7.38282 9.65226 7.06487 9.46317 6.7177C9.35389 6.52208 9.28372 6.30703 9.25656 6.08459C9.24113 5.94673 9.2567 5.8072 9.30211 5.67613C9.32321 5.60461 9.35681 5.53735 9.40135 5.47755C9.43946 5.41505 9.48851 5.35992 9.54613 5.3148C9.64513 5.22879 9.75786 5.16003 9.87963 5.11137C9.93494 5.09021 9.98862 5.07885 10.0423 5.06258L10.1236 5.03977L10.1643 5.02837C10.1383 5.02837 10.2294 5.01048 10.109 5.04466H10.1253L10.1562 5.03162C10.1562 5.03162 10.192 5.02023 10.1643 5.03162C10.1313 5.0395 10.1027 5.05995 10.0846 5.0886C10.0683 5.0886 10.0716 5.11627 10.0716 5.0886C10.0779 5.0378 10.0779 4.98642 10.0716 4.93563C10.006 4.60017 9.91405 4.27039 9.79666 3.94937C9.76402 3.84344 9.74275 3.73432 9.73322 3.62388L9.70231 3.35374C9.68222 3.15967 9.67407 2.96453 9.67791 2.76946V2.61812C9.6758 2.58832 9.6758 2.5584 9.67791 2.5286V2.46026L9.70231 2.19007C9.72246 1.99612 9.75232 1.80328 9.79178 1.61232C9.83314 1.41716 9.88473 1.22434 9.94633 1.0346C10.0098 0.844183 10.109 0.65862 10.1822 0.473089L10.2164 0.928787L10.0635 0.735128L10.7695 0.678151L10.6247 0.919013C10.584 0.987366 10.5401 1.05572 10.5043 1.12408C10.436 1.26566 10.353 1.39913 10.2993 1.5456C10.2358 1.6879 10.1815 1.83412 10.1367 1.98338C10.0878 2.13063 10.0476 2.28062 10.0163 2.43256L9.93982 2.88826C9.93006 3.05101 9.93006 3.1975 9.92192 3.35211C9.92192 3.42697 9.92192 3.50507 9.92192 3.58157L9.95121 3.81265L10.0049 4.27161V4.32696C10.0137 4.41682 9.99738 4.50733 9.95781 4.58848C9.91825 4.66963 9.85696 4.73823 9.78077 4.78663C9.70458 4.83503 9.61647 4.86133 9.52622 4.86264C9.43598 4.86394 9.34713 4.8402 9.26958 4.79402L9.0402 4.64919L8.84173 4.48645C8.7246 4.37415 8.61885 4.26186 8.51637 4.16095L8.25933 3.86637L8.14383 3.74757L8.03321 3.65154L8.89216 3.33419C8.86613 3.56041 8.81895 3.7899 8.80919 4.00798C8.7978 4.11611 8.79182 4.22475 8.7913 4.33347C8.7913 4.44089 8.7913 4.54993 8.7913 4.65897C8.7913 4.76801 8.80757 4.8689 8.82383 4.97306L8.88077 5.28389C8.93771 5.4922 8.99465 5.70217 9.06948 5.91862C9.10202 6.02604 9.14594 6.13508 9.18661 6.24412L9.2468 6.40686L9.26144 6.44755L9.26958 6.46869V6.47846L9.25331 6.44266L9.29073 6.52567L9.44365 6.85116C9.48315 6.95418 9.53505 7.05197 9.59819 7.14244C9.65025 7.21405 9.70068 7.2873 9.74948 7.36217C9.81293 7.44517 9.8959 7.53469 9.9691 7.62258C10.1171 7.78532 10.2945 8.01966 10.4571 8.21821V8.22636C10.5428 8.33578 10.5815 8.47473 10.5647 8.61269C10.5479 8.75064 10.477 8.87629 10.3677 8.96198C10.3021 9.01198 10.2257 9.0461 10.1447 9.06163C10.0637 9.07716 9.98022 9.07369 9.90078 9.0515L9.30374 8.88875L8.67905 8.65762L9.27934 7.90413C9.42412 8.13197 9.4892 8.28655 9.58192 8.44767C9.66658 8.60347 9.76056 8.75402 9.86336 8.89849C9.96097 9.04333 10.0781 9.17027 10.1887 9.30535C10.3078 9.43234 10.4355 9.55092 10.571 9.66017C10.7118 9.77346 10.8596 9.87781 11.0135 9.97263C11.1762 10.0817 11.3389 10.1647 11.5015 10.2574C11.6642 10.3502 11.8269 10.4332 12.0075 10.5081C12.1881 10.5829 12.3524 10.661 12.5297 10.7278C12.8825 10.8638 13.2467 10.9684 13.618 11.0403C13.8035 11.0809 13.9922 11.1005 14.1809 11.1265C14.3696 11.1526 14.5599 11.1558 14.7503 11.146C14.9407 11.1444 15.1308 11.1313 15.3196 11.107C15.5092 11.0845 15.6967 11.048 15.8809 10.9979C16.0656 10.9479 16.2471 10.8865 16.4242 10.814C16.6015 10.7408 16.7747 10.6583 16.9432 10.5666L16.9822 10.5455ZM17.0392 10.6366C16.87 10.7378 16.6957 10.8302 16.517 10.9133C16.3382 10.9968 16.1539 11.0681 15.9655 11.1265C15.7784 11.1851 15.5848 11.2307 15.3912 11.273C15.1975 11.3144 15.0013 11.3438 14.804 11.3609C14.6055 11.3869 14.407 11.3804 14.2069 11.3869C14.0068 11.3934 13.8084 11.3869 13.6115 11.3609C13.4147 11.3348 13.2146 11.3153 13.0161 11.286C12.8176 11.2567 12.6224 11.216 12.4288 11.1656C12.2352 11.1151 12.0384 11.0663 11.8481 11.0028C11.6577 10.9394 11.469 10.871 11.2787 10.8027C11.0883 10.7343 10.8948 10.6399 10.7239 10.5618C10.5348 10.4744 10.3511 10.3755 10.1741 10.2656C9.99124 10.1517 9.81673 10.025 9.65188 9.88637C9.48949 9.7459 9.33829 9.59299 9.19963 9.42904C9.06065 9.2684 8.93239 9.0988 8.8157 8.92129C8.70182 8.75854 8.58794 8.56162 8.51637 8.46885C8.44765 8.38666 8.40787 8.2841 8.40316 8.17705C8.39845 8.07 8.42908 7.96439 8.49032 7.87647C8.55155 7.78856 8.64 7.72325 8.74202 7.6906C8.84404 7.65795 8.95396 7.65977 9.05484 7.69581L9.11503 7.71531L9.62747 7.87806L10.1936 8.00664L9.64374 8.84155C9.48106 8.67066 9.36881 8.51603 9.19475 8.32561C9.11015 8.22959 9.03206 8.14496 8.93934 8.03918C8.84661 7.93339 8.76039 7.79184 8.67579 7.66652C8.59988 7.55943 8.53604 7.44425 8.48546 7.32311L8.33091 6.99762L8.29187 6.91461L8.26584 6.85442L8.2577 6.83324L8.24144 6.7893L8.17311 6.61352C8.13082 6.49634 8.08364 6.3808 8.04459 6.25711C7.95955 6.00901 7.8884 5.75638 7.83148 5.50035L7.76478 5.09837C7.74852 4.9633 7.74364 4.82496 7.73387 4.68988C7.72411 4.5548 7.73387 4.42135 7.73387 4.28627C7.73387 4.15119 7.75177 4.02259 7.76316 3.8924C7.78431 3.62712 7.83636 3.38301 7.87703 3.13075V3.1031C7.89149 3.01131 7.93076 2.92523 7.99059 2.85417C8.05043 2.78311 8.12856 2.72976 8.21652 2.69993C8.30448 2.67009 8.39892 2.66491 8.48963 2.68491C8.58033 2.70491 8.66383 2.74934 8.7311 2.81341L8.91494 2.98756L9.06948 3.16167L9.32652 3.48716C9.4046 3.58318 9.47943 3.66782 9.55101 3.74268L9.65838 3.83872C9.69417 3.8615 9.72996 3.88754 9.76412 3.91357L9.03532 4.43273L8.99139 3.87615L8.97025 3.59948C8.97025 3.50672 8.97025 3.41229 8.98326 3.31953C8.99628 3.13399 9.00441 2.94848 9.02393 2.76294L9.13455 2.21614C9.17892 2.03588 9.23323 1.85821 9.29723 1.68395C9.3562 1.50853 9.42685 1.33724 9.50872 1.17128C9.58591 1.0042 9.67171 0.841237 9.76575 0.683038C9.8113 0.601665 9.86336 0.520304 9.91054 0.451951L10.0374 0.258292L10.0602 0.222492C10.121 0.130109 10.2159 0.0655481 10.3241 0.0429782C10.4323 0.0204083 10.5451 0.0416683 10.6377 0.102061C10.6777 0.129111 10.7129 0.162644 10.7418 0.201314L10.9045 0.409635C10.949 0.469368 10.977 0.53971 10.9859 0.613664C10.9947 0.687618 10.9841 0.762617 10.9549 0.831163L10.9387 0.866963C10.8752 1.01181 10.7988 1.15013 10.7418 1.30148C10.6866 1.45556 10.6399 1.61256 10.6019 1.7718C10.5611 1.93251 10.5301 2.09556 10.5092 2.26004L10.4767 2.53023L10.4685 2.59857V2.76132C10.4564 2.92818 10.4564 3.09572 10.4685 3.26259L10.4913 3.53273C10.4928 3.60159 10.5032 3.66997 10.5222 3.73617C10.6425 4.10021 10.7323 4.47367 10.7906 4.85263C10.8045 4.98203 10.7974 5.11282 10.7695 5.23994C10.7539 5.3257 10.7191 5.40677 10.6675 5.47699C10.6159 5.54722 10.549 5.60474 10.4718 5.64518C10.4559 5.65607 10.4383 5.66434 10.4197 5.66962L10.3888 5.68098H10.3725H10.3644L10.2961 5.70053H10.2717L10.2213 5.71356C10.1903 5.7217 10.1529 5.72819 10.1236 5.73796C10.0944 5.74772 10.0147 5.78189 9.9935 5.80956C9.96356 5.83338 9.94063 5.86488 9.92717 5.9007C9.9137 5.93653 9.9102 5.97533 9.91704 6.01299C9.93277 6.15148 9.97473 6.28572 10.0407 6.40849C10.1908 6.70547 10.3825 6.97948 10.6101 7.22223C10.8525 7.47286 11.1144 7.72671 11.373 7.96432L11.7748 8.3061L12.1929 8.62019L12.6322 8.89038C12.7851 8.96199 12.938 9.0531 13.0909 9.11006C13.2439 9.16702 13.387 9.2256 13.5643 9.26141L13.8311 9.30861L13.9662 9.33305C14.0035 9.33628 14.0411 9.33628 14.0784 9.33305L14.5973 9.3493L15.1196 9.29884C15.2953 9.28133 15.4697 9.25256 15.6418 9.21262C15.817 9.18486 15.9899 9.14406 16.1591 9.09056C16.5047 9.00044 16.8452 8.89179 17.1791 8.76506C17.5044 8.62835 17.8444 8.48999 18.1633 8.32399C18.4822 8.15798 18.8026 7.99851 19.1199 7.81786C19.1278 7.81358 19.1364 7.81089 19.1454 7.80996C19.1543 7.80903 19.1633 7.80989 19.172 7.81246C19.1806 7.81503 19.1886 7.81926 19.1956 7.82494C19.2025 7.83061 19.2083 7.8376 19.2126 7.84552C19.214 7.85195 19.214 7.85863 19.2126 7.86507L19.2484 8.05547C19.2499 8.07059 19.2471 8.08584 19.2402 8.09941L18.7847 8.81222C18.6221 9.04658 18.4594 9.27609 18.2869 9.49742L18.0088 9.82292L17.7078 10.124L17.3824 10.3958L17.0327 10.6318L17.0392 10.6366Z" fill="#1A6241"/>
<path d="M30.9388 75.8575L45.3181 71.4275L37.4916 18.8603L5.44359 18.7627L5.46962 18.9482C5.2377 18.8383 4.97885 18.7981 4.72454 18.8327C1.43353 19.3209 -0.931847 33.903 1.62386 51.0728C3.17908 61.5276 6.20168 70.5226 9.07135 75.8526L30.9388 75.8575Z" fill="#32DB8E"/>
<path d="M9.29709 75.8578L9.07747 75.4428C8.43651 74.1783 7.87689 72.8746 7.34655 71.5613C6.81622 70.2479 6.33957 68.9101 5.89545 67.5642C5.00559 64.8724 4.26865 62.1317 3.63745 59.3651C3.32347 57.9833 3.03065 56.5983 2.77525 55.202C2.51984 53.8056 2.2872 52.4125 2.08385 51.0064C1.8805 49.6002 1.70969 48.1974 1.57629 46.7864C1.44289 45.3753 1.32413 43.9643 1.25093 42.5549C1.17772 41.1456 1.12567 39.7264 1.10614 38.3105C1.08662 36.8946 1.09801 35.482 1.15007 34.0694C1.23075 31.2505 1.51948 28.4414 2.0139 25.6651C2.25255 24.2969 2.61632 22.9534 3.10061 21.6518C3.32357 21.0351 3.63838 20.4557 4.03439 19.9332C4.19128 19.7417 4.37806 19.5768 4.5875 19.4449L4.83152 19.3766H4.86568C4.88997 19.3733 4.9146 19.3733 4.93889 19.3766C5.05092 19.3855 5.16078 19.4124 5.26425 19.4563L5.30167 19.4709C5.38411 19.4999 5.47246 19.5077 5.5587 19.4938C5.68264 19.4747 5.79511 19.4103 5.8743 19.3131L37.1447 19.2805L45.09 71.2976L30.4911 75.8692H31.3988L45.3763 71.6378C45.4227 71.6238 45.4626 71.5936 45.4886 71.5527C45.5146 71.5117 45.525 71.4628 45.5178 71.4148L37.8914 18.7988C37.8774 18.7036 37.8299 18.6165 37.7574 18.5533C37.6849 18.49 37.5923 18.4547 37.4961 18.4538L5.44808 18.2243C5.42153 18.2228 5.39491 18.2228 5.36837 18.2243C5.29316 18.2362 5.2215 18.2645 5.15851 18.3073C5.10123 18.2939 5.04306 18.2847 4.98444 18.2797C4.92003 18.274 4.85526 18.274 4.79085 18.2797L4.69487 18.2878H4.67047C4.63305 18.2878 4.71764 18.2748 4.58099 18.3041H4.55009L4.29142 18.3773C4.05529 18.4702 3.83559 18.6005 3.6407 18.763C3.4752 18.896 3.32465 19.0466 3.1917 19.2122C2.71755 19.8188 2.34001 20.4952 2.07246 21.2173C1.5543 22.5822 1.16329 23.9922 0.904423 25.4291C0.631119 26.8483 0.450542 28.2772 0.312263 29.7077C0.173985 31.1383 0.0926476 32.5721 0.0454712 34.0042C-0.0500412 36.8678 0.00426102 39.7345 0.208153 42.5924C0.304134 44.0197 0.435902 45.4453 0.595325 46.8661C0.754753 48.2869 0.951599 49.7044 1.16145 51.1187C1.37131 52.533 1.6251 53.9423 1.91142 55.3501C2.19773 56.7579 2.4938 58.1493 2.84357 59.5343C3.53333 62.301 4.34348 65.053 5.30167 67.7481C6.25985 70.4432 7.34493 73.0944 8.71795 75.6088C8.76025 75.6885 8.8058 75.7715 8.84972 75.8415L9.29709 75.8578Z" fill="#1A6241"/>
<path d="M47.0241 75.8573L52.417 43.251L32.422 3.19092L17.989 48.122L36.8469 75.8573H47.0241Z" fill="#32DB8E"/>
<path d="M36.9934 75.8574L18.2852 48.0798L32.4985 4.36116L41.934 23.4611L46.9169 33.4847L51.8607 43.3357L50.1135 54.3374L49.2269 59.9245L48.3566 65.5149L46.7656 75.8574H47.2764L49.0854 65.6353L50.0615 60.0628L51.0196 54.4871L52.936 43.3374C52.9567 43.2268 52.9407 43.1125 52.8905 43.0119L47.9125 32.985L42.897 22.9794L32.8109 2.99085C32.7847 2.93854 32.7483 2.89198 32.7039 2.85397C32.6595 2.81595 32.6079 2.78724 32.5522 2.7695C32.4968 2.7518 32.4384 2.7452 32.3804 2.75011C32.3224 2.75501 32.266 2.77131 32.2143 2.79807C32.1626 2.82482 32.1167 2.86153 32.0792 2.90606C32.0417 2.95059 32.0134 3.00206 31.9958 3.05756L17.7239 48.0391C17.7115 48.0786 17.7083 48.1203 17.7145 48.1612C17.7207 48.2021 17.7362 48.2411 17.7597 48.2751L36.7022 75.8574H36.9934Z" fill="#1A6241"/>
<path d="M49.9475 75.8579L52.417 43.2516L36.4678 2.58936L32.422 3.19155L17.989 48.1226L36.8469 75.8579H49.9475Z" fill="#32DB8E"/>
<path d="M36.9917 75.8579L18.2835 48.0803L32.7522 3.57888L36.1832 3.08087L43.9463 23.1166L47.9108 33.2834L51.872 43.3281L50.351 65.2371L49.6612 75.8514H50.2338L51.1465 65.2973L52.9555 43.2923C52.9609 43.2127 52.9493 43.1328 52.9213 43.058L48.9519 32.8863L44.9451 22.7293L36.8843 2.42499C36.847 2.33179 36.7793 2.25395 36.6922 2.20404C36.6051 2.15412 36.5037 2.13505 36.4044 2.14996L32.3602 2.77003C32.2817 2.7823 32.2081 2.81619 32.1478 2.86794C32.0874 2.91968 32.0427 2.98723 32.0185 3.06299L17.7385 48.0429C17.7262 48.0815 17.723 48.1226 17.7292 48.1627C17.7354 48.2028 17.7508 48.2409 17.7743 48.274L36.7102 75.8579H36.9917Z" fill="#1A6241"/>
<path d="M49.9475 75.8582L52.417 43.2519L52.3259 43.0176L17.9971 48.1327L36.8469 75.8582H49.9475Z" fill="#32DB8E"/>
<path d="M37.4051 75.8577L18.4805 48.3405L52.2903 43.0789L52.3635 43.258C52.1699 45.0856 51.9926 46.9149 51.8153 48.7425C51.638 50.5702 51.4574 52.4059 51.2931 54.2401C50.9677 57.9068 50.6098 61.5637 50.3089 65.2402L49.4109 75.8577H50.4846L51.1906 65.3069C51.4476 61.6353 51.651 57.9589 51.8755 54.284C51.9915 52.4472 52.0956 50.6092 52.1878 48.7702C52.2871 46.9328 52.3879 45.0937 52.4725 43.2547C52.474 43.2466 52.474 43.2384 52.4725 43.2303L52.383 42.9975C52.3782 42.9859 52.3697 42.9761 52.3589 42.9697C52.348 42.9632 52.3354 42.9604 52.3228 42.9617L17.9485 47.8555C17.9067 47.8614 17.8667 47.8764 17.8314 47.8995C17.7703 47.9411 17.7282 48.0052 17.7142 48.0777C17.7002 48.1503 17.7154 48.2254 17.7566 48.2868L36.2858 75.8545L37.4051 75.8577Z" fill="#1A6241"/>
<path d="M50.9708 75.8579L56.4629 42.6478L36.4679 2.58936L22.0365 47.5188L41.3044 75.8579H50.9708Z" fill="#32DB8E"/>
<path d="M41.4459 75.8583L22.3407 47.4769L36.5541 3.75825L45.9896 22.8582L50.9725 32.8818L55.9163 42.7344L54.1707 53.7361L53.2825 59.3216L52.4122 64.9136L50.7284 75.8583H51.2246L53.141 65.034L54.1171 59.4616L55.0752 53.8858L56.9916 42.7361C57.0116 42.6255 56.9956 42.5114 56.9461 42.4106L51.9713 32.3854L46.9477 22.3797L36.8616 2.39279C36.8221 2.31468 36.7602 2.25011 36.6839 2.20727C36.6076 2.16444 36.5203 2.1453 36.433 2.15228C36.3458 2.15927 36.2626 2.19202 36.1941 2.24645C36.1256 2.30088 36.0748 2.37451 36.0482 2.45791L21.7746 47.4427C21.7624 47.4819 21.7592 47.5234 21.7654 47.564C21.7716 47.6046 21.787 47.6433 21.8104 47.677L41.1693 75.8615L41.4459 75.8583Z" fill="#1A6241"/>
<path d="M41.0667 46.936C40.3688 47.0401 39.6123 45.8407 39.3764 44.2572C39.1405 42.6736 39.5147 41.3049 40.2142 41.2024C40.9138 41.0999 41.6686 42.2961 41.9045 43.8796C42.1404 45.4632 41.7662 46.8318 41.0667 46.936Z" fill="#32DB8E"/>
<path d="M41.0704 46.9898C41.0162 46.9937 40.9618 46.9937 40.9077 46.9898C40.7557 46.9635 40.6123 46.901 40.4896 46.8075C40.3036 46.6699 40.1391 46.5054 40.0016 46.3193C39.8219 46.0798 39.6645 45.8242 39.5314 45.556C39.3712 45.2362 39.2457 44.9001 39.1572 44.5535C39.1361 44.4591 39.1101 44.3728 39.0922 44.267C39.0743 44.1613 39.0596 44.0799 39.0434 43.9839C39.0141 43.7804 38.9929 43.5754 38.9815 43.3654C38.9551 42.9221 38.9907 42.4774 39.0873 42.0439C39.1428 41.7975 39.2378 41.5618 39.3687 41.3458C39.4053 41.2842 39.4478 41.2264 39.4956 41.1732C39.5434 41.1129 39.598 41.0583 39.6583 41.0105C39.725 40.9564 39.7976 40.9099 39.8747 40.8721C39.9154 40.852 39.9578 40.8357 40.0016 40.8233L40.0666 40.8054L40.1008 40.7957H40.1171C40.1431 40.7957 40.0748 40.7957 40.1756 40.7957H40.2553C40.2909 40.7901 40.3271 40.7901 40.3627 40.7957C40.4632 40.8009 40.5623 40.8206 40.6572 40.8543C40.7344 40.8774 40.8087 40.9096 40.8784 40.9503C40.9445 40.9843 41.0071 41.0247 41.0655 41.0707C41.2741 41.2309 41.4578 41.4212 41.6105 41.6354C41.8799 42.0107 42.0865 42.4274 42.2221 42.869C42.3415 43.2663 42.4109 43.6769 42.4287 44.0913C42.4401 44.4675 42.4008 44.8436 42.3116 45.2094C42.1914 45.7574 41.9464 46.2703 41.5958 46.7082C41.4909 46.8273 41.3601 46.9209 41.2135 46.9817C41.1608 47.0003 41.1063 47.0134 41.0508 47.0207L41.0704 46.9898ZM41.0606 46.8824C41.1043 46.8692 41.1472 46.8534 41.1891 46.8352C41.3041 46.7699 41.3983 46.6734 41.4608 46.5569C41.6446 46.2591 41.682 45.7236 41.5909 45.1296C41.5519 44.8285 41.4868 44.5112 41.4201 44.1889C41.3553 43.8416 41.2727 43.4977 41.1729 43.1587C41.0793 42.8113 40.9507 42.4743 40.7889 42.153C40.7175 42.0094 40.623 41.8786 40.5091 41.7657C40.4883 41.7418 40.4642 41.7209 40.4375 41.7038C40.4176 41.6871 40.3958 41.6729 40.3725 41.6615C40.3416 41.6419 40.3578 41.6615 40.3595 41.642C40.3611 41.6224 40.3334 41.6338 40.309 41.6338H40.2358C40.3318 41.6257 40.2618 41.6338 40.283 41.6338H40.2651C40.2651 41.6338 40.2505 41.6338 40.2423 41.6338C40.2342 41.6338 40.2065 41.6338 40.1854 41.6598C40.161 41.6735 40.139 41.6911 40.1203 41.7119C40.0934 41.7339 40.0698 41.7596 40.0504 41.7884C39.9497 41.9259 39.8717 42.0787 39.8194 42.2409C39.7045 42.6008 39.6399 42.9748 39.6274 43.3524C39.6176 43.5428 39.6274 43.73 39.6274 43.9074L39.6485 44.1906L39.6746 44.4526C39.7116 44.7813 39.7692 45.1075 39.847 45.429C39.9137 45.7053 40.0148 45.9722 40.148 46.2233C40.2487 46.4168 40.3882 46.5875 40.5579 46.7245C40.6288 46.784 40.7112 46.8281 40.7999 46.8542C40.8887 46.8802 40.9819 46.8876 41.0736 46.8759L41.0606 46.8824Z" fill="#1A6241"/>
<path d="M19.3163 8.38335C18.9634 8.43612 18.6027 8.38297 18.28 8.23065C17.9572 8.07833 17.6868 7.83367 17.5031 7.52761C17.3193 7.22156 17.2304 6.86789 17.2476 6.51128C17.2648 6.15468 17.3874 5.8112 17.5998 5.52427C17.8121 5.23735 18.1048 5.01985 18.4407 4.89935C18.7767 4.77885 19.1408 4.76076 19.487 4.8473C19.8332 4.93385 20.146 5.12115 20.3858 5.38556C20.6256 5.64998 20.7816 5.97959 20.8341 6.33272C20.8692 6.56709 20.8578 6.80606 20.8004 7.036C20.7431 7.26593 20.6411 7.48231 20.5001 7.67276C20.3591 7.86321 20.182 8.02401 19.9789 8.14594C19.7758 8.26787 19.5506 8.34853 19.3163 8.38335Z" fill="#32DB8E"/>
<path d="M19.3184 8.4401C19.3184 8.4401 19.2745 8.4401 19.1916 8.4401C19.0706 8.44925 18.9489 8.44542 18.8288 8.42869C18.7403 8.42008 18.6524 8.40705 18.5652 8.38964C18.4725 8.3636 18.3716 8.33592 18.2643 8.30337C18.1569 8.27083 18.0544 8.20737 17.9389 8.15203C17.8234 8.0967 17.7193 8.0039 17.6022 7.91765C17.362 7.70418 17.181 7.43232 17.0767 7.12835L17.0344 7.00303L17.0149 6.93954L17.0051 6.907L16.997 6.85169L16.971 6.61404C16.9589 6.52331 16.9589 6.43138 16.971 6.34064C16.9765 6.23837 16.9895 6.13667 17.01 6.03632C17.0743 5.73122 17.2065 5.44453 17.3969 5.19768C17.5873 4.95083 17.831 4.75019 18.1097 4.61066C18.2025 4.55377 18.3027 4.50995 18.4074 4.48046L18.5701 4.43325L18.6482 4.41049L18.6889 4.39908H18.7084H18.723C18.7442 4.39908 18.684 4.39908 18.7718 4.39908C18.9662 4.36535 19.1642 4.35716 19.3607 4.37469C19.5918 4.39305 19.8191 4.44399 20.0359 4.52603C20.4488 4.69372 20.8027 4.98035 21.0526 5.34954C21.2754 5.70194 21.3887 6.1126 21.378 6.52945C21.3664 6.71712 21.3309 6.90251 21.2722 7.08115C21.2103 7.24459 21.1295 7.40027 21.0315 7.54499C20.9343 7.66302 20.83 7.77495 20.7191 7.88022C20.602 7.96647 20.4979 8.04299 20.3938 8.11134C20.2896 8.1797 20.1855 8.21386 20.0928 8.26106C20.0001 8.30826 19.9073 8.31965 19.8309 8.34895C19.7115 8.3867 19.589 8.41393 19.4649 8.43032C19.3803 8.44497 19.3363 8.45309 19.3363 8.45309L19.3184 8.4401ZM19.3087 8.33266C19.3087 8.33266 19.3493 8.31964 19.4258 8.2936C19.5379 8.26589 19.6442 8.21853 19.7398 8.15366C19.8074 8.10956 19.8726 8.06173 19.935 8.01042L20.1156 7.79721C20.1709 7.71421 20.2099 7.61495 20.2587 7.52381C20.3075 7.43267 20.3157 7.31388 20.345 7.21135C20.3561 7.10323 20.361 6.99455 20.3596 6.88586C20.3417 6.78984 20.3596 6.73613 20.3238 6.56036C20.2924 6.33789 20.216 6.12413 20.0993 5.93214C19.969 5.72991 19.7998 5.55566 19.6015 5.41951C19.4989 5.36155 19.3896 5.31618 19.2761 5.28442C19.2046 5.23396 18.9752 5.25024 18.8109 5.2421C18.8971 5.2421 18.8337 5.2421 18.8515 5.2421H18.8434H18.8304H18.806L18.7556 5.25187L18.6547 5.26979C18.5872 5.27973 18.5218 5.3006 18.4611 5.33162C18.3332 5.38195 18.2123 5.44869 18.1016 5.53017C17.8904 5.70949 17.7267 5.93812 17.6249 6.19581C17.6005 6.25766 17.5957 6.31459 17.5761 6.37481L17.5517 6.4627C17.5492 6.50172 17.5492 6.54086 17.5517 6.57987V6.81748V6.84354V6.81911V6.84354V6.89237L17.5664 6.99C17.6076 7.24159 17.7 7.48202 17.8381 7.69633C17.9161 7.78747 17.9893 7.8851 18.0707 7.96485C18.152 8.04459 18.2447 8.10643 18.3342 8.16014L18.601 8.27898C18.6856 8.30339 18.7637 8.3115 18.8418 8.32777C18.9582 8.34653 19.0768 8.34653 19.1932 8.32777C19.2761 8.32777 19.3201 8.31804 19.3201 8.31804L19.3087 8.33266Z" fill="#1A6241"/>
<path d="M20.6328 7.46372C19.7007 7.98126 18.6562 7.98287 17.9291 6.92502C17.6743 6.53848 17.5375 6.08607 17.5354 5.62305C17.3945 5.82635 17.297 6.05647 17.2488 6.2991C17.2006 6.54174 17.2029 6.79169 17.2554 7.03341C17.3079 7.27514 17.4096 7.50346 17.5541 7.70419C17.6986 7.90492 17.8829 8.07377 18.0954 8.20021C18.3079 8.32666 18.5442 8.40801 18.7895 8.43921C19.0348 8.4704 19.2838 8.45075 19.5212 8.38152C19.7586 8.31228 19.9792 8.19493 20.1693 8.03675C20.3594 7.87857 20.515 7.68298 20.6263 7.46209L20.6328 7.46372Z" fill="#32DB8E"/>
<path d="M20.6556 7.51106L20.4165 7.65593C20.335 7.70575 20.2489 7.74772 20.1595 7.78125C20.0709 7.8242 19.9783 7.85798 19.8829 7.88213L19.5917 7.94725C19.4925 7.96027 19.39 7.95699 19.2891 7.9635C19.1863 7.96693 19.0834 7.95654 18.9833 7.93259C18.8792 7.92007 18.7774 7.89323 18.6807 7.85285C18.5847 7.81216 18.4855 7.77147 18.3895 7.72753L18.1325 7.5469C18.0459 7.48887 17.9681 7.41871 17.9015 7.33858L17.6884 7.10908L17.5257 6.85686C17.468 6.76587 17.4195 6.66937 17.3809 6.56879C17.3319 6.46957 17.2937 6.36533 17.267 6.25792C17.2365 6.15695 17.212 6.05425 17.1938 5.95035L17.1515 5.63785L17.8722 5.83806C17.8396 5.92757 17.7908 6.00079 17.7664 6.10006C17.739 6.18786 17.7215 6.27848 17.7144 6.37021C17.7046 6.4608 17.7079 6.55237 17.7241 6.64202L17.742 6.77549V6.79174L17.7323 6.74453V6.75757L17.7469 6.79988L17.7762 6.88451L17.8364 7.05703C17.8559 7.11725 17.8852 7.12211 17.9047 7.15629C17.9263 7.18267 17.9453 7.21101 17.9617 7.24092C17.987 7.27329 18.0148 7.30376 18.0446 7.33207C18.0723 7.36299 18.0983 7.39551 18.1243 7.42969C18.1504 7.46387 18.1894 7.48177 18.2203 7.50943L18.3114 7.59407C18.3488 7.61522 18.3846 7.6364 18.4188 7.65919C18.452 7.6856 18.4868 7.71004 18.5229 7.73242C18.5603 7.74869 18.5994 7.76335 18.6384 7.78451C18.7133 7.82778 18.7946 7.85905 18.8792 7.87724C18.9643 7.90363 19.0522 7.92002 19.1411 7.92608L19.2631 7.94562L19.4453 7.93259C19.5342 7.92835 19.6225 7.91527 19.7088 7.89353C19.8097 7.87066 19.9083 7.83851 20.0033 7.7975C20.2147 7.70405 20.411 7.57953 20.5857 7.42806L20.6556 7.51106ZM20.68 7.4883C20.6563 7.62038 20.6159 7.74892 20.5597 7.87077C20.4993 7.99561 20.424 8.11256 20.3352 8.21903C20.2439 8.33062 20.1383 8.42968 20.0212 8.51361C19.8951 8.60488 19.7585 8.6808 19.6145 8.73981L19.442 8.8033C19.3643 8.82533 19.2848 8.84112 19.2045 8.85051C19.0542 8.8849 18.8992 8.89424 18.7458 8.87816C18.5897 8.87487 18.4348 8.85024 18.2854 8.80493C18.2106 8.78215 18.1357 8.75608 18.0625 8.73166C17.9903 8.69944 17.9197 8.66361 17.851 8.62427C17.7827 8.58683 17.716 8.54452 17.6477 8.50383L17.4687 8.34109C17.4118 8.28738 17.3532 8.23367 17.3061 8.17834C17.2589 8.12301 17.2117 8.05304 17.1678 7.98631C17.1219 7.92134 17.0796 7.85398 17.0409 7.78451C17.0051 7.70476 16.9726 7.62176 16.9416 7.54202C16.9096 7.46733 16.884 7.38998 16.8652 7.31089L16.8359 7.13189L16.8213 7.04074L16.8131 6.9968V6.9854L16.8017 6.93172V6.66805C16.8027 6.51658 16.8219 6.36578 16.8587 6.21886C16.8908 6.07309 16.9371 5.93083 16.997 5.79412C17.0617 5.66155 17.134 5.53276 17.2133 5.40839C17.2555 5.3353 17.3205 5.27803 17.3982 5.24525C17.476 5.21246 17.5623 5.20599 17.6441 5.22681C17.7258 5.24763 17.7986 5.29457 17.8512 5.36055C17.9038 5.42653 17.9335 5.50793 17.9356 5.59231V5.60856V5.85268C17.9405 5.93188 17.9503 6.01068 17.9649 6.08866C17.9722 6.16371 17.9869 6.23787 18.0088 6.31001C18.0242 6.38701 18.0488 6.46185 18.082 6.53295L18.191 6.75919L18.3326 6.95937C18.3757 7.03063 18.4307 7.09393 18.4952 7.14651L18.6677 7.31903L18.871 7.44761C18.9391 7.49212 19.0138 7.52564 19.0923 7.5469C19.1676 7.58086 19.2477 7.6028 19.3298 7.61199C19.4128 7.61199 19.4925 7.63801 19.582 7.64127L19.8422 7.62502C19.9284 7.61561 20.0138 7.59982 20.0976 7.57782C20.1875 7.56448 20.2754 7.54045 20.3596 7.50622L20.6215 7.41181C20.6282 7.40923 20.6354 7.40803 20.6426 7.40827C20.6498 7.40852 20.6568 7.4102 20.6633 7.41324C20.6699 7.41628 20.6757 7.42061 20.6805 7.42596C20.6854 7.4313 20.6891 7.43755 20.6914 7.44435C20.6947 7.45329 20.6947 7.46307 20.6914 7.47201L20.68 7.4883Z" fill="#1A6241"/>
<path d="M20.1788 6.20739C20.0048 6.34247 19.6908 6.23021 19.4809 5.95842C19.2711 5.68664 19.2369 5.35625 19.411 5.21955C19.5851 5.08284 19.899 5.19677 20.1089 5.47018C20.3187 5.7436 20.3513 6.07231 20.1788 6.20739Z" fill="#32DB8E"/>
<path d="M20.2051 6.25424L20.171 6.26727C20.1357 6.28511 20.0978 6.2972 20.0587 6.30307C19.9982 6.31502 19.9366 6.32049 19.8749 6.31936C19.7891 6.32396 19.7031 6.31627 19.6195 6.29656C19.5146 6.27587 19.4156 6.23194 19.3299 6.16798C19.3012 6.15104 19.2754 6.12963 19.2535 6.10453L19.203 6.05569C19.1569 6.01322 19.1169 5.96448 19.0843 5.91087C18.9954 5.78753 18.9394 5.64357 18.9216 5.4926C18.9066 5.38032 18.9189 5.26608 18.9574 5.15955C18.9959 5.05303 19.0595 4.95737 19.1428 4.88067L19.2014 4.84161H19.2095L19.2226 4.82858L19.2535 4.80255C19.3248 4.7646 19.4009 4.73615 19.4796 4.71792C19.5906 4.69281 19.7051 4.68728 19.818 4.70163C19.9955 4.71574 20.1651 4.78137 20.306 4.89044C20.4222 4.98072 20.513 5.09958 20.5695 5.23544L20.5826 5.30382C20.5928 5.34122 20.6004 5.37928 20.6053 5.41774C20.6185 5.4871 20.6185 5.55833 20.6053 5.62769C20.586 5.7423 20.5463 5.85252 20.4882 5.95318C20.451 6.02363 20.4045 6.08876 20.3499 6.14684C20.3211 6.18167 20.2871 6.21187 20.2491 6.23636L20.2117 6.26238L20.2051 6.25424ZM20.145 6.16476C20.1368 6.16476 20.184 6.13381 20.1694 6.05569C20.1571 6.00815 20.1283 5.96658 20.088 5.93852C20.0315 5.89811 19.9673 5.86985 19.8993 5.85552C19.868 5.84586 19.8346 5.84586 19.8033 5.85552C19.792 5.85629 19.7805 5.85629 19.7692 5.85552L19.7106 5.81809C19.6723 5.80476 19.6365 5.78492 19.6049 5.75948C19.5936 5.74899 19.585 5.73606 19.5796 5.72166C19.5743 5.70725 19.5723 5.69181 19.5739 5.67652C19.5739 5.65699 19.5739 5.65211 19.6146 5.63258C19.6553 5.61305 19.6911 5.59351 19.6927 5.58049L19.6569 5.59189H19.639H19.6293H19.6211C19.6455 5.57561 19.5642 5.62932 19.6748 5.55446C19.7252 5.48936 19.6927 5.4519 19.6748 5.48445C19.6531 5.53057 19.6451 5.58204 19.652 5.63258C19.6488 5.66634 19.6556 5.70028 19.6716 5.7302L19.6976 5.79369C19.6846 5.79369 19.6976 5.81973 19.7057 5.83112C19.7279 5.89739 19.7546 5.96208 19.7854 6.02478C19.8136 6.08279 19.8555 6.13305 19.9074 6.17124C19.9448 6.19912 19.9911 6.21242 20.0376 6.20867C20.0679 6.20892 20.0971 6.19724 20.1189 6.17612L20.145 6.16476Z" fill="#1A6241"/>
<path d="M15.949 4.27701C15.7212 4.19676 15.4838 4.14698 15.243 4.12892C14.5905 4.08275 13.952 3.91726 13.3591 3.64068C12.878 3.40548 12.4104 3.14358 11.9585 2.85623C11.5697 2.60723 11.1727 2.22313 10.7367 2.06853C10.7026 2.05551 10.8441 2.81392 10.8522 2.85623C10.9608 3.40626 11.2277 3.91254 11.6201 4.31281C11.7307 4.4251 12.061 4.50647 12.0967 4.6741C12.1488 4.92961 11.4721 4.61551 11.3923 4.83685C11.2736 5.16234 11.6461 5.53668 11.8397 5.7515C12.5409 6.5278 13.2697 7.26829 14.3369 7.49125C14.9876 7.62796 15.7587 7.82977 16.2549 7.28782C16.5509 6.96233 16.4484 6.58802 16.5151 6.19743C16.5818 5.80683 16.9414 5.49271 16.9218 5.07771C16.8974 4.59923 16.3215 4.41046 15.949 4.27701Z" fill="#32DB8E"/>
<path d="M15.9358 4.32729C15.9358 4.32729 15.861 4.30612 15.7243 4.26543C15.5278 4.21253 15.3269 4.17715 15.1241 4.15966C14.8021 4.12872 14.4822 4.07925 14.1659 4.01154C13.969 3.96962 13.7751 3.91527 13.5851 3.84879C13.4826 3.80973 13.385 3.7837 13.2679 3.73487C13.1508 3.68605 13.0678 3.6405 12.9637 3.59331C12.7571 3.49403 12.5407 3.39311 12.3129 3.28732C12.2007 3.23362 12.0884 3.17991 11.9729 3.12458L11.8867 3.08226L11.8444 3.05949L11.7826 3.02206L11.6199 2.91951C11.3987 2.77955 11.1693 2.61194 10.9562 2.48988C10.8488 2.42478 10.7398 2.39387 10.6308 2.34016C10.966 2.35318 10.7821 2.35966 10.979 2.21969C11.0489 2.05695 11.0083 2.12856 11.0229 2.10089V2.08627V2.12696L11.0392 2.22132L11.0782 2.42639L11.1221 2.63308L11.1449 2.73563V2.76002L11.1612 2.81211C11.1988 2.9492 11.2445 3.08396 11.2978 3.21572C11.3998 3.44851 11.537 3.66421 11.7045 3.85531L11.8379 4.00017L11.8542 4.01805L11.8623 4.02783C11.8493 4.01806 11.8916 4.05714 11.8379 4.00669L11.8818 4.04086C11.9079 4.05225 11.8737 4.02781 11.9193 4.05385C11.9648 4.07989 12.0592 4.12058 12.1503 4.17428C12.2104 4.21421 12.2651 4.26183 12.3129 4.31589C12.3503 4.35364 12.3806 4.39773 12.4024 4.4461C12.4172 4.47434 12.4297 4.50373 12.4398 4.53399L12.4545 4.58115L12.4642 4.67067V4.70647C12.4596 4.80048 12.4286 4.8913 12.3748 4.96851C12.311 5.05331 12.2213 5.11502 12.1194 5.14429C12.0392 5.16804 11.9556 5.17794 11.8721 5.17357L11.6248 5.15728C11.5695 5.15728 11.4979 5.16704 11.5728 5.15728C11.585 5.15309 11.5969 5.14822 11.6085 5.14266C11.6311 5.13101 11.6519 5.11621 11.6704 5.09871C11.6926 5.07963 11.7123 5.05772 11.7289 5.03359L11.7517 4.99127C11.7624 4.96263 11.7711 4.93329 11.7777 4.90342L11.7615 5.01571C11.7729 5.01571 11.7826 4.98315 11.7777 4.96688C11.7729 4.9506 11.7891 4.98477 11.7924 4.9929C11.8128 5.0328 11.8373 5.07047 11.8656 5.10523C11.9484 5.20729 12.0369 5.30452 12.1307 5.39651L12.448 5.722C12.5537 5.8164 12.6546 5.91893 12.7619 6.00681C13.1393 6.3554 13.5777 6.63127 14.0553 6.82054C14.1642 6.86774 14.2781 6.88729 14.3887 6.92473C14.4994 6.96216 14.649 6.98495 14.7776 7.01424C14.9905 7.06757 15.2088 7.09701 15.4283 7.10209C15.5767 7.11302 15.7246 7.07533 15.8496 6.99469L15.874 6.98003H15.887C15.8333 7.04676 15.8756 6.99634 15.8643 7.00936L15.9261 6.94098C15.9863 6.88076 15.957 6.90195 15.9798 6.88893C16.0228 6.82527 16.0516 6.75311 16.0644 6.67735C16.1001 6.4428 16.1583 6.21225 16.2384 5.98893C16.3374 5.7951 16.4551 5.61139 16.5898 5.44046C16.6736 5.32818 16.7238 5.19445 16.7346 5.05477L16.7216 4.93922C16.7099 4.91762 16.6996 4.89532 16.6907 4.87247C16.6642 4.82034 16.6315 4.77171 16.5931 4.72765C16.4476 4.594 16.2781 4.48906 16.0936 4.4184L15.8919 4.3354L15.9358 4.32729ZM15.9651 4.22474C15.9651 4.22474 16.0383 4.24756 16.175 4.29312C16.3825 4.35512 16.5798 4.44722 16.7606 4.56653C16.8265 4.61735 16.8851 4.67702 16.9347 4.7439C16.9607 4.78458 16.9867 4.83016 17.0111 4.87573L17.0453 4.98965C17.0871 5.19585 17.0673 5.4098 16.9884 5.60483C16.9197 5.77133 16.8653 5.94341 16.8257 6.11914C16.816 6.32343 16.8241 6.52819 16.8501 6.73107C16.8581 6.88941 16.8388 7.04794 16.7932 7.19976C16.7603 7.29001 16.7195 7.37716 16.6711 7.46017L16.6223 7.53828C16.6093 7.55456 16.65 7.50899 16.5914 7.57734L16.58 7.58874L16.5573 7.61314L16.5117 7.65871C16.2623 7.92656 15.9253 8.09628 15.5617 8.13718C15.2441 8.17201 14.923 8.15718 14.61 8.09323C14.4571 8.06882 14.3367 8.04766 14.1854 8.01023C14.0341 7.9728 13.86 7.93051 13.6974 7.86866C13.0837 7.61463 12.5354 7.22519 12.0933 6.72944C11.9795 6.61551 11.8802 6.49343 11.768 6.37462L11.4703 6.0231C11.3557 5.89384 11.2503 5.75681 11.1547 5.61298C11.0958 5.52297 11.0468 5.42695 11.0083 5.32654C10.9838 5.26499 10.9652 5.20124 10.9529 5.13614C10.9417 5.0448 10.9417 4.95245 10.9529 4.86111L10.9757 4.74878C11.0164 4.60394 10.9969 4.68859 11.0099 4.6479C11.0208 4.6248 11.0333 4.60247 11.0473 4.58115C11.0722 4.53958 11.1035 4.50224 11.14 4.47049C11.1741 4.44168 11.2112 4.4166 11.2506 4.39564C11.2783 4.38011 11.3078 4.36809 11.3385 4.35984C11.4686 4.32283 11.6054 4.31557 11.7387 4.33866L11.9469 4.36635C11.9599 4.36635 11.9876 4.36633 11.9241 4.37935C11.8585 4.40117 11.8015 4.44335 11.7615 4.49978C11.7147 4.55935 11.6915 4.63412 11.6964 4.70973V4.68044L11.7045 4.75041V4.76996C11.707 4.78326 11.7119 4.79596 11.7192 4.80739L11.7452 4.84482C11.768 4.86109 11.7452 4.84482 11.7452 4.84482C11.7078 4.81878 11.659 4.78947 11.5825 4.7439C11.5259 4.71373 11.4715 4.67948 11.4198 4.64138L11.3775 4.60559C11.319 4.55188 11.358 4.58606 11.3434 4.57304L11.3336 4.56164L11.3141 4.53562L11.1514 4.33703C10.9398 4.06749 10.7748 3.76438 10.6634 3.44029C10.6163 3.29772 10.5772 3.15267 10.5462 3.00577L10.5332 2.95368C10.528 2.9361 10.5242 2.91817 10.5218 2.9V2.87231L10.5056 2.76328L10.4747 2.54682L10.447 2.32713L10.4356 2.21322V2.1481V2.10089V2.05373C10.4486 2.02281 10.408 2.08952 10.4795 1.92189C10.6764 1.78031 10.4958 1.78356 10.8374 1.79495C10.9809 1.86243 11.1205 1.93793 11.2555 2.02115C11.5109 2.18389 11.7029 2.35804 11.9062 2.51916L12.0689 2.63796L12.0868 2.65425H12.0966L12.0836 2.64611L12.1242 2.67213L12.204 2.7226L12.5212 2.92766C12.7262 3.06437 12.9263 3.19455 13.1182 3.32149L13.3931 3.50053C13.4729 3.54935 13.5753 3.59657 13.6632 3.64214C13.8359 3.73034 14.0154 3.80434 14.2 3.86345C14.3725 3.92692 14.5417 3.95623 14.6881 3.99691C14.8345 4.0376 14.9923 4.0441 15.1241 4.06526C15.3316 4.08513 15.5376 4.11886 15.7406 4.16618C15.8789 4.20198 15.9521 4.21986 15.9521 4.21986L15.9651 4.22474Z" fill="#1A6241"/>
<path d="M6.98364 19.2625L6.71522 20.0095L6.40613 20.8688C6.29062 21.1943 6.13933 21.5751 6.02383 21.9869L5.6155 23.3149C5.45282 23.782 5.34383 24.2914 5.22019 24.8154C5.09655 25.3395 4.93387 25.8749 4.86229 26.4429L4.59062 28.1371L4.45884 29.8492C4.42187 30.4022 4.41481 30.957 4.4377 31.5108C4.42992 32.0303 4.45164 32.5497 4.50277 33.0667L4.64105 34.4581C4.67886 34.8505 4.73751 35.2405 4.81674 35.6267L4.97942 36.525L5.11933 37.3095L4.95665 36.5299L4.76631 35.6381C4.67406 35.2536 4.6013 34.8647 4.54832 34.4728L4.36124 33.0797C4.29227 32.5621 4.25262 32.041 4.24248 31.5189C4.19909 30.9602 4.18606 30.3996 4.20344 29.8394L4.27827 28.1045L4.49463 26.3811C4.54669 25.8082 4.70287 25.263 4.79885 24.7259C4.89483 24.1888 5.00382 23.6713 5.14698 23.1912C5.29014 22.7111 5.40239 22.2489 5.51464 21.8258C5.62689 21.4026 5.75704 21.0283 5.86115 20.6865L6.14096 19.8175L6.38335 19.0591L6.98364 19.2625Z" fill="#1A6241"/>
<path d="M10.8982 18.9451L10.2393 21.0348C9.75295 22.5587 9.35535 24.1096 9.04852 25.6796C8.72316 27.3933 8.62718 29.1477 8.80775 30.4481C8.8365 30.7447 8.88597 31.0388 8.95579 31.3285C8.99465 31.5544 9.049 31.7774 9.11847 31.9958L9.30393 32.5687L9.09244 32.0055C9.01012 31.7896 8.94272 31.5683 8.89072 31.3432C8.80729 31.0539 8.74423 30.7591 8.70201 30.4611C8.57938 29.7178 8.52169 28.9652 8.52957 28.2119C8.54384 27.3479 8.60902 26.4855 8.72478 25.6291C8.96249 24.0306 9.29219 22.4472 9.71225 20.8867L10.2751 18.771L10.8982 18.9451Z" fill="#1A6241"/>
<path d="M15.8337 18.9616C15.8337 18.9616 15.6385 19.6126 15.305 20.5549C14.9715 21.4972 14.5307 22.7552 14.2004 24.0409C13.8702 25.3266 13.6717 26.6449 13.74 27.6425C13.7538 28.0441 13.8111 28.4429 13.9109 28.8322L14.0361 29.2732L13.8848 28.8403C13.76 28.4533 13.6776 28.0538 13.6392 27.649C13.5107 26.6465 13.6262 25.2892 13.8865 23.9693C14.1467 22.6494 14.5177 21.3654 14.7877 20.3889C15.0578 19.4124 15.2172 18.7842 15.2172 18.7842L15.8337 18.9616Z" fill="#1A6241"/>
<path d="M20.7627 18.5516L20.6602 18.934C20.5886 19.1847 20.478 19.5362 20.343 19.9447C20.0729 20.7584 19.6923 21.8439 19.4092 22.9474C19.1261 24.0508 18.9358 25.1835 18.9944 26.0395C19.0003 26.234 19.0215 26.4278 19.0578 26.6189C19.0786 26.7674 19.1118 26.9138 19.157 27.0567L19.2823 27.4294L19.131 27.0649C19.0748 26.9242 19.0312 26.7788 19.0009 26.6303C18.9498 26.4393 18.9145 26.2445 18.8951 26.0477C18.7747 25.1835 18.8837 24.015 19.0969 22.8806C19.31 21.7463 19.6125 20.6266 19.824 19.7885C19.9314 19.3702 20.0111 19.03 20.0632 18.7941L20.138 18.4067L20.7627 18.5516Z" fill="#1A6241"/>
<path d="M23.8291 18.667L22.7115 23.9758V23.9856L22.3585 25.1719C22.3048 25.3721 22.2511 25.5707 22.2121 25.7725C22.2017 25.8206 22.1967 25.8697 22.1974 25.919C22.1844 25.9776 22.2316 25.9092 22.2576 25.8734C22.3134 25.7865 22.364 25.6963 22.4089 25.6033C22.3705 25.6999 22.3271 25.7944 22.2788 25.8864C22.2668 25.9107 22.2515 25.9332 22.2332 25.9531C22.2332 25.9645 22.2007 25.9792 22.1828 25.9727C22.169 25.9606 22.1603 25.9437 22.1584 25.9255C22.1525 25.8714 22.1525 25.8168 22.1584 25.7627C22.1795 25.5561 22.2169 25.351 22.256 25.1476L22.5114 23.9318V23.9416L23.1963 18.5596L23.8291 18.667Z" fill="#1A6241"/>
<path d="M55.0393 38.8739L51.7857 48.3571L48.9095 57.9592L51.379 48.2285L54.2259 38.6069L55.0393 38.8739Z" fill="#1A6241"/>
<path d="M51.3792 32.2104L47.1137 43.2609L43.2549 54.4481L46.7135 43.1112L50.5771 31.9126L51.3792 32.2104Z" fill="#1A6241"/>
<path d="M39.2598 8.73433L37.633 12.1195C37.1449 13.1366 36.569 14.3182 36.0062 15.6006L34.1841 19.6123L32.5346 23.6957C32.2824 24.3466 31.988 24.9683 31.8009 25.5851L31.2282 27.3086L30.0456 30.8711L31.0981 27.2614L31.6138 25.52C31.7765 24.8935 32.0514 24.2685 32.2792 23.6013L33.7856 19.4496L35.4677 15.363C35.9964 14.061 36.5284 12.8535 36.979 11.82L38.4805 8.38281L39.2598 8.73433Z" fill="#1A6241"/>
<path d="M41.0184 43.3732C41.8236 38.7707 40.423 34.2724 39.0662 29.9189C38.3602 27.6518 37.6704 25.3783 37.2946 23.0282C36.9221 20.7107 37.1531 18.525 37.4573 16.2205C37.7257 14.1552 37.8461 12.0574 37.1921 10.0524C36.6065 8.2622 35.1733 6.91791 33.4944 6.14649C30.2668 4.67363 26.2535 5.02516 22.8307 5.40924C21.788 5.52642 20.7501 5.67779 19.7122 5.83403C18.8988 5.95446 19.0858 7.21901 19.9009 7.09857C23.3643 6.58267 26.9124 6.10094 30.4051 6.61033C32.2206 6.87561 33.9613 7.5152 35.1586 8.96201C36.5951 10.6936 36.4975 13.1706 36.2811 15.2733C36.0534 17.4899 35.6808 19.6073 35.8663 21.8483C36.0566 24.1267 36.6716 26.3515 37.319 28.5323C38.6563 33.0339 40.436 37.5989 39.8812 42.3804C39.8487 42.6587 39.7999 42.9354 39.7527 43.212C39.6096 44.0258 40.8801 44.1755 41.0216 43.3666L41.0184 43.3732Z" fill="#32DB8E"/>
<path d="M40.9642 43.374L41.1073 42.1648C41.1397 41.9458 41.1603 41.7253 41.1692 41.5041L41.1789 40.7098C41.1789 40.4234 41.2017 40.1158 41.1789 39.7871L41.0976 38.7406C41.0797 38.5567 41.0748 38.3679 41.0471 38.1743L40.956 37.5819C40.8877 37.1799 40.8454 36.7518 40.7462 36.3173L40.4436 34.9584L40.0548 33.5132C39.4984 31.5261 38.7208 29.3322 38.0018 26.8861C37.8179 26.2758 37.6764 25.6395 37.4975 24.9983C37.3185 24.3571 37.2193 23.6963 37.0843 23.003C36.9724 22.3072 36.9061 21.6048 36.8858 20.9003C36.8549 20.1842 36.8858 19.4584 36.9297 18.7244C36.9736 17.9904 37.055 17.2597 37.1477 16.5094L37.2762 15.3914C37.3055 15.0203 37.3445 14.6476 37.3576 14.2717C37.4047 13.5161 37.3835 12.7579 37.2941 12.0062C37.2616 11.6287 37.1737 11.2576 37.1038 10.8817L36.9411 10.3332L36.9021 10.1948L36.8923 10.1607V10.1444L36.863 10.076L36.7524 9.79938L36.6401 9.52272L36.5051 9.28349C36.422 9.11761 36.3258 8.9587 36.2172 8.80828C36.0009 8.4946 35.7582 8.20002 35.4916 7.92779C34.9373 7.38238 34.297 6.93206 33.5964 6.59491C32.1681 5.89672 30.5787 5.59239 28.9421 5.498C27.2848 5.43368 25.6251 5.50226 23.9788 5.70306C23.5655 5.74863 23.1361 5.79418 22.7326 5.84789L21.4767 6.02692L20.2192 6.20596L19.9036 6.24987L19.8255 6.26127H19.7865C19.7295 6.27266 19.8223 6.26127 19.7979 6.26127L19.7214 6.28082C19.6921 6.28082 19.6661 6.29544 19.6791 6.29707C19.6921 6.2987 19.658 6.31497 19.6498 6.3345C19.6319 6.36344 19.6219 6.39653 19.6206 6.43053C19.6161 6.46928 19.6204 6.50852 19.6331 6.5454C19.6457 6.58228 19.6665 6.61589 19.6938 6.64374C19.7112 6.66111 19.7343 6.67152 19.7588 6.67302C19.7753 6.67805 19.7928 6.67805 19.8093 6.67302C19.8497 6.67299 19.8901 6.66861 19.9296 6.65999L21.1839 6.46796L22.4479 6.28892L23.7168 6.12618C25.4115 5.92286 27.1202 5.86245 28.825 5.94555C29.2512 5.94555 29.6742 6.02366 30.0988 6.05947L30.416 6.09364C30.551 6.10666 30.6291 6.12619 30.7414 6.14247C30.948 6.1799 31.1432 6.20105 31.3644 6.25638C32.2291 6.4284 33.0618 6.73425 33.8323 7.16289C34.6018 7.60479 35.2737 8.19831 35.8072 8.90753C36.3174 9.6374 36.6601 10.471 36.811 11.3487C37.1054 13.0364 36.9086 14.6606 36.7312 16.1726L36.4775 18.4168C36.4368 18.7862 36.4222 19.1459 36.3929 19.5056C36.3579 19.8609 36.3437 20.2179 36.3506 20.5748L36.3668 21.6246V21.7564C36.3668 21.7678 36.3668 21.8198 36.3668 21.7987L36.375 21.8654L36.4059 22.1323L36.4661 22.6613C36.5116 23.0095 36.5279 23.3708 36.5946 23.6996L36.7768 24.6907C36.8305 25.0162 36.9053 25.3417 36.985 25.6672L37.2079 26.6323C37.3706 27.2686 37.5333 27.8952 37.6959 28.5055C38.3662 30.9467 39.0576 33.1861 39.4854 35.222C39.8801 36.974 40.0803 38.7642 40.0825 40.5601C40.0675 41.2241 40.0175 41.8869 39.9328 42.5456C39.8905 42.8272 39.8336 43.0957 39.8124 43.3284C39.8076 43.4259 39.8332 43.5224 39.8857 43.6046C39.9382 43.6869 40.0149 43.7507 40.1052 43.7874C40.2302 43.8465 40.3712 43.8626 40.5063 43.8332C40.6413 43.8037 40.7629 43.7304 40.8519 43.6247C40.9068 43.5469 40.9455 43.4589 40.9658 43.3659L40.9642 43.374ZM41.0716 43.3903C41.0478 43.5001 41.0037 43.6044 40.9414 43.6979C40.8379 43.8273 40.6945 43.9188 40.5335 43.9583C40.3726 43.9977 40.2032 43.9828 40.0515 43.916C39.9351 43.8696 39.8359 43.7881 39.7677 43.6828C39.6995 43.5776 39.6657 43.4538 39.6709 43.3284C39.6888 43.0746 39.7408 42.8207 39.7782 42.5326C39.8157 42.2446 39.8287 41.9402 39.8596 41.6147C39.8905 41.2892 39.8759 40.9377 39.8807 40.5699C39.8619 39.7561 39.7946 38.9442 39.679 38.1385C39.5294 37.1915 39.3312 36.2528 39.0852 35.3262C38.5679 33.3374 37.7838 31.1517 36.985 28.7285C36.5978 27.5079 36.1895 26.2482 35.8788 24.8795L35.6511 23.8395C35.5697 23.4864 35.5421 23.143 35.4884 22.7931L35.4152 22.2642L35.3777 21.9989L35.368 21.9338C35.368 21.8687 35.368 21.8752 35.368 21.8443V21.7043L35.3241 20.5846C35.3105 20.2096 35.3181 19.8342 35.3468 19.46C35.3696 19.0841 35.3729 18.7 35.4135 18.3208L35.6543 16.057C35.8284 14.5434 35.9797 13.012 35.7177 11.5571C35.6023 10.8488 35.3366 10.1734 34.9385 9.57644C34.5013 8.98271 33.9478 8.48433 33.3117 8.11172C32.6448 7.73417 31.9247 7.45982 31.1757 7.29798C30.9968 7.24753 30.7804 7.21824 30.5787 7.17918C30.4843 7.16291 30.3607 7.13523 30.2891 7.12872L29.9882 7.09292C29.5863 7.05386 29.1861 6.979 28.7778 6.9676C27.1289 6.86248 25.474 6.89621 23.8307 7.06849L22.583 7.20195L21.3319 7.3647L20.0744 7.53885C20.024 7.53885 19.9768 7.55347 19.8792 7.55673C19.7905 7.56488 19.7011 7.55942 19.614 7.54048C19.4312 7.50414 19.2621 7.41731 19.126 7.28984C19.0008 7.16951 18.9051 7.02185 18.8464 6.85838C18.7877 6.69491 18.7676 6.52006 18.7876 6.34753C18.8043 6.16013 18.873 5.98113 18.9859 5.83072C19.0989 5.68032 19.2517 5.56451 19.427 5.49637C19.4618 5.48181 19.4977 5.46985 19.5343 5.46057L19.6124 5.44265C19.6418 5.43521 19.6717 5.4298 19.7019 5.4264H19.7409L19.819 5.41662L20.1346 5.37594L21.3921 5.21319L22.6513 5.05044C23.0856 4.99674 23.4972 4.9593 23.9234 4.91861C25.6129 4.73207 27.3146 4.68201 29.0121 4.7689C29.8608 4.82247 30.7036 4.94604 31.532 5.13833C31.9479 5.23532 32.358 5.35594 32.7602 5.49963C32.9599 5.56503 33.1559 5.64107 33.3475 5.72746L33.6306 5.84626C33.7461 5.90159 33.8258 5.94556 33.9266 5.99601C34.6873 6.37476 35.3808 6.87558 35.9797 7.47861C36.2718 7.78382 36.5368 8.11381 36.7719 8.46487C36.8949 8.64034 37.0037 8.82536 37.0973 9.01819L37.2486 9.30299L37.3559 9.58132L37.4649 9.85799L37.4926 9.92633L37.5121 9.98005L37.5219 10.0175L37.5625 10.1656L37.7252 10.7564C37.7968 11.1551 37.8879 11.5522 37.9156 11.9509C37.9978 12.7359 38.0103 13.5267 37.953 14.314C37.8635 15.8763 37.5739 17.3313 37.4568 18.7749C37.4015 19.4942 37.3559 20.2038 37.3706 20.902C37.3773 21.5908 37.4284 22.2785 37.5235 22.9607C37.6406 23.6198 37.7529 24.2871 37.8846 24.9299C38.0164 25.5728 38.1677 26.2026 38.3353 26.8129C38.986 29.2655 39.7148 31.4821 40.237 33.4855C40.7123 35.2082 41.0458 36.9668 41.2342 38.7439L41.3156 39.7952C41.34 40.1207 41.3156 40.4364 41.3156 40.7261L41.3042 41.5285C41.2943 41.7502 41.2731 41.9713 41.2407 42.1908L41.0992 43.4L41.0716 43.3903Z" fill="#1A6241"/>
</g>
</svg>
