<svg width="59" height="37" viewBox="0 0 59 37" fill="none" xmlns="http://www.w3.org/2000/svg">
<g opacity="0.4">
<path d="M23.9591 20.7806L24.3417 20.8357C24.2927 21.2947 24.882 21.9939 25.0887 22.4284C25.381 23.0404 25.6596 23.6601 25.9718 24.2644C26.4892 25.2605 27.1137 26.2075 27.6402 27.1959C28.2142 28.2765 28.8799 29.3059 29.63 30.2727C29.6836 30.3416 28.9963 30.3737 28.9014 30.366C28.4563 30.3307 28.0164 30.2465 27.5897 30.1151C27.0019 29.9223 26.5045 29.5031 26.307 30.2926C26.154 30.9337 26.3591 31.6879 26.6759 32.2495C26.6193 32.1485 25.5647 31.8333 25.3672 31.6849C22.6856 29.6668 21.9371 25.2589 21.5636 22.1546C21.4841 21.4921 21.4106 21.2687 22.0489 20.9459C22.6657 20.6384 23.304 20.6904 23.9591 20.7806Z" fill="#32DB8E"/>
<path d="M23.9652 20.7379L24.3478 20.7945C24.3576 20.7962 24.3664 20.8013 24.3728 20.8088C24.3792 20.8164 24.3829 20.8259 24.383 20.8358C24.383 21.1617 24.5652 21.4753 24.7412 21.7645L25.0167 22.2036C25.1055 22.3566 25.1836 22.5096 25.2616 22.6626L25.7346 23.5806C25.883 23.8912 26.048 24.1935 26.229 24.4863L28.3948 28.0176C28.5649 28.3163 28.7514 28.6054 28.9535 28.8835L29.5657 29.7051L29.7188 29.9102L29.7953 30.0127L29.832 30.0632L29.8504 30.0892C29.8672 30.1182 29.8152 30.0295 29.8871 30.155C29.896 30.1787 29.9022 30.2033 29.9055 30.2284C29.9098 30.2811 29.8997 30.3339 29.8764 30.3814C29.8587 30.4164 29.8337 30.4472 29.803 30.4717C29.7695 30.4983 29.7317 30.519 29.6912 30.5329L29.6361 30.5497L29.5519 30.5665L29.4081 30.5879C29.3147 30.5987 29.2259 30.6063 29.1356 30.6124C29.0338 30.6215 28.9313 30.6215 28.8295 30.6124L28.5723 30.5818C28.3962 30.5673 28.2213 30.5407 28.0489 30.5023L27.4963 30.3722C27.4183 30.3477 27.3249 30.3141 27.2376 30.2789L27.0019 30.1871C26.9153 30.1431 26.819 30.1215 26.7218 30.1244C26.6814 30.1827 26.6538 30.2489 26.6407 30.3187V30.3431C26.6407 30.334 26.6407 30.3661 26.6407 30.3233V30.3355V30.3523L26.6315 30.4151L26.6101 30.5436C26.6101 30.6216 26.6101 30.6767 26.6101 30.744C26.6101 30.8113 26.6223 30.897 26.6269 30.9643L26.6683 31.1892C26.7389 31.4906 26.855 31.7796 27.0126 32.046L26.382 32.4025C26.4003 32.4394 26.4277 32.471 26.4616 32.4943L26.4371 32.4821L26.3484 32.4454L26.1341 32.3658L25.6749 32.2128L25.4376 32.121C25.3933 32.104 25.3498 32.0846 25.3075 32.0629C25.2432 32.034 25.1826 31.9975 25.1269 31.9542L24.7535 31.6482C24.6218 31.5387 24.4971 31.4212 24.38 31.2963C24.2525 31.1781 24.1338 31.0508 24.0249 30.9154C23.9193 30.7838 23.806 30.6568 23.705 30.5206L23.4203 30.1029C23.3208 29.9652 23.2458 29.8168 23.1601 29.673C23.0744 29.5292 22.9887 29.3838 22.9198 29.2324L22.7009 28.7826L22.5126 28.3236C22.381 28.0176 22.2907 27.7024 22.1851 27.3903C22.0795 27.0781 21.9953 26.7599 21.9279 26.4417C21.8606 26.1234 21.7841 25.8037 21.729 25.4839C21.6739 25.1641 21.6218 24.8428 21.5866 24.52C21.5101 23.8759 21.4626 23.2317 21.4198 22.5892C21.406 22.2617 21.3739 21.9619 21.3769 21.6084C21.3756 21.51 21.3948 21.4124 21.4333 21.3218C21.4718 21.2312 21.5287 21.1496 21.6004 21.0821C21.7355 20.9708 21.8867 20.8805 22.0489 20.8144C22.1254 20.7853 22.2019 20.7562 22.2754 20.7302L22.5233 20.669C22.6858 20.6419 22.85 20.626 23.0147 20.6216C23.3343 20.6331 23.6523 20.672 23.9652 20.7379ZM23.9545 20.8235C23.6405 20.7814 23.3235 20.7666 23.007 20.7792L22.7728 20.8052L22.5463 20.8557L22.3335 20.9276C22.2616 20.9582 22.1805 20.9964 22.1162 21.0301C22.0519 21.0637 21.9892 21.1081 21.9264 21.1448C21.8717 21.1876 21.8205 21.2347 21.7733 21.2856C21.7328 21.3332 21.7032 21.3891 21.6868 21.4494C21.6704 21.5097 21.6675 21.5729 21.6784 21.6344C21.7075 21.919 21.7902 22.2464 21.8453 22.5601C21.9708 23.1858 22.0978 23.8101 22.254 24.4236C22.329 24.7296 22.407 25.0356 22.4851 25.3416C22.5631 25.6476 22.6381 25.9536 22.7361 26.2489C22.8341 26.5442 22.9228 26.8456 23.0147 27.1424C23.1065 27.4392 23.2198 27.7299 23.3407 28.013L23.5182 28.4414L23.7142 28.8575C23.7739 28.9998 23.8519 29.1299 23.9239 29.266C23.9958 29.4022 24.0631 29.5368 24.1504 29.6608L24.3953 30.0433L24.6662 30.4043C24.753 30.5223 24.8476 30.6342 24.9494 30.7394C25.0435 30.8533 25.1458 30.9602 25.2555 31.0592L25.6152 31.3774C25.5953 31.3621 25.6152 31.3774 25.6412 31.3912L25.7285 31.434L25.9366 31.5228L26.3805 31.6987L26.6132 31.7951C26.656 31.815 26.6912 31.8288 26.7417 31.8548C26.7662 31.8685 26.7846 31.8762 26.8228 31.9007L26.8749 31.9343C26.923 31.9716 26.9639 32.0172 26.9958 32.069C27.0243 32.1091 27.0442 32.1547 27.0544 32.2029C27.0646 32.251 27.0648 32.3007 27.0551 32.349C27.0454 32.3972 27.0259 32.443 26.9978 32.4834C26.9697 32.5239 26.9337 32.5582 26.8919 32.5842C26.8501 32.6102 26.8034 32.6274 26.7547 32.6347C26.706 32.642 26.6564 32.6393 26.6087 32.6267C26.5611 32.6142 26.5166 32.592 26.4779 32.5616C26.4392 32.5312 26.4071 32.4932 26.3836 32.4499L26.3728 32.4316C26.1914 32.0957 26.0609 31.7348 25.9856 31.3606C25.9718 31.2642 25.955 31.1693 25.9443 31.073C25.9336 30.9766 25.9305 30.8786 25.9305 30.7761C25.9305 30.6736 25.9412 30.5543 25.955 30.461L25.9795 30.334L25.9917 30.2697L26.0024 30.2162L26.0147 30.1764C26.0417 30.0621 26.0839 29.952 26.1402 29.849C26.22 29.711 26.3457 29.6055 26.4953 29.5506C26.6338 29.5046 26.7827 29.4998 26.9239 29.5368C27.025 29.5609 27.1238 29.5937 27.2193 29.6348L27.4611 29.7373C27.5361 29.7694 27.6019 29.7969 27.6892 29.8275L28.1484 29.9499C28.3118 29.992 28.4781 30.0227 28.6458 30.0417L28.9014 30.08C28.9706 30.0868 29.0404 30.0868 29.1096 30.08C29.1922 30.08 29.2749 30.08 29.353 30.0647L29.4662 30.054L29.5106 30.0463C29.4912 30.0549 29.4732 30.0662 29.457 30.08C29.4307 30.1012 29.4093 30.1278 29.3943 30.158C29.3697 30.205 29.3605 30.2585 29.3683 30.311C29.3805 30.3783 29.3928 30.3906 29.3851 30.3783C29.457 30.5023 29.4035 30.412 29.4188 30.438V30.4304L29.4004 30.4028L29.3637 30.3493L29.2887 30.2406L29.1356 30.0234L28.5402 29.1543C28.329 28.8713 28.182 28.5607 28.0029 28.2639L27.4963 27.3597L27.0019 26.4417C26.6713 25.8297 26.3575 25.2177 26.0376 24.6057C25.8723 24.2997 25.7407 23.9738 25.5953 23.6632L25.1698 22.7177C25.0313 22.4029 24.8664 22.1004 24.6769 21.8134C24.5101 21.5151 24.2989 21.2137 24.3004 20.8358L24.3356 20.8802L23.9545 20.8235Z" fill="#1A6241"/>
<path d="M21.0661 21.3576C20.5212 21.7508 20.186 23.3849 18.735 25.0939C16.0656 28.238 12.8283 28.2441 12.3064 27.955C13.7467 28.7444 16.7681 29.0259 18.3232 28.3895C18.1962 29.2095 17.385 29.8047 16.8248 30.3601C21.334 31.0547 23.9529 25.3693 23.6222 21.6652C23.3942 21.2873 21.8697 21.1572 21.4962 21.2062C21.3422 21.2186 21.194 21.2708 21.0661 21.3576Z" fill="#32DB8E"/>
<path d="M21.089 21.3915C20.9104 21.5536 20.7653 21.749 20.6619 21.9668C20.5472 22.181 20.4369 22.4013 20.3313 22.6232C20.2257 22.845 20.114 23.0653 20.0007 23.2826C19.8875 23.4998 19.7681 23.7186 19.6426 23.9313C19.517 24.144 19.3823 24.3536 19.2431 24.5571C19.1038 24.7606 18.9553 24.9549 18.7961 25.1553L18.3216 25.7183L17.789 26.2492C17.5992 26.4099 17.4155 26.5828 17.2165 26.7342C17.0175 26.8857 16.8186 27.0402 16.6043 27.1642L16.2828 27.3631C16.1742 27.4258 16.0609 27.4809 15.9492 27.5406C15.7288 27.666 15.49 27.7548 15.2619 27.8603C15.0339 27.9659 14.7874 28.0347 14.5395 28.0959C14.2946 28.1631 14.0456 28.2143 13.7941 28.2489C13.5411 28.2909 13.2852 28.3124 13.0288 28.3132C12.8953 28.3161 12.7619 28.31 12.6293 28.2948C12.4756 28.2796 12.3253 28.2403 12.1839 28.1786L12.4318 27.7196C12.5436 27.7685 12.6461 27.8251 12.7609 27.8726C12.8757 27.92 12.9859 27.9659 13.1053 27.9995C13.3405 28.0765 13.5796 28.1409 13.8216 28.1923C14.3101 28.2983 14.8059 28.3668 15.3048 28.3973C15.5543 28.4111 15.8038 28.4203 16.0517 28.4172C16.1772 28.4172 16.2997 28.4096 16.4252 28.405C16.5507 28.4004 16.6716 28.3851 16.7941 28.3775C16.9165 28.3698 17.0374 28.3469 17.1599 28.3316C17.2823 28.3163 17.3987 28.2872 17.5181 28.2658C17.6374 28.2443 17.7492 28.2061 17.864 28.177C17.9788 28.148 18.0829 28.099 18.1931 28.0592L18.2359 28.0455C18.2773 28.031 18.3212 28.0249 18.3649 28.0275C18.4087 28.03 18.4515 28.0412 18.491 28.0604C18.5304 28.0796 18.5656 28.1065 18.5946 28.1393C18.6236 28.1722 18.6458 28.2105 18.6599 28.252C18.6801 28.3116 18.6838 28.3756 18.6706 28.4371C18.64 28.5611 18.6109 28.688 18.5742 28.812C18.5374 28.9359 18.4762 29.0415 18.4211 29.1516C18.366 29.2618 18.2941 29.3551 18.2267 29.4576L18.0079 29.7284C17.8558 29.8967 17.7028 30.0548 17.5487 30.2027C17.3956 30.3557 17.2425 30.495 17.1063 30.6357L16.889 29.9702L17.2502 30.0023C17.3681 30.0023 17.4874 30.0023 17.6084 30.0023C17.7293 30.0023 17.8441 29.9839 17.9635 29.9763C18.0829 29.9686 18.1977 29.938 18.314 29.9197C18.4303 29.9013 18.5436 29.8615 18.6584 29.8355C18.7732 29.8095 18.8818 29.7606 18.9936 29.7238L19.3211 29.5831L19.6272 29.4148L19.9334 29.222C20.0313 29.1501 20.1293 29.0813 20.2242 29.0078C20.4134 28.8571 20.5942 28.6962 20.766 28.5259C20.9359 28.353 21.1012 28.1709 21.2589 27.9812C21.4165 27.7915 21.565 27.591 21.6982 27.3845C21.8313 27.1779 21.9676 26.9683 22.0931 26.7511C22.2186 26.5338 22.3288 26.3104 22.4405 26.0855C22.6591 25.6293 22.8498 25.1603 23.0114 24.681C23.1723 24.1973 23.2967 23.7023 23.3834 23.2C23.4262 22.949 23.4569 22.6951 23.4798 22.435C23.5028 22.1749 23.5012 21.9224 23.4951 21.67L23.5135 21.7251C23.5029 21.7119 23.4932 21.6981 23.4844 21.6837C23.4706 21.67 23.4523 21.6562 23.4354 21.6424C23.3971 21.6124 23.3555 21.5867 23.3114 21.5659C23.2156 21.5205 23.1163 21.4826 23.0145 21.4527C22.8043 21.3897 22.59 21.3411 22.3732 21.3074C22.1542 21.2735 21.9334 21.2526 21.7119 21.2446C21.6584 21.2446 21.6033 21.2446 21.5497 21.2446H21.5099C21.4982 21.2434 21.4864 21.2434 21.4747 21.2446L21.392 21.2615C21.339 21.2682 21.2874 21.2832 21.239 21.3058L21.1012 21.3747L21.089 21.3915ZM21.0354 21.3227L21.1885 21.2355C21.2395 21.2094 21.2942 21.1914 21.3507 21.1819L21.4318 21.162C21.4473 21.1568 21.4632 21.1527 21.4793 21.1498H21.5222C21.5818 21.1498 21.637 21.1498 21.6951 21.1421C21.921 21.1413 22.1468 21.1521 22.3716 21.1743C22.5986 21.1924 22.8241 21.2256 23.0466 21.2737C23.1615 21.2974 23.2741 21.3307 23.3834 21.3732C23.4419 21.3966 23.4987 21.4242 23.5533 21.4558C23.5808 21.4757 23.6099 21.4925 23.6375 21.5154C23.665 21.5384 23.691 21.5736 23.7155 21.6027C23.7244 21.6125 23.7303 21.6247 23.7324 21.6378V21.6577C23.8017 22.1877 23.8237 22.7227 23.7982 23.2566C23.7711 23.793 23.7025 24.3265 23.5931 24.8524C23.538 25.1155 23.4752 25.3787 23.4002 25.6372C23.3252 25.8958 23.2319 26.1529 23.137 26.4022C23.0421 26.6516 22.9257 26.901 22.8048 27.1473C22.6839 27.3937 22.5507 27.6293 22.4068 27.8634C22.1135 28.3327 21.7713 28.7696 21.3859 29.1669C21.1879 29.3646 20.9789 29.5511 20.7599 29.7254C20.6482 29.8126 20.5288 29.8891 20.414 29.9717C20.2992 30.0543 20.1721 30.1247 20.0512 30.192L19.6701 30.3848L19.2737 30.5455C19.1359 30.5883 19.0012 30.6357 18.8635 30.6724C18.7257 30.7092 18.5849 30.7382 18.4426 30.7612C18.3002 30.7841 18.1594 30.801 18.017 30.8101C17.8747 30.8193 17.7323 30.827 17.59 30.8239C17.4477 30.8209 17.3068 30.8147 17.166 30.8025L16.7466 30.7474H16.739C16.6665 30.7377 16.5984 30.7075 16.5425 30.6605C16.4866 30.6134 16.4453 30.5513 16.4235 30.4816C16.4016 30.4119 16.4001 30.3374 16.4191 30.2669C16.4381 30.1964 16.4769 30.1327 16.5308 30.0834L17.0053 29.6504C17.1584 29.5142 17.3007 29.375 17.4354 29.2358L17.6206 29.0201C17.6757 28.9466 17.7232 28.8671 17.7737 28.7982C17.8242 28.7294 17.8487 28.6452 17.8885 28.5702L17.9573 28.3361L18.4349 28.7141C18.3002 28.7569 18.1655 28.8104 18.0323 28.8441C17.8992 28.8778 17.7645 28.916 17.6298 28.9344C17.4951 28.9527 17.3604 28.9864 17.2272 28.9971C17.0941 29.0078 16.9594 29.0308 16.8262 29.0354C16.6931 29.0399 16.5584 29.0552 16.4252 29.0537C16.292 29.0522 16.1589 29.0537 16.0272 29.0537C15.7609 29.0537 15.4976 29.0308 15.2344 29.0093C14.7066 28.9606 14.1832 28.8726 13.6686 28.7462C13.4096 28.6825 13.1542 28.6054 12.9033 28.5152C12.7747 28.4738 12.6522 28.4157 12.5267 28.3622C12.4012 28.3086 12.2818 28.2398 12.1594 28.1801C12.1027 28.1483 12.06 28.0963 12.04 28.0344C12.0199 27.9726 12.0239 27.9055 12.0511 27.8464C12.0783 27.7874 12.1268 27.7408 12.1868 27.7158C12.2469 27.6909 12.3141 27.6895 12.3752 27.7119L12.4073 27.7257C12.4927 27.7584 12.5815 27.781 12.6721 27.793C12.7841 27.8095 12.8972 27.8182 13.0104 27.819C13.2436 27.8243 13.477 27.812 13.7084 27.7823C13.9435 27.7529 14.1766 27.709 14.4063 27.6507C14.639 27.6018 14.8655 27.5191 15.0936 27.4503C15.3216 27.3814 15.5436 27.2896 15.7563 27.181C15.865 27.129 15.9767 27.0816 16.0823 27.028L16.3976 26.8521C16.6135 26.7434 16.8048 26.595 17.0099 26.468C17.215 26.341 17.3971 26.1804 17.5915 26.0366L18.1364 25.5592L18.6507 25.0314C18.8038 24.8508 18.966 24.6611 19.1099 24.4683C19.2538 24.2756 19.3992 24.0736 19.5324 23.8686C19.798 23.4562 20.0382 23.028 20.2517 22.5864C20.3619 22.3692 20.4645 22.1443 20.5808 21.927C20.6844 21.6954 20.8338 21.4873 21.0201 21.315L21.0354 21.3227Z" fill="#1A6241"/>
<path d="M32.0452 12.0217C32.0452 12.0217 21.3309 5.88492 13.8155 0.285156L7.39307 5.06332C7.39307 5.06332 25.0763 14.3442 32.0452 12.0217Z" fill="#32DB8E"/>
<path d="M31.9244 12.0017C30.3836 11.1327 28.853 10.2473 27.3326 9.34565C26.555 8.88666 25.7729 8.42766 25.0045 7.95336L22.681 6.53965L20.3851 5.09075C19.6198 4.61492 18.8713 4.10085 18.1152 3.60513L16.9825 2.8539C16.6029 2.6091 16.2371 2.34136 15.8652 2.08891L13.6427 0.516077H13.9887L7.61976 5.36921L7.57078 4.7465C8.53048 5.22845 9.51314 5.69204 10.4943 6.14185C11.4754 6.59167 12.4672 7.02466 13.4606 7.45C14.454 7.87533 15.4504 8.28078 16.4545 8.68776C16.9555 8.89176 17.4586 9.0876 17.9637 9.27527L19.479 9.83831C19.9892 10.0239 20.4994 10.2019 21.0096 10.3723C21.5198 10.5426 22.03 10.7079 22.5402 10.868L23.3147 11.099L24.0923 11.3132C24.6127 11.4509 25.1315 11.5917 25.6565 11.7034C26.1815 11.8151 26.7096 11.9206 27.2377 12.0094L28.0367 12.118C28.3015 12.1501 28.5693 12.167 28.8372 12.196C29.3713 12.2391 29.9076 12.2478 30.4428 12.222C30.7122 12.222 30.9739 12.1654 31.2433 12.1425C31.4698 12.1088 31.6948 12.0507 31.9244 12.0017ZM32.0591 12.0629C31.7989 12.1425 31.5402 12.2435 31.2739 12.3077C31.0076 12.372 30.7367 12.4332 30.4642 12.4607C29.9187 12.5326 29.3691 12.5694 28.8188 12.5709C28.5448 12.5709 28.2693 12.5709 27.9953 12.5479L27.1749 12.4837C26.63 12.4225 26.0851 12.3582 25.5448 12.2649C25.2724 12.2251 25.0045 12.1746 24.7351 12.1226C24.4657 12.0706 24.1948 12.0247 23.93 11.9589L23.1295 11.7737L22.3351 11.5703C21.807 11.431 21.279 11.2857 20.7586 11.125C20.2382 10.9644 19.7147 10.7991 19.1973 10.6278C18.1596 10.2866 17.1371 9.9041 16.1208 9.50936C15.6142 9.3074 15.1045 9.1131 14.604 8.89737L13.104 8.24712C12.106 7.80801 11.1142 7.34596 10.1407 6.87013C9.16721 6.3943 8.18915 5.90776 7.2218 5.39216C7.13581 5.34664 7.0714 5.26888 7.04271 5.17594C7.01401 5.08301 7.02337 4.98248 7.06874 4.89644C7.09505 4.84786 7.1316 4.80557 7.17588 4.77251L13.6458 0.0555499C13.6962 0.0194261 13.7567 0 13.8188 0C13.8808 0 13.9413 0.0194261 13.9917 0.0555499L16.1713 1.65133C16.5356 1.91602 16.8953 2.18836 17.2703 2.44081L18.3831 3.2058L19.4973 3.9708C19.8662 4.22936 20.2428 4.47722 20.6193 4.72814L22.8739 6.22906L25.1514 7.69938C25.9076 8.19204 26.6821 8.66481 27.4474 9.14676C28.978 10.1076 30.5198 11.0501 32.0729 11.9742C32.0778 11.9771 32.082 11.9811 32.0853 11.9857C32.0887 11.9903 32.091 11.9956 32.0923 12.0011C32.0936 12.0067 32.0938 12.0124 32.0928 12.0181C32.0918 12.0237 32.0897 12.029 32.0867 12.0338C32.0851 12.0407 32.0817 12.047 32.0768 12.0521C32.072 12.0572 32.0659 12.0609 32.0591 12.0629Z" fill="#1A6241"/>
<path d="M52.1791 15.4303C30.351 10.6659 7.66729 1.94035 7.66729 1.94035V1.95412C7.04404 1.63931 6.35588 1.47428 5.65759 1.47217C2.70656 1.47217 0.314209 4.40975 0.314209 8.02971C0.314209 11.0744 1.7836 13.553 4.00452 14.266C19.4821 21.3299 47.722 35.9934 47.722 35.9934L52.1791 15.4303Z" fill="#32DB8E"/>
<path d="M52.1271 15.4669L46.4975 14.1542C45.5546 13.9308 44.6072 13.7243 43.6674 13.4856L40.8556 12.7359L38.0424 11.9862C37.1071 11.7292 36.1612 11.5027 35.2352 11.2212L29.6484 9.58259C28.7148 9.31637 27.7888 9.02721 26.8658 8.73192L24.0892 7.85829C23.1709 7.563 22.2357 7.27996 21.3158 6.97702L18.5607 6.05902L15.8056 5.13338L13.0504 4.17101C12.1321 3.85278 11.2137 3.53148 10.3076 3.19641C9.40146 2.86134 8.48309 2.53698 7.5739 2.19274L7.91676 2.03974V2.05198C7.89139 2.11684 7.84161 2.16918 7.77809 2.19778C7.71457 2.22638 7.64236 2.22897 7.57696 2.20498L7.554 2.1958C7.37798 2.12695 7.20962 2.0428 7.03053 1.9816C6.853 1.921 6.67143 1.87294 6.48716 1.83778C6.30347 1.79711 6.11649 1.77304 5.92849 1.76587L5.66369 1.75057L5.36522 1.77046C5.17689 1.78014 4.98986 1.80729 4.80654 1.85155C4.62442 1.88918 4.44535 1.94032 4.27083 2.00455C4.09175 2.05963 3.92644 2.15755 3.75195 2.2264C3.57746 2.29525 3.42746 2.41764 3.26521 2.5125C3.10297 2.60736 2.95909 2.73588 2.81521 2.85828C2.67133 2.98068 2.53052 3.1092 2.40501 3.25149C2.14438 3.53008 1.91021 3.83228 1.70551 4.15418C1.29788 4.80478 1.00196 5.51893 0.830006 6.2671C0.793271 6.45529 0.745817 6.64348 0.719796 6.83167L0.650917 7.40541L0.61878 7.96998C0.61878 8.14593 0.629492 8.36319 0.635614 8.5575L0.690714 9.12359C0.722857 9.31331 0.745817 9.50609 0.787144 9.69428C0.862769 10.0698 0.968205 10.4387 1.10245 10.7974C1.23354 11.1547 1.39591 11.4998 1.58766 11.8286C1.78023 12.153 2.00592 12.4565 2.26113 12.7344C2.51128 13.0111 2.79572 13.2548 3.10756 13.4596C3.41656 13.6602 3.74985 13.8206 4.0994 13.9369H4.11777H4.13767L15.1887 19.1389C16.1071 19.5765 17.0255 19.9988 17.9438 20.4486L20.6836 21.798L26.1541 24.5061C27.9801 25.4058 29.8 26.3192 31.6184 27.2326L37.0505 30.0172L42.4704 32.8277L47.8781 35.6613L47.3837 35.8938C47.7633 34.1818 48.1613 32.4743 48.5516 30.7653L49.7286 25.6383L50.921 20.5144L52.1271 15.4669ZM52.2205 15.444L51.2041 20.6062L50.171 25.7592L49.1194 30.9198C48.7689 32.638 48.423 34.3562 48.0602 36.0713C48.0415 36.1601 47.9882 36.2379 47.9122 36.2875C47.8362 36.3371 47.7435 36.3546 47.6546 36.336C47.626 36.3296 47.5983 36.3198 47.572 36.3069L42.1276 33.553L36.6725 30.8204L31.228 28.0664C29.4051 27.1622 27.5836 26.2595 25.7668 25.3415L20.3163 22.6013L17.5918 21.2243C16.6841 20.7653 15.7642 20.3354 14.8505 19.8901L3.86369 14.5857L3.90195 14.601C3.49303 14.4632 3.10398 14.2724 2.74481 14.0333C2.38925 13.7963 2.06523 13.5151 1.78051 13.1964C1.49613 12.8833 1.24529 12.5412 1.03205 12.1759C0.822361 11.8097 0.644163 11.4263 0.499387 11.03C0.357019 10.6385 0.245958 10.2364 0.167246 9.82739C0.122858 9.6239 0.101426 9.41735 0.0677522 9.21539L0.0126523 8.58198C0.0126523 8.37696 -0.0026565 8.19336 0.00040473 7.96998L0.027964 7.34881L0.106018 6.73681C0.138161 6.53026 0.188671 6.32983 0.229997 6.12481C0.423807 5.31103 0.752318 4.53535 1.20194 3.82983C1.42816 3.4775 1.6875 3.14757 1.97644 2.84451C2.11725 2.69151 2.28256 2.55687 2.43562 2.41305C2.58868 2.26924 2.77235 2.15908 2.94072 2.03209C3.10909 1.9051 3.30195 1.8133 3.48869 1.71538C3.67542 1.61746 3.87134 1.53178 4.07491 1.46905C4.2746 1.39804 4.47923 1.34179 4.68716 1.30075C4.89355 1.2548 5.1035 1.22665 5.31471 1.2166L5.62083 1.19824C5.75859 1.19824 5.84124 1.21048 5.95451 1.2166C6.16681 1.22667 6.37783 1.25534 6.58512 1.30228C6.79304 1.34337 6.99767 1.39962 7.19737 1.47058C7.39635 1.53637 7.58614 1.63429 7.78053 1.71538L7.41319 1.8592V1.84543C7.43822 1.77994 7.48821 1.72706 7.5522 1.69837C7.61619 1.66969 7.68895 1.66755 7.75451 1.69243C8.65605 2.04127 9.56524 2.37634 10.4744 2.71446C11.3836 3.05259 12.2928 3.38307 13.205 3.70896L15.9418 4.68968L18.6969 5.63675L21.452 6.58228C22.3704 6.88828 23.2887 7.18663 24.2071 7.48956L26.9714 8.39226C27.8898 8.69826 28.8081 8.99508 29.7433 9.27047L35.3071 10.9642C36.2255 11.2579 37.173 11.4936 38.1051 11.7598L40.9061 12.537L43.7087 13.3142C44.6454 13.5636 45.5914 13.7732 46.5327 14.0119L52.1852 15.3889C52.1965 15.3911 52.2065 15.3976 52.213 15.4071C52.2196 15.4165 52.2223 15.4281 52.2205 15.4394V15.444Z" fill="#1A6241"/>
<path d="M23.7783 20.3633C24.5956 15.8345 27.5528 12.3109 31.3808 9.95934C30.0196 9.55135 28.6931 9.14335 27.4012 8.73535C23.5609 10.8024 20.7568 14.3657 20.4002 18.8333C20.3105 19.9556 20.3449 21.0845 20.5027 22.1993C21.5303 22.7093 22.5553 23.2193 23.5777 23.7293C23.5131 22.6033 23.5804 21.4736 23.7783 20.3633Z" fill="#32DB8E"/>
<path d="M23.7356 20.348L23.9131 19.5356L24.1366 18.7339L24.4014 17.9429L24.7075 17.1687L25.0549 16.4037L25.4453 15.6663L25.8738 14.9487L26.333 14.2541L26.8381 13.5839L27.383 12.9459L27.9585 12.3339L28.5708 11.7495L29.2014 11.2079L29.8611 10.6861L30.5422 10.195L31.2432 9.73601L31.3045 10.195L27.3065 9.01998L27.5468 8.99702C27.2636 9.16991 26.9713 9.32444 26.6973 9.50957C26.4233 9.6947 26.1448 9.87218 25.8845 10.0741C25.6243 10.2761 25.3626 10.4781 25.1116 10.6861C24.8606 10.8942 24.6279 11.1314 24.3861 11.3547C24.1442 11.5781 23.9269 11.8137 23.7187 12.0769L23.4034 12.4533C23.3009 12.5818 23.2075 12.7164 23.1095 12.8465C22.9075 13.1051 22.7407 13.3866 22.5616 13.6589C22.3825 13.9312 22.2371 14.2235 22.0871 14.5111C21.9371 14.7988 21.7947 15.094 21.683 15.3985C21.6248 15.5515 21.559 15.7045 21.5039 15.8575L21.3509 16.3165C21.2391 16.6225 21.1794 16.9407 21.0891 17.2513C21.031 17.5711 20.9529 17.8878 20.91 18.2091L20.8488 18.6926L20.8335 18.8134V18.844C20.8335 18.844 20.8335 18.8655 20.8335 18.844V18.8593V18.9221L20.8167 19.1745L20.7784 19.681L20.7677 20.166C20.7539 20.4873 20.7677 20.8193 20.7677 21.1482C20.7677 21.4772 20.809 21.8061 20.8228 22.1381L20.6452 21.8933L23.6437 23.5763L23.4325 23.714L23.4478 22.8618L23.5014 22.0142C23.5366 21.7327 23.5626 21.4527 23.5947 21.1712L23.7356 20.348ZM23.8213 20.3649L23.7126 21.1972C23.6942 21.4772 23.6728 21.7571 23.6606 22.0356V22.874L23.7203 23.7094C23.7206 23.7468 23.7072 23.783 23.6827 23.8111C23.6581 23.8393 23.6241 23.8576 23.5871 23.8624C23.564 23.8631 23.5411 23.8589 23.5197 23.8502H23.5106L20.356 22.4824C20.311 22.4626 20.2717 22.4319 20.2415 22.3932C20.2113 22.3545 20.1912 22.3089 20.183 22.2605V22.2376C20.1294 21.8979 20.0606 21.5582 20.0299 21.214C19.9993 20.8698 19.9549 20.527 19.9534 20.1736L19.9412 19.6473L19.9549 19.1424V18.8884V18.8257V18.7813V18.7492L19.9672 18.6176L20.0223 18.0959C20.0621 17.7486 20.134 17.4043 20.1983 17.0616C20.2932 16.7235 20.3514 16.3762 20.4799 16.0472L20.6514 15.5515C20.7126 15.3863 20.7861 15.2271 20.8534 15.065C20.9805 14.7391 21.1504 14.4331 21.3126 14.1194C21.4748 13.8058 21.6631 13.5074 21.8514 13.2213C22.0396 12.9352 22.2417 12.643 22.4636 12.3752C22.5723 12.2406 22.6779 12.1014 22.7896 11.9698L23.1371 11.5812C23.3636 11.315 23.6238 11.0855 23.8657 10.8376C24.1075 10.5897 24.3769 10.3694 24.6493 10.1568C24.9218 9.94409 25.1896 9.7253 25.4774 9.53252C25.7652 9.33974 26.0483 9.14696 26.3407 8.9649C26.633 8.78283 26.9407 8.62524 27.2391 8.45388C27.2742 8.43352 27.3133 8.42082 27.3536 8.4166C27.394 8.41238 27.4348 8.41674 27.4733 8.4294L31.4346 9.70541C31.467 9.71583 31.497 9.73252 31.5229 9.75455C31.5488 9.77657 31.5701 9.80349 31.5856 9.83376C31.6011 9.86403 31.6105 9.89706 31.6132 9.93096C31.6159 9.96485 31.6119 9.99895 31.6014 10.0313C31.5834 10.0894 31.5447 10.1389 31.4927 10.1705L30.7963 10.6066L30.1198 11.0656L29.4631 11.5567L28.8279 12.0769L28.2157 12.62L27.6279 13.1938L27.0677 13.7951L26.5366 14.4224L26.0376 15.0787L25.5784 15.7626L25.1636 16.4756L24.7902 17.2131C24.68 17.4655 24.5621 17.7149 24.4626 17.9781L24.1902 18.7599L23.9973 19.5524L23.8213 20.3649Z" fill="#1A6241"/>
<path d="M58.1988 26.9418C57.4457 32.7695 53.5258 37.0658 49.4483 36.5379C45.3707 36.0101 42.6722 30.8601 43.4268 25.0324C44.1814 19.2046 48.0998 14.9084 52.1789 15.4347C56.258 15.9611 58.9534 21.1095 58.1988 26.9418Z" fill="#32DB8E"/>
<path d="M58.2418 26.942C58.2418 26.942 58.2051 27.1623 58.1347 27.5754C58.0975 27.833 58.0464 28.0884 57.9816 28.3404C57.9036 28.6357 57.8439 28.983 57.7168 29.3533C57.6587 29.5415 57.5974 29.7388 57.5316 29.9454C57.4658 30.1519 57.3786 30.36 57.2913 30.5819C57.1067 31.0581 56.8961 31.5239 56.6607 31.9772L56.2413 32.7162L55.7362 33.4598L55.1439 34.2018C54.9158 34.4313 54.6969 34.6853 54.4444 34.9133C54.1879 35.1489 53.9164 35.3677 53.6316 35.5681C53.4785 35.6676 53.3393 35.7731 53.1862 35.8741L52.6995 36.122C52.0137 36.4769 51.2637 36.6908 50.4938 36.7508C50.3944 36.76 50.2949 36.7737 50.1877 36.7783L49.8816 36.7661L49.5755 36.7539H49.4224C49.3413 36.7416 49.3168 36.734 49.2617 36.7233L48.677 36.6116C48.478 36.5534 48.2744 36.4769 48.0648 36.4081C47.2662 36.0879 46.5382 35.6144 45.9219 35.0143C45.3071 34.3857 44.7823 33.6751 44.3622 32.9029C43.9511 32.1076 43.6282 31.2698 43.3994 30.4044C43.1716 29.526 43.0321 28.627 42.9831 27.7208C42.9303 26.8048 42.957 25.8859 43.0627 24.9745L43.1637 24.3104C43.1928 24.0862 43.2332 23.8636 43.2846 23.6434L43.4377 22.9656C43.4852 22.7376 43.5647 22.5249 43.6275 22.3046C43.8892 21.4302 44.2384 20.5845 44.6698 19.7801C45.0987 18.982 45.6168 18.2352 46.2142 17.554C46.8185 16.89 47.513 16.3142 48.2775 15.8435C49.0461 15.403 49.8938 15.1176 50.7724 15.0035C51.6154 14.8964 52.4718 14.9897 53.2719 15.2758C54.0342 15.5368 54.7338 15.9536 55.326 16.4998C55.4638 16.6314 55.6015 16.7599 55.7377 16.8885C55.874 17.017 55.9765 17.173 56.0928 17.3123C56.3161 17.5874 56.5206 17.8772 56.7051 18.1798C56.8918 18.472 57.0357 18.7795 57.1964 19.0672C57.3265 19.3732 57.4551 19.6654 57.5714 19.9546L57.8561 20.819C57.9255 21.1056 57.9929 21.3831 58.0582 21.6513C58.1621 22.1566 58.2372 22.6675 58.2832 23.1813C58.3031 23.4185 58.3367 23.6403 58.3428 23.8622C58.349 24.084 58.352 24.286 58.3582 24.4833C58.378 24.8765 58.3413 25.2269 58.3383 25.5329C58.3318 25.7888 58.3119 26.0441 58.2786 26.2979C58.2342 26.7156 58.2112 26.9374 58.2112 26.9374L58.2418 26.942ZM58.1561 26.9283C58.1561 26.9283 58.1745 26.7064 58.2082 26.2902C58.2334 26.036 58.2456 25.7807 58.2449 25.5253C58.2586 25.1789 58.253 24.8321 58.2281 24.4864C58.1778 23.5542 58.0238 22.6305 57.7689 21.7324C57.4534 20.5768 56.9352 19.4863 56.2383 18.5118C56.0451 18.2432 55.8344 17.9877 55.6076 17.7468C55.4913 17.6274 55.378 17.5035 55.2571 17.3857L54.8683 17.0568C54.7398 16.9423 54.6009 16.8398 54.4535 16.7508C54.312 16.6511 54.1648 16.5596 54.0127 16.4769L53.5428 16.2428C53.3898 16.1663 53.2229 16.1311 53.0622 16.0699C52.3654 15.8424 51.6264 15.7734 50.8995 15.8679C50.1433 15.9758 49.4155 16.2299 48.7566 16.6161C48.0651 17.0327 47.4337 17.5418 46.8801 18.1293C46.3195 18.7545 45.8264 19.4371 45.4091 20.1657C44.9855 20.9154 44.6384 21.7058 44.3729 22.5249C44.3086 22.7315 44.2198 22.9365 44.1785 23.1446L44.0255 23.7704C43.9691 23.9835 43.9247 24.1995 43.8923 24.4175L43.7744 25.0785C43.5368 26.8015 43.6151 28.5534 44.0056 30.2483C44.2086 31.0746 44.5006 31.8764 44.8765 32.6397C45.2587 33.3713 45.7392 34.0471 46.3045 34.6486C46.8616 35.2106 47.5222 35.6595 48.25 35.9705C48.429 36.0332 48.5989 36.1067 48.7826 36.1633L49.3642 36.2872C49.4056 36.2964 49.476 36.3117 49.4928 36.3132L49.6336 36.3239L49.9153 36.3438L50.1938 36.3652C50.2872 36.3652 50.3791 36.353 50.4709 36.3469C51.1955 36.3116 51.9058 36.1322 52.5602 35.819L53.0316 35.5865C53.1847 35.4993 53.3255 35.4029 53.4694 35.3111C53.7527 35.1292 54.0236 34.9288 54.2806 34.7113C55.2015 33.9212 55.9712 32.9705 56.552 31.9053C57.011 31.0865 57.379 30.22 57.6495 29.3212C57.7811 28.954 57.8362 28.6082 57.9127 28.316C57.9767 28.0637 58.0278 27.8084 58.0658 27.551C58.1209 27.1516 58.1561 26.9328 58.1561 26.9313V26.9283Z" fill="#1A6241"/>
<path d="M58.1988 26.9418C57.4457 32.7695 53.5258 37.0658 49.4483 36.5379C45.3707 36.0101 42.6722 30.8601 43.4268 25.0324C44.1814 19.2046 48.0998 14.9084 52.1789 15.4347C56.258 15.9611 58.9534 21.1095 58.1988 26.9418Z" fill="#32DB8E"/>
<path d="M58.2418 26.942C58.2418 26.942 58.2051 27.1623 58.1347 27.5754C58.0975 27.833 58.0464 28.0884 57.9816 28.3404C57.9036 28.6357 57.8439 28.983 57.7168 29.3533C57.6587 29.5415 57.5974 29.7388 57.5316 29.9454C57.4658 30.1519 57.3786 30.36 57.2913 30.5819C57.1067 31.0581 56.8961 31.5239 56.6607 31.9772L56.2413 32.7162L55.7362 33.4598L55.1439 34.2018C54.9158 34.4313 54.6969 34.6853 54.4444 34.9133C54.1879 35.1489 53.9164 35.3677 53.6316 35.5681C53.4785 35.6676 53.3393 35.7731 53.1862 35.8741L52.6995 36.122C52.0137 36.4769 51.2637 36.6908 50.4938 36.7508C50.3944 36.76 50.2949 36.7737 50.1877 36.7783L49.8816 36.7661L49.5755 36.7539H49.4224C49.3413 36.7416 49.3168 36.734 49.2617 36.7233L48.677 36.6116C48.478 36.5534 48.2744 36.4769 48.0648 36.4081C47.2662 36.0879 46.5382 35.6144 45.9219 35.0143C45.3071 34.3857 44.7823 33.6751 44.3622 32.9029C43.9511 32.1076 43.6282 31.2698 43.3994 30.4044C43.1716 29.526 43.0321 28.627 42.9831 27.7208C42.9303 26.8048 42.957 25.8859 43.0627 24.9745L43.1637 24.3104C43.1928 24.0862 43.2332 23.8636 43.2846 23.6434L43.4377 22.9656C43.4852 22.7376 43.5647 22.5249 43.6275 22.3046C43.8892 21.4302 44.2384 20.5845 44.6698 19.7801C45.0987 18.982 45.6168 18.2352 46.2142 17.554C46.8185 16.89 47.513 16.3142 48.2775 15.8435C49.0461 15.403 49.8938 15.1176 50.7724 15.0035C51.6154 14.8964 52.4718 14.9897 53.2719 15.2758C54.0342 15.5368 54.7338 15.9536 55.326 16.4998C55.4638 16.6314 55.6015 16.7599 55.7377 16.8885C55.874 17.017 55.9765 17.173 56.0928 17.3123C56.3161 17.5874 56.5206 17.8772 56.7051 18.1798C56.8918 18.472 57.0357 18.7795 57.1964 19.0672C57.3265 19.3732 57.4551 19.6654 57.5714 19.9546L57.8561 20.819C57.9255 21.1056 57.9929 21.3831 58.0582 21.6513C58.1621 22.1566 58.2372 22.6675 58.2832 23.1813C58.3031 23.4185 58.3367 23.6403 58.3428 23.8622C58.349 24.084 58.352 24.286 58.3582 24.4833C58.378 24.8765 58.3413 25.2269 58.3383 25.5329C58.3318 25.7888 58.3119 26.0441 58.2786 26.2979C58.2342 26.7156 58.2112 26.9374 58.2112 26.9374L58.2418 26.942ZM58.1561 26.9283C58.1561 26.9283 58.1745 26.7064 58.2082 26.2902C58.2334 26.036 58.2456 25.7807 58.2449 25.5253C58.2586 25.1789 58.253 24.8321 58.2281 24.4864C58.1778 23.5542 58.0238 22.6305 57.7689 21.7324C57.4534 20.5768 56.9352 19.4863 56.2383 18.5118C56.0451 18.2432 55.8344 17.9877 55.6076 17.7468C55.4913 17.6274 55.378 17.5035 55.2571 17.3857L54.8683 17.0568C54.7398 16.9423 54.6009 16.8398 54.4535 16.7508C54.312 16.6511 54.1648 16.5596 54.0127 16.4769L53.5428 16.2428C53.3898 16.1663 53.2229 16.1311 53.0622 16.0699C52.3654 15.8424 51.6264 15.7734 50.8995 15.8679C50.1433 15.9758 49.4155 16.2299 48.7566 16.6161C48.0651 17.0327 47.4337 17.5418 46.8801 18.1293C46.3195 18.7545 45.8264 19.4371 45.4091 20.1657C44.9855 20.9154 44.6384 21.7058 44.3729 22.5249C44.3086 22.7315 44.2198 22.9365 44.1785 23.1446L44.0255 23.7704C43.9691 23.9835 43.9247 24.1995 43.8923 24.4175L43.7744 25.0785C43.5368 26.8015 43.6151 28.5534 44.0056 30.2483C44.2086 31.0746 44.5006 31.8764 44.8765 32.6397C45.2587 33.3713 45.7392 34.0471 46.3045 34.6486C46.8616 35.2106 47.5222 35.6595 48.25 35.9705C48.429 36.0332 48.5989 36.1067 48.7826 36.1633L49.3642 36.2872C49.4056 36.2964 49.476 36.3117 49.4928 36.3132L49.6336 36.3239L49.9153 36.3438L50.1938 36.3652C50.2872 36.3652 50.3791 36.353 50.4709 36.3469C51.1955 36.3116 51.9058 36.1322 52.5602 35.819L53.0316 35.5865C53.1847 35.4993 53.3255 35.4029 53.4694 35.3111C53.7527 35.1292 54.0236 34.9288 54.2806 34.7113C55.2015 33.9212 55.9712 32.9705 56.552 31.9053C57.011 31.0865 57.379 30.22 57.6495 29.3212C57.7811 28.954 57.8362 28.6082 57.9127 28.316C57.9767 28.0637 58.0278 27.8084 58.0658 27.551C58.1209 27.1516 58.1561 26.9328 58.1561 26.9313V26.9283Z" fill="#1A6241"/>
<path d="M48.4872 16.463C48.3907 16.4508 48.2943 16.4431 48.1979 16.437C45.8071 18.0007 43.9305 21.18 43.4315 25.0279C42.9586 28.6892 43.8463 32.0827 45.5836 34.2293C45.7776 34.2824 45.975 34.3223 46.1744 34.3486C49.6305 34.7954 52.9504 31.154 53.5902 26.2152C54.23 21.2764 51.9387 16.9098 48.4872 16.463Z" fill="#32DB8E"/>
<path d="M48.4777 16.5059L48.1899 16.4784H48.2175C47.8745 16.7046 47.5481 16.9552 47.241 17.228C46.9358 17.504 46.6499 17.8005 46.3853 18.1154C46.2507 18.2706 46.124 18.4325 46.0057 18.6005C45.8818 18.7657 45.7639 18.9325 45.6552 19.1084C45.5466 19.2844 45.4333 19.4527 45.3353 19.6332C45.2374 19.8137 45.1302 19.9882 45.0399 20.1733C44.9496 20.3584 44.8532 20.539 44.7767 20.7287C44.7001 20.9184 44.6083 21.102 44.5394 21.2963C44.3864 21.6757 44.2624 22.0613 44.1461 22.4576L43.993 23.0497L43.8552 23.6464C43.7787 24.0472 43.7022 24.4481 43.6593 24.8535C43.6165 25.259 43.6012 25.6705 43.5644 26.0775L43.543 26.3835C43.543 26.486 43.543 26.5855 43.543 26.6895L43.5537 27.2939C43.5597 27.6988 43.5909 28.103 43.6471 28.5041C43.687 28.9069 43.754 29.3067 43.8476 29.7005C43.9233 30.0966 44.0256 30.4871 44.1537 30.8694C44.2718 31.2542 44.416 31.6304 44.5853 31.9955L44.7017 32.2725L44.8547 32.5356L45.1471 33.0604C45.2458 33.2332 45.3574 33.3984 45.4807 33.5546L45.8297 34.0381L45.6644 33.9294L46.0195 33.9952L46.1956 34.0289H46.2063H46.269H46.3654L46.7542 34.0472C46.8721 34.0478 46.9899 34.0386 47.1063 34.0197C47.2211 34.0044 47.3343 34.0044 47.4507 33.9799L47.8027 33.8942L47.9772 33.8529L48.1471 33.7871L48.4838 33.6571C48.7042 33.5592 48.9155 33.4352 49.1282 33.3205C49.3272 33.1782 49.5369 33.0543 49.7252 32.8982C50.1085 32.589 50.4602 32.2425 50.7752 31.8639C51.0931 31.4843 51.3783 31.0784 51.6277 30.6507C51.8802 30.2227 52.1032 29.7779 52.2951 29.3196C52.3823 29.087 52.4803 28.8606 52.5614 28.6219L52.7849 27.9074L52.9655 27.1806C53.0282 26.9389 53.0558 26.6895 53.1032 26.4432C53.1201 26.3254 53.1522 26.1861 53.1599 26.0852L53.1981 25.6981C53.2257 25.4395 53.2502 25.1825 53.2548 24.9423C53.2815 24.4454 53.2815 23.9474 53.2548 23.4505L53.1859 22.7008L53.0711 21.9573L52.9042 21.2213C52.8369 20.9796 52.7512 20.7424 52.6808 20.5007C52.6104 20.259 52.4925 20.0417 52.3991 19.7984C52.3058 19.5552 52.1665 19.3501 52.0517 19.1252C51.9124 18.9156 51.7808 18.6984 51.6323 18.4918C51.4838 18.2853 51.3262 18.0879 51.1425 17.912C50.9662 17.729 50.7752 17.5606 50.5716 17.4086L50.2655 17.1791L49.9241 16.997C49.7 16.8733 49.4648 16.7708 49.2216 16.691C49.1022 16.6458 48.9786 16.6125 48.8527 16.5916L48.4777 16.5059ZM48.4869 16.4202L48.8726 16.4921C49.0028 16.5095 49.131 16.5398 49.2553 16.5824C49.5077 16.6543 49.7527 16.7501 49.9869 16.8685L50.342 17.0429L50.6726 17.2587C50.8929 17.404 51.1017 17.5662 51.2971 17.7437C51.4952 17.9195 51.6843 18.1054 51.8634 18.3006C52.0364 18.501 52.194 18.7137 52.3609 18.9218C52.5032 19.1451 52.6517 19.367 52.7879 19.5949C52.9241 19.8229 53.0405 20.0647 53.1553 20.3049C53.2701 20.5451 53.3665 20.7945 53.4614 21.0438L53.7109 21.8088L53.8991 22.5891L54.0247 23.3801C54.0887 23.9152 54.1158 24.454 54.1058 24.9928C54.1058 25.1274 54.1058 25.2682 54.1058 25.3967L54.0721 25.7838L54.0384 26.1708C54.0262 26.3238 53.9986 26.4432 53.9787 26.5809C53.9328 26.8456 53.9068 27.1118 53.8425 27.3719L53.6558 28.1552L53.4109 28.9202C53.319 29.1727 53.2104 29.4205 53.1047 29.6699C52.8888 30.1632 52.6376 30.6402 52.3532 31.0974C52.0669 31.5569 51.7423 31.9914 51.3828 32.3964C51.0221 32.8043 50.6216 33.1754 50.1874 33.5041C49.9716 33.6724 49.7282 33.8101 49.5047 33.9631C49.2598 34.087 49.0165 34.2186 48.7609 34.3242L48.369 34.4634L48.1731 34.5292L47.9711 34.5736L47.5639 34.6608C47.4262 34.6868 47.2777 34.6883 47.1353 34.7021C46.9956 34.7173 46.855 34.723 46.7144 34.7189L46.3272 34.6929L46.2292 34.6852H46.1818H46.1573H46.1282H46.1144L45.9109 34.6424L45.5037 34.5567C45.4414 34.5407 45.3871 34.5026 45.3507 34.4496L44.9665 33.9034C44.8391 33.7317 44.724 33.5512 44.6221 33.3633L44.316 32.7988L44.1629 32.5173L44.0466 32.222C43.878 31.8337 43.7359 31.4345 43.6211 31.027C43.4913 30.6265 43.3891 30.2175 43.3149 29.803C43.2286 29.3911 43.1688 28.9741 43.1358 28.5546C43.0873 28.1366 43.0649 27.7161 43.0685 27.2954V26.662C43.0685 26.5564 43.0685 26.4493 43.0685 26.3468L43.0991 26.0408L43.1619 25.4288L43.194 25.1228V25.0463V24.9989L43.2017 24.9591L43.2277 24.8061C43.292 24.3945 43.3807 23.986 43.4756 23.5821L43.641 22.9778C43.6976 22.7773 43.7695 22.58 43.8323 22.3826C43.9716 21.9894 44.12 21.5992 44.2915 21.2213C44.3711 21.0285 44.4675 20.8434 44.5593 20.6568C44.6512 20.4701 44.7506 20.288 44.8532 20.1075C44.9558 19.927 45.0568 19.7449 45.17 19.5705C45.2833 19.396 45.3935 19.2201 45.5144 19.0518C45.6353 18.8835 45.7547 18.7137 45.8848 18.5515C46.0149 18.3893 46.1466 18.2302 46.2813 18.0726C46.552 17.7587 46.8429 17.4628 47.1522 17.1867C47.4597 16.909 47.7865 16.6533 48.1302 16.4217C48.139 16.4164 48.1491 16.4137 48.1593 16.4141L48.4869 16.4202Z" fill="#1A6241"/>
<path d="M46.9397 18.7932C46.5399 18.7432 46.1342 18.7665 45.7428 18.8621C44.578 20.5099 43.7361 22.6396 43.4269 25.0279C43.1447 27.0765 43.3214 29.1622 43.9443 31.1341C44.3488 31.3919 44.8049 31.558 45.2805 31.6207C47.7601 31.9419 50.1417 29.3257 50.5994 25.7883C51.0571 22.251 49.4193 19.1145 46.9397 18.7932Z" fill="#32DB8E"/>
<path d="M46.9365 18.8331L46.6304 18.8071H46.3442L46.0488 18.8377L45.7564 18.8928L45.7763 18.879L45.3447 19.5507C45.213 19.7833 45.0875 20.0189 44.9666 20.2545C44.8457 20.4901 44.7416 20.738 44.636 20.9812C44.5304 21.2245 44.4431 21.4754 44.3544 21.7264L44.1202 22.4913L43.9319 23.2563C43.8753 23.5149 43.8309 23.7765 43.7788 24.0351C43.7268 24.2937 43.7054 24.5584 43.6686 24.8185C43.6319 25.0786 43.6212 25.3387 43.5936 25.6079C43.5661 25.8772 43.5646 26.1343 43.5538 26.3959C43.5431 26.6575 43.5538 26.9207 43.5538 27.1823C43.5538 27.4439 43.5814 27.7071 43.5998 27.9687C43.6181 28.2303 43.6595 28.4904 43.6901 28.7505C43.7207 29.0106 43.7819 29.2646 43.8278 29.5155C43.8737 29.7665 43.9487 30.0235 44.0084 30.2805C44.0681 30.5376 44.1615 30.7793 44.2365 31.0272L44.1079 30.8619C44.4139 31.0432 44.7481 31.172 45.0967 31.2429L45.2268 31.2643L45.2926 31.2766H45.3202C45.3202 31.2766 45.2789 31.2766 45.3018 31.2766H45.3385L45.6324 31.2888C45.6799 31.2888 45.7334 31.2888 45.7778 31.2888L45.9003 31.2735L46.1467 31.2475C46.4948 31.1785 46.8303 31.0567 47.1416 30.8864C47.4591 30.7144 47.7534 30.5026 48.0171 30.2561C48.1503 30.1337 48.2712 29.9944 48.3982 29.8644C48.5253 29.7343 48.6294 29.5783 48.738 29.4314C48.8467 29.2845 48.9462 29.1254 49.0442 28.9724C49.1421 28.8194 49.2324 28.6542 49.3136 28.4874C49.3947 28.3206 49.4773 28.1554 49.5477 27.9825C49.6181 27.8096 49.6824 27.6367 49.7452 27.4608L49.9105 26.9283L50.0421 26.3867C50.0835 26.2031 50.111 26.018 50.1462 25.8344L50.1676 25.712L50.1829 25.559L50.2151 25.2668C50.2442 25.0663 50.2457 24.8904 50.2564 24.7068C50.2664 24.5223 50.2664 24.3374 50.2564 24.1529V23.8714L50.235 23.5899C50.2255 23.4028 50.2061 23.2164 50.1768 23.0314C50.1579 22.8441 50.1272 22.6581 50.085 22.4745C50.0521 22.2886 50.0065 22.1051 49.9488 21.9253L49.8692 21.6529L49.7666 21.3898C49.7012 21.2114 49.624 21.0376 49.5355 20.8696C49.3623 20.5304 49.1502 20.2125 48.9033 19.9225C48.6468 19.6373 48.3479 19.3932 48.0171 19.1988C47.6803 19.009 47.3132 18.8791 46.9319 18.8148L46.9365 18.8331ZM46.9365 18.7475C47.3336 18.796 47.7193 18.9124 48.0768 19.0917C48.4387 19.2683 48.7733 19.496 49.0702 19.768C49.365 20.0449 49.6293 20.3527 49.8585 20.686C49.9771 20.8515 50.0845 21.0248 50.1799 21.2046L50.3329 21.4739L50.4569 21.7539C50.6199 22.1294 50.753 22.5172 50.8549 22.9136C50.9103 23.1115 50.9523 23.3129 50.9804 23.5164L51.0294 23.8224L51.0585 24.1284C51.0793 24.3343 51.0885 24.5412 51.086 24.7481C51.086 24.9562 51.086 25.175 51.0738 25.3601L51.0508 25.6523L51.037 25.8053C51.037 25.8864 51.0217 25.9155 51.0156 25.9736C50.9819 26.1756 50.9574 26.3806 50.9176 26.5856L50.7738 27.1869L50.587 27.7775C50.5151 27.9702 50.434 28.16 50.3544 28.3512C50.2748 28.5425 50.1722 28.723 50.0819 28.9081C49.9916 29.0933 49.8707 29.2661 49.7651 29.4452C49.6595 29.6242 49.5217 29.7833 49.4008 29.9516C49.2799 30.1199 49.1283 30.2683 48.9921 30.4274C48.8559 30.5865 48.6937 30.7227 48.5329 30.8589C48.2119 31.1361 47.857 31.3715 47.4768 31.5596C47.0912 31.7523 46.6782 31.8845 46.2523 31.9513L45.9125 31.9758L45.7442 31.9865C45.6891 31.9865 45.6447 31.9865 45.5911 31.9773L45.2972 31.9559H45.2605H45.2329H45.2176H45.1977L45.1181 31.9406L44.9651 31.9084C44.5452 31.8105 44.1451 31.6418 43.7819 31.4097L43.7681 31.402C43.7128 31.3664 43.6721 31.3121 43.6533 31.249C43.5814 30.9843 43.5003 30.7212 43.4375 30.455C43.3748 30.1887 43.3135 29.9225 43.2737 29.6532C43.2339 29.384 43.1758 29.1147 43.1559 28.8423C43.136 28.57 43.0931 28.3007 43.0885 28.0284C43.0839 27.756 43.0564 27.4852 43.0656 27.2129C43.0748 26.9406 43.0656 26.6713 43.0885 26.3974C43.1115 26.1235 43.1161 25.8481 43.1544 25.5865C43.1926 25.3249 43.2125 25.0495 43.2676 24.7833C43.3227 24.5171 43.3595 24.2493 43.4207 23.9877C43.4819 23.7261 43.5462 23.4614 43.6197 23.2013L43.8661 22.4363L44.1569 21.682L44.4875 20.9445C44.6054 20.7028 44.734 20.4656 44.8564 20.227L45.2666 19.5354L45.7105 18.8653C45.7107 18.8585 45.7128 18.8518 45.7166 18.8462C45.7204 18.8405 45.7257 18.836 45.7319 18.8331L46.0289 18.7719L46.335 18.7383H46.6411L46.9472 18.7612L46.9365 18.7475Z" fill="#1A6241"/>
<path d="M3.76714 14.407C3.71937 14.3257 3.67594 14.2419 3.63703 14.1561C3.54979 13.9893 3.44418 13.7521 3.33091 13.466C3.21764 13.1799 3.11663 12.8326 2.99265 12.47C2.89336 12.0821 2.81367 11.6894 2.75387 11.2934C2.73092 11.0915 2.70948 10.888 2.68958 10.6815C2.66266 10.4873 2.65702 10.2908 2.67275 10.0955C2.7003 9.7145 2.6605 9.35801 2.74163 9.06119C2.85795 8.46756 2.93754 8.07129 2.93754 8.07129C2.93754 8.07129 2.89163 8.47062 2.82581 9.06884C2.77071 9.36413 2.84111 9.71756 2.84418 10.0878C2.84562 10.2792 2.86666 10.4699 2.90694 10.657C2.9452 10.8482 2.98347 11.0441 3.0202 11.2384C3.09367 11.6255 3.24367 12.0034 3.34622 12.3507C3.49928 12.6888 3.60642 13.0162 3.7503 13.2687C3.85179 13.4781 3.96366 13.6824 4.0855 13.8807C4.13238 13.9598 4.18347 14.0365 4.23856 14.1102L3.76714 14.407Z" fill="#1A6241"/>
<path d="M5.20443 15.2146C5.15666 15.1333 5.11324 15.0496 5.07433 14.9637C4.95981 14.7394 4.85762 14.5091 4.76821 14.2737C4.64117 13.9921 4.5524 13.6402 4.42689 13.2776C4.35189 12.9013 4.23097 12.5126 4.18964 12.1011C4.16668 11.8991 4.14525 11.6956 4.12382 11.4891C4.09895 11.2942 4.09382 11.0974 4.10852 10.9016C4.13607 10.5206 4.09627 10.1641 4.1774 9.86728C4.29372 9.27364 4.37179 8.87891 4.37179 8.87891C4.37179 8.87891 4.32892 9.2767 4.26158 9.87493C4.20648 10.1702 4.27688 10.5236 4.27994 10.8939C4.28116 11.0854 4.30271 11.2762 4.34423 11.4631C4.38096 11.6558 4.4177 11.8501 4.45597 12.0445C4.52791 12.4331 4.67944 12.8095 4.78046 13.1568C4.93352 13.4949 5.04219 13.8223 5.18607 14.0748C5.28737 14.2846 5.39977 14.4889 5.5228 14.6868C5.56663 14.7658 5.61466 14.8424 5.66668 14.9163L5.20443 15.2146Z" fill="#1A6241"/>
<path d="M6.91076 16.0685C6.86299 15.9873 6.81956 15.9035 6.78066 15.8176C6.66671 15.5931 6.56453 15.3628 6.47453 15.1276C6.34749 14.8445 6.25871 14.4942 6.13473 14.1316C6.03544 13.7436 5.95575 13.3509 5.89596 12.955C5.87453 12.7515 5.8531 12.548 5.83167 12.343C5.80475 12.1484 5.79911 11.9514 5.81484 11.7555C5.84239 11.3761 5.80412 11.0196 5.88371 10.7212C6.00004 10.1291 6.07963 9.73438 6.07963 9.73438C6.07963 9.73438 6.03372 10.1322 5.9679 10.7304C5.9128 11.0257 5.98321 11.3791 5.98627 11.7494C5.98748 11.9408 6.00903 12.1316 6.05055 12.3185C6.08728 12.5098 6.12555 12.7041 6.16228 12.8984C6.23575 13.287 6.38575 13.6634 6.4883 14.0107C6.64137 14.3504 6.74851 14.6762 6.89239 14.9287C7.03627 15.1811 7.14035 15.4061 7.22913 15.5407C7.27314 15.6191 7.32116 15.6952 7.37301 15.7687L6.91076 16.0685Z" fill="#1A6241"/>
<path d="M8.6175 16.9206C8.6175 16.9206 8.56851 16.8395 8.48739 16.6697C8.37379 16.445 8.27162 16.2147 8.18126 15.9796C8.05422 15.6981 7.96545 15.3478 7.84147 14.9851C7.74218 14.5972 7.66249 14.2045 7.6027 13.8086C7.58127 13.6051 7.5583 13.4016 7.5384 13.1966C7.51227 13.0019 7.50662 12.805 7.52157 12.6091C7.54912 12.2296 7.50933 11.8716 7.59045 11.5748C7.70678 10.9812 7.78637 10.5864 7.78637 10.5864C7.78637 10.5864 7.74045 10.9858 7.67463 11.584C7.62106 11.8793 7.68994 12.2312 7.693 12.603C7.69439 12.7944 7.71594 12.9852 7.75729 13.1721C7.79403 13.3618 7.83229 13.5577 7.86902 13.752C7.94249 14.1406 8.09249 14.517 8.19504 14.8643C8.34811 15.2024 8.45677 15.5298 8.60065 15.7823C8.70197 15.9918 8.81385 16.1961 8.93586 16.3943C8.97987 16.4727 9.02789 16.5488 9.07974 16.6222L8.6175 16.9206Z" fill="#1A6241"/>
<path d="M10.3242 17.7742C10.3242 17.7742 10.2752 17.6931 10.1957 17.5233C10.0813 17.2989 9.97915 17.0685 9.88953 16.8332C9.76249 16.5517 9.67524 16.1998 9.54973 15.8372C9.47473 15.4608 9.35228 15.0722 9.31095 14.6606C9.28952 14.4566 9.2681 14.2526 9.24667 14.0486C9.22051 13.8544 9.21487 13.658 9.22983 13.4627C9.25891 13.0817 9.21911 12.7237 9.2987 12.4269C9.41656 11.8347 9.49463 11.4385 9.49463 11.4385C9.49463 11.4385 9.45024 11.8378 9.38289 12.436C9.32932 12.7313 9.3982 13.0847 9.40279 13.455C9.40348 13.6464 9.42452 13.8372 9.46554 14.0242C9.50228 14.2154 9.54054 14.4097 9.57728 14.6056C9.65075 14.9926 9.80228 15.3706 9.9033 15.7179C10.0564 16.056 10.1635 16.3819 10.3089 16.6359C10.4101 16.8454 10.522 17.0497 10.6441 17.2479C10.7252 17.3901 10.788 17.4774 10.788 17.4774L10.3242 17.7742Z" fill="#1A6241"/>
<path d="M12.0311 18.6282C12.0311 18.6282 11.9821 18.5472 11.901 18.3773C11.8198 18.2075 11.7096 17.9734 11.5948 17.6858C11.48 17.3981 11.3806 17.0523 11.2566 16.6913C11.1566 16.3029 11.0764 15.9097 11.0163 15.5132C10.9948 15.3112 10.9734 15.1077 10.952 14.9012C10.9258 14.7065 10.9202 14.5096 10.9351 14.3137C10.9642 13.9327 10.9244 13.5762 11.004 13.2794C11.1219 12.6873 11.1999 12.291 11.1999 12.291C11.1999 12.291 11.1555 12.6888 11.0882 13.287C11.0346 13.5839 11.1035 13.9373 11.1081 14.3075C11.108 14.4985 11.1291 14.6888 11.1709 14.8752C11.2091 15.0679 11.2459 15.2623 11.2841 15.4566C11.3576 15.8452 11.5076 16.2216 11.6086 16.5689C11.7617 16.907 11.8704 17.2344 12.0127 17.4869C12.155 17.7393 12.2607 17.9627 12.3494 18.0989C12.3934 18.1773 12.4415 18.2534 12.4933 18.3268L12.0311 18.6282Z" fill="#1A6241"/>
<path d="M13.7422 18.9416C13.7422 18.9416 13.6932 18.8605 13.6136 18.6907C13.4994 18.4663 13.3972 18.2359 13.3075 18.0006C13.1805 17.7191 13.0917 17.3672 12.9677 17.0046C12.8912 16.6267 12.7703 16.2396 12.7274 15.8281C12.706 15.6261 12.6845 15.4226 12.6631 15.2161C12.6383 15.0217 12.6331 14.8254 12.6478 14.6301C12.6738 14.2491 12.6356 13.8926 12.7167 13.5958C12.833 13.0022 12.9111 12.6074 12.9111 12.6074C12.9111 12.6074 12.8667 13.0052 12.8009 13.6034C12.7458 13.8987 12.8146 14.2522 12.8192 14.6224C12.8204 14.8139 12.842 15.0047 12.8835 15.1916C12.9187 15.3828 12.957 15.5771 12.9953 15.7714C13.0672 16.1601 13.2187 16.5364 13.3197 16.8853C13.4728 17.2234 13.5815 17.5508 13.7254 17.8033C13.827 18.0129 13.9394 18.2172 14.0621 18.4153C14.1056 18.4937 14.1531 18.5698 14.2044 18.6432L13.7422 18.9416Z" fill="#1A6241"/>
<path d="M15.4459 19.7941C15.3982 19.7128 15.3548 19.6291 15.3158 19.5432C15.2013 19.3189 15.0991 19.0886 15.0097 18.8532C14.8827 18.5717 14.7939 18.2213 14.6699 17.8587C14.5934 17.4808 14.4725 17.0937 14.4296 16.6821C14.4082 16.4786 14.3868 16.2751 14.3653 16.0701C14.3397 15.8754 14.3346 15.6784 14.35 15.4826C14.3776 15.1032 14.3378 14.7452 14.4189 14.4483C14.5352 13.8547 14.6148 13.46 14.6148 13.46C14.6148 13.46 14.5689 13.8593 14.5031 14.4575C14.448 14.7528 14.5184 15.1047 14.5215 15.4765C14.5231 15.6678 14.5441 15.8585 14.5842 16.0456C14.6225 16.2369 14.6592 16.4312 14.6975 16.6255C14.7872 17.0016 14.896 17.3728 15.0235 17.7378C15.1766 18.0775 15.2837 18.4034 15.4276 18.6558C15.5296 18.8653 15.642 19.0695 15.7643 19.2678C15.8083 19.3462 15.8564 19.4223 15.9082 19.4958L15.4459 19.7941Z" fill="#1A6241"/>
<path d="M17.1524 20.6476C17.1047 20.5664 17.0612 20.4826 17.0223 20.3967C16.9366 20.2315 16.831 19.9928 16.7162 19.7067C16.6014 19.4206 16.5019 19.0733 16.3764 18.7107C16.277 18.3228 16.1973 17.9301 16.1376 17.5341C16.1162 17.3306 16.0932 17.1287 16.0733 16.9221C16.0472 16.7279 16.0415 16.5315 16.0565 16.3361C16.084 15.9552 16.0442 15.5987 16.1238 15.3019C16.2417 14.7082 16.3213 14.3135 16.3213 14.3135C16.3213 14.3135 16.2754 14.7113 16.2096 15.3095C16.156 15.6048 16.2233 15.9582 16.2279 16.3285C16.2291 16.5199 16.2507 16.7107 16.2922 16.8976C16.3289 17.0889 16.3672 17.2832 16.4039 17.479C16.4774 17.8661 16.6274 18.244 16.73 18.5913C16.883 18.9295 16.9902 19.2569 17.134 19.5093C17.2779 19.7618 17.382 19.9867 17.4708 20.1213C17.5596 20.256 17.6147 20.3493 17.6147 20.3493L17.1524 20.6476Z" fill="#1A6241"/>
<path d="M18.8589 21.5012C18.8589 21.5012 18.81 21.4201 18.7288 21.2503C18.6477 21.0805 18.536 20.8464 18.4227 20.5603C18.3094 20.2742 18.2069 19.9269 18.0829 19.5643C18.0079 19.1863 17.8855 18.7993 17.8441 18.3877C17.8227 18.1842 17.7998 17.9822 17.7799 17.7757C17.7537 17.5815 17.7481 17.3851 17.763 17.1897C17.7906 16.8087 17.7508 16.4507 17.8319 16.1539C17.9497 15.5618 18.0278 15.1655 18.0278 15.1655C18.0278 15.1655 17.9834 15.5649 17.9161 16.1631C17.861 16.4584 17.9314 16.8118 17.9344 17.1821C17.9364 17.3735 17.958 17.5642 17.9987 17.7512C18.0355 17.9425 18.0737 18.1368 18.1105 18.3311C18.1839 18.7197 18.3355 19.0961 18.4365 19.4449C18.5895 19.783 18.6967 20.1089 18.8421 20.3629C18.9433 20.5725 19.0552 20.7768 19.1773 20.9749C19.2213 21.0533 19.2693 21.1294 19.3212 21.2029L18.8589 21.5012Z" fill="#1A6241"/>
<path d="M20.5655 22.352C20.5655 22.352 20.5165 22.2724 20.4354 22.101C20.3543 21.9297 20.2441 21.6987 20.1293 21.411C20.0145 21.1234 19.915 20.7776 19.791 20.415C19.6903 20.0273 19.6101 19.6346 19.5507 19.2384C19.5293 19.0365 19.5078 18.833 19.4864 18.6341C19.4603 18.4394 19.4546 18.2425 19.4696 18.0466C19.4986 17.6656 19.4589 17.3091 19.5384 17.0123L19.7344 16.0239C19.7344 16.0239 19.69 16.4217 19.6226 17.0199C19.5675 17.3152 19.6379 17.6687 19.641 18.0405C19.6423 18.2314 19.6639 18.4217 19.7053 18.6081C19.7436 18.8009 19.7788 18.9952 19.817 19.1895C19.8905 19.5781 20.0405 19.9545 20.143 20.3018C20.2961 20.6399 20.4032 20.9673 20.5471 21.2198C20.691 21.4722 20.7951 21.6971 20.8839 21.8318C20.9279 21.9102 20.9759 21.9863 21.0277 22.0597L20.5655 22.352Z" fill="#1A6241"/>
<path d="M25.776 25.1384C25.776 25.1384 25.727 25.0573 25.6459 24.8875C25.5647 24.7177 25.4545 24.4836 25.3397 24.1975C25.2249 23.9114 25.1254 23.5641 25.0015 23.2015C24.9249 22.8236 24.804 22.4365 24.7612 22.0249C24.7397 21.8209 24.7183 21.6169 24.6969 21.4129C24.6712 21.2186 24.6661 21.0222 24.6816 20.8269C24.7076 20.4459 24.6693 20.0895 24.7489 19.7911C24.8668 19.199 24.9448 18.8027 24.9448 18.8027C24.9448 18.8027 24.9005 19.2021 24.8331 19.8003C24.7795 20.0956 24.8484 20.449 24.853 20.8193C24.8545 21.0106 24.8755 21.2013 24.9158 21.3884C24.954 21.5797 24.9908 21.774 25.0275 21.9683C25.1025 22.3569 25.251 22.7333 25.3535 23.0806C25.5066 23.4202 25.6152 23.7461 25.7591 23.9986C25.8605 24.2084 25.9729 24.4127 26.0959 24.6106C26.1391 24.6891 26.1866 24.7652 26.2382 24.8385L25.776 25.1384Z" fill="#1A6241"/>
<path d="M27.1685 25.9016C27.1206 25.8199 27.0771 25.7356 27.0384 25.6492C26.9527 25.4839 26.8471 25.2468 26.7323 24.9607C26.6175 24.6746 26.518 24.3272 26.3925 23.9646C26.3159 23.5867 26.1966 23.1996 26.1537 22.7881C26.1323 22.5846 26.1108 22.3811 26.0894 22.1761C26.0633 21.9819 26.0577 21.7855 26.0726 21.5901C26.1001 21.2091 26.0603 20.8511 26.1415 20.5543L26.3374 19.5659C26.3374 19.5659 26.293 19.9652 26.2256 20.5635C26.1721 20.8588 26.2409 21.2122 26.244 21.5824C26.2452 21.7739 26.2668 21.9647 26.3083 22.1516C26.345 22.3429 26.3833 22.5372 26.42 22.7315C26.4935 23.1201 26.6435 23.4965 26.7461 23.8438C26.8991 24.1834 27.0062 24.5093 27.1501 24.7618C27.2521 24.9712 27.3645 25.1755 27.4869 25.3738C27.5309 25.4522 27.5789 25.5283 27.6307 25.6017L27.1685 25.9016Z" fill="#1A6241"/>
<path d="M28.5614 26.6638C28.5137 26.5825 28.4702 26.4987 28.4313 26.4128C28.3177 26.1881 28.2156 25.9578 28.1252 25.7228C27.9982 25.4413 27.9094 25.0909 27.7854 24.7283C27.7089 24.3504 27.5895 23.9633 27.5451 23.5518C27.5252 23.3483 27.5022 23.1448 27.4808 22.9398C27.4559 22.7449 27.4507 22.5481 27.4655 22.3522C27.493 21.9728 27.4533 21.6148 27.5344 21.318C27.6522 20.7259 27.7303 20.3296 27.7303 20.3296C27.7303 20.3296 27.6859 20.7289 27.6186 21.3271C27.5635 21.6224 27.6323 21.9743 27.6369 22.3461C27.6382 22.5376 27.6598 22.7284 27.7012 22.9153C27.738 23.1065 27.7747 23.3008 27.813 23.4951C27.8864 23.8838 28.0364 24.2601 28.139 24.6074C28.292 24.9456 28.3992 25.273 28.5431 25.5254C28.6448 25.735 28.7572 25.9393 28.8798 26.1374C28.9238 26.2158 28.9718 26.2919 29.0237 26.3654L28.5614 26.6638Z" fill="#1A6241"/>
<path d="M29.9545 27.4272C29.9061 27.346 29.8621 27.2622 29.8229 27.1762C29.7091 26.9516 29.6069 26.7213 29.5167 26.4862C29.3897 26.2047 29.3009 25.8543 29.177 25.4917C29.1004 25.1138 28.9795 24.7267 28.9366 24.3136C28.9167 24.1117 28.8938 23.9082 28.8724 23.7093C28.8475 23.5145 28.8424 23.3176 28.8571 23.1218C28.8831 22.7423 28.8448 22.3843 28.9259 22.0875C29.0423 21.4939 29.1203 21.0991 29.1203 21.0991C29.1203 21.0991 29.0759 21.4969 29.0101 22.0951C28.955 22.3904 29.0239 22.7439 29.0285 23.1157C29.0298 23.3066 29.0513 23.4969 29.0928 23.6833C29.1295 23.8761 29.1662 24.0704 29.2045 24.2647C29.278 24.6533 29.428 25.0297 29.529 25.377C29.6821 25.7151 29.7907 26.0425 29.9346 26.295C30.036 26.5047 30.1484 26.709 30.2713 26.907C30.3525 27.0493 30.4137 27.1349 30.4137 27.1349L29.9545 27.4272Z" fill="#1A6241"/>
<path d="M32.246 28.1903C32.246 28.1903 32.1955 28.1093 32.1143 27.9394C32.0008 27.7147 31.8986 27.4844 31.8082 27.2494C31.6827 26.9679 31.5939 26.616 31.4684 26.2534C31.3919 25.877 31.2725 25.4884 31.2296 25.0768C31.2082 24.8749 31.1868 24.6714 31.1654 24.4725C31.1392 24.2778 31.1336 24.0808 31.1485 23.885C31.1776 23.504 31.1378 23.1475 31.2174 22.8507C31.3353 22.2586 31.4133 21.8623 31.4133 21.8623C31.4133 21.8623 31.3689 22.2601 31.3016 22.8583C31.2465 23.1551 31.3169 23.507 31.32 23.8788C31.3219 24.0697 31.3435 24.2599 31.3842 24.4465C31.4225 24.6392 31.4592 24.8335 31.496 25.0279C31.5694 25.4165 31.7194 25.7928 31.822 26.1402C31.9751 26.4783 32.0822 26.8057 32.2276 27.0582C32.3285 27.2679 32.4404 27.4722 32.5628 27.6701C32.6066 27.7492 32.6547 27.8258 32.7067 27.8996L32.246 28.1903Z" fill="#1A6241"/>
<path d="M33.5485 28.8652C33.5003 28.7834 33.4564 28.6991 33.4169 28.6128C33.3033 28.3886 33.2011 28.1588 33.1107 27.9243C32.9822 27.6412 32.8949 27.2893 32.7694 26.9282C32.6929 26.5503 32.572 26.1633 32.5306 25.7517C32.5092 25.5477 32.4878 25.3437 32.4663 25.1397C32.441 24.9449 32.4353 24.7481 32.4495 24.5522C32.4771 24.1727 32.4388 23.8147 32.5184 23.5179L32.722 22.5356C32.722 22.5356 32.6776 22.935 32.6102 23.5332C32.5567 23.8285 32.6255 24.1819 32.6286 24.5522C32.6299 24.7436 32.6514 24.9344 32.6929 25.1213C32.7296 25.3126 32.7679 25.5069 32.8061 25.7012C32.8954 26.0772 33.0037 26.4485 33.1306 26.8135C33.2837 27.1532 33.3924 27.479 33.5362 27.7315C33.6374 27.9414 33.7498 28.1457 33.873 28.3435C33.9541 28.4858 34.0153 28.5715 34.0153 28.5715L33.5485 28.8652Z" fill="#1A6241"/>
<path d="M35.0299 29.7178C35.0299 29.7178 34.9809 29.6367 34.8998 29.4668C34.7855 29.2424 34.6834 29.0121 34.5936 28.7768C34.4666 28.4953 34.3778 28.1434 34.2539 27.7808C34.1773 27.4044 34.0564 27.0158 34.0135 26.6042C33.9936 26.4023 33.9707 26.1988 33.9493 25.9999C33.9244 25.8051 33.9193 25.6082 33.934 25.4124C33.9615 25.0314 33.9217 24.6749 34.0028 24.3781C34.1207 23.7845 34.1972 23.3882 34.1972 23.3882C34.1972 23.3882 34.1528 23.7875 34.087 24.3857C34.0319 24.6826 34.1008 25.0345 34.1054 25.4047C34.1066 25.5962 34.1282 25.787 34.1697 25.9739C34.2064 26.1651 34.2431 26.361 34.2814 26.5553C34.3549 26.9424 34.5049 27.3203 34.6059 27.6676C34.759 28.0057 34.8676 28.3331 35.0115 28.5856C35.1134 28.7951 35.2258 28.9993 35.3482 29.1976C35.4294 29.3398 35.4921 29.4271 35.4921 29.4271L35.0299 29.7178Z" fill="#1A6241"/>
<path d="M37.7728 31.1096C37.725 31.0283 37.6816 30.9446 37.6427 30.8587C37.5285 30.6337 37.4263 30.4029 37.3366 30.1671C37.211 29.8872 37.1207 29.5353 36.9983 29.1726C36.8978 28.7849 36.8175 28.3922 36.758 27.9961L36.6937 27.3841C36.6675 27.1894 36.6619 26.9925 36.6769 26.7966C36.7044 26.4171 36.6646 26.0591 36.7457 25.7638C36.8636 25.1702 36.9401 24.7739 36.9401 24.7739C36.9401 24.7739 36.8973 25.1733 36.8299 25.7715C36.7748 26.0668 36.8452 26.4202 36.8483 26.7905C36.8496 26.9819 36.8711 27.1727 36.9126 27.3596C36.9493 27.5509 36.986 27.7452 37.0243 27.9395C37.1138 28.3156 37.2227 28.6868 37.3503 29.0518C37.5034 29.3914 37.6105 29.7189 37.7544 29.9698C37.8983 30.2207 38.0024 30.4471 38.0911 30.5818C38.1352 30.6602 38.1832 30.7363 38.235 30.8097L37.7728 31.1096Z" fill="#1A6241"/>
<path d="M39.3877 32.0081C39.34 31.9268 39.2965 31.843 39.2576 31.7571C39.144 31.5325 39.0418 31.3022 38.9515 31.0671C38.826 30.7841 38.7372 30.4337 38.6117 30.0711C38.5367 29.6932 38.4158 29.3061 38.3729 28.8945L38.3086 28.2825C38.2825 28.0883 38.2769 27.8919 38.2918 27.6965C38.3209 27.3156 38.2811 26.9591 38.3607 26.6607C38.4786 26.0686 38.5566 25.6724 38.5566 25.6724C38.5566 25.6724 38.5122 26.0717 38.4464 26.6699C38.3898 26.9652 38.4602 27.3186 38.4648 27.6889C38.4655 27.8803 38.4865 28.0711 38.5275 28.258C38.5643 28.4493 38.6025 28.6436 38.6393 28.8379C38.7127 29.2265 38.8643 29.6029 38.9653 29.9502C39.1183 30.2899 39.2255 30.6158 39.3709 30.8682C39.4719 31.0782 39.5843 31.2825 39.7076 31.4802C39.7508 31.5588 39.7984 31.6349 39.85 31.7082L39.3877 32.0081Z" fill="#1A6241"/>
<path d="M42.8453 34.0276C42.8453 34.0276 42.7963 33.948 42.7152 33.7767C42.6013 33.5521 42.4991 33.3218 42.409 33.0866C42.282 32.8051 42.1932 32.4532 42.0693 32.0921C41.9698 31.7037 41.8901 31.3105 41.8305 30.9141C41.809 30.7121 41.7861 30.5086 41.7662 30.3021C41.7401 30.1073 41.7344 29.9104 41.7493 29.7145C41.7769 29.3336 41.7371 28.9771 41.8182 28.6803L42.0142 27.6919C42.0142 27.6919 41.9698 28.0897 41.9024 28.6879C41.8488 28.9832 41.9177 29.3366 41.9208 29.7084C41.922 29.8994 41.9436 30.0897 41.9851 30.276C42.0218 30.4688 42.0585 30.6631 42.0968 30.8574C42.1703 31.2461 42.3203 31.6224 42.4228 31.9697C42.5759 32.3079 42.683 32.6353 42.8269 32.8877C42.9288 33.0973 43.0412 33.3015 43.1636 33.4997C43.2075 33.5788 43.2555 33.6554 43.3075 33.7292L42.8453 34.0276Z" fill="#1A6241"/>
<path d="M30.986 27.9211C30.986 27.9211 30.937 27.84 30.8559 27.6702C30.7748 27.5004 30.6646 27.2663 30.5498 26.9802C30.435 26.6941 30.3339 26.3468 30.21 25.9842C30.1334 25.6078 30.0125 25.2192 29.9697 24.8076C29.9498 24.6057 29.9268 24.4022 29.9054 24.1956C29.8797 24.0008 29.8746 23.8039 29.8901 23.6081C29.9161 23.2271 29.8778 22.8706 29.9574 22.5738L30.1533 21.5854C30.1533 21.5854 30.1089 21.9832 30.0431 22.5815C29.988 22.8768 30.0569 23.2302 30.0615 23.602C30.0628 23.7929 30.0843 23.9832 30.1258 24.1696L30.236 24.751C30.3095 25.1396 30.461 25.516 30.562 25.8633C30.7151 26.2014 30.8237 26.5288 30.9676 26.7813C31.0689 26.9911 31.1813 27.1954 31.3044 27.3933C31.3482 27.4723 31.3962 27.5489 31.4482 27.6228L30.986 27.9211Z" fill="#1A6241"/>
<path d="M36.3327 30.3905C36.2849 30.3093 36.2415 30.2255 36.2026 30.1396C36.1168 29.9744 36.0112 29.7357 35.8964 29.4496C35.7816 29.1635 35.6806 28.8177 35.5566 28.4551C35.4574 28.0667 35.3777 27.6735 35.3179 27.277C35.2949 27.0751 35.275 26.8716 35.2521 26.6727C35.2264 26.4779 35.2213 26.281 35.2367 26.0851C35.2643 25.7057 35.226 25.3477 35.3056 25.0509C35.4219 24.4572 35.5015 24.0625 35.5015 24.0625C35.5015 24.0625 35.4556 24.4603 35.3898 25.0585C35.3347 25.3538 35.4051 25.7072 35.4082 26.079C35.4097 26.2699 35.4307 26.4601 35.4709 26.6467C35.5092 26.8394 35.5459 27.0337 35.5842 27.2281C35.6742 27.604 35.783 27.9753 35.9102 28.3404C36.0633 28.6785 36.1704 29.0059 36.3143 29.2583C36.4582 29.5108 36.5623 29.7357 36.651 29.8703C36.7398 30.005 36.7949 30.0983 36.7949 30.0983L36.3327 30.3905Z" fill="#1A6241"/>
<path d="M41.4984 33.0851C41.4507 33.0039 41.4072 32.9201 41.3683 32.8342C41.2541 32.6098 41.1519 32.3795 41.0622 32.1442C40.9352 31.8627 40.8464 31.5108 40.7224 31.1482C40.623 30.7603 40.5433 30.3676 40.4836 29.9716C40.4607 29.7681 40.4393 29.5662 40.4178 29.3596C40.3922 29.1654 40.387 28.9689 40.4025 28.7736C40.4301 28.3927 40.3903 28.0362 40.4699 27.7378C40.5877 27.1457 40.6658 26.751 40.6658 26.751C40.6658 26.751 40.6229 27.1488 40.5556 27.747C40.5005 28.0423 40.5694 28.3957 40.574 28.766C40.5752 28.9574 40.5967 29.1482 40.6382 29.3351C40.675 29.5264 40.7132 29.7207 40.75 29.9165C40.8219 30.3036 40.9734 30.6815 41.0745 31.0288C41.2275 31.367 41.3362 31.6928 41.4801 31.9468C41.5818 32.1564 41.6942 32.3607 41.8168 32.5588C41.8979 32.6996 41.9592 32.7868 41.9592 32.7868L41.4984 33.0851Z" fill="#1A6241"/>
<path d="M2.55326 13.4646C2.55326 13.4646 2.50427 13.3835 2.42315 13.2122C2.34203 13.0408 2.23182 12.8098 2.11703 12.5237C2.00223 12.2375 1.90274 11.8902 1.77723 11.5276C1.67795 11.1397 1.59825 10.747 1.53846 10.3511C1.51703 10.1476 1.49559 9.94409 1.47417 9.73907C1.44877 9.5443 1.44313 9.34746 1.45733 9.15155C1.48488 8.77212 1.44662 8.41563 1.52774 8.11728L1.72212 7.12891C1.72212 7.12891 1.67774 7.52823 1.61039 8.12646C1.55682 8.42175 1.6257 8.77518 1.62876 9.14543C1.62998 9.33689 1.65153 9.52768 1.69305 9.71459C1.72979 9.90584 1.76805 10.1001 1.80632 10.2945C1.89557 10.6705 2.00387 11.0417 2.13081 11.4068C2.28387 11.7464 2.39254 12.0723 2.53489 12.3248C2.67724 12.5772 2.78284 12.8021 2.87162 12.9368C2.91822 13.0156 2.96932 13.0917 3.02468 13.1647L2.55326 13.4646Z" fill="#1A6241"/>
</g>
</svg>
