<svg width="77" height="91" viewBox="0 0 77 91" fill="none" xmlns="http://www.w3.org/2000/svg">
<g opacity="0.8">
<path d="M47.219 84.9536C46.8039 84.8401 46.4325 84.6045 46.1529 84.2775C45.8733 83.9504 45.6985 83.547 45.6511 83.1194C45.6036 82.6918 45.6858 82.2599 45.8869 81.8795C46.088 81.4992 46.3988 81.188 46.7789 80.9864C52.1189 78.1468 60.2816 69.2554 63.2406 63.9471C65.2439 60.0456 66.4738 48.354 66.4492 43.5135V43.4676C66.4722 42.0954 66.528 40.6772 66.5821 39.3231C66.817 33.4387 67.06 27.3524 64.6987 21.857C62.3144 16.0662 56.7347 17.3547 48.4916 19.9777C47.5392 20.2797 46.641 20.5653 45.7477 20.8312C45.4756 20.9165 45.1892 20.9468 44.9053 20.9204C44.6213 20.894 44.3455 20.8113 44.0938 20.6773C43.8421 20.5432 43.6196 20.3604 43.4393 20.1396C43.259 19.9188 43.1244 19.6643 43.0435 19.3909C42.9625 19.1176 42.9368 18.8309 42.9678 18.5475C42.9988 18.2641 43.0859 17.9897 43.2241 17.7403C43.3622 17.4909 43.5486 17.2715 43.7724 17.0949C43.9962 16.9182 44.253 16.7878 44.5277 16.7113C45.3783 16.4585 46.2568 16.1795 47.1878 15.8906C50.848 14.7252 54.9941 13.4055 58.743 13.463C63.5148 13.5369 66.8515 15.8036 68.6594 20.1927C71.3934 26.5514 71.1307 33.1317 70.8778 39.4938C70.822 40.8857 70.7694 42.2004 70.7464 43.5152C70.7661 47.8566 69.6955 60.8416 67.0436 65.9513L67.014 66.0054C63.702 71.9686 55.027 81.4689 48.797 84.7796C48.313 85.0382 47.7478 85.1006 47.219 84.9536Z" fill="#89FAC7"/>
<path d="M47.132 85.2738C46.6529 85.1427 46.2242 84.8709 45.9014 84.4934C45.5787 84.116 45.3768 83.6503 45.3219 83.1568C45.2671 82.6633 45.3618 82.1647 45.5938 81.7256C45.8258 81.2866 46.1843 80.9273 46.623 80.6943C51.9072 77.8826 60.0173 69.0405 62.9516 63.788C64.9221 59.9423 66.1422 48.3114 66.1175 43.5169C66.1405 42.0873 66.1963 40.6773 66.2505 39.3133C66.4837 33.4634 66.7267 27.4165 64.3917 21.9901C63.5806 20.0122 62.3441 18.8239 60.615 18.3479C57.6839 17.5436 53.4376 18.7549 48.5951 20.2945C47.6411 20.5982 46.7413 20.8855 45.8447 21.1514C45.2132 21.3381 44.5334 21.2665 43.9547 20.9522C43.3761 20.6379 42.9461 20.1067 42.7593 19.4755C42.5724 18.8443 42.6441 18.1647 42.9585 17.5863C43.2729 17.0079 43.8043 16.5781 44.4358 16.3913C45.2864 16.1402 46.1616 15.8612 47.091 15.5706C50.7758 14.3987 54.9499 13.0708 58.7496 13.1283C63.6397 13.2038 67.1126 15.5641 68.9665 20.0697C71.7284 26.4924 71.4641 33.1105 71.2096 39.5086C71.1537 40.9169 71.0995 42.2202 71.0798 43.5235C71.0979 47.86 70.0108 60.9583 67.3376 66.1089C67.3376 66.1089 67.3064 66.1664 67.3031 66.1697C63.9697 72.1722 55.229 81.7382 48.9531 85.0752C48.3942 85.3729 47.742 85.444 47.132 85.2738ZM60.7874 17.7077C62.73 18.2395 64.1109 19.5559 65.0059 21.7308C67.3951 27.2918 67.1504 33.4142 66.9139 39.3363C66.8597 40.697 66.8039 42.1037 66.7825 43.4726C66.8072 48.3623 65.5609 60.1556 63.5362 64.0982C60.5559 69.4475 52.3127 78.4193 46.9334 81.2786C46.7222 81.3909 46.5353 81.5437 46.3833 81.7282C46.2313 81.9128 46.1172 82.1255 46.0475 82.3542C45.9778 82.5828 45.9539 82.823 45.9771 83.0609C46.0004 83.2988 46.0703 83.5298 46.1829 83.7407C46.4175 84.1591 46.8047 84.4707 47.2637 84.6105C47.7227 84.7503 48.2179 84.7074 48.646 84.4908C54.8251 81.208 63.4393 71.7717 66.73 65.848C69.3737 60.7597 70.4378 47.8173 70.4197 43.5251C70.4427 42.212 70.4953 40.8989 70.5494 39.5152C70.8023 33.163 71.0634 26.6237 68.3606 20.3323C66.6069 16.0647 63.3589 13.8702 58.743 13.7996C55.05 13.7405 50.9318 15.052 47.2962 16.2091C46.3619 16.5062 45.4801 16.7869 44.6263 17.0397C44.1642 17.1764 43.7754 17.4909 43.5453 17.9142C43.3153 18.3374 43.2629 18.8347 43.3996 19.2966C43.5364 19.7585 43.8511 20.1471 44.2745 20.3771C44.6979 20.607 45.1954 20.6594 45.6575 20.5227C46.5491 20.2584 47.4457 19.9728 48.3964 19.6708C53.3357 18.0869 57.6889 16.8558 60.7874 17.7077Z" fill="#4FBB8A"/>
<path d="M77 25.0955C76.179 23.9071 75.1428 22.8895 73.8127 22.2773C68.903 20.0154 63.5318 22.1689 59.9899 25.8686L59.6303 26.2773C57.1524 29.1054 61.2379 33.309 63.7272 30.4678C64.9194 29.1071 66.2724 27.9942 68.0114 27.4181C68.7852 27.1576 69.6132 27.1011 70.4153 27.2539C70.729 27.3147 71.8587 27.9483 71.4203 27.5954C72.3366 28.3323 72.2676 28.416 72.8062 29.5076C73.0459 30 73.463 31.4641 73.6797 32.4621C74.9129 38.2315 74.22 44.6297 73.5155 50.4549C72.865 56.0178 71.7919 61.523 70.3053 66.923C68.1181 74.7737 61.9128 79.0495 54.6286 81.8793C53.1507 82.4554 52.1047 83.7964 52.553 85.4657C52.9323 86.8806 54.6483 88.1199 56.1409 87.5404C65.1591 84.0377 72.9425 78.7163 75.8046 69.0092C76.2446 67.5172 76.6338 66.0087 76.9918 64.4904L77 25.0955Z" fill="#89FAC7"/>
<path d="M77 62.9756C76.5451 65.0552 76.0475 67.0265 75.4942 68.9059C73.0508 77.1933 66.8651 83.0218 56.0292 87.2205C55.637 87.3699 55.2065 87.3861 54.8042 87.2664C54.3531 87.1318 53.9418 86.8885 53.6066 86.558C53.2713 86.2274 53.0223 85.8198 52.8814 85.3707C52.4397 83.7293 53.6154 82.6213 54.7566 82.1781C63.6697 78.7165 68.7141 73.8941 70.6337 67.0019C72.1235 61.5855 73.1999 56.0639 73.8538 50.4846C74.463 45.3963 75.2955 38.427 74.0049 32.3834C73.7914 31.3838 73.3595 29.8754 73.105 29.355C73.0212 29.1909 72.9506 29.0366 72.8899 28.9086C72.5418 28.1716 72.4284 27.973 71.6271 27.3296C71.595 27.305 71.5589 27.2861 71.5204 27.2738C71.4669 27.2573 71.4097 27.2573 71.3562 27.2738L71.2182 27.2097C70.985 27.0949 70.7435 26.9978 70.4958 26.9192H70.4777C69.6198 26.7557 68.7341 26.8185 67.9079 27.1014C66.2987 27.6332 64.8914 28.6328 63.4743 30.2463C62.852 30.9537 62.0654 31.2312 61.2592 31.0014C60.3741 30.7584 59.5892 29.9591 59.3035 29.0104C59.17 28.5774 59.1525 28.117 59.2527 27.6751C59.353 27.2333 59.5676 26.8254 59.8749 26.4925L60.223 26.0936C63.6599 22.5055 68.2346 20.9462 72.1624 22.0246C72.6785 22.1665 73.1822 22.3504 73.6682 22.5745C75.1313 23.2491 76.2036 24.4325 76.995 25.7046V24.5326C76.2118 23.492 75.22 22.563 73.9474 21.9721C73.4279 21.7326 72.8897 21.536 72.3381 21.3845C68.1755 20.2355 63.3512 21.8769 59.7337 25.6521L59.3774 26.0624C58.9935 26.4783 58.7259 26.9879 58.6014 27.5399C58.4769 28.0919 58.4999 28.667 58.668 29.2073C59.0227 30.3842 59.9685 31.3411 61.0835 31.6481C62.1475 31.9402 63.1738 31.5988 63.9719 30.6895C65.3052 29.1696 66.6189 28.2274 68.1115 27.735C68.835 27.486 69.6108 27.4294 70.3627 27.5709C70.5578 27.6413 70.7491 27.7219 70.9358 27.8121C71.0889 27.892 71.2488 27.9579 71.4137 28.0091C71.9326 28.4408 72.0015 28.5869 72.2856 29.186C72.348 29.3156 72.4186 29.465 72.504 29.6406C72.7158 30.0707 73.1264 31.4675 73.3497 32.5147C74.5237 38.0035 73.972 43.8616 73.1855 50.4058C72.5356 55.9503 71.4652 61.4374 69.9835 66.8197C68.1263 73.4936 63.2067 78.1765 54.5054 81.5544C52.6991 82.2586 51.7812 83.8524 52.2311 85.5381C52.4013 86.0993 52.7087 86.6093 53.1255 87.022C53.5424 87.4347 54.0556 87.737 54.6187 87.9017C55.1589 88.0574 55.7351 88.0338 56.2608 87.8344C67.3052 83.5454 73.6157 77.5888 76.1297 69.0881C76.4367 68.0458 76.7225 66.9674 76.9983 65.8693L77 62.9756Z" fill="#4FBB8A"/>
<path d="M47.24 0.783251C39.3401 -1.24879 39.3368 4.11692 39.3368 4.11692L38.9805 8.23844L41.5716 9.00333L41.946 5.92409C41.946 5.92409 42.1513 1.9191 46.9691 3.13373C51.3287 4.23838 51.2499 6.08822 50.5717 8.55031C50.0085 10.6004 49.6259 11.1946 49.5126 11.3407L51.9757 12.0678C51.9757 12.0678 52.6227 11.6197 53.5193 8.35661C54.4158 5.09354 54.3895 2.62325 47.24 0.783251Z" fill="#89FAC7"/>
<path d="M51.8861 12.3945L49.423 11.6673C49.3706 11.6524 49.3227 11.6246 49.2837 11.5864C49.2447 11.5483 49.2159 11.5011 49.1997 11.449C49.1835 11.3972 49.1801 11.3422 49.1899 11.2887C49.1996 11.2353 49.2221 11.1849 49.2555 11.1421C49.3245 11.0567 49.6907 10.5266 50.2555 8.47322C50.8861 6.17527 51.0142 4.58969 47.1882 3.5392L46.8909 3.46206C45.3917 3.0829 44.2226 3.19123 43.4197 3.79034C42.3622 4.56999 42.2817 5.93563 42.2817 5.94876L41.9155 8.9607C41.9234 9.00778 41.9206 9.05602 41.9073 9.10186C41.8821 9.18666 41.8247 9.2582 41.7473 9.30116C41.67 9.34412 41.5789 9.35507 41.4935 9.33166L38.8991 8.56677C38.8254 8.54566 38.7615 8.49949 38.7183 8.43625C38.6751 8.373 38.6554 8.29667 38.6626 8.22044L39.0173 4.09892C39.0452 3.50083 39.2007 2.91561 39.4734 2.38253C39.7462 1.84946 40.1298 1.38086 40.5986 1.00817C42.0584 -0.121101 44.3244 -0.304938 47.331 0.473079C54.8533 2.44274 54.7318 5.23311 53.8434 8.46007C52.9551 11.687 52.2933 12.2697 52.1701 12.3567C52.1284 12.3833 52.0814 12.4005 52.0323 12.407C51.9833 12.4135 51.9333 12.4092 51.8861 12.3945ZM50.0174 11.1503L51.8697 11.6969C52.0717 11.4244 52.5626 10.584 53.1964 8.2746C54.0421 5.19699 54.0963 2.88922 47.1586 1.10667C44.3573 0.384462 42.2833 0.525608 40.9927 1.52357C39.702 2.52153 39.6675 4.1022 39.6675 4.11697L39.3391 7.99557L41.2948 8.57334L41.6232 5.88475C41.6232 5.83879 41.7217 4.21216 43.0288 3.24867C44.0009 2.53138 45.3573 2.38694 47.0568 2.81698L47.3671 2.89905C51.7629 4.10383 51.5675 6.21465 50.8992 8.64391C50.5248 9.98656 50.2276 10.7334 50.0174 11.1503Z" fill="#4FBB8A"/>
<path d="M45.8959 2.94331L45.7186 2.89734C40.9008 1.67779 40.6955 5.6877 40.6955 5.6877L40.3359 8.6422L41.5724 9.00822L41.9468 5.929C41.9468 5.929 42.1225 2.54117 45.8959 2.94331Z" fill="#89FAC7"/>
<path d="M41.4835 9.32191L40.2454 8.95588C40.1699 8.93417 40.1047 8.88613 40.0616 8.82048C40.0185 8.75483 40.0004 8.67591 40.0106 8.59805L40.3685 5.64356C40.3685 5.5976 40.4687 3.97263 41.7741 3.01734C42.7462 2.30005 44.1026 2.15399 45.8037 2.58403L45.9827 2.63326C46.0698 2.64958 46.1469 2.69983 46.1969 2.77293C46.2469 2.84604 46.2659 2.93602 46.2495 3.02309C46.2332 3.11015 46.183 3.18718 46.1098 3.2372C46.0367 3.28722 45.9467 3.30614 45.8596 3.28981C44.7709 3.17328 43.9039 3.38173 43.2848 3.90698C42.3603 4.68992 42.2782 5.94722 42.2782 5.95871L41.9006 9.05929C41.8953 9.10677 41.8797 9.15252 41.8548 9.19334C41.83 9.23416 41.7966 9.26905 41.7569 9.29562C41.7171 9.32219 41.6721 9.33978 41.6249 9.34716C41.5777 9.35453 41.5294 9.35151 41.4835 9.33832V9.32191ZM40.7002 8.39945L41.2897 8.57345L41.6181 5.88486C41.6181 5.84382 41.7084 4.36164 42.8496 3.38994C42.9959 3.26721 43.1525 3.15738 43.3176 3.06166C42.903 3.13203 42.5099 3.29595 42.1682 3.54095C41.1156 4.3124 41.0188 5.68952 41.0188 5.70429L40.7002 8.39945Z" fill="#4FBB8A"/>
<path d="M47.2416 0.783355C46.7034 0.646502 46.1586 0.536936 45.6094 0.455078C45.7375 0.486264 45.8606 0.512535 45.992 0.545362C53.1399 2.38536 53.1628 4.86058 52.2663 8.12365C51.5733 10.6497 51.0314 11.4852 50.8213 11.7347L51.9707 12.0761C51.9707 12.0761 52.6177 11.628 53.5143 8.36493C54.4108 5.10185 54.3911 2.62335 47.2416 0.783355Z" fill="#89FAC7"/>
<path d="M51.886 12.3945L50.7365 12.0531C50.6827 12.0388 50.6334 12.0111 50.5933 11.9725C50.5532 11.9339 50.5235 11.8858 50.5071 11.8326C50.4907 11.7795 50.4881 11.723 50.4995 11.6685C50.5109 11.6141 50.5359 11.5634 50.5723 11.5213C50.7201 11.3456 51.2538 10.5758 51.9533 8.03496C52.799 4.95736 52.8614 2.66105 45.9138 0.865377L45.5378 0.776756C45.4958 0.768422 45.4559 0.751695 45.4205 0.727606C45.3851 0.703518 45.3549 0.672546 45.3318 0.63654C45.3086 0.600535 45.293 0.56025 45.2858 0.518065C45.2786 0.475879 45.2799 0.432659 45.2898 0.391014C45.3051 0.306575 45.3528 0.231472 45.4228 0.181773C45.4928 0.132074 45.5794 0.11173 45.6642 0.12511C46.2255 0.208356 46.7818 0.321787 47.3309 0.464888C47.4951 0.509205 47.6692 0.553514 47.8334 0.599473C54.8564 2.52646 54.7103 5.2955 53.8433 8.45188C52.9599 11.669 52.2932 12.2615 52.17 12.3485C52.1289 12.3765 52.0822 12.3951 52.0331 12.403C51.984 12.411 51.9338 12.4081 51.886 12.3945ZM51.349 11.5426L51.8696 11.6969C52.0715 11.4244 52.5625 10.584 53.1963 8.2746C53.7595 6.22779 53.9779 4.52403 52.0157 3.08618C53.3622 4.59297 53.1011 6.33284 52.5871 8.20894C52.0814 10.044 51.6495 11.0239 51.349 11.541V11.5426Z" fill="#4FBB8A"/>
<path d="M29.7534 11.848C29.7534 11.848 22.7763 13.6535 11.7712 36.0059C0.766119 58.3583 4.97305 71.3351 6.49524 75.1283C8.01743 78.9216 22.2212 84.5072 42.5236 89.2689C42.5236 89.2689 55.2644 93.0342 57.8654 81.5987C57.8654 81.5987 64.8688 50.8276 67.166 39.8681C70.6439 23.272 63.8819 22.2248 58.89 21.565C58.89 21.565 56.9196 16.6408 54.3169 15.349C46.4761 11.4425 34.1771 9.01164 29.7534 11.848Z" fill="#89FAC7"/>
<path d="M32.825 87.1513C17.4439 82.9297 7.48642 78.4815 6.18755 75.2513C3.82135 69.362 1.35989 56.4115 11.4733 35.858C22.035 14.3936 28.8791 11.7641 29.6131 11.5392C33.0106 9.4054 40.2865 10.3098 45.9828 11.8675C48.9045 12.6542 51.7444 13.7177 54.4641 15.0436C56.8877 16.2516 58.7334 20.3305 59.1209 21.2529C60.1282 21.3685 61.1262 21.5539 62.1078 21.8077C66.1489 22.9157 70.4133 25.9768 67.4905 39.9286C65.2179 50.7618 58.2588 81.3556 58.1882 81.6625C57.4641 84.8501 55.8893 87.1858 53.5281 88.604C49.0502 91.2827 43.1585 89.7792 42.5016 89.5987L42.4278 89.5773C39.1059 88.8075 35.8694 87.9868 32.825 87.1513ZM45.8071 12.5158C38.6888 10.5609 32.605 10.4132 29.93 12.1268C29.9009 12.1459 29.8687 12.1597 29.8348 12.1679C29.7675 12.1875 22.8265 14.2918 12.0677 36.1534C2.06924 56.4738 4.47817 69.2176 6.80333 75.0051C8.00531 77.9973 18.0448 82.4061 33.0007 86.5112C36.0368 87.345 39.2668 88.1624 42.5985 88.9454L42.6774 88.9667C43.3063 89.1309 48.9451 90.5802 53.1865 88.0426C55.3951 86.7295 56.8598 84.5284 57.5429 81.5247C57.6119 81.2161 64.5725 50.6305 66.8419 39.8006C69.6514 26.3905 65.6924 23.4869 61.9338 22.4544C60.9191 22.1961 59.8875 22.0091 58.8467 21.8947C58.7886 21.8858 58.7338 21.862 58.6875 21.8258C58.6412 21.7896 58.605 21.7421 58.5823 21.6879C58.5626 21.6403 56.625 16.8688 54.1701 15.646C51.4883 14.3394 48.6879 13.2913 45.8071 12.5158Z" fill="#4FBB8A"/>
<path d="M64.6231 33.7343C66.0665 31.108 66.8859 28.0616 64.3095 25.8556C62.6001 24.3915 60.1337 24.1699 57.6788 23.7661C56.5868 28.8954 56.3356 33.0121 55.3028 38.1562C54.4423 42.4385 53.4473 46.7012 52.5244 50.977C54.2059 48.3508 55.8348 45.6852 57.5934 43.0984C58.7281 41.4439 63.6953 35.4232 64.6231 33.7343Z" fill="#89FAC7"/>
<path d="M52.4351 51.2954L52.3957 51.2823C52.3234 51.253 52.2638 51.199 52.2277 51.1298C52.1916 51.0606 52.1813 50.9808 52.1987 50.9048C52.5205 49.4188 52.8489 47.9333 53.1839 46.4484C53.7898 43.7106 54.4187 40.8792 54.9787 38.0888C55.4713 35.6432 55.7882 33.3978 56.0969 31.2262C56.4352 28.8478 56.7833 26.389 57.3564 23.6955C57.3731 23.6113 57.4222 23.537 57.4931 23.4885C57.564 23.44 57.6511 23.4212 57.7357 23.4362C58.0264 23.4854 58.317 23.5297 58.6077 23.5757C59.6154 23.7127 60.6148 23.9056 61.6011 24.1535C62.8425 24.4949 63.7735 24.9561 64.5289 25.6028C66.7588 27.515 66.8885 30.3037 64.9164 33.8935C64.3417 34.9423 62.299 37.5521 60.496 39.8533C59.3728 41.2912 58.3121 42.6437 57.8687 43.3002C56.6273 45.1205 55.4286 47.018 54.2693 48.853C53.7767 49.6245 53.2956 50.3943 52.8046 51.1625C52.7656 51.2215 52.7085 51.2663 52.6419 51.2902C52.5753 51.3142 52.5028 51.316 52.4351 51.2954ZM57.9377 24.142C57.4073 26.6943 57.074 29.0448 56.7505 31.3181C56.4418 33.5012 56.1216 35.7499 55.6273 38.2119C55.0657 41.0023 54.4368 43.8452 53.821 46.583C53.6273 47.4584 53.4335 48.3338 53.2397 49.2092L53.6995 48.4805C54.8605 46.6421 56.0641 44.7381 57.312 42.9096C57.7653 42.253 58.7899 40.9399 59.9656 39.4348C61.7506 37.1516 63.7752 34.5648 64.3253 33.5635C66.1496 30.2414 66.0724 27.799 64.0872 26.0969C63.409 25.5158 62.5584 25.0973 61.4155 24.7838C60.4536 24.542 59.4789 24.354 58.496 24.2208L57.9377 24.142Z" fill="#4FBB8A"/>
<path d="M59.3824 19.1488C59.2412 18.1935 58.8618 17.3696 58.0539 16.9822C50.1803 13.1972 38.3492 10.5726 33.9929 13.1266C33.9929 13.1266 21.4295 18.5432 10.9105 39.1409C0.391463 59.7387 4.82171 71.88 6.41122 75.4385C8.00074 78.9971 22.2325 84.4662 42.5185 89.282C42.5185 89.282 46.9159 90.4228 50.3149 89.4822C50.4792 78.3208 55.8618 66.8574 58.0868 51.2823C60.2871 35.8992 60.4087 23.1637 59.3824 19.1488Z" fill="#89FAC7"/>
<path d="M32.8255 87.1515C17.4492 82.9315 7.46221 78.6032 6.10916 75.5732C3.64607 70.0434 0.941632 57.9332 10.615 38.99C21.0683 18.5268 33.7351 12.8772 33.8632 12.8213C36.5102 11.2637 42.2656 11.4623 49.2214 13.3696C52.306 14.2074 55.3106 15.3158 58.2002 16.6819C59.0212 17.0791 59.5352 17.8932 59.7109 19.0996C60.7388 23.1112 60.6403 35.7926 58.4186 51.3299C57.4071 58.4043 55.7141 64.7565 54.2215 70.3601C52.3544 77.3705 50.7403 83.424 50.6467 89.4872C50.6464 89.5589 50.6227 89.6285 50.5791 89.6854C50.5355 89.7423 50.4745 89.7834 50.4053 89.8024C46.957 90.756 42.6204 89.6514 42.4381 89.6038C39.1047 88.8126 35.8682 87.987 32.8255 87.1515ZM49.0441 14.0113C42.2575 12.1484 36.6941 11.9251 34.1605 13.4122C33.9962 13.4845 21.5396 19.0602 11.2061 39.292C1.6559 57.989 4.29307 69.8792 6.71346 75.304C7.96636 78.1108 18.0436 82.4063 32.9995 86.5114C36.0357 87.3452 39.264 88.1676 42.5941 88.9587C42.6417 88.9718 46.7468 90.0158 49.9833 89.2246C50.118 83.1646 51.7223 77.1457 53.5745 70.1845C55.0639 64.6038 56.7502 58.2664 57.7568 51.2314C59.9654 35.7778 60.0754 23.208 59.0574 19.2244C58.9063 18.2133 58.522 17.5699 57.9079 17.2744C55.0552 15.9279 52.0891 14.836 49.0441 14.0113Z" fill="#4FBB8A"/>
<path d="M52.9966 56.2982C52.9966 56.2982 61.5271 57.8789 63.6191 55.97L57.7422 82.1681C57.7422 82.1681 54.5976 89.062 45.7666 86.3061C45.7666 86.3094 46.5236 73.9629 52.9966 56.2982Z" fill="#89FAC7"/>
<path d="M46.2351 86.7936C46.0479 86.7427 45.8591 86.6869 45.667 86.6294C45.5957 86.6077 45.534 86.5623 45.4919 86.5009C45.4499 86.4395 45.43 86.3655 45.4355 86.2913C45.4437 86.1682 46.2713 73.6936 52.6851 56.185C52.7116 56.1109 52.7638 56.0488 52.8322 56.0099C52.9006 55.9711 52.9807 55.958 53.0579 55.9732C55.3847 56.4049 61.7805 57.2026 63.4028 55.7303C63.4543 55.6803 63.5207 55.6484 63.5919 55.6397C63.6631 55.6309 63.7353 55.6457 63.7973 55.6818C63.8593 55.718 63.9078 55.7734 63.9353 55.8396C63.9628 55.9059 63.9679 55.9793 63.9497 56.0487L58.0711 82.2453C58.0657 82.2677 58.0586 82.2896 58.0497 82.3109C58.0185 82.3782 54.8149 89.1489 46.2351 86.7936ZM46.1169 86.0697C54.163 88.4136 57.1696 82.5965 57.4257 82.0631L63.1254 56.679C60.5145 57.828 54.5866 56.917 53.2139 56.679C47.424 72.566 46.2713 84.2084 46.1169 86.0697Z" fill="#4FBB8A"/>
<path d="M63.6188 55.9733C63.6188 55.9733 55.7747 54.478 52.9963 56.3016C52.9963 56.2983 60.8093 58.4436 63.6188 55.9733Z" fill="#89FAC7"/>
<path d="M52.9071 56.6183C52.8444 56.6026 52.7878 56.5689 52.7443 56.5213C52.7007 56.4737 52.6721 56.4143 52.6622 56.3505C52.6522 56.2868 52.6612 56.2215 52.6881 56.1629C52.715 56.1042 52.7586 56.0548 52.8135 56.0208C55.6723 54.1496 63.3555 55.5858 63.6823 55.6482C63.7434 55.6594 63.8 55.6878 63.8456 55.7299C63.8913 55.772 63.924 55.8262 63.9401 55.8862C63.9553 55.9448 63.954 56.0065 63.9363 56.0645C63.9186 56.1224 63.8853 56.1743 63.8399 56.2145C60.9318 58.7816 53.2338 56.7085 52.9071 56.6183ZM62.7512 56.1636C60.922 55.8829 56.4326 55.3249 53.976 56.1932C55.8825 56.6133 60.3719 57.4078 62.7512 56.1636Z" fill="#4FBB8A"/>
<path d="M54.7103 19.812C54.7103 19.812 58.3508 25.3665 52.817 39.9814C52.817 39.9814 46.7595 47.9044 48.1322 59.6222C49.505 71.3401 43.1945 84.1199 34.8496 86.9595" fill="#89FAC7"/>
<path d="M54.9182 20.7229C54.8694 20.7102 54.8241 20.6864 54.786 20.6534C54.7478 20.6204 54.7178 20.579 54.6982 20.5325C54.6247 20.3457 54.5363 20.1651 54.4338 19.9925C54.3857 19.9187 54.3689 19.8288 54.387 19.7426C54.4052 19.6564 54.4569 19.581 54.5307 19.5329C54.6045 19.4848 54.6944 19.468 54.7807 19.4861C54.8669 19.5043 54.9424 19.556 54.9905 19.6297C55.1176 19.8354 55.2274 20.0511 55.3189 20.2748C55.3363 20.315 55.3455 20.3584 55.3459 20.4022C55.3463 20.446 55.3379 20.4895 55.3212 20.53C55.3045 20.5706 55.2799 20.6074 55.2487 20.6382C55.2176 20.6691 55.1806 20.6934 55.1399 20.7098C55.0698 20.7397 54.9914 20.7444 54.9182 20.7229Z" fill="#4FBB8A"/>
<path d="M37.6875 85.8352C37.6248 85.8198 37.568 85.7862 37.5243 85.7387C37.4805 85.6912 37.4518 85.6318 37.4416 85.568C37.4314 85.5043 37.4403 85.4389 37.4671 85.3801C37.4939 85.3214 37.5375 85.2718 37.5923 85.2377C37.9421 85.0096 38.2869 84.7617 38.6219 84.5007C38.6913 84.4465 38.7795 84.4221 38.867 84.4329C38.9544 84.4437 39.034 84.4887 39.0882 84.5582C39.1424 84.6276 39.1669 84.7157 39.1561 84.8032C39.1453 84.8906 39.1002 84.9701 39.0308 85.0243C38.681 85.2968 38.3198 85.5545 37.9569 85.7925C37.9177 85.8185 37.8733 85.8357 37.8269 85.8431C37.7804 85.8504 37.7329 85.8478 37.6875 85.8352ZM40.658 83.3468C40.6046 83.3319 40.5556 83.3043 40.5152 83.2664C40.4839 83.2358 40.459 83.1993 40.4421 83.159C40.4251 83.1187 40.4164 83.0754 40.4164 83.0317C40.4164 82.988 40.4251 82.9447 40.4421 82.9044C40.459 82.8641 40.4839 82.8275 40.5152 82.797C40.8058 82.4949 41.0916 82.1814 41.3691 81.8532C41.4261 81.7861 41.5074 81.7445 41.5952 81.7374C41.683 81.7303 41.77 81.7584 41.837 81.8154C41.9041 81.8724 41.9458 81.9538 41.9528 82.0415C41.9599 82.1292 41.9318 82.2162 41.8748 82.2832C41.5891 82.6213 41.2935 82.9398 40.993 83.2582C40.951 83.3027 40.8974 83.3346 40.8382 83.3503C40.779 83.3659 40.7166 83.3647 40.658 83.3468ZM43.0916 80.3283C43.0568 80.3183 43.0236 80.3034 42.993 80.284C42.9563 80.2599 42.9248 80.2286 42.9003 80.1921C42.8759 80.1556 42.859 80.1145 42.8507 80.0713C42.8425 80.0282 42.843 79.9838 42.8522 79.9408C42.8614 79.8978 42.8791 79.8571 42.9044 79.8211C43.1408 79.4732 43.3723 79.1137 43.5957 78.7477C43.6183 78.7105 43.6481 78.6781 43.6832 78.6524C43.7184 78.6267 43.7582 78.6082 43.8006 78.5979C43.8429 78.5876 43.8868 78.5858 43.9298 78.5925C43.9728 78.5992 44.0142 78.6142 44.0514 78.6369C44.0886 78.6595 44.1209 78.6892 44.1466 78.7244C44.1723 78.7595 44.1908 78.7994 44.2011 78.8417C44.2114 78.884 44.2133 78.9279 44.2066 78.9709C44.1999 79.0139 44.1848 79.0552 44.1622 79.0924C43.9334 79.4677 43.6975 79.8354 43.4545 80.1954C43.4158 80.253 43.3598 80.297 43.2946 80.3209C43.2294 80.3447 43.1584 80.3474 43.0916 80.3283ZM45.0341 76.97C45.0137 76.9649 44.994 76.9578 44.975 76.9487C44.9354 76.93 44.8999 76.9035 44.8707 76.8708C44.8414 76.8382 44.819 76.8 44.8048 76.7585C44.7906 76.717 44.7848 76.6731 44.7878 76.6294C44.7908 76.5857 44.8025 76.543 44.8223 76.5039C45.0078 76.1231 45.1885 75.7357 45.3609 75.3418C45.3785 75.3019 45.4037 75.2659 45.4352 75.2358C45.4667 75.2056 45.5039 75.182 45.5445 75.1663C45.5851 75.1505 45.6285 75.1428 45.6721 75.1438C45.7156 75.1448 45.7586 75.1543 45.7985 75.1719C45.8384 75.1895 45.8744 75.2147 45.9046 75.2462C45.9347 75.2777 45.9583 75.3148 45.9741 75.3554C45.9899 75.3961 45.9975 75.4394 45.9965 75.4829C45.9956 75.5265 45.986 75.5694 45.9685 75.6093C45.7933 76.012 45.6099 76.4076 45.4184 76.7961C45.385 76.8656 45.3281 76.9211 45.2579 76.9529C45.1876 76.9847 45.1084 76.9908 45.0341 76.97ZM46.512 73.3836H46.4906C46.4494 73.3698 46.4113 73.3479 46.3785 73.3192C46.3458 73.2905 46.3191 73.2556 46.3 73.2164C46.281 73.1774 46.2698 73.1348 46.2673 73.0914C46.2648 73.048 46.2709 73.0045 46.2854 72.9634C46.4233 72.5607 46.553 72.1542 46.6745 71.7439C46.6866 71.7018 46.7069 71.6625 46.7343 71.6283C46.7618 71.5942 46.7958 71.5659 46.8344 71.5451C46.8729 71.5243 46.9153 71.5114 46.9589 71.5072C47.0025 71.503 47.0465 71.5076 47.0883 71.5206C47.1303 71.5327 47.1694 71.5529 47.2034 71.5803C47.2374 71.6076 47.2657 71.6414 47.2865 71.6798C47.3073 71.7182 47.3202 71.7603 47.3245 71.8037C47.3289 71.8471 47.3245 71.8909 47.3117 71.9326C47.1869 72.3517 47.0539 72.767 46.9127 73.1784C46.8847 73.2547 46.8294 73.3179 46.7575 73.3558C46.6856 73.3937 46.6022 73.4036 46.5235 73.3836H46.512ZM47.5448 69.6429C47.4624 69.6215 47.3916 69.569 47.3472 69.4965C47.3028 69.4239 47.2883 69.3369 47.3067 69.2539C47.3954 68.8386 47.4709 68.4184 47.5481 67.9966C47.5551 67.9535 47.5705 67.9122 47.5936 67.8752C47.6167 67.8382 47.6469 67.8061 47.6825 67.7809C47.7182 67.7557 47.7585 67.7378 47.8011 67.7283C47.8437 67.7189 47.8878 67.718 47.9307 67.7258C47.974 67.7325 48.0154 67.7478 48.0526 67.7708C48.0899 67.7938 48.1221 67.824 48.1475 67.8596C48.1729 67.8953 48.1909 67.9356 48.2005 67.9783C48.2101 68.021 48.211 68.0651 48.2033 68.1082C48.1294 68.5399 48.0473 68.9666 47.957 69.3918C47.9484 69.4347 47.9314 69.4755 47.9068 69.5117C47.8822 69.5479 47.8506 69.5789 47.8139 69.6028C47.7772 69.6266 47.7361 69.6429 47.693 69.6506C47.6498 69.6584 47.6056 69.6574 47.5629 69.6478C47.5579 69.6479 47.5529 69.6474 47.5481 69.6462L47.5448 69.6429ZM48.1163 65.807C48.0411 65.7867 47.9756 65.7405 47.9314 65.6764C47.8872 65.6124 47.8671 65.5348 47.8749 65.4574C47.911 65.0328 47.9384 64.6077 47.957 64.182C47.9607 64.0938 47.9993 64.0108 48.0643 63.951C48.1292 63.8913 48.2153 63.8599 48.3035 63.8636C48.3917 63.8673 48.4748 63.9058 48.5345 63.9708C48.5942 64.0357 48.6257 64.1217 48.622 64.2099C48.6023 64.6449 48.5728 65.0815 48.5366 65.523C48.5331 65.5665 48.521 65.6088 48.501 65.6476C48.4809 65.6863 48.4533 65.7206 48.4199 65.7486C48.3864 65.7766 48.3477 65.7976 48.306 65.8104C48.2643 65.8233 48.2204 65.8277 48.177 65.8234C48.1575 65.8195 48.1382 65.814 48.1195 65.807H48.1163ZM48.2033 61.9267C48.1351 61.9092 48.0743 61.8702 48.03 61.8155C47.9856 61.7609 47.96 61.6934 47.957 61.6231C47.9389 61.1963 47.911 60.7712 47.8699 60.3477C47.8619 60.2606 47.8888 60.174 47.9447 60.1067C48.0006 60.0394 48.0809 59.9971 48.168 59.9891C48.2551 59.981 48.3418 60.0079 48.4091 60.0638C48.4764 60.1196 48.5187 60.1999 48.5268 60.287C48.564 60.7247 48.5936 61.1624 48.6154 61.6001C48.6179 61.6437 48.6115 61.6874 48.5968 61.7286C48.5822 61.7698 48.5594 61.8076 48.5299 61.8399C48.5003 61.8722 48.4647 61.8982 48.4249 61.9165C48.3852 61.9348 48.3423 61.945 48.2985 61.9464C48.2673 61.9471 48.2361 61.9421 48.2066 61.9317L48.2033 61.9267ZM47.8749 58.0596C47.8075 58.0416 47.7477 58.0026 47.704 57.9483C47.6603 57.894 47.6351 57.8272 47.6319 57.7576C47.6072 57.3144 47.5941 56.8795 47.5908 56.4445C47.5908 56.3574 47.6254 56.2739 47.687 56.2124C47.7486 56.1508 47.8321 56.1162 47.9192 56.1162C48.0063 56.1162 48.0899 56.1508 48.1515 56.2124C48.213 56.2739 48.2476 56.3574 48.2476 56.4445C48.2476 56.8647 48.2641 57.2898 48.2887 57.7231C48.2916 57.7668 48.2857 57.8106 48.2714 57.8519C48.2571 57.8933 48.2347 57.9314 48.2055 57.9639C48.1763 57.9965 48.1408 58.0229 48.1013 58.0416C48.0617 58.0603 48.0188 58.0709 47.9751 58.0728C47.9445 58.0726 47.9141 58.0682 47.8847 58.0596H47.8749ZM47.9225 54.181C47.848 54.1609 47.7829 54.1151 47.7387 54.0518C47.6946 53.9884 47.6742 53.9116 47.6811 53.8347C47.7156 53.3932 47.7583 52.9582 47.8109 52.5331C47.8217 52.446 47.8668 52.3668 47.9361 52.313C48.0053 52.2591 48.0932 52.2349 48.1803 52.2458C48.2674 52.2567 48.3466 52.3017 48.4005 52.371C48.4544 52.4403 48.4786 52.5281 48.4677 52.6151C48.4168 53.0304 48.3724 53.4555 48.3396 53.8872C48.3367 53.931 48.3251 53.9737 48.3054 54.0129C48.2857 54.0521 48.2584 54.0869 48.2251 54.1154C48.1917 54.1438 48.1529 54.1653 48.1111 54.1786C48.0693 54.1918 48.0253 54.1966 47.9816 54.1925C47.9649 54.1902 47.9484 54.1864 47.9324 54.181H47.9225ZM48.4808 50.3418C48.3991 50.3201 48.3289 50.2677 48.2848 50.1956C48.2408 50.1234 48.2263 50.037 48.2443 49.9545C48.3363 49.5179 48.4381 49.0927 48.5465 48.6807C48.557 48.6384 48.5758 48.5985 48.6019 48.5635C48.628 48.5286 48.6609 48.4991 48.6985 48.477C48.7361 48.4548 48.7777 48.4404 48.821 48.4345C48.8642 48.4286 48.9083 48.4314 48.9504 48.4427C48.9938 48.4515 49.0348 48.4693 49.0708 48.4949C49.1068 48.5206 49.137 48.5535 49.1595 48.5916C49.182 48.6297 49.1962 48.672 49.2012 48.716C49.2062 48.7599 49.2018 48.8044 49.1885 48.8465C49.0791 49.2503 48.9811 49.6656 48.8946 50.0923C48.8858 50.1351 48.8687 50.1757 48.844 50.2118C48.8193 50.2478 48.7877 50.2786 48.751 50.3023C48.7143 50.326 48.6733 50.3421 48.6302 50.3498C48.5872 50.3574 48.5431 50.3564 48.5005 50.3468L48.4808 50.3418ZM49.535 46.6077H49.5136C49.4714 46.5933 49.4325 46.5704 49.3994 46.5405C49.3663 46.5106 49.3397 46.4743 49.3211 46.4337C49.3025 46.3932 49.2923 46.3493 49.2913 46.3047C49.2902 46.2601 49.2983 46.2157 49.315 46.1743C49.466 45.7476 49.622 45.3389 49.7797 44.9515C49.8136 44.8707 49.8776 44.8063 49.9582 44.7719C50.0389 44.7376 50.1298 44.7361 50.2115 44.7677C50.2521 44.7837 50.2891 44.8077 50.3203 44.8382C50.3515 44.8687 50.3763 44.9051 50.3933 44.9453C50.4103 44.9855 50.4191 45.0287 50.4191 45.0723C50.4192 45.1159 50.4106 45.1591 50.3938 45.1994C50.2411 45.5785 50.0884 45.979 49.9406 46.3959C49.9138 46.4748 49.8581 46.5406 49.7846 46.5799C49.7111 46.6192 49.6254 46.6292 49.5448 46.6077H49.535ZM51.0687 43.0442C51.0465 43.0376 51.0251 43.0288 51.0047 43.018C50.9655 42.9985 50.9306 42.9714 50.9021 42.9383C50.8736 42.9052 50.8519 42.8667 50.8385 42.8251C50.825 42.7835 50.82 42.7397 50.8237 42.6961C50.8274 42.6526 50.8398 42.6102 50.8601 42.5715C51.0818 42.1415 51.2936 41.7508 51.4874 41.4225C51.509 41.3848 51.5378 41.3517 51.5721 41.3251C51.6065 41.2985 51.6458 41.2789 51.6877 41.2675C51.7296 41.2561 51.7734 41.253 51.8165 41.2585C51.8596 41.264 51.9012 41.2779 51.939 41.2994C51.9767 41.321 52.0098 41.3498 52.0364 41.3841C52.063 41.4185 52.0826 41.4577 52.0941 41.4996C52.1055 41.5415 52.1086 41.5853 52.1031 41.6284C52.0976 41.6715 52.0837 41.7131 52.0621 41.7508C51.8733 42.0791 51.6664 42.4533 51.4513 42.8735C51.4177 42.94 51.3626 42.9931 51.2948 43.0241C51.2271 43.0552 51.1508 43.0623 51.0785 43.0442H51.0687ZM52.9587 39.6646L52.9308 39.6548C52.8897 39.6401 52.8519 39.6174 52.8197 39.588C52.7874 39.5586 52.7613 39.5231 52.743 39.4835C52.7247 39.4439 52.7144 39.4011 52.7128 39.3575C52.7112 39.3139 52.7183 39.2704 52.7337 39.2296C52.8865 38.8193 53.0293 38.4089 53.1656 38.0167C53.1794 37.9752 53.2014 37.937 53.2302 37.9041C53.2591 37.8713 53.2941 37.8445 53.3334 37.8254C53.3727 37.8063 53.4155 37.7952 53.4591 37.7928C53.5028 37.7904 53.5464 37.7968 53.5876 37.8115C53.6292 37.8252 53.6677 37.847 53.7007 37.8757C53.7337 37.9045 53.7607 37.9395 53.78 37.9788C53.7992 38.0181 53.8104 38.0609 53.8129 38.1046C53.8154 38.1483 53.8092 38.1921 53.7945 38.2333C53.6566 38.6338 53.511 39.042 53.3577 39.4578C53.3301 39.5344 53.2749 39.5979 53.203 39.6361C53.1311 39.6744 53.0475 39.6845 52.9685 39.6646H52.9587ZM54.1788 35.9797C54.1362 35.9682 54.0963 35.9483 54.0616 35.921C54.0269 35.8938 53.9981 35.8599 53.9768 35.8213C53.9555 35.7827 53.9422 35.7402 53.9377 35.6964C53.9332 35.6525 53.9375 35.6082 53.9505 35.5661C54.0359 35.2772 54.1147 34.9932 54.1935 34.7125L54.2986 34.3284C54.3095 34.2862 54.3286 34.2465 54.355 34.2118C54.3814 34.177 54.4144 34.1479 54.4521 34.126C54.4899 34.1042 54.5316 34.0901 54.5749 34.0845C54.6182 34.079 54.6622 34.0821 54.7042 34.0937C54.7463 34.1048 54.7858 34.1241 54.8204 34.1505C54.855 34.1769 54.884 34.21 54.9057 34.2477C54.9274 34.2854 54.9413 34.3271 54.9468 34.3702C54.9522 34.4134 54.949 34.4572 54.9374 34.4992L54.8323 34.8882C54.7546 35.1727 54.673 35.461 54.5876 35.7532C54.5639 35.8355 54.5088 35.9053 54.4343 35.9477C54.3597 35.99 54.2715 36.0015 54.1886 35.9797H54.1788ZM55.1197 32.216C55.0383 32.1943 54.9684 32.1421 54.9243 32.0703C54.8803 31.9985 54.8656 31.9126 54.8832 31.8303C54.9718 31.3926 55.0501 30.9718 55.118 30.568C55.125 30.525 55.1404 30.4837 55.1635 30.4467C55.1866 30.4096 55.2168 30.3776 55.2524 30.3523C55.2881 30.3271 55.3284 30.3093 55.371 30.2998C55.4136 30.2903 55.4576 30.2895 55.5006 30.2972C55.5438 30.304 55.5853 30.3193 55.6225 30.3423C55.6598 30.3652 55.692 30.3954 55.7174 30.4311C55.7428 30.4667 55.7609 30.507 55.7704 30.5497C55.78 30.5924 55.7809 30.6366 55.7732 30.6796C55.7026 31.0933 55.6238 31.5217 55.5335 31.9632C55.5251 32.0061 55.5082 32.0469 55.4838 32.0832C55.4594 32.1195 55.428 32.1506 55.3915 32.1746C55.3549 32.1986 55.3139 32.2151 55.2709 32.223C55.2279 32.231 55.1837 32.2302 55.141 32.2209L55.1197 32.216ZM55.6878 28.3784C55.6126 28.3582 55.5471 28.3119 55.5029 28.2479C55.4587 28.1839 55.4387 28.1062 55.4464 28.0288C55.4842 27.584 55.5105 27.1605 55.5252 26.7551C55.5285 26.668 55.5662 26.5858 55.6301 26.5266C55.694 26.4673 55.7789 26.4359 55.866 26.4391C55.9531 26.4424 56.0353 26.4801 56.0946 26.544C56.1539 26.6079 56.1853 26.6926 56.1821 26.7797C56.1678 27.1944 56.1399 27.6321 56.0983 28.0928C56.095 28.1364 56.083 28.179 56.0631 28.2179C56.0431 28.2568 56.0156 28.2913 55.9821 28.3195C55.9486 28.3476 55.9098 28.3688 55.868 28.3817C55.8262 28.3947 55.7823 28.3991 55.7387 28.3948L55.6878 28.3784ZM55.7256 24.5015C55.6594 24.4843 55.6003 24.4469 55.5565 24.3945C55.5126 24.3421 55.4862 24.2774 55.4809 24.2093C55.4464 23.7743 55.3971 23.3492 55.3331 22.9487C55.3194 22.8617 55.3408 22.7727 55.3927 22.7014C55.4446 22.6302 55.5227 22.5825 55.6098 22.5687C55.6969 22.555 55.7859 22.5765 55.8572 22.6283C55.9285 22.6802 55.9762 22.7582 55.9899 22.8453C56.0572 23.2639 56.1098 23.7038 56.1541 24.1584C56.1582 24.2019 56.1535 24.2458 56.1403 24.2875C56.1272 24.3292 56.1058 24.3679 56.0776 24.4012C56.0493 24.4345 56.0146 24.4619 55.9756 24.4816C55.9366 24.5014 55.894 24.5132 55.8504 24.5162C55.8119 24.5203 55.773 24.5175 55.7354 24.508L55.7256 24.5015Z" fill="#4FBB8A"/>
<path d="M34.7636 87.2794C34.7111 87.2654 34.663 87.2385 34.6234 87.2013C34.5839 87.164 34.5542 87.1176 34.537 87.0661C34.5226 87.0249 34.5165 86.9813 34.5191 86.9378C34.5218 86.8943 34.5331 86.8517 34.5523 86.8126C34.5716 86.7735 34.5985 86.7386 34.6314 86.7099C34.6643 86.6813 34.7025 86.6595 34.7439 86.6458C34.9475 86.5769 35.1479 86.5014 35.3482 86.421C35.4299 86.3881 35.5213 86.389 35.6022 86.4235C35.6832 86.458 35.7472 86.5232 35.7801 86.6048C35.813 86.6864 35.812 86.7778 35.7776 86.8587C35.7431 86.9397 35.6778 87.0036 35.5961 87.0365C35.386 87.1219 35.1709 87.2007 34.9574 87.2745C34.8947 87.2949 34.8273 87.2966 34.7636 87.2794Z" fill="#4FBB8A"/>
<path d="M33.7462 7.83317C28.9842 8.06296 18.8806 11.5969 16.4257 28.2602C16.4257 28.2602 14.4782 38.253 28.3175 41.8099C40.2076 44.8661 47.3407 39.8747 50.8548 25.9787C54.3688 12.0827 59.093 18.6072 59.093 18.6072C59.093 18.6072 52.2948 6.94518 33.7462 7.83317Z" fill="#89FAC7"/>
<path d="M27.7657 42.005C14.3008 38.3086 16.0808 28.2978 16.1071 28.196C18.9084 9.17561 31.2846 7.61959 33.7378 7.50141C37.7543 7.30772 41.5393 7.68853 44.9909 8.63561C55.2094 11.4407 59.3458 18.369 59.3868 18.4396C59.4107 18.476 59.4271 18.5168 59.4351 18.5596C59.4432 18.6023 59.4428 18.6463 59.4338 18.6889C59.4249 18.7315 59.4077 18.7719 59.3831 18.8078C59.3586 18.8438 59.3272 18.8745 59.2907 18.8984C59.2543 18.9222 59.2135 18.9386 59.1707 18.9467C59.128 18.9547 59.084 18.9543 59.0414 18.9454C58.9988 18.9365 58.9583 18.9192 58.9223 18.8947C58.8864 18.8702 58.8556 18.8388 58.8318 18.8024C58.8236 18.7909 58.0748 17.7781 57.0124 17.4892C56.7316 17.4118 56.4379 17.3933 56.1497 17.4348C55.8615 17.4764 55.5849 17.577 55.3375 17.7305C54.2406 18.369 52.6314 20.3321 51.1815 26.0638C49.2603 33.67 46.2799 38.5811 42.0713 41.0776C38.4226 43.2426 33.8988 43.5889 28.2419 42.1347C28.076 42.0904 27.9201 42.0477 27.7657 42.005ZM44.807 9.27573C41.4243 8.34835 37.7084 7.97413 33.7609 8.16453C31.4012 8.27779 19.4848 9.78622 16.754 28.3093C16.6769 28.7147 15.0627 38.0542 28.3995 41.488C33.8791 42.8963 38.2371 42.5746 41.7248 40.5031C45.7741 38.1018 48.6543 33.3237 50.5328 25.8948C51.7414 21.1151 53.2422 18.1803 54.996 17.1527C55.3516 16.9363 55.7512 16.8022 56.1655 16.7602C56.5797 16.7181 56.9981 16.7693 57.3901 16.9098C55.4606 14.7054 51.4606 11.1026 44.807 9.27573Z" fill="#4FBB8A"/>
<path d="M32.2655 6.6005C27.5035 6.83029 17.4016 10.3658 14.9467 27.0292C14.9467 27.0292 12.9976 37.0203 26.8368 40.5772C38.7286 43.6335 45.8601 38.6436 49.3741 24.746C52.8881 10.8484 58.0885 17.299 58.0885 17.299C58.0885 17.299 50.8141 5.70594 32.2655 6.6005Z" fill="#89FAC7"/>
<path d="M26.2869 40.774C12.8221 37.0776 14.6021 27.0668 14.6283 26.9667C17.4297 7.943 29.8042 6.38697 32.2575 6.26879C36.3331 6.07183 40.1935 6.46576 43.7305 7.43582C53.9605 10.2442 58.335 17.0543 58.3777 17.12C58.4029 17.1555 58.4209 17.1955 58.4306 17.238C58.4404 17.2804 58.4416 17.3243 58.4344 17.3672C58.4272 17.4101 58.4115 17.4511 58.3884 17.488C58.3653 17.5249 58.3352 17.5568 58.2997 17.5821C58.2642 17.6073 58.2241 17.6253 58.1817 17.635C58.1392 17.6447 58.0954 17.646 58.0524 17.6388C58.0095 17.6315 57.9684 17.6159 57.9315 17.5928C57.8946 17.5697 57.8627 17.5395 57.8374 17.5041C57.8292 17.5041 57.0394 16.534 55.9212 16.2271C55.5918 16.1336 55.2465 16.1095 54.9073 16.1564C54.5681 16.2033 54.2423 16.3201 53.9507 16.4995C52.2774 17.4844 50.8439 20.2748 49.6945 24.8247C47.7716 32.4309 44.7913 37.3419 40.5827 39.8401C36.9357 42.0051 32.4102 42.3498 26.7533 40.8955C26.5957 40.8577 26.4413 40.8183 26.2869 40.774ZM43.5482 8.07596C40.0786 7.12396 36.2887 6.73823 32.2821 6.92699C29.9208 7.04025 18.0044 8.54868 15.2753 27.0717C15.1981 27.4788 13.5741 36.838 26.9208 40.2521C32.3987 41.6587 36.7567 41.3387 40.2444 39.2672C44.2937 36.8642 47.1739 32.0862 49.0524 24.6589C50.2478 19.9317 51.7848 16.992 53.619 15.9234C53.9854 15.6991 54.3942 15.5531 54.8199 15.4947C55.2455 15.4362 55.6786 15.4665 56.0919 15.5837C56.1839 15.6083 56.2725 15.6378 56.3612 15.669C54.371 13.5106 50.2544 9.91596 43.5482 8.07596Z" fill="#4FBB8A"/>
<path d="M27.0999 39.0243H27.0769C26.6467 38.8744 26.2256 38.6996 25.8158 38.5007C25.7762 38.4821 25.7408 38.4558 25.7115 38.4233C25.6823 38.3908 25.6598 38.3528 25.6454 38.3116C25.631 38.2703 25.6251 38.2266 25.6278 38.1829C25.6306 38.1393 25.642 38.0967 25.6615 38.0575C25.7007 37.9788 25.7693 37.9185 25.8525 37.8896C25.9357 37.8608 26.0268 37.8657 26.1064 37.9032C26.4923 38.0914 26.8894 38.2559 27.2953 38.3957C27.3793 38.4216 27.4497 38.4798 27.4908 38.5575C27.5319 38.6352 27.5405 38.7261 27.5145 38.8101C27.4886 38.8941 27.4304 38.9644 27.3526 39.0055C27.2749 39.0466 27.1839 39.0551 27.0999 39.0292V39.0243ZM29.6845 39.5955C29.6084 39.5752 29.5422 39.5282 29.4979 39.4631C29.4536 39.398 29.4341 39.3192 29.4431 39.241C29.4472 39.1976 29.4599 39.1555 29.4804 39.1171C29.5009 39.0787 29.5289 39.0448 29.5627 39.0173C29.5964 38.9898 29.6353 38.9693 29.6771 38.957C29.7189 38.9447 29.7627 38.9408 29.806 38.9455C30.2343 38.9884 30.6646 39.0081 31.095 39.0046C31.1821 39.0046 31.2656 39.0392 31.3272 39.1008C31.3888 39.1623 31.4234 39.2458 31.4234 39.3329C31.4234 39.4199 31.3888 39.5035 31.3272 39.565C31.2656 39.6266 31.1821 39.6612 31.095 39.6612C30.6399 39.6653 30.1849 39.6445 29.7321 39.5988L29.6845 39.5955ZM23.6368 37.094C23.594 37.0821 23.5538 37.062 23.5186 37.0349C23.1672 36.7608 22.8207 36.4621 22.4906 36.1486C22.4268 36.0881 22.3897 36.0047 22.3874 35.9168C22.3851 35.829 22.4178 35.7437 22.4783 35.68C22.5389 35.6162 22.6223 35.5791 22.7102 35.5768C22.7981 35.5745 22.8833 35.6072 22.9471 35.6677C23.2624 35.9664 23.5925 36.2504 23.9324 36.513C23.9977 36.558 24.0445 36.6251 24.0642 36.7019C24.0839 36.7787 24.0751 36.86 24.0395 36.9308C24.0038 37.0016 23.9438 37.0572 23.8703 37.0872C23.7969 37.1172 23.7151 37.1196 23.6401 37.094H23.6368ZM33.6534 39.3624C33.5794 39.3454 33.5137 39.3033 33.4673 39.2433C33.4209 39.1833 33.3967 39.1091 33.3988 39.0333C33.4009 38.9575 33.4293 38.8848 33.4789 38.8275C33.5286 38.7702 33.5966 38.7319 33.6714 38.719C34.0885 38.6287 34.5105 38.5171 34.9227 38.3907C35.0065 38.364 35.0975 38.3716 35.1758 38.4119C35.254 38.4522 35.3129 38.522 35.3397 38.6058C35.3665 38.6896 35.3589 38.7806 35.3186 38.8587C35.2782 38.9369 35.2085 38.9959 35.1247 39.0227C34.6911 39.1606 34.2494 39.2787 33.811 39.3723C33.7558 39.3837 33.6986 39.3803 33.6452 39.3624H33.6534ZM20.8978 34.2315C20.824 34.2113 20.7596 34.166 20.7156 34.1034C20.4519 33.7333 20.2075 33.3498 19.9832 32.9545C19.9397 32.8778 19.9284 32.7871 19.9518 32.7021C19.9752 32.6172 20.0314 32.545 20.108 32.5014C20.1846 32.4579 20.2755 32.4466 20.3605 32.47C20.4455 32.4934 20.5177 32.5496 20.5612 32.6262C20.7741 33.001 21.0059 33.3648 21.2558 33.7161C21.2978 33.7714 21.321 33.8386 21.3224 33.908C21.3237 33.9774 21.303 34.0454 21.2633 34.1023C21.2235 34.1592 21.1667 34.2021 21.1011 34.2247C21.0354 34.2473 20.9642 34.2485 20.8978 34.2282V34.2315ZM37.3776 37.9853C37.3342 37.9734 37.2937 37.9526 37.2587 37.9244C37.2237 37.8961 37.1948 37.861 37.1739 37.8212C37.1527 37.7829 37.1394 37.7408 37.1347 37.6973C37.13 37.6539 37.1341 37.6099 37.1466 37.568C37.1591 37.5261 37.1799 37.4871 37.2077 37.4534C37.2356 37.4196 37.2698 37.3918 37.3086 37.3714C37.6879 37.1679 38.0606 36.943 38.4202 36.705C38.4936 36.6563 38.5834 36.6387 38.6698 36.656C38.7561 36.6734 38.8321 36.7244 38.8809 36.7978C38.9296 36.8711 38.9472 36.9608 38.9298 37.0472C38.9125 37.1335 38.8614 37.2094 38.7881 37.2582C38.412 37.5077 38.0212 37.7506 37.6222 37.9558C37.5842 37.9773 37.5422 37.991 37.4987 37.996C37.4553 38.0011 37.4113 37.9975 37.3693 37.9853H37.3776ZM19.1507 30.6779C19.0961 30.6631 19.0463 30.6345 19.006 30.5948C18.9657 30.5551 18.9364 30.5057 18.9208 30.4513C18.7916 30.0129 18.6907 29.5666 18.6187 29.1152C18.6119 29.0721 18.6137 29.0281 18.6239 28.9857C18.6341 28.9433 18.6526 28.9033 18.6783 28.868C18.704 28.8327 18.7364 28.8028 18.7736 28.7801C18.8109 28.7573 18.8523 28.7421 18.8954 28.7353C18.9385 28.7285 18.9825 28.7303 19.025 28.7405C19.0674 28.7507 19.1074 28.7692 19.1427 28.7949C19.178 28.8205 19.2079 28.8529 19.2307 28.8902C19.2535 28.9274 19.2687 28.9687 19.2755 29.0118C19.3442 29.4346 19.4385 29.8529 19.5579 30.2642C19.5707 30.306 19.575 30.35 19.5706 30.3935C19.5662 30.437 19.5531 30.4791 19.5322 30.5175C19.5112 30.5559 19.4828 30.5897 19.4486 30.617C19.4144 30.6442 19.3751 30.6643 19.333 30.6762C19.2698 30.6947 19.2027 30.6953 19.1392 30.6779H19.1507ZM40.5746 35.6283C40.519 35.6126 40.4682 35.5832 40.4269 35.5429C40.3956 35.5124 40.3707 35.4758 40.3537 35.4355C40.3368 35.3952 40.328 35.3519 40.328 35.3082C40.328 35.2645 40.3368 35.2212 40.3537 35.1809C40.3707 35.1406 40.3956 35.1041 40.4269 35.0735C40.7322 34.7702 41.021 34.4507 41.2922 34.1166C41.3477 34.048 41.4282 34.0043 41.516 33.9951C41.6038 33.9858 41.6916 34.0118 41.7602 34.0673C41.8288 34.1228 41.8725 34.2033 41.8817 34.291C41.891 34.3788 41.865 34.4665 41.8095 34.5351C41.5222 34.8872 41.2169 35.2241 40.8948 35.5446C40.8526 35.5876 40.7993 35.6182 40.7408 35.633C40.6822 35.6478 40.6208 35.6461 40.5631 35.6283H40.5746ZM18.7944 26.7385C18.7195 26.7187 18.6541 26.6731 18.6096 26.6097C18.5652 26.5463 18.5445 26.4693 18.5513 26.3922C18.5875 25.9414 18.6373 25.4949 18.7008 25.0528C18.7066 25.0094 18.721 24.9675 18.7433 24.9297C18.7655 24.8919 18.7952 24.859 18.8304 24.8328C18.8656 24.8067 18.9056 24.7878 18.9483 24.7774C18.9909 24.767 19.0352 24.7652 19.0785 24.7721C19.1216 24.7782 19.1632 24.7927 19.2007 24.8149C19.2382 24.8371 19.2709 24.8666 19.2968 24.9016C19.3228 24.9366 19.3416 24.9764 19.352 25.0187C19.3624 25.061 19.3643 25.105 19.3576 25.148C19.2952 25.5759 19.247 26.0081 19.2131 26.4447C19.2102 26.4885 19.1986 26.5312 19.1789 26.5704C19.1593 26.6096 19.1319 26.6444 19.0986 26.6729C19.0652 26.7013 19.0265 26.7228 18.9847 26.7361C18.9428 26.7493 18.8988 26.7541 18.8551 26.75C18.8307 26.7486 18.8065 26.7448 18.7829 26.7385H18.7944ZM42.8834 32.4095C42.8645 32.4046 42.8463 32.3974 42.8292 32.3882C42.7892 32.3705 42.7531 32.3449 42.7231 32.3131C42.6931 32.2813 42.6698 32.2438 42.6545 32.2028C42.6392 32.1618 42.6322 32.1182 42.634 32.0745C42.6358 32.0308 42.6463 31.9879 42.665 31.9483C42.8489 31.5618 43.0058 31.1631 43.1346 30.755C43.1475 30.7133 43.1685 30.6745 43.1966 30.641C43.2246 30.6075 43.2591 30.5799 43.2979 30.5599C43.3368 30.5398 43.3792 30.5278 43.4228 30.5244C43.4664 30.5209 43.5102 30.5262 43.5517 30.54C43.5932 30.5529 43.6319 30.5739 43.6653 30.6018C43.6987 30.6297 43.7262 30.664 43.7462 30.7026C43.7662 30.7413 43.7783 30.7835 43.7819 30.8269C43.7854 30.8702 43.7803 30.9139 43.7668 30.9553C43.6297 31.3917 43.4618 31.8179 43.2643 32.2306C43.2315 32.3028 43.1737 32.3606 43.1016 32.3935C43.0295 32.4264 42.9479 32.4321 42.8719 32.4095H42.8834ZM19.4906 22.8255C19.4483 22.8143 19.4086 22.7948 19.374 22.768C19.3393 22.7413 19.3103 22.7079 19.2887 22.6698C19.2672 22.6318 19.2534 22.5898 19.2483 22.5463C19.2432 22.5028 19.2469 22.4588 19.2591 22.4168C19.3789 21.9818 19.5152 21.5534 19.6597 21.1299C19.6885 21.0466 19.7492 20.978 19.8285 20.9394C19.9078 20.9007 19.9992 20.8952 20.0826 20.9239C20.166 20.9527 20.2345 21.0133 20.2732 21.0926C20.3118 21.1719 20.3174 21.2632 20.2886 21.3466C20.1458 21.7586 20.0161 22.1673 19.8979 22.594C19.8868 22.6374 19.8669 22.6781 19.8395 22.7136C19.8121 22.7491 19.7778 22.7785 19.7385 22.8002C19.6993 22.8219 19.656 22.8353 19.6114 22.8397C19.5668 22.844 19.5218 22.8392 19.4791 22.8255H19.4906ZM44.0262 28.6114C43.9431 28.5893 43.8718 28.5355 43.8279 28.4615C43.784 28.3876 43.7709 28.2993 43.7914 28.2158L44.087 26.9256C44.1064 26.8399 44.1591 26.7653 44.2334 26.7184C44.3078 26.6714 44.3977 26.656 44.4835 26.6753C44.5693 26.6947 44.6439 26.7474 44.6909 26.8217C44.7378 26.896 44.7534 26.986 44.734 27.0717L44.4368 28.3668C44.4273 28.4093 44.4094 28.4495 44.3842 28.4851C44.3591 28.5207 44.327 28.5509 44.29 28.574C44.253 28.597 44.2118 28.6125 44.1688 28.6195C44.1258 28.6265 44.0818 28.6248 44.0394 28.6146L44.0262 28.6114ZM20.8814 19.111C20.863 19.1049 20.8449 19.0978 20.8272 19.0897C20.7868 19.072 20.7504 19.0463 20.7201 19.0142C20.6898 18.9822 20.6663 18.9443 20.651 18.9029C20.6356 18.8616 20.6288 18.8176 20.6309 18.7735C20.633 18.7294 20.6439 18.6862 20.663 18.6465C20.8552 18.2427 21.0604 17.8439 21.2739 17.4499C21.2946 17.4117 21.3226 17.3778 21.3564 17.3504C21.3902 17.323 21.429 17.3025 21.4707 17.2901C21.5124 17.2776 21.5562 17.2736 21.5994 17.278C21.6427 17.2825 21.6847 17.2955 21.723 17.3162C21.7613 17.3368 21.7951 17.3649 21.8225 17.3986C21.85 17.4324 21.8705 17.4712 21.8829 17.5129C21.8953 17.5546 21.8994 17.5983 21.8949 17.6416C21.8905 17.6848 21.8775 17.7268 21.8568 17.7651C21.6483 18.1492 21.4512 18.5398 21.2624 18.9321C21.2291 19.0009 21.1728 19.0559 21.1033 19.0877C21.0337 19.1194 20.9553 19.1259 20.8814 19.1061V19.111ZM44.9376 24.736C44.8957 24.725 44.8563 24.7058 44.8219 24.6794C44.7874 24.6531 44.7585 24.6202 44.7368 24.5827C44.7151 24.5452 44.7011 24.5037 44.6956 24.4607C44.69 24.4177 44.693 24.3741 44.7044 24.3323C44.752 24.1501 44.8013 23.9679 44.8506 23.7857C44.9195 23.5362 44.9901 23.2933 45.064 23.0438C45.0761 23.0016 45.0964 22.9624 45.1238 22.9282C45.1513 22.8941 45.1853 22.8658 45.2238 22.845C45.2624 22.8242 45.3047 22.8113 45.3483 22.8071C45.392 22.8029 45.436 22.8075 45.4778 22.8205C45.5198 22.8327 45.5589 22.8532 45.5929 22.8807C45.6269 22.9082 45.655 22.9422 45.6757 22.9808C45.6963 23.0193 45.7091 23.0615 45.7132 23.1051C45.7173 23.1486 45.7126 23.1925 45.6995 23.2342C45.6272 23.4738 45.5583 23.7151 45.4909 23.9597C45.4417 24.1386 45.3941 24.3191 45.3465 24.4997C45.336 24.542 45.3171 24.5819 45.291 24.6169C45.2649 24.6518 45.2321 24.6813 45.1944 24.7034C45.1568 24.7256 45.1152 24.74 45.0719 24.7459C45.0287 24.7518 44.9847 24.749 44.9425 24.7377L44.9376 24.736ZM22.8552 15.6444C22.8205 15.6355 22.7877 15.6205 22.7583 15.6001C22.7217 15.5762 22.6903 15.5453 22.6659 15.5092C22.6414 15.473 22.6243 15.4324 22.6158 15.3896C22.6072 15.3468 22.6073 15.3027 22.616 15.26C22.6247 15.2172 22.6418 15.1766 22.6663 15.1405C22.9126 14.7695 23.1688 14.4019 23.4316 14.0391C23.4832 13.9677 23.561 13.9198 23.648 13.9058C23.735 13.8917 23.824 13.9129 23.8954 13.9644C23.9669 14.016 24.0148 14.0939 24.0289 14.1808C24.0429 14.2678 24.0217 14.3567 23.9701 14.4281C23.7123 14.7843 23.4611 15.1438 23.2197 15.5082C23.1814 15.5668 23.1254 15.6116 23.0598 15.6361C22.9942 15.6606 22.9226 15.6635 22.8552 15.6444ZM46.2036 20.9559C46.1867 20.9514 46.1702 20.9453 46.1543 20.9379C46.1145 20.9201 46.0787 20.8947 46.0488 20.863C46.0189 20.8313 45.9957 20.7939 45.9804 20.7531C45.9651 20.7123 45.9581 20.6689 45.9598 20.6254C45.9615 20.5819 45.9718 20.5391 45.9901 20.4996C46.1231 20.2042 46.2644 19.9136 46.4154 19.633C46.4746 19.5214 46.5386 19.4048 46.6108 19.285C46.6327 19.2471 46.6619 19.214 46.6968 19.1876C46.7316 19.1612 46.7714 19.1419 46.8137 19.1311C46.8561 19.1202 46.9002 19.1179 46.9435 19.1243C46.9868 19.1308 47.0283 19.1458 47.0657 19.1684C47.1034 19.1904 47.1364 19.2197 47.1627 19.2546C47.1889 19.2895 47.208 19.3293 47.2187 19.3716C47.2294 19.414 47.2315 19.458 47.225 19.5012C47.2185 19.5444 47.2034 19.5858 47.1806 19.6231C47.1166 19.7331 47.0558 19.8414 47 19.9514C46.8555 20.2206 46.7225 20.4947 46.596 20.7721C46.565 20.846 46.508 20.9061 46.4356 20.9409C46.3633 20.9756 46.2808 20.9827 46.2036 20.9608V20.9559ZM25.246 12.4617C25.2005 12.4491 25.158 12.4273 25.1212 12.3977C25.0874 12.37 25.0594 12.3358 25.0389 12.2971C25.0185 12.2584 25.006 12.2161 25.0022 12.1725C24.9984 12.1289 25.0033 12.085 25.0167 12.0433C25.0301 12.0017 25.0516 11.9631 25.0802 11.9299C25.3659 11.5885 25.6576 11.2509 25.9554 10.9172C25.9844 10.8849 26.0195 10.8586 26.0587 10.8398C26.0978 10.821 26.1403 10.8101 26.1837 10.8078C26.2271 10.8054 26.2705 10.8116 26.3115 10.826C26.3525 10.8404 26.3902 10.8628 26.4225 10.8918C26.4549 10.9208 26.4812 10.9558 26.5 10.995C26.5188 11.0342 26.5297 11.0766 26.532 11.12C26.5344 11.1633 26.5282 11.2067 26.5138 11.2477C26.4994 11.2887 26.477 11.3264 26.448 11.3587C26.1541 11.687 25.8667 12.0153 25.5859 12.355C25.5461 12.4045 25.4928 12.4414 25.4325 12.4612C25.3722 12.481 25.3074 12.4829 25.246 12.4667V12.4617ZM48.3711 17.6305C48.3231 17.6171 48.2787 17.593 48.2414 17.5599C48.2081 17.5313 48.1809 17.4964 48.1613 17.4572C48.1418 17.4179 48.1303 17.3752 48.1275 17.3314C48.1248 17.2876 48.1308 17.2438 48.1453 17.2024C48.1598 17.161 48.1824 17.123 48.2118 17.0905C48.5126 16.7501 48.8305 16.4252 49.1642 16.1171C49.2296 16.0577 49.3158 16.0266 49.4041 16.0308C49.4923 16.035 49.5753 16.074 49.6347 16.1393C49.6941 16.2046 49.7252 16.2908 49.721 16.379C49.7169 16.4672 49.6779 16.5501 49.6125 16.6095C49.296 16.9021 48.9946 17.2105 48.7094 17.5336C48.6686 17.581 48.615 17.6158 48.5551 17.6339C48.4952 17.6519 48.4313 17.6524 48.3711 17.6354V17.6305ZM27.9324 9.52366C27.8777 9.5082 27.8279 9.47878 27.7879 9.4383C27.7569 9.40775 27.7322 9.37136 27.7154 9.33121C27.6986 9.29105 27.6899 9.24795 27.6899 9.20442C27.6899 9.16088 27.6986 9.11778 27.7154 9.07762C27.7322 9.03747 27.7569 9.00106 27.7879 8.97051C28.101 8.65427 28.4174 8.34132 28.737 8.03164C28.7676 8.00037 28.8041 7.97553 28.8445 7.95857C28.8848 7.94161 28.9281 7.93286 28.9719 7.93286C29.0156 7.93286 29.0589 7.94161 29.0992 7.95857C29.1396 7.97553 29.1761 8.00037 29.2067 8.03164C29.2372 8.06273 29.2612 8.09957 29.2773 8.14002C29.2934 8.18047 29.3013 8.22371 29.3006 8.26725C29.2998 8.31078 29.2904 8.35374 29.2729 8.3936C29.2553 8.43346 29.23 8.46943 29.1985 8.49943C28.8815 8.80637 28.5695 9.11496 28.2608 9.42846C28.2207 9.47381 28.1687 9.50717 28.1107 9.52484C28.0528 9.54251 27.9911 9.54381 27.9324 9.52859V9.52366ZM51.4845 15.1897C51.4373 15.1763 51.3936 15.1527 51.3565 15.1207C51.3193 15.0886 51.2896 15.0489 51.2693 15.0042C51.251 14.9648 51.2407 14.922 51.239 14.8785C51.2373 14.835 51.2444 14.7915 51.2596 14.7507C51.2749 14.71 51.2982 14.6726 51.328 14.6409C51.3579 14.6092 51.3937 14.5837 51.4335 14.566C51.8653 14.3689 52.3232 14.2351 52.7932 14.1688C52.8363 14.1631 52.8801 14.1659 52.9222 14.1771C52.9642 14.1883 53.0036 14.2077 53.0382 14.2342C53.0727 14.2606 53.1017 14.2936 53.1235 14.3312C53.1453 14.3689 53.1594 14.4105 53.1651 14.4536C53.1708 14.4967 53.168 14.5405 53.1568 14.5825C53.1456 14.6245 53.1262 14.6639 53.0997 14.6984C53.0732 14.733 53.0402 14.7619 53.0026 14.7837C52.9649 14.8055 52.9233 14.8196 52.8802 14.8253C52.4726 14.8844 52.0755 15.0016 51.7012 15.1733C51.6335 15.2049 51.557 15.2124 51.4845 15.1947V15.1897Z" fill="#4FBB8A"/>
<path d="M26.5584 46.0102L22.3301 44.8497C22.3559 41.8812 23.155 38.9706 24.6487 36.4048L28.877 37.5653C27.3833 40.1311 26.5842 43.0417 26.5584 46.0102Z" fill="#89FAC7"/>
<path d="M26.4895 46.3285H26.4764L22.2481 45.168C22.1764 45.1488 22.1134 45.1059 22.0693 45.0463C22.0252 44.9866 22.0025 44.9139 22.0051 44.8397C22.0345 41.8146 22.8487 38.8488 24.368 36.2323C24.4043 36.1681 24.461 36.118 24.5293 36.09C24.5975 36.062 24.6732 36.0578 24.7441 36.078L28.9724 37.2385C29.0217 37.2517 29.0673 37.2762 29.1055 37.3101C29.1437 37.344 29.1734 37.3864 29.1924 37.4338C29.2117 37.4808 29.2198 37.5317 29.2161 37.5824C29.2124 37.6331 29.197 37.6823 29.171 37.726C27.724 40.2176 26.9415 43.039 26.8984 45.9198C26.9144 45.9772 26.9144 46.0379 26.8984 46.0954C26.8874 46.1379 26.868 46.1777 26.8413 46.2125C26.8147 46.2473 26.7813 46.2765 26.7432 46.2982C26.7051 46.3199 26.663 46.3338 26.6194 46.339C26.5759 46.3442 26.5317 46.3406 26.4895 46.3285ZM22.6718 44.5935L26.2432 45.5784C26.3367 42.845 27.0706 40.1717 28.3861 37.7736L24.8163 36.7887C23.4743 39.1765 22.7358 41.8557 22.6652 44.5935H22.6718Z" fill="#4FBB8A"/>
<path d="M32.8627 86.8199L29.2797 88.064C29.2797 88.064 15.9446 86.7 3.5503 80.1854C3.5503 80.1854 -0.860265 77.5592 0.640576 72.0966C2.14142 66.6341 7.03475 45.539 23.4652 49.4701C42.605 54.0529 36.1911 84.2905 32.8627 86.8199Z" fill="#89FAC7"/>
<path d="M17.9874 86.1255C12.6342 84.6483 7.72615 82.7607 3.39769 80.4874C3.33529 80.4513 -1.22803 77.656 0.320434 72.0162L0.528979 71.2464C2.24986 64.8335 7.48969 45.3125 23.5457 49.1549C23.7477 49.2042 23.948 49.2551 24.1467 49.3092C30.623 51.0868 34.8447 56.1423 36.3505 63.9307C38.2208 73.6034 35.293 85.3902 33.0664 87.0841C33.0386 87.1053 33.0075 87.1219 32.9744 87.1334L29.3914 88.3775C29.3455 88.3928 29.2968 88.3984 29.2486 88.3939C29.1977 88.389 24.3996 87.8851 17.9874 86.1255ZM23.971 49.9494C23.7789 49.8968 23.5868 49.8476 23.3897 49.8C7.96261 46.1102 2.84923 65.1585 1.16941 71.4187L0.960861 72.1918C-0.456235 77.3507 3.68012 79.8833 3.72117 79.9063C7.99052 82.1485 12.8576 84.0278 18.1631 85.487C21.797 86.5008 25.4997 87.2496 29.242 87.7275L32.7019 86.526C34.5213 85.0176 37.5804 73.7856 35.6986 64.0587C34.6838 58.8129 31.8266 52.1045 23.971 49.9494Z" fill="#4FBB8A"/>
<path d="M23.4668 49.4783C21.6331 49.0148 19.7308 48.8847 17.851 49.0942C20.5817 54.0627 23.3026 59.3512 23.8576 65.0386C24.3141 69.6969 23.365 76.5447 17.4437 76.7565C12.5176 76.9321 6.95265 74.5685 3.22846 71.4696C2.54979 70.9021 1.9101 70.2896 1.3138 69.6361C1.03465 70.621 0.821202 71.4712 0.640576 72.0982C-0.860266 77.5591 3.5503 80.187 3.5503 80.187C15.9446 86.6934 29.2797 88.0656 29.2797 88.0656L32.8627 86.8215C36.1911 84.2904 42.605 54.0528 23.4668 49.4783Z" fill="#89FAC7"/>
<path d="M17.9891 86.1257C12.636 84.6484 7.72783 82.7592 3.39936 80.4875C3.33696 80.4514 -1.22632 77.6561 0.322146 72.0163L0.53069 71.2465C0.663697 70.7541 0.818063 70.1763 0.995405 69.546C1.01095 69.489 1.0416 69.4373 1.08408 69.3963C1.12656 69.3553 1.1793 69.3265 1.23678 69.3129C1.29534 69.2986 1.35668 69.3002 1.41442 69.3175C1.47216 69.3348 1.5242 69.3672 1.56519 69.4114C2.1509 70.0557 2.78019 70.6589 3.44863 71.2169C6.02223 73.3164 9.00185 74.8621 12.2008 75.757C13.903 76.2438 15.669 76.4701 17.439 76.4283C19.0991 76.3692 20.4538 75.7521 21.4669 74.5949C23.9694 71.7356 23.6821 66.5849 23.5359 65.0749C22.9908 59.4942 20.3996 54.4059 17.567 49.2585C17.5412 49.2106 17.5276 49.157 17.5276 49.1025C17.5276 49.0481 17.5412 48.9945 17.567 48.9466C17.5916 48.8984 17.6277 48.8569 17.6721 48.826C17.7165 48.7951 17.7678 48.7756 17.8216 48.7693C19.7414 48.5563 21.6838 48.688 23.5573 49.1583C23.7609 49.2076 23.9596 49.2585 24.1583 49.3126C30.6346 51.0902 34.8547 56.1457 36.3604 63.9341C38.2324 73.6068 35.3046 85.3936 33.0763 87.0875C33.0485 87.1087 33.0174 87.1253 32.9843 87.1368L29.4014 88.3809C29.3554 88.3962 29.3068 88.4018 29.2585 88.3973C29.1978 88.3891 24.4013 87.8852 17.9891 86.1257ZM1.47487 70.2912C1.36321 70.6999 1.26143 71.0774 1.16947 71.4188L0.960928 72.1919C-0.456168 77.3508 3.68019 79.8835 3.72124 79.9064C7.99059 82.1486 12.856 84.028 18.1631 85.4872C21.7965 86.5008 25.4987 87.2496 29.2404 87.7276L32.7003 86.5261C34.5197 85.0177 37.5772 73.7873 35.6954 64.0588C34.656 58.6849 31.6609 51.7763 23.38 49.8018C21.744 49.3935 20.0531 49.25 18.3717 49.3766C21.0433 54.2598 23.6394 59.4794 24.178 65.0092C24.3323 66.5866 24.6279 71.972 21.9514 75.0217C20.8118 76.3233 19.2961 77.016 17.4455 77.0816C15.6085 77.1265 13.7754 76.8924 12.0087 76.3873C8.71846 75.4669 5.65385 73.8771 3.00693 71.7176C2.47121 71.2697 1.95979 70.7936 1.47487 70.2912Z" fill="#4FBB8A"/>
<path d="M27.6266 85.7202C27.6266 85.7202 2.65421 80.0147 2.07949 76.2117C1.50477 72.4086 5.94981 50.0693 20.2177 53.7132C34.0208 57.2389 31.1751 78.4587 27.6266 85.7202Z" fill="#89FAC7"/>
<path d="M19.2032 83.9261L18.5365 83.7423C18.4939 83.7314 18.4539 83.7122 18.4188 83.6856C18.3838 83.659 18.3545 83.6257 18.3326 83.5876C18.3107 83.5495 18.2967 83.5073 18.2913 83.4637C18.286 83.4201 18.2895 83.3758 18.3017 83.3336C18.3127 83.2915 18.332 83.252 18.3585 83.2174C18.3849 83.1828 18.4179 83.1539 18.4557 83.1322C18.4934 83.1105 18.5351 83.0965 18.5783 83.0911C18.6215 83.0856 18.6653 83.0888 18.7073 83.1005L19.3789 83.2876L19.9864 83.4517C20.0713 83.4748 20.1436 83.5307 20.1873 83.607C20.2311 83.6833 20.2427 83.7739 20.2196 83.8588C20.1965 83.9437 20.1406 84.0159 20.0643 84.0596C19.9879 84.1034 19.8973 84.115 19.8124 84.0919L19.2032 83.9261ZM22.3789 84.7731C22.2938 84.7502 22.2212 84.6945 22.1772 84.6181C22.1331 84.5418 22.1212 84.4511 22.1441 84.366C22.167 84.2809 22.2227 84.2084 22.2991 84.1643C22.3754 84.1203 22.4662 84.1084 22.5513 84.1313C22.9996 84.2478 23.4298 84.3578 23.8354 84.4596C23.8781 84.4697 23.9183 84.4883 23.9536 84.5142C23.989 84.5401 24.0188 84.5729 24.0413 84.6105C24.0638 84.6482 24.0786 84.6899 24.0847 84.7333C24.0907 84.7768 24.0881 84.821 24.0768 84.8633C24.0665 84.9058 24.0477 84.9458 24.0217 84.981C23.9957 85.0162 23.9629 85.0458 23.9253 85.0681C23.8876 85.0905 23.8459 85.1051 23.8026 85.111C23.7592 85.117 23.7151 85.1143 23.6729 85.103C23.2656 85.0012 22.8354 84.8896 22.3838 84.7747L22.3789 84.7731ZM15.9749 83.0102C15.5479 82.8855 15.1226 82.7574 14.6973 82.6294C14.6554 82.6172 14.6162 82.5968 14.5822 82.5693C14.5483 82.5417 14.5202 82.5077 14.4995 82.4692C14.4789 82.4307 14.4661 82.3884 14.462 82.3449C14.4579 82.3014 14.4626 82.2575 14.4757 82.2158C14.5055 82.1346 14.5641 82.0671 14.6404 82.0263C14.7167 81.9854 14.8053 81.974 14.8895 81.9942C15.3131 82.1222 15.7368 82.2481 16.1604 82.3717C16.2451 82.3959 16.3168 82.4527 16.3596 82.5296C16.4024 82.6066 16.4128 82.6974 16.3887 82.7821C16.3645 82.8667 16.3077 82.9383 16.2307 82.9811C16.1537 83.0239 16.0629 83.0344 15.9782 83.0102H15.9749ZM26.246 85.7382C26.2037 85.7274 26.164 85.7084 26.129 85.6823C26.0941 85.6562 26.0647 85.6234 26.0424 85.5859C26.0202 85.5484 26.0055 85.5069 25.9993 85.4638C25.9931 85.4206 25.9954 85.3767 26.0062 85.3344C26.017 85.2922 26.036 85.2525 26.0621 85.2175C26.0883 85.1826 26.121 85.1532 26.1585 85.131C26.196 85.1087 26.2376 85.0941 26.2807 85.0879C26.3239 85.0816 26.3679 85.084 26.4102 85.0948C27.2312 85.2917 27.6992 85.4001 27.6992 85.4001C27.742 85.4092 27.7826 85.4267 27.8186 85.4518C27.8545 85.4768 27.8851 85.5087 27.9085 85.5457C27.9319 85.5828 27.9477 85.6241 27.9549 85.6673C27.9621 85.7105 27.9605 85.7547 27.9504 85.7973C27.9411 85.84 27.9234 85.8804 27.8983 85.9161C27.8732 85.9519 27.8412 85.9823 27.8042 86.0055C27.7672 86.0287 27.7259 86.0444 27.6828 86.0514C27.6396 86.0585 27.5955 86.0569 27.553 86.0468C27.553 86.0468 27.0768 85.9384 26.2542 85.7415L26.246 85.7382ZM12.1669 81.8333H12.1522C11.7252 81.6955 11.3032 81.5543 10.8878 81.4131C10.8464 81.3994 10.8081 81.3777 10.7752 81.349C10.7423 81.3204 10.7155 81.2855 10.6962 81.2464C10.6769 81.2073 10.6657 81.1647 10.663 81.1212C10.6604 81.0777 10.6665 81.0341 10.6809 80.9929C10.6932 80.9506 10.7141 80.9113 10.7424 80.8774C10.7707 80.8436 10.8057 80.816 10.8452 80.7964C10.8848 80.7768 10.9279 80.7656 10.972 80.7636C11.0161 80.7615 11.0601 80.7686 11.1013 80.7845C11.5151 80.9256 11.9338 81.0657 12.3574 81.2047C12.399 81.2172 12.4378 81.2377 12.4715 81.2652C12.5051 81.2927 12.533 81.3265 12.5536 81.3648C12.5742 81.403 12.587 81.445 12.5914 81.4882C12.5958 81.5314 12.5916 81.5751 12.5791 81.6167C12.5666 81.6583 12.546 81.697 12.5185 81.7306C12.491 81.7643 12.4572 81.7922 12.4189 81.8128C12.3807 81.8334 12.3387 81.8462 12.2955 81.8506C12.2522 81.855 12.2086 81.8508 12.1669 81.8383V81.8333ZM8.40665 80.5202L8.37542 80.5104C7.94684 80.3462 7.53143 80.1821 7.13241 80.0179C7.09163 80.0019 7.05443 79.9779 7.02309 79.9473C6.99174 79.9167 6.96687 79.8801 6.94988 79.8397C6.9329 79.7993 6.92414 79.756 6.92419 79.7122C6.92423 79.6683 6.93306 79.625 6.95012 79.5846C6.96648 79.5442 6.99076 79.5073 7.02152 79.4764C7.05229 79.4454 7.08892 79.4208 7.12928 79.4042C7.16965 79.3875 7.21294 79.3791 7.25661 79.3793C7.30028 79.3796 7.34345 79.3886 7.38361 79.4057C7.77935 79.5699 8.18826 79.734 8.61191 79.8899C8.65331 79.9034 8.69162 79.9249 8.72472 79.9532C8.75781 79.9815 8.78503 80.016 8.80478 80.0548C8.82452 80.0936 8.83642 80.1359 8.83981 80.1793C8.84321 80.2227 8.83802 80.2663 8.82454 80.3077C8.81106 80.349 8.78957 80.3874 8.76128 80.4205C8.73298 80.4535 8.69842 80.4807 8.65961 80.5005C8.62081 80.5202 8.5785 80.5321 8.5351 80.5355C8.49169 80.5389 8.44805 80.5337 8.40665 80.5202ZM27.8683 85.3344L27.8256 85.318C27.7851 85.3012 27.7485 85.2765 27.7177 85.2453C27.687 85.2141 27.6627 85.177 27.6465 85.1364C27.6303 85.0957 27.6224 85.0522 27.6233 85.0084C27.6241 84.9646 27.6337 84.9214 27.6516 84.8814C27.8158 84.5039 27.98 84.0968 28.1294 83.6651C28.1443 83.6242 28.1671 83.5865 28.1965 83.5544C28.2259 83.5223 28.2614 83.4962 28.3009 83.4778C28.3404 83.4593 28.3831 83.4488 28.4266 83.4469C28.4702 83.445 28.5137 83.4516 28.5547 83.4665C28.5957 83.4814 28.6333 83.5042 28.6655 83.5336C28.6976 83.563 28.7237 83.5985 28.7421 83.6379C28.7606 83.6774 28.771 83.7201 28.773 83.7637C28.7749 83.8072 28.7683 83.8507 28.7534 83.8916C28.5892 84.3365 28.425 84.755 28.2608 85.144C28.2285 85.2168 28.171 85.2753 28.0988 85.3089C28.0266 85.3424 27.9447 85.3485 27.8683 85.3262V85.3344ZM4.75307 78.933C4.73106 78.9259 4.70963 78.9172 4.68901 78.9067C4.24565 78.6786 3.84828 78.4521 3.50838 78.2338C3.47161 78.2103 3.43982 78.1798 3.41485 78.144C3.38988 78.1082 3.37219 78.0679 3.36281 78.0253C3.35344 77.9827 3.35256 77.9387 3.36021 77.8957C3.36785 77.8528 3.38389 77.8118 3.40739 77.775C3.4309 77.7383 3.46141 77.7065 3.49719 77.6815C3.53298 77.6566 3.57332 77.6389 3.61594 77.6295C3.65855 77.6201 3.70262 77.6193 3.74559 77.6269C3.78855 77.6345 3.82957 77.6506 3.86633 77.6741C4.19475 77.8809 4.56751 78.0975 4.9928 78.3175C5.07446 78.3493 5.14011 78.4122 5.17537 78.4924C5.21063 78.5725 5.21261 78.6634 5.18082 78.7451C5.14903 78.8267 5.08609 78.8923 5.00587 78.9276C4.92565 78.9628 4.83473 78.9648 4.75307 78.933ZM1.96157 76.3166C1.896 76.2992 1.83743 76.2619 1.79392 76.2099C1.7504 76.1579 1.72404 76.0937 1.71851 76.0261C1.68628 75.5682 1.68628 75.1085 1.71851 74.6506C1.7208 74.607 1.73176 74.5644 1.75074 74.5251C1.76973 74.4858 1.79636 74.4507 1.82908 74.4218C1.86179 74.3929 1.89997 74.3708 1.94133 74.3568C1.98268 74.3429 2.02639 74.3373 2.06993 74.3404C2.11367 74.3425 2.15656 74.3533 2.19605 74.3722C2.23555 74.391 2.27086 74.4176 2.29993 74.4504C2.32899 74.4831 2.35123 74.5213 2.36531 74.5627C2.37939 74.6042 2.38502 74.648 2.38191 74.6917C2.35142 75.1168 2.35142 75.5435 2.38191 75.9687C2.38619 76.0122 2.38175 76.0561 2.3688 76.0979C2.35585 76.1397 2.33469 76.1785 2.30654 76.2119C2.27839 76.2454 2.24381 76.273 2.20487 76.2929C2.16594 76.3129 2.12343 76.3248 2.07979 76.3281C2.04036 76.3279 2.0013 76.3201 1.96482 76.3051L1.96157 76.3166ZM29.1343 81.5691C29.0924 81.5579 29.0531 81.5385 29.0186 81.5119C28.9842 81.4854 28.9554 81.4524 28.9339 81.4147C28.9124 81.377 28.8985 81.3354 28.8932 81.2923C28.8879 81.2492 28.8911 81.2055 28.9028 81.1637C29.0128 80.7484 29.1179 80.3233 29.2164 79.885C29.2262 79.8425 29.2441 79.8024 29.2693 79.7669C29.2945 79.7314 29.3265 79.7012 29.3634 79.678C29.4003 79.6548 29.4414 79.6392 29.4844 79.6319C29.5274 79.6246 29.5713 79.6258 29.6138 79.6355C29.6563 79.6452 29.6965 79.6632 29.732 79.6884C29.7675 79.7136 29.7977 79.7456 29.8209 79.7825C29.8441 79.8193 29.8598 79.8604 29.8671 79.9034C29.8743 79.9463 29.8731 79.9903 29.8634 80.0327C29.7632 80.4776 29.6565 80.9125 29.5432 81.3327C29.5325 81.3751 29.5135 81.4149 29.4872 81.4499C29.4609 81.4848 29.4279 81.5141 29.3902 81.5361C29.3524 81.5582 29.3106 81.5724 29.2672 81.5781C29.2238 81.5837 29.1798 81.5807 29.1376 81.5691H29.1343ZM2.28998 72.3592C2.21 72.3379 2.14102 72.2872 2.09687 72.2172C2.05272 72.1472 2.03663 72.0631 2.05185 71.9817C2.1241 71.5615 2.21606 71.1216 2.30474 70.6686C2.3133 70.6257 2.3304 70.5849 2.35497 70.5487C2.37954 70.5124 2.41109 70.4815 2.44781 70.4576C2.48454 70.4338 2.52566 70.4175 2.56876 70.4097C2.61187 70.402 2.65612 70.403 2.69885 70.4126C2.7418 70.4211 2.78259 70.4382 2.81884 70.4628C2.85509 70.4873 2.88606 70.5189 2.90992 70.5556C2.93379 70.5923 2.95009 70.6334 2.95783 70.6765C2.96557 70.7196 2.96459 70.7638 2.95498 70.8065C2.85975 71.2513 2.776 71.683 2.70374 72.0966C2.69661 72.1396 2.68101 72.1806 2.65784 72.2175C2.63468 72.2543 2.60441 72.2862 2.5688 72.3113C2.5332 72.3363 2.49298 72.354 2.45046 72.3634C2.40794 72.3728 2.36401 72.3736 2.32117 72.3658L2.28998 72.3592ZM29.9537 77.6708C29.8744 77.6498 29.8059 77.6 29.7615 77.531C29.7171 77.4621 29.7002 77.379 29.714 77.2982C29.7829 76.8698 29.8453 76.4332 29.8995 75.9851C29.9104 75.898 29.9554 75.8188 30.0247 75.765C30.094 75.7111 30.1819 75.6869 30.269 75.6978C30.3561 75.7087 30.4353 75.7537 30.4892 75.823C30.5431 75.8923 30.5672 75.9801 30.5564 76.0671C30.5005 76.5152 30.4365 76.9584 30.3692 77.3934C30.3628 77.4366 30.3478 77.478 30.3252 77.5154C30.3026 77.5527 30.2728 77.5852 30.2374 77.6109C30.2021 77.6366 30.162 77.6549 30.1195 77.6649C30.077 77.6749 30.0329 77.6764 29.9899 77.6691L29.9537 77.6708ZM3.18818 68.479C3.14597 68.4675 3.10648 68.4477 3.07205 68.4207C3.03761 68.3937 3.00892 68.3601 2.98766 68.3218C2.96639 68.2836 2.95297 68.2415 2.94821 68.1981C2.94345 68.1546 2.94743 68.1106 2.95992 68.0687C3.07979 67.6468 3.21117 67.2184 3.35239 66.7867C3.36558 66.7451 3.38694 66.7065 3.41525 66.6732C3.44356 66.6399 3.47824 66.6126 3.51724 66.5929C3.55623 66.5732 3.59876 66.5614 3.64236 66.5584C3.68595 66.5553 3.7297 66.561 3.77108 66.575C3.81256 66.5882 3.85101 66.6095 3.88417 66.6377C3.91734 66.6659 3.94456 66.7003 3.96427 66.7391C3.98398 66.7779 3.99579 66.8203 3.99899 66.8637C4.00219 66.9071 3.99672 66.9506 3.98291 66.9919C3.84498 67.4165 3.71693 67.8367 3.5987 68.2525C3.57261 68.3349 3.51502 68.4038 3.43846 68.444C3.36191 68.4843 3.27257 68.4927 3.18983 68.4675L3.18818 68.479ZM30.3889 73.7068C30.3152 73.6872 30.2507 73.6425 30.2063 73.5806C30.162 73.5186 30.1406 73.4431 30.1458 73.3671C30.1738 72.9321 30.1918 72.4922 30.2033 72.054C30.2033 72.01 30.2121 71.9665 30.2292 71.926C30.2463 71.8855 30.2714 71.8489 30.3029 71.8183C30.3345 71.7876 30.3719 71.7637 30.4129 71.7478C30.4539 71.7319 30.4976 71.7244 30.5416 71.7257C30.5857 71.7257 30.6294 71.7345 30.67 71.7517C30.7106 71.7689 30.7473 71.7941 30.778 71.8258C30.8086 71.8575 30.8326 71.8951 30.8484 71.9363C30.8642 71.9774 30.8715 72.0214 30.87 72.0654C30.859 72.5141 30.8399 72.96 30.8125 73.4032C30.8104 73.4469 30.7996 73.4897 30.7807 73.5292C30.7618 73.5687 30.7353 73.604 30.7025 73.6331C30.6698 73.6621 30.6316 73.6844 30.5901 73.6984C30.5487 73.7125 30.5048 73.7181 30.4611 73.715C30.4369 73.7111 30.4132 73.7045 30.3905 73.6953L30.3889 73.7068ZM4.48704 64.7022L4.44927 64.6891C4.40869 64.673 4.37172 64.649 4.34051 64.6185C4.3093 64.588 4.28448 64.5516 4.26751 64.5114C4.25054 64.4712 4.24174 64.4281 4.24165 64.3845C4.24156 64.3408 4.25018 64.2976 4.26699 64.2574C4.43119 63.8454 4.61346 63.4367 4.79901 63.0263C4.81673 62.9863 4.84229 62.9503 4.87414 62.9203C4.90599 62.8903 4.94351 62.867 4.98451 62.8517C5.0255 62.8364 5.06915 62.8294 5.11287 62.8312C5.15659 62.833 5.19952 62.8436 5.23911 62.8622C5.27912 62.8799 5.31519 62.9054 5.34519 62.9372C5.37519 62.9691 5.39852 63.0066 5.41382 63.0476C5.42912 63.0886 5.43607 63.1322 5.43427 63.1759C5.43246 63.2196 5.42194 63.2625 5.40332 63.3021C5.21941 63.6993 5.04696 64.1031 4.88112 64.5068C4.85123 64.5824 4.79443 64.6441 4.72164 64.6802C4.64885 64.7163 4.56526 64.7241 4.48704 64.7022ZM30.4118 69.7133C30.3442 69.6952 30.2842 69.656 30.2405 69.6014C30.1968 69.5467 30.1717 69.4796 30.1688 69.4097C30.1458 68.972 30.1141 68.5343 30.0736 68.0966C30.0695 68.0535 30.0739 68.01 30.0866 67.9686C30.0993 67.9272 30.1201 67.8887 30.1477 67.8553C30.1753 67.8219 30.2092 67.7943 30.2475 67.774C30.2858 67.7537 30.3277 67.7412 30.3708 67.7371C30.4139 67.733 30.4575 67.7374 30.4989 67.7502C30.5403 67.7629 30.5788 67.7836 30.6122 67.8112C30.6455 67.8388 30.6732 67.8727 30.6935 67.9109C30.7137 67.9492 30.7263 67.9911 30.7304 68.0342C30.7731 68.4774 30.8043 68.9238 30.8273 69.3703C30.8302 69.4139 30.8243 69.4577 30.81 69.4991C30.7957 69.5404 30.7733 69.5785 30.7441 69.6111C30.7149 69.6437 30.6794 69.6701 30.6399 69.6887C30.6003 69.7074 30.5574 69.718 30.5137 69.7199C30.4807 69.7221 30.4475 69.7199 30.4151 69.7133H30.4118ZM6.22928 61.1223C6.20156 61.1152 6.17498 61.1042 6.15042 61.0895C6.11235 61.068 6.07895 61.0392 6.05216 61.0047C6.02538 60.9702 6.00575 60.9307 5.99444 60.8885C5.98312 60.8463 5.98034 60.8023 5.98626 60.759C5.99218 60.7157 6.00668 60.6741 6.02891 60.6365C6.25552 60.2458 6.49198 59.8617 6.73665 59.4875C6.76058 59.4511 6.79147 59.4197 6.82753 59.3952C6.86359 59.3707 6.90414 59.3535 6.94684 59.3447C6.98953 59.3359 7.03354 59.3355 7.07637 59.3437C7.11919 59.3519 7.15999 59.3684 7.19643 59.3923C7.23288 59.4162 7.26425 59.4471 7.28876 59.4831C7.31327 59.5192 7.33043 59.5597 7.33927 59.6024C7.34811 59.6451 7.34848 59.689 7.34031 59.7319C7.33215 59.7747 7.31562 59.8154 7.29169 59.8519C7.05413 60.2163 6.82476 60.5878 6.60363 60.9664C6.56785 61.0298 6.51198 61.0796 6.4448 61.1078C6.37761 61.1361 6.30292 61.1412 6.23253 61.1223H6.22928ZM29.9439 65.7641C29.884 65.7475 29.8299 65.7146 29.7876 65.6691C29.7453 65.6237 29.7164 65.5673 29.7041 65.5065C29.622 65.0764 29.5268 64.6497 29.4201 64.2295C29.4093 64.1872 29.4069 64.1433 29.4131 64.1001C29.4193 64.0569 29.434 64.0154 29.4563 63.9779C29.4785 63.9404 29.5079 63.9077 29.5429 63.8816C29.5778 63.8554 29.6175 63.8365 29.6598 63.8257C29.7021 63.8149 29.746 63.8125 29.7892 63.8187C29.8324 63.825 29.8739 63.8396 29.9114 63.8619C29.9489 63.8841 29.9817 63.9135 30.0078 63.9484C30.0339 63.9834 30.053 64.0231 30.0637 64.0653C30.1721 64.4986 30.2706 64.9369 30.356 65.3784C30.3679 65.4339 30.3652 65.4915 30.3481 65.5456C30.3311 65.5997 30.3003 65.6485 30.2588 65.6872C30.2173 65.7259 30.1665 65.7532 30.1113 65.7664C30.0561 65.7796 29.9984 65.7782 29.9439 65.7625V65.7641ZM8.52487 57.874C8.47729 57.8603 8.4331 57.8368 8.39514 57.8051C8.36175 57.7766 8.33439 57.7418 8.31468 57.7026C8.29498 57.6634 8.28332 57.6207 8.28041 57.5769C8.2775 57.5332 8.28338 57.4893 8.29773 57.4478C8.31207 57.4064 8.33461 57.3682 8.36395 57.3356C8.66609 56.9893 8.97971 56.6594 9.29663 56.3508C9.3279 56.3205 9.36483 56.2967 9.40531 56.2807C9.4458 56.2647 9.48902 56.2567 9.53256 56.2574C9.57609 56.2581 9.61908 56.2674 9.65904 56.2847C9.699 56.3019 9.73514 56.3269 9.76544 56.3582C9.79573 56.3894 9.81957 56.4263 9.83559 56.4668C9.85162 56.5073 9.85953 56.5505 9.85884 56.594C9.85816 56.6375 9.84888 56.6805 9.83158 56.7204C9.81429 56.7604 9.78933 56.7965 9.75806 56.8268C9.45592 57.119 9.15375 57.4374 8.86311 57.769C8.82293 57.8164 8.77014 57.8514 8.71085 57.87C8.65155 57.8886 8.58822 57.89 8.52816 57.874H8.52487ZM28.8371 61.9446C28.7876 61.9313 28.7419 61.9065 28.7037 61.8723C28.6655 61.8381 28.6358 61.7954 28.6171 61.7477C28.4529 61.3423 28.2755 60.9434 28.085 60.561C28.0459 60.4822 28.0396 60.391 28.0676 60.3076C28.0956 60.2242 28.1557 60.1553 28.2345 60.1161C28.3133 60.077 28.4045 60.0707 28.4879 60.0987C28.5714 60.1267 28.6403 60.1867 28.6795 60.2655C28.8782 60.6627 29.0637 61.0862 29.2328 61.4998C29.2499 61.5403 29.2586 61.5837 29.2585 61.6276C29.2585 61.6715 29.2496 61.7149 29.2324 61.7553C29.2153 61.7957 29.1902 61.8323 29.1587 61.8628C29.1272 61.8934 29.0899 61.9173 29.049 61.9332C28.9823 61.9582 28.9095 61.9622 28.8404 61.9446H28.8371ZM11.5151 55.2658C11.4513 55.2507 11.3936 55.2168 11.3492 55.1685C11.3049 55.1203 11.276 55.0599 11.2663 54.9952C11.2566 54.9304 11.2665 54.8642 11.2947 54.8051C11.323 54.746 11.3682 54.6966 11.4247 54.6634C11.8105 54.4222 12.2096 54.203 12.6202 54.0069C12.6996 53.969 12.7909 53.9643 12.8739 53.9937C12.9569 54.0231 13.0248 54.0842 13.0627 54.1637C13.1006 54.2431 13.1053 54.3343 13.0759 54.4173C13.0465 54.5003 12.9854 54.5681 12.9059 54.606C12.5186 54.7913 12.1424 54.999 11.7794 55.2281C11.7409 55.2521 11.6978 55.2678 11.6528 55.2743C11.6079 55.2808 11.5621 55.2779 11.5183 55.2658H11.5151ZM26.9028 58.4797C26.833 58.4593 26.7715 58.4174 26.7271 58.3599C26.4671 58.0176 26.1898 57.6889 25.8962 57.375C25.8663 57.3432 25.843 57.3059 25.8276 57.2651C25.8122 57.2243 25.805 57.1808 25.8063 57.1373C25.8077 57.0937 25.8176 57.0508 25.8356 57.011C25.8536 56.9713 25.8792 56.9354 25.911 56.9056C25.9428 56.8757 25.9802 56.8524 26.021 56.837C26.0618 56.8216 26.1052 56.8144 26.1489 56.8157C26.1925 56.8171 26.2354 56.8271 26.2751 56.845C26.3149 56.863 26.3507 56.8886 26.3806 56.9204C26.6899 57.2509 26.982 57.5972 27.2558 57.9577C27.3011 58.0124 27.3274 58.0802 27.3308 58.1511C27.3342 58.222 27.3146 58.2921 27.2748 58.3509C27.2351 58.4096 27.1774 58.454 27.1103 58.4772C27.0432 58.5004 26.9704 58.5013 26.9028 58.4797ZM15.1883 53.805C15.1135 53.7878 15.0471 53.745 15.0005 53.684C14.954 53.6229 14.9304 53.5475 14.9337 53.4709C14.937 53.3942 14.9671 53.3211 15.0187 53.2643C15.0703 53.2075 15.1402 53.1706 15.2163 53.16C15.6643 53.0757 16.1174 53.0209 16.5726 52.9958C16.6597 52.9912 16.745 53.0214 16.8098 53.0798C16.8747 53.1381 16.9137 53.2198 16.9183 53.3068C16.9228 53.3939 16.8926 53.4792 16.8342 53.544C16.7759 53.6088 16.6942 53.6478 16.6071 53.6524C16.1806 53.6748 15.756 53.7252 15.3361 53.8034C15.2887 53.815 15.2393 53.8155 15.1916 53.805H15.1883ZM24.0357 55.7533C24.0004 55.7448 23.967 55.7297 23.9372 55.709C23.5814 55.4698 23.2124 55.2506 22.8321 55.0525C22.7931 55.0328 22.7584 55.0057 22.73 54.9725C22.7017 54.9393 22.6802 54.9008 22.6669 54.8592C22.6536 54.8177 22.6487 54.7738 22.6525 54.7304C22.6564 54.6869 22.6689 54.6446 22.6893 54.606C22.7089 54.5668 22.7361 54.5319 22.7694 54.5034C22.8028 54.4749 22.8415 54.4534 22.8833 54.4401C22.925 54.4268 22.9691 54.422 23.0127 54.4259C23.0564 54.4299 23.0989 54.4426 23.1375 54.4632C23.5403 54.6729 23.9311 54.9047 24.3083 55.1575C24.345 55.1815 24.3765 55.2126 24.4009 55.2489C24.4254 55.2853 24.4423 55.3261 24.4507 55.3691C24.4591 55.4121 24.4589 55.4563 24.4499 55.4992C24.441 55.5421 24.4235 55.5827 24.3986 55.6187C24.3604 55.6761 24.3051 55.7199 24.2406 55.7441C24.176 55.7682 24.1055 55.7715 24.039 55.7533H24.0357ZM19.1391 53.8198C19.0533 53.8002 18.9788 53.7473 18.932 53.6728C18.8852 53.5984 18.8699 53.5083 18.8895 53.4226C18.9091 53.3368 18.962 53.2623 19.0365 53.2156C19.1111 53.1688 19.2011 53.1535 19.2869 53.1731C19.6153 53.2322 19.9552 53.3044 20.2968 53.3914L20.548 53.4587C20.6359 53.4823 20.7117 53.5382 20.7604 53.6151C20.8091 53.692 20.827 53.7844 20.8107 53.874C20.8032 53.9152 20.7874 53.9544 20.7641 53.9892C20.7407 54.024 20.7105 54.0537 20.6752 54.0763C20.6399 54.099 20.6004 54.1141 20.559 54.1208C20.5176 54.1275 20.4753 54.1256 20.4347 54.1152L20.1326 54.0348C19.8042 53.9527 19.4856 53.8822 19.1703 53.8263L19.1391 53.8198Z" fill="#4FBB8A"/>
<path d="M23.4672 49.4784C18.9138 48.3885 15.247 49.224 12.293 51.1198C14.2634 50.7242 16.4375 50.8227 18.9072 51.3381C39.2211 55.563 32.2538 82.9233 28.8695 88.023C29.1339 88.0559 29.2801 88.0707 29.2801 88.0707L32.863 86.8265C36.1915 84.2905 42.6054 54.0529 23.4672 49.4784Z" fill="#89FAC7"/>
<path d="M28.7888 88.3365C28.7375 88.3236 28.6901 88.2984 28.6506 88.2632C28.6111 88.228 28.5807 88.1837 28.562 88.1343C28.5433 88.0848 28.5368 88.0315 28.5431 87.979C28.5495 87.9265 28.5684 87.8762 28.5983 87.8326C30.9235 84.3299 34.5459 71.2546 31.0007 61.7936C29.1024 56.7283 25.4538 53.4226 20.1631 51.9716C19.7411 51.855 19.3026 51.75 18.8494 51.6564C16.3502 51.1361 14.2287 51.0655 12.3666 51.4381C12.2887 51.4598 12.2055 51.452 12.1331 51.4161C12.0606 51.3803 12.0039 51.3191 11.9738 51.2441C11.9437 51.1691 11.9423 51.0856 11.97 51.0096C11.9976 50.9337 12.0523 50.8706 12.1236 50.8325C15.4553 48.6987 19.301 48.1373 23.5556 49.155C23.7592 49.2042 23.9579 49.2551 24.1566 49.3092C30.6329 51.0869 34.853 56.1424 36.3587 63.9307C38.2307 73.6034 35.3029 85.3902 33.0746 87.0841C33.0468 87.1053 33.0157 87.122 32.9826 87.1334L29.3997 88.3775C29.3537 88.3928 29.3051 88.3983 29.2568 88.394C29.2568 88.394 29.1074 88.3792 28.8397 88.3447L28.7888 88.3365ZM20.3306 51.3314C25.8462 52.8448 29.6443 56.2868 31.623 61.5606C35.0713 70.7786 31.8595 83.391 29.4883 87.6422L32.7068 86.5244C34.5262 85.016 37.5837 73.7856 35.7019 64.0571C34.6625 58.6832 31.6674 51.7746 23.3865 49.8C19.9381 48.9793 16.7755 49.2337 13.9577 50.5649C15.641 50.4896 17.3268 50.638 18.9709 51.0064C19.4373 51.0984 19.8888 51.2116 20.324 51.3314H20.3306Z" fill="#4FBB8A"/>
<path d="M10.7989 63.1462C10.7989 63.1462 16.9287 66.6506 25.2013 67.5041L23.0043 77.2293C23.0043 77.2293 22.5117 80.4711 19.2276 80.174C15.9434 79.8769 8.80871 77.0438 8.80871 77.0438C8.80871 77.0438 6.5443 75.9507 7.56566 72.7204C8.58702 69.4902 10.7989 63.1462 10.7989 63.1462Z" fill="#89FAC7"/>
<path d="M16.0192 79.8537C12.6694 78.9329 8.72191 77.3687 8.6825 77.3539C8.64309 77.3391 6.15045 76.0835 7.2457 72.6202C8.25885 69.4244 10.4641 63.1001 10.4871 63.0361C10.5031 62.9902 10.5291 62.9485 10.5631 62.9138C10.5972 62.8792 10.6385 62.8526 10.6842 62.8358C10.7296 62.8184 10.7784 62.8112 10.827 62.8149C10.8755 62.8186 10.9227 62.833 10.9649 62.8572C10.9961 62.8752 14.167 64.6627 18.9322 65.9758C20.9973 66.5458 23.1057 66.9454 25.2361 67.1708C25.283 67.1752 25.3284 67.1896 25.3692 67.2132C25.4099 67.2367 25.4452 67.2687 25.4725 67.307C25.5002 67.3451 25.5194 67.3887 25.5288 67.4349C25.5381 67.481 25.5374 67.5287 25.5267 67.5745L23.328 77.2997C23.328 77.3112 22.7599 80.8222 19.1933 80.5005C18.1191 80.3736 17.0574 80.1573 16.0192 79.8537ZM10.9847 63.6237C10.492 65.0238 8.74652 70.0777 7.87787 72.8155C6.95996 75.7158 8.86311 76.7023 8.95178 76.7417C8.96656 76.7417 12.8812 78.2977 16.1949 79.2038C17.1953 79.499 18.2185 79.7103 19.254 79.8357C22.2098 80.0999 22.658 77.2915 22.6761 77.1717L24.796 67.7846C22.7556 67.5493 20.7365 67.1569 18.7565 66.611C16.0701 65.8849 13.4657 64.8838 10.9847 63.6237Z" fill="#4FBB8A"/>
<path d="M57.2805 54.253L53.5349 53.8098L57.3001 53.5899C57.3433 53.5874 57.3865 53.5934 57.4273 53.6077C57.4681 53.6219 57.5057 53.644 57.5379 53.6727C57.5702 53.7014 57.5964 53.7362 57.6152 53.7751C57.634 53.814 57.645 53.8562 57.6475 53.8993C57.65 53.9424 57.6439 53.9856 57.6297 54.0264C57.6155 54.0671 57.5934 54.1047 57.5646 54.137C57.5359 54.1692 57.5011 54.1954 57.4622 54.2142C57.4233 54.233 57.3811 54.244 57.3379 54.2465C57.3191 54.2511 57.2998 54.2533 57.2805 54.253Z" fill="#4FBB8A"/>
<path d="M57.7337 81.9894L52.6433 84.3005L57.4201 81.4034C57.4954 81.3577 57.5858 81.3438 57.6714 81.3647C57.757 81.3857 57.8308 81.4397 57.8765 81.5151C57.9223 81.5904 57.9362 81.6807 57.9153 81.7663C57.8943 81.8519 57.8402 81.9256 57.7649 81.9713C57.755 81.9782 57.7445 81.9842 57.7337 81.9894Z" fill="#4FBB8A"/>
<path d="M58.233 79.5468L53.1426 81.8563L57.9193 78.9592C57.9949 78.9135 58.0855 78.8997 58.1713 78.9208C58.257 78.9419 58.3309 78.9961 58.3766 79.0717C58.4224 79.1472 58.4362 79.2378 58.4151 79.3235C58.394 79.4092 58.3397 79.4831 58.2641 79.5288L58.233 79.5468Z" fill="#4FBB8A"/>
<path d="M58.8997 76.8059L53.8093 79.1153L58.586 76.2183C58.6616 76.1726 58.7522 76.1587 58.838 76.1798C58.9238 76.2009 58.9977 76.2552 59.0434 76.3307C59.0891 76.4062 59.1029 76.4968 59.0818 76.5826C59.0607 76.6683 59.0065 76.7421 58.9309 76.7878L58.8997 76.8059Z" fill="#4FBB8A"/>
<path d="M59.4644 74.1222L54.374 76.4317L59.1507 73.5362C59.2261 73.4905 59.3165 73.4766 59.4021 73.4976C59.4878 73.5185 59.5615 73.5726 59.6072 73.6479C59.653 73.7232 59.6669 73.8136 59.646 73.8991C59.625 73.9847 59.5709 74.0585 59.4956 74.1042L59.4644 74.1222Z" fill="#4FBB8A"/>
<path d="M60.1521 71.3007L55.0618 73.6101L59.8369 70.7147C59.9122 70.669 60.0026 70.6551 60.0882 70.676C60.1739 70.697 60.2477 70.751 60.2934 70.8263C60.3391 70.9016 60.353 70.992 60.3321 71.0776C60.3111 71.1632 60.257 71.2369 60.1817 71.2826L60.1521 71.3007Z" fill="#4FBB8A"/>
<path d="M60.5708 68.8351L55.4805 71.1445L60.2588 68.2491C60.3342 68.2034 60.4246 68.1895 60.5102 68.2104C60.5958 68.2314 60.6696 68.2854 60.7153 68.3608C60.7611 68.4361 60.775 68.5264 60.7541 68.612C60.7331 68.6976 60.679 68.7713 60.6037 68.817L60.5708 68.8351Z" fill="#4FBB8A"/>
<path d="M61.4283 65.7166L56.3379 68.0261L61.113 65.129C61.1503 65.1064 61.1917 65.0913 61.2348 65.0847C61.278 65.078 61.322 65.08 61.3644 65.0903C61.4068 65.1007 61.4467 65.1193 61.4819 65.1451C61.5171 65.1709 61.5468 65.2034 61.5695 65.2406C61.5921 65.2779 61.6072 65.3193 61.6138 65.3624C61.6205 65.4055 61.6186 65.4495 61.6082 65.4919C61.5978 65.5343 61.5792 65.5742 61.5534 65.6094C61.5276 65.6446 61.4951 65.6743 61.4578 65.6969L61.4283 65.7166Z" fill="#4FBB8A"/>
<path d="M62.2867 62.5964L57.1963 64.9058L61.9731 62.0104C62.0104 61.9877 62.0518 61.9727 62.0949 61.966C62.138 61.9594 62.182 61.9613 62.2244 61.9717C62.2668 61.982 62.3067 62.0006 62.3419 62.0264C62.3771 62.0522 62.4069 62.0847 62.4295 62.122C62.4522 62.1593 62.4672 62.2007 62.4739 62.2438C62.4805 62.2869 62.4786 62.3309 62.4682 62.3732C62.4579 62.4156 62.4393 62.4555 62.4135 62.4907C62.3877 62.5259 62.3552 62.5556 62.3179 62.5783L62.2867 62.5964Z" fill="#4FBB8A"/>
<path d="M62.9605 59.5138L57.8701 61.8232L62.6468 58.9261C62.7222 58.8804 62.8126 58.8665 62.8982 58.8874C62.9838 58.9084 63.0576 58.9624 63.1033 59.0378C63.1491 59.1131 63.163 59.2035 63.1421 59.289C63.1211 59.3746 63.067 59.4484 62.9917 59.4941L62.9605 59.5138Z" fill="#4FBB8A"/>
<path d="M57.8286 52.2475L54.083 51.8027L57.8532 51.5909C57.9403 51.5857 58.0259 51.6153 58.0912 51.6732C58.1565 51.731 58.1961 51.8124 58.2013 51.8995C58.2065 51.9866 58.1769 52.0721 58.119 52.1374C58.0611 52.2027 57.9797 52.2423 57.8926 52.2475C57.8713 52.2494 57.8499 52.2494 57.8286 52.2475Z" fill="#4FBB8A"/>
<path d="M58.2414 50.13L54.4958 49.6851L58.2611 49.4669C58.3042 49.4644 58.3474 49.4704 58.3882 49.4846C58.429 49.4988 58.4666 49.5209 58.4988 49.5496C58.5311 49.5784 58.5573 49.6132 58.5761 49.652C58.5949 49.6909 58.6059 49.7331 58.6084 49.7762C58.6109 49.8193 58.6048 49.8625 58.5906 49.9033C58.5764 49.9441 58.5543 49.9817 58.5255 50.0139C58.4968 50.0461 58.462 50.0724 58.4231 50.0912C58.3842 50.11 58.342 50.1209 58.2988 50.1234C58.28 50.1281 58.2608 50.1303 58.2414 50.13Z" fill="#4FBB8A"/>
<path d="M58.5493 48.0651L54.8037 47.6203L58.569 47.402C58.6121 47.3994 58.6553 47.4053 58.6961 47.4194C58.737 47.4335 58.7746 47.4555 58.8069 47.4842C58.8393 47.5128 58.8656 47.5476 58.8845 47.5864C58.9034 47.6253 58.9145 47.6674 58.9171 47.7105C58.9197 47.7536 58.9137 47.7969 58.8996 47.8377C58.8855 47.8785 58.8635 47.9161 58.8348 47.9484C58.8061 47.9807 58.7714 48.0071 58.7325 48.026C58.6937 48.0449 58.6515 48.0559 58.6084 48.0585C58.5889 48.0624 58.5691 48.0646 58.5493 48.0651Z" fill="#4FBB8A"/>
<path d="M58.5825 45.7525L54.8369 45.3077L58.6022 45.0877C58.6906 45.0825 58.7774 45.1126 58.8436 45.1714C58.9098 45.2302 58.95 45.3129 58.9552 45.4013C58.9604 45.4896 58.9303 45.5764 58.8715 45.6426C58.8127 45.7088 58.73 45.7489 58.6416 45.7541C58.6219 45.7552 58.6021 45.7547 58.5825 45.7525Z" fill="#4FBB8A"/>
<path d="M59.0593 43.3838L55.3154 42.939L59.0807 42.719C59.1691 42.714 59.2559 42.7443 59.3219 42.8033C59.388 42.8622 59.4279 42.945 59.4329 43.0334C59.4379 43.1217 59.4076 43.2085 59.3486 43.2745C59.2896 43.3405 59.2068 43.3804 59.1184 43.3855C59.0987 43.3865 59.079 43.386 59.0593 43.3838Z" fill="#4FBB8A"/>
<path d="M59.2527 41.1188L55.5088 40.674L59.2724 40.4557C59.3155 40.4531 59.3587 40.459 59.3996 40.4731C59.4404 40.4872 59.4781 40.5092 59.5104 40.5379C59.5427 40.5665 59.5691 40.6013 59.588 40.6401C59.6069 40.679 59.6179 40.7211 59.6205 40.7642C59.6231 40.8074 59.6171 40.8505 59.603 40.8914C59.5889 40.9322 59.5669 40.9698 59.5382 41.0021C59.5096 41.0345 59.4748 41.0608 59.436 41.0797C59.3971 41.0986 59.3549 41.1096 59.3118 41.1122C59.2923 41.1161 59.2725 41.1183 59.2527 41.1188Z" fill="#4FBB8A"/>
<path d="M59.3442 38.9078L55.5986 38.4629L59.3639 38.2446C59.407 38.2459 59.4494 38.2557 59.4888 38.2734C59.5281 38.2911 59.5636 38.3164 59.5932 38.3478C59.6228 38.3792 59.6459 38.4161 59.6612 38.4564C59.6765 38.4967 59.6837 38.5397 59.6824 38.5828C59.6811 38.6259 59.6714 38.6683 59.6537 38.7076C59.636 38.747 59.6107 38.7824 59.5793 38.812C59.5478 38.8416 59.5109 38.8647 59.4706 38.88C59.4302 38.8953 59.3873 38.9025 59.3442 38.9012V38.9078Z" fill="#4FBB8A"/>
<path d="M59.5678 36.2159L55.8223 35.7711L59.5859 35.5528C59.673 35.5476 59.7586 35.5772 59.8239 35.635C59.8891 35.6929 59.9288 35.7744 59.934 35.8614C59.9392 35.9485 59.9096 36.0341 59.8517 36.0993C59.7938 36.1646 59.7124 36.2042 59.6253 36.2094C59.6064 36.2133 59.5871 36.2154 59.5678 36.2159Z" fill="#4FBB8A"/>
<path d="M59.768 33.6062L56.0225 33.1598L59.7877 32.9415C59.8308 32.939 59.874 32.945 59.9148 32.9592C59.9556 32.9734 59.9932 32.9955 60.0254 33.0243C60.0577 33.053 60.084 33.0878 60.1028 33.1267C60.1215 33.1656 60.1325 33.2078 60.135 33.2509C60.1375 33.294 60.1314 33.3371 60.1172 33.3779C60.103 33.4187 60.0809 33.4563 60.0522 33.4885C60.0234 33.5208 59.9886 33.547 59.9497 33.5658C59.9108 33.5846 59.8686 33.5955 59.8255 33.598L59.768 33.6062Z" fill="#4FBB8A"/>
<path d="M59.8012 31.2918L56.0557 30.847L59.8209 30.6287C59.908 30.6313 59.9905 30.6684 60.0502 30.7318C60.11 30.7952 60.1421 30.8797 60.1394 30.9668C60.1368 31.0538 60.0997 31.1363 60.0363 31.196C59.9729 31.2557 59.8883 31.2878 59.8012 31.2852V31.2918Z" fill="#4FBB8A"/>
<path d="M59.9359 28.9199L56.1904 28.4767L59.9557 28.2584C60.0438 28.2532 60.1305 28.2832 60.1966 28.3418C60.2626 28.4005 60.3027 28.4829 60.3079 28.5711C60.3131 28.6592 60.2831 28.7459 60.2244 28.8119C60.1658 28.8779 60.0833 28.9179 59.9951 28.9232C59.9753 28.9238 59.9555 28.9227 59.9359 28.9199Z" fill="#4FBB8A"/>
<path d="M59.9887 26.5286L56.2432 26.0821L60.0084 25.8638C60.0516 25.8613 60.0947 25.8674 60.1355 25.8816C60.1763 25.8958 60.2139 25.9179 60.2462 25.9466C60.2784 25.9754 60.3047 26.0102 60.3235 26.049C60.3423 26.0879 60.3532 26.1301 60.3557 26.1732C60.3582 26.2163 60.3521 26.2595 60.3379 26.3003C60.3237 26.3411 60.3016 26.3786 60.2729 26.4109C60.2441 26.4431 60.2093 26.4694 60.1704 26.4882C60.1315 26.5069 60.0893 26.5179 60.0462 26.5204L59.9887 26.5286Z" fill="#4FBB8A"/>
<path d="M60.0453 24.1337L56.2998 23.6905L60.065 23.4706C60.1082 23.468 60.1514 23.4739 60.1922 23.488C60.233 23.5021 60.2707 23.5241 60.303 23.5528C60.3354 23.5814 60.3617 23.6162 60.3806 23.655C60.3995 23.6938 60.4106 23.736 60.4132 23.7791C60.4158 23.8223 60.4098 23.8654 60.3957 23.9063C60.3816 23.9471 60.3596 23.9847 60.3309 24.017C60.3022 24.0493 60.2675 24.0757 60.2286 24.0946C60.1898 24.1135 60.1476 24.1245 60.1044 24.1271C60.0851 24.1318 60.0653 24.134 60.0453 24.1337Z" fill="#4FBB8A"/>
<path d="M59.6775 21.7176L55.9336 21.2728L59.6988 21.0545C59.7859 21.0495 59.8715 21.0793 59.9366 21.1373C60.0017 21.1953 60.0411 21.2768 60.0461 21.3639C60.0511 21.451 60.0213 21.5364 59.9633 21.6016C59.9052 21.6667 59.8237 21.706 59.7366 21.7111C59.7171 21.7149 59.6973 21.7171 59.6775 21.7176Z" fill="#4FBB8A"/>
</g>
</svg>
