<svg width="711" height="408" viewBox="0 0 711 408" fill="none" xmlns="http://www.w3.org/2000/svg">
<path opacity="0.2" d="M243.154 61.7149C242.609 61.7603 242.065 61.7987 241.521 61.8267C226.79 62.6512 202.573 58.899 205.153 38.8801C207.595 20.0596 234.7 24.3883 226.814 42.5904C211.183 78.6872 166.975 38.4399 149.143 29.8489C125.411 18.421 107.091 15.1754 80.9795 19.2491C62.0631 22.1977 37.4934 29.6777 36.1681 52.5439C35.4706 64.6321 40.8972 75.2215 40.5206 87.4424C40.2206 97.1025 36.1402 117.013 22.0366 110.413C11.6333 105.547 9.13272 86.6214 24.1884 88.5045C43.6838 90.9501 36.7994 125.482 32.4748 137.067C24.6941 157.893 24.4953 180.224 16.6588 201.7C12.7109 212.513 7.99578 223.012 5.68703 234.443C1.7496 253.927 1.23344 278.184 10.3987 296.264C16.9274 309.135 52.3991 360.803 28.8478 371.322C17.8725 376.213 8.11086 361.145 13.8513 351.883C20.0627 341.863 35.9519 347.691 43.8198 351.642C67.4548 363.496 84.5438 386.694 107.732 398.073C127.263 407.66 155.683 405.34 176.583 402.615C190.328 400.83 200.825 399.646 214.657 399.244C231.24 398.758 247.98 395.621 264.1 391.862C281.063 387.903 310.205 379.634 311.147 356.785C311.935 337.626 292.732 338.227 287.78 354.783C275.071 397.406 366.644 402.692 392.612 392.365C422.894 380.319 463.318 348.739 496.687 365.781C505.622 370.344 510.069 379.658 518.474 384.923C531.66 393.179 563.571 394.761 566.34 376.657C571.101 345.563 527.629 359.147 545.223 378.774C559.717 394.94 596.49 382.348 609.094 368.59C616.027 361.023 620.742 350.615 625.405 341.566C628.195 336.151 630.473 330.303 633.643 325.097C645.218 306.085 669.958 302.413 685.147 287.138C699.885 272.311 706.581 254.109 707.872 233.301C709.891 200.69 687.721 178.726 668.989 155.192C656.542 139.547 648.636 116.412 647.45 96.7147C646.623 83.0019 651.084 65.0968 645.49 52.502C640.646 41.5912 621.461 24.7307 608.341 27.9274C574.386 36.1935 629.897 96.4946 614.834 37.7412C610.998 22.7986 598.544 4.93191 582.212 3.34228C564.956 1.66181 549.604 18.2988 534.37 24.2835C516.451 31.3407 440.179 48.1558 436.785 16.5589C434.881 -1.08773 453.435 -2.67386 460.152 11.6992C471.591 36.1096 445.375 45.5041 426.964 48.8301C399.434 53.8051 393.069 51.7264 371.484 36.4729C360.164 28.4759 347.131 15.3641 332.292 16.524C319.321 17.5371 306.634 29.8838 296.37 37.7412C280.958 49.5324 262.844 60.1078 243.154 61.7149Z" stroke="#89FAC7" strokeWidth="4.68" stroke-miterlimit="10" stroke-dasharray="18.73 18.73"/>
</svg>
