<svg width="80" height="65" viewBox="0 0 80 65" fill="none" xmlns="http://www.w3.org/2000/svg">
<g opacity="0.8">
<path d="M38.0557 0.00170898L3.77624 22.2569C3.77624 22.2569 -2.35967 26.2793 1.10303 32.4109L34.0031 64.7917L79.6812 29.8208L50.5699 0.00170898H38.0557Z" fill="#89FAC7"/>
<path d="M79.8862 29.5874L63.5262 12.7352L54.9095 3.88875L51.1154 0.00170898H50.0247L54.382 4.47483L63.0218 13.3053L79.168 29.7584L33.9961 64.528L18.1351 49.0404L9.759 40.8459L1.12631 32.3878C1.01048 32.1509 0.87325 31.9211 0.769886 31.6752L0.611273 31.3189C0.563155 31.196 0.52395 31.0731 0.479396 30.9502C0.383161 30.7061 0.331482 30.4549 0.260196 30.2073C0.188911 29.9597 0.155046 29.7068 0.133661 29.4591C0.0707008 28.9707 0.0707008 28.4762 0.133661 27.9877C0.158683 27.7479 0.198557 27.51 0.253061 27.2751L0.340395 26.9295L0.447319 26.5946C0.527515 26.3737 0.607716 26.1546 0.707516 25.9444C0.807315 25.7342 0.912456 25.5276 1.02473 25.3245C1.13701 25.1214 1.26176 24.929 1.39185 24.7366C1.52195 24.5442 1.65739 24.3625 1.80174 24.1826C2.37657 23.4607 3.04962 22.8227 3.80131 22.2872L14.5797 15.3753L25.2244 8.63799L35.7016 1.99333L38.8115 0.00170898H37.3145L35.2543 1.35736L24.9304 8.22471L14.4407 15.1918L3.74785 22.2195C2.98829 22.7607 2.30859 23.406 1.72868 24.1363C1.58433 24.3144 1.44888 24.505 1.31522 24.6956C1.18156 24.8863 1.06037 25.0858 0.946316 25.2889C0.832259 25.4919 0.72177 25.6986 0.627317 25.9141C0.528399 26.1281 0.44036 26.3469 0.363553 26.5697L0.254845 26.9099L0.167522 27.2662C0.112827 27.5012 0.0717693 27.7391 0.0445535 27.9788C0.012475 28.2193 0.0089107 28.4687 0 28.7163C0.00277156 28.9681 0.0188366 29.2197 0.0481213 29.4698C0.069507 29.7228 0.130095 29.9757 0.17643 30.2287C0.222766 30.4817 0.301178 30.7328 0.397414 30.9822C0.44375 31.1069 0.482958 31.2316 0.532858 31.3546L0.693255 31.7215C0.794837 31.9674 0.937409 32.2025 1.04968 32.443C1.05169 32.4468 1.05479 32.4499 1.05859 32.4519L9.65919 40.951L17.98 49.1972L33.8625 64.9306C33.896 64.9679 33.942 64.9918 33.9919 64.9977C34.0417 65.0035 34.092 64.9911 34.1333 64.9627L79.8827 30.1254C79.9496 30.0648 79.9911 29.9811 79.9987 29.8912C80.0063 29.8013 79.9795 29.7118 79.9237 29.6408C79.9122 29.6223 79.8997 29.6045 79.8862 29.5874Z" fill="#4FBB8A"/>
<path d="M77.6478 21.6637L49.1978 0.00170898H42.0389L5.99332 22.9124C5.99332 22.9124 -0.0534831 25.4064 2.27399 31.0499L34.1351 61.961L77.0366 28.5773C76.84 27.6763 76.7621 26.7534 76.8049 25.8322C76.9081 24.4126 77.1913 23.0119 77.6478 21.6637Z" fill="#89FAC7"/>
<path d="M62.4482 9.59291L54.4143 3.47197L49.8467 0.00178141H48.5529L54.0098 4.1685L62.0473 10.2823L77.2275 21.7742C77.2133 21.8187 77.1972 21.8633 77.1847 21.906L77.0654 22.33C77.0279 22.4707 76.9834 22.6097 76.9531 22.754L76.8604 23.1922C76.8016 23.4844 76.7374 23.7747 76.6822 24.0669L76.5735 24.9362L76.52 25.3691L76.4933 25.5864L76.479 25.6951V25.7218V25.7663V25.8251L76.463 26.2936L76.4755 26.7604C76.4951 27.0703 76.5254 27.3803 76.5646 27.6885C76.5895 27.8417 76.6109 27.9967 76.6376 28.1499C76.6537 28.2336 76.6715 28.3155 76.6875 28.3975L34.1318 61.6974L18.7608 46.901L10.6539 39.0895L6.50684 35.092L2.31346 31.0304C2.23861 30.8202 2.14773 30.6118 2.08892 30.398C2.02038 30.1854 1.96444 29.9688 1.92139 29.7496C1.87566 29.5342 1.84116 29.3166 1.81803 29.0976C1.79998 28.8831 1.79344 28.6679 1.79843 28.4527C1.80414 28.2418 1.82079 28.0313 1.84832 27.8221C1.8817 27.6173 1.92633 27.4145 1.98198 27.2146C2.03428 27.0155 2.10037 26.8203 2.1798 26.6303C2.25627 26.4436 2.34375 26.2616 2.44178 26.0852C2.53882 25.9092 2.6453 25.7385 2.76078 25.574C2.87305 25.4083 2.99958 25.2533 3.1172 25.0983C3.3763 24.7924 3.66002 24.5082 3.9655 24.2486C4.58275 23.7223 5.27083 23.2851 6.00963 22.9499L16.2694 16.5137L26.4027 10.2235L36.3826 4.03846L42.834 0H41.2301L35.9478 3.40784L26.114 9.82093L16.134 16.3213L5.95794 22.8733C5.2139 23.2113 4.52101 23.6521 3.89957 24.1827C3.59028 24.4437 3.30353 24.7304 3.04236 25.0395C2.91583 25.1945 2.78751 25.3531 2.67345 25.5205C2.5594 25.688 2.45247 25.8608 2.35089 26.0371C2.25167 26.2159 2.16301 26.4003 2.08535 26.5894C2.00628 26.781 1.93902 26.9773 1.88397 27.1772C1.82849 27.3802 1.78388 27.5859 1.75031 27.7936C1.72041 28.0062 1.70316 28.2203 1.69863 28.4349C1.69366 28.653 1.70021 28.8713 1.71823 29.0887C1.75209 29.3096 1.76812 29.5305 1.82337 29.7514C1.87015 29.9737 1.92965 30.1932 2.00158 30.4087C2.06396 30.6278 2.15841 30.8434 2.23504 31.0589C2.2365 31.0655 2.23957 31.0716 2.24396 31.0767L6.43912 35.1526L10.5594 39.1768L18.6129 47.0435L34.0017 62.0911C34.0356 62.1274 34.0813 62.1503 34.1307 62.1559C34.18 62.1614 34.2297 62.1492 34.2708 62.1214L77.2507 28.8696C77.2973 28.8304 77.3317 28.7787 77.35 28.7207C77.3683 28.6626 77.3697 28.6006 77.3541 28.5418C77.3238 28.4082 77.297 28.2603 77.2738 28.116C77.2507 27.9717 77.2293 27.8292 77.2079 27.6849C77.1705 27.3946 77.1455 27.1078 77.1295 26.8209L77.1206 26.3952L77.1366 25.9801V25.9178V25.891L77.1509 25.7824L77.1794 25.5668L77.2364 25.1339L77.3487 24.2664C77.404 23.9903 77.4663 23.7213 77.5269 23.4487L77.616 23.039C77.6445 22.9018 77.6891 22.7718 77.7265 22.6364L77.8424 22.2356C77.878 22.0984 77.9261 21.9791 77.9671 21.8508V21.8348C77.99 21.7506 77.9872 21.6614 77.9589 21.5789C77.9306 21.4963 77.8782 21.4241 77.8085 21.3716L62.4482 9.59291Z" fill="#4FBB8A"/>
<path d="M20.3195 29.3576C23.6111 32.778 26.6229 36.3479 29.5563 39.9072C29.5122 40.047 29.5112 40.1969 29.5535 40.3374C29.5958 40.4778 29.6793 40.6023 29.7934 40.6945C30.7147 41.5674 31.5862 42.476 32.4309 43.4059C34.0455 45.3654 35.6566 47.325 37.2997 49.2204C37.3993 49.3435 37.5343 49.4331 37.6865 49.4769C37.9021 49.721 38.1177 49.965 38.3369 50.2055C38.4055 50.2922 38.4939 50.3611 38.5947 50.4063C38.6956 50.4516 38.8058 50.4719 38.9161 50.4656C32.0602 57.8264 34.1347 61.961 34.1347 61.961L2.27534 31.05C-0.0521402 25.4029 5.99466 22.9125 5.99466 22.9125L10.3841 20.1228C13.7523 23.2278 17.2204 26.1315 20.3195 29.3576Z" fill="#89FAC7"/>
<path d="M17.9032 27.0454L15.4082 24.7759L10.2596 20.2618L10.5234 20.3046L6.20526 23.1869L6.1803 23.2011H6.16604C5.98783 23.2795 5.80962 23.3793 5.64745 23.4737C5.48527 23.5681 5.30884 23.6785 5.14488 23.7872C4.81962 24.0027 4.50994 24.2408 4.21817 24.4998C3.92544 24.7537 3.65478 25.032 3.40908 25.3317C3.28678 25.4797 3.17199 25.6336 3.06513 25.7931C2.95646 25.9511 2.85709 26.1152 2.76751 26.2848C2.67702 26.4541 2.59609 26.6283 2.52513 26.8067C2.4548 26.9859 2.39529 27.1691 2.34692 27.3554C2.29678 27.5436 2.25751 27.7345 2.2293 27.9272C2.20452 28.1234 2.19142 28.3209 2.19009 28.5186C2.18776 28.7191 2.19609 28.9195 2.21504 29.119C2.23847 29.3243 2.27238 29.5282 2.31662 29.73C2.36022 29.9355 2.41555 30.1383 2.48236 30.3375C2.53939 30.5405 2.63384 30.7401 2.70335 30.9414L2.57504 30.7525L6.77554 34.8248C8.16561 36.1627 9.53608 37.5059 10.9012 38.8401L18.9422 46.7176L34.3132 61.7758L33.8979 62.0466C33.7727 61.7544 33.6887 61.4463 33.6484 61.131C33.6324 60.9831 33.6039 60.8335 33.5985 60.6874L33.5807 60.2492L33.6003 59.8163C33.6024 59.6736 33.6156 59.5312 33.6395 59.3905L33.6965 58.9683C33.7162 58.8276 33.7536 58.694 33.7821 58.555L33.8748 58.1453C33.9104 58.0099 33.9568 57.8817 33.996 57.7481C34.072 57.4829 34.1618 57.2218 34.2651 56.966C34.372 56.7131 34.4682 56.4565 34.5805 56.2071L34.9369 55.4785C35.057 55.2343 35.1896 54.9965 35.3343 54.766C35.4751 54.5362 35.6088 54.301 35.7514 54.0712L36.2112 53.4085C36.368 53.1912 36.507 52.9578 36.6799 52.753L37.1789 52.1241C37.3571 51.9175 37.5032 51.6948 37.6868 51.5024L38.7561 50.3071L38.9556 50.6545C38.8687 50.6594 38.7816 50.651 38.6972 50.6295L38.5672 50.5903C38.5223 50.5687 38.4789 50.5443 38.4371 50.5173C38.3977 50.4957 38.3606 50.47 38.3266 50.4407L38.2517 50.3712L38.2143 50.3356L38.1911 50.3142V50.3053L38.1733 50.2857L38.1056 50.2073L37.5585 49.5838L37.6689 49.6533C37.5868 49.6296 37.5083 49.5949 37.4355 49.55C37.364 49.5068 37.2986 49.454 37.2412 49.3932C37.2129 49.3669 37.1861 49.339 37.161 49.3095L37.0987 49.2329L36.9757 49.0815L36.4749 48.4758L35.4716 47.2591L33.4542 44.8114L32.4366 43.5805C32.2762 43.3827 32.0802 43.1886 31.9019 42.9926L31.3673 42.403C31.1891 42.2052 31.0109 42.0111 30.8113 41.8222L30.241 41.2486C30.0503 41.0544 29.865 40.8745 29.6689 40.6661C29.57 40.5608 29.5013 40.4307 29.4699 40.2897C29.4385 40.1487 29.4457 40.0018 29.4907 39.8645L29.5085 39.9482L27.3183 37.2761C26.5716 36.3854 25.8284 35.4947 25.0692 34.6129L22.7346 31.9764L20.3056 29.3755L17.9032 27.0454ZM22.7792 31.9336L25.1173 34.5719C25.8712 35.4626 26.6357 36.3373 27.3931 37.2155L29.619 39.8609C29.6289 39.8722 29.6358 39.8858 29.6389 39.9004C29.642 39.9151 29.6413 39.9303 29.6368 39.9446C29.6033 40.0521 29.5995 40.1667 29.6259 40.2761C29.6522 40.3856 29.7078 40.4859 29.7865 40.5663C29.9648 40.7445 30.1679 40.9422 30.3586 41.1293L30.936 41.694C31.132 41.8721 31.3192 42.0699 31.5027 42.2676L32.0588 42.8519C32.237 43.0514 32.4312 43.2331 32.6112 43.4451L33.6467 44.6618L35.7032 47.0792L36.7244 48.2799L37.2341 48.8784L37.3606 49.0263L37.4248 49.1029C37.4248 49.1029 37.464 49.1421 37.4801 49.1599C37.4974 49.1801 37.5179 49.1976 37.5406 49.2115C37.5585 49.2204 37.5692 49.2365 37.5905 49.2454C37.6282 49.2668 37.6683 49.2835 37.7099 49.2953C37.749 49.3079 37.7841 49.3307 37.8115 49.3612L38.364 49.9722L38.4335 50.0488L38.4513 50.0666V50.0773L38.4335 50.0595L38.4709 50.0933L38.5493 50.1628C38.5653 50.1798 38.5857 50.1921 38.6081 50.1984L38.6563 50.2252C38.6774 50.2292 38.6982 50.2346 38.7186 50.2412C38.7596 50.2608 38.8042 50.2412 38.8469 50.2537L38.9022 50.2626C38.9426 50.2721 38.98 50.2918 39.0109 50.3196C39.0523 50.3522 39.0792 50.3998 39.0859 50.4521C39.0926 50.5044 39.0784 50.5573 39.0465 50.5992L38.0076 51.7964C37.8293 51.9888 37.6796 52.2096 37.5157 52.4145L37.0292 53.0416C36.8616 53.2464 36.728 53.4744 36.5747 53.69L36.131 54.3473L35.7549 55.0439C35.6231 55.2737 35.4823 55.4981 35.3718 55.7386L35.0243 56.4512C34.9191 56.6952 34.8282 56.9446 34.7284 57.1905C34.6297 57.4372 34.5452 57.6894 34.4753 57.9458C34.4379 58.0741 34.3951 58.2005 34.3631 58.3288L34.2793 58.7207C34.2526 58.8525 34.2169 58.9808 34.2009 59.1126L34.151 59.5117C34.1298 59.6442 34.1185 59.7782 34.1172 59.9125L34.1047 60.3151L34.1243 60.7177C34.1243 60.8531 34.1563 60.9849 34.1706 61.1185C34.1849 61.2521 34.2241 61.3804 34.2526 61.5122C34.2847 61.6336 34.3252 61.7526 34.3738 61.8685C34.3973 61.9133 34.4062 61.9644 34.3992 62.0146C34.3921 62.0648 34.3695 62.1115 34.3346 62.1481C34.2814 62.1951 34.212 62.2196 34.1411 62.2162C34.0703 62.2129 34.0035 62.1821 33.955 62.1303L18.429 47.2146L10.3095 39.4138C8.93193 38.0884 7.54899 36.7577 6.16783 35.4074L1.97624 31.3279L1.95663 31.3101C1.90651 31.2601 1.86869 31.1991 1.84614 31.132C1.76416 30.904 1.66793 30.6759 1.60555 30.4426C1.53255 30.2135 1.47305 29.9803 1.42734 29.7443C1.38045 29.5087 1.34594 29.2709 1.32397 29.0317C1.30679 28.7999 1.30203 28.5674 1.30971 28.3352C1.3169 28.1073 1.33774 27.88 1.37209 27.6547C1.40893 27.4351 1.45891 27.218 1.52179 27.0044C1.58065 26.7936 1.6539 26.5871 1.741 26.3863C1.82526 26.1888 1.92045 25.9961 2.02613 25.8091C2.13485 25.631 2.24534 25.4421 2.37009 25.2747C2.49484 25.1072 2.62493 24.9398 2.76216 24.7795C3.03407 24.4634 3.33215 24.1708 3.65323 23.9048C3.97788 23.6411 4.32027 23.4001 4.67796 23.1833C4.85617 23.0746 5.03439 22.9713 5.22686 22.8734C5.41933 22.7754 5.60111 22.6952 5.8114 22.599L5.7722 22.6204L10.2365 19.9215C10.2789 19.9003 10.3271 19.8931 10.3739 19.9011C10.4207 19.9092 10.4637 19.9319 10.4967 19.9661C12.1701 21.5319 13.8346 23.096 15.5116 24.6263L17.9709 26.9421L20.3341 29.3149L22.7792 31.9336Z" fill="#4FBB8A"/>
<path d="M36.3074 0.00170898L3.77625 22.2587L36.3413 54.0444L79.2659 20.5752L58.3579 0.00170898H36.3074Z" fill="#89FAC7"/>
<path d="M72.1945 13.4175L64.8752 6.0977L58.7661 0.00170898H57.9427L64.5865 6.45042L72.0127 13.6402L79.2054 20.5735L36.336 53.7327L4.35375 22.3549L27.2204 6.81917C30.5661 4.54728 33.8862 2.27479 37.1808 0.00170898H35.4378C32.5092 1.9957 29.574 4.00335 26.6323 6.02466L3.52327 21.9434C3.48663 21.9738 3.45672 22.0115 3.43543 22.0541C3.41414 22.0967 3.40193 22.1433 3.39959 22.1908C3.39724 22.2384 3.4048 22.2859 3.4218 22.3304C3.4388 22.3749 3.46485 22.4154 3.49832 22.4493L3.53752 22.492L36.1881 54.2012C36.2278 54.2433 36.2812 54.2699 36.3387 54.2761C36.3962 54.2823 36.4541 54.2677 36.5018 54.235L79.291 20.6091C79.2984 20.6014 79.3025 20.5912 79.3025 20.5806C79.3025 20.5699 79.2984 20.5597 79.291 20.5521L72.1945 13.4175Z" fill="#4FBB8A"/>
<path d="M47.0879 0.00170898L13.2771 23.682L36.0136 46.2098L70.2931 19.5278L50.1318 0.00170898H47.0879Z" fill="#89FAC7"/>
<path d="M65.1874 14.3884L59.9372 9.19201L54.5676 3.89588L50.5952 0.00170898H49.656L54.1915 4.34301L59.6574 9.5287L65.0038 14.6022L70.2255 19.5171L36.0084 45.882L13.835 23.78L31.5887 11.4598C34.5559 9.404 37.484 7.32153 40.412 5.26756L47.8097 0.00883463H46.3483L39.8542 4.48731C36.919 6.53949 33.9553 8.58455 31.0059 10.6706L13.0348 23.3721C12.9989 23.4023 12.9697 23.4396 12.9489 23.4816C12.9282 23.5237 12.9164 23.5696 12.9142 23.6164C12.912 23.6632 12.9195 23.71 12.9363 23.7538C12.9531 23.7976 12.9787 23.8374 13.0116 23.8708C13.0232 23.8853 13.0357 23.899 13.049 23.9118L35.8604 46.3683C35.9008 46.4127 35.9557 46.4412 36.0153 46.4484C36.0749 46.4556 36.1351 46.441 36.1848 46.4075L70.3235 19.5598C70.3309 19.5522 70.335 19.542 70.335 19.5313C70.335 19.5207 70.3309 19.5105 70.3235 19.5028L65.1874 14.3884Z" fill="#4FBB8A"/>
<path d="M63.9412 18.0493L61.0167 20.1941L46.7292 6.10848L49.4524 4.14893L63.9412 18.0493Z" fill="#89FAC7"/>
<path d="M62.0772 16.4762C61.4623 15.9418 60.8582 15.3824 60.2452 14.8337C59.6321 14.285 59.0173 13.7328 58.4095 13.1681L56.5739 11.4758C55.9627 10.9039 55.3443 10.3374 54.7348 9.75848L52.8974 8.01269C52.5873 7.72232 52.2861 7.42127 51.9796 7.12199L51.0618 6.23128L49.2226 4.43027L49.7074 4.49975L46.9504 6.41477L46.9343 5.88034L54.111 13.0915L61.0756 20.1263L60.9509 20.1103L63.8736 18.0456C63.273 17.5254 62.6778 16.9964 62.0772 16.4762ZM63.9663 18.026C63.9702 18.0298 63.9733 18.0344 63.9754 18.0394C63.9776 18.0445 63.9787 18.0499 63.9787 18.0554C63.9787 18.0609 63.9776 18.0663 63.9754 18.0714C63.9733 18.0764 63.9702 18.081 63.9663 18.0848L61.081 20.2813C61.062 20.2939 61.0391 20.2992 61.0165 20.2963C60.9939 20.2933 60.9731 20.2823 60.958 20.2652L53.8295 13.4122L46.5227 6.34707C46.5062 6.33016 46.4908 6.31231 46.4763 6.29363C46.4158 6.22601 46.3842 6.13728 46.3886 6.04661C46.3929 5.95595 46.4328 5.87063 46.4995 5.80909L49.1905 3.80144C49.2652 3.75487 49.3537 3.7358 49.4409 3.7475C49.5281 3.75921 49.6084 3.80097 49.6681 3.86557H49.6771L51.5483 5.6256L52.4768 6.50562C52.7851 6.79955 53.097 7.08814 53.3999 7.38386L55.2213 9.14923C55.8254 9.73532 56.4189 10.3303 57.0159 10.9182L58.7981 12.6871C59.3879 13.2732 59.9636 13.8718 60.5463 14.4685C61.1291 15.0653 61.7065 15.6407 62.2715 16.2393C62.8364 16.8378 63.4085 17.4221 63.9663 18.0207V18.026Z" fill="#4FBB8A"/>
<path d="M59.7423 21.1917L56.8 23.349L42.3468 9.30967L45.0877 7.33765L59.7423 21.1917Z" fill="#89FAC7"/>
<path d="M57.8539 19.6188C57.2319 19.0843 56.6225 18.5285 56.0023 17.9816C55.3821 17.4347 54.7548 16.8861 54.1453 16.3231L52.2883 14.6361C51.6717 14.0679 51.0408 13.5032 50.4295 12.9242L48.569 11.1855C48.2589 10.8952 47.9523 10.5959 47.6422 10.2948L46.7155 9.40414L44.8532 7.60847L45.3415 7.67795L42.5685 9.60365L42.5507 9.06923L49.8111 16.2626L56.8577 23.276L56.7312 23.26L59.6717 21.1811C59.0658 20.6698 58.4652 20.1425 57.8539 19.6188ZM59.7644 21.1632C59.7716 21.1717 59.7757 21.1824 59.7757 21.1935C59.7757 21.2046 59.7716 21.2154 59.7644 21.2238L56.8613 23.4328C56.8425 23.4456 56.8197 23.4512 56.7971 23.4486C56.7745 23.446 56.7536 23.4353 56.7383 23.4185L49.5331 16.5886L42.1408 9.54665C42.1233 9.53015 42.1073 9.51228 42.0927 9.49321C42.0317 9.42579 41.9998 9.33696 42.0042 9.24615C42.0085 9.15535 42.0487 9.06996 42.1158 9.00866L44.8247 6.98854C44.8996 6.94116 44.9887 6.92145 45.0765 6.93284C45.1644 6.94422 45.2455 6.98599 45.3059 7.05089H45.3148L47.2145 8.81627L48.1537 9.69272C48.4638 9.98488 48.7793 10.2717 49.0858 10.5674L50.9285 12.3292C51.5398 12.9117 52.1404 13.5049 52.7463 14.091L54.5391 15.8546C55.1344 16.4389 55.7189 17.0339 56.3052 17.6218C56.8916 18.2097 57.4779 18.7922 58.0517 19.389C58.6256 19.9857 59.203 20.5665 59.7661 21.1704L59.7644 21.1632Z" fill="#4FBB8A"/>
<path d="M4.40319 24.3181L34.459 53.7613L4.02893 24.7065L4.40319 24.3181Z" fill="#4FBB8A"/>
<path d="M3.24358 25.0359L33.3885 54.463L2.86755 25.4225L3.24358 25.0359Z" fill="#4FBB8A"/>
<path d="M2.07969 25.7539L32.3155 55.1668L1.70544 26.1423L2.07969 25.7539Z" fill="#4FBB8A"/>
<path d="M2.10237 27.9004L32.299 57.153L1.73169 28.2905L2.10237 27.9004Z" fill="#4FBB8A"/>
<path d="M2.47164 29.5874L32.6005 58.7028L2.10095 29.9757L2.47164 29.5874Z" fill="#4FBB8A"/>
<path d="M76.7227 27.9005L34.9939 60.2937L76.3895 27.4766L76.7227 27.9005Z" fill="#4FBB8A"/>
<path d="M76.7906 26.625L35.028 59.0075L76.4574 26.1992L76.7906 26.625Z" fill="#4FBB8A"/>
<path d="M77.0634 25.0092L35.2722 57.3721L76.7302 24.5852L77.0634 25.0092Z" fill="#4FBB8A"/>
<path d="M77.2323 23.5609L35.4091 55.9096L76.8991 23.137L77.2323 23.5609Z" fill="#4FBB8A"/>
<path d="M5.75477 21.0723L12.9903 28.5613L5.37695 21.4553L5.75477 21.0723Z" fill="#4FBB8A"/>
<path d="M6.77401 19.7915L13.9917 27.2966L6.39441 20.1745L6.77401 19.7915Z" fill="#4FBB8A"/>
<path d="M8.53963 19.2178L15.7217 26.7157L8.16003 19.6008L8.53963 19.2178Z" fill="#4FBB8A"/>
<path d="M9.7358 18.0422L16.8964 25.5509L9.3562 18.4235L9.7358 18.0422Z" fill="#4FBB8A"/>
<path d="M11.1899 17.1816L18.322 24.6939L10.8103 17.5611L11.1899 17.1816Z" fill="#4FBB8A"/>
<path d="M12.3649 16.3337L19.4756 23.8531L11.9835 16.715L12.3649 16.3337Z" fill="#4FBB8A"/>
<path d="M13.7959 15.3591L20.8763 22.882L13.4127 15.7386L13.7959 15.3591Z" fill="#4FBB8A"/>
<path d="M14.9721 14.2583L22.0329 21.7937L14.5872 14.6377L14.9721 14.2583Z" fill="#4FBB8A"/>
<path d="M16.237 13.3054L23.2747 20.8444L15.8521 13.6831L16.237 13.3054Z" fill="#4FBB8A"/>
<path d="M17.6216 12.5447L24.6308 20.0854L17.2367 12.9206L17.6216 12.5447Z" fill="#4FBB8A"/>
<path d="M18.9632 11.3618L25.9492 18.915L18.5782 11.7377L18.9632 11.3618Z" fill="#4FBB8A"/>
<path d="M20.4639 10.7971L27.4179 18.345L20.0754 11.173L20.4639 10.7971Z" fill="#4FBB8A"/>
<path d="M21.7919 9.87598L28.7226 17.4292L21.4052 10.2501L21.7919 9.87598Z" fill="#4FBB8A"/>
<path d="M22.9859 8.83398L29.8953 16.3961L22.5974 9.20808L22.9859 8.83398Z" fill="#4FBB8A"/>
<path d="M24.4759 7.72241L31.3567 15.2916L24.0874 8.09651L24.4759 7.72241Z" fill="#4FBB8A"/>
<path d="M25.9836 6.76221L32.8341 14.335L25.5933 7.13274L25.9836 6.76221Z" fill="#4FBB8A"/>
<path d="M27.2385 5.56494L34.0677 13.1484L26.8483 5.93548L27.2385 5.56494Z" fill="#4FBB8A"/>
<path d="M28.4731 4.8811L35.2791 12.4681L28.0811 5.25164L28.4731 4.8811Z" fill="#4FBB8A"/>
<path d="M29.4801 4.18799L36.2665 11.7786L29.088 4.55674L29.4801 4.18799Z" fill="#4FBB8A"/>
<path d="M31.0499 3.5271L37.806 11.1141L30.656 3.89407L31.0499 3.5271Z" fill="#4FBB8A"/>
<path d="M31.8237 2.63647L38.5673 10.2342L31.4298 3.00523L31.8237 2.63647Z" fill="#4FBB8A"/>
<path d="M33.4493 2.2605L40.1572 9.84931L33.0554 2.62747L33.4493 2.2605Z" fill="#4FBB8A"/>
<path d="M34.7376 1.23975L41.4206 8.83569L34.3419 1.60494L34.7376 1.23975Z" fill="#4FBB8A"/>
<path d="M35.8301 0.00170898L35.5806 0.233293L42.6396 7.4783L36.092 0.00170898H35.8301Z" fill="#4FBB8A"/>
<path d="M37.3783 0.00170898L43.7352 6.55196L38.0234 0.00170898H37.3783Z" fill="#4FBB8A"/>
<path d="M39.6095 0.00170898L45.1733 5.75745L40.1762 0.00170898H39.6095Z" fill="#4FBB8A"/>
<path d="M41.9036 0.00170898L46.4979 4.77589L42.3705 0.00170898H41.9036Z" fill="#4FBB8A"/>
<path d="M43.8749 0.00170898L47.8882 4.18803L44.2848 0.00170898H43.8749Z" fill="#4FBB8A"/>
<path d="M45.9181 0.00170898L49.0172 3.24566L46.2353 0.00170898H45.9181Z" fill="#4FBB8A"/>
</g>
</svg>
