<svg width="57" height="76" viewBox="0 0 57 76" fill="none" xmlns="http://www.w3.org/2000/svg">
<g opacity="0.8">
<path d="M18.7065 5.73188C18.2933 5.06299 18.0834 4.67566 17.4392 4.3111C16.9383 4.02816 16.4038 3.80944 15.8482 3.66012C15.165 3.47621 14.4443 3.53807 13.7626 3.34766C13.0525 3.16807 12.4015 2.80626 11.8739 2.29795C11.3273 1.73485 10.8979 1.07083 10.4098 0.457275C9.61219 1.58323 9.29389 2.97983 9.52483 4.34039C9.04493 4.07511 8.79928 3.55271 8.3942 3.22071C8.13717 4.65614 8.27057 5.35268 8.78464 6.66604C9.2011 7.7239 9.51182 7.78577 10.0617 8.52301C9.66992 8.43804 9.28538 8.32266 8.91153 8.17797C9.13766 8.48718 9.52158 9.47993 10.701 10.157C12.5946 11.2376 15.0413 11.7617 17.0097 10.5931C18.0314 9.9861 18.6008 9.07146 19.1962 8.07546" fill="#89FAC7"/>
<path d="M18.6608 5.76072C18.5404 5.58333 18.4298 5.3962 18.3029 5.22695L18.1142 4.97468C18.0442 4.89656 17.9661 4.82982 17.8929 4.75659C17.822 4.68078 17.7397 4.61655 17.6489 4.56619L17.3935 4.40344L16.8079 4.13651C16.6163 4.04868 16.4177 3.97739 16.2141 3.92335L15.9147 3.83057L15.8415 3.80776C15.8334 3.80776 15.809 3.79637 15.8123 3.80776H15.7732L15.6105 3.78011L15.2933 3.72802L14.9826 3.70362L14.3416 3.65153C14.1204 3.62875 13.9073 3.58481 13.6714 3.53762C13.4648 3.46764 13.2631 3.42695 13.0532 3.33418C12.84 3.25221 12.6343 3.152 12.4383 3.03472L12.1471 2.85898L11.8803 2.64088L11.7469 2.5286C11.7206 2.50856 11.6961 2.48624 11.6737 2.46188L11.62 2.40002L11.4085 2.15916L10.9839 1.67092C10.844 1.50817 10.7155 1.33239 10.5821 1.16313L10.1819 0.650493L10.6699 0.611436L10.53 0.844152C10.4894 0.914133 10.4438 0.984121 10.408 1.0541C10.3381 1.19895 10.2535 1.33727 10.1982 1.48862C10.1327 1.63403 10.0783 1.78419 10.0355 1.9378C9.98404 2.08785 9.94274 2.24118 9.91184 2.39676L9.83213 2.86712C9.82237 3.02987 9.82074 3.18447 9.81586 3.34396C9.81586 3.42208 9.8061 3.5067 9.81586 3.57993L9.84515 3.81754L9.89883 4.28953V4.33184C9.90936 4.42589 9.88225 4.52025 9.82341 4.59436C9.76458 4.66846 9.67881 4.71628 9.58486 4.7273C9.50419 4.73641 9.42282 4.71805 9.35385 4.67521L9.14074 4.54012L8.95366 4.38878C8.84613 4.28567 8.74404 4.17702 8.64782 4.06329L8.39078 3.76708C8.31539 3.68506 8.2344 3.6084 8.14839 3.53762L8.79098 3.30001C8.76332 3.52786 8.72103 3.76058 8.71126 3.98517C8.69992 4.09709 8.69503 4.20958 8.69662 4.32207C8.69662 4.43111 8.69662 4.54177 8.69662 4.64756C8.69662 4.75335 8.71452 4.86401 8.73241 4.97305L8.79423 5.29855C8.85442 5.51174 8.91462 5.72493 8.99758 5.94139C9.03337 6.0488 9.07892 6.15784 9.12284 6.26688L9.18792 6.42963L9.20256 6.47031L9.21232 6.49145V6.50123C9.21232 6.48658 9.22533 6.53541 9.19768 6.47031L9.23835 6.55169L9.40103 6.87718C9.44266 6.9803 9.49734 7.07766 9.56371 7.16687C9.62227 7.24011 9.67758 7.31495 9.72639 7.38819C9.77519 7.46142 9.88094 7.55094 9.95739 7.64045C10.1201 7.8032 10.2941 8.02454 10.4617 8.21495C10.5313 8.29513 10.5739 8.39517 10.5835 8.50091C10.5932 8.60666 10.5693 8.71277 10.5153 8.80419C10.4614 8.89562 10.38 8.96774 10.2828 9.01037C10.1856 9.053 10.0774 9.06397 9.97366 9.04172L9.92811 9.03195L9.32294 8.89038L8.68686 8.68043L9.33758 7.86669L9.47586 8.07823L9.57835 8.25075C9.64505 8.35328 9.70687 8.46397 9.77682 8.55674C9.84178 8.65369 9.91183 8.74712 9.98668 8.83666C10.0574 8.92634 10.1334 9.01167 10.2144 9.09218C10.2896 9.17664 10.3724 9.25399 10.4617 9.32327C10.5452 9.40081 10.6356 9.47055 10.7318 9.53159C10.8277 9.58855 10.9172 9.66339 11.0164 9.71547C11.1157 9.76755 11.2507 9.85058 11.3581 9.90591C11.5679 10.0166 11.7941 10.1191 12.0218 10.2216C12.2496 10.3242 12.4822 10.4071 12.7181 10.4853C12.954 10.5634 13.1931 10.6253 13.4339 10.6773C13.6742 10.7274 13.9169 10.7655 14.161 10.7912C14.6466 10.8415 15.1369 10.8223 15.617 10.7343C15.8573 10.6923 16.0931 10.628 16.3214 10.5422C16.4381 10.5042 16.5518 10.4574 16.6614 10.4023L16.8241 10.3274L16.9868 10.2363C17.0996 10.1762 17.2083 10.1088 17.3122 10.0344C17.4131 9.9661 17.5098 9.89166 17.6017 9.81151C17.7991 9.6511 17.9845 9.47651 18.1565 9.2891C18.3305 9.10031 18.4948 8.89685 18.6559 8.68853L19.1342 8.05547C19.1432 8.04421 19.1562 8.03691 19.1704 8.03508C19.1847 8.03326 19.1991 8.03705 19.2106 8.04569C19.2209 8.05266 19.2282 8.06317 19.2312 8.07517C19.2342 8.08717 19.2326 8.09985 19.2269 8.11081C19.0085 8.60242 18.7523 9.07635 18.4607 9.52833C18.31 9.7583 18.1414 9.97598 17.9564 10.1793C17.7658 10.3868 17.5561 10.5759 17.3301 10.744L17.1576 10.8726L16.977 10.9833C16.8568 11.06 16.7312 11.1279 16.6013 11.1867C16.3456 11.3141 16.0788 11.4176 15.8041 11.4959C15.2534 11.6538 14.6816 11.7252 14.109 11.7075C13.8252 11.7024 13.5421 11.6785 13.2614 11.6359C12.9816 11.5919 12.7051 11.5317 12.4318 11.4617C12.1585 11.3918 11.8917 11.299 11.6297 11.2079C11.3678 11.1167 11.1092 10.9947 10.8473 10.8694C10.7187 10.8075 10.6097 10.7473 10.491 10.6838C10.3579 10.6119 10.2287 10.5331 10.1038 10.4478C9.97595 10.3664 9.85514 10.2744 9.74266 10.1728C9.62551 10.0799 9.51664 9.97699 9.4173 9.86523C9.30955 9.76064 9.21053 9.64742 9.12122 9.5267C9.02903 9.41047 8.94323 9.28932 8.86418 9.16378C8.77959 9.04172 8.71452 8.91803 8.64131 8.7976L8.54533 8.62671L8.4705 8.50139L8.46074 8.4851C8.40227 8.38742 8.37544 8.27406 8.38393 8.16052C8.39243 8.04698 8.43582 7.93885 8.50817 7.85096C8.58052 7.76307 8.67828 7.69973 8.78804 7.66962C8.89779 7.63951 9.01417 7.64409 9.12122 7.68277L9.62227 7.86344L10.1803 8.02618L9.6418 8.83992C9.49864 8.66089 9.38313 8.49977 9.2172 8.30447C9.13586 8.20682 9.05452 8.1173 8.97318 8.00989L8.72591 7.63882C8.65542 7.53003 8.59602 7.41447 8.54858 7.29382L8.40217 6.96833L8.36475 6.88533L8.34686 6.84301V6.83161V6.81047L8.33059 6.76652L8.26877 6.59075C8.2281 6.47194 8.18418 6.35803 8.14839 6.23271C8.06868 5.9951 8.00686 5.74446 7.94829 5.48732L7.8881 5.09348C7.87184 4.96166 7.86858 4.82822 7.86045 4.69476C7.85231 4.56131 7.86045 4.43271 7.86045 4.30089C7.86469 4.17131 7.87555 4.04204 7.89298 3.91357C7.91413 3.65643 7.96782 3.41392 8.00848 3.16492C8.01937 3.09614 8.04852 3.03156 8.09288 2.9779C8.13724 2.92423 8.19519 2.88346 8.26068 2.85985C8.32617 2.83624 8.39679 2.83062 8.46518 2.84364C8.53356 2.85666 8.5972 2.88781 8.64945 2.93383C8.76579 3.03414 8.87454 3.14293 8.97481 3.25933L9.23184 3.57667C9.30993 3.67432 9.39452 3.76223 9.4661 3.84197L9.58486 3.94611L9.70687 4.03074L9.16677 4.41643L9.12284 3.87288L9.1017 3.59948C9.1017 3.50997 9.11146 3.41881 9.11471 3.32767C9.12773 3.14539 9.13586 2.96477 9.15538 2.78412L9.26438 2.24868C9.30819 2.07306 9.36252 1.90021 9.42706 1.73111C9.48495 1.55947 9.55452 1.39202 9.63529 1.22988C9.71125 1.06678 9.79541 0.907639 9.88744 0.753044C9.93137 0.674926 9.9818 0.601669 10.029 0.528433L10.1607 0.328258L10.1803 0.298975C10.2058 0.260708 10.2401 0.229146 10.2803 0.206953C10.3206 0.18476 10.3656 0.172589 10.4116 0.171471C10.4575 0.170354 10.5031 0.180306 10.5444 0.200516C10.5856 0.220727 10.6215 0.250589 10.6488 0.287571L11.0213 0.806724C11.1482 0.977608 11.2653 1.1534 11.4004 1.3194L11.8022 1.82389L12.0023 2.07616L12.0511 2.13961C12.065 2.15444 12.0797 2.16857 12.095 2.18192L12.2056 2.28122L12.4253 2.48302L12.679 2.64577C12.846 2.75746 13.0223 2.85439 13.2061 2.93546C13.3994 3.02172 13.597 3.09776 13.7983 3.16329C13.9821 3.20561 14.1887 3.26258 14.3904 3.2935L15.0298 3.37487L15.3551 3.41882L15.6691 3.48553L15.8318 3.51974H15.8724C15.9034 3.52787 15.9017 3.5311 15.9196 3.53436L15.9977 3.56364L16.3084 3.6776C16.5168 3.74404 16.7192 3.82784 16.9136 3.92819L17.4846 4.22277L17.7612 4.41969C17.8556 4.47871 17.9407 4.5517 18.0133 4.63616C18.0881 4.71753 18.1679 4.7989 18.2378 4.88191L18.4216 5.15205C18.5437 5.33433 18.6429 5.52151 18.7551 5.70704C18.762 5.71925 18.7639 5.73358 18.7606 5.74717C18.7573 5.76076 18.7489 5.77259 18.7372 5.78027C18.731 5.78431 18.724 5.78701 18.7167 5.78822C18.7094 5.78942 18.7019 5.7891 18.6947 5.78726C18.6876 5.78543 18.6808 5.78213 18.675 5.77757C18.6691 5.77301 18.6643 5.76725 18.6608 5.76072Z" fill="#4FBB8A"/>
<path d="M17.0112 10.5912C18.0328 9.98414 18.6022 9.06951 19.1976 8.0735L19.1586 7.88306C17.6066 8.81723 15.687 9.6977 13.9528 9.56913C12.5473 9.46335 11.4166 8.45919 10.4585 7.51851C9.91836 6.98958 8.90323 5.61438 10.2291 5.36538C10.735 5.27098 10.1705 4.01294 10.1233 3.68582C10.0675 3.31483 10.0506 2.93902 10.0729 2.56451C10.0986 1.90077 10.2649 1.25007 10.5609 0.655497C10.5105 0.587144 10.4585 0.520421 10.4064 0.455322C9.60878 1.58127 9.29048 2.97788 9.52142 4.33843C9.04151 4.07316 8.79586 3.55076 8.39079 3.21876C8.13376 4.65418 8.26715 5.35073 8.78122 6.66409C9.19768 7.72194 9.5084 7.78381 10.0583 8.52106C9.66651 8.43608 9.28196 8.32071 8.90811 8.17601C9.13424 8.48523 9.51816 9.47797 10.6976 10.155C12.5961 11.2356 15.0428 11.7597 17.0112 10.5912Z" fill="#89FAC7"/>
<path d="M16.9822 10.5453L17.3336 10.3142L17.659 10.0538L17.9599 9.76406L18.2333 9.44672C18.3959 9.22538 18.5586 8.99754 18.7213 8.76156C18.884 8.52558 19.0125 8.28468 19.1508 8.03893V8.08451L19.0873 7.89411L19.1914 7.93968C18.8791 8.12847 18.5716 8.32212 18.2495 8.49463C17.9274 8.66714 17.5988 8.8299 17.2734 8.9959C16.9397 9.15087 16.5982 9.28831 16.2502 9.40766C16.0774 9.47414 15.9002 9.52852 15.7198 9.57041C15.5414 9.62344 15.36 9.66583 15.1765 9.69735L14.6201 9.77873L14.0524 9.79009C13.9982 9.79484 13.9438 9.79484 13.8897 9.79009L13.7547 9.77221L13.4846 9.73804C13.2916 9.69953 13.101 9.65006 12.9136 9.58991C12.7282 9.52644 12.559 9.44184 12.38 9.36697C12.2011 9.29211 12.0547 9.17982 11.8838 9.08705L11.4202 8.76156L10.9842 8.41163C10.7012 8.16588 10.4344 7.92341 10.1708 7.66139C9.89062 7.38258 9.65226 7.06462 9.46317 6.71745C9.35389 6.52183 9.28372 6.30679 9.25656 6.08435C9.24113 5.94649 9.2567 5.80696 9.30211 5.67589C9.32321 5.60436 9.35681 5.53711 9.40135 5.4773C9.43946 5.41481 9.48851 5.35968 9.54613 5.31456C9.64513 5.22855 9.75786 5.15978 9.87963 5.11112C9.93494 5.08997 9.98862 5.07861 10.0423 5.06233L10.1236 5.03952L10.1643 5.02812C10.1383 5.02812 10.2294 5.01023 10.109 5.04441H10.1253L10.1562 5.03138C10.1562 5.03138 10.192 5.01999 10.1643 5.03138C10.1313 5.03926 10.1027 5.05971 10.0846 5.08836C10.0683 5.08836 10.0716 5.11602 10.0716 5.08836C10.0779 5.03756 10.0779 4.98618 10.0716 4.93538C10.006 4.59993 9.91405 4.27015 9.79666 3.94913C9.76402 3.84319 9.74275 3.73408 9.73322 3.62364L9.70231 3.35349C9.68222 3.15942 9.67407 2.96429 9.67791 2.76922V2.61787C9.6758 2.58807 9.6758 2.55816 9.67791 2.52836V2.46001L9.70231 2.18983C9.72246 1.99587 9.75232 1.80304 9.79178 1.61207C9.83314 1.41691 9.88473 1.2241 9.94633 1.03435C10.0098 0.843939 10.109 0.658376 10.1822 0.472844L10.2164 0.928543L10.0635 0.734884L10.7695 0.677907L10.6247 0.918769C10.584 0.987122 10.5401 1.05548 10.5043 1.12383C10.436 1.26542 10.353 1.39889 10.2993 1.54536C10.2358 1.68765 10.1815 1.83387 10.1367 1.98314C10.0878 2.13039 10.0476 2.28037 10.0163 2.43232L9.93982 2.88802C9.93006 3.05077 9.93006 3.19725 9.92192 3.35186C9.92192 3.42673 9.92192 3.50483 9.92192 3.58132L9.95121 3.81241L10.0049 4.27137V4.32671C10.0137 4.41658 9.99738 4.50708 9.95781 4.58824C9.91825 4.66939 9.85696 4.73799 9.78077 4.78639C9.70458 4.83478 9.61647 4.86109 9.52622 4.86239C9.43598 4.8637 9.34713 4.83995 9.26958 4.79378L9.0402 4.64895L8.84173 4.4862C8.7246 4.37391 8.61885 4.26161 8.51637 4.16071L8.25933 3.86613L8.14383 3.74733L8.03321 3.65129L8.89216 3.33394C8.86613 3.56016 8.81895 3.78966 8.80919 4.00774C8.7978 4.11587 8.79182 4.2245 8.7913 4.33323C8.7913 4.44064 8.7913 4.54968 8.7913 4.65872C8.7913 4.76776 8.80757 4.86865 8.82383 4.97281L8.88077 5.28364C8.93771 5.49196 8.99465 5.70193 9.06948 5.91838C9.10202 6.02579 9.14594 6.13483 9.18661 6.24387L9.2468 6.40662L9.26144 6.44731L9.26958 6.46844V6.47822L9.25331 6.44242L9.29073 6.52542L9.44365 6.85092C9.48315 6.95394 9.53505 7.05173 9.59819 7.1422C9.65025 7.21381 9.70068 7.28706 9.74948 7.36192C9.81293 7.44492 9.8959 7.53445 9.9691 7.62233C10.1171 7.78508 10.2945 8.01942 10.4571 8.21797V8.22612C10.5428 8.33554 10.5815 8.47449 10.5647 8.61244C10.5479 8.75039 10.477 8.87605 10.3677 8.96173C10.3021 9.01174 10.2257 9.04585 10.1447 9.06139C10.0637 9.07692 9.98022 9.07345 9.90078 9.05125L9.30374 8.88851L8.67905 8.65738L9.27934 7.90388C9.42412 8.13173 9.4892 8.28631 9.58192 8.44743C9.66658 8.60323 9.76056 8.75377 9.86336 8.89824C9.96097 9.04309 10.0781 9.17003 10.1887 9.30511C10.3078 9.43209 10.4355 9.55067 10.571 9.65992C10.7118 9.77322 10.8596 9.87757 11.0135 9.97238C11.1762 10.0814 11.3389 10.1644 11.5015 10.2572C11.6642 10.35 11.8269 10.433 12.0075 10.5078C12.1881 10.5827 12.3524 10.6608 12.5297 10.7275C12.8825 10.8636 13.2467 10.9682 13.618 11.04C13.8035 11.0807 13.9922 11.1002 14.1809 11.1263C14.3696 11.1523 14.5599 11.1555 14.7503 11.1458C14.9407 11.1441 15.1308 11.1311 15.3196 11.1067C15.5092 11.0842 15.6967 11.0478 15.8809 10.9977C16.0656 10.9477 16.2471 10.8862 16.4242 10.8138C16.6015 10.7406 16.7747 10.658 16.9432 10.5664L16.9822 10.5453ZM17.0392 10.6364C16.87 10.7376 16.6957 10.8299 16.517 10.9131C16.3382 10.9966 16.1539 11.0678 15.9655 11.1263C15.7784 11.1849 15.5848 11.2304 15.3912 11.2727C15.1975 11.3142 15.0013 11.3435 14.804 11.3606C14.6055 11.3867 14.407 11.3801 14.2069 11.3866C14.0068 11.3932 13.8084 11.3867 13.6115 11.3606C13.4147 11.3346 13.2146 11.3151 13.0161 11.2858C12.8176 11.2565 12.6224 11.2158 12.4288 11.1653C12.2352 11.1149 12.0384 11.0661 11.8481 11.0026C11.6577 10.9391 11.469 10.8708 11.2787 10.8024C11.0883 10.7341 10.8948 10.6396 10.7239 10.5615C10.5348 10.4741 10.3511 10.3752 10.1741 10.2653C9.99124 10.1515 9.81673 10.0248 9.65188 9.88612C9.48949 9.74565 9.33829 9.59274 9.19963 9.4288C9.06065 9.26816 8.93239 9.09855 8.8157 8.92105C8.70182 8.7583 8.58794 8.56137 8.51637 8.46861C8.44765 8.38641 8.40787 8.28386 8.40316 8.17681C8.39845 8.06976 8.42908 7.96414 8.49032 7.87623C8.55155 7.78831 8.64 7.72301 8.74202 7.69036C8.84404 7.65771 8.95396 7.65953 9.05484 7.69556L9.11503 7.71507L9.62747 7.87782L10.1936 8.00639L9.64374 8.8413C9.48106 8.67042 9.36881 8.51578 9.19475 8.32537C9.11015 8.22935 9.03206 8.14472 8.93934 8.03893C8.84661 7.93315 8.76039 7.79159 8.67579 7.66628C8.59988 7.55919 8.53604 7.44401 8.48546 7.32286L8.33091 6.99737L8.29187 6.91437L8.26584 6.85417L8.2577 6.833L8.24144 6.78905L8.17311 6.61327C8.13082 6.49609 8.08364 6.38055 8.04459 6.25687C7.95955 6.00877 7.8884 5.75614 7.83148 5.50011L7.76478 5.09813C7.74852 4.96305 7.74364 4.82472 7.73387 4.68964C7.72411 4.55456 7.73387 4.42111 7.73387 4.28603C7.73387 4.15095 7.75177 4.02235 7.76316 3.89215C7.78431 3.62688 7.83636 3.38277 7.87703 3.13051V3.10286C7.89149 3.01107 7.93076 2.92499 7.99059 2.85393C8.05043 2.78287 8.12856 2.72952 8.21652 2.69968C8.30448 2.66985 8.39892 2.66466 8.48963 2.68466C8.58033 2.70467 8.66383 2.7491 8.7311 2.81316L8.91494 2.98731L9.06948 3.16142L9.32652 3.48692C9.4046 3.58294 9.47943 3.66758 9.55101 3.74244L9.65838 3.83847C9.69417 3.86126 9.72996 3.88729 9.76412 3.91333L9.03532 4.43248L8.99139 3.8759L8.97025 3.59924C8.97025 3.50647 8.97025 3.41205 8.98326 3.31928C8.99628 3.13375 9.00441 2.94823 9.02393 2.7627L9.13455 2.21589C9.17892 2.03563 9.23323 1.85796 9.29723 1.68371C9.3562 1.50829 9.42685 1.337 9.50872 1.17103C9.58591 1.00396 9.67171 0.840993 9.76575 0.682794C9.8113 0.601421 9.86336 0.52006 9.91054 0.451706L10.0374 0.258048L10.0602 0.222248C10.121 0.129864 10.2159 0.0653039 10.3241 0.0427341C10.4323 0.0201642 10.5451 0.0414241 10.6377 0.101817C10.6777 0.128867 10.7129 0.1624 10.7418 0.20107L10.9045 0.409391C10.949 0.469124 10.977 0.539466 10.9859 0.61342C10.9947 0.687374 10.9841 0.762373 10.9549 0.830919L10.9387 0.866718C10.8752 1.01156 10.7988 1.14988 10.7418 1.30124C10.6866 1.45532 10.6399 1.61232 10.6019 1.77156C10.5611 1.93226 10.5301 2.09531 10.5092 2.2598L10.4767 2.52998L10.4685 2.59833V2.76107C10.4564 2.92794 10.4564 3.09548 10.4685 3.26234L10.4913 3.53249C10.4928 3.60135 10.5032 3.66973 10.5222 3.73592C10.6425 4.09997 10.7323 4.47342 10.7906 4.85238C10.8045 4.98179 10.7974 5.11257 10.7695 5.2397C10.7539 5.32545 10.7191 5.40652 10.6675 5.47675C10.6159 5.54697 10.549 5.60449 10.4718 5.64494C10.4559 5.65583 10.4383 5.6641 10.4197 5.66937L10.3888 5.68074H10.3725H10.3644L10.2961 5.70029H10.2717L10.2213 5.71332C10.1903 5.72146 10.1529 5.72795 10.1236 5.73771C10.0944 5.74748 10.0147 5.78165 9.9935 5.80931C9.96356 5.83313 9.94063 5.86464 9.92717 5.90046C9.9137 5.93629 9.9102 5.97509 9.91704 6.01275C9.93277 6.15123 9.97473 6.28548 10.0407 6.40825C10.1908 6.70522 10.3825 6.97923 10.6101 7.22198C10.8525 7.47261 11.1144 7.72647 11.373 7.96408L11.7748 8.30586L12.1929 8.61995L12.6322 8.89014C12.7851 8.96174 12.938 9.05286 13.0909 9.10982C13.2439 9.16678 13.387 9.22536 13.5643 9.26116L13.8311 9.30837L13.9662 9.3328C14.0035 9.33604 14.0411 9.33604 14.0784 9.3328L14.5973 9.34905L15.1196 9.29859C15.2953 9.28109 15.4697 9.25231 15.6418 9.21237C15.817 9.18462 15.9899 9.14382 16.1591 9.09031C16.5047 9.0002 16.8452 8.89154 17.1791 8.76482C17.5044 8.62811 17.8444 8.48974 18.1633 8.32374C18.4822 8.15774 18.8026 7.99827 19.1199 7.81762C19.1278 7.81333 19.1364 7.81064 19.1454 7.80971C19.1543 7.80878 19.1633 7.80965 19.172 7.81222C19.1806 7.81479 19.1886 7.81902 19.1956 7.82469C19.2025 7.83037 19.2083 7.83736 19.2126 7.84527C19.214 7.85171 19.214 7.85839 19.2126 7.86482L19.2484 8.05522C19.2499 8.07035 19.2471 8.0856 19.2402 8.09917L18.7847 8.81198C18.6221 9.04634 18.4594 9.27584 18.2869 9.49718L18.0088 9.82267L17.7078 10.1237L17.3824 10.3955L17.0327 10.6315L17.0392 10.6364Z" fill="#4FBB8A"/>
<path d="M30.9388 75.857L45.3181 71.427L37.4916 18.8598L5.44359 18.7622L5.46962 18.9477C5.2377 18.8378 4.97885 18.7977 4.72454 18.8322C1.43353 19.3204 -0.931847 33.9025 1.62386 51.0723C3.17908 61.5271 6.20168 70.5222 9.07135 75.8521L30.9388 75.857Z" fill="#89FAC7"/>
<path d="M9.29709 75.8576L9.07747 75.4426C8.43651 74.178 7.87689 72.8744 7.34655 71.561C6.81622 70.2477 6.33957 68.9099 5.89545 67.564C5.00559 64.8721 4.26865 62.1315 3.63745 59.3648C3.32347 57.9831 3.03065 56.5981 2.77525 55.2017C2.51984 53.8054 2.2872 52.4123 2.08385 51.0061C1.8805 49.6 1.70969 48.1971 1.57629 46.7861C1.44289 45.3751 1.32413 43.9641 1.25093 42.5547C1.17772 41.1453 1.12567 39.7262 1.10614 38.3103C1.08662 36.8944 1.09801 35.4818 1.15007 34.0691C1.23075 31.2502 1.51948 28.4412 2.0139 25.6648C2.25255 24.2966 2.61632 22.9532 3.10061 21.6515C3.32357 21.0349 3.63838 20.4555 4.03439 19.9329C4.19128 19.7414 4.37806 19.5766 4.5875 19.4447L4.83152 19.3763H4.86568C4.88997 19.3731 4.9146 19.3731 4.93889 19.3763C5.05092 19.3853 5.16078 19.4122 5.26425 19.4561L5.30167 19.4707C5.38411 19.4996 5.47246 19.5075 5.5587 19.4935C5.68264 19.4745 5.79511 19.4101 5.8743 19.3128L37.1447 19.2803L45.09 71.2974L30.4911 75.8689H31.3988L45.3763 71.6375C45.4227 71.6236 45.4626 71.5934 45.4886 71.5524C45.5146 71.5115 45.525 71.4626 45.5178 71.4146L37.8914 18.7986C37.8774 18.7034 37.8299 18.6163 37.7574 18.553C37.6849 18.4898 37.5923 18.4545 37.4961 18.4535L5.44808 18.2241C5.42153 18.2225 5.39491 18.2225 5.36837 18.2241C5.29316 18.236 5.2215 18.2643 5.15851 18.3071C5.10123 18.2937 5.04306 18.2844 4.98444 18.2794C4.92003 18.2737 4.85526 18.2737 4.79085 18.2794L4.69487 18.2876H4.67047C4.63305 18.2876 4.71764 18.2745 4.58099 18.3038H4.55009L4.29142 18.3771C4.05529 18.47 3.83559 18.6002 3.6407 18.7628C3.4752 18.8958 3.32465 19.0464 3.1917 19.212C2.71755 19.8186 2.34001 20.4949 2.07246 21.217C1.5543 22.582 1.16329 23.9919 0.904423 25.4289C0.631119 26.848 0.450542 28.2769 0.312263 29.7075C0.173985 31.138 0.0926476 32.5718 0.0454712 34.004C-0.0500412 36.8676 0.00426102 39.7342 0.208153 42.5921C0.304134 44.0194 0.435902 45.4451 0.595325 46.8659C0.754753 48.2866 0.951599 49.7042 1.16145 51.1184C1.37131 52.5327 1.6251 53.9421 1.91142 55.3499C2.19773 56.7576 2.4938 58.1491 2.84357 59.5341C3.53333 62.3008 4.34348 65.0528 5.30167 67.7479C6.25985 70.443 7.34493 73.0941 8.71795 75.6086C8.76025 75.6883 8.8058 75.7713 8.84972 75.8413L9.29709 75.8576Z" fill="#4FBB8A"/>
<path d="M47.0243 75.857L52.4171 43.2507L32.4221 3.19067L17.9891 48.1217L36.847 75.857H47.0243Z" fill="#89FAC7"/>
<path d="M36.9934 75.8572L18.2852 48.0795L32.4985 4.36092L41.934 23.4608L46.9169 33.4844L51.8607 43.3355L50.1135 54.3372L49.2269 59.9242L48.3566 65.5146L46.7656 75.8572H47.2764L49.0854 65.635L50.0615 60.0626L51.0196 54.4869L52.936 43.3371C52.9567 43.2266 52.9407 43.1123 52.8905 43.0116L47.9125 32.9848L42.897 22.9791L32.8109 2.99061C32.7847 2.9383 32.7483 2.89174 32.7039 2.85373C32.6595 2.81571 32.6079 2.78699 32.5522 2.76925C32.4968 2.75155 32.4384 2.74496 32.3804 2.74986C32.3224 2.75477 32.266 2.77106 32.2143 2.79782C32.1626 2.82458 32.1167 2.86129 32.0792 2.90582C32.0417 2.95034 32.0134 3.00182 31.9958 3.05732L17.7239 48.0388C17.7115 48.0783 17.7083 48.1201 17.7145 48.161C17.7207 48.2019 17.7362 48.2408 17.7597 48.2749L36.7022 75.8572H36.9934Z" fill="#4FBB8A"/>
<path d="M49.9476 75.8579L52.4171 43.2516L36.468 2.58936L32.4221 3.19155L17.9891 48.1226L36.847 75.8579H49.9476Z" fill="#89FAC7"/>
<path d="M36.9917 75.8579L18.2835 48.0803L32.7522 3.57888L36.1832 3.08087L43.9463 23.1166L47.9108 33.2834L51.872 43.3281L50.351 65.2371L49.6612 75.8514H50.2338L51.1465 65.2973L52.9555 43.2923C52.9609 43.2127 52.9493 43.1328 52.9213 43.058L48.9519 32.8863L44.9451 22.7293L36.8843 2.42499C36.847 2.33179 36.7793 2.25395 36.6922 2.20404C36.6051 2.15412 36.5037 2.13505 36.4044 2.14996L32.3602 2.77003C32.2817 2.7823 32.2081 2.81619 32.1478 2.86794C32.0874 2.91968 32.0427 2.98723 32.0185 3.06299L17.7385 48.0429C17.7262 48.0815 17.723 48.1226 17.7292 48.1627C17.7354 48.2028 17.7508 48.2409 17.7743 48.274L36.7102 75.8579H36.9917Z" fill="#4FBB8A"/>
<path d="M49.9476 75.858L52.4171 43.2517L52.326 43.0173L17.9973 48.1324L36.847 75.858H49.9476Z" fill="#89FAC7"/>
<path d="M37.405 75.8573L18.4804 48.34L52.2902 43.0784L52.3634 43.2575C52.1698 45.0851 51.9925 46.9144 51.8152 48.742C51.6378 50.5697 51.4573 52.4055 51.293 54.2396C50.9676 57.9063 50.6097 61.5632 50.3087 65.2397L49.4107 75.8573H50.4844L51.1905 65.3064C51.4475 61.6348 51.6509 57.9584 51.8753 54.2836C51.9914 52.4467 52.0955 50.6087 52.1877 48.7697C52.2869 46.9323 52.3878 45.0932 52.4724 43.2542C52.4739 43.2461 52.4739 43.2379 52.4724 43.2298L52.3829 42.9971C52.3781 42.9854 52.3696 42.9756 52.3588 42.9692C52.3479 42.9627 52.3353 42.9599 52.3227 42.9613L17.9484 47.8551C17.9066 47.8609 17.8666 47.8759 17.8313 47.899C17.7702 47.9406 17.7281 48.0047 17.7141 48.0772C17.7 48.1498 17.7153 48.225 17.7565 48.2863L36.2857 75.854L37.405 75.8573Z" fill="#4FBB8A"/>
<path d="M50.9708 75.8579L56.4629 42.6478L36.4679 2.58936L22.0365 47.5188L41.3044 75.8579H50.9708Z" fill="#89FAC7"/>
<path d="M41.4459 75.8578L22.3407 47.4764L36.5541 3.75777L45.9896 22.8577L50.9725 32.8813L55.9163 42.734L54.1707 53.7356L53.2825 59.3211L52.4122 64.9131L50.7284 75.8578H51.2246L53.141 65.0335L54.1171 59.4611L55.0752 53.8854L56.9916 42.7356C57.0116 42.625 56.9956 42.5109 56.9461 42.4101L51.9713 32.3849L46.9477 22.3792L36.8616 2.3923C36.8221 2.31419 36.7602 2.24962 36.6839 2.20679C36.6076 2.16395 36.5203 2.14481 36.433 2.1518C36.3458 2.15878 36.2626 2.19154 36.1941 2.24596C36.1256 2.30039 36.0748 2.37402 36.0482 2.45742L21.7746 47.4422C21.7624 47.4814 21.7592 47.5229 21.7654 47.5635C21.7716 47.6041 21.787 47.6428 21.8104 47.6766L41.1693 75.861L41.4459 75.8578Z" fill="#4FBB8A"/>
<path d="M41.0668 46.9357C40.3689 47.0399 39.6124 45.8405 39.3766 44.2569C39.1407 42.6734 39.5148 41.3047 40.2144 41.2022C40.9139 41.0996 41.6687 42.2959 41.9046 43.8794C42.1405 45.4629 41.7663 46.8316 41.0668 46.9357Z" fill="#89FAC7"/>
<path d="M41.0704 46.9896C41.0162 46.9935 40.9618 46.9935 40.9077 46.9896C40.7557 46.9632 40.6123 46.9007 40.4896 46.8073C40.3036 46.6697 40.1391 46.5051 40.0016 46.3191C39.8219 46.0795 39.6645 45.824 39.5314 45.5557C39.3712 45.2359 39.2457 44.8998 39.1572 44.5532C39.1361 44.4588 39.1101 44.3726 39.0922 44.2668C39.0743 44.161 39.0596 44.0796 39.0434 43.9836C39.0141 43.7802 38.9929 43.5751 38.9815 43.3652C38.9551 42.9219 38.9907 42.4771 39.0873 42.0437C39.1428 41.7973 39.2378 41.5615 39.3687 41.3455C39.4053 41.284 39.4478 41.2262 39.4956 41.173C39.5434 41.1127 39.598 41.0581 39.6583 41.0102C39.725 40.9561 39.7976 40.9097 39.8747 40.8719C39.9154 40.8517 39.9578 40.8354 40.0016 40.8231L40.0666 40.8052L40.1008 40.7954H40.1171C40.1431 40.7954 40.0748 40.7954 40.1756 40.7954H40.2553C40.2909 40.7899 40.3271 40.7899 40.3627 40.7954C40.4632 40.8006 40.5623 40.8204 40.6572 40.854C40.7344 40.8772 40.8087 40.9094 40.8784 40.95C40.9445 40.9841 41.0071 41.0244 41.0655 41.0705C41.2741 41.2306 41.4578 41.4209 41.6105 41.6352C41.8799 42.0105 42.0865 42.4271 42.2221 42.8688C42.3415 43.266 42.4109 43.6766 42.4287 44.091C42.4401 44.4673 42.4008 44.8434 42.3116 45.2091C42.1914 45.7572 41.9464 46.2701 41.5958 46.708C41.4909 46.8271 41.3601 46.9206 41.2135 46.9814C41.1608 47.0001 41.1063 47.0132 41.0508 47.0205L41.0704 46.9896ZM41.0606 46.8822C41.1043 46.8689 41.1472 46.8531 41.1891 46.835C41.3041 46.7697 41.3983 46.6732 41.4608 46.5567C41.6446 46.2588 41.682 45.7234 41.5909 45.1294C41.5519 44.8283 41.4868 44.5109 41.4201 44.1887C41.3553 43.8413 41.2727 43.4975 41.1729 43.1585C41.0793 42.8111 40.9507 42.4741 40.7889 42.1527C40.7175 42.0092 40.623 41.8783 40.5091 41.7654C40.4883 41.7415 40.4642 41.7207 40.4375 41.7035C40.4176 41.6869 40.3958 41.6727 40.3725 41.6612C40.3416 41.6417 40.3578 41.6612 40.3595 41.6417C40.3611 41.6222 40.3334 41.6336 40.309 41.6336H40.2358C40.3318 41.6254 40.2618 41.6336 40.283 41.6336H40.2651C40.2651 41.6336 40.2505 41.6336 40.2423 41.6336C40.2342 41.6336 40.2065 41.6336 40.1854 41.6596C40.161 41.6733 40.139 41.6909 40.1203 41.7117C40.0934 41.7336 40.0698 41.7594 40.0504 41.7882C39.9497 41.9257 39.8717 42.0784 39.8194 42.2406C39.7045 42.6005 39.6399 42.9746 39.6274 43.3522C39.6176 43.5426 39.6274 43.7297 39.6274 43.9071L39.6485 44.1903L39.6746 44.4523C39.7116 44.7811 39.7692 45.1072 39.847 45.4288C39.9137 45.7051 40.0148 45.9719 40.148 46.223C40.2487 46.4166 40.3882 46.5872 40.5579 46.7243C40.6288 46.7838 40.7112 46.8279 40.7999 46.8539C40.8887 46.88 40.9819 46.8874 41.0736 46.8756L41.0606 46.8822Z" fill="#4FBB8A"/>
<path d="M19.3163 8.38286C18.9634 8.43563 18.6027 8.38248 18.28 8.23016C17.9572 8.07784 17.6868 7.83318 17.5031 7.52713C17.3193 7.22107 17.2304 6.8674 17.2476 6.51079C17.2648 6.15419 17.3874 5.81071 17.5998 5.52378C17.8121 5.23686 18.1048 5.01937 18.4407 4.89886C18.7767 4.77836 19.1408 4.76027 19.487 4.84681C19.8332 4.93336 20.146 5.12066 20.3858 5.38508C20.6256 5.64949 20.7816 5.9791 20.8341 6.33223C20.8692 6.5666 20.8578 6.80558 20.8004 7.03551C20.7431 7.26544 20.6411 7.48182 20.5001 7.67227C20.3591 7.86272 20.182 8.02353 19.9789 8.14545C19.7758 8.26738 19.5506 8.34804 19.3163 8.38286Z" fill="#89FAC7"/>
<path d="M19.3186 8.43985C19.3186 8.43985 19.2746 8.43985 19.1917 8.43985C19.0707 8.449 18.9491 8.44517 18.8289 8.42845C18.7405 8.41984 18.6525 8.40681 18.5654 8.38939C18.4726 8.36335 18.3718 8.33568 18.2644 8.30313C18.157 8.27058 18.0545 8.20712 17.939 8.15179C17.8235 8.09645 17.7194 8.00366 17.6023 7.9174C17.3621 7.70393 17.1811 7.43208 17.0768 7.1281L17.0345 7.00279L17.015 6.93929L17.0053 6.90675L16.9971 6.85144L16.9711 6.6138C16.959 6.52306 16.959 6.43113 16.9711 6.3404C16.9766 6.23813 16.9896 6.13642 17.0101 6.03608C17.0744 5.73098 17.2066 5.44428 17.3971 5.19743C17.5875 4.95059 17.8311 4.74995 18.1098 4.61042C18.2026 4.55352 18.3028 4.5097 18.4076 4.48021L18.5702 4.43301L18.6483 4.41024L18.689 4.39884H18.7085H18.7232C18.7443 4.39884 18.6841 4.39884 18.772 4.39884C18.9664 4.36511 19.1643 4.35692 19.3609 4.37444C19.5919 4.3928 19.8192 4.44375 20.036 4.52579C20.4489 4.69348 20.8028 4.98011 21.0527 5.34929C21.2756 5.7017 21.3888 6.11235 21.3781 6.52921C21.3665 6.71687 21.331 6.90226 21.2723 7.0809C21.2104 7.24435 21.1296 7.40002 21.0316 7.54475C20.9344 7.66278 20.8301 7.77471 20.7192 7.87997C20.6021 7.96623 20.498 8.04275 20.3939 8.1111C20.2898 8.17945 20.1856 8.21362 20.0929 8.26081C20.0002 8.30801 19.9075 8.31941 19.831 8.3487C19.7116 8.38645 19.5891 8.41368 19.465 8.43008C19.3804 8.44472 19.3365 8.45284 19.3365 8.45284L19.3186 8.43985ZM19.3088 8.33241C19.3088 8.33241 19.3495 8.3194 19.4259 8.29336C19.538 8.26565 19.6443 8.21828 19.7399 8.15342C19.8076 8.10932 19.8727 8.06148 19.9351 8.01018L20.1157 7.79697C20.171 7.71397 20.2101 7.61471 20.2589 7.52357C20.3077 7.43243 20.3158 7.31364 20.3451 7.21111C20.3563 7.10298 20.3611 6.9943 20.3597 6.88561C20.3418 6.78959 20.3597 6.73589 20.3239 6.56012C20.2925 6.33765 20.2161 6.12389 20.0994 5.9319C19.9691 5.72966 19.7999 5.55541 19.6016 5.41926C19.499 5.3613 19.3898 5.31593 19.2763 5.28417C19.2047 5.23372 18.9753 5.24999 18.811 5.24186C18.8972 5.24186 18.8338 5.24186 18.8517 5.24186H18.8435H18.8305H18.8061L18.7557 5.25163L18.6548 5.26955C18.5874 5.27948 18.522 5.30035 18.4612 5.33137C18.3333 5.38171 18.2125 5.44845 18.1017 5.52992C17.8906 5.70925 17.7269 5.93788 17.6251 6.19557C17.6007 6.25741 17.5958 6.31435 17.5763 6.37457L17.5519 6.46246C17.5493 6.50147 17.5493 6.54061 17.5519 6.57963V6.81723V6.8433V6.81886V6.8433V6.89213L17.5665 6.98975C17.6077 7.24134 17.7002 7.48178 17.8382 7.69609C17.9163 7.78723 17.9895 7.88486 18.0708 7.9646C18.1521 8.04435 18.2449 8.10619 18.3343 8.15989L18.6011 8.27873C18.6857 8.30315 18.7638 8.31125 18.8419 8.32753C18.9583 8.34628 19.0769 8.34628 19.1933 8.32753C19.2763 8.32753 19.3202 8.31779 19.3202 8.31779L19.3088 8.33241Z" fill="#4FBB8A"/>
<path d="M20.6329 7.46348C19.7008 7.98101 18.6564 7.98263 17.9292 6.92478C17.6744 6.53824 17.5376 6.08583 17.5355 5.6228C17.3946 5.8261 17.2971 6.05623 17.2489 6.29886C17.2007 6.54149 17.203 6.79144 17.2555 7.03317C17.308 7.27489 17.4097 7.50321 17.5542 7.70394C17.6987 7.90467 17.883 8.07352 18.0955 8.19997C18.308 8.32642 18.5443 8.40777 18.7896 8.43896C19.0349 8.47016 19.284 8.4505 19.5214 8.38127C19.7587 8.31204 19.9793 8.19468 20.1695 8.03651C20.3596 7.87833 20.5151 7.68274 20.6264 7.46185L20.6329 7.46348Z" fill="#89FAC7"/>
<path d="M20.6556 7.51082L20.4165 7.65569C20.335 7.70551 20.2489 7.74747 20.1595 7.781C20.0709 7.82395 19.9783 7.85774 19.8829 7.88189L19.5917 7.94701C19.4925 7.96003 19.39 7.95675 19.2891 7.96326C19.1863 7.96669 19.0834 7.9563 18.9833 7.93235C18.8792 7.91982 18.7774 7.89299 18.6807 7.8526C18.5847 7.81192 18.4855 7.77123 18.3895 7.72729L18.1325 7.54666C18.0459 7.48862 17.9681 7.41847 17.9015 7.33834L17.6884 7.10884L17.5257 6.85661C17.468 6.76563 17.4195 6.66913 17.3809 6.56855C17.3319 6.46933 17.2937 6.36508 17.267 6.25768C17.2365 6.15671 17.212 6.05401 17.1938 5.9501L17.1515 5.6376L17.8722 5.83782C17.8396 5.92733 17.7908 6.00054 17.7664 6.09982C17.739 6.18762 17.7215 6.27823 17.7144 6.36996C17.7046 6.46056 17.7079 6.55212 17.7241 6.64178L17.742 6.77524V6.79149L17.7323 6.74429V6.75732L17.7469 6.79964L17.7762 6.88427L17.8364 7.05679C17.8559 7.11701 17.8852 7.12187 17.9047 7.15604C17.9263 7.18243 17.9453 7.21076 17.9617 7.24067C17.987 7.27304 18.0148 7.30351 18.0446 7.33182C18.0723 7.36274 18.0983 7.39527 18.1243 7.42945C18.1504 7.46362 18.1894 7.48152 18.2203 7.50919L18.3114 7.59382C18.3488 7.61498 18.3846 7.63616 18.4188 7.65894C18.452 7.68535 18.4868 7.7098 18.5229 7.73217C18.5603 7.74845 18.5994 7.76311 18.6384 7.78426C18.7133 7.82753 18.7946 7.8588 18.8792 7.877C18.9643 7.90338 19.0522 7.91978 19.1411 7.92583L19.2631 7.94538L19.4453 7.93235C19.5342 7.9281 19.6225 7.91502 19.7088 7.89329C19.8097 7.87042 19.9083 7.83826 20.0033 7.79726C20.2147 7.7038 20.411 7.57928 20.5857 7.42782L20.6556 7.51082ZM20.68 7.48805C20.6563 7.62014 20.6159 7.74868 20.5597 7.87052C20.4993 7.99537 20.424 8.11232 20.3352 8.21878C20.2439 8.33037 20.1383 8.42943 20.0212 8.51336C19.8951 8.60463 19.7585 8.68055 19.6145 8.73956L19.442 8.80306C19.3643 8.82509 19.2848 8.84088 19.2045 8.85026C19.0542 8.88466 18.8992 8.894 18.7458 8.87792C18.5897 8.87462 18.4348 8.84999 18.2854 8.80469C18.2106 8.7819 18.1357 8.75583 18.0625 8.73142C17.9903 8.6992 17.9197 8.66336 17.851 8.62402C17.7827 8.58659 17.716 8.54428 17.6477 8.50359L17.4687 8.34084C17.4118 8.28714 17.3532 8.23343 17.3061 8.1781C17.2589 8.12276 17.2117 8.05279 17.1678 7.98607C17.1219 7.9211 17.0796 7.85374 17.0409 7.78426C17.0051 7.70452 16.9726 7.62152 16.9416 7.54177C16.9096 7.46709 16.884 7.38974 16.8652 7.31064L16.8359 7.13165L16.8213 7.0405L16.8131 6.99655V6.98515L16.8017 6.93147V6.6678C16.8027 6.51634 16.8219 6.36554 16.8587 6.21862C16.8908 6.07284 16.9371 5.93059 16.997 5.79387C17.0617 5.66131 17.134 5.53251 17.2133 5.40815C17.2555 5.33506 17.3205 5.27778 17.3982 5.245C17.476 5.21222 17.5623 5.20575 17.6441 5.22657C17.7258 5.24738 17.7986 5.29433 17.8512 5.36031C17.9038 5.42628 17.9335 5.50769 17.9356 5.59207V5.60832V5.85244C17.9405 5.93163 17.9503 6.01044 17.9649 6.08842C17.9722 6.16347 17.9869 6.23763 18.0088 6.30977C18.0242 6.38676 18.0488 6.4616 18.082 6.53271L18.191 6.75895L18.3326 6.95913C18.3757 7.03039 18.4307 7.09368 18.4952 7.14627L18.6677 7.31879L18.871 7.44737C18.9391 7.49188 19.0138 7.5254 19.0923 7.54666C19.1676 7.58061 19.2477 7.60256 19.3298 7.61174C19.4128 7.61174 19.4925 7.63777 19.582 7.64102L19.8422 7.62477C19.9284 7.61536 20.0138 7.59958 20.0976 7.57757C20.1875 7.56424 20.2754 7.54021 20.3596 7.50597L20.6215 7.41157C20.6282 7.40899 20.6354 7.40778 20.6426 7.40803C20.6498 7.40828 20.6568 7.40996 20.6633 7.413C20.6699 7.41603 20.6757 7.42037 20.6805 7.42571C20.6854 7.43105 20.6891 7.4373 20.6914 7.44411C20.6947 7.45305 20.6947 7.46282 20.6914 7.47176L20.68 7.48805Z" fill="#4FBB8A"/>
<path d="M20.179 6.20715C20.0049 6.34223 19.6909 6.22997 19.4811 5.95818C19.2712 5.68639 19.237 5.35601 19.4111 5.2193C19.5852 5.0826 19.8992 5.19652 20.109 5.46994C20.3189 5.74335 20.3514 6.07207 20.179 6.20715Z" fill="#89FAC7"/>
<path d="M20.2051 6.25424L20.171 6.26727C20.1357 6.28511 20.0978 6.2972 20.0587 6.30307C19.9982 6.31502 19.9366 6.32049 19.8749 6.31936C19.7891 6.32396 19.7031 6.31627 19.6195 6.29656C19.5146 6.27587 19.4156 6.23194 19.3299 6.16798C19.3012 6.15104 19.2754 6.12963 19.2535 6.10453L19.203 6.05569C19.1569 6.01322 19.1169 5.96448 19.0843 5.91087C18.9954 5.78753 18.9394 5.64357 18.9216 5.4926C18.9066 5.38032 18.9189 5.26608 18.9574 5.15955C18.9959 5.05303 19.0595 4.95737 19.1428 4.88067L19.2014 4.84161H19.2095L19.2226 4.82858L19.2535 4.80255C19.3248 4.7646 19.4009 4.73615 19.4796 4.71792C19.5906 4.69281 19.7051 4.68728 19.818 4.70163C19.9955 4.71574 20.1651 4.78137 20.306 4.89044C20.4222 4.98072 20.513 5.09958 20.5695 5.23544L20.5826 5.30382C20.5928 5.34122 20.6004 5.37928 20.6053 5.41774C20.6185 5.4871 20.6185 5.55833 20.6053 5.62769C20.586 5.7423 20.5463 5.85252 20.4882 5.95318C20.451 6.02363 20.4045 6.08876 20.3499 6.14684C20.3211 6.18167 20.2871 6.21187 20.2491 6.23636L20.2117 6.26238L20.2051 6.25424ZM20.145 6.16476C20.1368 6.16476 20.184 6.13381 20.1694 6.05569C20.1571 6.00815 20.1283 5.96658 20.088 5.93852C20.0315 5.89811 19.9673 5.86985 19.8993 5.85552C19.868 5.84586 19.8346 5.84586 19.8033 5.85552C19.792 5.85629 19.7805 5.85629 19.7692 5.85552L19.7106 5.81809C19.6723 5.80476 19.6365 5.78492 19.6049 5.75948C19.5936 5.74899 19.585 5.73606 19.5796 5.72166C19.5743 5.70725 19.5723 5.69181 19.5739 5.67652C19.5739 5.65699 19.5739 5.65211 19.6146 5.63258C19.6553 5.61305 19.6911 5.59351 19.6927 5.58049L19.6569 5.59189H19.639H19.6293H19.6211C19.6455 5.57561 19.5642 5.62932 19.6748 5.55446C19.7252 5.48936 19.6927 5.4519 19.6748 5.48445C19.6531 5.53057 19.6451 5.58204 19.652 5.63258C19.6488 5.66634 19.6556 5.70028 19.6716 5.7302L19.6976 5.79369C19.6846 5.79369 19.6976 5.81973 19.7057 5.83112C19.7279 5.89739 19.7546 5.96208 19.7854 6.02478C19.8136 6.08279 19.8555 6.13305 19.9074 6.17124C19.9448 6.19912 19.9911 6.21242 20.0376 6.20867C20.0679 6.20892 20.0971 6.19724 20.1189 6.17612L20.145 6.16476Z" fill="#4FBB8A"/>
<path d="M15.949 4.27652C15.7212 4.19627 15.4838 4.14649 15.243 4.12843C14.5905 4.08226 13.952 3.91677 13.3591 3.64019C12.878 3.40499 12.4104 3.14309 11.9585 2.85574C11.5697 2.60674 11.1727 2.22265 10.7367 2.06804C10.7026 2.05502 10.8441 2.81343 10.8522 2.85574C10.9608 3.40577 11.2277 3.91205 11.6201 4.31232C11.7307 4.42461 12.061 4.50598 12.0967 4.67361C12.1488 4.92912 11.4721 4.61502 11.3923 4.83636C11.2736 5.16185 11.6461 5.53619 11.8397 5.75101C12.5409 6.52732 13.2697 7.2678 14.3369 7.49077C14.9876 7.62747 15.7587 7.82928 16.2549 7.28733C16.5509 6.96184 16.4484 6.58753 16.5151 6.19694C16.5818 5.80635 16.9414 5.49222 16.9218 5.07722C16.8974 4.59875 16.3215 4.40997 15.949 4.27652Z" fill="#89FAC7"/>
<path d="M15.9358 4.32705C15.9358 4.32705 15.861 4.30587 15.7243 4.26519C15.5278 4.21229 15.3269 4.1769 15.1241 4.15942C14.8021 4.12848 14.4822 4.079 14.1659 4.01129C13.969 3.96938 13.7751 3.91502 13.5851 3.84855C13.4826 3.80949 13.385 3.78345 13.2679 3.73463C13.1508 3.68581 13.0678 3.64026 12.9637 3.59306C12.7571 3.49379 12.5407 3.39286 12.3129 3.28708C12.2007 3.23337 12.0884 3.17966 11.9729 3.12433L11.8867 3.08202L11.8444 3.05925L11.7826 3.02182L11.6199 2.91927C11.3987 2.77931 11.1693 2.61169 10.9562 2.48963C10.8488 2.42454 10.7398 2.39363 10.6308 2.33992C10.966 2.35294 10.7821 2.35941 10.979 2.21945C11.0489 2.0567 11.0083 2.12832 11.0229 2.10065V2.08603V2.12671L11.0392 2.22108L11.0782 2.42614L11.1221 2.63283L11.1449 2.73538V2.75978L11.1612 2.81187C11.1988 2.94895 11.2445 3.08371 11.2978 3.21548C11.3998 3.44826 11.537 3.66397 11.7045 3.85506L11.8379 3.99993L11.8542 4.01781L11.8623 4.02758C11.8493 4.01782 11.8916 4.0569 11.8379 4.00644L11.8818 4.04062C11.9079 4.05201 11.8737 4.02757 11.9193 4.05361C11.9648 4.07965 12.0592 4.12033 12.1503 4.17404C12.2104 4.21397 12.2651 4.26159 12.3129 4.31565C12.3503 4.35339 12.3806 4.39749 12.4024 4.44585C12.4172 4.47409 12.4297 4.50349 12.4398 4.53374L12.4545 4.58091L12.4642 4.67042V4.70622C12.4596 4.80024 12.4286 4.89106 12.3748 4.96826C12.311 5.05306 12.2213 5.11478 12.1194 5.14404C12.0392 5.1678 11.9556 5.17769 11.8721 5.17333L11.6248 5.15703C11.5695 5.15703 11.4979 5.1668 11.5728 5.15703C11.585 5.15285 11.5969 5.14798 11.6085 5.14241C11.6311 5.13077 11.6519 5.11597 11.6704 5.09847C11.6926 5.07938 11.7123 5.05748 11.7289 5.03335L11.7517 4.99103C11.7624 4.96238 11.7711 4.93305 11.7777 4.90318L11.7615 5.01547C11.7729 5.01547 11.7826 4.98291 11.7777 4.96663C11.7729 4.95036 11.7891 4.98452 11.7924 4.99266C11.8128 5.03255 11.8373 5.07022 11.8656 5.10498C11.9484 5.20705 12.0369 5.30428 12.1307 5.39627L12.448 5.72176C12.5537 5.81615 12.6546 5.91868 12.7619 6.00657C13.1393 6.35516 13.5777 6.63103 14.0553 6.8203C14.1642 6.8675 14.2781 6.88705 14.3887 6.92448C14.4994 6.96191 14.649 6.9847 14.7776 7.014C14.9905 7.06733 15.2088 7.09677 15.4283 7.10185C15.5767 7.11278 15.7246 7.07509 15.8496 6.99445L15.874 6.97979H15.887C15.8333 7.04652 15.8756 6.99609 15.8643 7.00911L15.9261 6.94073C15.9863 6.88052 15.957 6.9017 15.9798 6.88868C16.0228 6.82502 16.0516 6.75287 16.0644 6.6771C16.1001 6.44255 16.1583 6.21201 16.2384 5.98869C16.3374 5.79486 16.4551 5.61115 16.5898 5.44021C16.6736 5.32793 16.7238 5.19421 16.7346 5.05452L16.7216 4.93898C16.7099 4.91738 16.6996 4.89507 16.6907 4.87223C16.6642 4.8201 16.6315 4.77147 16.5931 4.7274C16.4476 4.59375 16.2781 4.48881 16.0936 4.41816L15.8919 4.33516L15.9358 4.32705ZM15.9651 4.2245C15.9651 4.2245 16.0383 4.24731 16.175 4.29288C16.3825 4.35487 16.5798 4.44698 16.7606 4.56628C16.8265 4.61711 16.8851 4.67678 16.9347 4.74365C16.9607 4.78434 16.9867 4.82992 17.0111 4.87549L17.0453 4.9894C17.0871 5.19561 17.0673 5.40955 16.9884 5.60459C16.9197 5.77109 16.8653 5.94316 16.8257 6.11889C16.816 6.32319 16.8241 6.52795 16.8501 6.73082C16.8581 6.88917 16.8388 7.04769 16.7932 7.19951C16.7603 7.28976 16.7195 7.37692 16.6711 7.45992L16.6223 7.53804C16.6093 7.55431 16.65 7.50874 16.5914 7.5771L16.58 7.5885L16.5573 7.6129L16.5117 7.65847C16.2623 7.92632 15.9253 8.09603 15.5617 8.13693C15.2441 8.17176 14.923 8.15693 14.61 8.09299C14.4571 8.06858 14.3367 8.04742 14.1854 8.00999C14.0341 7.97256 13.86 7.93026 13.6974 7.86842C13.0837 7.61438 12.5354 7.22495 12.0933 6.72919C11.9795 6.61527 11.8802 6.49318 11.768 6.37438L11.4703 6.02286C11.3557 5.8936 11.2503 5.75656 11.1547 5.61273C11.0958 5.52272 11.0468 5.4267 11.0083 5.3263C10.9838 5.26474 10.9652 5.20099 10.9529 5.1359C10.9417 5.04456 10.9417 4.9522 10.9529 4.86086L10.9757 4.74854C11.0164 4.60369 10.9969 4.68834 11.0099 4.64766C11.0208 4.62455 11.0333 4.60223 11.0473 4.58091C11.0722 4.53934 11.1035 4.50199 11.14 4.47025C11.1741 4.44144 11.2112 4.41635 11.2506 4.39539C11.2783 4.37987 11.3078 4.36785 11.3385 4.35959C11.4686 4.32258 11.6054 4.31533 11.7387 4.33841L11.9469 4.36611C11.9599 4.36611 11.9876 4.36608 11.9241 4.3791C11.8585 4.40092 11.8015 4.44311 11.7615 4.49953C11.7147 4.55911 11.6915 4.63387 11.6964 4.70948V4.6802L11.7045 4.75017V4.76972C11.707 4.78302 11.7119 4.79572 11.7192 4.80715L11.7452 4.84457C11.768 4.86085 11.7452 4.84457 11.7452 4.84457C11.7078 4.81853 11.659 4.78922 11.5825 4.74365C11.5259 4.71348 11.4715 4.67923 11.4198 4.64114L11.3775 4.60534C11.319 4.55163 11.358 4.58582 11.3434 4.5728L11.3336 4.5614L11.3141 4.53537L11.1514 4.33679C10.9398 4.06725 10.7748 3.76414 10.6634 3.44005C10.6163 3.29748 10.5772 3.15242 10.5462 3.00553L10.5332 2.95344C10.528 2.93586 10.5242 2.91793 10.5218 2.89976V2.87207L10.5056 2.76304L10.4747 2.54657L10.447 2.32689L10.4356 2.21297V2.14785V2.10065V2.05348C10.4486 2.02256 10.408 2.08928 10.4795 1.92165C10.6764 1.78006 10.4958 1.78331 10.8374 1.7947C10.9809 1.86218 11.1205 1.93769 11.2555 2.0209C11.5109 2.18365 11.7029 2.3578 11.9062 2.51892L12.0689 2.63772L12.0868 2.65401H12.0966L12.0836 2.64587L12.1242 2.67189L12.204 2.72235L12.5212 2.92741C12.7262 3.06412 12.9263 3.19431 13.1182 3.32125L13.3931 3.50029C13.4729 3.54911 13.5753 3.59632 13.6632 3.64189C13.8359 3.7301 14.0154 3.8041 14.2 3.86321C14.3725 3.92668 14.5417 3.95598 14.6881 3.99667C14.8345 4.03736 14.9923 4.04385 15.1241 4.06501C15.3316 4.08488 15.5376 4.11861 15.7406 4.16593C15.8789 4.20174 15.9521 4.21961 15.9521 4.21961L15.9651 4.2245Z" fill="#4FBB8A"/>
<path d="M6.98352 19.2623L6.7151 20.0093L6.406 20.8686C6.2905 21.1941 6.13921 21.5749 6.02371 21.9866L5.61538 23.3146C5.4527 23.7817 5.34371 24.2911 5.22007 24.8152C5.09643 25.3392 4.93375 25.8746 4.86217 26.4426L4.5905 28.1368L4.45872 29.8489C4.42175 30.402 4.41469 30.9567 4.43758 31.5106C4.4298 32.03 4.45152 32.5494 4.50265 33.0664L4.64093 34.4579C4.67874 34.8503 4.73738 35.2403 4.81662 35.6264L4.9793 36.5248L5.11921 37.3092L4.95653 36.5297L4.76619 35.6378C4.67394 35.2533 4.60118 34.8644 4.5482 34.4726L4.36112 33.0794C4.29214 32.5619 4.25249 32.0408 4.24236 31.5187C4.19897 30.96 4.18594 30.3993 4.20332 29.8392L4.27815 28.1043L4.49451 26.3808C4.54657 25.8079 4.70275 25.2627 4.79873 24.7256C4.89471 24.1886 5.0037 23.6711 5.14686 23.191C5.29002 22.7109 5.40227 22.2487 5.51452 21.8255C5.62677 21.4024 5.75691 21.0281 5.86103 20.6863L6.14084 19.8172L6.38323 19.0588L6.98352 19.2623Z" fill="#4FBB8A"/>
<path d="M10.8981 18.9446L10.2392 21.0343C9.75283 22.5582 9.35523 24.1091 9.0484 25.6791C8.72304 27.3928 8.62706 29.1472 8.80763 30.4476C8.83638 30.7442 8.88585 31.0384 8.95567 31.328C8.99452 31.5539 9.04888 31.7769 9.11835 31.9953L9.3038 32.5682L9.09232 32.005C9.01 31.7891 8.9426 31.5678 8.8906 31.3427C8.80717 31.0534 8.74411 30.7587 8.70189 30.4606C8.57926 29.7173 8.52156 28.9647 8.52945 28.2114C8.54372 27.3474 8.6089 26.485 8.72466 25.6286C8.96237 24.0301 9.29207 22.4467 9.71213 20.8862L10.275 18.7705L10.8981 18.9446Z" fill="#4FBB8A"/>
<path d="M15.8337 18.9611C15.8337 18.9611 15.6385 19.6121 15.305 20.5544C14.9715 21.4967 14.5307 22.7547 14.2004 24.0404C13.8702 25.3261 13.6717 26.6444 13.74 27.642C13.7538 28.0436 13.8111 28.4425 13.9109 28.8317L14.0361 29.2727L13.8848 28.8398C13.76 28.4528 13.6776 28.0533 13.6392 27.6485C13.5107 26.646 13.6262 25.2887 13.8865 23.9688C14.1467 22.6489 14.5177 21.3649 14.7877 20.3884C15.0578 19.4119 15.2172 18.7837 15.2172 18.7837L15.8337 18.9611Z" fill="#4FBB8A"/>
<path d="M20.7627 18.5513L20.6602 18.9338C20.5886 19.1844 20.478 19.5359 20.343 19.9444C20.0729 20.7582 19.6923 21.8437 19.4092 22.9471C19.1261 24.0505 18.9358 25.1832 18.9944 26.0393C19.0003 26.2338 19.0215 26.4275 19.0578 26.6187C19.0786 26.7671 19.1118 26.9136 19.157 27.0565L19.2823 27.4292L19.131 27.0646C19.0748 26.9239 19.0312 26.7785 19.0009 26.6301C18.9498 26.4391 18.9145 26.2442 18.8951 26.0474C18.7747 25.1833 18.8837 24.0147 19.0969 22.8804C19.31 21.7461 19.6125 20.6264 19.824 19.7882C19.9314 19.37 20.0111 19.0298 20.0632 18.7938L20.138 18.4065L20.7627 18.5513Z" fill="#4FBB8A"/>
<path d="M23.8291 18.667L22.7115 23.9758V23.9856L22.3585 25.1719C22.3048 25.3721 22.2511 25.5707 22.2121 25.7725C22.2017 25.8206 22.1967 25.8697 22.1974 25.919C22.1844 25.9776 22.2316 25.9092 22.2576 25.8734C22.3134 25.7865 22.364 25.6963 22.4089 25.6033C22.3705 25.6999 22.3271 25.7944 22.2788 25.8864C22.2668 25.9107 22.2515 25.9332 22.2332 25.9531C22.2332 25.9645 22.2007 25.9792 22.1828 25.9727C22.169 25.9606 22.1603 25.9437 22.1584 25.9255C22.1525 25.8714 22.1525 25.8168 22.1584 25.7627C22.1795 25.5561 22.2169 25.351 22.256 25.1476L22.5114 23.9318V23.9416L23.1963 18.5596L23.8291 18.667Z" fill="#4FBB8A"/>
<path d="M55.0393 38.8736L51.7857 48.3569L48.9095 57.9589L51.379 48.2283L54.2259 38.6067L55.0393 38.8736Z" fill="#4FBB8A"/>
<path d="M51.379 32.2102L47.1136 43.2607L43.2548 54.4479L46.7134 43.1109L50.577 31.9124L51.379 32.2102Z" fill="#4FBB8A"/>
<path d="M39.2596 8.73409L37.6328 12.1192C37.1448 13.1364 36.5689 14.318 36.006 15.6004L34.184 19.6121L32.5344 23.6954C32.2823 24.3464 31.9878 24.9681 31.8008 25.5849L31.2281 27.3084L30.0454 30.8709L31.098 27.2612L31.6137 25.5198C31.7764 24.8932 32.0513 24.2683 32.279 23.601L33.7855 19.4493L35.4676 15.3628C35.9963 14.0608 36.5282 12.8532 36.9789 11.8198L38.4804 8.38257L39.2596 8.73409Z" fill="#4FBB8A"/>
<path d="M41.0185 43.3729C41.8238 38.7704 40.4231 34.2721 39.0663 29.9187C38.3603 27.6516 37.6705 25.378 37.2947 23.028C36.9222 20.7104 37.1532 18.5247 37.4574 16.2202C37.7258 14.155 37.8462 12.0572 37.1923 10.0522C36.6066 8.26195 35.1734 6.91766 33.4945 6.14625C30.267 4.67339 26.2536 5.02492 22.8309 5.409C21.7881 5.52618 20.7502 5.67755 19.7123 5.83378C18.8989 5.95422 19.086 7.21876 19.901 7.09833C23.3644 6.58242 26.9125 6.10069 30.4052 6.61009C32.2207 6.87537 33.9614 7.51495 35.1588 8.96177C36.5952 10.6934 36.4976 13.1704 36.2812 15.2731C36.0535 17.4897 35.681 19.607 35.8664 21.848C36.0567 24.1265 36.6717 26.3512 37.3191 28.5321C38.6564 33.0336 40.4361 37.5986 39.8814 42.3801C39.8488 42.6584 39.8 42.9351 39.7528 43.2118C39.6097 44.0255 40.8802 44.1752 41.0217 43.3664L41.0185 43.3729Z" fill="#89FAC7"/>
<path d="M40.9642 43.3738L41.1073 42.1646C41.1397 41.9456 41.1603 41.725 41.1692 41.5038L41.1789 40.7096C41.1789 40.4232 41.2017 40.1156 41.1789 39.7868L41.0976 38.7404C41.0797 38.5565 41.0748 38.3677 41.0471 38.174L40.956 37.5816C40.8877 37.1796 40.8454 36.7516 40.7462 36.3171L40.4436 34.9582L40.0548 33.5129C39.4984 31.5258 38.7208 29.332 38.0018 26.8859C37.8179 26.2756 37.6764 25.6393 37.4975 24.9981C37.3185 24.3568 37.2193 23.6961 37.0843 23.0028C36.9724 22.307 36.9061 21.6045 36.8858 20.9001C36.8549 20.184 36.8858 19.4582 36.9297 18.7242C36.9736 17.9902 37.055 17.2594 37.1477 16.5092L37.2762 15.3911C37.3055 15.0201 37.3445 14.6474 37.3576 14.2714C37.4047 13.5159 37.3835 12.7577 37.2941 12.006C37.2616 11.6284 37.1737 11.2574 37.1038 10.8814L36.9411 10.3329L36.9021 10.1946L36.8923 10.1604V10.1442L36.863 10.0758L36.7524 9.79914L36.6401 9.52247L36.5051 9.28324C36.422 9.11736 36.3258 8.95845 36.2172 8.80803C36.0009 8.49436 35.7582 8.19977 35.4916 7.92755C34.9373 7.38214 34.297 6.93182 33.5964 6.59466C32.1681 5.89648 30.5787 5.59215 28.9421 5.49775C27.2848 5.43344 25.6251 5.50201 23.9788 5.70282C23.5655 5.74838 23.1361 5.79394 22.7326 5.84764L21.4767 6.02668L20.2192 6.20572L19.9036 6.24962L19.8255 6.26103H19.7865C19.7295 6.27242 19.8223 6.26103 19.7979 6.26103L19.7214 6.28057C19.6921 6.28057 19.6661 6.2952 19.6791 6.29682C19.6921 6.29845 19.658 6.31472 19.6498 6.33425C19.6319 6.36319 19.6219 6.39629 19.6206 6.43029C19.6161 6.46904 19.6204 6.50827 19.6331 6.54516C19.6457 6.58204 19.6665 6.61565 19.6938 6.6435C19.7112 6.66087 19.7343 6.67127 19.7588 6.67278C19.7753 6.67781 19.7928 6.67781 19.8093 6.67278C19.8497 6.67274 19.8901 6.66837 19.9296 6.65975L21.1839 6.46772L22.4479 6.28868L23.7168 6.12593C25.4115 5.92261 27.1202 5.86221 28.825 5.94531C29.2512 5.94531 29.6742 6.02342 30.0988 6.05922L30.416 6.09339C30.551 6.10641 30.6291 6.12595 30.7414 6.14222C30.948 6.17966 31.1432 6.2008 31.3644 6.25614C32.2291 6.42816 33.0618 6.73401 33.8323 7.16265C34.6018 7.60454 35.2737 8.19806 35.8072 8.90729C36.3174 9.63716 36.6601 10.4707 36.811 11.3485C37.1054 13.0362 36.9086 14.6604 36.7312 16.1723L36.4775 18.4166C36.4368 18.786 36.4222 19.1457 36.3929 19.5054C36.3579 19.8606 36.3437 20.2176 36.3506 20.5746L36.3668 21.6243V21.7561C36.3668 21.7675 36.3668 21.8196 36.3668 21.7984L36.375 21.8652L36.4059 22.1321L36.4661 22.661C36.5116 23.0093 36.5279 23.3706 36.5946 23.6994L36.7768 24.6905C36.8305 25.0159 36.9053 25.3414 36.985 25.6669L37.2079 26.632C37.3706 27.2683 37.5333 27.8949 37.6959 28.5052C38.3662 30.9464 39.0576 33.1858 39.4854 35.2218C39.8801 36.9738 40.0803 38.764 40.0825 40.5599C40.0675 41.2239 40.0175 41.8866 39.9328 42.5454C39.8905 42.8269 39.8336 43.0955 39.8124 43.3282C39.8076 43.4256 39.8332 43.5222 39.8857 43.6044C39.9382 43.6866 40.0149 43.7505 40.1052 43.7872C40.2302 43.8463 40.3712 43.8624 40.5063 43.8329C40.6413 43.8035 40.7629 43.7302 40.8519 43.6244C40.9068 43.5466 40.9455 43.4586 40.9658 43.3656L40.9642 43.3738ZM41.0716 43.3901C41.0478 43.4999 41.0037 43.6042 40.9414 43.6976C40.8379 43.827 40.6945 43.9186 40.5335 43.958C40.3726 43.9975 40.2032 43.9826 40.0515 43.9157C39.9351 43.8693 39.8359 43.7878 39.7677 43.6826C39.6995 43.5773 39.6657 43.4535 39.6709 43.3282C39.6888 43.0743 39.7408 42.8204 39.7782 42.5324C39.8157 42.2443 39.8287 41.94 39.8596 41.6145C39.8905 41.289 39.8759 40.9375 39.8807 40.5697C39.8619 39.7559 39.7946 38.944 39.679 38.1382C39.5294 37.1912 39.3312 36.2526 39.0852 35.326C38.5679 33.3372 37.7838 31.1515 36.985 28.7282C36.5978 27.5076 36.1895 26.248 35.8788 24.8793L35.6511 23.8393C35.5697 23.4861 35.5421 23.1427 35.4884 22.7928L35.4152 22.2639L35.3777 21.9986L35.368 21.9335C35.368 21.8684 35.368 21.8749 35.368 21.844V21.7041L35.3241 20.5844C35.3105 20.2094 35.3181 19.8339 35.3468 19.4598C35.3696 19.0838 35.3729 18.6998 35.4135 18.3206L35.6543 16.0567C35.8284 14.5432 35.9797 13.0118 35.7177 11.5568C35.6023 10.8485 35.3366 10.1732 34.9385 9.57619C34.5013 8.98247 33.9478 8.48409 33.3117 8.11147C32.6448 7.73393 31.9247 7.45958 31.1757 7.29774C30.9968 7.24729 30.7804 7.218 30.5787 7.17894C30.4843 7.16266 30.3607 7.13499 30.2891 7.12848L29.9882 7.09268C29.5863 7.05362 29.1861 6.97875 28.7778 6.96736C27.1289 6.86224 25.474 6.89597 23.8307 7.06824L22.583 7.20171L21.3319 7.36445L20.0744 7.5386C20.024 7.5386 19.9768 7.55323 19.8792 7.55648C19.7905 7.56464 19.7011 7.55917 19.614 7.54023C19.4312 7.50389 19.2621 7.41707 19.126 7.2896C19.0008 7.16927 18.9051 7.0216 18.8464 6.85813C18.7877 6.69467 18.7676 6.51982 18.7876 6.34729C18.8043 6.15989 18.873 5.98088 18.9859 5.83048C19.0989 5.68007 19.2517 5.56427 19.427 5.49612C19.4618 5.48157 19.4977 5.46961 19.5343 5.46032L19.6124 5.4424C19.6418 5.43497 19.6717 5.42956 19.7019 5.42615H19.7409L19.819 5.41638L20.1346 5.37569L21.3921 5.21295L22.6513 5.0502C23.0856 4.99649 23.4972 4.95905 23.9234 4.91837C25.6129 4.73183 27.3146 4.68177 29.0121 4.76865C29.8608 4.82223 30.7036 4.9458 31.532 5.13809C31.9479 5.23507 32.358 5.3557 32.7602 5.49938C32.9599 5.56479 33.1559 5.64083 33.3475 5.72721L33.6306 5.84601C33.7461 5.90135 33.8258 5.94532 33.9266 5.99577C34.6873 6.37452 35.3808 6.87533 35.9797 7.47837C36.2718 7.78357 36.5368 8.11357 36.7719 8.46462C36.8949 8.64009 37.0037 8.82511 37.0973 9.01794L37.2486 9.30275L37.3559 9.58108L37.4649 9.85774L37.4926 9.92608L37.5121 9.9798L37.5219 10.0172L37.5625 10.1653L37.7252 10.7561C37.7968 11.1548 37.8879 11.5519 37.9156 11.9506C37.9978 12.7357 38.0103 13.5265 37.953 14.3137C37.8635 15.8761 37.5739 17.3311 37.4568 18.7746C37.4015 19.494 37.3559 20.2035 37.3706 20.9017C37.3773 21.5905 37.4284 22.2782 37.5235 22.9605C37.6406 23.6196 37.7529 24.2868 37.8846 24.9297C38.0164 25.5725 38.1677 26.2024 38.3353 26.8127C38.986 29.2653 39.7148 31.4819 40.237 33.4853C40.7123 35.2079 41.0458 36.9666 41.2342 38.7436L41.3156 39.795C41.34 40.1205 41.3156 40.4362 41.3156 40.7259L41.3042 41.5282C41.2943 41.7499 41.2731 41.971 41.2407 42.1906L41.0992 43.3998L41.0716 43.3901Z" fill="#4FBB8A"/>
</g>
</svg>
