<svg width="59" height="37" viewBox="0 0 59 37" fill="none" xmlns="http://www.w3.org/2000/svg">
<g opacity="0.8">
<path d="M23.9591 20.7809L24.3417 20.836C24.2927 21.295 24.882 21.9942 25.0887 22.4287C25.381 23.0407 25.6596 23.6603 25.9718 24.2647C26.4892 25.2607 27.1137 26.2078 27.6402 27.1961C28.2142 28.2768 28.8799 29.3061 29.63 30.2729C29.6836 30.3418 28.9963 30.3739 28.9014 30.3663C28.4563 30.3309 28.0164 30.2468 27.5897 30.1154C27.0019 29.9226 26.5045 29.5034 26.307 30.2928C26.154 30.9339 26.3591 31.6882 26.6759 32.2497C26.6193 32.1487 25.5647 31.8335 25.3672 31.6851C22.6856 29.6671 21.9371 25.2592 21.5636 22.1548C21.4841 21.4923 21.4106 21.269 22.0489 20.9461C22.6657 20.6386 23.304 20.6906 23.9591 20.7809Z" fill="#89FAC7"/>
<path d="M23.9651 20.7381L24.3477 20.7947C24.3575 20.7965 24.3663 20.8016 24.3727 20.8091C24.3791 20.8166 24.3827 20.8261 24.3829 20.836C24.3829 21.1619 24.5651 21.4756 24.7411 21.7647L25.0166 22.2038C25.1054 22.3568 25.1834 22.5098 25.2615 22.6628L25.7345 23.5808C25.8828 23.8914 26.0479 24.1938 26.2288 24.4866L28.3947 28.0178C28.5647 28.3166 28.7513 28.6057 28.9533 28.8838L29.5656 29.7054L29.7187 29.9104L29.7952 30.0129L29.8319 30.0634L29.8503 30.0894C29.8671 30.1185 29.8151 30.0297 29.887 30.1552C29.8959 30.1789 29.9021 30.2035 29.9054 30.2286C29.9096 30.2813 29.8996 30.3342 29.8763 30.3816C29.8586 30.4167 29.8335 30.4475 29.8028 30.4719C29.7694 30.4985 29.7316 30.5192 29.6911 30.5331L29.636 30.5499L29.5518 30.5668L29.4079 30.5882C29.3146 30.5989 29.2258 30.6065 29.1355 30.6127C29.0336 30.6218 28.9312 30.6218 28.8294 30.6127L28.5722 30.5821C28.3961 30.5675 28.2212 30.5409 28.0487 30.5025L27.4962 30.3725C27.4181 30.348 27.3248 30.3143 27.2375 30.2791L27.0018 30.1873C26.9151 30.1434 26.8188 30.1218 26.7217 30.1246C26.6813 30.183 26.6537 30.2492 26.6406 30.3189V30.3434C26.6406 30.3342 26.6406 30.3663 26.6406 30.3235V30.3357V30.3526L26.6314 30.4153L26.61 30.5438C26.61 30.6218 26.61 30.6769 26.61 30.7442C26.61 30.8116 26.6222 30.8972 26.6268 30.9646L26.6681 31.1895C26.7388 31.4909 26.8549 31.7798 27.0125 32.0463L26.3819 32.4028C26.4002 32.4396 26.4276 32.4712 26.4615 32.4946L26.437 32.4823L26.3482 32.4456L26.134 32.366L25.6748 32.213L25.4375 32.1212C25.3931 32.1042 25.3497 32.0848 25.3074 32.0631C25.2431 32.0343 25.1824 31.9978 25.1268 31.9545L24.7533 31.6485C24.6217 31.539 24.497 31.4215 24.3799 31.2966C24.2524 31.1784 24.1337 31.051 24.0248 30.9156C23.9191 30.784 23.8059 30.657 23.7049 30.5209L23.4202 30.1032C23.3207 29.9655 23.2457 29.8171 23.16 29.6733C23.0742 29.5294 22.9885 29.3841 22.9197 29.2326L22.7008 28.7828L22.5125 28.3238C22.3809 28.0178 22.2906 27.7026 22.185 27.3905C22.0793 27.0784 21.9952 26.7601 21.9278 26.4419C21.8605 26.1237 21.7839 25.8039 21.7288 25.4841C21.6737 25.1644 21.6217 24.8431 21.5865 24.5202C21.51 23.8761 21.4625 23.232 21.4196 22.5894C21.4059 22.262 21.3737 21.9621 21.3768 21.6087C21.3755 21.5102 21.3947 21.4126 21.4332 21.322C21.4716 21.2314 21.5285 21.1498 21.6003 21.0824C21.7354 20.9711 21.8866 20.8808 22.0487 20.8146C22.1253 20.7855 22.2018 20.7565 22.2753 20.7305L22.5232 20.6693C22.6857 20.6421 22.8499 20.6262 23.0146 20.6218C23.3341 20.6334 23.6521 20.6723 23.9651 20.7381ZM23.9543 20.8238C23.6404 20.7816 23.3234 20.7668 23.0069 20.7794L22.7727 20.8054L22.5462 20.8559L22.3334 20.9278C22.2615 20.9584 22.1804 20.9967 22.1161 21.0303C22.0518 21.064 21.989 21.1084 21.9263 21.1451C21.8716 21.1878 21.8204 21.2349 21.7732 21.2858C21.7326 21.3334 21.7031 21.3893 21.6867 21.4496C21.6703 21.5099 21.6674 21.5731 21.6783 21.6347C21.7074 21.9193 21.7901 22.2467 21.8452 22.5603C21.9707 23.1861 22.0977 23.8103 22.2538 24.4239C22.3288 24.7299 22.4069 25.0358 22.485 25.3418C22.563 25.6478 22.638 25.9538 22.736 26.2491C22.8339 26.5444 22.9227 26.8458 23.0146 27.1426C23.1064 27.4395 23.2197 27.7302 23.3406 28.0132L23.5181 28.4416L23.714 28.8578C23.7737 29.0001 23.8518 29.1301 23.9237 29.2663C23.9957 29.4024 24.063 29.5371 24.1503 29.661L24.3952 30.0435L24.6661 30.4046C24.7528 30.5225 24.8474 30.6344 24.9492 30.7397C25.0433 30.8536 25.1456 30.9605 25.2554 31.0594L25.6151 31.3777C25.5952 31.3624 25.6151 31.3777 25.6411 31.3914L25.7283 31.4343L25.9365 31.523L26.3804 31.699L26.613 31.7954C26.6559 31.8152 26.6911 31.829 26.7416 31.855C26.7661 31.8688 26.7845 31.8764 26.8227 31.9009L26.8748 31.9346C26.9228 31.9718 26.9638 32.0174 26.9957 32.0692C27.0241 32.1094 27.0441 32.155 27.0543 32.2031C27.0645 32.2513 27.0647 32.301 27.055 32.3492C27.0453 32.3975 27.0258 32.4432 26.9977 32.4837C26.9696 32.5241 26.9336 32.5584 26.8918 32.5844C26.85 32.6104 26.8033 32.6276 26.7546 32.6349C26.7059 32.6423 26.6562 32.6396 26.6086 32.627C26.561 32.6144 26.5165 32.5922 26.4778 32.5618C26.439 32.5314 26.4069 32.4934 26.3834 32.4502L26.3727 32.4318C26.1913 32.096 26.0608 31.735 25.9855 31.3608C25.9717 31.2644 25.9549 31.1696 25.9441 31.0732C25.9334 30.9768 25.9304 30.8789 25.9304 30.7764C25.9304 30.6739 25.9411 30.5545 25.9549 30.4612L25.9794 30.3342L25.9916 30.2699L26.0023 30.2164L26.0146 30.1766C26.0416 30.0624 26.0838 29.9523 26.1401 29.8492C26.2199 29.7113 26.3455 29.6057 26.4952 29.5509C26.6337 29.5048 26.7826 29.5001 26.9237 29.5371C27.0249 29.5612 27.1237 29.5939 27.2192 29.635L27.461 29.7375C27.536 29.7696 27.6018 29.7972 27.6891 29.8278L28.1482 29.9502C28.3117 29.9923 28.4779 30.023 28.6457 30.042L28.9013 30.0802C28.9705 30.0871 29.0402 30.0871 29.1095 30.0802C29.1921 30.0802 29.2748 30.0802 29.3528 30.0649L29.4661 30.0542L29.5105 30.0466C29.4911 30.0551 29.473 30.0665 29.4569 30.0802C29.4306 30.1014 29.4092 30.128 29.3942 30.1583C29.3695 30.2052 29.3604 30.2588 29.3681 30.3113C29.3804 30.3786 29.3926 30.3908 29.385 30.3786C29.4569 30.5025 29.4033 30.4122 29.4186 30.4382V30.4306L29.4003 30.4031L29.3635 30.3495L29.2885 30.2409L29.1355 30.0236L28.5401 29.1546C28.3288 28.8715 28.1819 28.5609 28.0028 28.2641L27.4962 27.3599L27.0018 26.4419C26.6712 25.8299 26.3574 25.2179 26.0375 24.6059C25.8722 24.2999 25.7406 23.974 25.5952 23.6634L25.1697 22.7179C25.0312 22.4031 24.8663 22.1007 24.6768 21.8137C24.51 21.5153 24.2987 21.2139 24.3003 20.836L24.3355 20.8804L23.9543 20.8238Z" fill="#4FBB8A"/>
<path d="M21.066 21.3576C20.5211 21.7508 20.1859 23.3849 18.7349 25.0939C16.0655 28.238 12.8282 28.2441 12.3063 27.955C13.7466 28.7444 16.768 29.0259 18.3231 28.3895C18.1961 29.2095 17.3849 29.8047 16.8247 30.3601C21.3339 31.0547 23.9527 25.3693 23.6221 21.6652C23.3941 21.2873 21.8696 21.1572 21.4961 21.2062C21.342 21.2186 21.1938 21.2708 21.066 21.3576Z" fill="#89FAC7"/>
<path d="M21.0891 21.3913C20.9105 21.5533 20.7655 21.7487 20.6621 21.9666C20.5473 22.1807 20.4371 22.4011 20.3315 22.6229C20.2258 22.8448 20.1141 23.0651 20.0008 23.2823C19.8876 23.4996 19.7682 23.7184 19.6427 23.9311C19.5172 24.1437 19.3825 24.3533 19.2432 24.5568C19.1039 24.7603 18.9554 24.9546 18.7962 25.1551L18.3218 25.7181L17.7891 26.249C17.5993 26.4096 17.4156 26.5825 17.2167 26.734C17.0177 26.8855 16.8187 27.04 16.6044 27.1639L16.283 27.3628C16.1743 27.4256 16.061 27.4806 15.9493 27.5403C15.7289 27.6658 15.4901 27.7545 15.262 27.8601C15.034 27.9656 14.7876 28.0345 14.5396 28.0957C14.2947 28.1629 14.0457 28.214 13.7942 28.2487C13.5412 28.2907 13.2853 28.3122 13.0289 28.313C12.8955 28.3159 12.762 28.3098 12.6294 28.2946C12.4758 28.2793 12.3255 28.2401 12.184 28.1783L12.4319 27.7193C12.5437 27.7683 12.6462 27.8249 12.761 27.8723C12.8758 27.9197 12.986 27.9656 13.1054 27.9993C13.3406 28.0763 13.5797 28.1406 13.8217 28.1921C14.3102 28.298 14.806 28.3666 15.3049 28.3971C15.5544 28.4109 15.8039 28.4201 16.0519 28.417C16.1774 28.417 16.2998 28.4093 16.4253 28.4048C16.5508 28.4002 16.6717 28.3849 16.7942 28.3772C16.9166 28.3696 17.0376 28.3466 17.16 28.3313C17.2825 28.316 17.3988 28.2869 17.5182 28.2655C17.6376 28.2441 17.7493 28.2059 17.8641 28.1768C17.9789 28.1477 18.083 28.0988 18.1932 28.059L18.236 28.0452C18.2774 28.0308 18.3213 28.0246 18.3651 28.0272C18.4088 28.0298 18.4517 28.041 18.4911 28.0602C18.5305 28.0794 18.5657 28.1062 18.5947 28.1391C18.6237 28.172 18.6459 28.2103 18.66 28.2518C18.6802 28.3114 18.6839 28.3753 18.6707 28.4369C18.6401 28.5608 18.611 28.6878 18.5743 28.8117C18.5376 28.9357 18.4763 29.0412 18.4212 29.1514C18.3661 29.2615 18.2942 29.3549 18.2269 29.4574L18.008 29.7282C17.8559 29.8965 17.7029 30.0546 17.5488 30.2025C17.3957 30.3555 17.2427 30.4947 17.1064 30.6355L16.8891 29.9699L17.2503 30.0021C17.3682 30.0021 17.4876 30.0021 17.6085 30.0021C17.7294 30.0021 17.8442 29.9837 17.9636 29.9761C18.083 29.9684 18.1978 29.9378 18.3141 29.9194C18.4304 29.9011 18.5437 29.8613 18.6585 29.8353C18.7733 29.8093 18.882 29.7603 18.9937 29.7236L19.3212 29.5828L19.6274 29.4145L19.9335 29.2218C20.0315 29.1499 20.1294 29.081 20.2243 29.0076C20.4135 28.8568 20.5944 28.6959 20.7662 28.5256C20.936 28.3527 21.1014 28.1707 21.259 27.9809C21.4167 27.7912 21.5651 27.5908 21.6983 27.3842C21.8315 27.1777 21.9677 26.9681 22.0932 26.7508C22.2187 26.5336 22.3289 26.3102 22.4406 26.0853C22.6592 25.6291 22.8499 25.1601 23.0116 24.6808C23.1725 24.1971 23.2968 23.702 23.3835 23.1997C23.4264 22.9488 23.457 22.6948 23.4799 22.4347C23.5029 22.1746 23.5014 21.9222 23.4952 21.6697L23.5136 21.7248C23.5031 21.7117 23.4933 21.6979 23.4845 21.6835C23.4708 21.6697 23.4524 21.656 23.4355 21.6422C23.3972 21.6122 23.3556 21.5865 23.3116 21.5657C23.2157 21.5202 23.1164 21.4824 23.0146 21.4525C22.8044 21.3894 22.5901 21.3409 22.3733 21.3071C22.1543 21.2733 21.9335 21.2523 21.7121 21.2444C21.6585 21.2444 21.6034 21.2444 21.5498 21.2444H21.51C21.4983 21.2431 21.4865 21.2431 21.4748 21.2444L21.3922 21.2612C21.3391 21.268 21.2875 21.2829 21.2391 21.3056L21.1014 21.3744L21.0891 21.3913ZM21.0355 21.3224L21.1886 21.2352C21.2396 21.2092 21.2943 21.1911 21.3508 21.1817L21.432 21.1618C21.4475 21.1566 21.4633 21.1525 21.4794 21.1495H21.5223C21.582 21.1495 21.6371 21.1495 21.6952 21.1419C21.9211 21.1411 22.1469 21.1518 22.3718 21.174C22.5987 21.1922 22.8242 21.2254 23.0468 21.2735C23.1616 21.2972 23.2742 21.3305 23.3835 21.3729C23.442 21.3964 23.4988 21.424 23.5534 21.4555C23.5809 21.4754 23.61 21.4923 23.6376 21.5152C23.6651 21.5382 23.6912 21.5733 23.7156 21.6024C23.7245 21.6123 23.7304 21.6245 23.7325 21.6376V21.6575C23.8018 22.1874 23.8239 22.7225 23.7983 23.2563C23.7712 23.7928 23.7027 24.3263 23.5932 24.8521C23.5381 25.1153 23.4753 25.3784 23.4003 25.637C23.3253 25.8956 23.232 26.1526 23.1371 26.402C23.0422 26.6514 22.9259 26.9008 22.8049 27.1471C22.684 27.3934 22.5508 27.629 22.407 27.8631C22.1136 28.3324 21.7714 28.7694 21.386 29.1667C21.188 29.3644 20.979 29.5508 20.76 29.7251C20.6483 29.8123 20.5289 29.8888 20.4141 29.9715C20.2993 30.0541 20.1723 30.1245 20.0513 30.1918L19.6702 30.3846L19.2738 30.5452C19.136 30.588 19.0014 30.6355 18.8636 30.6722C18.7258 30.7089 18.585 30.738 18.4427 30.7609C18.3003 30.7839 18.1595 30.8007 18.0172 30.8099C17.8748 30.8191 17.7325 30.8267 17.5901 30.8237C17.4478 30.8206 17.307 30.8145 17.1661 30.8022L16.7467 30.7472H16.7391C16.6667 30.7375 16.5985 30.7073 16.5426 30.6602C16.4867 30.6131 16.4454 30.5511 16.4236 30.4814C16.4017 30.4117 16.4002 30.3372 16.4192 30.2666C16.4383 30.1961 16.477 30.1325 16.5309 30.0832L17.0054 29.6502C17.1585 29.514 17.3008 29.3748 17.4355 29.2355L17.6207 29.0198C17.6758 28.9464 17.7233 28.8668 17.7738 28.798C17.8243 28.7291 17.8488 28.645 17.8886 28.57L17.9575 28.3359L18.435 28.7138C18.3003 28.7567 18.1656 28.8102 18.0325 28.8439C17.8993 28.8775 17.7646 28.9158 17.6299 28.9341C17.4952 28.9525 17.3605 28.9861 17.2274 28.9969C17.0942 29.0076 16.9595 29.0305 16.8263 29.0351C16.6932 29.0397 16.5585 29.055 16.4253 29.0535C16.2922 29.0519 16.159 29.0535 16.0274 29.0535C15.761 29.0535 15.4978 29.0305 15.2345 29.0091C14.7068 28.9603 14.1834 28.8724 13.6687 28.7459C13.4097 28.6823 13.1543 28.6052 12.9034 28.5149C12.7748 28.4736 12.6523 28.4155 12.5268 28.3619C12.4013 28.3084 12.2819 28.2395 12.1595 28.1798C12.1028 28.148 12.0602 28.096 12.0401 28.0342C12.02 27.9723 12.024 27.9052 12.0512 27.8462C12.0784 27.7871 12.1269 27.7405 12.187 27.7156C12.247 27.6907 12.3143 27.6893 12.3753 27.7117L12.4075 27.7254C12.4928 27.7581 12.5817 27.7807 12.6722 27.7928C12.7843 27.8092 12.8973 27.8179 13.0105 27.8188C13.2438 27.824 13.4771 27.8117 13.7085 27.782C13.9436 27.7527 14.1767 27.7087 14.4064 27.6505C14.6391 27.6015 14.8656 27.5189 15.0937 27.45C15.3217 27.3812 15.5437 27.2894 15.7564 27.1808C15.8651 27.1287 15.9768 27.0813 16.0825 27.0278L16.3978 26.8518C16.6136 26.7432 16.8049 26.5948 17.01 26.4678C17.2151 26.3408 17.3973 26.1801 17.5917 26.0363L18.1366 25.559L18.6508 25.0311C18.8039 24.8506 18.9661 24.6609 19.11 24.4681C19.2539 24.2753 19.3993 24.0733 19.5325 23.8683C19.7981 23.456 20.0384 23.0278 20.2519 22.5862C20.3621 22.3689 20.4646 22.144 20.5809 21.9268C20.6845 21.6952 20.8339 21.487 21.0202 21.3148L21.0355 21.3224Z" fill="#4FBB8A"/>
<path d="M32.0452 12.0217C32.0452 12.0217 21.3309 5.88492 13.8155 0.285156L7.39307 5.06332C7.39307 5.06332 25.0763 14.3442 32.0452 12.0217Z" fill="#89FAC7"/>
<path d="M31.9244 12.0017C30.3836 11.1327 28.853 10.2473 27.3326 9.34565C26.555 8.88666 25.7729 8.42766 25.0045 7.95336L22.681 6.53965L20.3851 5.09075C19.6198 4.61492 18.8713 4.10085 18.1152 3.60513L16.9825 2.8539C16.6029 2.6091 16.2371 2.34136 15.8652 2.08891L13.6427 0.516077H13.9887L7.61976 5.36921L7.57078 4.7465C8.53048 5.22845 9.51314 5.69204 10.4943 6.14185C11.4754 6.59167 12.4672 7.02466 13.4606 7.45C14.454 7.87533 15.4504 8.28078 16.4545 8.68776C16.9555 8.89176 17.4586 9.0876 17.9637 9.27527L19.479 9.83831C19.9892 10.0239 20.4994 10.2019 21.0096 10.3723C21.5198 10.5426 22.03 10.7079 22.5402 10.868L23.3147 11.099L24.0923 11.3132C24.6127 11.4509 25.1315 11.5917 25.6565 11.7034C26.1815 11.8151 26.7096 11.9206 27.2377 12.0094L28.0367 12.118C28.3015 12.1501 28.5693 12.167 28.8372 12.196C29.3713 12.2391 29.9076 12.2478 30.4428 12.222C30.7122 12.222 30.9739 12.1654 31.2433 12.1425C31.4698 12.1088 31.6948 12.0507 31.9244 12.0017ZM32.0591 12.0629C31.7989 12.1425 31.5402 12.2435 31.2739 12.3077C31.0076 12.372 30.7367 12.4332 30.4642 12.4607C29.9187 12.5326 29.3691 12.5694 28.8188 12.5709C28.5448 12.5709 28.2693 12.5709 27.9953 12.5479L27.1749 12.4837C26.63 12.4225 26.0851 12.3582 25.5448 12.2649C25.2724 12.2251 25.0045 12.1746 24.7351 12.1226C24.4657 12.0706 24.1948 12.0247 23.93 11.9589L23.1295 11.7737L22.3351 11.5703C21.807 11.431 21.279 11.2857 20.7586 11.125C20.2382 10.9644 19.7147 10.7991 19.1973 10.6278C18.1596 10.2866 17.1371 9.9041 16.1208 9.50936C15.6142 9.3074 15.1045 9.1131 14.604 8.89737L13.104 8.24712C12.106 7.80801 11.1142 7.34596 10.1407 6.87013C9.16721 6.3943 8.18915 5.90776 7.2218 5.39216C7.13581 5.34664 7.0714 5.26888 7.04271 5.17594C7.01401 5.08301 7.02337 4.98248 7.06874 4.89644C7.09505 4.84786 7.1316 4.80557 7.17588 4.77251L13.6458 0.0555499C13.6962 0.0194261 13.7567 0 13.8188 0C13.8808 0 13.9413 0.0194261 13.9917 0.0555499L16.1713 1.65133C16.5356 1.91602 16.8953 2.18836 17.2703 2.44081L18.3831 3.2058L19.4973 3.9708C19.8662 4.22936 20.2428 4.47722 20.6193 4.72814L22.8739 6.22906L25.1514 7.69938C25.9076 8.19204 26.6821 8.66481 27.4474 9.14676C28.978 10.1076 30.5198 11.0501 32.0729 11.9742C32.0778 11.9771 32.082 11.9811 32.0853 11.9857C32.0887 11.9903 32.091 11.9956 32.0923 12.0011C32.0936 12.0067 32.0938 12.0124 32.0928 12.0181C32.0918 12.0237 32.0897 12.029 32.0867 12.0338C32.0851 12.0407 32.0817 12.047 32.0768 12.0521C32.072 12.0572 32.0659 12.0609 32.0591 12.0629Z" fill="#4FBB8A"/>
<path d="M52.1793 15.4305C30.3511 10.6661 7.66741 1.94059 7.66741 1.94059V1.95436C7.04416 1.63956 6.356 1.47453 5.65771 1.47241C2.70668 1.47241 0.314331 4.40999 0.314331 8.02995C0.314331 11.0746 1.78372 13.5532 4.00465 14.2662C19.4822 21.3302 47.7221 35.9936 47.7221 35.9936L52.1793 15.4305Z" fill="#89FAC7"/>
<path d="M52.1271 15.4672L46.4975 14.1544C45.5546 13.9311 44.6072 13.7245 43.6674 13.4858L40.8556 12.7361L38.0424 11.9865C37.1071 11.7294 36.1612 11.503 35.2352 11.2215L29.6484 9.58284C28.7148 9.31662 27.7888 9.02745 26.8658 8.73216L24.0892 7.85854C23.1709 7.56325 22.2357 7.2802 21.3158 6.97726L18.5607 6.05927L15.8056 5.13362L13.0504 4.17126C12.1321 3.85302 11.2137 3.53172 10.3076 3.19665C9.40146 2.86159 8.48309 2.53723 7.5739 2.19298L7.91676 2.03998V2.05222C7.89139 2.11708 7.84161 2.16943 7.77809 2.19803C7.71457 2.22663 7.64236 2.22921 7.57696 2.20522L7.554 2.19604C7.37798 2.12719 7.20962 2.04304 7.03053 1.98184C6.853 1.92124 6.67143 1.87318 6.48716 1.83802C6.30347 1.79735 6.11649 1.77328 5.92849 1.76611L5.66369 1.75081L5.36522 1.7707C5.17689 1.78039 4.98986 1.80753 4.80654 1.85179C4.62442 1.88942 4.44535 1.94056 4.27083 2.00479C4.09175 2.05987 3.92644 2.15779 3.75195 2.22664C3.57746 2.29549 3.42746 2.41789 3.26521 2.51275C3.10297 2.60761 2.95909 2.73613 2.81521 2.85853C2.67133 2.98093 2.53052 3.10944 2.40501 3.25173C2.14438 3.53033 1.91021 3.83253 1.70551 4.15443C1.29788 4.80502 1.00196 5.51918 0.830006 6.26735C0.793271 6.45553 0.745817 6.64372 0.719796 6.83191L0.650917 7.40566L0.61878 7.97023C0.61878 8.14617 0.629492 8.36343 0.635614 8.55774L0.690714 9.12384C0.722857 9.31356 0.745817 9.50634 0.787144 9.69452C0.862769 10.07 0.968205 10.4389 1.10245 10.7976C1.23354 11.155 1.39591 11.5001 1.58766 11.8289C1.78023 12.1532 2.00592 12.4568 2.26113 12.7346C2.51128 13.0113 2.79572 13.255 3.10756 13.4598C3.41656 13.6604 3.74985 13.8208 4.0994 13.9372H4.11777H4.13767L15.1887 19.1392C16.1071 19.5767 17.0255 19.999 17.9438 20.4488L20.6836 21.7983L26.1541 24.5064C27.9801 25.406 29.8 26.3194 31.6184 27.2328L37.0505 30.0174L42.4704 32.828L47.8781 35.6615L47.3837 35.8941C47.7633 34.182 48.1613 32.4746 48.5516 30.7656L49.7286 25.6386L50.921 20.5146L52.1271 15.4672ZM52.2205 15.4442L51.2041 20.6064L50.171 25.7594L49.1194 30.9201C48.7689 32.6383 48.423 34.3564 48.0602 36.0716C48.0415 36.1604 47.9882 36.2381 47.9122 36.2878C47.8362 36.3374 47.7435 36.3548 47.6546 36.3363C47.626 36.3298 47.5983 36.32 47.572 36.3072L42.1276 33.5532L36.6725 30.8206L31.228 28.0667C29.4051 27.1624 27.5836 26.2597 25.7668 25.3417L20.3163 22.6015L17.5918 21.2245C16.6841 20.7655 15.7642 20.3356 14.8505 19.8904L3.86369 14.5859L3.90195 14.6012C3.49303 14.4635 3.10398 14.2726 2.74481 14.0336C2.38925 13.7965 2.06523 13.5153 1.78051 13.1967C1.49613 12.8835 1.24529 12.5415 1.03205 12.1762C0.822361 11.8099 0.644163 11.4266 0.499387 11.0302C0.357019 10.6388 0.245958 10.2366 0.167246 9.82763C0.122858 9.62415 0.101426 9.4176 0.0677522 9.21564L0.0126523 8.58222C0.0126523 8.3772 -0.0026565 8.1936 0.00040473 7.97023L0.027964 7.34905L0.106018 6.73705C0.138161 6.5305 0.188671 6.33008 0.229997 6.12506C0.423807 5.31128 0.752318 4.5356 1.20194 3.83007C1.42816 3.47775 1.6875 3.14781 1.97644 2.84476C2.11725 2.69176 2.28256 2.55712 2.43562 2.4133C2.58868 2.26948 2.77235 2.15932 2.94072 2.03233C3.10909 1.90534 3.30195 1.81354 3.48869 1.71562C3.67542 1.6177 3.87134 1.53202 4.07491 1.46929C4.2746 1.39828 4.47923 1.34203 4.68716 1.301C4.89355 1.25505 5.1035 1.2269 5.31471 1.21685L5.62083 1.19849C5.75859 1.19849 5.84124 1.21073 5.95451 1.21685C6.16681 1.22692 6.37783 1.25558 6.58512 1.30253C6.79304 1.34361 6.99767 1.39986 7.19737 1.47082C7.39635 1.53661 7.58614 1.63453 7.78053 1.71562L7.41319 1.85944V1.84567C7.43822 1.78019 7.48821 1.7273 7.5522 1.69862C7.61619 1.66993 7.68895 1.6678 7.75451 1.69267C8.65605 2.04151 9.56524 2.37658 10.4744 2.71471C11.3836 3.05284 12.2928 3.38331 13.205 3.7092L15.9418 4.68993L18.6969 5.63699L21.452 6.58252C22.3704 6.88852 23.2887 7.18687 24.2071 7.48981L26.9714 8.3925C27.8898 8.6985 28.8081 8.99532 29.7433 9.27072L35.3071 10.9644C36.2255 11.2582 37.173 11.4938 38.1051 11.76L40.9061 12.5372L43.7087 13.3145C44.6454 13.5639 45.5914 13.7735 46.5327 14.0122L52.1852 15.3892C52.1965 15.3914 52.2065 15.3979 52.213 15.4073C52.2196 15.4167 52.2223 15.4283 52.2205 15.4396V15.4442Z" fill="#4FBB8A"/>
<path d="M23.7783 20.363C24.5956 15.8343 27.5528 12.3107 31.3808 9.9591C30.0196 9.5511 28.6931 9.14311 27.4012 8.73511C23.5609 10.8021 20.7568 14.3655 20.4002 18.833C20.3105 19.9554 20.3449 21.0842 20.5027 22.199C21.5303 22.709 22.5553 23.219 23.5777 23.729C23.5131 22.603 23.5804 21.4734 23.7783 20.363Z" fill="#89FAC7"/>
<path d="M23.7356 20.3478L23.9131 19.5354L24.1366 18.7336L24.4014 17.9426L24.7075 17.1685L25.0549 16.4035L25.4453 15.666L25.8738 14.9484L26.333 14.2538L26.8381 13.5837L27.383 12.9457L27.9585 12.3337L28.5708 11.7492L29.2014 11.2076L29.8611 10.6859L30.5422 10.1948L31.2432 9.73577L31.3045 10.1948L27.3065 9.01973L27.5468 8.99678C27.2636 9.16967 26.9713 9.3242 26.6973 9.50933C26.4233 9.69446 26.1448 9.87194 25.8845 10.0739C25.6243 10.2759 25.3626 10.4778 25.1116 10.6859C24.8606 10.894 24.6279 11.1311 24.3861 11.3545C24.1442 11.5779 23.9269 11.8135 23.7187 12.0767L23.4034 12.453C23.3009 12.5816 23.2075 12.7162 23.1095 12.8462C22.9075 13.1048 22.7407 13.3863 22.5616 13.6587C22.3825 13.931 22.2371 14.2232 22.0871 14.5109C21.9371 14.7985 21.7947 15.0938 21.683 15.3983C21.6248 15.5513 21.559 15.7043 21.5039 15.8573L21.3509 16.3163C21.2391 16.6223 21.1794 16.9405 21.0891 17.2511C21.031 17.5709 20.9529 17.8876 20.91 18.2089L20.8488 18.6923L20.8335 18.8132V18.8438C20.8335 18.8438 20.8335 18.8652 20.8335 18.8438V18.8591V18.9218L20.8167 19.1743L20.7784 19.6807L20.7677 20.1657C20.7539 20.487 20.7677 20.819 20.7677 21.148C20.7677 21.4769 20.809 21.8059 20.8228 22.1379L20.6452 21.8931L23.6437 23.5761L23.4325 23.7138L23.4478 22.8616L23.5014 22.0139C23.5366 21.7324 23.5626 21.4524 23.5947 21.1709L23.7356 20.3478ZM23.8213 20.3646L23.7126 21.1969C23.6942 21.4769 23.6728 21.7569 23.6606 22.0354V22.8738L23.7203 23.7092C23.7206 23.7465 23.7072 23.7827 23.6827 23.8109C23.6581 23.8391 23.6241 23.8573 23.5871 23.8622C23.564 23.8628 23.5411 23.8587 23.5197 23.8499H23.5106L20.356 22.4821C20.311 22.4623 20.2717 22.4317 20.2415 22.393C20.2113 22.3543 20.1912 22.3087 20.183 22.2603V22.2373C20.1294 21.8977 20.0606 21.558 20.0299 21.2138C19.9993 20.8695 19.9549 20.5268 19.9534 20.1734L19.9412 19.647L19.9549 19.1422V18.8882V18.8254V18.7811V18.7489L19.9672 18.6174L20.0223 18.0956C20.0621 17.7483 20.134 17.4041 20.1983 17.0614C20.2932 16.7232 20.3514 16.3759 20.4799 16.047L20.6514 15.5513C20.7126 15.386 20.7861 15.2269 20.8534 15.0647C20.9805 14.7388 21.1504 14.4328 21.3126 14.1192C21.4748 13.8055 21.6631 13.5072 21.8514 13.2211C22.0396 12.935 22.2417 12.6427 22.4636 12.375C22.5723 12.2404 22.6779 12.1011 22.7896 11.9696L23.1371 11.5809C23.3636 11.3147 23.6238 11.0852 23.8657 10.8374C24.1075 10.5895 24.3769 10.3692 24.6493 10.1565C24.9218 9.94385 25.1896 9.72506 25.4774 9.53228C25.7652 9.3395 26.0483 9.14672 26.3407 8.96465C26.633 8.78258 26.9407 8.62499 27.2391 8.45363C27.2742 8.43328 27.3133 8.42057 27.3536 8.41635C27.394 8.41214 27.4348 8.4165 27.4733 8.42915L31.4346 9.70517C31.467 9.71558 31.497 9.73228 31.5229 9.7543C31.5488 9.77633 31.5701 9.80325 31.5856 9.83352C31.6011 9.86379 31.6105 9.89682 31.6132 9.93071C31.6159 9.96461 31.6119 9.99871 31.6014 10.0311C31.5834 10.0892 31.5447 10.1387 31.4927 10.1703L30.7963 10.6063L30.1198 11.0653L29.4631 11.5565L28.8279 12.0767L28.2157 12.6198L27.6279 13.1935L27.0677 13.7948L26.5366 14.4221L26.0376 15.0785L25.5784 15.7624L25.1636 16.4754L24.7902 17.2128C24.68 17.4653 24.5621 17.7147 24.4626 17.9778L24.1902 18.7597L23.9973 19.5522L23.8213 20.3646Z" fill="#4FBB8A"/>
<path d="M58.1989 26.942C57.4459 32.7698 53.5259 37.066 49.4484 36.5382C45.3708 36.0103 42.6723 30.8604 43.4269 25.0326C44.1815 19.2049 48.0999 14.9087 52.179 15.435C56.2581 15.9613 58.9535 21.1097 58.1989 26.942Z" fill="#89FAC7"/>
<path d="M58.2418 26.942C58.2418 26.942 58.2051 27.1623 58.1347 27.5754C58.0975 27.833 58.0464 28.0884 57.9816 28.3404C57.9036 28.6357 57.8439 28.983 57.7168 29.3533C57.6587 29.5415 57.5974 29.7388 57.5316 29.9454C57.4658 30.1519 57.3786 30.36 57.2913 30.5819C57.1067 31.0581 56.8961 31.5239 56.6607 31.9772L56.2413 32.7162L55.7362 33.4598L55.1439 34.2018C54.9158 34.4313 54.6969 34.6853 54.4444 34.9133C54.1879 35.1489 53.9164 35.3677 53.6316 35.5681C53.4785 35.6676 53.3393 35.7731 53.1862 35.8741L52.6995 36.122C52.0137 36.4769 51.2637 36.6908 50.4938 36.7508C50.3944 36.76 50.2949 36.7737 50.1877 36.7783L49.8816 36.7661L49.5755 36.7539H49.4224C49.3413 36.7416 49.3168 36.734 49.2617 36.7233L48.677 36.6116C48.478 36.5534 48.2744 36.4769 48.0648 36.4081C47.2662 36.0879 46.5382 35.6144 45.9219 35.0143C45.3071 34.3857 44.7823 33.6751 44.3622 32.9029C43.9511 32.1076 43.6282 31.2698 43.3994 30.4044C43.1716 29.526 43.0321 28.627 42.9831 27.7208C42.9303 26.8048 42.957 25.8859 43.0627 24.9745L43.1637 24.3104C43.1928 24.0862 43.2332 23.8636 43.2846 23.6434L43.4377 22.9656C43.4852 22.7376 43.5647 22.5249 43.6275 22.3046C43.8892 21.4302 44.2384 20.5845 44.6698 19.7801C45.0987 18.982 45.6168 18.2352 46.2142 17.554C46.8185 16.89 47.513 16.3142 48.2775 15.8435C49.0461 15.403 49.8938 15.1176 50.7724 15.0035C51.6154 14.8964 52.4718 14.9897 53.2719 15.2758C54.0342 15.5368 54.7338 15.9536 55.326 16.4998C55.4638 16.6314 55.6015 16.7599 55.7377 16.8885C55.874 17.017 55.9765 17.173 56.0928 17.3123C56.3161 17.5874 56.5206 17.8772 56.7051 18.1798C56.8918 18.472 57.0357 18.7795 57.1964 19.0672C57.3265 19.3732 57.4551 19.6654 57.5714 19.9546L57.8561 20.819C57.9255 21.1056 57.9929 21.3831 58.0582 21.6513C58.1621 22.1566 58.2372 22.6675 58.2832 23.1813C58.3031 23.4185 58.3367 23.6403 58.3428 23.8622C58.349 24.084 58.352 24.286 58.3582 24.4833C58.378 24.8765 58.3413 25.2269 58.3383 25.5329C58.3318 25.7888 58.3119 26.0441 58.2786 26.2979C58.2342 26.7156 58.2112 26.9374 58.2112 26.9374L58.2418 26.942ZM58.1561 26.9283C58.1561 26.9283 58.1745 26.7064 58.2082 26.2902C58.2334 26.036 58.2456 25.7807 58.2449 25.5253C58.2586 25.1789 58.253 24.8321 58.2281 24.4864C58.1778 23.5542 58.0238 22.6305 57.7689 21.7324C57.4534 20.5768 56.9352 19.4863 56.2383 18.5118C56.0451 18.2432 55.8344 17.9877 55.6076 17.7468C55.4913 17.6274 55.378 17.5035 55.2571 17.3857L54.8683 17.0568C54.7398 16.9423 54.6009 16.8398 54.4535 16.7508C54.312 16.6511 54.1648 16.5596 54.0127 16.4769L53.5428 16.2428C53.3898 16.1663 53.2229 16.1311 53.0622 16.0699C52.3654 15.8424 51.6264 15.7734 50.8995 15.8679C50.1433 15.9758 49.4155 16.2299 48.7566 16.6161C48.0651 17.0327 47.4337 17.5418 46.8801 18.1293C46.3195 18.7545 45.8264 19.4371 45.4091 20.1657C44.9855 20.9154 44.6384 21.7058 44.3729 22.5249C44.3086 22.7315 44.2198 22.9365 44.1785 23.1446L44.0255 23.7704C43.9691 23.9835 43.9247 24.1995 43.8923 24.4175L43.7744 25.0785C43.5368 26.8015 43.6151 28.5534 44.0056 30.2483C44.2086 31.0746 44.5006 31.8764 44.8765 32.6397C45.2587 33.3713 45.7392 34.0471 46.3045 34.6486C46.8616 35.2106 47.5222 35.6595 48.25 35.9705C48.429 36.0332 48.5989 36.1067 48.7826 36.1633L49.3642 36.2872C49.4056 36.2964 49.476 36.3117 49.4928 36.3132L49.6336 36.3239L49.9153 36.3438L50.1938 36.3652C50.2872 36.3652 50.3791 36.353 50.4709 36.3469C51.1955 36.3116 51.9058 36.1322 52.5602 35.819L53.0316 35.5865C53.1847 35.4993 53.3255 35.4029 53.4694 35.3111C53.7527 35.1292 54.0236 34.9288 54.2806 34.7113C55.2015 33.9212 55.9712 32.9705 56.552 31.9053C57.011 31.0865 57.379 30.22 57.6495 29.3212C57.7811 28.954 57.8362 28.6082 57.9127 28.316C57.9767 28.0637 58.0278 27.8084 58.0658 27.551C58.1209 27.1516 58.1561 26.9328 58.1561 26.9313V26.9283Z" fill="#4FBB8A"/>
<path d="M58.1989 26.942C57.4459 32.7698 53.5259 37.066 49.4484 36.5382C45.3708 36.0103 42.6723 30.8604 43.4269 25.0326C44.1815 19.2049 48.0999 14.9087 52.179 15.435C56.2581 15.9613 58.9535 21.1097 58.1989 26.942Z" fill="#89FAC7"/>
<path d="M58.2418 26.942C58.2418 26.942 58.2051 27.1623 58.1347 27.5754C58.0975 27.833 58.0464 28.0884 57.9816 28.3404C57.9036 28.6357 57.8439 28.983 57.7168 29.3533C57.6587 29.5415 57.5974 29.7388 57.5316 29.9454C57.4658 30.1519 57.3786 30.36 57.2913 30.5819C57.1067 31.0581 56.8961 31.5239 56.6607 31.9772L56.2413 32.7162L55.7362 33.4598L55.1439 34.2018C54.9158 34.4313 54.6969 34.6853 54.4444 34.9133C54.1879 35.1489 53.9164 35.3677 53.6316 35.5681C53.4785 35.6676 53.3393 35.7731 53.1862 35.8741L52.6995 36.122C52.0137 36.4769 51.2637 36.6908 50.4938 36.7508C50.3944 36.76 50.2949 36.7737 50.1877 36.7783L49.8816 36.7661L49.5755 36.7539H49.4224C49.3413 36.7416 49.3168 36.734 49.2617 36.7233L48.677 36.6116C48.478 36.5534 48.2744 36.4769 48.0648 36.4081C47.2662 36.0879 46.5382 35.6144 45.9219 35.0143C45.3071 34.3857 44.7823 33.6751 44.3622 32.9029C43.9511 32.1076 43.6282 31.2698 43.3994 30.4044C43.1716 29.526 43.0321 28.627 42.9831 27.7208C42.9303 26.8048 42.957 25.8859 43.0627 24.9745L43.1637 24.3104C43.1928 24.0862 43.2332 23.8636 43.2846 23.6434L43.4377 22.9656C43.4852 22.7376 43.5647 22.5249 43.6275 22.3046C43.8892 21.4302 44.2384 20.5845 44.6698 19.7801C45.0987 18.982 45.6168 18.2352 46.2142 17.554C46.8185 16.89 47.513 16.3142 48.2775 15.8435C49.0461 15.403 49.8938 15.1176 50.7724 15.0035C51.6154 14.8964 52.4718 14.9897 53.2719 15.2758C54.0342 15.5368 54.7338 15.9536 55.326 16.4998C55.4638 16.6314 55.6015 16.7599 55.7377 16.8885C55.874 17.017 55.9765 17.173 56.0928 17.3123C56.3161 17.5874 56.5206 17.8772 56.7051 18.1798C56.8918 18.472 57.0357 18.7795 57.1964 19.0672C57.3265 19.3732 57.4551 19.6654 57.5714 19.9546L57.8561 20.819C57.9255 21.1056 57.9929 21.3831 58.0582 21.6513C58.1621 22.1566 58.2372 22.6675 58.2832 23.1813C58.3031 23.4185 58.3367 23.6403 58.3428 23.8622C58.349 24.084 58.352 24.286 58.3582 24.4833C58.378 24.8765 58.3413 25.2269 58.3383 25.5329C58.3318 25.7888 58.3119 26.0441 58.2786 26.2979C58.2342 26.7156 58.2112 26.9374 58.2112 26.9374L58.2418 26.942ZM58.1561 26.9283C58.1561 26.9283 58.1745 26.7064 58.2082 26.2902C58.2334 26.036 58.2456 25.7807 58.2449 25.5253C58.2586 25.1789 58.253 24.8321 58.2281 24.4864C58.1778 23.5542 58.0238 22.6305 57.7689 21.7324C57.4534 20.5768 56.9352 19.4863 56.2383 18.5118C56.0451 18.2432 55.8344 17.9877 55.6076 17.7468C55.4913 17.6274 55.378 17.5035 55.2571 17.3857L54.8683 17.0568C54.7398 16.9423 54.6009 16.8398 54.4535 16.7508C54.312 16.6511 54.1648 16.5596 54.0127 16.4769L53.5428 16.2428C53.3898 16.1663 53.2229 16.1311 53.0622 16.0699C52.3654 15.8424 51.6264 15.7734 50.8995 15.8679C50.1433 15.9758 49.4155 16.2299 48.7566 16.6161C48.0651 17.0327 47.4337 17.5418 46.8801 18.1293C46.3195 18.7545 45.8264 19.4371 45.4091 20.1657C44.9855 20.9154 44.6384 21.7058 44.3729 22.5249C44.3086 22.7315 44.2198 22.9365 44.1785 23.1446L44.0255 23.7704C43.9691 23.9835 43.9247 24.1995 43.8923 24.4175L43.7744 25.0785C43.5368 26.8015 43.6151 28.5534 44.0056 30.2483C44.2086 31.0746 44.5006 31.8764 44.8765 32.6397C45.2587 33.3713 45.7392 34.0471 46.3045 34.6486C46.8616 35.2106 47.5222 35.6595 48.25 35.9705C48.429 36.0332 48.5989 36.1067 48.7826 36.1633L49.3642 36.2872C49.4056 36.2964 49.476 36.3117 49.4928 36.3132L49.6336 36.3239L49.9153 36.3438L50.1938 36.3652C50.2872 36.3652 50.3791 36.353 50.4709 36.3469C51.1955 36.3116 51.9058 36.1322 52.5602 35.819L53.0316 35.5865C53.1847 35.4993 53.3255 35.4029 53.4694 35.3111C53.7527 35.1292 54.0236 34.9288 54.2806 34.7113C55.2015 33.9212 55.9712 32.9705 56.552 31.9053C57.011 31.0865 57.379 30.22 57.6495 29.3212C57.7811 28.954 57.8362 28.6082 57.9127 28.316C57.9767 28.0637 58.0278 27.8084 58.0658 27.551C58.1209 27.1516 58.1561 26.9328 58.1561 26.9313V26.9283Z" fill="#4FBB8A"/>
<path d="M48.4872 16.4633C48.3907 16.451 48.2943 16.4434 48.1979 16.4373C45.8071 18.0009 43.9305 21.1802 43.4315 25.0282C42.9586 28.6894 43.8463 32.0829 45.5836 34.2295C45.7776 34.2826 45.975 34.3225 46.1744 34.3489C49.6305 34.7956 52.9504 31.1542 53.5902 26.2154C54.23 21.2766 51.9387 16.91 48.4872 16.4633Z" fill="#89FAC7"/>
<path d="M48.4777 16.5059L48.1899 16.4784H48.2175C47.8745 16.7046 47.5481 16.9552 47.241 17.228C46.9358 17.504 46.6499 17.8005 46.3853 18.1154C46.2507 18.2706 46.124 18.4325 46.0057 18.6005C45.8818 18.7657 45.7639 18.9325 45.6552 19.1084C45.5466 19.2844 45.4333 19.4527 45.3353 19.6332C45.2374 19.8137 45.1302 19.9882 45.0399 20.1733C44.9496 20.3584 44.8532 20.539 44.7767 20.7287C44.7001 20.9184 44.6083 21.102 44.5394 21.2963C44.3864 21.6757 44.2624 22.0613 44.1461 22.4576L43.993 23.0497L43.8552 23.6464C43.7787 24.0472 43.7022 24.4481 43.6593 24.8535C43.6165 25.259 43.6012 25.6705 43.5644 26.0775L43.543 26.3835C43.543 26.486 43.543 26.5855 43.543 26.6895L43.5537 27.2939C43.5597 27.6988 43.5909 28.103 43.6471 28.5041C43.687 28.9069 43.754 29.3067 43.8476 29.7005C43.9233 30.0966 44.0256 30.4871 44.1537 30.8694C44.2718 31.2542 44.416 31.6304 44.5853 31.9955L44.7017 32.2725L44.8547 32.5356L45.1471 33.0604C45.2458 33.2332 45.3574 33.3984 45.4807 33.5546L45.8297 34.0381L45.6644 33.9294L46.0195 33.9952L46.1956 34.0289H46.2063H46.269H46.3654L46.7542 34.0472C46.8721 34.0478 46.9899 34.0386 47.1063 34.0197C47.2211 34.0044 47.3343 34.0044 47.4507 33.9799L47.8027 33.8942L47.9772 33.8529L48.1471 33.7871L48.4838 33.6571C48.7042 33.5592 48.9155 33.4352 49.1282 33.3205C49.3272 33.1782 49.5369 33.0543 49.7252 32.8982C50.1085 32.589 50.4602 32.2425 50.7752 31.8639C51.0931 31.4843 51.3783 31.0784 51.6277 30.6507C51.8802 30.2227 52.1032 29.7779 52.2951 29.3196C52.3823 29.087 52.4803 28.8606 52.5614 28.6219L52.7849 27.9074L52.9655 27.1806C53.0282 26.9389 53.0558 26.6895 53.1032 26.4432C53.1201 26.3254 53.1522 26.1861 53.1599 26.0852L53.1981 25.6981C53.2257 25.4395 53.2502 25.1825 53.2548 24.9423C53.2815 24.4454 53.2815 23.9474 53.2548 23.4505L53.1859 22.7008L53.0711 21.9573L52.9042 21.2213C52.8369 20.9796 52.7512 20.7424 52.6808 20.5007C52.6104 20.259 52.4925 20.0417 52.3991 19.7984C52.3058 19.5552 52.1665 19.3501 52.0517 19.1252C51.9124 18.9156 51.7808 18.6984 51.6323 18.4918C51.4838 18.2853 51.3262 18.0879 51.1425 17.912C50.9662 17.729 50.7752 17.5606 50.5716 17.4086L50.2655 17.1791L49.9241 16.997C49.7 16.8733 49.4648 16.7708 49.2216 16.691C49.1022 16.6458 48.9786 16.6125 48.8527 16.5916L48.4777 16.5059ZM48.4869 16.4202L48.8726 16.4921C49.0028 16.5095 49.131 16.5398 49.2553 16.5824C49.5077 16.6543 49.7527 16.7501 49.9869 16.8685L50.342 17.0429L50.6726 17.2587C50.8929 17.404 51.1017 17.5662 51.2971 17.7437C51.4952 17.9195 51.6843 18.1054 51.8634 18.3006C52.0364 18.501 52.194 18.7137 52.3609 18.9218C52.5032 19.1451 52.6517 19.367 52.7879 19.5949C52.9241 19.8229 53.0405 20.0647 53.1553 20.3049C53.2701 20.5451 53.3665 20.7945 53.4614 21.0438L53.7109 21.8088L53.8991 22.5891L54.0247 23.3801C54.0887 23.9152 54.1158 24.454 54.1058 24.9928C54.1058 25.1274 54.1058 25.2682 54.1058 25.3967L54.0721 25.7838L54.0384 26.1708C54.0262 26.3238 53.9986 26.4432 53.9787 26.5809C53.9328 26.8456 53.9068 27.1118 53.8425 27.3719L53.6558 28.1552L53.4109 28.9202C53.319 29.1727 53.2104 29.4205 53.1047 29.6699C52.8888 30.1632 52.6376 30.6402 52.3532 31.0974C52.0669 31.5569 51.7423 31.9914 51.3828 32.3964C51.0221 32.8043 50.6216 33.1754 50.1874 33.5041C49.9716 33.6724 49.7282 33.8101 49.5047 33.9631C49.2598 34.087 49.0165 34.2186 48.7609 34.3242L48.369 34.4634L48.1731 34.5292L47.9711 34.5736L47.5639 34.6608C47.4262 34.6868 47.2777 34.6883 47.1353 34.7021C46.9956 34.7173 46.855 34.723 46.7144 34.7189L46.3272 34.6929L46.2292 34.6852H46.1818H46.1573H46.1282H46.1144L45.9109 34.6424L45.5037 34.5567C45.4414 34.5407 45.3871 34.5026 45.3507 34.4496L44.9665 33.9034C44.8391 33.7317 44.724 33.5512 44.6221 33.3633L44.316 32.7988L44.1629 32.5173L44.0466 32.222C43.878 31.8337 43.7359 31.4345 43.6211 31.027C43.4913 30.6265 43.3891 30.2175 43.3149 29.803C43.2286 29.3911 43.1688 28.9741 43.1358 28.5546C43.0873 28.1366 43.0649 27.7161 43.0685 27.2954V26.662C43.0685 26.5564 43.0685 26.4493 43.0685 26.3468L43.0991 26.0408L43.1619 25.4288L43.194 25.1228V25.0463V24.9989L43.2017 24.9591L43.2277 24.8061C43.292 24.3945 43.3807 23.986 43.4756 23.5821L43.641 22.9778C43.6976 22.7773 43.7695 22.58 43.8323 22.3826C43.9716 21.9894 44.12 21.5992 44.2915 21.2213C44.3711 21.0285 44.4675 20.8434 44.5593 20.6568C44.6512 20.4701 44.7506 20.288 44.8532 20.1075C44.9558 19.927 45.0568 19.7449 45.17 19.5705C45.2833 19.396 45.3935 19.2201 45.5144 19.0518C45.6353 18.8835 45.7547 18.7137 45.8848 18.5515C46.0149 18.3893 46.1466 18.2302 46.2813 18.0726C46.552 17.7587 46.8429 17.4628 47.1522 17.1867C47.4597 16.909 47.7865 16.6533 48.1302 16.4217C48.139 16.4164 48.1491 16.4137 48.1593 16.4141L48.4869 16.4202Z" fill="#4FBB8A"/>
<path d="M46.9398 18.7935C46.54 18.7434 46.1343 18.7668 45.7429 18.8623C44.5781 20.5101 43.7362 22.6398 43.4271 25.0282C43.1448 27.0767 43.3215 29.1624 43.9444 31.1344C44.3489 31.3922 44.805 31.5582 45.2806 31.6209C47.7602 31.9422 50.1419 29.3259 50.5995 25.7886C51.0572 22.2512 49.4194 19.1147 46.9398 18.7935Z" fill="#89FAC7"/>
<path d="M46.9365 18.8331L46.6304 18.8071H46.3442L46.0488 18.8377L45.7564 18.8928L45.7763 18.879L45.3447 19.5507C45.213 19.7833 45.0875 20.0189 44.9666 20.2545C44.8457 20.4901 44.7416 20.738 44.636 20.9812C44.5304 21.2245 44.4431 21.4754 44.3544 21.7264L44.1202 22.4913L43.9319 23.2563C43.8753 23.5149 43.8309 23.7765 43.7788 24.0351C43.7268 24.2937 43.7054 24.5584 43.6686 24.8185C43.6319 25.0786 43.6212 25.3387 43.5936 25.6079C43.5661 25.8772 43.5646 26.1343 43.5538 26.3959C43.5431 26.6575 43.5538 26.9207 43.5538 27.1823C43.5538 27.4439 43.5814 27.7071 43.5998 27.9687C43.6181 28.2303 43.6595 28.4904 43.6901 28.7505C43.7207 29.0106 43.7819 29.2646 43.8278 29.5155C43.8737 29.7665 43.9487 30.0235 44.0084 30.2805C44.0681 30.5376 44.1615 30.7793 44.2365 31.0272L44.1079 30.8619C44.4139 31.0432 44.7481 31.172 45.0967 31.2429L45.2268 31.2643L45.2926 31.2766H45.3202C45.3202 31.2766 45.2789 31.2766 45.3018 31.2766H45.3385L45.6324 31.2888C45.6799 31.2888 45.7334 31.2888 45.7778 31.2888L45.9003 31.2735L46.1467 31.2475C46.4948 31.1785 46.8303 31.0567 47.1416 30.8864C47.4591 30.7144 47.7534 30.5026 48.0171 30.2561C48.1503 30.1337 48.2712 29.9944 48.3982 29.8644C48.5253 29.7343 48.6294 29.5783 48.738 29.4314C48.8467 29.2845 48.9462 29.1254 49.0442 28.9724C49.1421 28.8194 49.2324 28.6542 49.3136 28.4874C49.3947 28.3206 49.4773 28.1554 49.5477 27.9825C49.6181 27.8096 49.6824 27.6367 49.7452 27.4608L49.9105 26.9283L50.0421 26.3867C50.0835 26.2031 50.111 26.018 50.1462 25.8344L50.1676 25.712L50.1829 25.559L50.2151 25.2668C50.2442 25.0663 50.2457 24.8904 50.2564 24.7068C50.2664 24.5223 50.2664 24.3374 50.2564 24.1529V23.8714L50.235 23.5899C50.2255 23.4028 50.2061 23.2164 50.1768 23.0314C50.1579 22.8441 50.1272 22.6581 50.085 22.4745C50.0521 22.2886 50.0065 22.1051 49.9488 21.9253L49.8692 21.6529L49.7666 21.3898C49.7012 21.2114 49.624 21.0376 49.5355 20.8696C49.3623 20.5304 49.1502 20.2125 48.9033 19.9225C48.6468 19.6373 48.3479 19.3932 48.0171 19.1988C47.6803 19.009 47.3132 18.8791 46.9319 18.8148L46.9365 18.8331ZM46.9365 18.7475C47.3336 18.796 47.7193 18.9124 48.0768 19.0917C48.4387 19.2683 48.7733 19.496 49.0702 19.768C49.365 20.0449 49.6293 20.3527 49.8585 20.686C49.9771 20.8515 50.0845 21.0248 50.1799 21.2046L50.3329 21.4739L50.4569 21.7539C50.6199 22.1294 50.753 22.5172 50.8549 22.9136C50.9103 23.1115 50.9523 23.3129 50.9804 23.5164L51.0294 23.8224L51.0585 24.1284C51.0793 24.3343 51.0885 24.5412 51.086 24.7481C51.086 24.9562 51.086 25.175 51.0738 25.3601L51.0508 25.6523L51.037 25.8053C51.037 25.8864 51.0217 25.9155 51.0156 25.9736C50.9819 26.1756 50.9574 26.3806 50.9176 26.5856L50.7738 27.1869L50.587 27.7775C50.5151 27.9702 50.434 28.16 50.3544 28.3512C50.2748 28.5425 50.1722 28.723 50.0819 28.9081C49.9916 29.0933 49.8707 29.2661 49.7651 29.4452C49.6595 29.6242 49.5217 29.7833 49.4008 29.9516C49.2799 30.1199 49.1283 30.2683 48.9921 30.4274C48.8559 30.5865 48.6937 30.7227 48.5329 30.8589C48.2119 31.1361 47.857 31.3715 47.4768 31.5596C47.0912 31.7523 46.6782 31.8845 46.2523 31.9513L45.9125 31.9758L45.7442 31.9865C45.6891 31.9865 45.6447 31.9865 45.5911 31.9773L45.2972 31.9559H45.2605H45.2329H45.2176H45.1977L45.1181 31.9406L44.9651 31.9084C44.5452 31.8105 44.1451 31.6418 43.7819 31.4097L43.7681 31.402C43.7128 31.3664 43.6721 31.3121 43.6533 31.249C43.5814 30.9843 43.5003 30.7212 43.4375 30.455C43.3748 30.1887 43.3135 29.9225 43.2737 29.6532C43.2339 29.384 43.1758 29.1147 43.1559 28.8423C43.136 28.57 43.0931 28.3007 43.0885 28.0284C43.0839 27.756 43.0564 27.4852 43.0656 27.2129C43.0748 26.9406 43.0656 26.6713 43.0885 26.3974C43.1115 26.1235 43.1161 25.8481 43.1544 25.5865C43.1926 25.3249 43.2125 25.0495 43.2676 24.7833C43.3227 24.5171 43.3595 24.2493 43.4207 23.9877C43.4819 23.7261 43.5462 23.4614 43.6197 23.2013L43.8661 22.4363L44.1569 21.682L44.4875 20.9445C44.6054 20.7028 44.734 20.4656 44.8564 20.227L45.2666 19.5354L45.7105 18.8653C45.7107 18.8585 45.7128 18.8518 45.7166 18.8462C45.7204 18.8405 45.7257 18.836 45.7319 18.8331L46.0289 18.7719L46.335 18.7383H46.6411L46.9472 18.7612L46.9365 18.7475Z" fill="#4FBB8A"/>
<path d="M3.76726 14.4067C3.71949 14.3255 3.67606 14.2417 3.63716 14.1558C3.54991 13.989 3.4443 13.7519 3.33103 13.4658C3.21777 13.1797 3.11675 12.8324 2.99277 12.4698C2.89348 12.0818 2.81379 11.6891 2.754 11.2932C2.73104 11.0912 2.7096 10.8878 2.6897 10.6812C2.66279 10.4871 2.65714 10.2906 2.67287 10.0952C2.70042 9.71425 2.66063 9.35777 2.74175 9.06095C2.85808 8.46731 2.93766 8.07104 2.93766 8.07104C2.93766 8.07104 2.89175 8.47037 2.82593 9.0686C2.77083 9.36389 2.84124 9.71731 2.8443 10.0876C2.84575 10.2789 2.86678 10.4696 2.90706 10.6567C2.94532 10.848 2.98359 11.0438 3.02032 11.2381C3.09379 11.6252 3.24379 12.0031 3.34634 12.3504C3.49941 12.6886 3.60654 13.016 3.75042 13.2684C3.85191 13.4779 3.96378 13.6821 4.08563 13.8804C4.1325 13.9596 4.18359 14.0362 4.23869 14.1099L3.76726 14.4067Z" fill="#4FBB8A"/>
<path d="M5.20431 15.2146C5.15654 15.1333 5.11312 15.0496 5.07421 14.9637C4.95969 14.7394 4.8575 14.5091 4.76809 14.2737C4.64105 13.9921 4.55228 13.6402 4.42676 13.2776C4.35176 12.9013 4.23085 12.5126 4.18952 12.1011C4.16656 11.8991 4.14512 11.6956 4.1237 11.4891C4.09882 11.2942 4.0937 11.0974 4.10839 10.9016C4.13594 10.5206 4.09615 10.1641 4.17727 9.86728C4.2936 9.27364 4.37166 8.87891 4.37166 8.87891C4.37166 8.87891 4.3288 9.2767 4.26146 9.87493C4.20635 10.1702 4.27676 10.5236 4.27982 10.8939C4.28104 11.0854 4.30259 11.2762 4.34411 11.4631C4.38084 11.6558 4.41758 11.8501 4.45585 12.0445C4.52779 12.4331 4.67932 12.8095 4.78034 13.1568C4.9334 13.4949 5.04207 13.8223 5.18594 14.0748C5.28724 14.2846 5.39965 14.4889 5.52268 14.6868C5.56651 14.7658 5.61453 14.8424 5.66656 14.9163L5.20431 15.2146Z" fill="#4FBB8A"/>
<path d="M6.91088 16.0683C6.86311 15.987 6.81968 15.9033 6.78078 15.8174C6.66683 15.5928 6.56465 15.3625 6.47466 15.1273C6.34761 14.8443 6.25883 14.4939 6.13485 14.1313C6.03557 13.7434 5.95587 13.3507 5.89608 12.9548C5.87465 12.7513 5.85322 12.5478 5.8318 12.3428C5.80488 12.1481 5.79923 11.9511 5.81496 11.7552C5.84251 11.3758 5.80424 11.0193 5.88383 10.721C6.00016 10.1289 6.07975 9.73413 6.07975 9.73413C6.07975 9.73413 6.03384 10.1319 5.96802 10.7302C5.91292 11.0254 5.98333 11.3789 5.98639 11.7491C5.98761 11.9406 6.00915 12.1314 6.05067 12.3183C6.08741 12.5095 6.12567 12.7038 6.1624 12.8982C6.23587 13.2868 6.38587 13.6631 6.48843 14.0105C6.64149 14.3501 6.74863 14.676 6.89251 14.9285C7.03639 15.1809 7.14047 15.4058 7.22925 15.5404C7.27326 15.6189 7.32128 15.6949 7.37313 15.7684L6.91088 16.0683Z" fill="#4FBB8A"/>
<path d="M8.61737 16.9206C8.61737 16.9206 8.56839 16.8395 8.48727 16.6697C8.37367 16.445 8.2715 16.2147 8.18114 15.9796C8.0541 15.6981 7.96533 15.3478 7.84135 14.9851C7.74206 14.5972 7.66237 14.2045 7.60257 13.8086C7.58115 13.6051 7.55818 13.4016 7.53828 13.1966C7.51214 13.0019 7.5065 12.805 7.52145 12.6091C7.549 12.2296 7.5092 11.8716 7.59033 11.5748C7.70665 10.9812 7.78625 10.5864 7.78625 10.5864C7.78625 10.5864 7.74033 10.9858 7.67451 11.584C7.62094 11.8793 7.68981 12.2312 7.69288 12.603C7.69426 12.7944 7.71582 12.9852 7.75717 13.1721C7.7939 13.3618 7.83217 13.5577 7.8689 13.752C7.94237 14.1406 8.09237 14.517 8.19492 14.8643C8.34798 15.2024 8.45665 15.5298 8.60053 15.7823C8.70185 15.9918 8.81372 16.1961 8.93574 16.3943C8.97975 16.4727 9.02777 16.5488 9.07961 16.6222L8.61737 16.9206Z" fill="#4FBB8A"/>
<path d="M10.3241 17.7744C10.3241 17.7744 10.2751 17.6933 10.1955 17.5235C10.0812 17.2991 9.97903 17.0688 9.88941 16.8335C9.76236 16.5519 9.67511 16.2001 9.5496 15.8374C9.4746 15.4611 9.35216 15.0724 9.31083 14.6609C9.2894 14.4569 9.26797 14.2529 9.24655 14.0489C9.22039 13.8547 9.21475 13.6583 9.22971 13.4629C9.25879 13.0819 9.21899 12.7239 9.29858 12.4271C9.41644 11.835 9.4945 11.4387 9.4945 11.4387C9.4945 11.4387 9.45012 11.838 9.38277 12.4363C9.3292 12.7316 9.39808 13.085 9.40267 13.4552C9.40336 13.6467 9.4244 13.8374 9.46542 14.0244C9.50216 14.2157 9.54042 14.41 9.57715 14.6058C9.65062 14.9929 9.80216 15.3708 9.90318 15.7181C10.0562 16.0562 10.1634 16.3821 10.3088 16.6361C10.41 16.8457 10.5219 17.0499 10.644 17.2481C10.7251 17.3904 10.7879 17.4776 10.7879 17.4776L10.3241 17.7744Z" fill="#4FBB8A"/>
<path d="M12.0311 18.628C12.0311 18.628 11.9821 18.5469 11.901 18.3771C11.8198 18.2072 11.7096 17.9732 11.5948 17.6855C11.48 17.3979 11.3806 17.0521 11.2566 16.691C11.1566 16.3026 11.0764 15.9094 11.0163 15.5129C10.9948 15.311 10.9734 15.1075 10.952 14.9009C10.9258 14.7062 10.9202 14.5093 10.9351 14.3134C10.9642 13.9325 10.9244 13.576 11.004 13.2791C11.1219 12.687 11.1999 12.2908 11.1999 12.2908C11.1999 12.2908 11.1555 12.6886 11.0882 13.2868C11.0346 13.5836 11.1035 13.937 11.1081 14.3073C11.108 14.4982 11.1291 14.6886 11.1709 14.8749C11.2091 15.0677 11.2459 15.262 11.2841 15.4563C11.3576 15.8449 11.5076 16.2213 11.6086 16.5686C11.7617 16.9068 11.8704 17.2342 12.0127 17.4866C12.155 17.7391 12.2607 17.9624 12.3494 18.0986C12.3934 18.177 12.4415 18.2531 12.4933 18.3266L12.0311 18.628Z" fill="#4FBB8A"/>
<path d="M13.7423 18.9418C13.7423 18.9418 13.6933 18.8607 13.6137 18.6909C13.4995 18.4665 13.3973 18.2362 13.3076 18.0009C13.1806 17.7194 13.0918 17.3675 12.9678 17.0049C12.8913 16.627 12.7704 16.2399 12.7275 15.8283C12.7061 15.6263 12.6847 15.4228 12.6632 15.2163C12.6384 15.022 12.6333 14.8257 12.6479 14.6303C12.6739 14.2493 12.6357 13.8929 12.7168 13.596C12.8331 13.0024 12.9112 12.6077 12.9112 12.6077C12.9112 12.6077 12.8668 13.0055 12.801 13.6037C12.7459 13.899 12.8148 14.2524 12.8193 14.6227C12.8206 14.8141 12.8421 15.0049 12.8836 15.1918C12.9188 15.3831 12.9571 15.5774 12.9954 15.7717C13.0673 16.1603 13.2188 16.5367 13.3199 16.8855C13.4729 17.2236 13.5816 17.5511 13.7255 17.8035C13.8271 18.0132 13.9395 18.2174 14.0622 18.4155C14.1057 18.4939 14.1532 18.57 14.2046 18.6435L13.7423 18.9418Z" fill="#4FBB8A"/>
<path d="M15.4458 19.7941C15.3981 19.7128 15.3546 19.6291 15.3157 19.5432C15.2012 19.3189 15.099 19.0886 15.0096 18.8532C14.8826 18.5717 14.7938 18.2213 14.6698 17.8587C14.5933 17.4808 14.4724 17.0937 14.4295 16.6821C14.4081 16.4786 14.3866 16.2751 14.3652 16.0701C14.3396 15.8754 14.3344 15.6784 14.3499 15.4826C14.3774 15.1032 14.3377 14.7452 14.4188 14.4483C14.5351 13.8547 14.6147 13.46 14.6147 13.46C14.6147 13.46 14.5688 13.8593 14.503 14.4575C14.4479 14.7528 14.5183 15.1047 14.5213 15.4765C14.523 15.6678 14.544 15.8585 14.5841 16.0456C14.6224 16.2369 14.6591 16.4312 14.6974 16.6255C14.7871 17.0016 14.8959 17.3728 15.0234 17.7378C15.1764 18.0775 15.2836 18.4034 15.4275 18.6558C15.5295 18.8653 15.6418 19.0695 15.7642 19.2678C15.8082 19.3462 15.8562 19.4223 15.9081 19.4958L15.4458 19.7941Z" fill="#4FBB8A"/>
<path d="M17.1524 20.6476C17.1047 20.5664 17.0612 20.4826 17.0223 20.3967C16.9366 20.2315 16.831 19.9928 16.7162 19.7067C16.6014 19.4206 16.5019 19.0733 16.3764 18.7107C16.277 18.3228 16.1973 17.9301 16.1376 17.5341C16.1162 17.3306 16.0932 17.1287 16.0733 16.9221C16.0472 16.7279 16.0415 16.5315 16.0565 16.3361C16.084 15.9552 16.0442 15.5987 16.1238 15.3019C16.2417 14.7082 16.3213 14.3135 16.3213 14.3135C16.3213 14.3135 16.2754 14.7113 16.2096 15.3095C16.156 15.6048 16.2233 15.9582 16.2279 16.3285C16.2291 16.5199 16.2507 16.7107 16.2922 16.8976C16.3289 17.0889 16.3672 17.2832 16.4039 17.479C16.4774 17.8661 16.6274 18.244 16.73 18.5913C16.883 18.9295 16.9902 19.2569 17.134 19.5093C17.2779 19.7618 17.382 19.9867 17.4708 20.1213C17.5596 20.256 17.6147 20.3493 17.6147 20.3493L17.1524 20.6476Z" fill="#4FBB8A"/>
<path d="M18.8589 21.5015C18.8589 21.5015 18.81 21.4204 18.7288 21.2505C18.6477 21.0807 18.536 20.8466 18.4227 20.5605C18.3094 20.2744 18.2069 19.9271 18.0829 19.5645C18.0079 19.1866 17.8855 18.7995 17.8441 18.3879C17.8227 18.1844 17.7998 17.9825 17.7799 17.7759C17.7537 17.5817 17.7481 17.3853 17.763 17.1899C17.7906 16.809 17.7508 16.451 17.8319 16.1541C17.9497 15.562 18.0278 15.1658 18.0278 15.1658C18.0278 15.1658 17.9834 15.5651 17.9161 16.1633C17.861 16.4586 17.9314 16.812 17.9344 17.1823C17.9364 17.3737 17.958 17.5644 17.9987 17.7515C18.0355 17.9427 18.0737 18.137 18.1105 18.3313C18.1839 18.7199 18.3355 19.0963 18.4365 19.4452C18.5895 19.7833 18.6967 20.1092 18.8421 20.3632C18.9433 20.5727 19.0552 20.777 19.1773 20.9751C19.2213 21.0536 19.2693 21.1296 19.3212 21.2031L18.8589 21.5015Z" fill="#4FBB8A"/>
<path d="M20.5655 22.352C20.5655 22.352 20.5165 22.2724 20.4354 22.101C20.3543 21.9297 20.2441 21.6987 20.1293 21.411C20.0145 21.1234 19.915 20.7776 19.791 20.415C19.6903 20.0273 19.6101 19.6346 19.5507 19.2384C19.5293 19.0365 19.5078 18.833 19.4864 18.6341C19.4603 18.4394 19.4546 18.2425 19.4696 18.0466C19.4986 17.6656 19.4589 17.3091 19.5384 17.0123L19.7344 16.0239C19.7344 16.0239 19.69 16.4217 19.6226 17.0199C19.5675 17.3152 19.6379 17.6687 19.641 18.0405C19.6423 18.2314 19.6639 18.4217 19.7053 18.6081C19.7436 18.8009 19.7788 18.9952 19.817 19.1895C19.8905 19.5781 20.0405 19.9545 20.143 20.3018C20.2961 20.6399 20.4032 20.9673 20.5471 21.2198C20.691 21.4722 20.7951 21.6971 20.8839 21.8318C20.9279 21.9102 20.9759 21.9863 21.0277 22.0597L20.5655 22.352Z" fill="#4FBB8A"/>
<path d="M25.776 25.1382C25.776 25.1382 25.727 25.0571 25.6459 24.8873C25.5647 24.7174 25.4545 24.4833 25.3397 24.1972C25.2249 23.9111 25.1254 23.5638 25.0015 23.2012C24.9249 22.8233 24.804 22.4362 24.7612 22.0247C24.7397 21.8207 24.7183 21.6167 24.6969 21.4127C24.6712 21.2184 24.6661 21.022 24.6816 20.8267C24.7076 20.4457 24.6693 20.0892 24.7489 19.7909C24.8668 19.1988 24.9448 18.8025 24.9448 18.8025C24.9448 18.8025 24.9005 19.2018 24.8331 19.8C24.7795 20.0953 24.8484 20.4488 24.853 20.819C24.8545 21.0104 24.8755 21.2011 24.9158 21.3882C24.954 21.5794 24.9908 21.7737 25.0275 21.968C25.1025 22.3567 25.251 22.733 25.3535 23.0803C25.5066 23.42 25.6152 23.7459 25.7591 23.9983C25.8605 24.2081 25.9729 24.4124 26.0959 24.6103C26.1391 24.6889 26.1866 24.765 26.2382 24.8383L25.776 25.1382Z" fill="#4FBB8A"/>
<path d="M27.1685 25.9019C27.1206 25.8201 27.0771 25.7359 27.0384 25.6494C26.9527 25.4842 26.8471 25.247 26.7323 24.9609C26.6175 24.6748 26.518 24.3275 26.3925 23.9649C26.3159 23.587 26.1966 23.1999 26.1537 22.7883C26.1323 22.5848 26.1108 22.3813 26.0894 22.1763C26.0633 21.9821 26.0577 21.7857 26.0726 21.5903C26.1001 21.2094 26.0603 20.8514 26.1415 20.5545L26.3374 19.5662C26.3374 19.5662 26.293 19.9655 26.2256 20.5637C26.1721 20.859 26.2409 21.2124 26.244 21.5827C26.2452 21.7741 26.2668 21.9649 26.3083 22.1518C26.345 22.3431 26.3833 22.5374 26.42 22.7317C26.4935 23.1203 26.6435 23.4967 26.7461 23.844C26.8991 24.1837 27.0062 24.5096 27.1501 24.762C27.2521 24.9715 27.3645 25.1757 27.4869 25.374C27.5309 25.4524 27.5789 25.5285 27.6307 25.602L27.1685 25.9019Z" fill="#4FBB8A"/>
<path d="M28.5614 26.6638C28.5137 26.5825 28.4702 26.4987 28.4313 26.4128C28.3177 26.1881 28.2156 25.9578 28.1252 25.7228C27.9982 25.4413 27.9094 25.0909 27.7854 24.7283C27.7089 24.3504 27.5895 23.9633 27.5451 23.5518C27.5252 23.3483 27.5022 23.1448 27.4808 22.9398C27.4559 22.7449 27.4507 22.5481 27.4655 22.3522C27.493 21.9728 27.4533 21.6148 27.5344 21.318C27.6522 20.7259 27.7303 20.3296 27.7303 20.3296C27.7303 20.3296 27.6859 20.7289 27.6186 21.3271C27.5635 21.6224 27.6323 21.9743 27.6369 22.3461C27.6382 22.5376 27.6598 22.7284 27.7012 22.9153C27.738 23.1065 27.7747 23.3008 27.813 23.4951C27.8864 23.8838 28.0364 24.2601 28.139 24.6074C28.292 24.9456 28.3992 25.273 28.5431 25.5254C28.6448 25.735 28.7572 25.9393 28.8798 26.1374C28.9238 26.2158 28.9718 26.2919 29.0237 26.3654L28.5614 26.6638Z" fill="#4FBB8A"/>
<path d="M29.9545 27.4272C29.9061 27.346 29.8621 27.2622 29.8229 27.1762C29.7091 26.9516 29.6069 26.7213 29.5167 26.4862C29.3897 26.2047 29.3009 25.8543 29.177 25.4917C29.1004 25.1138 28.9795 24.7267 28.9366 24.3136C28.9167 24.1117 28.8938 23.9082 28.8724 23.7093C28.8475 23.5145 28.8424 23.3176 28.8571 23.1218C28.8831 22.7423 28.8448 22.3843 28.9259 22.0875C29.0423 21.4939 29.1203 21.0991 29.1203 21.0991C29.1203 21.0991 29.0759 21.4969 29.0101 22.0951C28.955 22.3904 29.0239 22.7439 29.0285 23.1157C29.0298 23.3066 29.0513 23.4969 29.0928 23.6833C29.1295 23.8761 29.1662 24.0704 29.2045 24.2647C29.278 24.6533 29.428 25.0297 29.529 25.377C29.6821 25.7151 29.7907 26.0425 29.9346 26.295C30.036 26.5047 30.1484 26.709 30.2713 26.907C30.3525 27.0493 30.4137 27.1349 30.4137 27.1349L29.9545 27.4272Z" fill="#4FBB8A"/>
<path d="M32.2459 28.1906C32.2459 28.1906 32.1953 28.1095 32.1142 27.9397C32.0006 27.715 31.8985 27.4847 31.8081 27.2496C31.6826 26.9681 31.5938 26.6162 31.4683 26.2536C31.3918 25.8772 31.2724 25.4886 31.2295 25.0771C31.2081 24.8751 31.1867 24.6716 31.1652 24.4727C31.1391 24.278 31.1335 24.0811 31.1484 23.8852C31.1775 23.5042 31.1377 23.1477 31.2173 22.8509C31.3351 22.2588 31.4132 21.8625 31.4132 21.8625C31.4132 21.8625 31.3688 22.2603 31.3015 22.8586C31.2464 23.1554 31.3168 23.5073 31.3198 23.8791C31.3218 24.07 31.3434 24.2602 31.3841 24.4467C31.4224 24.6395 31.4591 24.8338 31.4959 25.0281C31.5693 25.4167 31.7193 25.7931 31.8219 26.1404C31.9749 26.4785 32.0821 26.8059 32.2275 27.0584C32.3284 27.2681 32.4403 27.4724 32.5627 27.6704C32.6065 27.7494 32.6545 27.826 32.7066 27.8999L32.2459 28.1906Z" fill="#4FBB8A"/>
<path d="M33.5486 28.8652C33.5005 28.7834 33.4565 28.6991 33.417 28.6128C33.3034 28.3886 33.2013 28.1588 33.1109 27.9243C32.9823 27.6412 32.895 27.2893 32.7695 26.9282C32.693 26.5503 32.5721 26.1633 32.5308 25.7517C32.5093 25.5477 32.4879 25.3437 32.4665 25.1397C32.4411 24.9449 32.4354 24.7481 32.4496 24.5522C32.4772 24.1727 32.4389 23.8147 32.5185 23.5179L32.7221 22.5356C32.7221 22.5356 32.6777 22.935 32.6103 23.5332C32.5568 23.8285 32.6257 24.1819 32.6287 24.5522C32.63 24.7436 32.6516 24.9344 32.693 25.1213C32.7297 25.3126 32.768 25.5069 32.8063 25.7012C32.8955 26.0772 33.0038 26.4485 33.1307 26.8135C33.2838 27.1532 33.3925 27.479 33.5364 27.7315C33.6375 27.9414 33.7499 28.1457 33.8731 28.3435C33.9542 28.4858 34.0155 28.5715 34.0155 28.5715L33.5486 28.8652Z" fill="#4FBB8A"/>
<path d="M35.03 29.7175C35.03 29.7175 34.981 29.6364 34.8999 29.4666C34.7857 29.2422 34.6835 29.0118 34.5938 28.7766C34.4667 28.495 34.378 28.1431 34.254 27.7805C34.1774 27.4042 34.0565 27.0155 34.0137 26.604C33.9938 26.402 33.9708 26.1985 33.9494 25.9996C33.9245 25.8048 33.9194 25.608 33.9341 25.4121C33.9616 25.0311 33.9218 24.6747 34.003 24.3778C34.1208 23.7842 34.1973 23.3879 34.1973 23.3879C34.1973 23.3879 34.153 23.7873 34.0871 24.3855C34.032 24.6823 34.1009 25.0342 34.1055 25.4045C34.1067 25.5959 34.1283 25.7867 34.1698 25.9736C34.2065 26.1649 34.2433 26.3607 34.2815 26.555C34.355 26.9421 34.505 27.32 34.606 27.6673C34.7591 28.0055 34.8678 28.3329 35.0116 28.5853C35.1135 28.7948 35.2259 28.9991 35.3484 29.1973C35.4295 29.3396 35.4922 29.4268 35.4922 29.4268L35.03 29.7175Z" fill="#4FBB8A"/>
<path d="M37.7728 31.1096C37.725 31.0283 37.6816 30.9446 37.6427 30.8587C37.5285 30.6337 37.4263 30.4029 37.3366 30.1671C37.211 29.8872 37.1207 29.5353 36.9983 29.1726C36.8978 28.7849 36.8175 28.3922 36.758 27.9961L36.6937 27.3841C36.6675 27.1894 36.6619 26.9925 36.6769 26.7966C36.7044 26.4171 36.6646 26.0591 36.7457 25.7638C36.8636 25.1702 36.9401 24.7739 36.9401 24.7739C36.9401 24.7739 36.8973 25.1733 36.8299 25.7715C36.7748 26.0668 36.8452 26.4202 36.8483 26.7905C36.8496 26.9819 36.8711 27.1727 36.9126 27.3596C36.9493 27.5509 36.986 27.7452 37.0243 27.9395C37.1138 28.3156 37.2227 28.6868 37.3503 29.0518C37.5034 29.3914 37.6105 29.7189 37.7544 29.9698C37.8983 30.2207 38.0024 30.4471 38.0911 30.5818C38.1352 30.6602 38.1832 30.7363 38.235 30.8097L37.7728 31.1096Z" fill="#4FBB8A"/>
<path d="M39.3876 32.0081C39.3398 31.9268 39.2964 31.843 39.2575 31.7571C39.1438 31.5325 39.0417 31.3022 38.9514 31.0671C38.8259 30.7841 38.7371 30.4337 38.6116 30.0711C38.5366 29.6932 38.4157 29.3061 38.3728 28.8945L38.3085 28.2825C38.2824 28.0883 38.2768 27.8919 38.2917 27.6965C38.3208 27.3156 38.281 26.9591 38.3606 26.6607C38.4784 26.0686 38.5565 25.6724 38.5565 25.6724C38.5565 25.6724 38.5121 26.0717 38.4463 26.6699C38.3897 26.9652 38.4601 27.3186 38.4647 27.6889C38.4653 27.8803 38.4864 28.0711 38.5274 28.258C38.5641 28.4493 38.6024 28.6436 38.6391 28.8379C38.7126 29.2265 38.8641 29.6029 38.9652 29.9502C39.1182 30.2899 39.2254 30.6158 39.3708 30.8682C39.4718 31.0782 39.5842 31.2825 39.7075 31.4802C39.7507 31.5588 39.7982 31.6349 39.8499 31.7082L39.3876 32.0081Z" fill="#4FBB8A"/>
<path d="M42.8453 34.0273C42.8453 34.0273 42.7963 33.9478 42.7152 33.7764C42.6013 33.5518 42.4991 33.3215 42.409 33.0864C42.282 32.8049 42.1932 32.453 42.0693 32.0919C41.9698 31.7035 41.8901 31.3103 41.8305 30.9138C41.809 30.7119 41.7861 30.5084 41.7662 30.3018C41.7401 30.1071 41.7344 29.9102 41.7493 29.7143C41.7769 29.3333 41.7371 28.9768 41.8182 28.68L42.0142 27.6917C42.0142 27.6917 41.9698 28.0894 41.9024 28.6877C41.8488 28.983 41.9177 29.3364 41.9208 29.7082C41.922 29.8991 41.9436 30.0894 41.9851 30.2758C42.0218 30.4686 42.0585 30.6629 42.0968 30.8572C42.1703 31.2458 42.3203 31.6222 42.4228 31.9695C42.5759 32.3076 42.683 32.6351 42.8269 32.8875C42.9288 33.097 43.0412 33.3013 43.1636 33.4995C43.2075 33.5785 43.2555 33.6551 43.3075 33.729L42.8453 34.0273Z" fill="#4FBB8A"/>
<path d="M30.986 27.9211C30.986 27.9211 30.937 27.84 30.8559 27.6702C30.7748 27.5004 30.6646 27.2663 30.5498 26.9802C30.435 26.6941 30.3339 26.3468 30.21 25.9842C30.1334 25.6078 30.0125 25.2192 29.9697 24.8076C29.9498 24.6057 29.9268 24.4022 29.9054 24.1956C29.8797 24.0008 29.8746 23.8039 29.8901 23.6081C29.9161 23.2271 29.8778 22.8706 29.9574 22.5738L30.1533 21.5854C30.1533 21.5854 30.1089 21.9832 30.0431 22.5815C29.988 22.8768 30.0569 23.2302 30.0615 23.602C30.0628 23.7929 30.0843 23.9832 30.1258 24.1696L30.236 24.751C30.3095 25.1396 30.461 25.516 30.562 25.8633C30.7151 26.2014 30.8237 26.5288 30.9676 26.7813C31.0689 26.9911 31.1813 27.1954 31.3044 27.3933C31.3482 27.4723 31.3962 27.5489 31.4482 27.6228L30.986 27.9211Z" fill="#4FBB8A"/>
<path d="M36.3328 30.3908C36.285 30.3095 36.2416 30.2257 36.2027 30.1399C36.117 29.9746 36.0114 29.736 35.8966 29.4498C35.7818 29.1637 35.6807 28.818 35.5568 28.4553C35.4575 28.0669 35.3778 27.6737 35.318 27.2773C35.295 27.0753 35.2751 26.8718 35.2522 26.6729C35.2265 26.4781 35.2214 26.2812 35.2369 26.0854C35.2644 25.706 35.2261 25.3479 35.3057 25.0511C35.4221 24.4575 35.5017 24.0627 35.5017 24.0627C35.5017 24.0627 35.4557 24.4605 35.3899 25.0588C35.3348 25.3541 35.4052 25.7075 35.4083 26.0793C35.4098 26.2701 35.4309 26.4603 35.471 26.6469C35.5093 26.8397 35.546 27.034 35.5843 27.2283C35.6743 27.6043 35.7831 27.9755 35.9103 28.3406C36.0634 28.6787 36.1705 29.0061 36.3144 29.2586C36.4583 29.511 36.5624 29.736 36.6511 29.8706C36.7399 30.0052 36.795 30.0986 36.795 30.0986L36.3328 30.3908Z" fill="#4FBB8A"/>
<path d="M41.4986 33.0851C41.4508 33.0039 41.4074 32.9201 41.3685 32.8342C41.2542 32.6098 41.152 32.3795 41.0623 32.1442C40.9353 31.8627 40.8465 31.5108 40.7225 31.1482C40.6231 30.7603 40.5434 30.3676 40.4838 29.9716C40.4608 29.7681 40.4394 29.5662 40.418 29.3596C40.3923 29.1654 40.3872 28.9689 40.4026 28.7736C40.4302 28.3927 40.3904 28.0362 40.47 27.7378C40.5878 27.1457 40.6659 26.751 40.6659 26.751C40.6659 26.751 40.6231 27.1488 40.5557 27.747C40.5006 28.0423 40.5695 28.3957 40.5741 28.766C40.5753 28.9574 40.5968 29.1482 40.6384 29.3351C40.6751 29.5264 40.7134 29.7207 40.7501 29.9165C40.822 30.3036 40.9736 30.6815 41.0746 31.0288C41.2276 31.367 41.3363 31.6928 41.4802 31.9468C41.5819 32.1564 41.6943 32.3607 41.8169 32.5588C41.8981 32.6996 41.9593 32.7868 41.9593 32.7868L41.4986 33.0851Z" fill="#4FBB8A"/>
<path d="M2.55314 13.4644C2.55314 13.4644 2.50415 13.3833 2.42303 13.2119C2.34191 13.0405 2.2317 12.8095 2.1169 12.5234C2.00211 12.2373 1.90262 11.89 1.77711 11.5274C1.67782 11.1395 1.59813 10.7468 1.53834 10.3508C1.51691 10.1473 1.49547 9.94385 1.47404 9.73883C1.44865 9.54405 1.44301 9.34722 1.45721 9.15131C1.48476 8.77187 1.4465 8.41538 1.52762 8.11704L1.722 7.12866C1.722 7.12866 1.67762 7.52799 1.61027 8.12622C1.5567 8.4215 1.62558 8.77493 1.62864 9.14519C1.62985 9.33665 1.65141 9.52744 1.69293 9.71435C1.72966 9.9056 1.76793 10.0999 1.80619 10.2942C1.89545 10.6702 2.00375 11.0415 2.13068 11.4065C2.28375 11.7462 2.39242 12.0721 2.53477 12.3245C2.67712 12.577 2.78272 12.8019 2.8715 12.9365C2.9181 13.0154 2.9692 13.0915 3.02456 13.1645L2.55314 13.4644Z" fill="#4FBB8A"/>
</g>
</svg>
