<svg width="50" height="37" viewBox="0 0 50 37" fill="none" xmlns="http://www.w3.org/2000/svg">
<g opacity="0.8">
<path d="M48.7062 36.0683L33.5841 0.0185547L32.3337 0.475093L1.38672 17.9237L26.4949 36.0683H48.7062ZM29.2261 15.3581L36.256 32.2488L19.4861 20.7721L29.2261 15.3581Z" fill="#89FAC7"/>
<path d="M26.1224 36.0683H26.8687L1.64862 17.9382L32.3482 0.510675L33.567 0.0620231L36.4745 7.2075L37.9368 10.7927L39.4097 14.374L42.3541 21.5366L45.3182 28.6913L48.2849 35.846L48.3784 36.0723H49.0365L48.8417 35.6131L45.8144 28.4834L42.7871 21.3563L39.7401 14.2359L38.2172 10.6756L36.6838 7.1233L33.613 0.0186114C33.6096 0.0114964 33.6037 0.00585181 33.5965 0.00271139C33.5892 -0.000429035 33.5811 -0.000856182 33.5735 0.00150684L32.3218 0.455411L1.3222 17.8106C1.30383 17.8204 1.28803 17.8343 1.27612 17.8514C1.25446 17.882 1.24577 17.9199 1.25194 17.9568C1.2581 17.9938 1.27861 18.0268 1.30902 18.0487L26.1224 36.0683Z" fill="#4FBB8A"/>
<path d="M19.4703 20.7447L29.1498 15.2333C29.166 15.2239 29.1839 15.2178 29.2025 15.2153C29.2211 15.2129 29.24 15.2141 29.2581 15.219C29.2762 15.2239 29.2932 15.2324 29.308 15.2438C29.3229 15.2553 29.3353 15.2696 29.3446 15.2859L29.3525 15.3004L36.5219 32.1332C36.5461 32.1914 36.5509 32.2559 36.5358 32.3171C36.5206 32.3783 36.4862 32.4331 36.4375 32.4733C36.3889 32.5135 36.3287 32.537 36.2657 32.5405C36.2027 32.5439 36.1403 32.527 36.0876 32.4924L33.9816 31.0754C33.2814 30.5991 32.5759 30.132 31.8757 29.6492L29.7855 28.2019L27.7059 26.7442L25.6328 25.2785L23.569 23.7984C22.8832 23.301 22.1922 22.8129 21.5117 22.309C20.8312 21.8051 20.1442 21.3078 19.4676 20.7973C19.461 20.7921 19.4567 20.7845 19.4554 20.7762C19.4542 20.7679 19.4562 20.7594 19.4611 20.7525C19.4631 20.7489 19.4663 20.7461 19.4703 20.7447ZM19.5479 20.7736C20.2534 21.2104 20.951 21.6591 21.6539 22.1038C22.3567 22.5485 23.0767 23.0247 23.7875 23.4826L25.9158 24.8706L28.0336 26.2732L30.1396 27.6849L32.2455 29.1124C32.9471 29.5847 33.6394 30.0728 34.3357 30.5597L36.4192 32.0069L35.9809 32.3634L29.0905 15.4148L29.2932 15.4846L19.5479 20.7736Z" fill="#4FBB8A"/>
<path d="M47.264 36.0683L32.3341 0.475098L0.136719 18.3802L25.4608 36.0683H47.264ZM27.755 15.4331L35.0008 32.7054L18.0215 20.8458L27.755 15.4331Z" fill="#89FAC7"/>
<path d="M25.08 36.0684H25.8434L0.403516 18.3935L32.3179 0.519957L35.2241 7.66017L36.6865 11.2467L38.1593 14.828L41.1037 21.9906L44.0678 29.1453L46.9372 36.0684H47.5953L44.568 28.9387L41.5407 21.8117L38.4936 14.6912L36.9695 11.1309L35.4374 7.5786L32.3653 0.473911C32.3634 0.470148 32.3607 0.466808 32.3574 0.464098C32.3542 0.461388 32.3504 0.459367 32.3464 0.458139C32.3423 0.456912 32.3381 0.456517 32.3339 0.456967C32.3297 0.457417 32.3256 0.458702 32.3219 0.460757L0.0744603 18.2698C0.0556312 18.2806 0.0390867 18.2949 0.0257607 18.312C0.0149983 18.3272 0.00738814 18.3444 0.00334707 18.3626C-0.000694003 18.3809 -0.00108439 18.3997 0.00222237 18.418C0.00552913 18.4364 0.0124535 18.4539 0.0225955 18.4696C0.0327375 18.4853 0.0458963 18.4988 0.0613013 18.5093L25.08 36.0684Z" fill="#4FBB8A"/>
<path d="M18.0053 20.8182L27.686 15.3094C27.702 15.3003 27.7196 15.2944 27.7379 15.2921C27.7562 15.2898 27.7747 15.2911 27.7924 15.296C27.8102 15.3009 27.8268 15.3093 27.8413 15.3206C27.8558 15.3319 27.8679 15.346 27.8769 15.3621L27.8848 15.3752L35.2701 32.5883C35.2958 32.6468 35.3016 32.712 35.2868 32.7741C35.272 32.8362 35.2373 32.8918 35.1881 32.9324C35.1388 32.973 35.0776 32.9965 35.0138 32.9992C34.95 33.0019 34.887 32.9838 34.8345 32.9475L32.6995 31.4831C31.9901 30.9911 31.2754 30.5069 30.5712 30.0082L28.4547 28.5176L26.3488 27.0137L24.2428 25.4994L22.154 23.9693C21.459 23.4561 20.7588 22.9535 20.0691 22.4312C19.3794 21.9089 18.6857 21.3997 18 20.8734C17.9943 20.8674 17.9912 20.8594 17.9912 20.8511C17.9912 20.8428 17.9943 20.8348 18 20.8287L18.0053 20.8182ZM18.0829 20.8484C18.7976 21.3024 19.5044 21.7694 20.2139 22.2273C20.9233 22.6851 21.6617 23.1785 22.3751 23.6548L24.5298 25.0902L26.6752 26.5375L28.8127 27.9979L30.9411 29.4714C31.6505 29.9622 32.3521 30.4661 33.0589 30.9621L35.1648 32.462L34.7239 32.8172L27.6163 15.4857L27.815 15.5555L18.0829 20.8484Z" fill="#4FBB8A"/>
<path d="M32.4697 2.93893L29.3914 4.25269L29.4735 4.44509L32.5519 3.13134L32.4697 2.93893Z" fill="#4FBB8A"/>
<path d="M32.4697 2.93893L29.3914 4.25269L29.4735 4.44509L32.5519 3.13134L32.4697 2.93893Z" fill="#4FBB8A"/>
<path d="M31.2732 4.92227L33.0053 4.18286L33.0883 4.37495L31.3548 5.11436L31.2732 4.92227Z" fill="#4FBB8A"/>
<path d="M31.7793 6.10773L33.5114 5.36963L33.5944 5.56171L31.8622 6.30113L31.7793 6.10773Z" fill="#4FBB8A"/>
<path d="M32.2864 7.29434L34.0172 6.55493L34.1001 6.74702L32.3693 7.48643L32.2864 7.29434Z" fill="#4FBB8A"/>
<path d="M32.792 8.47981L34.5255 7.7417L34.6071 7.9338L32.8749 8.67321L32.792 8.47981Z" fill="#4FBB8A"/>
<path d="M32.0334 10.4335L35.1134 9.11914L35.195 9.31254L32.1164 10.6256L32.0334 10.4335Z" fill="#4FBB8A"/>
<path d="M32.0334 10.4335L35.1134 9.11914L35.195 9.31254L32.1164 10.6256L32.0334 10.4335Z" fill="#4FBB8A"/>
<path d="M33.9158 11.1085L35.6466 10.3704L35.7295 10.5624L33.9974 11.3005L33.9158 11.1085Z" fill="#4FBB8A"/>
<path d="M34.4211 12.2953L36.1533 11.5559L36.2362 11.748L34.5041 12.4874L34.4211 12.2953Z" fill="#4FBB8A"/>
<path d="M34.9277 13.4808L36.6599 12.7427L36.7415 12.9348L35.0093 13.6742L34.9277 13.4808Z" fill="#4FBB8A"/>
<path d="M35.4355 14.6674L37.1677 13.928L37.2493 14.1201L35.5172 14.8595L35.4355 14.6674Z" fill="#4FBB8A"/>
<path d="M37.7612 15.2934L34.6816 16.6077L34.7638 16.8001L37.8433 15.4858L37.7612 15.2934Z" fill="#4FBB8A"/>
<path d="M37.7612 15.2934L34.6816 16.6077L34.7638 16.8001L37.8433 15.4858L37.7612 15.2934Z" fill="#4FBB8A"/>
<path d="M36.5579 17.2961L38.2887 16.5566L38.3716 16.7487L36.6395 17.4882L36.5579 17.2961Z" fill="#4FBB8A"/>
<path d="M37.0625 18.4815L38.7947 17.7434L38.8776 17.9355L37.1454 18.6736L37.0625 18.4815Z" fill="#4FBB8A"/>
<path d="M39.2917 18.9515L37.5605 19.6899L37.6427 19.8823L39.3738 19.1439L39.2917 18.9515Z" fill="#4FBB8A"/>
<path d="M38.0762 20.8538L39.807 20.1157L39.8912 20.3078L38.1591 21.0459L38.0762 20.8538Z" fill="#4FBB8A"/>
<path d="M37.3184 22.8062L40.397 21.4932L40.4786 21.6853L37.4 22.9996L37.3184 22.8062Z" fill="#4FBB8A"/>
<path d="M37.3184 22.8062L40.397 21.4932L40.4786 21.6853L37.4 22.9996L37.3184 22.8062Z" fill="#4FBB8A"/>
<path d="M39.1995 23.4826L40.9316 22.7432L41.0132 22.9366L39.2811 23.6747L39.1995 23.4826Z" fill="#4FBB8A"/>
<path d="M39.7061 24.668L41.4369 23.9299L41.5198 24.122L39.7877 24.8614L39.7061 24.668Z" fill="#4FBB8A"/>
<path d="M40.2129 25.8546L41.9437 25.1152L42.0266 25.3086L40.2945 26.0467L40.2129 25.8546Z" fill="#4FBB8A"/>
<path d="M40.7195 27.0401L42.4503 26.302L42.5319 26.4941L40.8011 27.2335L40.7195 27.0401Z" fill="#4FBB8A"/>
<path d="M39.96 28.9938L43.0386 27.6794L43.1202 27.8728L40.0416 29.1859L39.96 28.9938Z" fill="#4FBB8A"/>
<path d="M39.96 28.9938L43.0386 27.6794L43.1202 27.8728L40.0416 29.1859L39.96 28.9938Z" fill="#4FBB8A"/>
<path d="M41.8408 29.6688L43.573 28.9307L43.6546 29.1227L41.9224 29.8609L41.8408 29.6688Z" fill="#4FBB8A"/>
<path d="M42.3467 30.8556L44.0775 30.1162L44.1604 30.3096L42.4283 31.0477L42.3467 30.8556Z" fill="#4FBB8A"/>
<path d="M42.8533 32.0411L44.5854 31.303L44.6683 31.4951L42.9362 32.2345L42.8533 32.0411Z" fill="#4FBB8A"/>
<path d="M43.3601 33.2277L45.0922 32.4883L45.1738 32.6817L43.443 33.4198L43.3601 33.2277Z" fill="#4FBB8A"/>
<path d="M42.6016 35.1802L45.6802 33.8672L45.7631 34.0593L42.6845 35.3723L42.6016 35.1802Z" fill="#4FBB8A"/>
<path d="M42.6016 35.1802L45.6802 33.8672L45.7631 34.0593L42.6845 35.3723L42.6016 35.1802Z" fill="#4FBB8A"/>
<path d="M44.4824 35.8566L46.2146 35.1172L46.2975 35.3106L44.5653 36.0487L44.4824 35.8566Z" fill="#4FBB8A"/>
<path d="M4.60645 21.3418L7.32444 18.5276L5.01974 21.6892L4.60645 21.3418Z" fill="#4FBB8A"/>
<path d="M3.54883 20.6421L5.6561 18.2988L3.98187 20.967L3.54883 20.6421Z" fill="#4FBB8A"/>
<path d="M2.30444 19.8921L3.9484 18.0962L2.74142 20.2105L2.30444 19.8921Z" fill="#4FBB8A"/>
<path d="M5.53125 22.1075L8.40719 18.7656L5.96166 22.4337L5.53125 22.1075Z" fill="#4FBB8A"/>
<path d="M6.43433 22.8261L9.59983 19.283L6.85683 23.1616L6.43433 22.8261Z" fill="#4FBB8A"/>
<path d="M7.35059 23.3917L10.6859 19.7078L7.76915 23.7311L7.35059 23.3917Z" fill="#4FBB8A"/>
<path d="M8.37622 24.0325L11.6168 20.3735L8.80004 24.368L8.37622 24.0325Z" fill="#4FBB8A"/>
<path d="M9.38013 24.5824L12.5469 21.0393L9.80263 24.9193L9.38013 24.5824Z" fill="#4FBB8A"/>
<path d="M10.3105 25.2494L13.4761 21.7063L10.7331 25.5849L10.3105 25.2494Z" fill="#4FBB8A"/>
<path d="M11.2412 25.9152L14.4067 22.3721L11.6637 26.2507L11.2412 25.9152Z" fill="#4FBB8A"/>
<path d="M12.1709 26.581L15.3377 23.0378L12.5947 26.9165L12.1709 26.581Z" fill="#4FBB8A"/>
<path d="M13.1016 27.2467L16.2684 23.7036L13.5241 27.5822L13.1016 27.2467Z" fill="#4FBB8A"/>
<path d="M14.0312 27.9124L17.1968 24.3706L14.4538 28.2493L14.0312 27.9124Z" fill="#4FBB8A"/>
<path d="M14.9619 28.5796L18.1261 25.0352L15.3844 28.9151L14.9619 28.5796Z" fill="#4FBB8A"/>
<path d="M15.8916 29.2438L19.0584 25.7007L16.3154 29.5806L15.8916 29.2438Z" fill="#4FBB8A"/>
<path d="M16.8223 29.9097L19.9878 26.3679L17.2448 30.2466L16.8223 29.9097Z" fill="#4FBB8A"/>
<path d="M17.752 30.5766L20.9175 27.0334L18.1745 30.9121L17.752 30.5766Z" fill="#4FBB8A"/>
<path d="M18.6836 31.2424L21.8491 27.6992L19.1061 31.5792L18.6836 31.2424Z" fill="#4FBB8A"/>
<path d="M19.6143 31.9081L22.7785 28.365L20.0368 32.245L19.6143 31.9081Z" fill="#4FBB8A"/>
<path d="M20.543 32.5739L23.7085 29.0308L20.9668 32.9107L20.543 32.5739Z" fill="#4FBB8A"/>
<path d="M21.4736 33.2397L24.6391 29.6965L21.8961 33.5765L21.4736 33.2397Z" fill="#4FBB8A"/>
<path d="M22.4033 33.9054L25.5702 30.3623L22.8272 34.2423L22.4033 33.9054Z" fill="#4FBB8A"/>
<path d="M23.3352 34.5712L26.4994 31.0281L23.7564 34.908L23.3352 34.5712Z" fill="#4FBB8A"/>
<path d="M24.2637 35.2382L27.4292 31.6951L24.6862 35.5737L24.2637 35.2382Z" fill="#4FBB8A"/>
<path d="M25.7379 36.0684L28.3598 32.3608L25.1943 35.904L25.401 36.0684H25.7379Z" fill="#4FBB8A"/>
<path d="M27.1398 36.0682L29.2905 33.0264L26.5725 36.0682H27.1398Z" fill="#4FBB8A"/>
<path d="M28.5399 36.0683L30.2207 33.6921L28.0977 36.0683H28.5399Z" fill="#4FBB8A"/>
</g>
</svg>
