<svg width="37" height="62" viewBox="0 0 37 62" fill="none" xmlns="http://www.w3.org/2000/svg">
<path d="M7.62939e-06 43.9187C0.000659943 47.8677 1.29866 51.7079 3.69576 54.8529C6.09285 57.9978 9.45726 60.2745 13.2751 61.3353C17.0929 62.396 21.1543 62.1825 24.8389 60.7273C28.5235 59.2721 31.6287 56.6552 33.6802 53.2764C35.7318 49.8975 36.6169 45.9425 36.2004 42.0153C35.784 38.0882 34.0887 34.4048 31.3737 31.5278C28.6586 28.6508 25.0731 26.7384 21.1646 26.0826C17.2561 25.4268 13.2397 26.0637 9.72866 27.8961C10.9421 23.4112 12.6535 19.6548 14.7019 16.658C18.7987 10.6541 24.1661 7.75025 29.8186 7.75025C30.8502 7.75025 31.8394 7.34197 32.5688 6.61523C33.2982 5.8885 33.708 4.90283 33.708 3.87506C33.708 2.8473 33.2982 1.86164 32.5688 1.1349C31.8394 0.408161 30.8502 -0.000118256 29.8186 -0.000118256C21.1531 -0.000118256 13.5506 4.56227 8.26625 12.2971C3.02854 19.9752 7.62939e-06 30.8102 7.62939e-06 43.9187Z" fill="#FFB357"/>
</svg>
