<svg width="82" height="62" viewBox="0 0 82 62" fill="none" xmlns="http://www.w3.org/2000/svg">
<path d="M7.62939e-06 43.9187C0.000659943 47.8677 1.29866 51.7079 3.69576 54.8529C6.09285 57.9978 9.45726 60.2745 13.2751 61.3353C17.0929 62.396 21.1543 62.1825 24.8389 60.7273C28.5235 59.2721 31.6287 56.6552 33.6802 53.2764C35.7318 49.8975 36.6169 45.9425 36.2004 42.0153C35.784 38.0882 34.0887 34.4048 31.3737 31.5278C28.6586 28.6508 25.0731 26.7384 21.1646 26.0826C17.2561 25.4268 13.2397 26.0637 9.72866 27.8961C10.9421 23.4112 12.6535 19.6548 14.7019 16.658C18.7987 10.6541 24.1661 7.75025 29.8186 7.75025C30.8502 7.75025 31.8394 7.34197 32.5688 6.61523C33.2982 5.8885 33.708 4.90283 33.708 3.87506C33.708 2.8473 33.2982 1.86164 32.5688 1.1349C31.8394 0.408161 30.8502 -0.000118256 29.8186 -0.000118256C21.1531 -0.000118256 13.5506 4.56227 8.26625 12.2971C3.02854 19.9752 7.62939e-06 30.8102 7.62939e-06 43.9187Z" fill="#FFB357"/>
<path d="M45.699 43.9187C45.6997 47.8677 46.9977 51.7079 49.3948 54.8529C51.7919 57.9978 55.1563 60.2745 58.9741 61.3353C62.792 62.396 66.8533 62.1825 70.5379 60.7273C74.2225 59.2721 77.3277 56.6552 79.3793 53.2764C81.4308 49.8975 82.316 45.9425 81.8995 42.0153C81.483 38.0882 79.7878 34.4048 77.0727 31.5278C74.3577 28.6508 70.7721 26.7384 66.8636 26.0826C62.9552 25.4268 58.9387 26.0637 55.4277 27.8961C56.6412 23.4112 58.3525 19.6548 60.4009 16.658C64.4977 10.6541 69.8651 7.75025 75.5177 7.75025C76.5492 7.75025 77.5385 7.34197 78.2679 6.61523C78.9973 5.8885 79.4071 4.90283 79.4071 3.87506C79.4071 2.8473 78.9973 1.86164 78.2679 1.1349C77.5385 0.408161 76.5492 -0.000118256 75.5177 -0.000118256C66.8521 -0.000118256 59.2497 4.56227 53.9653 12.2971C48.7276 19.9752 45.699 30.8102 45.699 43.9187Z" fill="#FFB357"/>
</svg>
