<svg width="100" height="100" viewBox="0 0 100 100" fill="none" xmlns="http://www.w3.org/2000/svg">
<circle cx="50" cy="50" r="50" fill="#1A6241"/>
<g clip-path="url(#clip0_591_1494)">
<path d="M25.0001 74.4154V25.6823C29.9376 25.6784 34.8751 25.6732 39.8126 25.6719C40.6654 25.6719 40.5769 25.5716 40.5769 26.4154C40.5782 42.1706 40.5769 57.9258 40.5769 73.681C40.5769 73.7943 40.5652 73.9102 40.5782 74.0222C40.6173 74.3529 40.4584 74.4323 40.1524 74.431C35.1016 74.4206 30.0496 74.418 24.9988 74.4141L25.0001 74.4154ZM38.8373 38.2422C38.8373 34.9453 38.8321 31.6498 38.8451 28.3529C38.8464 27.9662 38.7631 27.8177 38.3399 27.8203C34.9298 27.8373 31.5196 27.836 28.1108 27.8203C27.7201 27.819 27.6186 27.9401 27.6199 28.3177C27.6303 34.9427 27.6303 41.5677 27.6186 48.1927C27.6186 48.612 27.7605 48.7045 28.1498 48.7019C31.5274 48.6888 34.905 48.6862 38.2826 48.7045C38.7371 48.7071 38.8503 48.569 38.8477 48.1289C38.8308 44.8334 38.8386 41.5365 38.8386 38.2396L38.8373 38.2422ZM33.2097 71.5117C36.1003 71.5209 38.4389 69.2227 38.4532 66.362C38.4675 63.4258 36.1485 61.0664 33.2436 61.0625C30.3464 61.0586 28.0131 63.3828 28.0079 66.28C28.0027 69.2045 30.2891 71.5039 33.211 71.5117H33.2097Z" fill="white"/>
<path d="M38.8372 38.2423C38.8372 41.5392 38.8294 44.8348 38.8464 48.1316C38.849 48.5717 38.7344 48.7098 38.2813 48.7072C34.9037 48.6889 31.5261 48.6915 28.1484 48.7045C27.7578 48.7059 27.6159 48.6147 27.6172 48.1954C27.6289 41.5704 27.6289 34.9454 27.6185 28.3204C27.6185 27.9428 27.7188 27.8204 28.1094 27.823C31.5195 27.8374 34.9297 27.8387 38.3386 27.823C38.7617 27.8204 38.8451 27.9689 38.8438 28.3556C38.8307 31.6525 38.8359 34.948 38.8359 38.2449L38.8372 38.2423ZM33.1875 30.1668C34.4675 30.1668 35.7487 30.1616 37.0287 30.1707C37.3555 30.1733 37.5899 30.1538 37.5833 29.7176C37.5781 29.3074 37.3607 29.2879 37.0534 29.2892C34.5078 29.2944 31.9636 29.2944 29.418 29.2892C29.1107 29.2892 28.8932 29.3074 28.8867 29.7176C28.8802 30.1551 29.1146 30.1733 29.4414 30.1707C30.6901 30.1616 31.9375 30.1668 33.1862 30.1668H33.1875ZM33.2448 35.9155C34.5091 35.9155 35.7734 35.909 37.0378 35.9194C37.3737 35.922 37.5899 35.8842 37.5833 35.4559C37.5768 35.0392 37.3451 35.0353 37.0456 35.0366C34.5 35.0405 31.9557 35.0418 29.4102 35.0366C29.0938 35.0366 28.888 35.0717 28.888 35.4741C28.888 35.8673 29.0768 35.9233 29.4011 35.9207C30.6823 35.9103 31.9622 35.9168 33.2435 35.9168L33.2448 35.9155ZM33.2591 37.866C31.9948 37.866 30.7305 37.8686 29.4649 37.8647C29.1602 37.8647 28.8893 37.8374 28.888 38.2944C28.8867 38.7332 29.1198 38.7462 29.4453 38.7462C31.974 38.7397 34.5039 38.7397 37.0326 38.7462C37.362 38.7462 37.5872 38.7241 37.5846 38.2892C37.582 37.8282 37.3047 37.8634 37.0039 37.8634C35.7552 37.866 34.5078 37.8634 33.2591 37.8634V37.866ZM33.2122 41.5704C34.4922 41.5704 35.7734 41.5665 37.0534 41.573C37.3594 41.5743 37.5846 41.5561 37.5846 41.146C37.5846 40.7618 37.4141 40.6889 37.0807 40.6902C34.5195 40.6993 31.9583 40.698 29.3971 40.6902C29.0651 40.6902 28.8906 40.7579 28.8906 41.1447C28.8906 41.5548 29.112 41.5756 29.4193 41.5743C30.6836 41.5665 31.9479 41.5717 33.2122 41.5717V41.5704ZM33.1849 32.9949C34.4818 32.9949 35.78 32.9923 37.0768 32.9975C37.3633 32.9975 37.5859 32.9819 37.5807 32.5952C37.5768 32.2423 37.3828 32.2098 37.1094 32.2098C34.5313 32.2137 31.9518 32.2137 29.3737 32.2098C29.1068 32.2098 28.8997 32.2267 28.8945 32.5861C28.888 32.9663 29.0964 32.9988 29.3906 32.9975C30.655 32.991 31.9206 32.9949 33.1849 32.9949Z" fill="#1A6241"/>
<path d="M33.2097 71.5117C30.2879 71.5026 28.0014 69.2031 28.0066 66.28C28.0118 63.3828 30.3451 61.0586 33.2423 61.0625C36.1472 61.0664 38.4675 63.4258 38.4519 66.362C38.4376 69.224 36.099 71.5208 33.2084 71.5117H33.2097ZM28.9845 66.3971C28.9923 68.6966 30.836 70.526 33.1459 70.5273C35.461 70.5273 37.2865 68.6771 37.2879 66.3268C37.2892 64.0729 35.4233 62.2227 33.1485 62.224C30.8152 62.2253 28.9767 64.0677 28.9832 66.3984L28.9845 66.3971Z" fill="#1A6241"/>
<path d="M74.862 74.3998H59.3594V25.7175H74.862V74.3998ZM72.7409 27.8308C72.4909 27.8308 72.3307 27.8308 72.1706 27.8308C68.8099 27.8308 65.4492 27.8399 62.0898 27.8204C61.6367 27.8178 61.5195 27.9519 61.5208 28.3946C61.5339 34.9688 61.5352 41.5444 61.5195 48.1186C61.5195 48.5977 61.6693 48.7097 62.1276 48.7071C65.4557 48.6889 68.7839 48.698 72.112 48.6967C72.5321 48.6967 72.7426 48.4832 72.7435 48.0561C72.7435 41.53 72.7435 35.004 72.7435 28.4779C72.7435 28.2865 72.7435 28.0964 72.7435 27.8295L72.7409 27.8308ZM67.069 71.5131C69.9727 71.5352 72.3372 69.2253 72.3594 66.3464C72.3815 63.4597 70.0443 61.0808 67.1693 61.0639C64.2578 61.0457 61.9036 63.3699 61.8698 66.2957C61.8372 69.1277 64.1927 71.4923 67.069 71.5144V71.5131Z" fill="white"/>
<path d="M42.198 25.6863H57.7058V74.3933H42.198V25.6863ZM55.5235 48.6772V27.8595H44.3686V48.6785H55.5235V48.6772ZM49.9649 71.5248C52.8582 71.5131 55.2097 69.1576 55.1954 66.2826C55.1811 63.3946 52.8269 61.0574 49.9389 61.0626C47.0587 61.0678 44.7019 63.4324 44.7084 66.3087C44.7162 69.1889 47.0808 71.5365 49.9649 71.5248Z" fill="#F0FCF7"/>
<path d="M33.1876 30.1667C31.9389 30.1667 30.6915 30.1615 29.4428 30.1706C29.1159 30.1732 28.8816 30.1537 28.8881 29.7175C28.8933 29.3073 29.112 29.2878 29.4193 29.2891C31.9649 29.2943 34.5092 29.2943 37.0547 29.2891C37.362 29.2891 37.5795 29.3086 37.5847 29.7175C37.5912 30.155 37.3568 30.1732 37.03 30.1706C35.7501 30.1615 34.4688 30.1667 33.1889 30.1667H33.1876Z" fill="#F0FCF7"/>
<path d="M33.2434 35.9154C31.9622 35.9154 30.6822 35.9089 29.401 35.9193C29.0767 35.9219 28.8879 35.8659 28.8879 35.4727C28.8879 35.0703 29.0937 35.0339 29.4101 35.0352C31.9556 35.0417 34.4999 35.0404 37.0455 35.0352C37.345 35.0352 37.578 35.0378 37.5833 35.4545C37.5898 35.8828 37.3736 35.9206 37.0377 35.918C35.7734 35.9076 34.509 35.9141 33.2447 35.9141L33.2434 35.9154Z" fill="#F0FCF7"/>
<path d="M33.2578 37.8659C34.5065 37.8659 35.7539 37.8672 37.0026 37.8659C37.3034 37.8659 37.5807 37.8295 37.5833 38.2917C37.5859 38.7253 37.3607 38.7487 37.0313 38.7487C34.5026 38.7422 31.9727 38.7422 29.444 38.7487C29.1185 38.7487 28.8854 38.7357 28.8867 38.2969C28.888 37.8399 29.1589 37.8659 29.4635 37.8672C30.7279 37.8711 31.9922 37.8685 33.2578 37.8685V37.8659Z" fill="#F0FCF7"/>
<path d="M33.211 41.5702C31.9467 41.5702 30.6824 41.5663 29.4181 41.5728C29.1095 41.5741 28.8881 41.5533 28.8894 41.1431C28.8894 40.7577 29.0639 40.6887 29.3959 40.6887C31.9571 40.6965 34.5183 40.6965 37.0795 40.6887C37.4141 40.6887 37.5834 40.7603 37.5834 41.1444C37.5834 41.5559 37.3595 41.5741 37.0522 41.5715C35.7722 41.565 34.491 41.5689 33.211 41.5689V41.5702Z" fill="#F0FCF7"/>
<path d="M33.1836 32.9947C31.9193 32.9947 30.6536 32.9908 29.3893 32.9973C29.095 32.9986 28.8867 32.966 28.8932 32.5858C28.8997 32.2265 29.1055 32.2082 29.3724 32.2095C31.9505 32.2121 34.5299 32.2121 37.1081 32.2095C37.3815 32.2095 37.5755 32.2421 37.5794 32.5949C37.5846 32.9817 37.362 32.9986 37.0755 32.9973C35.7786 32.9921 34.4805 32.9947 33.1836 32.9947Z" fill="#F0FCF7"/>
<path d="M28.9844 66.3971C28.9766 64.0677 30.8151 62.2253 33.1498 62.2227C35.4232 62.2214 37.2904 64.0716 37.2891 66.3255C37.2878 68.6758 35.4623 70.5273 33.1472 70.526C30.8373 70.526 28.9922 68.6953 28.9857 66.3958L28.9844 66.3971Z" fill="#4A4A4A"/>
<path d="M72.7408 27.8307C72.7408 28.0976 72.7408 28.2877 72.7408 28.4791C72.7408 35.0052 72.7408 41.5312 72.7408 48.0572C72.7408 48.4835 72.5303 48.697 72.1093 48.6979C68.7812 48.6979 65.453 48.6901 62.1249 48.7083C61.6666 48.7109 61.5168 48.5989 61.5168 48.1197C61.5325 41.5455 61.5312 34.97 61.5181 28.3958C61.5181 27.9544 61.6353 27.819 62.0872 27.8216C65.4478 27.8398 68.8085 27.832 72.1679 27.832C72.328 27.832 72.4895 27.832 72.7382 27.832L72.7408 27.8307ZM67.1405 29.2903C65.8606 29.2903 64.5793 29.2942 63.2994 29.2877C62.9999 29.2864 62.8098 29.332 62.8059 29.7044C62.802 30.0768 62.953 30.1731 63.2981 30.1718C65.8593 30.1627 68.4205 30.164 70.9817 30.1705C71.3007 30.1705 71.4999 30.1276 71.4999 29.7291C71.4999 29.332 71.302 29.2851 70.9817 29.2864C69.7017 29.2955 68.4205 29.2903 67.1405 29.2903ZM67.1262 35.9153C68.4075 35.9153 69.6874 35.9114 70.9687 35.9179C71.2747 35.9192 71.5012 35.9036 71.4999 35.4908C71.4999 35.1093 71.3333 35.0325 70.9973 35.0338C68.4361 35.0429 65.8749 35.0416 63.3137 35.0338C62.983 35.0338 62.8059 35.0989 62.8059 35.4856C62.8059 35.8932 63.0234 35.9192 63.3332 35.9166C64.5976 35.9088 65.8619 35.914 67.1262 35.914V35.9153ZM67.1327 38.7421C68.3971 38.7421 69.6614 38.7395 70.9257 38.7434C71.2317 38.7434 71.4999 38.7682 71.5012 38.3112C71.5025 37.871 71.2655 37.8606 70.9426 37.8619C68.414 37.8671 65.884 37.8684 63.3554 37.8619C63.0234 37.8619 62.7981 37.8893 62.8046 38.3203C62.8098 38.733 63.0351 38.746 63.3385 38.7447C64.6028 38.7382 65.8671 38.7421 67.1314 38.7421H67.1327ZM67.1549 41.569C68.4192 41.569 69.6835 41.5638 70.9478 41.5729C71.2773 41.5755 71.5064 41.552 71.5012 41.1171C71.496 40.7057 71.2747 40.6901 70.9687 40.6914C68.4244 40.6966 65.8788 40.6966 63.3346 40.6914C63.026 40.6914 62.8098 40.7148 62.8046 41.1224C62.7994 41.5612 63.0377 41.5755 63.3619 41.5742C64.6262 41.5664 65.8905 41.5703 67.1549 41.5703V41.569ZM67.1262 32.9934C68.4075 32.9934 69.6887 32.9934 70.97 32.9934C71.2369 32.9934 71.4921 33.0195 71.496 32.6158C71.5012 32.2343 71.2903 32.207 70.9986 32.207C68.4361 32.2109 65.8749 32.2109 63.3124 32.207C63.0247 32.207 62.8059 32.2252 62.8098 32.6106C62.8137 33.0117 63.0624 32.9934 63.332 32.9934C64.5963 32.9921 65.8619 32.9934 67.1262 32.9934Z" fill="#1A6241"/>
<path d="M67.0704 71.5131C64.1941 71.491 61.8386 69.1264 61.8712 66.2944C61.905 63.3686 64.2592 61.0457 67.1707 61.0626C70.0457 61.0795 72.3829 63.4584 72.3608 66.3451C72.3386 69.2241 69.974 71.5352 67.0704 71.5118V71.5131ZM67.0391 70.5287C69.3516 70.5287 71.1941 68.6681 71.1954 66.3321C71.1954 64.0847 69.3217 62.228 67.0509 62.2241C64.7227 62.2201 62.8686 64.0743 62.879 66.3959C62.8894 68.6993 64.7319 70.53 67.0405 70.53L67.0391 70.5287Z" fill="#1A6241"/>
<path d="M55.5234 48.6784H44.3684V27.8594H55.5234V48.6784ZM49.9543 35.9154C51.2525 35.9154 52.5494 35.9089 53.8476 35.9193C54.2004 35.9219 54.3411 35.7865 54.3411 35.4297C54.3411 35.0833 54.1588 35.0365 53.8775 35.0365C51.2655 35.0417 48.6536 35.0417 46.0429 35.0365C45.733 35.0365 45.5637 35.1003 45.5598 35.4635C45.5546 35.8464 45.7265 35.9245 46.0624 35.9219C47.3606 35.9102 48.6575 35.9167 49.9556 35.9167L49.9543 35.9154ZM49.94 30.1667C51.2395 30.1667 52.539 30.1641 53.8372 30.1693C54.1249 30.1693 54.3463 30.1536 54.3411 29.7656C54.3372 29.3997 54.1783 29.2865 53.8346 29.2878C51.2525 29.2943 48.6705 29.2943 46.0885 29.2878C45.7642 29.2878 45.5702 29.3607 45.5598 29.7435C45.5481 30.1602 45.7864 30.1706 46.0911 30.1693C47.3736 30.1628 48.6575 30.1667 49.94 30.1667ZM49.927 38.7435C51.2265 38.7435 52.526 38.7422 53.8254 38.7448C54.1015 38.7448 54.3411 38.7539 54.3424 38.3555C54.345 37.9557 54.1575 37.862 53.8007 37.862C51.2343 37.8698 48.6679 37.8698 46.1028 37.862C45.7473 37.862 45.5585 37.9544 45.5611 38.3542C45.5637 38.7513 45.8007 38.7448 46.078 38.7435C47.3606 38.7396 48.6445 38.7422 49.927 38.7422V38.7435ZM49.927 41.5703C51.2096 41.5703 52.4934 41.5703 53.776 41.5703C54.0494 41.5703 54.3398 41.6263 54.3411 41.1823C54.3424 40.7812 54.1523 40.6901 53.7981 40.6914C51.2317 40.6992 48.6666 40.6992 46.1002 40.6914C45.7447 40.6914 45.5559 40.7839 45.5585 41.1836C45.5611 41.582 45.802 41.5729 46.0767 41.5716C47.3593 41.569 48.6431 41.5703 49.9257 41.5716L49.927 41.5703ZM49.9504 32.2122C48.6705 32.2122 47.3905 32.2122 46.1106 32.2122C45.8437 32.2122 45.5624 32.1992 45.578 32.5924C45.5924 32.9401 45.8176 32.9987 46.1132 32.9974C48.6731 32.9922 51.233 32.9922 53.7929 32.9974C54.0898 32.9974 54.3124 32.9375 54.3254 32.5898C54.3398 32.1966 54.0572 32.2122 53.7903 32.2122C52.5103 32.2122 51.2304 32.2122 49.9504 32.2122Z" fill="#1A6241"/>
<path d="M67.1406 29.2904C68.4206 29.2904 69.7018 29.2956 70.9818 29.2865C71.3021 29.2839 71.5 29.3307 71.5 29.7292C71.5 30.1276 71.3008 30.1719 70.9818 30.1706C68.4206 30.1641 65.8594 30.1628 63.2982 30.1719C62.9518 30.1732 62.8021 30.0768 62.806 29.7044C62.8099 29.332 63 29.2865 63.2995 29.2878C64.5794 29.2956 65.8607 29.2904 67.1406 29.2904Z" fill="#F0FCF7"/>
<path d="M67.1262 35.9154C65.8619 35.9154 64.5976 35.9115 63.3333 35.918C63.0234 35.9193 62.8046 35.8946 62.8059 35.487C62.8059 35.099 62.983 35.0339 63.3137 35.0352C65.8749 35.043 68.4361 35.043 70.9973 35.0352C71.3333 35.0352 71.4999 35.1107 71.4999 35.4922C71.4999 35.905 71.2734 35.9206 70.9687 35.9193C69.6874 35.9128 68.4075 35.9167 67.1262 35.9167V35.9154Z" fill="#F0FCF7"/>
<path d="M67.1329 38.7421C65.8685 38.7421 64.6042 38.7382 63.3399 38.7447C63.0365 38.746 62.8113 38.733 62.806 38.3202C62.7995 37.8879 63.0248 37.8606 63.3568 37.8619C65.8855 37.8684 68.4154 37.8684 70.9441 37.8619C71.267 37.8619 71.504 37.871 71.5027 38.3111C71.5014 38.7668 71.2344 38.7434 70.9271 38.7434C69.6628 38.7395 68.3985 38.7421 67.1342 38.7421H67.1329Z" fill="#F0FCF7"/>
<path d="M67.1548 41.5703C65.8905 41.5703 64.6262 41.5651 63.3619 41.5742C63.0376 41.5768 62.7981 41.5612 62.8046 41.1224C62.8098 40.7148 63.0246 40.6914 63.3345 40.6914C65.8788 40.6966 68.4244 40.6966 70.9686 40.6914C71.2746 40.6914 71.496 40.7057 71.5012 41.1172C71.5077 41.5521 71.2772 41.5755 70.9478 41.5729C69.6835 41.5638 68.4192 41.569 67.1548 41.569V41.5703Z" fill="#F0FCF7"/>
<path d="M67.1262 32.9947C65.8619 32.9947 64.5963 32.9947 63.332 32.9947C63.0611 32.9947 62.8124 33.0129 62.8098 32.6119C62.8072 32.2265 63.0247 32.2083 63.3124 32.2083C65.8749 32.2122 68.4361 32.2122 70.9986 32.2083C71.2903 32.2083 71.5012 32.2343 71.496 32.6171C71.4908 33.0208 71.2369 32.9947 70.97 32.9947C69.6887 32.9947 68.4075 32.9947 67.1262 32.9947Z" fill="#F0FCF7"/>
<path d="M67.0389 70.5274C64.7317 70.5274 62.8879 68.6967 62.8775 66.3933C62.8671 64.0717 64.7212 62.2175 67.0494 62.2214C69.3215 62.2253 71.1952 64.0821 71.1939 66.3295C71.1939 68.6655 69.3501 70.5261 67.0376 70.5261L67.0389 70.5274Z" fill="#4A4A4A"/>
<path d="M49.9545 35.9154C48.6564 35.9154 47.3595 35.9089 46.0613 35.9206C45.7254 35.9232 45.5535 35.8464 45.5587 35.4622C45.5639 35.099 45.7319 35.0352 46.0418 35.0352C48.6538 35.0417 51.2657 35.0404 53.8764 35.0352C54.1577 35.0352 54.3413 35.0807 54.34 35.4284C54.34 35.7839 54.198 35.9206 53.8465 35.918C52.5483 35.9076 51.2514 35.9141 49.9532 35.9141L49.9545 35.9154Z" fill="#F0FCF7"/>
<path d="M49.9402 30.1653C48.6576 30.1653 47.3738 30.1614 46.0912 30.1679C45.7865 30.1692 45.5483 30.1588 45.56 29.7421C45.5704 29.3593 45.7644 29.2864 46.0886 29.2864C48.6707 29.2916 51.2527 29.2929 53.8347 29.2864C54.1772 29.2864 54.3373 29.3997 54.3412 29.7642C54.3464 30.151 54.1251 30.1679 53.8373 30.1679C52.5378 30.1627 51.2397 30.1653 49.9402 30.1653Z" fill="#F0FCF7"/>
<path d="M49.9272 38.7423C48.6446 38.7423 47.3608 38.741 46.0782 38.7436C45.8022 38.7436 45.5639 38.7514 45.5613 38.3543C45.5587 37.9545 45.7475 37.8608 46.103 37.8621C48.6694 37.8699 51.2358 37.8699 53.8009 37.8621C54.1564 37.8621 54.3439 37.9558 54.3426 38.3556C54.34 38.7527 54.1017 38.7449 53.8256 38.7449C52.5262 38.7423 51.2267 38.7436 49.9272 38.7436V38.7423Z" fill="#F0FCF7"/>
<path d="M49.927 41.5704C48.6445 41.5704 47.3606 41.5691 46.0781 41.5704C45.8033 41.5704 45.5624 41.5808 45.5598 41.1824C45.5572 40.7826 45.746 40.6889 46.1015 40.6902C48.6679 40.698 51.233 40.698 53.7994 40.6902C54.1536 40.6902 54.3437 40.78 54.3424 41.1811C54.3411 41.6251 54.0507 41.5691 53.7773 41.5691C52.4947 41.5691 51.2109 41.5691 49.9283 41.5691L49.927 41.5704Z" fill="#F0FCF7"/>
<path d="M49.9504 32.211C51.2304 32.211 52.5103 32.211 53.7903 32.211C54.0572 32.211 54.3397 32.1954 54.3254 32.5886C54.3124 32.935 54.0897 32.9962 53.7929 32.9962C51.233 32.991 48.6731 32.991 46.1132 32.9962C45.8176 32.9962 45.5923 32.9376 45.578 32.5912C45.5624 32.198 45.8436 32.211 46.1106 32.211C47.3905 32.211 48.6705 32.211 49.9504 32.211Z" fill="#F0FCF7"/>
<path d="M49.8671 62.2239C52.1431 62.2239 54.0233 64.0728 54.0312 66.3137C54.039 68.664 52.177 70.5364 49.8411 70.526C47.5468 70.5155 45.6926 68.6484 45.7056 66.3619C45.7187 64.0624 47.5689 62.2226 49.8658 62.2239H49.8671Z" fill="#4A4A4A"/>
</g>
<defs>
<clipPath id="clip0_591_1494">
<rect width="50" height="50" fill="white" transform="translate(25 25)"/>
</clipPath>
</defs>
</svg>
