<svg width="100" height="100" viewBox="0 0 100 100" fill="none" xmlns="http://www.w3.org/2000/svg">
<circle cx="50" cy="50" r="50" fill="#1A6241"/>
<path d="M60.9387 39.0364C58.6158 39.0364 56.2929 39.0364 53.9231 39.0364C53.9231 40.0872 53.9231 41.0859 53.9231 42.0312C51.3489 39.4556 48.7708 36.8775 46.2668 34.3736C46.9739 33.6132 47.7551 32.7721 48.5364 31.9309C48.7226 31.9596 48.9088 32.0129 49.095 32.0129C52.0181 32.0181 54.9426 32.0142 57.8658 32.0181C59.509 32.0195 60.9283 33.4426 60.9335 35.0885C60.9374 36.4049 60.9374 37.7213 60.9387 39.0364Z" fill="white"/>
<path d="M38.2708 60.9506C40.595 60.9506 42.9192 60.9506 45.2903 60.9506C45.2903 59.8959 45.2903 58.8972 45.2903 57.948C47.8684 60.5261 50.4478 63.1069 53.078 65.7371C52.3411 66.4389 51.5338 67.2071 50.7278 67.9753C47.6041 67.9727 44.4804 67.9727 41.3567 67.9688C39.7004 67.9662 38.2799 66.5522 38.2747 64.905C38.2708 63.5873 38.2721 62.2696 38.2708 60.9506Z" fill="white"/>
<path d="M69.5298 56.2449C69.3045 57.0535 69.0558 57.8621 68.453 58.4766C68.0637 58.8738 67.6079 59.2058 67.1821 59.5678C66.4152 59.8477 65.6861 60.2032 64.8071 60.0717C62.7681 59.7683 60.9504 57.7488 60.9374 55.6733C60.9282 54.3061 60.9374 52.9389 60.9387 51.573C61.5689 51.5678 62.1991 51.5795 62.828 51.5522C64.1926 51.4936 65.4178 51.0782 66.4035 50.0886C66.6743 49.8048 66.9439 49.5196 67.2134 49.2371C67.5012 49.5014 67.7707 49.7514 68.0415 50.0001C68.3436 50.3165 68.617 50.6694 68.9543 50.9402C69.4152 51.31 69.6183 51.7488 69.5363 52.3282C69.535 53.6329 69.5324 54.9389 69.5298 56.2449Z" fill="#B98561"/>
<path d="M39.9297 44.3398C40.7617 44.5039 41.5664 44.7253 42.2422 45.2826C43.1849 46.0586 43.7279 47.0365 43.7383 48.263C43.7565 50.4596 43.7435 52.6562 43.7435 54.8516C43.7435 55.0286 43.7435 55.2044 43.7435 55.4531C42.9349 55.4531 42.1615 55.4531 41.388 55.4531C41.388 53.6432 41.388 51.8333 41.388 50.026C40.8398 50.026 40.3607 50.026 39.8477 50.026C39.8477 51.8568 39.8477 53.6549 39.8477 55.4531C38.7995 55.4531 37.7513 55.4518 36.7031 55.4518C36.6654 54.9036 36.6406 54.3542 36.5885 53.8073C36.474 52.6185 36.349 51.431 36.2214 50.2435C36.1289 49.3776 36.0247 48.5117 35.9258 47.6471C36.2266 47.194 36.5273 46.7409 36.8281 46.2865C37.043 46.4766 37.2578 46.6654 37.5117 46.8906C38.2891 46.1146 39.0521 45.3555 39.8086 44.5898C39.8711 44.5286 39.8906 44.4245 39.9297 44.3398Z" fill="white"/>
<path d="M69.6235 62.3152C70.4556 62.4792 71.2603 62.7006 71.936 63.2579C72.8787 64.0339 73.4217 65.0118 73.4321 66.2384C73.4504 68.435 73.4373 70.6316 73.4373 72.8269C73.4373 73.004 73.4373 73.1798 73.4373 73.4285C72.6287 73.4285 71.8553 73.4285 71.0819 73.4285C71.0819 71.6186 71.0819 69.8087 71.0819 68.0014C70.5337 68.0014 70.0545 68.0014 69.5415 68.0014C69.5415 69.8321 69.5415 71.6303 69.5415 73.4285C68.4933 73.4285 67.4451 73.4272 66.397 73.4272C66.3592 72.879 66.3345 72.3295 66.2824 71.7826C66.1678 70.5938 66.0428 69.4063 65.9152 68.2188C65.8228 67.3529 65.7186 66.4871 65.6196 65.6225C65.9204 65.1694 66.2212 64.7162 66.522 64.2618C66.7368 64.4519 66.9517 64.6407 67.2056 64.866C67.9829 64.0899 68.7459 63.3308 69.5024 62.5652C69.5636 62.504 69.5832 62.3998 69.6235 62.3152Z" fill="white"/>
<path d="M39.8371 38.2695C39.6118 39.0794 39.3631 39.8866 38.7603 40.5025C38.371 40.8997 37.9152 41.2317 37.4894 41.5924C37.3254 41.6588 37.1652 41.7486 36.9947 41.7877C36.5428 41.8906 36.0598 42.1158 35.6353 42.0377C33.6561 41.6718 32.0324 39.6353 32.0246 37.6223C32.0207 36.5807 32.0611 35.5364 32.0129 34.4973C31.9725 33.6119 32.0754 32.8137 32.8059 32.2135C33.1444 32.4778 33.496 32.7265 33.8163 33.0103C34.3501 33.4817 34.966 33.7656 35.6366 33.4726C36.121 33.2616 36.5441 32.8801 36.9517 32.526C37.5194 32.0325 38.1392 31.8502 38.8319 32.1471C39.5233 32.4439 39.8618 33.0025 39.8384 33.7682C39.8319 33.9622 39.8423 34.1575 39.8449 34.3515C39.8423 35.6575 39.8397 36.9635 39.8371 38.2695Z" fill="#B98561"/>
<path d="M60.9386 39.0365C60.9373 37.7214 60.9373 36.405 60.9347 35.0899C60.9308 33.4441 59.5116 32.0222 57.867 32.0196C54.9438 32.017 52.0194 32.0209 49.0962 32.0144C48.91 32.0144 48.7238 31.961 48.5376 31.9324C50.3006 30.1798 52.0636 28.4285 53.8853 26.616C53.8853 27.6563 53.8853 28.6355 53.8853 29.6667C57.0363 29.6667 60.1327 29.6667 63.2537 29.6667C63.2537 32.8061 63.2537 35.892 63.2537 39.0365C62.4842 39.0365 61.7121 39.0365 60.9386 39.0365Z" fill="white"/>
<path d="M38.2708 60.9504C38.2721 62.2681 38.2721 63.5859 38.276 64.9049C38.2812 66.552 39.7018 67.9661 41.3581 67.9687C44.4818 67.9726 47.6055 67.9739 50.7292 67.9752C48.931 69.7369 47.1328 71.4986 45.3255 73.2668C45.3255 72.3306 45.3255 71.3515 45.3255 70.3202C42.1745 70.3202 39.0781 70.3202 35.957 70.3202C35.957 67.1809 35.957 64.095 35.957 60.9504C36.724 60.9504 37.4974 60.9504 38.2708 60.9504Z" fill="white"/>
<path d="M39.8451 34.3515C39.8424 34.1575 39.8333 33.9622 39.8385 33.7681C39.862 33.0025 39.5234 32.4439 38.832 32.1471C38.1393 31.8502 37.5195 32.0312 36.9518 32.526C36.5443 32.8801 36.1211 33.2603 35.6367 33.4726C34.9661 33.7655 34.3503 33.4817 33.8164 33.0103C33.4948 32.7265 33.1432 32.4778 32.806 32.2135C32.3203 31.8853 31.8281 32.0247 31.3359 32.1926C31.3685 30.7356 32.0234 29.5429 32.9674 28.4973C33.8411 27.5312 34.9831 27.0051 36.2188 26.6614C37.8281 26.8749 39.0872 27.6978 40.0768 28.9439C40.9805 30.0819 41.4362 31.3892 41.401 32.8554C41.3893 33.358 41.3945 33.8606 41.3932 34.3632C40.8776 34.358 40.3607 34.3541 39.8451 34.3515Z" fill="#4A4A4A"/>
<path d="M68.0416 50C67.7708 49.7513 67.5 49.5013 67.2135 49.237C66.944 49.5208 66.6731 49.8047 66.4036 50.0885C66.25 50.0573 66.0976 50.0026 65.944 50C65.2773 49.9896 64.6106 49.9857 63.944 49.9974C62.9609 50.0156 62.1367 49.625 61.444 48.9779C60.3711 47.974 59.9596 46.7292 60.2435 45.2734C60.8151 44.7695 61.5013 44.5443 62.2434 44.53C63.5429 44.5052 64.8476 44.5833 66.1432 44.5065C67.4062 44.431 68.6575 45.2474 68.7864 46.8229C70.5286 47.0833 71.1927 48.0039 71.0755 49.9974C70.0638 49.9974 69.0533 49.9987 68.0416 50Z" fill="#4A4A4A"/>
<path d="M33.5949 55.4532C32.5467 55.4532 31.4985 55.4532 30.4491 55.4545C30.4491 53.6485 30.4491 51.8438 30.4491 50.0001C29.8944 50.0001 29.397 50.0001 28.8983 50.0001C28.8983 49.4298 28.8761 48.8595 28.9009 48.2917C28.9634 46.8542 29.6587 45.7891 30.9621 44.9402C31.5714 45.5912 32.1769 46.2384 32.7602 46.8608C33.0428 46.6733 33.2668 46.5248 33.4907 46.3764C33.7394 46.7371 33.9959 47.0912 34.2303 47.461C34.3032 47.5756 34.3631 47.7332 34.3514 47.8634C34.2537 48.9285 34.1366 49.991 34.0298 51.0548C33.8826 52.5196 33.7394 53.9871 33.5949 55.4532Z" fill="white"/>
<path d="M63.2878 73.4283C62.2396 73.4283 61.1914 73.4283 60.1419 73.4296C60.1419 71.6236 60.1419 69.8189 60.1419 67.9752C59.5872 67.9752 59.0898 67.9752 58.5911 67.9752C58.5911 67.4049 58.569 66.8346 58.5937 66.2668C58.6562 64.8293 59.3516 63.7642 60.6536 62.9153C61.263 63.5663 61.8698 64.2135 62.4518 64.8359C62.7344 64.6484 62.9583 64.4999 63.1823 64.3515C63.431 64.7122 63.6875 65.0663 63.9219 65.4361C63.9948 65.5507 64.0547 65.7083 64.043 65.8385C63.9453 66.9036 63.8281 67.9661 63.7213 69.0299C63.5755 70.4947 63.4323 71.9622 63.2878 73.4283Z" fill="white"/>
<path d="M33.4921 46.3749C33.2681 46.5234 33.0429 46.6731 32.7616 46.8593C32.1783 46.2369 31.5728 45.5898 30.9635 44.9387C29.6601 45.7877 28.9648 46.8528 28.9023 48.2903C28.8775 48.8593 28.8984 49.4296 28.8997 49.9986C28.9023 51.8163 28.9049 53.6327 28.9075 55.4504C28.1471 55.4504 27.3853 55.4504 26.5533 55.4504C26.5533 55.2499 26.5533 55.0767 26.5533 54.9049C26.5533 52.7747 26.552 50.6458 26.5546 48.5155C26.5572 46.5455 27.7838 44.9908 29.6913 44.5181C30.7278 44.2616 31.7629 43.9947 32.7981 43.7317C33.4452 43.9439 34.095 44.1484 34.7382 44.3723C34.8593 44.414 34.9543 44.5312 35.0611 44.6132C34.7343 44.9517 34.3997 45.2838 34.0846 45.6327C33.8723 45.8684 33.6887 46.1275 33.4921 46.3749Z" fill="white"/>
<path d="M63.1849 64.3503C62.9609 64.4987 62.7357 64.6484 62.4544 64.8346C61.8711 64.2122 61.2656 63.5651 60.6562 62.9141C59.3529 63.763 58.6589 64.8281 58.5964 66.2656C58.5716 66.8346 58.5924 67.4049 58.5937 67.974C58.5964 69.7917 58.599 71.6081 58.6016 73.4258C57.8411 73.4258 57.0794 73.4258 56.2474 73.4258C56.2474 73.2253 56.2474 73.0521 56.2474 72.8802C56.2474 70.75 56.2461 68.6211 56.2487 66.4909C56.2513 64.5208 57.4779 62.9661 59.3854 62.4935C60.4219 62.237 61.457 61.9688 62.4922 61.707C63.1393 61.9193 63.7891 62.1237 64.4323 62.3477C64.5534 62.3893 64.6484 62.5065 64.7552 62.5885C64.4284 62.9271 64.0938 63.2591 63.7786 63.6081C63.5651 63.8438 63.3815 64.1029 63.1849 64.3503Z" fill="white"/>
<path d="M35.0599 44.6158C34.9531 44.5337 34.8581 44.4178 34.737 44.3749C34.0937 44.1509 33.444 43.9452 32.7969 43.7343C32.7995 43.5884 32.7877 43.44 32.806 43.2955C32.9414 42.2343 32.75 41.3606 31.7747 40.6783C31.0104 40.1431 30.7461 39.2095 30.4987 38.2707C30.1159 38.2707 29.7304 38.272 29.3437 38.2707C28.3411 38.2655 27.526 37.6145 27.3502 36.6783C27.1719 35.729 27.7226 34.8098 28.681 34.4569C28.7565 34.4296 28.8307 34.3944 28.9049 34.3632C29.4153 34.3632 29.9271 34.3632 30.4896 34.3632C30.3541 33.4348 30.5586 32.6913 31.3333 32.1926C31.8255 32.0246 32.3177 31.8853 32.8034 32.2134C32.0729 32.8137 31.97 33.6119 32.0104 34.4973C32.0586 35.5363 32.0182 36.5806 32.0221 37.6223C32.0286 39.6353 33.6536 41.6718 35.6328 42.0376C36.056 42.1158 36.5403 41.8918 36.9922 41.7876C37.1627 41.7486 37.3229 41.6587 37.487 41.5923C37.4857 41.8501 37.4831 42.108 37.4817 42.3658C36.2552 42.9803 34.9752 43.1509 33.651 42.7408C33.4922 43.69 33.4922 43.69 34.3008 43.9608C34.6849 44.0897 35.0677 44.2199 35.4518 44.3501C35.3802 44.4387 35.3073 44.5272 35.2357 44.6158C35.1784 44.6158 35.1198 44.6158 35.0599 44.6158Z" fill="#B98561"/>
<path d="M64.7539 62.5912C64.6471 62.5092 64.552 62.3933 64.4309 62.3503C63.7877 62.1264 63.138 61.9207 62.4908 61.7097C62.4934 61.5639 62.4817 61.4154 62.4999 61.2709C62.6367 60.2084 62.4427 59.336 61.4687 58.6537C60.7044 58.1186 60.4413 57.185 60.2031 56.2826C59.651 56.2501 59.0937 56.2761 58.5611 56.1746C57.6367 55.9975 57.0585 55.2631 57.0299 54.3555C57.0012 53.448 57.5416 52.7084 58.4348 52.4259C58.4934 52.4076 58.5442 52.3634 58.5989 52.3321C59.108 52.3321 59.6171 52.3321 60.1367 52.3321C60.1523 52.0457 60.1653 51.8126 60.1796 51.573C60.4622 51.573 60.7018 51.573 60.94 51.573C60.9387 52.9402 60.9296 54.3074 60.9387 55.6733C60.9531 57.7488 62.7695 59.7683 64.8085 60.0717C65.6874 60.2032 66.4166 59.8464 67.1835 59.5678C67.1809 59.8256 67.1796 60.0834 67.1783 60.3412C65.9518 60.9558 64.6718 61.1264 63.3476 60.7162C63.1887 61.6654 63.1887 61.6654 63.9973 61.9363C64.3815 62.0652 64.7643 62.1954 65.1484 62.3243C65.0768 62.4128 65.0039 62.5014 64.9322 62.5899C64.871 62.5899 64.8124 62.5899 64.7539 62.5912Z" fill="#B98561"/>
<path d="M60.9386 51.573C60.699 51.573 60.4594 51.573 60.1782 51.573C60.1652 51.8126 60.1521 52.0457 60.1352 52.3321C59.6157 52.3321 59.1066 52.3321 58.5975 52.3321C58.5961 51.0053 58.5662 49.6772 58.6001 48.3516C58.6326 47.0665 59.1587 46.0118 60.2433 45.2722C59.9607 46.7292 60.3709 47.974 61.4438 48.9766C62.1365 49.6251 62.9607 50.0157 63.9438 49.9962C64.6105 49.9832 65.2771 49.9884 65.9438 49.9988C66.0975 50.0014 66.2498 50.0561 66.4034 50.0873C65.4165 51.0769 64.1925 51.4936 62.8279 51.5509C62.1977 51.5795 61.5675 51.5678 60.9386 51.573Z" fill="#4A4A4A"/>
<path d="M31.3346 32.1914C30.5598 32.6901 30.3567 33.4336 30.4908 34.362C29.9283 34.362 29.4166 34.362 28.9062 34.362C28.897 33.1953 28.8228 32.026 29.1913 30.8854C30.147 27.9219 33.2799 26.03 36.2174 26.6602C34.9817 27.0039 33.8398 27.53 32.9661 28.4961C32.0221 29.5417 31.3684 30.7344 31.3346 32.1914Z" fill="#4A4A4A"/>
<path d="M35.0597 44.616C35.1183 44.616 35.1782 44.616 35.2368 44.616C35.7668 45.1733 36.2967 45.7306 36.8267 46.2891C36.5259 46.7423 36.2251 47.1954 35.9243 47.6498C35.686 47.6498 35.4465 47.6498 35.1665 47.6498C34.8944 50.2878 34.6274 52.8699 34.3605 55.4506C34.104 55.4519 33.8475 55.4532 33.591 55.4545C33.7355 53.9871 33.8787 52.5209 34.0259 51.0535C34.1326 49.9897 34.2511 48.9272 34.3475 47.8621C34.3592 47.7319 34.2993 47.5743 34.2264 47.4597C33.992 47.0912 33.7355 46.7358 33.4868 46.3751C33.6834 46.1277 33.867 45.8686 34.0793 45.6342C34.3996 45.2852 34.7342 44.9545 35.0597 44.616Z" fill="#C1DB9B"/>
<path d="M64.7538 62.5911C64.8124 62.5911 64.8723 62.5911 64.9309 62.5911C65.4609 63.1484 65.9908 63.7056 66.5208 64.2642C66.22 64.7174 65.9192 65.1705 65.6184 65.6249C65.3801 65.6249 65.1405 65.6249 64.8606 65.6249C64.5885 68.2629 64.3215 70.845 64.0546 73.4257C63.7981 73.427 63.5416 73.4283 63.2851 73.4296C63.4296 71.9622 63.5728 70.496 63.72 69.0286C63.8267 67.9648 63.9452 66.9023 64.0416 65.8372C64.0533 65.7069 63.9934 65.5494 63.9205 65.4348C63.6861 65.0663 63.4296 64.7109 63.1809 64.3502C63.3775 64.1028 63.5611 63.8437 63.7734 63.6093C64.0924 63.2603 64.427 62.9296 64.7538 62.5911Z" fill="#C1DB9B"/>
<path d="M34.3645 55.4492C34.6314 52.8672 34.8971 50.2865 35.1705 47.6484C35.4504 47.6484 35.6887 47.6484 35.9283 47.6484C36.0273 48.5143 36.1301 49.3789 36.2239 50.2448C36.3515 51.4323 36.4765 52.6198 36.5911 53.8086C36.6431 54.3555 36.6692 54.9049 36.7056 55.4531C35.9244 55.4518 35.1444 55.4505 34.3645 55.4492Z" fill="#C1DB9B"/>
<path d="M64.0571 73.4246C64.3241 70.8425 64.5897 68.2618 64.8631 65.6238C65.1431 65.6238 65.3813 65.6238 65.6209 65.6238C65.7199 66.4897 65.8228 67.3542 65.9165 68.2201C66.0441 69.4076 66.1691 70.5951 66.2837 71.7839C66.3358 72.3308 66.3618 72.8803 66.3983 73.4285C65.617 73.4272 64.8371 73.4259 64.0571 73.4246Z" fill="#C1DB9B"/>
<path d="M39.8449 34.3516C40.3618 34.3555 40.8774 34.3594 41.3944 34.3633C42.479 34.8034 42.979 35.4323 42.9634 36.3359C42.9452 37.4102 42.1327 38.237 41.0545 38.2695C40.6496 38.2813 40.2433 38.2708 39.8384 38.2708C39.8397 36.9635 39.8423 35.6576 39.8449 34.3516Z" fill="#B98561"/>
<path d="M69.5298 56.2449C69.5324 54.9389 69.535 53.6329 69.5376 52.3269C70.0532 52.3308 70.5675 52.3334 71.0832 52.3373C72.1665 52.7722 72.6704 53.4037 72.6561 54.3087C72.6379 55.3842 71.8267 56.211 70.7472 56.2436C70.341 56.2566 69.936 56.2449 69.5298 56.2449Z" fill="#B98561"/>
<path d="M28.9075 55.4518C28.9049 53.6341 28.9023 51.8177 28.8997 50C29.3984 50 29.8958 50 30.4504 50C30.4504 51.8437 30.4504 53.6484 30.4504 55.4544C29.9348 55.4531 29.4205 55.4531 28.9075 55.4518Z" fill="#1A6241"/>
<path d="M39.8489 55.4544C39.8489 53.6562 39.8489 51.8581 39.8489 50.0273C40.3619 50.0273 40.8411 50.0273 41.3892 50.0273C41.3892 51.8346 41.3892 53.6445 41.3892 55.4544C40.8749 55.4544 40.3619 55.4544 39.8489 55.4544Z" fill="#1A6241"/>
<path d="M58.6001 73.4272C58.5975 71.6095 58.5949 69.7931 58.5923 67.9753C59.091 67.9753 59.5884 67.9753 60.1431 67.9753C60.1431 69.8191 60.1431 71.6238 60.1431 73.4298C59.6274 73.4285 59.1144 73.4285 58.6001 73.4272Z" fill="#1A6241"/>
<path d="M69.5415 73.4298C69.5415 71.6316 69.5415 69.8334 69.5415 68.0027C70.0545 68.0027 70.5337 68.0027 71.0819 68.0027C71.0819 69.81 71.0819 71.6199 71.0819 73.4298C70.5688 73.4298 70.0545 73.4298 69.5415 73.4298Z" fill="#1A6241"/>
<path d="M36.8281 46.2878C36.2982 45.7306 35.7682 45.1733 35.2383 44.6147C35.3099 44.5261 35.3828 44.4376 35.4544 44.3477C36.1354 44.1407 36.8164 43.935 37.4987 43.7292C38.3099 43.9324 39.1211 44.1355 39.931 44.3386C39.8919 44.4233 39.8711 44.5274 39.8086 44.5899C39.0521 45.3556 38.2891 46.1147 37.5117 46.8907C37.2578 46.6667 37.043 46.4779 36.8281 46.2878Z" fill="white"/>
<path d="M66.5208 64.2629C65.9908 63.7056 65.4609 63.1484 64.9309 62.5898C65.0025 62.5012 65.0754 62.4127 65.1471 62.3228C65.828 62.1158 66.509 61.9101 67.1913 61.7043C68.0025 61.9075 68.8137 62.1106 69.6236 62.3137C69.5846 62.3984 69.5637 62.5025 69.5012 62.565C68.7447 63.3306 67.9817 64.0898 67.2043 64.8658C66.9504 64.6418 66.7356 64.453 66.5208 64.2629Z" fill="white"/>
<path d="M67.1901 61.7056C66.5091 61.9114 65.8281 62.1184 65.1458 62.3241C64.7617 62.1952 64.3789 62.065 63.9948 61.9361C63.1862 61.6653 63.1862 61.6653 63.345 60.7161C64.6693 61.1262 65.9492 60.9556 67.1758 60.3411C67.181 60.7955 67.1862 61.2499 67.1901 61.7056Z" fill="#B98561"/>
<path d="M37.4974 43.7306C36.8164 43.9363 36.1354 44.1433 35.4531 44.349C35.069 44.2201 34.6862 44.0886 34.3021 43.961C33.4948 43.6902 33.4948 43.6902 33.6523 42.741C34.9765 43.1511 36.2565 42.9806 37.483 42.366C37.4883 42.8204 37.4935 43.2748 37.4974 43.7306Z" fill="#B98561"/>
<path d="M71.0833 52.3372C70.5677 52.3333 70.0534 52.3307 69.5378 52.3268C69.6198 51.7487 69.4167 51.3086 68.9557 50.9388C68.6172 50.668 68.3451 50.3151 68.043 49.9987C69.0547 49.9974 70.0651 49.9974 71.0768 49.9961C71.0781 50.7773 71.0807 51.5573 71.0833 52.3372Z" fill="#4A4A4A"/>
</svg>
