<svg width="100" height="100" viewBox="0 0 100 100" fill="none" xmlns="http://www.w3.org/2000/svg">
<circle cx="50" cy="50" r="50" fill="#1A6241"/>
<g clip-path="url(#clip0_535_3570)">
<path d="M67.8971 49.707C68.1211 49.6744 68.3438 49.6431 68.5677 49.6106C68.5677 58.0741 68.5677 66.5377 68.5677 75.0012C54.0456 75.0012 39.5234 75.0012 25 75.0012C25 73.0442 25 71.0937 25 69.1418C26.7891 69.1379 28.5794 69.1327 30.3685 69.1288C32.1523 69.1288 33.9362 69.1275 35.7201 69.1275C37.5091 69.1275 39.2982 69.1275 41.0872 69.1262C42.8711 69.1275 44.6536 69.1288 46.4375 69.1288C48.2279 69.1288 50.0195 69.1288 51.8099 69.1275C53.5951 69.1275 55.3789 69.1262 57.1641 69.1262C58.9518 69.1262 60.7409 69.1262 62.5286 69.1262C63.5443 69.1262 64.5599 69.1262 65.5768 69.1262C65.5768 65.6874 65.5768 62.2994 65.5768 58.8866C64.9701 58.8866 64.3971 58.9348 63.8372 58.871C63.4219 58.8228 63.0221 58.6288 62.6159 58.4986C62.0117 57.7369 61.9961 57.3411 62.53 56.384C62.6172 56.2903 62.7135 56.203 62.7917 56.1028C64.0391 54.4908 65.276 52.8723 66.5352 51.2695C66.9609 50.7252 67.4414 50.2252 67.8971 49.707Z" fill="white"/>
<path d="M25 48.7305C25.3789 47.9114 26.0156 47.5859 26.9115 47.6458C27.6211 47.694 28.3359 47.6549 29.1263 47.6549C29.1263 47.4596 29.1263 47.2904 29.1263 47.1211C29.1263 45.9167 29.1237 44.7135 29.1276 43.5091C29.1315 42.3672 29.7018 41.7969 30.8333 41.7956C33.3984 41.7943 35.9635 41.7956 38.5299 41.7956C38.707 41.7956 38.8841 41.7956 39.1042 41.7956C39.112 41.6133 39.125 41.4583 39.125 41.3021C39.1263 40.0325 39.1211 38.7643 39.1276 37.4948C39.1328 36.5417 39.7292 35.9401 40.6797 35.9388C43.2943 35.9336 45.9076 35.9375 48.5221 35.9375C48.6966 35.9375 48.8711 35.9375 49.0951 35.9375C49.0951 35.2956 49.0951 34.6979 49.0951 34.1016C49.0951 32.8971 49.1068 31.694 49.0911 30.4896C49.0807 29.5885 49.7917 28.8815 50.5404 28.9245C50.5404 32.2331 50.5404 35.5404 50.5404 38.8489C47.9258 38.8555 45.3112 38.8607 42.6966 38.8672C42.5039 38.8672 42.3112 38.8672 42.0742 38.8672C42.0651 39.0469 42.0521 39.2018 42.0521 39.3581C42.0508 40.6107 42.056 41.8646 42.0495 43.1172C42.0443 44.1224 41.4414 44.7239 40.4388 44.7252C37.8398 44.7292 35.2409 44.7266 32.6432 44.7266C32.4674 44.7266 32.293 44.7266 32.0664 44.7266C32.0664 45.3698 32.069 45.9674 32.0664 46.5651C32.0625 47.444 32.0807 48.3229 32.0417 49.2005C32.0052 50.0026 31.4128 50.5703 30.6185 50.5794C29.2214 50.5963 27.8242 50.5937 26.4284 50.5807C25.7057 50.5742 25.306 50.0976 25.0039 49.5117C25 49.2513 25 48.9909 25 48.7305Z" fill="white"/>
<path d="M50.5404 38.8503C50.5404 35.5417 50.5404 32.2344 50.5404 28.9258C50.7344 28.9193 50.9297 28.9076 51.1237 28.9076C57.1641 28.9062 63.2045 28.9062 69.2435 28.9062C69.4193 28.9062 69.5951 28.9062 69.9128 28.9062C69.4805 28.4831 69.1276 28.1419 68.7813 27.7943C67.6993 26.7122 67.8321 25.7161 69.1524 25C69.4128 25 69.6719 25 69.9323 25C70.2748 25.263 70.6472 25.4961 70.9545 25.7956C72.0938 26.9089 73.2123 28.043 74.336 29.1745C75.1172 29.9609 75.1211 30.7773 74.3451 31.5586C73.1081 32.8047 71.8698 34.0495 70.6224 35.2852C70.1185 35.7839 69.4701 35.8841 68.8802 35.5924C68.3282 35.319 67.9844 34.7461 68.1016 34.1055C68.1615 33.776 68.3529 33.4375 68.573 33.1797C68.9506 32.7357 69.3972 32.3516 69.8789 31.8789C63.9011 31.8789 58.0105 31.8789 52.0743 31.8789C52.0664 32.0365 52.0521 32.2083 52.0521 32.3802C52.0508 33.9909 52.0599 35.6029 52.0469 37.2135C52.0378 38.2526 51.4623 38.862 50.5404 38.8503Z" fill="white"/>
<path d="M68.5677 75C68.5677 66.5365 68.5677 58.0729 68.5677 49.6094C69.181 49.5859 69.5508 49.9909 69.8789 50.4101C71.4141 52.3776 72.931 54.3594 74.4545 56.3359C74.6342 56.569 74.8177 56.7982 75 57.0299C75 57.2904 75 57.5508 75 57.8112C74.9336 57.8685 74.8386 57.9128 74.8034 57.9857C74.4831 58.6471 73.9545 58.9232 73.2331 58.8893C72.8451 58.8711 72.4519 58.9167 72.0664 58.8776C71.5873 58.8294 71.4779 59.013 71.4792 59.4753C71.4961 63.9427 71.4818 68.4088 71.4974 72.8763C71.5 73.6797 71.4011 74.3971 70.6563 74.8659C70.6263 74.8854 70.6276 74.9544 70.6133 75C69.9323 75 69.25 75 68.5677 75Z" fill="white"/>
<path d="M30.3685 69.1276C28.5794 69.1315 26.7891 69.1367 25 69.1406C25 66.2435 25 63.3463 25 60.4492C25.4049 59.5898 26.0885 59.3125 27.0143 59.362C28.1302 59.4219 29.2513 59.3841 30.3698 59.388C30.3685 62.6341 30.3685 65.8815 30.3685 69.1276Z" fill="#C1DB9B"/>
<path d="M62.5286 69.1262C60.7408 69.1262 58.9518 69.1262 57.164 69.1262C57.164 62.1653 57.164 55.203 57.1627 48.2408C57.1627 48.0455 57.1523 47.8515 57.1471 47.6562C57.1523 46.246 57.1575 44.8359 57.164 43.4257C57.1692 42.3971 57.7643 41.7981 58.7916 41.7981C60.0377 41.7981 61.2838 41.8072 62.5286 41.8124C62.5286 46.6692 62.5286 51.526 62.5299 56.3827C61.9948 57.3398 62.0117 57.7369 62.6158 58.4973C62.5859 58.634 62.5286 58.7694 62.5286 58.9062C62.5247 62.3137 62.5273 65.72 62.5286 69.1262Z" fill="#C1DB9B"/>
<path d="M57.1472 47.6562C57.1524 47.8516 57.1628 48.0456 57.1628 48.2409C57.1641 55.2031 57.1641 62.1641 57.1641 69.1263C55.3789 69.1263 53.5951 69.1276 51.8099 69.1276C51.8099 61.974 51.8099 54.8216 51.8099 47.668C53.5899 47.6654 55.3685 47.6602 57.1472 47.6562Z" fill="#4D876E"/>
<path d="M51.8112 47.6694C51.8112 54.823 51.8112 61.9754 51.8112 69.129C50.0208 69.129 48.2292 69.129 46.4388 69.1303C46.4375 63.9272 46.4362 58.7241 46.4336 53.5209C46.4362 52.0939 46.4388 50.6655 46.444 49.2384C46.4466 48.284 47.0677 47.6603 48.0234 47.6603C49.2852 47.6577 50.5482 47.6642 51.8112 47.6694Z" fill="#C1DB9B"/>
<path d="M46.4336 53.5195C46.4349 58.7227 46.4362 63.9258 46.4388 69.1289C44.6549 69.1276 42.8724 69.1263 41.0885 69.1263C41.0885 63.9284 41.0885 58.7292 41.0885 53.5312C42.8698 53.5273 44.651 53.5234 46.4336 53.5195Z" fill="#4D876E"/>
<path d="M41.0872 53.5312C41.0872 58.7291 41.0872 63.9284 41.0872 69.1263C39.2981 69.1263 37.5091 69.1263 35.72 69.1276C35.7148 65.8776 35.7109 62.6276 35.7057 59.3776C35.7109 57.9674 35.7148 56.556 35.7213 55.1458C35.7252 54.1185 36.3216 53.5182 37.3489 53.5182C38.595 53.5169 39.8411 53.526 41.0872 53.5312Z" fill="#C1DB9B"/>
<path d="M62.53 56.3827C62.53 51.526 62.53 46.6692 62.5287 41.8124C63.8568 41.8072 65.1862 41.7877 66.5144 41.8033C67.2956 41.8124 67.8789 42.4596 67.8829 43.2773C67.892 45.4205 67.8933 47.5637 67.8972 49.707C67.4414 50.2265 66.961 50.7265 66.5352 51.2682C65.2761 52.871 64.0391 54.4908 62.7917 56.1015C62.7136 56.203 62.6172 56.289 62.53 56.3827Z" fill="#4D876E"/>
<path d="M35.7058 59.3762C35.711 62.6262 35.7149 65.8762 35.7201 69.1262C33.9362 69.1262 32.1524 69.1275 30.3685 69.1275C30.3685 65.8814 30.3685 62.634 30.3685 59.3879C32.1485 59.384 33.9271 59.3801 35.7058 59.3762Z" fill="#4D876E"/>
<path d="M62.5286 69.1264C62.5273 65.7201 62.5234 62.3139 62.5273 58.9076C62.5273 58.7709 62.5846 58.6355 62.6146 58.4988C63.0208 58.6277 63.4206 58.823 63.8359 58.8712C64.3958 58.9363 64.9687 58.8868 65.5755 58.8868C65.5755 62.2996 65.5755 65.6876 65.5755 69.1264C64.5612 69.1264 63.5443 69.1264 62.5286 69.1264Z" fill="#4D876E"/>
</g>
<defs>
<clipPath id="clip0_535_3570">
<rect width="50" height="50" fill="white" transform="translate(25 25)"/>
</clipPath>
</defs>
</svg>
