<svg width="100" height="100" viewBox="0 0 100 100" fill="none" xmlns="http://www.w3.org/2000/svg">
<circle cx="50" cy="50" r="50" fill="#1A6241"/>
<path d="M38.2513 57.0678C38.2513 56.2904 38.2734 55.5118 38.2422 54.7358C38.233 54.5261 38.1224 54.2527 37.9635 54.129C36.4739 52.9584 35.5221 51.474 35.2356 49.5899C35.1862 49.2592 34.9882 49.2566 34.7526 49.2709C33.9961 49.3152 33.3099 49.1615 32.7487 48.6055C31.802 47.6667 31.7617 46.3373 32.6588 45.3464C32.7135 45.2865 32.7604 45.2214 32.8125 45.1589C33.4674 44.5743 34.2812 44.5626 35.108 44.5795C35.1315 44.2996 35.1497 44.0665 35.1705 43.8126C36.5507 43.8126 37.8828 43.7735 39.2109 43.8217C41.233 43.8959 42.7994 43.1329 43.9205 41.4467C44.0846 41.2006 44.289 40.9806 44.5364 40.6707C45.6315 42.4858 46.9987 43.7709 49.1445 43.823C49.1666 44.116 49.1849 44.336 49.2057 44.6082C50.0468 44.5053 50.8125 44.6316 51.5026 45.0782C51.5794 45.198 51.6471 45.3269 51.7356 45.4376C52.3424 46.1902 52.4817 47.0274 52.0703 47.8946C51.6666 48.7475 50.9661 49.2358 49.9948 49.267C49.72 49.2761 49.4453 49.2683 49.1784 49.2683C49.0403 49.7957 48.9336 50.2996 48.7747 50.7865C48.3385 52.1238 47.5208 53.1954 46.4179 54.0509C46.1653 54.2462 46.0312 54.4402 46.0442 54.7774C46.0716 55.5404 46.0547 56.3035 46.056 57.0678C45.3567 57.9128 44.6523 58.7553 43.9583 59.6042C43.3789 60.3139 42.8099 61.0326 42.2356 61.7475C42.181 61.7475 42.1263 61.7449 42.0716 61.7449C41.983 61.6134 41.9049 61.4727 41.8034 61.3516C40.6211 59.922 39.4349 58.4949 38.25 57.0678H38.2513Z" fill="#B98561"/>
<path d="M51.504 45.0768C50.8139 44.6301 50.0482 44.5038 49.2071 44.6067C49.1862 44.3346 49.1693 44.1145 49.1459 43.8215C47 43.7695 45.6316 42.4843 44.5378 40.6692C44.2891 40.9791 44.0847 41.1991 43.9219 41.4452C42.8008 43.1327 41.2344 43.8945 39.2123 43.8202C37.8842 43.7721 36.5521 43.8111 35.1719 43.8111C35.1511 44.065 35.1316 44.2981 35.1094 44.5781C34.2839 44.5611 33.4701 44.5728 32.8139 45.1575C32.8295 43.3137 32.6355 41.4609 33.168 39.6445C34.4076 35.4205 38.3868 32.6262 42.7956 32.9088C47.0886 33.1835 50.754 36.4752 51.3698 40.7525C51.5743 42.1705 51.4688 43.634 51.504 45.0768Z" fill="#181818"/>
<path d="M26.5624 70.7175C26.5624 68.2996 26.5156 65.879 26.5768 63.4623C26.6119 62.073 27.1783 60.8334 28.0364 59.7318C29.2096 58.2279 30.7708 57.3699 32.6262 57.099C33.4531 56.9792 34.3111 57.0769 35.1549 57.0756C35.9192 59.3933 36.6835 61.711 37.4648 64.0808C37.8567 63.8894 38.1835 63.7227 38.5182 63.5691C39.0143 63.3412 39.5156 63.1251 40.0143 62.9037C40.47 63.8165 40.927 64.7292 41.3828 65.642C41.0065 67.4701 40.6289 69.2983 40.2526 71.1264C40.1419 71.1342 40.0273 71.1251 39.9205 71.1498C37.9765 71.616 36.0078 71.8959 34.0052 71.8764C33.3463 71.8699 32.6887 71.8139 32.0299 71.78C32.0299 70.5248 32.0299 69.2696 32.0299 68.0157H30.4492V71.5847C29.1549 71.2956 27.8593 71.0053 26.5651 70.7162L26.5624 70.7175Z" fill="white"/>
<path d="M55.1171 58.6277C56.5429 59.793 57.4375 61.2605 57.6536 63.1082C57.7057 63.5561 57.7421 64.0079 57.7434 64.4584C57.7513 67.2488 57.7474 70.0378 57.7474 72.8282V73.4311C56.4192 73.4311 55.1289 73.4311 53.8398 73.4311C53.8398 71.6264 53.8398 69.823 53.8398 68.0183H52.2981V73.4311C49.6914 73.4311 47.0846 73.4311 44.4778 73.4311C44.2448 72.2045 44.013 70.9779 43.7799 69.7527C44.3203 69.4988 44.8698 69.2644 45.3984 68.9871C47.1718 68.0587 48.7786 66.8842 50.2213 65.504C52.2877 63.5274 53.9544 61.2553 55.1158 58.6277H55.1171Z" fill="white"/>
<path d="M55.1172 58.6276C53.957 61.2539 52.2891 63.5273 50.2227 65.5039C48.7799 66.8841 47.1732 68.0573 45.3997 68.987C44.8711 69.263 44.3216 69.4987 43.7813 69.7526C43.4961 68.3828 43.2109 67.0117 42.9258 65.6419C43.3815 64.7292 43.8372 63.8151 44.293 62.9023C44.4727 62.9635 44.6615 63.0065 44.8307 63.0885C45.4844 63.4023 46.1302 63.7279 46.8424 64.0807C47.6237 61.7122 48.388 59.3945 49.1523 57.0755C49.3281 57.0703 49.5039 57.0651 49.681 57.0599C50.418 57.056 51.1536 57.0508 51.8906 57.0469C52.0964 57.1198 52.3008 57.2018 52.5104 57.263C53.4714 57.5456 54.3971 57.8906 55.1172 58.6289V58.6276Z" fill="white"/>
<path d="M51.8907 57.0456C51.1537 57.0496 50.418 57.0548 49.681 57.0587C49.7735 56.9493 49.8594 56.8308 49.961 56.7292C53.0821 53.6055 56.1993 50.4792 59.3373 47.3725C59.5651 47.1459 59.944 46.9493 60.2539 46.9467C64.7344 46.9193 69.2149 46.9285 73.6954 46.9285C73.8217 46.9285 73.9467 46.9415 74.0964 46.9493V48.4884H73.5261C69.306 48.4884 65.0847 48.4844 60.8646 48.4988C60.6342 48.4988 60.3399 48.586 60.1823 48.7423C57.448 51.4493 54.7318 54.1733 52.0118 56.8946C51.9662 56.9402 51.931 56.9949 51.8907 57.0456Z" fill="white"/>
<path d="M56.845 35.0624C56.3724 34.6002 56.0273 34.2643 55.6627 33.9075C55.7747 33.7825 55.8658 33.6718 55.9674 33.5703C57.3554 32.1796 58.75 30.7968 60.1302 29.3984C60.4127 29.1119 60.7161 28.9817 61.1211 28.9882C62.3711 29.0064 63.6211 29.0051 64.8711 28.9843C65.0703 28.9804 65.3046 28.8749 65.4583 28.7421C65.8958 28.3658 66.2994 27.9518 66.7161 27.552C66.6953 27.5169 66.6744 27.4804 66.6536 27.4453H64.8007V25.8814C66.1289 25.8814 67.4401 25.8632 68.75 25.8919C69.1718 25.901 69.4336 26.207 69.4388 26.638C69.4531 27.9192 69.444 29.1992 69.444 30.5182H67.9023V28.5299C67.3333 29.0989 66.8411 29.5546 66.3932 30.0494C66.0481 30.4296 65.664 30.5781 65.1497 30.565C63.9648 30.5338 62.7799 30.5403 61.595 30.5676C61.3671 30.5729 61.0898 30.6861 60.927 30.845C59.6601 32.0807 58.414 33.3359 57.1679 34.5924C57.0442 34.7174 56.9635 34.8867 56.8463 35.0624H56.845Z" fill="white"/>
<path d="M68.6602 43.8061V32.9285H71.7891C71.7891 36.5535 71.7891 40.1798 71.7891 43.8061C70.7461 43.8061 69.7031 43.8061 68.6602 43.8061Z" fill="white"/>
<path d="M68.6601 43.8059C69.7031 43.8059 70.7461 43.8059 71.789 43.8059C72.5481 43.8059 73.3073 43.8059 74.095 43.8059V45.3333H53.8815V43.8059C54.6419 43.8059 55.4127 43.8059 56.1836 43.8059C57.2265 43.8059 58.2695 43.8059 59.3125 43.8059C60.3489 43.8059 61.3854 43.8059 62.4205 43.8059C63.4635 43.8059 64.5065 43.8059 65.5494 43.8059C66.5859 43.8059 67.6224 43.8059 68.6575 43.8059H68.6601Z" fill="#C1DB9B"/>
<path d="M40.0143 62.9023C39.5156 63.1237 39.0143 63.3411 38.5182 63.5677C38.1836 63.7214 37.8567 63.888 37.4648 64.0794C36.6836 61.7096 35.9192 59.3919 35.1549 57.0742C36.1875 57.0716 37.22 57.069 38.2513 57.0664C39.4362 58.4935 40.6211 59.9206 41.8033 61.3503C41.9036 61.4714 41.9817 61.612 42.0703 61.7435C41.927 61.8437 41.7929 61.9596 41.6406 62.0417C41.1015 62.3346 40.5559 62.6146 40.0117 62.8997L40.0143 62.9023Z" fill="#1A6241"/>
<path d="M49.1524 57.0756C48.3881 59.3933 47.6237 61.7123 46.8425 64.0808C46.1302 63.7279 45.4831 63.4024 44.8308 63.0886C44.6615 63.0066 44.4727 62.9636 44.293 62.9024C44.112 62.7996 43.931 62.6954 43.7487 62.5938C43.2448 62.3113 42.7409 62.0313 42.2357 61.7488C42.8099 61.0339 43.3789 60.3152 43.9584 59.6055C44.6524 58.7553 45.3568 57.9141 46.056 57.0691C47.0886 57.0717 48.1211 57.0743 49.1524 57.0769V57.0756Z" fill="#1A6241"/>
<path d="M42.9258 65.6418C43.211 67.0116 43.4961 68.3814 43.7813 69.7525C44.0144 70.9791 44.2461 72.2056 44.4792 73.4322C42.9297 73.4322 41.3789 73.4322 39.8295 73.4322C39.9701 72.664 40.1107 71.8958 40.2513 71.1275C40.6276 69.2994 41.0052 67.4713 41.3816 65.6431C41.8959 65.6431 42.4102 65.6431 42.9245 65.6431L42.9258 65.6418Z" fill="#1A6241"/>
<path d="M65.5508 43.8059C64.5078 43.8059 63.4648 43.8059 62.4219 43.8059C62.4219 41.7499 62.4219 39.6952 62.4219 37.6067H65.5508V43.8059Z" fill="white"/>
<path d="M40.2513 71.1262C40.1107 71.8944 39.9701 72.6627 39.8294 73.4309C37.2227 73.4309 34.6159 73.4309 32.0078 73.4309C32.0143 72.8801 32.0208 72.3306 32.0273 71.7799C32.6862 71.8137 33.3437 71.8697 34.0026 71.8762C36.0052 71.8945 37.974 71.6158 39.918 71.1497C40.0247 71.1236 40.1393 71.1327 40.25 71.1262H40.2513Z" fill="white"/>
<path d="M59.3125 43.806C58.2695 43.806 57.2266 43.806 56.1836 43.806C56.1836 42.5299 56.1836 41.2539 56.1836 39.9453H59.3125V43.806Z" fill="white"/>
<path d="M26.5625 70.7175C27.8568 71.0066 29.1523 71.297 30.4466 71.586C30.4531 72.2019 30.4596 72.8165 30.4674 73.4324C29.3047 73.435 28.1419 73.4259 26.9792 73.4493C26.6224 73.4558 26.5456 73.3165 26.5534 72.9949C26.5716 72.2358 26.5612 71.4766 26.5625 70.7175Z" fill="white"/>
<path d="M42.9257 65.6419C42.4114 65.6419 41.8971 65.6419 41.3828 65.6419C40.927 64.7292 40.4713 63.8164 40.0143 62.9036C40.5573 62.6185 41.1028 62.3372 41.6432 62.0443C41.7955 61.9622 41.9296 61.8464 42.0729 61.7461C42.1276 61.7461 42.1823 61.7487 42.2369 61.7487C42.7408 62.03 43.2461 62.3112 43.75 62.5938C43.9323 62.6953 44.1132 62.7995 44.2942 62.9023C43.8385 63.8151 43.3828 64.7292 42.927 65.6419H42.9257Z" fill="#C1DB9B"/>
</svg>
